<?xml version="1.0" encoding="utf-8"?>
<svg viewBox="-567.2466394788072 -574.0000000000001 1047.8907385791706 1628.0000000000002" preserveAspectRatio="xMidYMid meet" version="1.1" baseProfile="full" xmlns="http://www.w3.org/2000/svg" style="background-color: black;">
<g style="stroke:#ffffff; stroke-width: 1; stroke-linejoin: round;">
<path fill="#4ee055" d="M69,-40 L69,-20 L52,-10 L35,-20 L35,-40 L52,-50 Z" />
<path fill="#D8D388" d="M87,-10 L87,10 L69,20 L52,10 L52,-10 L69,-20 Z" />
<path fill="#4ee055" d="M69,-100 L69,-80 L52,-70 L35,-80 L35,-100 L52,-110 Z" />
<path fill="#D8D388" d="M87,-70 L87,-50 L69,-40 L52,-50 L52,-70 L69,-80 Z" />
<path fill="#D8D388" d="M104,-40 L104,-20 L87,-10 L69,-20 L69,-40 L87,-50 Z" />
<path fill="#4ee055" d="M121,-10 L121,10 L104,20 L87,10 L87,-10 L104,-20 Z" />
<path fill="#D8D388" d="M104,20 L104,40 L87,50 L69,40 L69,20 L87,10 Z" />
<path fill="#4ee055" d="M69,80 L69,100 L52,110 L35,100 L35,80 L52,70 Z" />
<path fill="#D8D388" d="M35,80 L35,100 L17,110 L0,100 L0,80 L17,70 Z" />
<path fill="#D8D388" d="M0,80 L0,100 L-17,110 L-35,100 L-35,80 L-17,70 Z" />
<path fill="#4ee055" d="M-35,80 L-35,100 L-52,110 L-69,100 L-69,80 L-52,70 Z" />
<path fill="#D8D388" d="M52,-130 L52,-110 L35,-100 L17,-110 L17,-130 L35,-140 Z" />
<path fill="#D8D388" d="M87,-130 L87,-110 L69,-100 L52,-110 L52,-130 L69,-140 Z" />
<path fill="#D8D388" d="M104,-100 L104,-80 L87,-70 L69,-80 L69,-100 L87,-110 Z" />
<path fill="#4ee055" d="M121,-70 L121,-50 L104,-40 L87,-50 L87,-70 L104,-80 Z" />
<path fill="#D8D388" d="M139,-40 L139,-20 L121,-10 L104,-20 L104,-40 L121,-50 Z" />
<path fill="#D8D388" d="M156,-10 L156,10 L139,20 L121,10 L121,-10 L139,-20 Z" />
<path fill="#D8D388" d="M139,20 L139,40 L121,50 L104,40 L104,20 L121,10 Z" />
<path fill="#4ee055" d="M121,50 L121,70 L104,80 L87,70 L87,50 L104,40 Z" />
<path fill="#D8D388" d="M104,80 L104,100 L87,110 L69,100 L69,80 L87,70 Z" />
<path fill="#D8D388" d="M87,110 L87,130 L69,140 L52,130 L52,110 L69,100 Z" />
<path fill="#D8D388" d="M52,110 L52,130 L35,140 L17,130 L17,110 L35,100 Z" />
<path fill="#4ee055" d="M17,110 L17,130 L0,140 L-17,130 L-17,110 L0,100 Z" />
<path fill="#D8D388" d="M-17,110 L-17,130 L-35,140 L-52,130 L-52,110 L-35,100 Z" />
<path fill="#D8D388" d="M35,-160 L35,-140 L17,-130 L0,-140 L0,-160 L17,-170 Z" />
<path fill="#4ee055" d="M69,-160 L69,-140 L52,-130 L35,-140 L35,-160 L52,-170 Z" />
<path fill="#D8D388" d="M104,-160 L104,-140 L87,-130 L69,-140 L69,-160 L87,-170 Z" />
<path fill="#4ee055" d="M121,-130 L121,-110 L104,-100 L87,-110 L87,-130 L104,-140 Z" />
<path fill="#D8D388" d="M139,-100 L139,-80 L121,-70 L104,-80 L104,-100 L121,-110 Z" />
<path fill="#D8D388" d="M156,-70 L156,-50 L139,-40 L121,-50 L121,-70 L139,-80 Z" />
<path fill="#4ee055" d="M173,-40 L173,-20 L156,-10 L139,-20 L139,-40 L156,-50 Z" />
<path fill="#D8D388" d="M191,-10 L191,10 L173,20 L156,10 L156,-10 L173,-20 Z" />
<path fill="#4ee055" d="M173,20 L173,40 L156,50 L139,40 L139,20 L156,10 Z" />
<path fill="#D8D388" d="M156,50 L156,70 L139,80 L121,70 L121,50 L139,40 Z" />
<path fill="#D8D388" d="M139,80 L139,100 L121,110 L104,100 L104,80 L121,70 Z" />
<path fill="#4ee055" d="M121,110 L121,130 L104,140 L87,130 L87,110 L104,100 Z" />
<path fill="#D8D388" d="M104,140 L104,160 L87,170 L69,160 L69,140 L87,130 Z" />
<path fill="#4ee055" d="M69,140 L69,160 L52,170 L35,160 L35,140 L52,130 Z" />
<path fill="#D8D388" d="M35,140 L35,160 L17,170 L0,160 L0,140 L17,130 Z" />
<path fill="#D8D388" d="M0,140 L0,160 L-17,170 L-35,160 L-35,140 L-17,130 Z" />
<path fill="#D8D388" d="M52,-190 L52,-170 L35,-160 L17,-170 L17,-190 L35,-200 Z" />
<path fill="#D8D388" d="M87,-190 L87,-170 L69,-160 L52,-170 L52,-190 L69,-200 Z" />
<path fill="#4ee055" d="M121,-190 L121,-170 L104,-160 L87,-170 L87,-190 L104,-200 Z" />
<path fill="#D8D388" d="M139,-160 L139,-140 L121,-130 L104,-140 L104,-160 L121,-170 Z" />
<path fill="#D8D388" d="M156,-130 L156,-110 L139,-100 L121,-110 L121,-130 L139,-140 Z" />
<path fill="#4ee055" d="M173,-100 L173,-80 L156,-70 L139,-80 L139,-100 L156,-110 Z" />
<path fill="#D8D388" d="M191,-70 L191,-50 L173,-40 L156,-50 L156,-70 L173,-80 Z" />
<path fill="#D8D388" d="M208,-40 L208,-20 L191,-10 L173,-20 L173,-40 L191,-50 Z" />
<path fill="#4ee055" d="M225,-10 L225,10 L208,20 L191,10 L191,-10 L208,-20 Z" />
<path fill="#D8D388" d="M208,20 L208,40 L191,50 L173,40 L173,20 L191,10 Z" />
<path fill="#D8D388" d="M191,50 L191,70 L173,80 L156,70 L156,50 L173,40 Z" />
<path fill="#4ee055" d="M173,80 L173,100 L156,110 L139,100 L139,80 L156,70 Z" />
<path fill="#D8D388" d="M156,110 L156,130 L139,140 L121,130 L121,110 L139,100 Z" />
<path fill="#D8D388" d="M139,140 L139,160 L121,170 L104,160 L104,140 L121,130 Z" />
<path fill="#4ee055" d="M121,170 L121,190 L104,200 L87,190 L87,170 L104,160 Z" />
<path fill="#D8D388" d="M87,170 L87,190 L69,200 L52,190 L52,170 L69,160 Z" />
<path fill="#D8D388" d="M52,170 L52,190 L35,200 L17,190 L17,170 L35,160 Z" />
<path fill="#4ee055" d="M17,170 L17,190 L0,200 L-17,190 L-17,170 L0,160 Z" />
<path fill="#4ee055" d="M69,-220 L69,-200 L52,-190 L35,-200 L35,-220 L52,-230 Z" />
<path fill="#D8D388" d="M104,-220 L104,-200 L87,-190 L69,-200 L69,-220 L87,-230 Z" />
<path fill="#D8D388" d="M139,-220 L139,-200 L121,-190 L104,-200 L104,-220 L121,-230 Z" />
<path fill="#D8D388" d="M156,-190 L156,-170 L139,-160 L121,-170 L121,-190 L139,-200 Z" />
<path fill="#4ee055" d="M173,-160 L173,-140 L156,-130 L139,-140 L139,-160 L156,-170 Z" />
<path fill="#D8D388" d="M191,-130 L191,-110 L173,-100 L156,-110 L156,-130 L173,-140 Z" />
<path fill="#D8D388" d="M208,-100 L208,-80 L191,-70 L173,-80 L173,-100 L191,-110 Z" />
<path fill="#4ee055" d="M225,-70 L225,-50 L208,-40 L191,-50 L191,-70 L208,-80 Z" />
<path fill="#D8D388" d="M242,-40 L242,-20 L225,-10 L208,-20 L208,-40 L225,-50 Z" />
<path fill="#D8D388" d="M260,-10 L260,10 L242,20 L225,10 L225,-10 L242,-20 Z" />
<path fill="#D8D388" d="M242,20 L242,40 L225,50 L208,40 L208,20 L225,10 Z" />
<path fill="#4ee055" d="M225,50 L225,70 L208,80 L191,70 L191,50 L208,40 Z" />
<path fill="#D8D388" d="M208,80 L208,100 L191,110 L173,100 L173,80 L191,70 Z" />
<path fill="#D8D388" d="M191,110 L191,130 L173,140 L156,130 L156,110 L173,100 Z" />
<path fill="#4ee055" d="M173,140 L173,160 L156,170 L139,160 L139,140 L156,130 Z" />
<path fill="#D8D388" d="M156,170 L156,190 L139,200 L121,190 L121,170 L139,160 Z" />
<path fill="#D8D388" d="M139,200 L139,220 L121,230 L104,220 L104,200 L121,190 Z" />
<path fill="#D8D388" d="M104,200 L104,220 L87,230 L69,220 L69,200 L87,190 Z" />
<path fill="#4ee055" d="M69,200 L69,220 L52,230 L35,220 L35,200 L52,190 Z" />
<path fill="#D8D388" d="M35,200 L35,220 L17,230 L0,220 L0,200 L17,190 Z" />
<path fill="#D8D388" d="M0,200 L0,220 L-17,230 L-35,220 L-35,200 L-17,190 Z" />
<path fill="#D8D388" d="M52,-250 L52,-230 L35,-220 L17,-230 L17,-250 L35,-260 Z" />
<path fill="#D8D388" d="M87,-250 L87,-230 L69,-220 L52,-230 L52,-250 L69,-260 Z" />
<path fill="#4ee055" d="M121,-250 L121,-230 L104,-220 L87,-230 L87,-250 L104,-260 Z" />
<path fill="#D8D388" d="M156,-250 L156,-230 L139,-220 L121,-230 L121,-250 L139,-260 Z" />
<path fill="#4ee055" d="M173,-220 L173,-200 L156,-190 L139,-200 L139,-220 L156,-230 Z" />
<path fill="#D8D388" d="M191,-190 L191,-170 L173,-160 L156,-170 L156,-190 L173,-200 Z" />
<path fill="#D8D388" d="M208,-160 L208,-140 L191,-130 L173,-140 L173,-160 L191,-170 Z" />
<path fill="#4ee055" d="M225,-130 L225,-110 L208,-100 L191,-110 L191,-130 L208,-140 Z" />
<path fill="#D8D388" d="M242,-100 L242,-80 L225,-70 L208,-80 L208,-100 L225,-110 Z" />
<path fill="#D8D388" d="M260,-70 L260,-50 L242,-40 L225,-50 L225,-70 L242,-80 Z" />
<path fill="#4ee055" d="M277,-40 L277,-20 L260,-10 L242,-20 L242,-40 L260,-50 Z" />
<path fill="#D8D388" d="M294,-10 L294,10 L277,20 L260,10 L260,-10 L277,-20 Z" />
<path fill="#4ee055" d="M277,20 L277,40 L260,50 L242,40 L242,20 L260,10 Z" />
<path fill="#D8D388" d="M260,50 L260,70 L242,80 L225,70 L225,50 L242,40 Z" />
<path fill="#D8D388" d="M242,80 L242,100 L225,110 L208,100 L208,80 L225,70 Z" />
<path fill="#4ee055" d="M225,110 L225,130 L208,140 L191,130 L191,110 L208,100 Z" />
<path fill="#D8D388" d="M208,140 L208,160 L191,170 L173,160 L173,140 L191,130 Z" />
<path fill="#D8D388" d="M191,170 L191,190 L173,200 L156,190 L156,170 L173,160 Z" />
<path fill="#4ee055" d="M173,200 L173,220 L156,230 L139,220 L139,200 L156,190 Z" />
<path fill="#D8D388" d="M156,230 L156,250 L139,260 L121,250 L121,230 L139,220 Z" />
<path fill="#4ee055" d="M121,230 L121,250 L104,260 L87,250 L87,230 L104,220 Z" />
<path fill="#D8D388" d="M87,230 L87,250 L69,260 L52,250 L52,230 L69,220 Z" />
<path fill="#D8D388" d="M52,230 L52,250 L35,260 L17,250 L17,230 L35,220 Z" />
<path fill="#4ee055" d="M17,230 L17,250 L0,260 L-17,250 L-17,230 L0,220 Z" />
<path fill="#D8D388" d="M-17,230 L-17,250 L-35,260 L-52,250 L-52,230 L-35,220 Z" />
<path fill="#D8D388" d="M-52,230 L-52,250 L-69,260 L-87,250 L-87,230 L-69,220 Z" />
<path fill="#4ee055" d="M69,-280 L69,-260 L52,-250 L35,-260 L35,-280 L52,-290 Z" />
<path fill="#D8D388" d="M104,-280 L104,-260 L87,-250 L69,-260 L69,-280 L87,-290 Z" />
<path fill="#D8D388" d="M139,-280 L139,-260 L121,-250 L104,-260 L104,-280 L121,-290 Z" />
<path fill="#4ee055" d="M173,-280 L173,-260 L156,-250 L139,-260 L139,-280 L156,-290 Z" />
<path fill="#D8D388" d="M191,-250 L191,-230 L173,-220 L156,-230 L156,-250 L173,-260 Z" />
<path fill="#D8D388" d="M208,-220 L208,-200 L191,-190 L173,-200 L173,-220 L191,-230 Z" />
<path fill="#4ee055" d="M225,-190 L225,-170 L208,-160 L191,-170 L191,-190 L208,-200 Z" />
<path fill="#D8D388" d="M242,-160 L242,-140 L225,-130 L208,-140 L208,-160 L225,-170 Z" />
<path fill="#D8D388" d="M260,-130 L260,-110 L242,-100 L225,-110 L225,-130 L242,-140 Z" />
<path fill="#4ee055" d="M277,-100 L277,-80 L260,-70 L242,-80 L242,-100 L260,-110 Z" />
<path fill="#D8D388" d="M294,-70 L294,-50 L277,-40 L260,-50 L260,-70 L277,-80 Z" />
<path fill="#D8D388" d="M312,-40 L312,-20 L294,-10 L277,-20 L277,-40 L294,-50 Z" />
<path fill="#4ee055" d="M329,-10 L329,10 L312,20 L294,10 L294,-10 L312,-20 Z" />
<path fill="#D8D388" d="M312,20 L312,40 L294,50 L277,40 L277,20 L294,10 Z" />
<path fill="#D8D388" d="M294,50 L294,70 L277,80 L260,70 L260,50 L277,40 Z" />
<path fill="#4ee055" d="M277,80 L277,100 L260,110 L242,100 L242,80 L260,70 Z" />
<path fill="#D8D388" d="M260,110 L260,130 L242,140 L225,130 L225,110 L242,100 Z" />
<path fill="#D8D388" d="M242,140 L242,160 L225,170 L208,160 L208,140 L225,130 Z" />
<path fill="#4ee055" d="M225,170 L225,190 L208,200 L191,190 L191,170 L208,160 Z" />
<path fill="#D8D388" d="M208,200 L208,220 L191,230 L173,220 L173,200 L191,190 Z" />
<path fill="#D8D388" d="M191,230 L191,250 L173,260 L156,250 L156,230 L173,220 Z" />
<path fill="#4ee055" d="M173,260 L173,280 L156,290 L139,280 L139,260 L156,250 Z" />
<path fill="#D8D388" d="M139,260 L139,280 L121,290 L104,280 L104,260 L121,250 Z" />
<path fill="#D8D388" d="M104,260 L104,280 L87,290 L69,280 L69,260 L87,250 Z" />
<path fill="#4ee055" d="M69,260 L69,280 L52,290 L35,280 L35,260 L52,250 Z" />
<path fill="#D8D388" d="M35,260 L35,280 L17,290 L0,280 L0,260 L17,250 Z" />
<path fill="#D8D388" d="M0,260 L0,280 L-17,290 L-35,280 L-35,260 L-17,250 Z" />
<path fill="#4ee055" d="M-35,260 L-35,280 L-52,290 L-69,280 L-69,260 L-52,250 Z" />
<path fill="#D8D388" d="M-69,260 L-69,280 L-87,290 L-104,280 L-104,260 L-87,250 Z" />
<path fill="#4ee055" d="M121,-310 L121,-290 L104,-280 L87,-290 L87,-310 L104,-320 Z" />
<path fill="#D8D388" d="M156,-310 L156,-290 L139,-280 L121,-290 L121,-310 L139,-320 Z" />
<path fill="#D8D388" d="M191,-310 L191,-290 L173,-280 L156,-290 L156,-310 L173,-320 Z" />
<path fill="#D8D388" d="M208,-280 L208,-260 L191,-250 L173,-260 L173,-280 L191,-290 Z" />
<path fill="#4ee055" d="M225,-250 L225,-230 L208,-220 L191,-230 L191,-250 L208,-260 Z" />
<path fill="#D8D388" d="M242,-220 L242,-200 L225,-190 L208,-200 L208,-220 L225,-230 Z" />
<path fill="#D8D388" d="M260,-190 L260,-170 L242,-160 L225,-170 L225,-190 L242,-200 Z" />
<path fill="#4ee055" d="M277,-160 L277,-140 L260,-130 L242,-140 L242,-160 L260,-170 Z" />
<path fill="#D8D388" d="M294,-130 L294,-110 L277,-100 L260,-110 L260,-130 L277,-140 Z" />
<path fill="#D8D388" d="M312,-100 L312,-80 L294,-70 L277,-80 L277,-100 L294,-110 Z" />
<path fill="#4ee055" d="M329,-70 L329,-50 L312,-40 L294,-50 L294,-70 L312,-80 Z" />
<path fill="#D8D388" d="M346,-40 L346,-20 L329,-10 L312,-20 L312,-40 L329,-50 Z" />
<path fill="#D8D388" d="M364,-10 L364,10 L346,20 L329,10 L329,-10 L346,-20 Z" />
<path fill="#D8D388" d="M346,20 L346,40 L329,50 L312,40 L312,20 L329,10 Z" />
<path fill="#D8D388" d="M294,110 L294,130 L277,140 L260,130 L260,110 L277,100 Z" />
<path fill="#4ee055" d="M277,140 L277,160 L260,170 L242,160 L242,140 L260,130 Z" />
<path fill="#D8D388" d="M260,170 L260,190 L242,200 L225,190 L225,170 L242,160 Z" />
<path fill="#D8D388" d="M242,200 L242,220 L225,230 L208,220 L208,200 L225,190 Z" />
<path fill="#4ee055" d="M225,230 L225,250 L208,260 L191,250 L191,230 L208,220 Z" />
<path fill="#D8D388" d="M208,260 L208,280 L191,290 L173,280 L173,260 L191,250 Z" />
<path fill="#D8D388" d="M191,290 L191,310 L173,320 L156,310 L156,290 L173,280 Z" />
<path fill="#D8D388" d="M156,290 L156,310 L139,320 L121,310 L121,290 L139,280 Z" />
<path fill="#4ee055" d="M121,290 L121,310 L104,320 L87,310 L87,290 L104,280 Z" />
<path fill="#D8D388" d="M87,290 L87,310 L69,320 L52,310 L52,290 L69,280 Z" />
<path fill="#D8D388" d="M52,290 L52,310 L35,320 L17,310 L17,290 L35,280 Z" />
<path fill="#4ee055" d="M17,290 L17,310 L0,320 L-17,310 L-17,290 L0,280 Z" />
<path fill="#D8D388" d="M-17,290 L-17,310 L-35,320 L-52,310 L-52,290 L-35,280 Z" />
<path fill="#D8D388" d="M-52,290 L-52,310 L-69,320 L-87,310 L-87,290 L-69,280 Z" />
<path fill="#4ee055" d="M-87,290 L-87,310 L-104,320 L-121,310 L-121,290 L-104,280 Z" />
<path fill="#D8D388" d="M139,-340 L139,-320 L121,-310 L104,-320 L104,-340 L121,-350 Z" />
<path fill="#4ee055" d="M173,-340 L173,-320 L156,-310 L139,-320 L139,-340 L156,-350 Z" />
<path fill="#D8D388" d="M208,-340 L208,-320 L191,-310 L173,-320 L173,-340 L191,-350 Z" />
<path fill="#4ee055" d="M225,-310 L225,-290 L208,-280 L191,-290 L191,-310 L208,-320 Z" />
<path fill="#D8D388" d="M242,-280 L242,-260 L225,-250 L208,-260 L208,-280 L225,-290 Z" />
<path fill="#D8D388" d="M260,-250 L260,-230 L242,-220 L225,-230 L225,-250 L242,-260 Z" />
<path fill="#4ee055" d="M277,-220 L277,-200 L260,-190 L242,-200 L242,-220 L260,-230 Z" />
<path fill="#D8D388" d="M294,-190 L294,-170 L277,-160 L260,-170 L260,-190 L277,-200 Z" />
<path fill="#D8D388" d="M294,170 L294,190 L277,200 L260,190 L260,170 L277,160 Z" />
<path fill="#4ee055" d="M277,200 L277,220 L260,230 L242,220 L242,200 L260,190 Z" />
<path fill="#D8D388" d="M260,230 L260,250 L242,260 L225,250 L225,230 L242,220 Z" />
<path fill="#D8D388" d="M242,260 L242,280 L225,290 L208,280 L208,260 L225,250 Z" />
<path fill="#4ee055" d="M225,290 L225,310 L208,320 L191,310 L191,290 L208,280 Z" />
<path fill="#D8D388" d="M208,320 L208,340 L191,350 L173,340 L173,320 L191,310 Z" />
<path fill="#4ee055" d="M173,320 L173,340 L156,350 L139,340 L139,320 L156,310 Z" />
<path fill="#D8D388" d="M139,320 L139,340 L121,350 L104,340 L104,320 L121,310 Z" />
<path fill="#D8D388" d="M104,320 L104,340 L87,350 L69,340 L69,320 L87,310 Z" />
<path fill="#4ee055" d="M69,320 L69,340 L52,350 L35,340 L35,320 L52,310 Z" />
<path fill="#D8D388" d="M0,320 L0,340 L-17,350 L-35,340 L-35,320 L-17,310 Z" />
<path fill="#4ee055" d="M-35,320 L-35,340 L-52,350 L-69,340 L-69,320 L-52,310 Z" />
<path fill="#D8D388" d="M156,-370 L156,-350 L139,-340 L121,-350 L121,-370 L139,-380 Z" />
<path fill="#D8D388" d="M191,-370 L191,-350 L173,-340 L156,-350 L156,-370 L173,-380 Z" />
<path fill="#4ee055" d="M225,-370 L225,-350 L208,-340 L191,-350 L191,-370 L208,-380 Z" />
<path fill="#D8D388" d="M242,-340 L242,-320 L225,-310 L208,-320 L208,-340 L225,-350 Z" />
<path fill="#D8D388" d="M260,-310 L260,-290 L242,-280 L225,-290 L225,-310 L242,-320 Z" />
<path fill="#4ee055" d="M277,-280 L277,-260 L260,-250 L242,-260 L242,-280 L260,-290 Z" />
<path fill="#D8D388" d="M294,-250 L294,-230 L277,-220 L260,-230 L260,-250 L277,-260 Z" />
<path fill="#D8D388" d="M294,230 L294,250 L277,260 L260,250 L260,230 L277,220 Z" />
<path fill="#4ee055" d="M277,260 L277,280 L260,290 L242,280 L242,260 L260,250 Z" />
<path fill="#D8D388" d="M260,290 L260,310 L242,320 L225,310 L225,290 L242,280 Z" />
<path fill="#D8D388" d="M242,320 L242,340 L225,350 L208,340 L208,320 L225,310 Z" />
<path fill="#4ee055" d="M225,350 L225,370 L208,380 L191,370 L191,350 L208,340 Z" />
<path fill="#D8D388" d="M191,350 L191,370 L173,380 L156,370 L156,350 L173,340 Z" />
<path fill="#D8D388" d="M156,350 L156,370 L139,380 L121,370 L121,350 L139,340 Z" />
<path fill="#4ee055" d="M121,350 L121,370 L104,380 L87,370 L87,350 L104,340 Z" />
<path fill="#D8D388" d="M87,350 L87,370 L69,380 L52,370 L52,350 L69,340 Z" />
<path fill="#D8D388" d="M52,350 L52,370 L35,380 L17,370 L17,350 L35,340 Z" />
<path fill="#4ee055" d="M173,-400 L173,-380 L156,-370 L139,-380 L139,-400 L156,-410 Z" />
<path fill="#D8D388" d="M208,-400 L208,-380 L191,-370 L173,-380 L173,-400 L191,-410 Z" />
<path fill="#D8D388" d="M242,-400 L242,-380 L225,-370 L208,-380 L208,-400 L225,-410 Z" />
<path fill="#D8D388" d="M260,-370 L260,-350 L242,-340 L225,-350 L225,-370 L242,-380 Z" />
<path fill="#4ee055" d="M277,-340 L277,-320 L260,-310 L242,-320 L242,-340 L260,-350 Z" />
<path fill="#D8D388" d="M294,-310 L294,-290 L277,-280 L260,-290 L260,-310 L277,-320 Z" />
<path fill="#D8D388" d="M312,-280 L312,-260 L294,-250 L277,-260 L277,-280 L294,-290 Z" />
<path fill="#D8D388" d="M312,260 L312,280 L294,290 L277,280 L277,260 L294,250 Z" />
<path fill="#D8D388" d="M294,290 L294,310 L277,320 L260,310 L260,290 L277,280 Z" />
<path fill="#4ee055" d="M277,320 L277,340 L260,350 L242,340 L242,320 L260,310 Z" />
<path fill="#D8D388" d="M260,350 L260,370 L242,380 L225,370 L225,350 L242,340 Z" />
<path fill="#D8D388" d="M242,380 L242,400 L225,410 L208,400 L208,380 L225,370 Z" />
<path fill="#D8D388" d="M208,380 L208,400 L191,410 L173,400 L173,380 L191,370 Z" />
<path fill="#4ee055" d="M173,380 L173,400 L156,410 L139,400 L139,380 L156,370 Z" />
<path fill="#D8D388" d="M139,380 L139,400 L121,410 L104,400 L104,380 L121,370 Z" />
<path fill="#D8D388" d="M104,380 L104,400 L87,410 L69,400 L69,380 L87,370 Z" />
<path fill="#4ee055" d="M69,380 L69,400 L52,410 L35,400 L35,380 L52,370 Z" />
<path fill="#D8D388" d="M35,380 L35,400 L17,410 L0,400 L0,380 L17,370 Z" />
<path fill="#D8D388" d="M0,380 L0,400 L-17,410 L-35,400 L-35,380 L-17,370 Z" />
<path fill="#4ee055" d="M225,-430 L225,-410 L208,-400 L191,-410 L191,-430 L208,-440 Z" />
<path fill="#D8D388" d="M260,-430 L260,-410 L242,-400 L225,-410 L225,-430 L242,-440 Z" />
<path fill="#4ee055" d="M277,-400 L277,-380 L260,-370 L242,-380 L242,-400 L260,-410 Z" />
<path fill="#D8D388" d="M294,-370 L294,-350 L277,-340 L260,-350 L260,-370 L277,-380 Z" />
<path fill="#D8D388" d="M312,-340 L312,-320 L294,-310 L277,-320 L277,-340 L294,-350 Z" />
<path fill="#4ee055" d="M329,290 L329,310 L312,320 L294,310 L294,290 L312,280 Z" />
<path fill="#D8D388" d="M312,320 L312,340 L294,350 L277,340 L277,320 L294,310 Z" />
<path fill="#D8D388" d="M294,350 L294,370 L277,380 L260,370 L260,350 L277,340 Z" />
<path fill="#4ee055" d="M277,380 L277,400 L260,410 L242,400 L242,380 L260,370 Z" />
<path fill="#D8D388" d="M260,410 L260,430 L242,440 L225,430 L225,410 L242,400 Z" />
<path fill="#4ee055" d="M225,410 L225,430 L208,440 L191,430 L191,410 L208,400 Z" />
<path fill="#D8D388" d="M191,410 L191,430 L173,440 L156,430 L156,410 L173,400 Z" />
<path fill="#D8D388" d="M156,410 L156,430 L139,440 L121,430 L121,410 L139,400 Z" />
<path fill="#4ee055" d="M121,410 L121,430 L104,440 L87,430 L87,410 L104,400 Z" />
<path fill="#D8D388" d="M87,410 L87,430 L69,440 L52,430 L52,410 L69,400 Z" />
<path fill="#D8D388" d="M52,410 L52,430 L35,440 L17,430 L17,410 L35,400 Z" />
<path fill="#4ee055" d="M17,410 L17,430 L0,440 L-17,430 L-17,410 L0,400 Z" />
<path fill="#D8D388" d="M-17,410 L-17,430 L-35,440 L-52,430 L-52,410 L-35,400 Z" />
<path fill="#D8D388" d="M-52,410 L-52,430 L-69,440 L-87,430 L-87,410 L-69,400 Z" />
<path fill="#4ee055" d="M-87,410 L-87,430 L-104,440 L-121,430 L-121,410 L-104,400 Z" />
<path fill="#D8D388" d="M242,-460 L242,-440 L225,-430 L208,-440 L208,-460 L225,-470 Z" />
<path fill="#4ee055" d="M277,-460 L277,-440 L260,-430 L242,-440 L242,-460 L260,-470 Z" />
<path fill="#D8D388" d="M294,-430 L294,-410 L277,-400 L260,-410 L260,-430 L277,-440 Z" />
<path fill="#D8D388" d="M312,-400 L312,-380 L294,-370 L277,-380 L277,-400 L294,-410 Z" />
<path fill="#D8D388" d="M346,320 L346,340 L329,350 L312,340 L312,320 L329,310 Z" />
<path fill="#4ee055" d="M329,350 L329,370 L312,380 L294,370 L294,350 L312,340 Z" />
<path fill="#D8D388" d="M312,380 L312,400 L294,410 L277,400 L277,380 L294,370 Z" />
<path fill="#D8D388" d="M294,410 L294,430 L277,440 L260,430 L260,410 L277,400 Z" />
<path fill="#4ee055" d="M277,440 L277,460 L260,470 L242,460 L242,440 L260,430 Z" />
<path fill="#D8D388" d="M242,440 L242,460 L225,470 L208,460 L208,440 L225,430 Z" />
<path fill="#D8D388" d="M208,440 L208,460 L191,470 L173,460 L173,440 L191,430 Z" />
<path fill="#4ee055" d="M173,440 L173,460 L156,470 L139,460 L139,440 L156,430 Z" />
<path fill="#D8D388" d="M139,440 L139,460 L121,470 L104,460 L104,440 L121,430 Z" />
<path fill="#D8D388" d="M104,440 L104,460 L87,470 L69,460 L69,440 L87,430 Z" />
<path fill="#4ee055" d="M69,440 L69,460 L52,470 L35,460 L35,440 L52,430 Z" />
<path fill="#D8D388" d="M35,440 L35,460 L17,470 L0,460 L0,440 L17,430 Z" />
<path fill="#D8D388" d="M0,440 L0,460 L-17,470 L-35,460 L-35,440 L-17,430 Z" />
<path fill="#4ee055" d="M-35,440 L-35,460 L-52,470 L-69,460 L-69,440 L-52,430 Z" />
<path fill="#D8D388" d="M-69,440 L-69,460 L-87,470 L-104,460 L-104,440 L-87,430 Z" />
<path fill="#D8D388" d="M-104,440 L-104,460 L-121,470 L-139,460 L-139,440 L-121,430 Z" />
<path fill="#4ee055" d="M-139,440 L-139,460 L-156,470 L-173,460 L-173,440 L-156,430 Z" />
<path fill="#D8D388" d="M-173,440 L-173,460 L-191,470 L-208,460 L-208,440 L-191,430 Z" />
<path fill="#D8D388" d="M-208,440 L-208,460 L-225,470 L-242,460 L-242,440 L-225,430 Z" />
<path fill="#4ee055" d="M-242,440 L-242,460 L-260,470 L-277,460 L-277,440 L-260,430 Z" />
<path fill="#D8D388" d="M294,-490 L294,-470 L277,-460 L260,-470 L260,-490 L277,-500 Z" />
<path fill="#D8D388" d="M312,-460 L312,-440 L294,-430 L277,-440 L277,-460 L294,-470 Z" />
<path fill="#4ee055" d="M329,-430 L329,-410 L312,-400 L294,-410 L294,-430 L312,-440 Z" />
<path fill="#D8D388" d="M364,350 L364,370 L346,380 L329,370 L329,350 L346,340 Z" />
<path fill="#D8D388" d="M346,380 L346,400 L329,410 L312,400 L312,380 L329,370 Z" />
<path fill="#4ee055" d="M329,410 L329,430 L312,440 L294,430 L294,410 L312,400 Z" />
<path fill="#D8D388" d="M312,440 L312,460 L294,470 L277,460 L277,440 L294,430 Z" />
<path fill="#D8D388" d="M294,470 L294,490 L277,500 L260,490 L260,470 L277,460 Z" />
<path fill="#D8D388" d="M260,470 L260,490 L242,500 L225,490 L225,470 L242,460 Z" />
<path fill="#4ee055" d="M225,470 L225,490 L208,500 L191,490 L191,470 L208,460 Z" />
<path fill="#D8D388" d="M191,470 L191,490 L173,500 L156,490 L156,470 L173,460 Z" />
<path fill="#D8D388" d="M156,470 L156,490 L139,500 L121,490 L121,470 L139,460 Z" />
<path fill="#4ee055" d="M121,470 L121,490 L104,500 L87,490 L87,470 L104,460 Z" />
<path fill="#D8D388" d="M87,470 L87,490 L69,500 L52,490 L52,470 L69,460 Z" />
<path fill="#D8D388" d="M52,470 L52,490 L35,500 L17,490 L17,470 L35,460 Z" />
<path fill="#4ee055" d="M17,470 L17,490 L0,500 L-17,490 L-17,470 L0,460 Z" />
<path fill="#D8D388" d="M-17,470 L-17,490 L-35,500 L-52,490 L-52,470 L-35,460 Z" />
<path fill="#D8D388" d="M-52,470 L-52,490 L-69,500 L-87,490 L-87,470 L-69,460 Z" />
<path fill="#4ee055" d="M-87,470 L-87,490 L-104,500 L-121,490 L-121,470 L-104,460 Z" />
<path fill="#D8D388" d="M-121,470 L-121,490 L-139,500 L-156,490 L-156,470 L-139,460 Z" />
<path fill="#D8D388" d="M-156,470 L-156,490 L-173,500 L-191,490 L-191,470 L-173,460 Z" />
<path fill="#4ee055" d="M-191,470 L-191,490 L-208,500 L-225,490 L-225,470 L-208,460 Z" />
<path fill="#D8D388" d="M-225,470 L-225,490 L-242,500 L-260,490 L-260,470 L-242,460 Z" />
<path fill="#D8D388" d="M-260,470 L-260,490 L-277,500 L-294,490 L-294,470 L-277,460 Z" />
<path fill="#4ee055" d="M329,-490 L329,-470 L312,-460 L294,-470 L294,-490 L312,-500 Z" />
<path fill="#D8D388" d="M364,410 L364,430 L346,440 L329,430 L329,410 L346,400 Z" />
<path fill="#D8D388" d="M346,440 L346,460 L329,470 L312,460 L312,440 L329,430 Z" />
<path fill="#4ee055" d="M329,470 L329,490 L312,500 L294,490 L294,470 L312,460 Z" />
<path fill="#D8D388" d="M312,500 L312,520 L294,530 L277,520 L277,500 L294,490 Z" />
<path fill="#4ee055" d="M277,500 L277,520 L260,530 L242,520 L242,500 L260,490 Z" />
<path fill="#D8D388" d="M242,500 L242,520 L225,530 L208,520 L208,500 L225,490 Z" />
<path fill="#D8D388" d="M208,500 L208,520 L191,530 L173,520 L173,500 L191,490 Z" />
<path fill="#4ee055" d="M173,500 L173,520 L156,530 L139,520 L139,500 L156,490 Z" />
<path fill="#D8D388" d="M139,500 L139,520 L121,530 L104,520 L104,500 L121,490 Z" />
<path fill="#D8D388" d="M104,500 L104,520 L87,530 L69,520 L69,500 L87,490 Z" />
<path fill="#4ee055" d="M69,500 L69,520 L52,530 L35,520 L35,500 L52,490 Z" />
<path fill="#D8D388" d="M35,500 L35,520 L17,530 L0,520 L0,500 L17,490 Z" />
<path fill="#D8D388" d="M0,500 L0,520 L-17,530 L-35,520 L-35,500 L-17,490 Z" />
<path fill="#4ee055" d="M-35,500 L-35,520 L-52,530 L-69,520 L-69,500 L-52,490 Z" />
<path fill="#D8D388" d="M-69,500 L-69,520 L-87,530 L-104,520 L-104,500 L-87,490 Z" />
<path fill="#D8D388" d="M-104,500 L-104,520 L-121,530 L-139,520 L-139,500 L-121,490 Z" />
<path fill="#4ee055" d="M-139,500 L-139,520 L-156,530 L-173,520 L-173,500 L-156,490 Z" />
<path fill="#D8D388" d="M-173,500 L-173,520 L-191,530 L-208,520 L-208,500 L-191,490 Z" />
<path fill="#D8D388" d="M-208,500 L-208,520 L-225,530 L-242,520 L-242,500 L-225,490 Z" />
<path fill="#4ee055" d="M-242,500 L-242,520 L-260,530 L-277,520 L-277,500 L-260,490 Z" />
<path fill="#D8D388" d="M-277,500 L-277,520 L-294,530 L-312,520 L-312,500 L-294,490 Z" />
<path fill="#4ee055" d="M381,440 L381,460 L364,470 L346,460 L346,440 L364,430 Z" />
<path fill="#D8D388" d="M364,470 L364,490 L346,500 L329,490 L329,470 L346,460 Z" />
<path fill="#D8D388" d="M346,500 L346,520 L329,530 L312,520 L312,500 L329,490 Z" />
<path fill="#4ee055" d="M329,530 L329,550 L312,560 L294,550 L294,530 L312,520 Z" />
<path fill="#D8D388" d="M294,530 L294,550 L277,560 L260,550 L260,530 L277,520 Z" />
<path fill="#D8D388" d="M260,530 L260,550 L242,560 L225,550 L225,530 L242,520 Z" />
<path fill="#4ee055" d="M225,530 L225,550 L208,560 L191,550 L191,530 L208,520 Z" />
<path fill="#D8D388" d="M191,530 L191,550 L173,560 L156,550 L156,530 L173,520 Z" />
<path fill="#D8D388" d="M156,530 L156,550 L139,560 L121,550 L121,530 L139,520 Z" />
<path fill="#4ee055" d="M121,530 L121,550 L104,560 L87,550 L87,530 L104,520 Z" />
<path fill="#D8D388" d="M87,530 L87,550 L69,560 L52,550 L52,530 L69,520 Z" />
<path fill="#D8D388" d="M52,530 L52,550 L35,560 L17,550 L17,530 L35,520 Z" />
<path fill="#4ee055" d="M17,530 L17,550 L0,560 L-17,550 L-17,530 L0,520 Z" />
<path fill="#D8D388" d="M-17,530 L-17,550 L-35,560 L-52,550 L-52,530 L-35,520 Z" />
<path fill="#D8D388" d="M-52,530 L-52,550 L-69,560 L-87,550 L-87,530 L-69,520 Z" />
<path fill="#4ee055" d="M-87,530 L-87,550 L-104,560 L-121,550 L-121,530 L-104,520 Z" />
<path fill="#D8D388" d="M-121,530 L-121,550 L-139,560 L-156,550 L-156,530 L-139,520 Z" />
<path fill="#D8D388" d="M-156,530 L-156,550 L-173,560 L-191,550 L-191,530 L-173,520 Z" />
<path fill="#4ee055" d="M-191,530 L-191,550 L-208,560 L-225,550 L-225,530 L-208,520 Z" />
<path fill="#D8D388" d="M-225,530 L-225,550 L-242,560 L-260,550 L-260,530 L-242,520 Z" />
<path fill="#D8D388" d="M-260,530 L-260,550 L-277,560 L-294,550 L-294,530 L-277,520 Z" />
<path fill="#4ee055" d="M-294,530 L-294,550 L-312,560 L-329,550 L-329,530 L-312,520 Z" />
<path fill="#D8D388" d="M398,470 L398,490 L381,500 L364,490 L364,470 L381,460 Z" />
<path fill="#4ee055" d="M381,500 L381,520 L364,530 L346,520 L346,500 L364,490 Z" />
<path fill="#D8D388" d="M364,530 L364,550 L346,560 L329,550 L329,530 L346,520 Z" />
<path fill="#D8D388" d="M346,560 L346,580 L329,590 L312,580 L312,560 L329,550 Z" />
<path fill="#D8D388" d="M312,560 L312,580 L294,590 L277,580 L277,560 L294,550 Z" />
<path fill="#4ee055" d="M277,560 L277,580 L260,590 L242,580 L242,560 L260,550 Z" />
<path fill="#D8D388" d="M242,560 L242,580 L225,590 L208,580 L208,560 L225,550 Z" />
<path fill="#D8D388" d="M208,560 L208,580 L191,590 L173,580 L173,560 L191,550 Z" />
<path fill="#4ee055" d="M173,560 L173,580 L156,590 L139,580 L139,560 L156,550 Z" />
<path fill="#D8D388" d="M139,560 L139,580 L121,590 L104,580 L104,560 L121,550 Z" />
<path fill="#D8D388" d="M104,560 L104,580 L87,590 L69,580 L69,560 L87,550 Z" />
<path fill="#4ee055" d="M69,560 L69,580 L52,590 L35,580 L35,560 L52,550 Z" />
<path fill="#D8D388" d="M35,560 L35,580 L17,590 L0,580 L0,560 L17,550 Z" />
<path fill="#D8D388" d="M0,560 L0,580 L-17,590 L-35,580 L-35,560 L-17,550 Z" />
<path fill="#4ee055" d="M-35,560 L-35,580 L-52,590 L-69,580 L-69,560 L-52,550 Z" />
<path fill="#D8D388" d="M-69,560 L-69,580 L-87,590 L-104,580 L-104,560 L-87,550 Z" />
<path fill="#D8D388" d="M-104,560 L-104,580 L-121,590 L-139,580 L-139,560 L-121,550 Z" />
<path fill="#4ee055" d="M-139,560 L-139,580 L-156,590 L-173,580 L-173,560 L-156,550 Z" />
<path fill="#D8D388" d="M-173,560 L-173,580 L-191,590 L-208,580 L-208,560 L-191,550 Z" />
<path fill="#D8D388" d="M-208,560 L-208,580 L-225,590 L-242,580 L-242,560 L-225,550 Z" />
<path fill="#4ee055" d="M-242,560 L-242,580 L-260,590 L-277,580 L-277,560 L-260,550 Z" />
<path fill="#D8D388" d="M-277,560 L-277,580 L-294,590 L-312,580 L-312,560 L-294,550 Z" />
<path fill="#D8D388" d="M-312,560 L-312,580 L-329,590 L-346,580 L-346,560 L-329,550 Z" />
<path fill="#D8D388" d="M-329,530 L-329,550 L-346,560 L-364,550 L-364,530 L-346,520 Z" />
<path fill="#D8D388" d="M398,530 L398,550 L381,560 L364,550 L364,530 L381,520 Z" />
<path fill="#4ee055" d="M381,560 L381,580 L364,590 L346,580 L346,560 L364,550 Z" />
<path fill="#D8D388" d="M364,590 L364,610 L346,620 L329,610 L329,590 L346,580 Z" />
<path fill="#4ee055" d="M329,590 L329,610 L312,620 L294,610 L294,590 L312,580 Z" />
<path fill="#D8D388" d="M294,590 L294,610 L277,620 L260,610 L260,590 L277,580 Z" />
<path fill="#D8D388" d="M260,590 L260,610 L242,620 L225,610 L225,590 L242,580 Z" />
<path fill="#4ee055" d="M225,590 L225,610 L208,620 L191,610 L191,590 L208,580 Z" />
<path fill="#D8D388" d="M191,590 L191,610 L173,620 L156,610 L156,590 L173,580 Z" />
<path fill="#D8D388" d="M156,590 L156,610 L139,620 L121,610 L121,590 L139,580 Z" />
<path fill="#4ee055" d="M121,590 L121,610 L104,620 L87,610 L87,590 L104,580 Z" />
<path fill="#D8D388" d="M87,590 L87,610 L69,620 L52,610 L52,590 L69,580 Z" />
<path fill="#D8D388" d="M52,590 L52,610 L35,620 L17,610 L17,590 L35,580 Z" />
<path fill="#4ee055" d="M17,590 L17,610 L0,620 L-17,610 L-17,590 L0,580 Z" />
<path fill="#D8D388" d="M-17,590 L-17,610 L-35,620 L-52,610 L-52,590 L-35,580 Z" />
<path fill="#D8D388" d="M-52,590 L-52,610 L-69,620 L-87,610 L-87,590 L-69,580 Z" />
<path fill="#4ee055" d="M-87,590 L-87,610 L-104,620 L-121,610 L-121,590 L-104,580 Z" />
<path fill="#D8D388" d="M-121,590 L-121,610 L-139,620 L-156,610 L-156,590 L-139,580 Z" />
<path fill="#D8D388" d="M-156,590 L-156,610 L-173,620 L-191,610 L-191,590 L-173,580 Z" />
<path fill="#4ee055" d="M-191,590 L-191,610 L-208,620 L-225,610 L-225,590 L-208,580 Z" />
<path fill="#D8D388" d="M-225,590 L-225,610 L-242,620 L-260,610 L-260,590 L-242,580 Z" />
<path fill="#D8D388" d="M-260,590 L-260,610 L-277,620 L-294,610 L-294,590 L-277,580 Z" />
<path fill="#4ee055" d="M-294,590 L-294,610 L-312,620 L-329,610 L-329,590 L-312,580 Z" />
<path fill="#D8D388" d="M-329,590 L-329,610 L-346,620 L-364,610 L-364,590 L-346,580 Z" />
<path fill="#4ee055" d="M-346,560 L-346,580 L-364,590 L-381,580 L-381,560 L-364,550 Z" />
<path fill="#D8D388" d="M416,560 L416,580 L398,590 L381,580 L381,560 L398,550 Z" />
<path fill="#D8D388" d="M398,590 L398,610 L381,620 L364,610 L364,590 L381,580 Z" />
<path fill="#D8D388" d="M346,620 L346,640 L329,650 L312,640 L312,620 L329,610 Z" />
<path fill="#D8D388" d="M312,620 L312,640 L294,650 L277,640 L277,620 L294,610 Z" />
<path fill="#D8D388" d="M242,620 L242,640 L225,650 L208,640 L208,620 L225,610 Z" />
<path fill="#D8D388" d="M208,620 L208,640 L191,650 L173,640 L173,620 L191,610 Z" />
<path fill="#4ee055" d="M173,620 L173,640 L156,650 L139,640 L139,620 L156,610 Z" />
<path fill="#D8D388" d="M139,620 L139,640 L121,650 L104,640 L104,620 L121,610 Z" />
<path fill="#D8D388" d="M104,620 L104,640 L87,650 L69,640 L69,620 L87,610 Z" />
<path fill="#4ee055" d="M69,620 L69,640 L52,650 L35,640 L35,620 L52,610 Z" />
<path fill="#D8D388" d="M35,620 L35,640 L17,650 L0,640 L0,620 L17,610 Z" />
<path fill="#D8D388" d="M0,620 L0,640 L-17,650 L-35,640 L-35,620 L-17,610 Z" />
<path fill="#4ee055" d="M-35,620 L-35,640 L-52,650 L-69,640 L-69,620 L-52,610 Z" />
<path fill="#D8D388" d="M-69,620 L-69,640 L-87,650 L-104,640 L-104,620 L-87,610 Z" />
<path fill="#D8D388" d="M-104,620 L-104,640 L-121,650 L-139,640 L-139,620 L-121,610 Z" />
<path fill="#4ee055" d="M-139,620 L-139,640 L-156,650 L-173,640 L-173,620 L-156,610 Z" />
<path fill="#D8D388" d="M-173,620 L-173,640 L-191,650 L-208,640 L-208,620 L-191,610 Z" />
<path fill="#D8D388" d="M-208,620 L-208,640 L-225,650 L-242,640 L-242,620 L-225,610 Z" />
<path fill="#4ee055" d="M-242,620 L-242,640 L-260,650 L-277,640 L-277,620 L-260,610 Z" />
<path fill="#D8D388" d="M-277,620 L-277,640 L-294,650 L-312,640 L-312,620 L-294,610 Z" />
<path fill="#D8D388" d="M-312,620 L-312,640 L-329,650 L-346,640 L-346,620 L-329,610 Z" />
<path fill="#4ee055" d="M-346,620 L-346,640 L-364,650 L-381,640 L-381,620 L-364,610 Z" />
<path fill="#D8D388" d="M-364,590 L-364,610 L-381,620 L-398,610 L-398,590 L-381,580 Z" />
<path fill="#4ee055" d="M433,590 L433,610 L416,620 L398,610 L398,590 L416,580 Z" />
<path fill="#D8D388" d="M87,650 L87,670 L69,680 L52,670 L52,650 L69,640 Z" />
<path fill="#D8D388" d="M52,650 L52,670 L35,680 L17,670 L17,650 L35,640 Z" />
<path fill="#4ee055" d="M17,650 L17,670 L0,680 L-17,670 L-17,650 L0,640 Z" />
<path fill="#D8D388" d="M-17,650 L-17,670 L-35,680 L-52,670 L-52,650 L-35,640 Z" />
<path fill="#D8D388" d="M-52,650 L-52,670 L-69,680 L-87,670 L-87,650 L-69,640 Z" />
<path fill="#4ee055" d="M-87,650 L-87,670 L-104,680 L-121,670 L-121,650 L-104,640 Z" />
<path fill="#D8D388" d="M-121,650 L-121,670 L-139,680 L-156,670 L-156,650 L-139,640 Z" />
<path fill="#D8D388" d="M-156,650 L-156,670 L-173,680 L-191,670 L-191,650 L-173,640 Z" />
<path fill="#4ee055" d="M-191,650 L-191,670 L-208,680 L-225,670 L-225,650 L-208,640 Z" />
<path fill="#D8D388" d="M-225,650 L-225,670 L-242,680 L-260,670 L-260,650 L-242,640 Z" />
<path fill="#D8D388" d="M-260,650 L-260,670 L-277,680 L-294,670 L-294,650 L-277,640 Z" />
<path fill="#4ee055" d="M-294,650 L-294,670 L-312,680 L-329,670 L-329,650 L-312,640 Z" />
<path fill="#D8D388" d="M-329,650 L-329,670 L-346,680 L-364,670 L-364,650 L-346,640 Z" />
<path fill="#D8D388" d="M-364,650 L-364,670 L-381,680 L-398,670 L-398,650 L-381,640 Z" />
<path fill="#D8D388" d="M-381,620 L-381,640 L-398,650 L-416,640 L-416,620 L-398,610 Z" />
<path fill="#D8D388" d="M35,680 L35,700 L17,710 L0,700 L0,680 L17,670 Z" />
<path fill="#D8D388" d="M0,680 L0,700 L-17,710 L-35,700 L-35,680 L-17,670 Z" />
<path fill="#4ee055" d="M-35,680 L-35,700 L-52,710 L-69,700 L-69,680 L-52,670 Z" />
<path fill="#D8D388" d="M-69,680 L-69,700 L-87,710 L-104,700 L-104,680 L-87,670 Z" />
<path fill="#D8D388" d="M-104,680 L-104,700 L-121,710 L-139,700 L-139,680 L-121,670 Z" />
<path fill="#4ee055" d="M-139,680 L-139,700 L-156,710 L-173,700 L-173,680 L-156,670 Z" />
<path fill="#D8D388" d="M-173,680 L-173,700 L-191,710 L-208,700 L-208,680 L-191,670 Z" />
<path fill="#D8D388" d="M-208,680 L-208,700 L-225,710 L-242,700 L-242,680 L-225,670 Z" />
<path fill="#4ee055" d="M-242,680 L-242,700 L-260,710 L-277,700 L-277,680 L-260,670 Z" />
<path fill="#D8D388" d="M-277,680 L-277,700 L-294,710 L-312,700 L-312,680 L-294,670 Z" />
<path fill="#D8D388" d="M-312,680 L-312,700 L-329,710 L-346,700 L-346,680 L-329,670 Z" />
<path fill="#4ee055" d="M-346,680 L-346,700 L-364,710 L-381,700 L-381,680 L-364,670 Z" />
<path fill="#D8D388" d="M-381,680 L-381,700 L-398,710 L-416,700 L-416,680 L-398,670 Z" />
<path fill="#4ee055" d="M-398,650 L-398,670 L-416,680 L-433,670 L-433,650 L-416,640 Z" />
<path fill="#4ee055" d="M17,710 L17,730 L0,740 L-17,730 L-17,710 L0,700 Z" />
<path fill="#D8D388" d="M-17,710 L-17,730 L-35,740 L-52,730 L-52,710 L-35,700 Z" />
<path fill="#D8D388" d="M-52,710 L-52,730 L-69,740 L-87,730 L-87,710 L-69,700 Z" />
<path fill="#4ee055" d="M-87,710 L-87,730 L-104,740 L-121,730 L-121,710 L-104,700 Z" />
<path fill="#D8D388" d="M-121,710 L-121,730 L-139,740 L-156,730 L-156,710 L-139,700 Z" />
<path fill="#D8D388" d="M-156,710 L-156,730 L-173,740 L-191,730 L-191,710 L-173,700 Z" />
<path fill="#4ee055" d="M-191,710 L-191,730 L-208,740 L-225,730 L-225,710 L-208,700 Z" />
<path fill="#D8D388" d="M-225,710 L-225,730 L-242,740 L-260,730 L-260,710 L-242,700 Z" />
<path fill="#D8D388" d="M-260,710 L-260,730 L-277,740 L-294,730 L-294,710 L-277,700 Z" />
<path fill="#4ee055" d="M-294,710 L-294,730 L-312,740 L-329,730 L-329,710 L-312,700 Z" />
<path fill="#D8D388" d="M-329,710 L-329,730 L-346,740 L-364,730 L-364,710 L-346,700 Z" />
<path fill="#D8D388" d="M-364,710 L-364,730 L-381,740 L-398,730 L-398,710 L-381,700 Z" />
<path fill="#4ee055" d="M-398,710 L-398,730 L-416,740 L-433,730 L-433,710 L-416,700 Z" />
<path fill="#D8D388" d="M-416,680 L-416,700 L-433,710 L-450,700 L-450,680 L-433,670 Z" />
<path fill="#4ee055" d="M-35,740 L-35,760 L-52,770 L-69,760 L-69,740 L-52,730 Z" />
<path fill="#D8D388" d="M-69,740 L-69,760 L-87,770 L-104,760 L-104,740 L-87,730 Z" />
<path fill="#D8D388" d="M-104,740 L-104,760 L-121,770 L-139,760 L-139,740 L-121,730 Z" />
<path fill="#4ee055" d="M-139,740 L-139,760 L-156,770 L-173,760 L-173,740 L-156,730 Z" />
<path fill="#D8D388" d="M-173,740 L-173,760 L-191,770 L-208,760 L-208,740 L-191,730 Z" />
<path fill="#D8D388" d="M-208,740 L-208,760 L-225,770 L-242,760 L-242,740 L-225,730 Z" />
<path fill="#4ee055" d="M-242,740 L-242,760 L-260,770 L-277,760 L-277,740 L-260,730 Z" />
<path fill="#D8D388" d="M-277,740 L-277,760 L-294,770 L-312,760 L-312,740 L-294,730 Z" />
<path fill="#D8D388" d="M-312,740 L-312,760 L-329,770 L-346,760 L-346,740 L-329,730 Z" />
<path fill="#4ee055" d="M-346,740 L-346,760 L-364,770 L-381,760 L-381,740 L-364,730 Z" />
<path fill="#D8D388" d="M-381,740 L-381,760 L-398,770 L-416,760 L-416,740 L-398,730 Z" />
<path fill="#D8D388" d="M-416,740 L-416,760 L-433,770 L-450,760 L-450,740 L-433,730 Z" />
<path fill="#D8D388" d="M-433,710 L-433,730 L-450,740 L-468,730 L-468,710 L-450,700 Z" />
<path fill="#4ee055" d="M-87,770 L-87,790 L-104,800 L-121,790 L-121,770 L-104,760 Z" />
<path fill="#D8D388" d="M-121,770 L-121,790 L-139,800 L-156,790 L-156,770 L-139,760 Z" />
<path fill="#D8D388" d="M-156,770 L-156,790 L-173,800 L-191,790 L-191,770 L-173,760 Z" />
<path fill="#4ee055" d="M-191,770 L-191,790 L-208,800 L-225,790 L-225,770 L-208,760 Z" />
<path fill="#D8D388" d="M-225,770 L-225,790 L-242,800 L-260,790 L-260,770 L-242,760 Z" />
<path fill="#D8D388" d="M-260,770 L-260,790 L-277,800 L-294,790 L-294,770 L-277,760 Z" />
<path fill="#4ee055" d="M-294,770 L-294,790 L-312,800 L-329,790 L-329,770 L-312,760 Z" />
<path fill="#D8D388" d="M-329,770 L-329,790 L-346,800 L-364,790 L-364,770 L-346,760 Z" />
<path fill="#D8D388" d="M-364,770 L-364,790 L-381,800 L-398,790 L-398,770 L-381,760 Z" />
<path fill="#4ee055" d="M-398,770 L-398,790 L-416,800 L-433,790 L-433,770 L-416,760 Z" />
<path fill="#D8D388" d="M-433,770 L-433,790 L-450,800 L-468,790 L-468,770 L-450,760 Z" />
<path fill="#4ee055" d="M-450,740 L-450,760 L-468,770 L-485,760 L-485,740 L-468,730 Z" />
<path fill="#D8D388" d="M-208,800 L-208,820 L-225,830 L-242,820 L-242,800 L-225,790 Z" />
<path fill="#4ee055" d="M-242,800 L-242,820 L-260,830 L-277,820 L-277,800 L-260,790 Z" />
<path fill="#D8D388" d="M-277,800 L-277,820 L-294,830 L-312,820 L-312,800 L-294,790 Z" />
<path fill="#D8D388" d="M-312,800 L-312,820 L-329,830 L-346,820 L-346,800 L-329,790 Z" />
<path fill="#4ee055" d="M-346,800 L-346,820 L-364,830 L-381,820 L-381,800 L-364,790 Z" />
<path fill="#D8D388" d="M-381,800 L-381,820 L-398,830 L-416,820 L-416,800 L-398,790 Z" />
<path fill="#D8D388" d="M-416,800 L-416,820 L-433,830 L-450,820 L-450,800 L-433,790 Z" />
<path fill="#4ee055" d="M-450,800 L-450,820 L-468,830 L-485,820 L-485,800 L-468,790 Z" />
<path fill="#D8D388" d="M-225,830 L-225,850 L-242,860 L-260,850 L-260,830 L-242,820 Z" />
<path fill="#D8D388" d="M-260,830 L-260,850 L-277,860 L-294,850 L-294,830 L-277,820 Z" />
<path fill="#4ee055" d="M-294,830 L-294,850 L-312,860 L-329,850 L-329,830 L-312,820 Z" />
<path fill="#D8D388" d="M-329,830 L-329,850 L-346,860 L-364,850 L-364,830 L-346,820 Z" />
<path fill="#D8D388" d="M-364,830 L-364,850 L-381,860 L-398,850 L-398,830 L-381,820 Z" />
<path fill="#4ee055" d="M-398,830 L-398,850 L-416,860 L-433,850 L-433,830 L-416,820 Z" />
<path fill="#D8D388" d="M-433,830 L-433,850 L-450,860 L-468,850 L-468,830 L-450,820 Z" />
<path fill="#D8D388" d="M-468,830 L-468,850 L-485,860 L-502,850 L-502,830 L-485,820 Z" />
<path fill="#D8D388" d="M-277,860 L-277,880 L-294,890 L-312,880 L-312,860 L-294,850 Z" />
<path fill="#D8D388" d="M-312,860 L-312,880 L-329,890 L-346,880 L-346,860 L-329,850 Z" />
<path fill="#4ee055" d="M-346,860 L-346,880 L-364,890 L-381,880 L-381,860 L-364,850 Z" />
<path fill="#D8D388" d="M-381,860 L-381,880 L-398,890 L-416,880 L-416,860 L-398,850 Z" />
<path fill="#D8D388" d="M-416,860 L-416,880 L-433,890 L-450,880 L-450,860 L-433,850 Z" />
<path fill="#4ee055" d="M-450,860 L-450,880 L-468,890 L-485,880 L-485,860 L-468,850 Z" />
<path fill="#4ee055" d="M-398,890 L-398,910 L-416,920 L-433,910 L-433,890 L-416,880 Z" />
<path fill="#D8D388" d="M-433,890 L-433,910 L-450,920 L-468,910 L-468,890 L-450,880 Z" />
<path fill="#D8D388" d="M-468,890 L-468,910 L-485,920 L-502,910 L-502,890 L-485,880 Z" />
<path fill="#4ee055" d="M-450,920 L-450,940 L-468,950 L-485,940 L-485,920 L-468,910 Z" />
<path fill="#D8D388" d="M-485,920 L-485,940 L-502,950 L-520,940 L-520,920 L-502,910 Z" />
<path fill="#D8D388" d="M-468,950 L-468,970 L-485,980 L-502,970 L-502,950 L-485,940 Z" />
<path fill="#D8D388" d="M52,-70 L52,-50 L35,-40 L17,-50 L17,-70 L35,-80 Z" />
</g>
</svg>