<?xml version="1.0" encoding="utf-8"?>
<svg viewBox="-1116.3067454781415 -1087.0 2076.7289182750837 1694.0" preserveAspectRatio="xMidYMid meet" version="1.1" baseProfile="full" xmlns="http://www.w3.org/2000/svg" style="background-color: black;">
<g style="stroke:#ffffff; stroke-width: 1; stroke-linejoin: round;">
<path fill="#D8D388" d="M-69,-160 L-69,-140 L-87,-130 L-104,-140 L-104,-160 L-87,-170 Z" />
<path fill="#D8D388" d="M-69,-160 L-69,-140 L-87,-130 L-104,-140 L-104,-160 L-87,-170 Z" />
<path fill="#4ee055" d="M-87,-190 L-87,-170 L-104,-160 L-121,-170 L-121,-190 L-104,-200 Z" />
<path fill="#D8D388" d="M-52,-190 L-52,-170 L-69,-160 L-87,-170 L-87,-190 L-69,-200 Z" />
<path fill="#D8D388" d="M-121,-130 L-121,-110 L-139,-100 L-156,-110 L-156,-130 L-139,-140 Z" />
<path fill="#D8D388" d="M-104,-160 L-104,-140 L-121,-130 L-139,-140 L-139,-160 L-121,-170 Z" />
<path fill="#4ee055" d="M-87,-190 L-87,-170 L-104,-160 L-121,-170 L-121,-190 L-104,-200 Z" />
<path fill="#D8D388" d="M-104,-220 L-104,-200 L-121,-190 L-139,-200 L-139,-220 L-121,-230 Z" />
<path fill="#D8D388" d="M-69,-220 L-69,-200 L-87,-190 L-104,-200 L-104,-220 L-87,-230 Z" />
<path fill="#4ee055" d="M-35,-220 L-35,-200 L-52,-190 L-69,-200 L-69,-220 L-52,-230 Z" />
<path fill="#D8D388" d="M0,-220 L0,-200 L-17,-190 L-35,-200 L-35,-220 L-17,-230 Z" />
<path fill="#D8D388" d="M-173,-100 L-173,-80 L-191,-70 L-208,-80 L-208,-100 L-191,-110 Z" />
<path fill="#D8D388" d="M-156,-130 L-156,-110 L-173,-100 L-191,-110 L-191,-130 L-173,-140 Z" />
<path fill="#4ee055" d="M-139,-160 L-139,-140 L-156,-130 L-173,-140 L-173,-160 L-156,-170 Z" />
<path fill="#D8D388" d="M-121,-190 L-121,-170 L-139,-160 L-156,-170 L-156,-190 L-139,-200 Z" />
<path fill="#D8D388" d="M-104,-220 L-104,-200 L-121,-190 L-139,-200 L-139,-220 L-121,-230 Z" />
<path fill="#D8D388" d="M-121,-250 L-121,-230 L-139,-220 L-156,-230 L-156,-250 L-139,-260 Z" />
<path fill="#4ee055" d="M-87,-250 L-87,-230 L-104,-220 L-121,-230 L-121,-250 L-104,-260 Z" />
<path fill="#D8D388" d="M-52,-250 L-52,-230 L-69,-220 L-87,-230 L-87,-250 L-69,-260 Z" />
<path fill="#D8D388" d="M-17,-250 L-17,-230 L-35,-220 L-52,-230 L-52,-250 L-35,-260 Z" />
<path fill="#4ee055" d="M17,-250 L17,-230 L0,-220 L-17,-230 L-17,-250 L0,-260 Z" />
<path fill="#D8D388" d="M52,-250 L52,-230 L35,-220 L17,-230 L17,-250 L35,-260 Z" />
<path fill="#4ee055" d="M-242,-40 L-242,-20 L-260,-10 L-277,-20 L-277,-40 L-260,-50 Z" />
<path fill="#D8D388" d="M-225,-70 L-225,-50 L-242,-40 L-260,-50 L-260,-70 L-242,-80 Z" />
<path fill="#D8D388" d="M-208,-100 L-208,-80 L-225,-70 L-242,-80 L-242,-100 L-225,-110 Z" />
<path fill="#4ee055" d="M-191,-130 L-191,-110 L-208,-100 L-225,-110 L-225,-130 L-208,-140 Z" />
<path fill="#D8D388" d="M-173,-160 L-173,-140 L-191,-130 L-208,-140 L-208,-160 L-191,-170 Z" />
<path fill="#D8D388" d="M-156,-190 L-156,-170 L-173,-160 L-191,-170 L-191,-190 L-173,-200 Z" />
<path fill="#4ee055" d="M-139,-220 L-139,-200 L-156,-190 L-173,-200 L-173,-220 L-156,-230 Z" />
<path fill="#D8D388" d="M-121,-250 L-121,-230 L-139,-220 L-156,-230 L-156,-250 L-139,-260 Z" />
<path fill="#4ee055" d="M-139,-280 L-139,-260 L-156,-250 L-173,-260 L-173,-280 L-156,-290 Z" />
<path fill="#D8D388" d="M-104,-280 L-104,-260 L-121,-250 L-139,-260 L-139,-280 L-121,-290 Z" />
<path fill="#D8D388" d="M-69,-280 L-69,-260 L-87,-250 L-104,-260 L-104,-280 L-87,-290 Z" />
<path fill="#4ee055" d="M-35,-280 L-35,-260 L-52,-250 L-69,-260 L-69,-280 L-52,-290 Z" />
<path fill="#D8D388" d="M0,-280 L0,-260 L-17,-250 L-35,-260 L-35,-280 L-17,-290 Z" />
<path fill="#D8D388" d="M35,-280 L35,-260 L17,-250 L0,-260 L0,-280 L17,-290 Z" />
<path fill="#4ee055" d="M69,-280 L69,-260 L52,-250 L35,-260 L35,-280 L52,-290 Z" />
<path fill="#D8D388" d="M104,-280 L104,-260 L87,-250 L69,-260 L69,-280 L87,-290 Z" />
<path fill="#4ee055" d="M-294,-10 L-294,10 L-312,20 L-329,10 L-329,-10 L-312,-20 Z" />
<path fill="#D8D388" d="M-277,-40 L-277,-20 L-294,-10 L-312,-20 L-312,-40 L-294,-50 Z" />
<path fill="#D8D388" d="M-260,-70 L-260,-50 L-277,-40 L-294,-50 L-294,-70 L-277,-80 Z" />
<path fill="#4ee055" d="M-242,-100 L-242,-80 L-260,-70 L-277,-80 L-277,-100 L-260,-110 Z" />
<path fill="#D8D388" d="M-225,-130 L-225,-110 L-242,-100 L-260,-110 L-260,-130 L-242,-140 Z" />
<path fill="#D8D388" d="M-208,-160 L-208,-140 L-225,-130 L-242,-140 L-242,-160 L-225,-170 Z" />
<path fill="#4ee055" d="M-191,-190 L-191,-170 L-208,-160 L-225,-170 L-225,-190 L-208,-200 Z" />
<path fill="#D8D388" d="M-173,-220 L-173,-200 L-191,-190 L-208,-200 L-208,-220 L-191,-230 Z" />
<path fill="#D8D388" d="M-156,-250 L-156,-230 L-173,-220 L-191,-230 L-191,-250 L-173,-260 Z" />
<path fill="#4ee055" d="M-139,-280 L-139,-260 L-156,-250 L-173,-260 L-173,-280 L-156,-290 Z" />
<path fill="#D8D388" d="M-121,-310 L-121,-290 L-139,-280 L-156,-290 L-156,-310 L-139,-320 Z" />
<path fill="#4ee055" d="M-87,-310 L-87,-290 L-104,-280 L-121,-290 L-121,-310 L-104,-320 Z" />
<path fill="#D8D388" d="M-52,-310 L-52,-290 L-69,-280 L-87,-290 L-87,-310 L-69,-320 Z" />
<path fill="#D8D388" d="M-17,-310 L-17,-290 L-35,-280 L-52,-290 L-52,-310 L-35,-320 Z" />
<path fill="#4ee055" d="M17,-310 L17,-290 L0,-280 L-17,-290 L-17,-310 L0,-320 Z" />
<path fill="#D8D388" d="M52,-310 L52,-290 L35,-280 L17,-290 L17,-310 L35,-320 Z" />
<path fill="#D8D388" d="M87,-310 L87,-290 L69,-280 L52,-290 L52,-310 L69,-320 Z" />
<path fill="#4ee055" d="M121,-310 L121,-290 L104,-280 L87,-290 L87,-310 L104,-320 Z" />
<path fill="#D8D388" d="M-329,-10 L-329,10 L-346,20 L-364,10 L-364,-10 L-346,-20 Z" />
<path fill="#D8D388" d="M-312,-40 L-312,-20 L-329,-10 L-346,-20 L-346,-40 L-329,-50 Z" />
<path fill="#4ee055" d="M-294,-70 L-294,-50 L-312,-40 L-329,-50 L-329,-70 L-312,-80 Z" />
<path fill="#D8D388" d="M-277,-100 L-277,-80 L-294,-70 L-312,-80 L-312,-100 L-294,-110 Z" />
<path fill="#D8D388" d="M-260,-130 L-260,-110 L-277,-100 L-294,-110 L-294,-130 L-277,-140 Z" />
<path fill="#4ee055" d="M-242,-160 L-242,-140 L-260,-130 L-277,-140 L-277,-160 L-260,-170 Z" />
<path fill="#D8D388" d="M-225,-190 L-225,-170 L-242,-160 L-260,-170 L-260,-190 L-242,-200 Z" />
<path fill="#D8D388" d="M-208,-220 L-208,-200 L-225,-190 L-242,-200 L-242,-220 L-225,-230 Z" />
<path fill="#4ee055" d="M-191,-250 L-191,-230 L-208,-220 L-225,-230 L-225,-250 L-208,-260 Z" />
<path fill="#D8D388" d="M-173,-280 L-173,-260 L-191,-250 L-208,-260 L-208,-280 L-191,-290 Z" />
<path fill="#D8D388" d="M-69,-340 L-69,-320 L-87,-310 L-104,-320 L-104,-340 L-87,-350 Z" />
<path fill="#4ee055" d="M-35,-340 L-35,-320 L-52,-310 L-69,-320 L-69,-340 L-52,-350 Z" />
<path fill="#D8D388" d="M0,-340 L0,-320 L-17,-310 L-35,-320 L-35,-340 L-17,-350 Z" />
<path fill="#D8D388" d="M35,-340 L35,-320 L17,-310 L0,-320 L0,-340 L17,-350 Z" />
<path fill="#4ee055" d="M69,-340 L69,-320 L52,-310 L35,-320 L35,-340 L52,-350 Z" />
<path fill="#D8D388" d="M104,-340 L104,-320 L87,-310 L69,-320 L69,-340 L87,-350 Z" />
<path fill="#D8D388" d="M139,-340 L139,-320 L121,-310 L104,-320 L104,-340 L121,-350 Z" />
<path fill="#4ee055" d="M173,-340 L173,-320 L156,-310 L139,-320 L139,-340 L156,-350 Z" />
<path fill="#4ee055" d="M-346,20 L-346,40 L-364,50 L-381,40 L-381,20 L-364,10 Z" />
<path fill="#D8D388" d="M-364,-10 L-364,10 L-381,20 L-398,10 L-398,-10 L-381,-20 Z" />
<path fill="#4ee055" d="M-346,-40 L-346,-20 L-364,-10 L-381,-20 L-381,-40 L-364,-50 Z" />
<path fill="#D8D388" d="M-329,-70 L-329,-50 L-346,-40 L-364,-50 L-364,-70 L-346,-80 Z" />
<path fill="#D8D388" d="M-312,-100 L-312,-80 L-329,-70 L-346,-80 L-346,-100 L-329,-110 Z" />
<path fill="#4ee055" d="M-294,-130 L-294,-110 L-312,-100 L-329,-110 L-329,-130 L-312,-140 Z" />
<path fill="#D8D388" d="M-277,-160 L-277,-140 L-294,-130 L-312,-140 L-312,-160 L-294,-170 Z" />
<path fill="#D8D388" d="M-260,-190 L-260,-170 L-277,-160 L-294,-170 L-294,-190 L-277,-200 Z" />
<path fill="#4ee055" d="M-242,-220 L-242,-200 L-260,-190 L-277,-200 L-277,-220 L-260,-230 Z" />
<path fill="#D8D388" d="M-225,-250 L-225,-230 L-242,-220 L-260,-230 L-260,-250 L-242,-260 Z" />
<path fill="#D8D388" d="M-17,-370 L-17,-350 L-35,-340 L-52,-350 L-52,-370 L-35,-380 Z" />
<path fill="#4ee055" d="M17,-370 L17,-350 L0,-340 L-17,-350 L-17,-370 L0,-380 Z" />
<path fill="#D8D388" d="M52,-370 L52,-350 L35,-340 L17,-350 L17,-370 L35,-380 Z" />
<path fill="#D8D388" d="M87,-370 L87,-350 L69,-340 L52,-350 L52,-370 L69,-380 Z" />
<path fill="#4ee055" d="M121,-370 L121,-350 L104,-340 L87,-350 L87,-370 L104,-380 Z" />
<path fill="#D8D388" d="M156,-370 L156,-350 L139,-340 L121,-350 L121,-370 L139,-380 Z" />
<path fill="#D8D388" d="M191,-370 L191,-350 L173,-340 L156,-350 L156,-370 L173,-380 Z" />
<path fill="#4ee055" d="M225,-370 L225,-350 L208,-340 L191,-350 L191,-370 L208,-380 Z" />
<path fill="#D8D388" d="M-381,20 L-381,40 L-398,50 L-416,40 L-416,20 L-398,10 Z" />
<path fill="#4ee055" d="M-398,-10 L-398,10 L-416,20 L-433,10 L-433,-10 L-416,-20 Z" />
<path fill="#D8D388" d="M-381,-40 L-381,-20 L-398,-10 L-416,-20 L-416,-40 L-398,-50 Z" />
<path fill="#D8D388" d="M-364,-70 L-364,-50 L-381,-40 L-398,-50 L-398,-70 L-381,-80 Z" />
<path fill="#4ee055" d="M-346,-100 L-346,-80 L-364,-70 L-381,-80 L-381,-100 L-364,-110 Z" />
<path fill="#D8D388" d="M-329,-130 L-329,-110 L-346,-100 L-364,-110 L-364,-130 L-346,-140 Z" />
<path fill="#D8D388" d="M-312,-160 L-312,-140 L-329,-130 L-346,-140 L-346,-160 L-329,-170 Z" />
<path fill="#4ee055" d="M-294,-190 L-294,-170 L-312,-160 L-329,-170 L-329,-190 L-312,-200 Z" />
<path fill="#D8D388" d="M-277,-220 L-277,-200 L-294,-190 L-312,-200 L-312,-220 L-294,-230 Z" />
<path fill="#D8D388" d="M35,-400 L35,-380 L17,-370 L0,-380 L0,-400 L17,-410 Z" />
<path fill="#4ee055" d="M69,-400 L69,-380 L52,-370 L35,-380 L35,-400 L52,-410 Z" />
<path fill="#D8D388" d="M104,-400 L104,-380 L87,-370 L69,-380 L69,-400 L87,-410 Z" />
<path fill="#D8D388" d="M139,-400 L139,-380 L121,-370 L104,-380 L104,-400 L121,-410 Z" />
<path fill="#4ee055" d="M173,-400 L173,-380 L156,-370 L139,-380 L139,-400 L156,-410 Z" />
<path fill="#D8D388" d="M208,-400 L208,-380 L191,-370 L173,-380 L173,-400 L191,-410 Z" />
<path fill="#D8D388" d="M242,-400 L242,-380 L225,-370 L208,-380 L208,-400 L225,-410 Z" />
<path fill="#4ee055" d="M-398,50 L-398,70 L-416,80 L-433,70 L-433,50 L-416,40 Z" />
<path fill="#D8D388" d="M-416,20 L-416,40 L-433,50 L-450,40 L-450,20 L-433,10 Z" />
<path fill="#D8D388" d="M-433,-10 L-433,10 L-450,20 L-468,10 L-468,-10 L-450,-20 Z" />
<path fill="#D8D388" d="M-416,-40 L-416,-20 L-433,-10 L-450,-20 L-450,-40 L-433,-50 Z" />
<path fill="#4ee055" d="M-398,-70 L-398,-50 L-416,-40 L-433,-50 L-433,-70 L-416,-80 Z" />
<path fill="#D8D388" d="M-381,-100 L-381,-80 L-398,-70 L-416,-80 L-416,-100 L-398,-110 Z" />
<path fill="#D8D388" d="M-364,-130 L-364,-110 L-381,-100 L-398,-110 L-398,-130 L-381,-140 Z" />
<path fill="#4ee055" d="M-346,-160 L-346,-140 L-364,-130 L-381,-140 L-381,-160 L-364,-170 Z" />
<path fill="#D8D388" d="M52,-430 L52,-410 L35,-400 L17,-410 L17,-430 L35,-440 Z" />
<path fill="#D8D388" d="M87,-430 L87,-410 L69,-400 L52,-410 L52,-430 L69,-440 Z" />
<path fill="#4ee055" d="M121,-430 L121,-410 L104,-400 L87,-410 L87,-430 L104,-440 Z" />
<path fill="#D8D388" d="M156,-430 L156,-410 L139,-400 L121,-410 L121,-430 L139,-440 Z" />
<path fill="#D8D388" d="M191,-430 L191,-410 L173,-400 L156,-410 L156,-430 L173,-440 Z" />
<path fill="#4ee055" d="M225,-430 L225,-410 L208,-400 L191,-410 L191,-430 L208,-440 Z" />
<path fill="#D8D388" d="M260,-430 L260,-410 L242,-400 L225,-410 L225,-430 L242,-440 Z" />
<path fill="#4ee055" d="M277,-400 L277,-380 L260,-370 L242,-380 L242,-400 L260,-410 Z" />
<path fill="#D8D388" d="M-433,50 L-433,70 L-450,80 L-468,70 L-468,50 L-450,40 Z" />
<path fill="#4ee055" d="M-450,20 L-450,40 L-468,50 L-485,40 L-485,20 L-468,10 Z" />
<path fill="#D8D388" d="M-468,-10 L-468,10 L-485,20 L-502,10 L-502,-10 L-485,-20 Z" />
<path fill="#4ee055" d="M-450,-40 L-450,-20 L-468,-10 L-485,-20 L-485,-40 L-468,-50 Z" />
<path fill="#D8D388" d="M-433,-70 L-433,-50 L-450,-40 L-468,-50 L-468,-70 L-450,-80 Z" />
<path fill="#D8D388" d="M-416,-100 L-416,-80 L-433,-70 L-450,-80 L-450,-100 L-433,-110 Z" />
<path fill="#4ee055" d="M-398,-130 L-398,-110 L-416,-100 L-433,-110 L-433,-130 L-416,-140 Z" />
<path fill="#D8D388" d="M104,-460 L104,-440 L87,-430 L69,-440 L69,-460 L87,-470 Z" />
<path fill="#D8D388" d="M139,-460 L139,-440 L121,-430 L104,-440 L104,-460 L121,-470 Z" />
<path fill="#4ee055" d="M173,-460 L173,-440 L156,-430 L139,-440 L139,-460 L156,-470 Z" />
<path fill="#D8D388" d="M208,-460 L208,-440 L191,-430 L173,-440 L173,-460 L191,-470 Z" />
<path fill="#D8D388" d="M242,-460 L242,-440 L225,-430 L208,-440 L208,-460 L225,-470 Z" />
<path fill="#4ee055" d="M277,-460 L277,-440 L260,-430 L242,-440 L242,-460 L260,-470 Z" />
<path fill="#D8D388" d="M294,-430 L294,-410 L277,-400 L260,-410 L260,-430 L277,-440 Z" />
<path fill="#4ee055" d="M-450,80 L-450,100 L-468,110 L-485,100 L-485,80 L-468,70 Z" />
<path fill="#D8D388" d="M-468,50 L-468,70 L-485,80 L-502,70 L-502,50 L-485,40 Z" />
<path fill="#D8D388" d="M-485,20 L-485,40 L-502,50 L-520,40 L-520,20 L-502,10 Z" />
<path fill="#4ee055" d="M-502,-10 L-502,10 L-520,20 L-537,10 L-537,-10 L-520,-20 Z" />
<path fill="#D8D388" d="M-485,-40 L-485,-20 L-502,-10 L-520,-20 L-520,-40 L-502,-50 Z" />
<path fill="#D8D388" d="M-468,-70 L-468,-50 L-485,-40 L-502,-50 L-502,-70 L-485,-80 Z" />
<path fill="#4ee055" d="M-450,-100 L-450,-80 L-468,-70 L-485,-80 L-485,-100 L-468,-110 Z" />
<path fill="#D8D388" d="M156,-490 L156,-470 L139,-460 L121,-470 L121,-490 L139,-500 Z" />
<path fill="#D8D388" d="M191,-490 L191,-470 L173,-460 L156,-470 L156,-490 L173,-500 Z" />
<path fill="#4ee055" d="M225,-490 L225,-470 L208,-460 L191,-470 L191,-490 L208,-500 Z" />
<path fill="#D8D388" d="M260,-490 L260,-470 L242,-460 L225,-470 L225,-490 L242,-500 Z" />
<path fill="#D8D388" d="M294,-490 L294,-470 L277,-460 L260,-470 L260,-490 L277,-500 Z" />
<path fill="#D8D388" d="M312,-460 L312,-440 L294,-430 L277,-440 L277,-460 L294,-470 Z" />
<path fill="#4ee055" d="M329,-430 L329,-410 L312,-400 L294,-410 L294,-430 L312,-440 Z" />
<path fill="#D8D388" d="M-468,110 L-468,130 L-485,140 L-502,130 L-502,110 L-485,100 Z" />
<path fill="#D8D388" d="M-485,80 L-485,100 L-502,110 L-520,100 L-520,80 L-502,70 Z" />
<path fill="#4ee055" d="M-502,50 L-502,70 L-520,80 L-537,70 L-537,50 L-520,40 Z" />
<path fill="#D8D388" d="M-520,20 L-520,40 L-537,50 L-554,40 L-554,20 L-537,10 Z" />
<path fill="#D8D388" d="M-537,-10 L-537,10 L-554,20 L-572,10 L-572,-10 L-554,-20 Z" />
<path fill="#D8D388" d="M-520,-40 L-520,-20 L-537,-10 L-554,-20 L-554,-40 L-537,-50 Z" />
<path fill="#4ee055" d="M-502,-70 L-502,-50 L-520,-40 L-537,-50 L-537,-70 L-520,-80 Z" />
<path fill="#D8D388" d="M208,-520 L208,-500 L191,-490 L173,-500 L173,-520 L191,-530 Z" />
<path fill="#D8D388" d="M242,-520 L242,-500 L225,-490 L208,-500 L208,-520 L225,-530 Z" />
<path fill="#4ee055" d="M277,-520 L277,-500 L260,-490 L242,-500 L242,-520 L260,-530 Z" />
<path fill="#D8D388" d="M312,-520 L312,-500 L294,-490 L277,-500 L277,-520 L294,-530 Z" />
<path fill="#4ee055" d="M329,-490 L329,-470 L312,-460 L294,-470 L294,-490 L312,-500 Z" />
<path fill="#D8D388" d="M346,-460 L346,-440 L329,-430 L312,-440 L312,-460 L329,-470 Z" />
<path fill="#4ee055" d="M-502,110 L-502,130 L-520,140 L-537,130 L-537,110 L-520,100 Z" />
<path fill="#D8D388" d="M-520,80 L-520,100 L-537,110 L-554,100 L-554,80 L-537,70 Z" />
<path fill="#D8D388" d="M-537,50 L-537,70 L-554,80 L-572,70 L-572,50 L-554,40 Z" />
<path fill="#4ee055" d="M-554,20 L-554,40 L-572,50 L-589,40 L-589,20 L-572,10 Z" />
<path fill="#D8D388" d="M-572,-10 L-572,10 L-589,20 L-606,10 L-606,-10 L-589,-20 Z" />
<path fill="#D8D388" d="M260,-550 L260,-530 L242,-520 L225,-530 L225,-550 L242,-560 Z" />
<path fill="#D8D388" d="M294,-550 L294,-530 L277,-520 L260,-530 L260,-550 L277,-560 Z" />
<path fill="#4ee055" d="M329,-550 L329,-530 L312,-520 L294,-530 L294,-550 L312,-560 Z" />
<path fill="#D8D388" d="M346,-520 L346,-500 L329,-490 L312,-500 L312,-520 L329,-530 Z" />
<path fill="#D8D388" d="M364,-490 L364,-470 L346,-460 L329,-470 L329,-490 L346,-500 Z" />
<path fill="#D8D388" d="M-520,140 L-520,160 L-537,170 L-554,160 L-554,140 L-537,130 Z" />
<path fill="#D8D388" d="M-537,110 L-537,130 L-554,140 L-572,130 L-572,110 L-554,100 Z" />
<path fill="#4ee055" d="M-554,80 L-554,100 L-572,110 L-589,100 L-589,80 L-572,70 Z" />
<path fill="#D8D388" d="M-572,50 L-572,70 L-589,80 L-606,70 L-606,50 L-589,40 Z" />
<path fill="#D8D388" d="M-589,20 L-589,40 L-606,50 L-624,40 L-624,20 L-606,10 Z" />
<path fill="#D8D388" d="M312,-580 L312,-560 L294,-550 L277,-560 L277,-580 L294,-590 Z" />
<path fill="#D8D388" d="M346,-580 L346,-560 L329,-550 L312,-560 L312,-580 L329,-590 Z" />
<path fill="#D8D388" d="M364,-550 L364,-530 L346,-520 L329,-530 L329,-550 L346,-560 Z" />
<path fill="#4ee055" d="M381,-520 L381,-500 L364,-490 L346,-500 L346,-520 L364,-530 Z" />
<path fill="#D8D388" d="M398,-490 L398,-470 L381,-460 L364,-470 L364,-490 L381,-500 Z" />
<path fill="#4ee055" d="M-554,140 L-554,160 L-572,170 L-589,160 L-589,140 L-572,130 Z" />
<path fill="#D8D388" d="M-572,110 L-572,130 L-589,140 L-606,130 L-606,110 L-589,100 Z" />
<path fill="#D8D388" d="M-589,80 L-589,100 L-606,110 L-624,100 L-624,80 L-606,70 Z" />
<path fill="#4ee055" d="M-606,50 L-606,70 L-624,80 L-641,70 L-641,50 L-624,40 Z" />
<path fill="#D8D388" d="M-624,20 L-624,40 L-641,50 L-658,40 L-658,20 L-641,10 Z" />
<path fill="#D8D388" d="M364,-610 L364,-590 L346,-580 L329,-590 L329,-610 L346,-620 Z" />
<path fill="#4ee055" d="M381,-580 L381,-560 L364,-550 L346,-560 L346,-580 L364,-590 Z" />
<path fill="#D8D388" d="M398,-550 L398,-530 L381,-520 L364,-530 L364,-550 L381,-560 Z" />
<path fill="#D8D388" d="M416,-520 L416,-500 L398,-490 L381,-500 L381,-520 L398,-530 Z" />
<path fill="#D8D388" d="M-572,170 L-572,190 L-589,200 L-606,190 L-606,170 L-589,160 Z" />
<path fill="#D8D388" d="M-589,140 L-589,160 L-606,170 L-624,160 L-624,140 L-606,130 Z" />
<path fill="#4ee055" d="M-606,110 L-606,130 L-624,140 L-641,130 L-641,110 L-624,100 Z" />
<path fill="#D8D388" d="M-624,80 L-624,100 L-641,110 L-658,100 L-658,80 L-641,70 Z" />
<path fill="#D8D388" d="M-641,50 L-641,70 L-658,80 L-675,70 L-675,50 L-658,40 Z" />
<path fill="#4ee055" d="M-658,20 L-658,40 L-675,50 L-693,40 L-693,20 L-675,10 Z" />
<path fill="#4ee055" d="M381,-640 L381,-620 L364,-610 L346,-620 L346,-640 L364,-650 Z" />
<path fill="#D8D388" d="M398,-610 L398,-590 L381,-580 L364,-590 L364,-610 L381,-620 Z" />
<path fill="#D8D388" d="M416,-580 L416,-560 L398,-550 L381,-560 L381,-580 L398,-590 Z" />
<path fill="#4ee055" d="M433,-550 L433,-530 L416,-520 L398,-530 L398,-550 L416,-560 Z" />
<path fill="#D8D388" d="M450,-520 L450,-500 L433,-490 L416,-500 L416,-520 L433,-530 Z" />
<path fill="#D8D388" d="M-589,200 L-589,220 L-606,230 L-624,220 L-624,200 L-606,190 Z" />
<path fill="#4ee055" d="M-606,170 L-606,190 L-624,200 L-641,190 L-641,170 L-624,160 Z" />
<path fill="#D8D388" d="M-624,140 L-624,160 L-641,170 L-658,160 L-658,140 L-641,130 Z" />
<path fill="#D8D388" d="M-641,110 L-641,130 L-658,140 L-675,130 L-675,110 L-658,100 Z" />
<path fill="#4ee055" d="M-658,80 L-658,100 L-675,110 L-693,100 L-693,80 L-675,70 Z" />
<path fill="#D8D388" d="M-675,50 L-675,70 L-693,80 L-710,70 L-710,50 L-693,40 Z" />
<path fill="#D8D388" d="M-693,20 L-693,40 L-710,50 L-727,40 L-727,20 L-710,10 Z" />
<path fill="#4ee055" d="M-710,-10 L-710,10 L-727,20 L-745,10 L-745,-10 L-727,-20 Z" />
<path fill="#D8D388" d="M416,-640 L416,-620 L398,-610 L381,-620 L381,-640 L398,-650 Z" />
<path fill="#4ee055" d="M433,-610 L433,-590 L416,-580 L398,-590 L398,-610 L416,-620 Z" />
<path fill="#D8D388" d="M450,-580 L450,-560 L433,-550 L416,-560 L416,-580 L433,-590 Z" />
<path fill="#D8D388" d="M468,-550 L468,-530 L450,-520 L433,-530 L433,-550 L450,-560 Z" />
<path fill="#D8D388" d="M-589,260 L-589,280 L-606,290 L-624,280 L-624,260 L-606,250 Z" />
<path fill="#4ee055" d="M-606,230 L-606,250 L-624,260 L-641,250 L-641,230 L-624,220 Z" />
<path fill="#D8D388" d="M-624,200 L-624,220 L-641,230 L-658,220 L-658,200 L-641,190 Z" />
<path fill="#D8D388" d="M-641,170 L-641,190 L-658,200 L-675,190 L-675,170 L-658,160 Z" />
<path fill="#4ee055" d="M-658,140 L-658,160 L-675,170 L-693,160 L-693,140 L-675,130 Z" />
<path fill="#D8D388" d="M-675,110 L-675,130 L-693,140 L-710,130 L-710,110 L-693,100 Z" />
<path fill="#D8D388" d="M-693,80 L-693,100 L-710,110 L-727,100 L-727,80 L-710,70 Z" />
<path fill="#4ee055" d="M-710,50 L-710,70 L-727,80 L-745,70 L-745,50 L-727,40 Z" />
<path fill="#D8D388" d="M-727,20 L-727,40 L-745,50 L-762,40 L-762,20 L-745,10 Z" />
<path fill="#D8D388" d="M-745,-10 L-745,10 L-762,20 L-779,10 L-779,-10 L-762,-20 Z" />
<path fill="#4ee055" d="M433,-670 L433,-650 L416,-640 L398,-650 L398,-670 L416,-680 Z" />
<path fill="#D8D388" d="M450,-640 L450,-620 L433,-610 L416,-620 L416,-640 L433,-650 Z" />
<path fill="#D8D388" d="M468,-610 L468,-590 L450,-580 L433,-590 L433,-610 L450,-620 Z" />
<path fill="#4ee055" d="M485,-580 L485,-560 L468,-550 L450,-560 L450,-580 L468,-590 Z" />
<path fill="#D8D388" d="M502,-550 L502,-530 L485,-520 L468,-530 L468,-550 L485,-560 Z" />
<path fill="#4ee055" d="M-606,290 L-606,310 L-624,320 L-641,310 L-641,290 L-624,280 Z" />
<path fill="#D8D388" d="M-624,260 L-624,280 L-641,290 L-658,280 L-658,260 L-641,250 Z" />
<path fill="#D8D388" d="M-641,230 L-641,250 L-658,260 L-675,250 L-675,230 L-658,220 Z" />
<path fill="#4ee055" d="M-658,200 L-658,220 L-675,230 L-693,220 L-693,200 L-675,190 Z" />
<path fill="#D8D388" d="M-675,170 L-675,190 L-693,200 L-710,190 L-710,170 L-693,160 Z" />
<path fill="#D8D388" d="M-693,140 L-693,160 L-710,170 L-727,160 L-727,140 L-710,130 Z" />
<path fill="#4ee055" d="M-710,110 L-710,130 L-727,140 L-745,130 L-745,110 L-727,100 Z" />
<path fill="#D8D388" d="M-727,80 L-727,100 L-745,110 L-762,100 L-762,80 L-745,70 Z" />
<path fill="#D8D388" d="M-745,50 L-745,70 L-762,80 L-779,70 L-779,50 L-762,40 Z" />
<path fill="#4ee055" d="M-762,20 L-762,40 L-779,50 L-797,40 L-797,20 L-779,10 Z" />
<path fill="#D8D388" d="M-779,-10 L-779,10 L-797,20 L-814,10 L-814,-10 L-797,-20 Z" />
<path fill="#D8D388" d="M468,-670 L468,-650 L450,-640 L433,-650 L433,-670 L450,-680 Z" />
<path fill="#4ee055" d="M485,-640 L485,-620 L468,-610 L450,-620 L450,-640 L468,-650 Z" />
<path fill="#D8D388" d="M502,-610 L502,-590 L485,-580 L468,-590 L468,-610 L485,-620 Z" />
<path fill="#D8D388" d="M520,-580 L520,-560 L502,-550 L485,-560 L485,-580 L502,-590 Z" />
<path fill="#D8D388" d="M-624,320 L-624,340 L-641,350 L-658,340 L-658,320 L-641,310 Z" />
<path fill="#D8D388" d="M-641,290 L-641,310 L-658,320 L-675,310 L-675,290 L-658,280 Z" />
<path fill="#4ee055" d="M-658,260 L-658,280 L-675,290 L-693,280 L-693,260 L-675,250 Z" />
<path fill="#D8D388" d="M-675,230 L-675,250 L-693,260 L-710,250 L-710,230 L-693,220 Z" />
<path fill="#D8D388" d="M-693,200 L-693,220 L-710,230 L-727,220 L-727,200 L-710,190 Z" />
<path fill="#4ee055" d="M-710,170 L-710,190 L-727,200 L-745,190 L-745,170 L-727,160 Z" />
<path fill="#D8D388" d="M-727,140 L-727,160 L-745,170 L-762,160 L-762,140 L-745,130 Z" />
<path fill="#D8D388" d="M-745,110 L-745,130 L-762,140 L-779,130 L-779,110 L-762,100 Z" />
<path fill="#4ee055" d="M-762,80 L-762,100 L-779,110 L-797,100 L-797,80 L-779,70 Z" />
<path fill="#D8D388" d="M-779,50 L-779,70 L-797,80 L-814,70 L-814,50 L-797,40 Z" />
<path fill="#D8D388" d="M-797,20 L-797,40 L-814,50 L-831,40 L-831,20 L-814,10 Z" />
<path fill="#4ee055" d="M-814,-10 L-814,10 L-831,20 L-849,10 L-849,-10 L-831,-20 Z" />
<path fill="#D8D388" d="M-797,-40 L-797,-20 L-814,-10 L-831,-20 L-831,-40 L-814,-50 Z" />
<path fill="#4ee055" d="M485,-700 L485,-680 L468,-670 L450,-680 L450,-700 L468,-710 Z" />
<path fill="#D8D388" d="M502,-670 L502,-650 L485,-640 L468,-650 L468,-670 L485,-680 Z" />
<path fill="#D8D388" d="M520,-640 L520,-620 L502,-610 L485,-620 L485,-640 L502,-650 Z" />
<path fill="#4ee055" d="M537,-610 L537,-590 L520,-580 L502,-590 L502,-610 L520,-620 Z" />
<path fill="#D8D388" d="M554,-580 L554,-560 L537,-550 L520,-560 L520,-580 L537,-590 Z" />
<path fill="#D8D388" d="M-624,380 L-624,400 L-641,410 L-658,400 L-658,380 L-641,370 Z" />
<path fill="#D8D388" d="M-641,350 L-641,370 L-658,380 L-675,370 L-675,350 L-658,340 Z" />
<path fill="#4ee055" d="M-658,320 L-658,340 L-675,350 L-693,340 L-693,320 L-675,310 Z" />
<path fill="#D8D388" d="M-675,290 L-675,310 L-693,320 L-710,310 L-710,290 L-693,280 Z" />
<path fill="#D8D388" d="M-693,260 L-693,280 L-710,290 L-727,280 L-727,260 L-710,250 Z" />
<path fill="#4ee055" d="M-710,230 L-710,250 L-727,260 L-745,250 L-745,230 L-727,220 Z" />
<path fill="#D8D388" d="M-727,200 L-727,220 L-745,230 L-762,220 L-762,200 L-745,190 Z" />
<path fill="#D8D388" d="M-745,170 L-745,190 L-762,200 L-779,190 L-779,170 L-762,160 Z" />
<path fill="#4ee055" d="M-762,140 L-762,160 L-779,170 L-797,160 L-797,140 L-779,130 Z" />
<path fill="#D8D388" d="M-779,110 L-779,130 L-797,140 L-814,130 L-814,110 L-797,100 Z" />
<path fill="#D8D388" d="M-797,80 L-797,100 L-814,110 L-831,100 L-831,80 L-814,70 Z" />
<path fill="#4ee055" d="M-814,50 L-814,70 L-831,80 L-849,70 L-849,50 L-831,40 Z" />
<path fill="#D8D388" d="M-831,20 L-831,40 L-849,50 L-866,40 L-866,20 L-849,10 Z" />
<path fill="#D8D388" d="M-849,-10 L-849,10 L-866,20 L-883,10 L-883,-10 L-866,-20 Z" />
<path fill="#D8D388" d="M-831,-40 L-831,-20 L-849,-10 L-866,-20 L-866,-40 L-849,-50 Z" />
<path fill="#D8D388" d="M520,-700 L520,-680 L502,-670 L485,-680 L485,-700 L502,-710 Z" />
<path fill="#4ee055" d="M537,-670 L537,-650 L520,-640 L502,-650 L502,-670 L520,-680 Z" />
<path fill="#D8D388" d="M554,-640 L554,-620 L537,-610 L520,-620 L520,-640 L537,-650 Z" />
<path fill="#D8D388" d="M572,-610 L572,-590 L554,-580 L537,-590 L537,-610 L554,-620 Z" />
<path fill="#D8D388" d="M-624,440 L-624,460 L-641,470 L-658,460 L-658,440 L-641,430 Z" />
<path fill="#D8D388" d="M-641,410 L-641,430 L-658,440 L-675,430 L-675,410 L-658,400 Z" />
<path fill="#4ee055" d="M-658,380 L-658,400 L-675,410 L-693,400 L-693,380 L-675,370 Z" />
<path fill="#D8D388" d="M-675,350 L-675,370 L-693,380 L-710,370 L-710,350 L-693,340 Z" />
<path fill="#D8D388" d="M-693,320 L-693,340 L-710,350 L-727,340 L-727,320 L-710,310 Z" />
<path fill="#4ee055" d="M-710,290 L-710,310 L-727,320 L-745,310 L-745,290 L-727,280 Z" />
<path fill="#D8D388" d="M-727,260 L-727,280 L-745,290 L-762,280 L-762,260 L-745,250 Z" />
<path fill="#D8D388" d="M-745,230 L-745,250 L-762,260 L-779,250 L-779,230 L-762,220 Z" />
<path fill="#4ee055" d="M-762,200 L-762,220 L-779,230 L-797,220 L-797,200 L-779,190 Z" />
<path fill="#D8D388" d="M-779,170 L-779,190 L-797,200 L-814,190 L-814,170 L-797,160 Z" />
<path fill="#D8D388" d="M-797,140 L-797,160 L-814,170 L-831,160 L-831,140 L-814,130 Z" />
<path fill="#4ee055" d="M-814,110 L-814,130 L-831,140 L-849,130 L-849,110 L-831,100 Z" />
<path fill="#D8D388" d="M-831,80 L-831,100 L-849,110 L-866,100 L-866,80 L-849,70 Z" />
<path fill="#D8D388" d="M-849,50 L-849,70 L-866,80 L-883,70 L-883,50 L-866,40 Z" />
<path fill="#4ee055" d="M-866,20 L-866,40 L-883,50 L-901,40 L-901,20 L-883,10 Z" />
<path fill="#D8D388" d="M-883,-10 L-883,10 L-901,20 L-918,10 L-918,-10 L-901,-20 Z" />
<path fill="#4ee055" d="M-866,-40 L-866,-20 L-883,-10 L-901,-20 L-901,-40 L-883,-50 Z" />
<path fill="#4ee055" d="M485,-820 L485,-800 L468,-790 L450,-800 L450,-820 L468,-830 Z" />
<path fill="#D8D388" d="M502,-790 L502,-770 L485,-760 L468,-770 L468,-790 L485,-800 Z" />
<path fill="#D8D388" d="M520,-760 L520,-740 L502,-730 L485,-740 L485,-760 L502,-770 Z" />
<path fill="#4ee055" d="M537,-730 L537,-710 L520,-700 L502,-710 L502,-730 L520,-740 Z" />
<path fill="#D8D388" d="M554,-700 L554,-680 L537,-670 L520,-680 L520,-700 L537,-710 Z" />
<path fill="#D8D388" d="M572,-670 L572,-650 L554,-640 L537,-650 L537,-670 L554,-680 Z" />
<path fill="#4ee055" d="M589,-640 L589,-620 L572,-610 L554,-620 L554,-640 L572,-650 Z" />
<path fill="#D8D388" d="M606,-610 L606,-590 L589,-580 L572,-590 L572,-610 L589,-620 Z" />
<path fill="#D8D388" d="M-641,470 L-641,490 L-658,500 L-675,490 L-675,470 L-658,460 Z" />
<path fill="#4ee055" d="M-658,440 L-658,460 L-675,470 L-693,460 L-693,440 L-675,430 Z" />
<path fill="#D8D388" d="M-675,410 L-675,430 L-693,440 L-710,430 L-710,410 L-693,400 Z" />
<path fill="#D8D388" d="M-693,380 L-693,400 L-710,410 L-727,400 L-727,380 L-710,370 Z" />
<path fill="#4ee055" d="M-710,350 L-710,370 L-727,380 L-745,370 L-745,350 L-727,340 Z" />
<path fill="#D8D388" d="M-727,320 L-727,340 L-745,350 L-762,340 L-762,320 L-745,310 Z" />
<path fill="#D8D388" d="M-745,290 L-745,310 L-762,320 L-779,310 L-779,290 L-762,280 Z" />
<path fill="#4ee055" d="M-762,260 L-762,280 L-779,290 L-797,280 L-797,260 L-779,250 Z" />
<path fill="#D8D388" d="M-779,230 L-779,250 L-797,260 L-814,250 L-814,230 L-797,220 Z" />
<path fill="#D8D388" d="M-797,200 L-797,220 L-814,230 L-831,220 L-831,200 L-814,190 Z" />
<path fill="#4ee055" d="M-814,170 L-814,190 L-831,200 L-849,190 L-849,170 L-831,160 Z" />
<path fill="#D8D388" d="M-831,140 L-831,160 L-849,170 L-866,160 L-866,140 L-849,130 Z" />
<path fill="#D8D388" d="M-849,110 L-849,130 L-866,140 L-883,130 L-883,110 L-866,100 Z" />
<path fill="#4ee055" d="M-866,80 L-866,100 L-883,110 L-901,100 L-901,80 L-883,70 Z" />
<path fill="#D8D388" d="M-883,50 L-883,70 L-901,80 L-918,70 L-918,50 L-901,40 Z" />
<path fill="#D8D388" d="M-901,20 L-901,40 L-918,50 L-935,40 L-935,20 L-918,10 Z" />
<path fill="#D8D388" d="M468,-850 L468,-830 L450,-820 L433,-830 L433,-850 L450,-860 Z" />
<path fill="#D8D388" d="M502,-850 L502,-830 L485,-820 L468,-830 L468,-850 L485,-860 Z" />
<path fill="#D8D388" d="M520,-820 L520,-800 L502,-790 L485,-800 L485,-820 L502,-830 Z" />
<path fill="#4ee055" d="M537,-790 L537,-770 L520,-760 L502,-770 L502,-790 L520,-800 Z" />
<path fill="#D8D388" d="M554,-760 L554,-740 L537,-730 L520,-740 L520,-760 L537,-770 Z" />
<path fill="#D8D388" d="M572,-730 L572,-710 L554,-700 L537,-710 L537,-730 L554,-740 Z" />
<path fill="#4ee055" d="M589,-700 L589,-680 L572,-670 L554,-680 L554,-700 L572,-710 Z" />
<path fill="#D8D388" d="M606,-670 L606,-650 L589,-640 L572,-650 L572,-670 L589,-680 Z" />
<path fill="#D8D388" d="M624,-640 L624,-620 L606,-610 L589,-620 L589,-640 L606,-650 Z" />
<path fill="#4ee055" d="M641,-610 L641,-590 L624,-580 L606,-590 L606,-610 L624,-620 Z" />
<path fill="#D8D388" d="M658,-580 L658,-560 L641,-550 L624,-560 L624,-580 L641,-590 Z" />
<path fill="#4ee055" d="M-658,500 L-658,520 L-675,530 L-693,520 L-693,500 L-675,490 Z" />
<path fill="#D8D388" d="M-675,470 L-675,490 L-693,500 L-710,490 L-710,470 L-693,460 Z" />
<path fill="#D8D388" d="M-693,440 L-693,460 L-710,470 L-727,460 L-727,440 L-710,430 Z" />
<path fill="#4ee055" d="M-710,410 L-710,430 L-727,440 L-745,430 L-745,410 L-727,400 Z" />
<path fill="#D8D388" d="M-727,380 L-727,400 L-745,410 L-762,400 L-762,380 L-745,370 Z" />
<path fill="#D8D388" d="M-745,350 L-745,370 L-762,380 L-779,370 L-779,350 L-762,340 Z" />
<path fill="#4ee055" d="M-762,320 L-762,340 L-779,350 L-797,340 L-797,320 L-779,310 Z" />
<path fill="#D8D388" d="M-779,290 L-779,310 L-797,320 L-814,310 L-814,290 L-797,280 Z" />
<path fill="#D8D388" d="M-797,260 L-797,280 L-814,290 L-831,280 L-831,260 L-814,250 Z" />
<path fill="#4ee055" d="M-814,230 L-814,250 L-831,260 L-849,250 L-849,230 L-831,220 Z" />
<path fill="#D8D388" d="M-831,200 L-831,220 L-849,230 L-866,220 L-866,200 L-849,190 Z" />
<path fill="#D8D388" d="M-849,170 L-849,190 L-866,200 L-883,190 L-883,170 L-866,160 Z" />
<path fill="#4ee055" d="M-866,140 L-866,160 L-883,170 L-901,160 L-901,140 L-883,130 Z" />
<path fill="#D8D388" d="M-883,110 L-883,130 L-901,140 L-918,130 L-918,110 L-901,100 Z" />
<path fill="#D8D388" d="M-901,80 L-901,100 L-918,110 L-935,100 L-935,80 L-918,70 Z" />
<path fill="#4ee055" d="M-918,50 L-918,70 L-935,80 L-953,70 L-953,50 L-935,40 Z" />
<path fill="#D8D388" d="M-935,20 L-935,40 L-953,50 L-970,40 L-970,20 L-953,10 Z" />
<path fill="#D8D388" d="M450,-880 L450,-860 L433,-850 L416,-860 L416,-880 L433,-890 Z" />
<path fill="#4ee055" d="M485,-880 L485,-860 L468,-850 L450,-860 L450,-880 L468,-890 Z" />
<path fill="#D8D388" d="M520,-880 L520,-860 L502,-850 L485,-860 L485,-880 L502,-890 Z" />
<path fill="#4ee055" d="M537,-850 L537,-830 L520,-820 L502,-830 L502,-850 L520,-860 Z" />
<path fill="#D8D388" d="M554,-820 L554,-800 L537,-790 L520,-800 L520,-820 L537,-830 Z" />
<path fill="#D8D388" d="M572,-790 L572,-770 L554,-760 L537,-770 L537,-790 L554,-800 Z" />
<path fill="#4ee055" d="M589,-760 L589,-740 L572,-730 L554,-740 L554,-760 L572,-770 Z" />
<path fill="#D8D388" d="M606,-730 L606,-710 L589,-700 L572,-710 L572,-730 L589,-740 Z" />
<path fill="#D8D388" d="M624,-700 L624,-680 L606,-670 L589,-680 L589,-700 L606,-710 Z" />
<path fill="#4ee055" d="M641,-670 L641,-650 L624,-640 L606,-650 L606,-670 L624,-680 Z" />
<path fill="#D8D388" d="M658,-640 L658,-620 L641,-610 L624,-620 L624,-640 L641,-650 Z" />
<path fill="#D8D388" d="M675,-610 L675,-590 L658,-580 L641,-590 L641,-610 L658,-620 Z" />
<path fill="#4ee055" d="M693,-580 L693,-560 L675,-550 L658,-560 L658,-580 L675,-590 Z" />
<path fill="#4ee055" d="M-710,470 L-710,490 L-727,500 L-745,490 L-745,470 L-727,460 Z" />
<path fill="#D8D388" d="M-727,440 L-727,460 L-745,470 L-762,460 L-762,440 L-745,430 Z" />
<path fill="#D8D388" d="M-745,410 L-745,430 L-762,440 L-779,430 L-779,410 L-762,400 Z" />
<path fill="#4ee055" d="M-762,380 L-762,400 L-779,410 L-797,400 L-797,380 L-779,370 Z" />
<path fill="#D8D388" d="M-779,350 L-779,370 L-797,380 L-814,370 L-814,350 L-797,340 Z" />
<path fill="#D8D388" d="M-797,320 L-797,340 L-814,350 L-831,340 L-831,320 L-814,310 Z" />
<path fill="#4ee055" d="M-814,290 L-814,310 L-831,320 L-849,310 L-849,290 L-831,280 Z" />
<path fill="#D8D388" d="M-831,260 L-831,280 L-849,290 L-866,280 L-866,260 L-849,250 Z" />
<path fill="#D8D388" d="M-849,230 L-849,250 L-866,260 L-883,250 L-883,230 L-866,220 Z" />
<path fill="#4ee055" d="M-866,200 L-866,220 L-883,230 L-901,220 L-901,200 L-883,190 Z" />
<path fill="#D8D388" d="M-883,170 L-883,190 L-901,200 L-918,190 L-918,170 L-901,160 Z" />
<path fill="#D8D388" d="M-901,140 L-901,160 L-918,170 L-935,160 L-935,140 L-918,130 Z" />
<path fill="#4ee055" d="M-918,110 L-918,130 L-935,140 L-953,130 L-953,110 L-935,100 Z" />
<path fill="#D8D388" d="M-935,80 L-935,100 L-953,110 L-970,100 L-970,80 L-953,70 Z" />
<path fill="#D8D388" d="M-953,50 L-953,70 L-970,80 L-987,70 L-987,50 L-970,40 Z" />
<path fill="#D8D388" d="M468,-910 L468,-890 L450,-880 L433,-890 L433,-910 L450,-920 Z" />
<path fill="#D8D388" d="M502,-910 L502,-890 L485,-880 L468,-890 L468,-910 L485,-920 Z" />
<path fill="#4ee055" d="M537,-910 L537,-890 L520,-880 L502,-890 L502,-910 L520,-920 Z" />
<path fill="#D8D388" d="M554,-880 L554,-860 L537,-850 L520,-860 L520,-880 L537,-890 Z" />
<path fill="#D8D388" d="M572,-850 L572,-830 L554,-820 L537,-830 L537,-850 L554,-860 Z" />
<path fill="#4ee055" d="M589,-820 L589,-800 L572,-790 L554,-800 L554,-820 L572,-830 Z" />
<path fill="#D8D388" d="M606,-790 L606,-770 L589,-760 L572,-770 L572,-790 L589,-800 Z" />
<path fill="#D8D388" d="M624,-760 L624,-740 L606,-730 L589,-740 L589,-760 L606,-770 Z" />
<path fill="#4ee055" d="M641,-730 L641,-710 L624,-700 L606,-710 L606,-730 L624,-740 Z" />
<path fill="#D8D388" d="M658,-700 L658,-680 L641,-670 L624,-680 L624,-700 L641,-710 Z" />
<path fill="#D8D388" d="M675,-670 L675,-650 L658,-640 L641,-650 L641,-670 L658,-680 Z" />
<path fill="#4ee055" d="M693,-640 L693,-620 L675,-610 L658,-620 L658,-640 L675,-650 Z" />
<path fill="#D8D388" d="M710,-610 L710,-590 L693,-580 L675,-590 L675,-610 L693,-620 Z" />
<path fill="#D8D388" d="M727,-580 L727,-560 L710,-550 L693,-560 L693,-580 L710,-590 Z" />
<path fill="#D8D388" d="M-745,470 L-745,490 L-762,500 L-779,490 L-779,470 L-762,460 Z" />
<path fill="#4ee055" d="M-762,440 L-762,460 L-779,470 L-797,460 L-797,440 L-779,430 Z" />
<path fill="#D8D388" d="M-779,410 L-779,430 L-797,440 L-814,430 L-814,410 L-797,400 Z" />
<path fill="#D8D388" d="M-797,380 L-797,400 L-814,410 L-831,400 L-831,380 L-814,370 Z" />
<path fill="#4ee055" d="M-814,350 L-814,370 L-831,380 L-849,370 L-849,350 L-831,340 Z" />
<path fill="#D8D388" d="M-831,320 L-831,340 L-849,350 L-866,340 L-866,320 L-849,310 Z" />
<path fill="#D8D388" d="M-849,290 L-849,310 L-866,320 L-883,310 L-883,290 L-866,280 Z" />
<path fill="#4ee055" d="M-866,260 L-866,280 L-883,290 L-901,280 L-901,260 L-883,250 Z" />
<path fill="#D8D388" d="M-883,230 L-883,250 L-901,260 L-918,250 L-918,230 L-901,220 Z" />
<path fill="#D8D388" d="M-901,200 L-901,220 L-918,230 L-935,220 L-935,200 L-918,190 Z" />
<path fill="#4ee055" d="M-918,170 L-918,190 L-935,200 L-953,190 L-953,170 L-935,160 Z" />
<path fill="#D8D388" d="M-935,140 L-935,160 L-953,170 L-970,160 L-970,140 L-953,130 Z" />
<path fill="#D8D388" d="M-953,110 L-953,130 L-970,140 L-987,130 L-987,110 L-970,100 Z" />
<path fill="#4ee055" d="M-970,80 L-970,100 L-987,110 L-1005,100 L-1005,80 L-987,70 Z" />
<path fill="#4ee055" d="M485,-940 L485,-920 L468,-910 L450,-920 L450,-940 L468,-950 Z" />
<path fill="#D8D388" d="M520,-940 L520,-920 L502,-910 L485,-920 L485,-940 L502,-950 Z" />
<path fill="#D8D388" d="M554,-940 L554,-920 L537,-910 L520,-920 L520,-940 L537,-950 Z" />
<path fill="#D8D388" d="M572,-910 L572,-890 L554,-880 L537,-890 L537,-910 L554,-920 Z" />
<path fill="#4ee055" d="M589,-880 L589,-860 L572,-850 L554,-860 L554,-880 L572,-890 Z" />
<path fill="#D8D388" d="M606,-850 L606,-830 L589,-820 L572,-830 L572,-850 L589,-860 Z" />
<path fill="#D8D388" d="M624,-820 L624,-800 L606,-790 L589,-800 L589,-820 L606,-830 Z" />
<path fill="#4ee055" d="M641,-790 L641,-770 L624,-760 L606,-770 L606,-790 L624,-800 Z" />
<path fill="#D8D388" d="M658,-760 L658,-740 L641,-730 L624,-740 L624,-760 L641,-770 Z" />
<path fill="#D8D388" d="M675,-730 L675,-710 L658,-700 L641,-710 L641,-730 L658,-740 Z" />
<path fill="#4ee055" d="M693,-700 L693,-680 L675,-670 L658,-680 L658,-700 L675,-710 Z" />
<path fill="#D8D388" d="M710,-670 L710,-650 L693,-640 L675,-650 L675,-670 L693,-680 Z" />
<path fill="#D8D388" d="M727,-640 L727,-620 L710,-610 L693,-620 L693,-640 L710,-650 Z" />
<path fill="#4ee055" d="M745,-610 L745,-590 L727,-580 L710,-590 L710,-610 L727,-620 Z" />
<path fill="#D8D388" d="M762,-580 L762,-560 L745,-550 L727,-560 L727,-580 L745,-590 Z" />
<path fill="#D8D388" d="M-797,440 L-797,460 L-814,470 L-831,460 L-831,440 L-814,430 Z" />
<path fill="#4ee055" d="M-814,410 L-814,430 L-831,440 L-849,430 L-849,410 L-831,400 Z" />
<path fill="#D8D388" d="M-901,260 L-901,280 L-918,290 L-935,280 L-935,260 L-918,250 Z" />
<path fill="#4ee055" d="M-918,230 L-918,250 L-935,260 L-953,250 L-953,230 L-935,220 Z" />
<path fill="#D8D388" d="M-935,200 L-935,220 L-953,230 L-970,220 L-970,200 L-953,190 Z" />
<path fill="#D8D388" d="M-953,170 L-953,190 L-970,200 L-987,190 L-987,170 L-970,160 Z" />
<path fill="#4ee055" d="M-970,140 L-970,160 L-987,170 L-1005,160 L-1005,140 L-987,130 Z" />
<path fill="#D8D388" d="M502,-970 L502,-950 L485,-940 L468,-950 L468,-970 L485,-980 Z" />
<path fill="#4ee055" d="M537,-970 L537,-950 L520,-940 L502,-950 L502,-970 L520,-980 Z" />
<path fill="#D8D388" d="M572,-970 L572,-950 L554,-940 L537,-950 L537,-970 L554,-980 Z" />
<path fill="#4ee055" d="M589,-940 L589,-920 L572,-910 L554,-920 L554,-940 L572,-950 Z" />
<path fill="#D8D388" d="M606,-910 L606,-890 L589,-880 L572,-890 L572,-910 L589,-920 Z" />
<path fill="#D8D388" d="M624,-880 L624,-860 L606,-850 L589,-860 L589,-880 L606,-890 Z" />
<path fill="#4ee055" d="M641,-850 L641,-830 L624,-820 L606,-830 L606,-850 L624,-860 Z" />
<path fill="#D8D388" d="M658,-820 L658,-800 L641,-790 L624,-800 L624,-820 L641,-830 Z" />
<path fill="#D8D388" d="M675,-790 L675,-770 L658,-760 L641,-770 L641,-790 L658,-800 Z" />
<path fill="#4ee055" d="M693,-760 L693,-740 L675,-730 L658,-740 L658,-760 L675,-770 Z" />
<path fill="#D8D388" d="M710,-730 L710,-710 L693,-700 L675,-710 L675,-730 L693,-740 Z" />
<path fill="#D8D388" d="M727,-700 L727,-680 L710,-670 L693,-680 L693,-700 L710,-710 Z" />
<path fill="#4ee055" d="M745,-670 L745,-650 L727,-640 L710,-650 L710,-670 L727,-680 Z" />
<path fill="#D8D388" d="M762,-640 L762,-620 L745,-610 L727,-620 L727,-640 L745,-650 Z" />
<path fill="#D8D388" d="M779,-610 L779,-590 L762,-580 L745,-590 L745,-610 L762,-620 Z" />
<path fill="#4ee055" d="M797,-580 L797,-560 L779,-550 L762,-560 L762,-580 L779,-590 Z" />
<path fill="#D8D388" d="M-953,230 L-953,250 L-970,260 L-987,250 L-987,230 L-970,220 Z" />
<path fill="#4ee055" d="M-970,200 L-970,220 L-987,230 L-1005,220 L-1005,200 L-987,190 Z" />
<path fill="#D8D388" d="M554,-1000 L554,-980 L537,-970 L520,-980 L520,-1000 L537,-1010 Z" />
<path fill="#4ee055" d="M589,-1000 L589,-980 L572,-970 L554,-980 L554,-1000 L572,-1010 Z" />
<path fill="#D8D388" d="M606,-970 L606,-950 L589,-940 L572,-950 L572,-970 L589,-980 Z" />
<path fill="#D8D388" d="M624,-940 L624,-920 L606,-910 L589,-920 L589,-940 L606,-950 Z" />
<path fill="#4ee055" d="M641,-910 L641,-890 L624,-880 L606,-890 L606,-910 L624,-920 Z" />
<path fill="#D8D388" d="M658,-880 L658,-860 L641,-850 L624,-860 L624,-880 L641,-890 Z" />
<path fill="#D8D388" d="M675,-850 L675,-830 L658,-820 L641,-830 L641,-850 L658,-860 Z" />
<path fill="#4ee055" d="M693,-820 L693,-800 L675,-790 L658,-800 L658,-820 L675,-830 Z" />
<path fill="#D8D388" d="M710,-790 L710,-770 L693,-760 L675,-770 L675,-790 L693,-800 Z" />
<path fill="#D8D388" d="M727,-760 L727,-740 L710,-730 L693,-740 L693,-760 L710,-770 Z" />
<path fill="#4ee055" d="M745,-730 L745,-710 L727,-700 L710,-710 L710,-730 L727,-740 Z" />
<path fill="#D8D388" d="M762,-700 L762,-680 L745,-670 L727,-680 L727,-700 L745,-710 Z" />
<path fill="#D8D388" d="M779,-670 L779,-650 L762,-640 L745,-650 L745,-670 L762,-680 Z" />
<path fill="#4ee055" d="M797,-640 L797,-620 L779,-610 L762,-620 L762,-640 L779,-650 Z" />
<path fill="#D8D388" d="M814,-610 L814,-590 L797,-580 L779,-590 L779,-610 L797,-620 Z" />
<path fill="#D8D388" d="M-987,230 L-987,250 L-1005,260 L-1022,250 L-1022,230 L-1005,220 Z" />
<path fill="#4ee055" d="M641,-970 L641,-950 L624,-940 L606,-950 L606,-970 L624,-980 Z" />
<path fill="#D8D388" d="M658,-940 L658,-920 L641,-910 L624,-920 L624,-940 L641,-950 Z" />
<path fill="#D8D388" d="M675,-910 L675,-890 L658,-880 L641,-890 L641,-910 L658,-920 Z" />
<path fill="#4ee055" d="M693,-880 L693,-860 L675,-850 L658,-860 L658,-880 L675,-890 Z" />
<path fill="#D8D388" d="M727,-820 L727,-800 L710,-790 L693,-800 L693,-820 L710,-830 Z" />
<path fill="#4ee055" d="M745,-790 L745,-770 L727,-760 L710,-770 L710,-790 L727,-800 Z" />
<path fill="#D8D388" d="M762,-760 L762,-740 L745,-730 L727,-740 L727,-760 L745,-770 Z" />
<path fill="#D8D388" d="M779,-730 L779,-710 L762,-700 L745,-710 L745,-730 L762,-740 Z" />
<path fill="#4ee055" d="M797,-700 L797,-680 L779,-670 L762,-680 L762,-700 L779,-710 Z" />
<path fill="#D8D388" d="M814,-670 L814,-650 L797,-640 L779,-650 L779,-670 L797,-680 Z" />
<path fill="#D8D388" d="M831,-640 L831,-620 L814,-610 L797,-620 L797,-640 L814,-650 Z" />
<path fill="#D8D388" d="M675,-970 L675,-950 L658,-940 L641,-950 L641,-970 L658,-980 Z" />
<path fill="#4ee055" d="M693,-940 L693,-920 L675,-910 L658,-920 L658,-940 L675,-950 Z" />
<path fill="#D8D388" d="M762,-820 L762,-800 L745,-790 L727,-800 L727,-820 L745,-830 Z" />
<path fill="#D8D388" d="M779,-790 L779,-770 L762,-760 L745,-770 L745,-790 L762,-800 Z" />
<path fill="#4ee055" d="M797,-760 L797,-740 L779,-730 L762,-740 L762,-760 L779,-770 Z" />
<path fill="#D8D388" d="M814,-730 L814,-710 L797,-700 L779,-710 L779,-730 L797,-740 Z" />
<path fill="#D8D388" d="M831,-700 L831,-680 L814,-670 L797,-680 L797,-700 L814,-710 Z" />
<path fill="#4ee055" d="M849,-670 L849,-650 L831,-640 L814,-650 L814,-670 L831,-680 Z" />
<path fill="#4ee055" d="M797,-820 L797,-800 L779,-790 L762,-800 L762,-820 L779,-830 Z" />
<path fill="#D8D388" d="M814,-790 L814,-770 L797,-760 L779,-770 L779,-790 L797,-800 Z" />
<path fill="#D8D388" d="M831,-760 L831,-740 L814,-730 L797,-740 L797,-760 L814,-770 Z" />
<path fill="#4ee055" d="M849,-730 L849,-710 L831,-700 L814,-710 L814,-730 L831,-740 Z" />
<path fill="#D8D388" d="M866,-700 L866,-680 L849,-670 L831,-680 L831,-700 L849,-710 Z" />
<path fill="#D8D388" d="M814,-850 L814,-830 L797,-820 L779,-830 L779,-850 L797,-860 Z" />
<path fill="#D8D388" d="M831,-820 L831,-800 L814,-790 L797,-800 L797,-820 L814,-830 Z" />
<path fill="#4ee055" d="M849,-790 L849,-770 L831,-760 L814,-770 L814,-790 L831,-800 Z" />
<path fill="#D8D388" d="M866,-760 L866,-740 L849,-730 L831,-740 L831,-760 L849,-770 Z" />
<path fill="#D8D388" d="M156,-310 L156,-290 L139,-280 L121,-290 L121,-310 L139,-320 Z" />
<path fill="#D8D388" d="M0,-400 L0,-380 L-17,-370 L-35,-380 L-35,-400 L-17,-410 Z" />
<path fill="#D8D388" d="M-329,-190 L-329,-170 L-346,-160 L-364,-170 L-364,-190 L-346,-200 Z" />
<path fill="#D8D388" d="M-416,80 L-416,100 L-433,110 L-450,100 L-450,80 L-433,70 Z" />
<path fill="#4ee055" d="M-554,-40 L-554,-20 L-572,-10 L-589,-20 L-589,-40 L-572,-50 Z" />
<path fill="#4ee055" d="M381,-460 L381,-440 L364,-430 L346,-440 L346,-460 L364,-470 Z" />
<path fill="#4ee055" d="M329,-610 L329,-590 L312,-580 L294,-590 L294,-610 L312,-620 Z" />
</g>
</svg>