<?xml version="1.0" encoding="utf-8"?>
<svg viewBox="-914.5228263963671 -844.0000000000001 1066.9432974624283 968.0000000000001" preserveAspectRatio="xMidYMid meet" version="1.1" baseProfile="full" xmlns="http://www.w3.org/2000/svg" style="background-color: black;">
<g style="stroke:#ffffff; stroke-width: 1; stroke-linejoin: round;">
<path fill="#D8D388" d="M0,-40 L0,-20 L-17,-10 L-35,-20 L-35,-40 L-17,-50 Z" />
<path fill="#D8D388" d="M35,-40 L35,-20 L17,-10 L0,-20 L0,-40 L17,-50 Z" />
<path fill="#D8D388" d="M0,-40 L0,-20 L-17,-10 L-35,-20 L-35,-40 L-17,-50 Z" />
<path fill="#D8D388" d="M-17,-70 L-17,-50 L-35,-40 L-52,-50 L-52,-70 L-35,-80 Z" />
<path fill="#4ee055" d="M17,-70 L17,-50 L0,-40 L-17,-50 L-17,-70 L0,-80 Z" />
<path fill="#D8D388" d="M52,-70 L52,-50 L35,-40 L17,-50 L17,-70 L35,-80 Z" />
<path fill="#4ee055" d="M-35,-40 L-35,-20 L-52,-10 L-69,-20 L-69,-40 L-52,-50 Z" />
<path fill="#D8D388" d="M-17,-70 L-17,-50 L-35,-40 L-52,-50 L-52,-70 L-35,-80 Z" />
<path fill="#4ee055" d="M-35,-100 L-35,-80 L-52,-70 L-69,-80 L-69,-100 L-52,-110 Z" />
<path fill="#D8D388" d="M0,-100 L0,-80 L-17,-70 L-35,-80 L-35,-100 L-17,-110 Z" />
<path fill="#D8D388" d="M35,-100 L35,-80 L17,-70 L0,-80 L0,-100 L17,-110 Z" />
<path fill="#D8D388" d="M-69,-40 L-69,-20 L-87,-10 L-104,-20 L-104,-40 L-87,-50 Z" />
<path fill="#D8D388" d="M-52,-70 L-52,-50 L-69,-40 L-87,-50 L-87,-70 L-69,-80 Z" />
<path fill="#4ee055" d="M-35,-100 L-35,-80 L-52,-70 L-69,-80 L-69,-100 L-52,-110 Z" />
<path fill="#D8D388" d="M-104,-40 L-104,-20 L-121,-10 L-139,-20 L-139,-40 L-121,-50 Z" />
<path fill="#4ee055" d="M-87,-70 L-87,-50 L-104,-40 L-121,-50 L-121,-70 L-104,-80 Z" />
<path fill="#D8D388" d="M-69,-100 L-69,-80 L-87,-70 L-104,-80 L-104,-100 L-87,-110 Z" />
<path fill="#4ee055" d="M-139,-40 L-139,-20 L-156,-10 L-173,-20 L-173,-40 L-156,-50 Z" />
<path fill="#D8D388" d="M-121,-70 L-121,-50 L-139,-40 L-156,-50 L-156,-70 L-139,-80 Z" />
<path fill="#D8D388" d="M-104,-100 L-104,-80 L-121,-70 L-139,-80 L-139,-100 L-121,-110 Z" />
<path fill="#4ee055" d="M-87,-190 L-87,-170 L-104,-160 L-121,-170 L-121,-190 L-104,-200 Z" />
<path fill="#D8D388" d="M-52,-190 L-52,-170 L-69,-160 L-87,-170 L-87,-190 L-69,-200 Z" />
<path fill="#D8D388" d="M-17,-190 L-17,-170 L-35,-160 L-52,-170 L-52,-190 L-35,-200 Z" />
<path fill="#4ee055" d="M17,-190 L17,-170 L0,-160 L-17,-170 L-17,-190 L0,-200 Z" />
<path fill="#D8D388" d="M52,-190 L52,-170 L35,-160 L17,-170 L17,-190 L35,-200 Z" />
<path fill="#D8D388" d="M-173,-40 L-173,-20 L-191,-10 L-208,-20 L-208,-40 L-191,-50 Z" />
<path fill="#D8D388" d="M-156,-70 L-156,-50 L-173,-40 L-191,-50 L-191,-70 L-173,-80 Z" />
<path fill="#4ee055" d="M-139,-100 L-139,-80 L-156,-70 L-173,-80 L-173,-100 L-156,-110 Z" />
<path fill="#4ee055" d="M-87,-190 L-87,-170 L-104,-160 L-121,-170 L-121,-190 L-104,-200 Z" />
<path fill="#D8D388" d="M-104,-220 L-104,-200 L-121,-190 L-139,-200 L-139,-220 L-121,-230 Z" />
<path fill="#D8D388" d="M-69,-220 L-69,-200 L-87,-190 L-104,-200 L-104,-220 L-87,-230 Z" />
<path fill="#4ee055" d="M-35,-220 L-35,-200 L-52,-190 L-69,-200 L-69,-220 L-52,-230 Z" />
<path fill="#D8D388" d="M0,-220 L0,-200 L-17,-190 L-35,-200 L-35,-220 L-17,-230 Z" />
<path fill="#D8D388" d="M35,-220 L35,-200 L17,-190 L0,-200 L0,-220 L17,-230 Z" />
<path fill="#D8D388" d="M-208,20 L-208,40 L-225,50 L-242,40 L-242,20 L-225,10 Z" />
<path fill="#D8D388" d="M-208,-40 L-208,-20 L-225,-10 L-242,-20 L-242,-40 L-225,-50 Z" />
<path fill="#4ee055" d="M-191,-70 L-191,-50 L-208,-40 L-225,-50 L-225,-70 L-208,-80 Z" />
<path fill="#D8D388" d="M-173,-100 L-173,-80 L-191,-70 L-208,-80 L-208,-100 L-191,-110 Z" />
<path fill="#4ee055" d="M-139,-160 L-139,-140 L-156,-130 L-173,-140 L-173,-160 L-156,-170 Z" />
<path fill="#D8D388" d="M-121,-190 L-121,-170 L-139,-160 L-156,-170 L-156,-190 L-139,-200 Z" />
<path fill="#D8D388" d="M-104,-220 L-104,-200 L-121,-190 L-139,-200 L-139,-220 L-121,-230 Z" />
<path fill="#D8D388" d="M-121,-250 L-121,-230 L-139,-220 L-156,-230 L-156,-250 L-139,-260 Z" />
<path fill="#4ee055" d="M-87,-250 L-87,-230 L-104,-220 L-121,-230 L-121,-250 L-104,-260 Z" />
<path fill="#D8D388" d="M-52,-250 L-52,-230 L-69,-220 L-87,-230 L-87,-250 L-69,-260 Z" />
<path fill="#D8D388" d="M-17,-250 L-17,-230 L-35,-220 L-52,-230 L-52,-250 L-35,-260 Z" />
<path fill="#4ee055" d="M17,-250 L17,-230 L0,-220 L-17,-230 L-17,-250 L0,-260 Z" />
<path fill="#D8D388" d="M52,-250 L52,-230 L35,-220 L17,-230 L17,-250 L35,-260 Z" />
<path fill="#D8D388" d="M-225,50 L-225,70 L-242,80 L-260,70 L-260,50 L-242,40 Z" />
<path fill="#4ee055" d="M-242,20 L-242,40 L-260,50 L-277,40 L-277,20 L-260,10 Z" />
<path fill="#4ee055" d="M-242,-40 L-242,-20 L-260,-10 L-277,-20 L-277,-40 L-260,-50 Z" />
<path fill="#D8D388" d="M-225,-70 L-225,-50 L-242,-40 L-260,-50 L-260,-70 L-242,-80 Z" />
<path fill="#D8D388" d="M-208,-100 L-208,-80 L-225,-70 L-242,-80 L-242,-100 L-225,-110 Z" />
<path fill="#D8D388" d="M-173,-160 L-173,-140 L-191,-130 L-208,-140 L-208,-160 L-191,-170 Z" />
<path fill="#D8D388" d="M-156,-190 L-156,-170 L-173,-160 L-191,-170 L-191,-190 L-173,-200 Z" />
<path fill="#4ee055" d="M-139,-220 L-139,-200 L-156,-190 L-173,-200 L-173,-220 L-156,-230 Z" />
<path fill="#D8D388" d="M-121,-250 L-121,-230 L-139,-220 L-156,-230 L-156,-250 L-139,-260 Z" />
<path fill="#D8D388" d="M0,-280 L0,-260 L-17,-250 L-35,-260 L-35,-280 L-17,-290 Z" />
<path fill="#D8D388" d="M35,-280 L35,-260 L17,-250 L0,-260 L0,-280 L17,-290 Z" />
<path fill="#D8D388" d="M-260,50 L-260,70 L-277,80 L-294,70 L-294,50 L-277,40 Z" />
<path fill="#D8D388" d="M-277,20 L-277,40 L-294,50 L-312,40 L-312,20 L-294,10 Z" />
<path fill="#D8D388" d="M-277,-40 L-277,-20 L-294,-10 L-312,-20 L-312,-40 L-294,-50 Z" />
<path fill="#D8D388" d="M-260,-70 L-260,-50 L-277,-40 L-294,-50 L-294,-70 L-277,-80 Z" />
<path fill="#4ee055" d="M-242,-100 L-242,-80 L-260,-70 L-277,-80 L-277,-100 L-260,-110 Z" />
<path fill="#D8D388" d="M-225,-130 L-225,-110 L-242,-100 L-260,-110 L-260,-130 L-242,-140 Z" />
<path fill="#4ee055" d="M-191,-190 L-191,-170 L-208,-160 L-225,-170 L-225,-190 L-208,-200 Z" />
<path fill="#D8D388" d="M-173,-220 L-173,-200 L-191,-190 L-208,-200 L-208,-220 L-191,-230 Z" />
<path fill="#D8D388" d="M-156,-250 L-156,-230 L-173,-220 L-191,-230 L-191,-250 L-173,-260 Z" />
<path fill="#D8D388" d="M-312,20 L-312,40 L-329,50 L-346,40 L-346,20 L-329,10 Z" />
<path fill="#4ee055" d="M-294,-70 L-294,-50 L-312,-40 L-329,-50 L-329,-70 L-312,-80 Z" />
<path fill="#D8D388" d="M-277,-100 L-277,-80 L-294,-70 L-312,-80 L-312,-100 L-294,-110 Z" />
<path fill="#D8D388" d="M-260,-130 L-260,-110 L-277,-100 L-294,-110 L-294,-130 L-277,-140 Z" />
<path fill="#4ee055" d="M-242,-160 L-242,-140 L-260,-130 L-277,-140 L-277,-160 L-260,-170 Z" />
<path fill="#D8D388" d="M-225,-190 L-225,-170 L-242,-160 L-260,-170 L-260,-190 L-242,-200 Z" />
<path fill="#D8D388" d="M-208,-220 L-208,-200 L-225,-190 L-242,-200 L-242,-220 L-225,-230 Z" />
<path fill="#4ee055" d="M-191,-250 L-191,-230 L-208,-220 L-225,-230 L-225,-250 L-208,-260 Z" />
<path fill="#4ee055" d="M-346,20 L-346,40 L-364,50 L-381,40 L-381,20 L-364,10 Z" />
<path fill="#4ee055" d="M-346,-40 L-346,-20 L-364,-10 L-381,-20 L-381,-40 L-364,-50 Z" />
<path fill="#D8D388" d="M-329,-70 L-329,-50 L-346,-40 L-364,-50 L-364,-70 L-346,-80 Z" />
<path fill="#D8D388" d="M-312,-100 L-312,-80 L-329,-70 L-346,-80 L-346,-100 L-329,-110 Z" />
<path fill="#4ee055" d="M-294,-130 L-294,-110 L-312,-100 L-329,-110 L-329,-130 L-312,-140 Z" />
<path fill="#D8D388" d="M-277,-160 L-277,-140 L-294,-130 L-312,-140 L-312,-160 L-294,-170 Z" />
<path fill="#D8D388" d="M-260,-190 L-260,-170 L-277,-160 L-294,-170 L-294,-190 L-277,-200 Z" />
<path fill="#4ee055" d="M-242,-220 L-242,-200 L-260,-190 L-277,-200 L-277,-220 L-260,-230 Z" />
<path fill="#D8D388" d="M-225,-250 L-225,-230 L-242,-220 L-260,-230 L-260,-250 L-242,-260 Z" />
<path fill="#D8D388" d="M-381,20 L-381,40 L-398,50 L-416,40 L-416,20 L-398,10 Z" />
<path fill="#D8D388" d="M-381,-40 L-381,-20 L-398,-10 L-416,-20 L-416,-40 L-398,-50 Z" />
<path fill="#D8D388" d="M-364,-70 L-364,-50 L-381,-40 L-398,-50 L-398,-70 L-381,-80 Z" />
<path fill="#4ee055" d="M-346,-100 L-346,-80 L-364,-70 L-381,-80 L-381,-100 L-364,-110 Z" />
<path fill="#D8D388" d="M-329,-130 L-329,-110 L-346,-100 L-364,-110 L-364,-130 L-346,-140 Z" />
<path fill="#D8D388" d="M-312,-160 L-312,-140 L-329,-130 L-346,-140 L-346,-160 L-329,-170 Z" />
<path fill="#4ee055" d="M-294,-190 L-294,-170 L-312,-160 L-329,-170 L-329,-190 L-312,-200 Z" />
<path fill="#D8D388" d="M-277,-220 L-277,-200 L-294,-190 L-312,-200 L-312,-220 L-294,-230 Z" />
<path fill="#D8D388" d="M-260,-250 L-260,-230 L-277,-220 L-294,-230 L-294,-250 L-277,-260 Z" />
<path fill="#4ee055" d="M-242,-280 L-242,-260 L-260,-250 L-277,-260 L-277,-280 L-260,-290 Z" />
<path fill="#D8D388" d="M-416,20 L-416,40 L-433,50 L-450,40 L-450,20 L-433,10 Z" />
<path fill="#D8D388" d="M-433,-10 L-433,10 L-450,20 L-468,10 L-468,-10 L-450,-20 Z" />
<path fill="#D8D388" d="M-416,-40 L-416,-20 L-433,-10 L-450,-20 L-450,-40 L-433,-50 Z" />
<path fill="#4ee055" d="M-398,-70 L-398,-50 L-416,-40 L-433,-50 L-433,-70 L-416,-80 Z" />
<path fill="#D8D388" d="M-381,-100 L-381,-80 L-398,-70 L-416,-80 L-416,-100 L-398,-110 Z" />
<path fill="#D8D388" d="M-364,-130 L-364,-110 L-381,-100 L-398,-110 L-398,-130 L-381,-140 Z" />
<path fill="#4ee055" d="M-346,-160 L-346,-140 L-364,-130 L-381,-140 L-381,-160 L-364,-170 Z" />
<path fill="#D8D388" d="M-329,-190 L-329,-170 L-346,-160 L-364,-170 L-364,-190 L-346,-200 Z" />
<path fill="#D8D388" d="M-312,-220 L-312,-200 L-329,-190 L-346,-200 L-346,-220 L-329,-230 Z" />
<path fill="#4ee055" d="M-294,-250 L-294,-230 L-312,-220 L-329,-230 L-329,-250 L-312,-260 Z" />
<path fill="#D8D388" d="M-277,-280 L-277,-260 L-294,-250 L-312,-260 L-312,-280 L-294,-290 Z" />
<path fill="#D8D388" d="M-260,-310 L-260,-290 L-277,-280 L-294,-290 L-294,-310 L-277,-320 Z" />
<path fill="#4ee055" d="M-242,-340 L-242,-320 L-260,-310 L-277,-320 L-277,-340 L-260,-350 Z" />
<path fill="#D8D388" d="M-225,-370 L-225,-350 L-242,-340 L-260,-350 L-260,-370 L-242,-380 Z" />
<path fill="#D8D388" d="M-225,-430 L-225,-410 L-242,-400 L-260,-410 L-260,-430 L-242,-440 Z" />
<path fill="#4ee055" d="M-450,20 L-450,40 L-468,50 L-485,40 L-485,20 L-468,10 Z" />
<path fill="#D8D388" d="M-468,-10 L-468,10 L-485,20 L-502,10 L-502,-10 L-485,-20 Z" />
<path fill="#4ee055" d="M-450,-40 L-450,-20 L-468,-10 L-485,-20 L-485,-40 L-468,-50 Z" />
<path fill="#D8D388" d="M-433,-70 L-433,-50 L-450,-40 L-468,-50 L-468,-70 L-450,-80 Z" />
<path fill="#D8D388" d="M-416,-100 L-416,-80 L-433,-70 L-450,-80 L-450,-100 L-433,-110 Z" />
<path fill="#4ee055" d="M-398,-130 L-398,-110 L-416,-100 L-433,-110 L-433,-130 L-416,-140 Z" />
<path fill="#D8D388" d="M-381,-160 L-381,-140 L-398,-130 L-416,-140 L-416,-160 L-398,-170 Z" />
<path fill="#D8D388" d="M-364,-190 L-364,-170 L-381,-160 L-398,-170 L-398,-190 L-381,-200 Z" />
<path fill="#4ee055" d="M-346,-220 L-346,-200 L-364,-190 L-381,-200 L-381,-220 L-364,-230 Z" />
<path fill="#D8D388" d="M-329,-250 L-329,-230 L-346,-220 L-364,-230 L-364,-250 L-346,-260 Z" />
<path fill="#D8D388" d="M-312,-280 L-312,-260 L-329,-250 L-346,-260 L-346,-280 L-329,-290 Z" />
<path fill="#4ee055" d="M-294,-310 L-294,-290 L-312,-280 L-329,-290 L-329,-310 L-312,-320 Z" />
<path fill="#D8D388" d="M-277,-340 L-277,-320 L-294,-310 L-312,-320 L-312,-340 L-294,-350 Z" />
<path fill="#D8D388" d="M-260,-370 L-260,-350 L-277,-340 L-294,-350 L-294,-370 L-277,-380 Z" />
<path fill="#4ee055" d="M-242,-400 L-242,-380 L-260,-370 L-277,-380 L-277,-400 L-260,-410 Z" />
<path fill="#D8D388" d="M-225,-430 L-225,-410 L-242,-400 L-260,-410 L-260,-430 L-242,-440 Z" />
<path fill="#4ee055" d="M-242,-460 L-242,-440 L-260,-430 L-277,-440 L-277,-460 L-260,-470 Z" />
<path fill="#D8D388" d="M-208,-460 L-208,-440 L-225,-430 L-242,-440 L-242,-460 L-225,-470 Z" />
<path fill="#D8D388" d="M-485,20 L-485,40 L-502,50 L-520,40 L-520,20 L-502,10 Z" />
<path fill="#4ee055" d="M-502,-10 L-502,10 L-520,20 L-537,10 L-537,-10 L-520,-20 Z" />
<path fill="#D8D388" d="M-485,-40 L-485,-20 L-502,-10 L-520,-20 L-520,-40 L-502,-50 Z" />
<path fill="#D8D388" d="M-468,-70 L-468,-50 L-485,-40 L-502,-50 L-502,-70 L-485,-80 Z" />
<path fill="#4ee055" d="M-450,-100 L-450,-80 L-468,-70 L-485,-80 L-485,-100 L-468,-110 Z" />
<path fill="#D8D388" d="M-433,-130 L-433,-110 L-450,-100 L-468,-110 L-468,-130 L-450,-140 Z" />
<path fill="#D8D388" d="M-416,-160 L-416,-140 L-433,-130 L-450,-140 L-450,-160 L-433,-170 Z" />
<path fill="#4ee055" d="M-398,-190 L-398,-170 L-416,-160 L-433,-170 L-433,-190 L-416,-200 Z" />
<path fill="#D8D388" d="M-381,-220 L-381,-200 L-398,-190 L-416,-200 L-416,-220 L-398,-230 Z" />
<path fill="#D8D388" d="M-364,-250 L-364,-230 L-381,-220 L-398,-230 L-398,-250 L-381,-260 Z" />
<path fill="#4ee055" d="M-346,-280 L-346,-260 L-364,-250 L-381,-260 L-381,-280 L-364,-290 Z" />
<path fill="#D8D388" d="M-329,-310 L-329,-290 L-346,-280 L-364,-290 L-364,-310 L-346,-320 Z" />
<path fill="#D8D388" d="M-312,-340 L-312,-320 L-329,-310 L-346,-320 L-346,-340 L-329,-350 Z" />
<path fill="#4ee055" d="M-294,-370 L-294,-350 L-312,-340 L-329,-350 L-329,-370 L-312,-380 Z" />
<path fill="#D8D388" d="M-277,-400 L-277,-380 L-294,-370 L-312,-380 L-312,-400 L-294,-410 Z" />
<path fill="#D8D388" d="M-260,-430 L-260,-410 L-277,-400 L-294,-410 L-294,-430 L-277,-440 Z" />
<path fill="#4ee055" d="M-242,-460 L-242,-440 L-260,-430 L-277,-440 L-277,-460 L-260,-470 Z" />
<path fill="#D8D388" d="M-260,-490 L-260,-470 L-277,-460 L-294,-470 L-294,-490 L-277,-500 Z" />
<path fill="#D8D388" d="M-225,-490 L-225,-470 L-242,-460 L-260,-470 L-260,-490 L-242,-500 Z" />
<path fill="#D8D388" d="M-537,-10 L-537,10 L-554,20 L-572,10 L-572,-10 L-554,-20 Z" />
<path fill="#D8D388" d="M-520,-40 L-520,-20 L-537,-10 L-554,-20 L-554,-40 L-537,-50 Z" />
<path fill="#4ee055" d="M-502,-70 L-502,-50 L-520,-40 L-537,-50 L-537,-70 L-520,-80 Z" />
<path fill="#D8D388" d="M-485,-100 L-485,-80 L-502,-70 L-520,-80 L-520,-100 L-502,-110 Z" />
<path fill="#D8D388" d="M-468,-130 L-468,-110 L-485,-100 L-502,-110 L-502,-130 L-485,-140 Z" />
<path fill="#4ee055" d="M-450,-160 L-450,-140 L-468,-130 L-485,-140 L-485,-160 L-468,-170 Z" />
<path fill="#D8D388" d="M-433,-190 L-433,-170 L-450,-160 L-468,-170 L-468,-190 L-450,-200 Z" />
<path fill="#D8D388" d="M-416,-220 L-416,-200 L-433,-190 L-450,-200 L-450,-220 L-433,-230 Z" />
<path fill="#4ee055" d="M-398,-250 L-398,-230 L-416,-220 L-433,-230 L-433,-250 L-416,-260 Z" />
<path fill="#D8D388" d="M-381,-280 L-381,-260 L-398,-250 L-416,-260 L-416,-280 L-398,-290 Z" />
<path fill="#D8D388" d="M-364,-310 L-364,-290 L-381,-280 L-398,-290 L-398,-310 L-381,-320 Z" />
<path fill="#4ee055" d="M-346,-340 L-346,-320 L-364,-310 L-381,-320 L-381,-340 L-364,-350 Z" />
<path fill="#D8D388" d="M-329,-370 L-329,-350 L-346,-340 L-364,-350 L-364,-370 L-346,-380 Z" />
<path fill="#D8D388" d="M-312,-400 L-312,-380 L-329,-370 L-346,-380 L-346,-400 L-329,-410 Z" />
<path fill="#4ee055" d="M-294,-430 L-294,-410 L-312,-400 L-329,-410 L-329,-430 L-312,-440 Z" />
<path fill="#D8D388" d="M-277,-460 L-277,-440 L-294,-430 L-312,-440 L-312,-460 L-294,-470 Z" />
<path fill="#D8D388" d="M-260,-490 L-260,-470 L-277,-460 L-294,-470 L-294,-490 L-277,-500 Z" />
<path fill="#D8D388" d="M-277,-520 L-277,-500 L-294,-490 L-312,-500 L-312,-520 L-294,-530 Z" />
<path fill="#4ee055" d="M-242,-520 L-242,-500 L-260,-490 L-277,-500 L-277,-520 L-260,-530 Z" />
<path fill="#D8D388" d="M-208,-520 L-208,-500 L-225,-490 L-242,-500 L-242,-520 L-225,-530 Z" />
<path fill="#D8D388" d="M-173,-520 L-173,-500 L-191,-490 L-208,-500 L-208,-520 L-191,-530 Z" />
<path fill="#4ee055" d="M-139,-520 L-139,-500 L-156,-490 L-173,-500 L-173,-520 L-156,-530 Z" />
<path fill="#D8D388" d="M-104,-520 L-104,-500 L-121,-490 L-139,-500 L-139,-520 L-121,-530 Z" />
<path fill="#D8D388" d="M-69,-520 L-69,-500 L-87,-490 L-104,-500 L-104,-520 L-87,-530 Z" />
<path fill="#4ee055" d="M-35,-520 L-35,-500 L-52,-490 L-69,-500 L-69,-520 L-52,-530 Z" />
<path fill="#D8D388" d="M35,-520 L35,-500 L17,-490 L0,-500 L0,-520 L17,-530 Z" />
<path fill="#4ee055" d="M69,-520 L69,-500 L52,-490 L35,-500 L35,-520 L52,-530 Z" />
<path fill="#D8D388" d="M104,-520 L104,-500 L87,-490 L69,-500 L69,-520 L87,-530 Z" />
<path fill="#D8D388" d="M-572,-10 L-572,10 L-589,20 L-606,10 L-606,-10 L-589,-20 Z" />
<path fill="#4ee055" d="M-554,-40 L-554,-20 L-572,-10 L-589,-20 L-589,-40 L-572,-50 Z" />
<path fill="#D8D388" d="M-537,-70 L-537,-50 L-554,-40 L-572,-50 L-572,-70 L-554,-80 Z" />
<path fill="#D8D388" d="M-520,-100 L-520,-80 L-537,-70 L-554,-80 L-554,-100 L-537,-110 Z" />
<path fill="#4ee055" d="M-502,-130 L-502,-110 L-520,-100 L-537,-110 L-537,-130 L-520,-140 Z" />
<path fill="#D8D388" d="M-485,-160 L-485,-140 L-502,-130 L-520,-140 L-520,-160 L-502,-170 Z" />
<path fill="#D8D388" d="M-468,-190 L-468,-170 L-485,-160 L-502,-170 L-502,-190 L-485,-200 Z" />
<path fill="#4ee055" d="M-450,-220 L-450,-200 L-468,-190 L-485,-200 L-485,-220 L-468,-230 Z" />
<path fill="#D8D388" d="M-433,-250 L-433,-230 L-450,-220 L-468,-230 L-468,-250 L-450,-260 Z" />
<path fill="#D8D388" d="M-416,-280 L-416,-260 L-433,-250 L-450,-260 L-450,-280 L-433,-290 Z" />
<path fill="#4ee055" d="M-398,-310 L-398,-290 L-416,-280 L-433,-290 L-433,-310 L-416,-320 Z" />
<path fill="#D8D388" d="M-381,-340 L-381,-320 L-398,-310 L-416,-320 L-416,-340 L-398,-350 Z" />
<path fill="#D8D388" d="M-364,-370 L-364,-350 L-381,-340 L-398,-350 L-398,-370 L-381,-380 Z" />
<path fill="#4ee055" d="M-346,-400 L-346,-380 L-364,-370 L-381,-380 L-381,-400 L-364,-410 Z" />
<path fill="#D8D388" d="M-329,-430 L-329,-410 L-346,-400 L-364,-410 L-364,-430 L-346,-440 Z" />
<path fill="#D8D388" d="M-312,-460 L-312,-440 L-329,-430 L-346,-440 L-346,-460 L-329,-470 Z" />
<path fill="#4ee055" d="M-294,-490 L-294,-470 L-312,-460 L-329,-470 L-329,-490 L-312,-500 Z" />
<path fill="#D8D388" d="M-277,-520 L-277,-500 L-294,-490 L-312,-500 L-312,-520 L-294,-530 Z" />
<path fill="#4ee055" d="M-294,-550 L-294,-530 L-312,-520 L-329,-530 L-329,-550 L-312,-560 Z" />
<path fill="#D8D388" d="M-260,-550 L-260,-530 L-277,-520 L-294,-530 L-294,-550 L-277,-560 Z" />
<path fill="#D8D388" d="M-225,-550 L-225,-530 L-242,-520 L-260,-530 L-260,-550 L-242,-560 Z" />
<path fill="#4ee055" d="M-191,-550 L-191,-530 L-208,-520 L-225,-530 L-225,-550 L-208,-560 Z" />
<path fill="#D8D388" d="M-156,-550 L-156,-530 L-173,-520 L-191,-530 L-191,-550 L-173,-560 Z" />
<path fill="#D8D388" d="M-121,-550 L-121,-530 L-139,-520 L-156,-530 L-156,-550 L-139,-560 Z" />
<path fill="#4ee055" d="M-87,-550 L-87,-530 L-104,-520 L-121,-530 L-121,-550 L-104,-560 Z" />
<path fill="#D8D388" d="M-52,-550 L-52,-530 L-69,-520 L-87,-530 L-87,-550 L-69,-560 Z" />
<path fill="#D8D388" d="M-17,-550 L-17,-530 L-35,-520 L-52,-530 L-52,-550 L-35,-560 Z" />
<path fill="#4ee055" d="M17,-550 L17,-530 L0,-520 L-17,-530 L-17,-550 L0,-560 Z" />
<path fill="#D8D388" d="M52,-550 L52,-530 L35,-520 L17,-530 L17,-550 L35,-560 Z" />
<path fill="#D8D388" d="M87,-550 L87,-530 L69,-520 L52,-530 L52,-550 L69,-560 Z" />
<path fill="#D8D388" d="M-589,-40 L-589,-20 L-606,-10 L-624,-20 L-624,-40 L-606,-50 Z" />
<path fill="#D8D388" d="M-572,-70 L-572,-50 L-589,-40 L-606,-50 L-606,-70 L-589,-80 Z" />
<path fill="#4ee055" d="M-554,-100 L-554,-80 L-572,-70 L-589,-80 L-589,-100 L-572,-110 Z" />
<path fill="#D8D388" d="M-537,-130 L-537,-110 L-554,-100 L-572,-110 L-572,-130 L-554,-140 Z" />
<path fill="#D8D388" d="M-520,-160 L-520,-140 L-537,-130 L-554,-140 L-554,-160 L-537,-170 Z" />
<path fill="#4ee055" d="M-502,-190 L-502,-170 L-520,-160 L-537,-170 L-537,-190 L-520,-200 Z" />
<path fill="#D8D388" d="M-485,-220 L-485,-200 L-502,-190 L-520,-200 L-520,-220 L-502,-230 Z" />
<path fill="#D8D388" d="M-468,-250 L-468,-230 L-485,-220 L-502,-230 L-502,-250 L-485,-260 Z" />
<path fill="#4ee055" d="M-450,-280 L-450,-260 L-468,-250 L-485,-260 L-485,-280 L-468,-290 Z" />
<path fill="#D8D388" d="M-433,-310 L-433,-290 L-450,-280 L-468,-290 L-468,-310 L-450,-320 Z" />
<path fill="#D8D388" d="M-416,-340 L-416,-320 L-433,-310 L-450,-320 L-450,-340 L-433,-350 Z" />
<path fill="#4ee055" d="M-398,-370 L-398,-350 L-416,-340 L-433,-350 L-433,-370 L-416,-380 Z" />
<path fill="#D8D388" d="M-381,-400 L-381,-380 L-398,-370 L-416,-380 L-416,-400 L-398,-410 Z" />
<path fill="#D8D388" d="M-364,-430 L-364,-410 L-381,-400 L-398,-410 L-398,-430 L-381,-440 Z" />
<path fill="#4ee055" d="M-346,-460 L-346,-440 L-364,-430 L-381,-440 L-381,-460 L-364,-470 Z" />
<path fill="#D8D388" d="M-329,-490 L-329,-470 L-346,-460 L-364,-470 L-364,-490 L-346,-500 Z" />
<path fill="#D8D388" d="M-312,-520 L-312,-500 L-329,-490 L-346,-500 L-346,-520 L-329,-530 Z" />
<path fill="#4ee055" d="M-294,-550 L-294,-530 L-312,-520 L-329,-530 L-329,-550 L-312,-560 Z" />
<path fill="#D8D388" d="M-312,-580 L-312,-560 L-329,-550 L-346,-560 L-346,-580 L-329,-590 Z" />
<path fill="#D8D388" d="M-277,-580 L-277,-560 L-294,-550 L-312,-560 L-312,-580 L-294,-590 Z" />
<path fill="#4ee055" d="M-242,-580 L-242,-560 L-260,-550 L-277,-560 L-277,-580 L-260,-590 Z" />
<path fill="#D8D388" d="M-208,-580 L-208,-560 L-225,-550 L-242,-560 L-242,-580 L-225,-590 Z" />
<path fill="#D8D388" d="M-173,-580 L-173,-560 L-191,-550 L-208,-560 L-208,-580 L-191,-590 Z" />
<path fill="#4ee055" d="M-139,-580 L-139,-560 L-156,-550 L-173,-560 L-173,-580 L-156,-590 Z" />
<path fill="#D8D388" d="M-104,-580 L-104,-560 L-121,-550 L-139,-560 L-139,-580 L-121,-590 Z" />
<path fill="#D8D388" d="M-69,-580 L-69,-560 L-87,-550 L-104,-560 L-104,-580 L-87,-590 Z" />
<path fill="#4ee055" d="M-35,-580 L-35,-560 L-52,-550 L-69,-560 L-69,-580 L-52,-590 Z" />
<path fill="#D8D388" d="M0,-580 L0,-560 L-17,-550 L-35,-560 L-35,-580 L-17,-590 Z" />
<path fill="#D8D388" d="M35,-580 L35,-560 L17,-550 L0,-560 L0,-580 L17,-590 Z" />
<path fill="#4ee055" d="M69,-580 L69,-560 L52,-550 L35,-560 L35,-580 L52,-590 Z" />
<path fill="#D8D388" d="M104,-580 L104,-560 L87,-550 L69,-560 L69,-580 L87,-590 Z" />
<path fill="#D8D388" d="M-624,-40 L-624,-20 L-641,-10 L-658,-20 L-658,-40 L-641,-50 Z" />
<path fill="#4ee055" d="M-606,-70 L-606,-50 L-624,-40 L-641,-50 L-641,-70 L-624,-80 Z" />
<path fill="#D8D388" d="M-589,-100 L-589,-80 L-606,-70 L-624,-80 L-624,-100 L-606,-110 Z" />
<path fill="#D8D388" d="M-572,-130 L-572,-110 L-589,-100 L-606,-110 L-606,-130 L-589,-140 Z" />
<path fill="#4ee055" d="M-554,-160 L-554,-140 L-572,-130 L-589,-140 L-589,-160 L-572,-170 Z" />
<path fill="#D8D388" d="M-537,-190 L-537,-170 L-554,-160 L-572,-170 L-572,-190 L-554,-200 Z" />
<path fill="#D8D388" d="M-520,-220 L-520,-200 L-537,-190 L-554,-200 L-554,-220 L-537,-230 Z" />
<path fill="#4ee055" d="M-502,-250 L-502,-230 L-520,-220 L-537,-230 L-537,-250 L-520,-260 Z" />
<path fill="#D8D388" d="M-485,-280 L-485,-260 L-502,-250 L-520,-260 L-520,-280 L-502,-290 Z" />
<path fill="#D8D388" d="M-468,-310 L-468,-290 L-485,-280 L-502,-290 L-502,-310 L-485,-320 Z" />
<path fill="#4ee055" d="M-450,-340 L-450,-320 L-468,-310 L-485,-320 L-485,-340 L-468,-350 Z" />
<path fill="#D8D388" d="M-433,-370 L-433,-350 L-450,-340 L-468,-350 L-468,-370 L-450,-380 Z" />
<path fill="#D8D388" d="M-416,-400 L-416,-380 L-433,-370 L-450,-380 L-450,-400 L-433,-410 Z" />
<path fill="#4ee055" d="M-398,-430 L-398,-410 L-416,-400 L-433,-410 L-433,-430 L-416,-440 Z" />
<path fill="#D8D388" d="M-381,-460 L-381,-440 L-398,-430 L-416,-440 L-416,-460 L-398,-470 Z" />
<path fill="#D8D388" d="M-364,-490 L-364,-470 L-381,-460 L-398,-470 L-398,-490 L-381,-500 Z" />
<path fill="#4ee055" d="M-346,-520 L-346,-500 L-364,-490 L-381,-500 L-381,-520 L-364,-530 Z" />
<path fill="#D8D388" d="M-329,-550 L-329,-530 L-346,-520 L-364,-530 L-364,-550 L-346,-560 Z" />
<path fill="#D8D388" d="M-312,-580 L-312,-560 L-329,-550 L-346,-560 L-346,-580 L-329,-590 Z" />
<path fill="#D8D388" d="M-329,-610 L-329,-590 L-346,-580 L-364,-590 L-364,-610 L-346,-620 Z" />
<path fill="#4ee055" d="M-294,-610 L-294,-590 L-312,-580 L-329,-590 L-329,-610 L-312,-620 Z" />
<path fill="#D8D388" d="M-260,-610 L-260,-590 L-277,-580 L-294,-590 L-294,-610 L-277,-620 Z" />
<path fill="#D8D388" d="M-225,-610 L-225,-590 L-242,-580 L-260,-590 L-260,-610 L-242,-620 Z" />
<path fill="#4ee055" d="M-191,-610 L-191,-590 L-208,-580 L-225,-590 L-225,-610 L-208,-620 Z" />
<path fill="#D8D388" d="M-156,-610 L-156,-590 L-173,-580 L-191,-590 L-191,-610 L-173,-620 Z" />
<path fill="#D8D388" d="M-121,-610 L-121,-590 L-139,-580 L-156,-590 L-156,-610 L-139,-620 Z" />
<path fill="#4ee055" d="M-87,-610 L-87,-590 L-104,-580 L-121,-590 L-121,-610 L-104,-620 Z" />
<path fill="#D8D388" d="M-52,-610 L-52,-590 L-69,-580 L-87,-590 L-87,-610 L-69,-620 Z" />
<path fill="#D8D388" d="M-17,-610 L-17,-590 L-35,-580 L-52,-590 L-52,-610 L-35,-620 Z" />
<path fill="#4ee055" d="M17,-610 L17,-590 L0,-580 L-17,-590 L-17,-610 L0,-620 Z" />
<path fill="#D8D388" d="M52,-610 L52,-590 L35,-580 L17,-590 L17,-610 L35,-620 Z" />
<path fill="#D8D388" d="M87,-610 L87,-590 L69,-580 L52,-590 L52,-610 L69,-620 Z" />
<path fill="#D8D388" d="M-641,-70 L-641,-50 L-658,-40 L-675,-50 L-675,-70 L-658,-80 Z" />
<path fill="#D8D388" d="M-624,-100 L-624,-80 L-641,-70 L-658,-80 L-658,-100 L-641,-110 Z" />
<path fill="#4ee055" d="M-606,-130 L-606,-110 L-624,-100 L-641,-110 L-641,-130 L-624,-140 Z" />
<path fill="#D8D388" d="M-589,-160 L-589,-140 L-606,-130 L-624,-140 L-624,-160 L-606,-170 Z" />
<path fill="#D8D388" d="M-572,-190 L-572,-170 L-589,-160 L-606,-170 L-606,-190 L-589,-200 Z" />
<path fill="#4ee055" d="M-554,-220 L-554,-200 L-572,-190 L-589,-200 L-589,-220 L-572,-230 Z" />
<path fill="#D8D388" d="M-537,-250 L-537,-230 L-554,-220 L-572,-230 L-572,-250 L-554,-260 Z" />
<path fill="#D8D388" d="M-520,-280 L-520,-260 L-537,-250 L-554,-260 L-554,-280 L-537,-290 Z" />
<path fill="#4ee055" d="M-502,-310 L-502,-290 L-520,-280 L-537,-290 L-537,-310 L-520,-320 Z" />
<path fill="#D8D388" d="M-485,-340 L-485,-320 L-502,-310 L-520,-320 L-520,-340 L-502,-350 Z" />
<path fill="#D8D388" d="M-468,-370 L-468,-350 L-485,-340 L-502,-350 L-502,-370 L-485,-380 Z" />
<path fill="#4ee055" d="M-450,-400 L-450,-380 L-468,-370 L-485,-380 L-485,-400 L-468,-410 Z" />
<path fill="#D8D388" d="M-433,-430 L-433,-410 L-450,-400 L-468,-410 L-468,-430 L-450,-440 Z" />
<path fill="#D8D388" d="M-416,-460 L-416,-440 L-433,-430 L-450,-440 L-450,-460 L-433,-470 Z" />
<path fill="#4ee055" d="M-398,-490 L-398,-470 L-416,-460 L-433,-470 L-433,-490 L-416,-500 Z" />
<path fill="#D8D388" d="M-381,-520 L-381,-500 L-398,-490 L-416,-500 L-416,-520 L-398,-530 Z" />
<path fill="#D8D388" d="M-364,-550 L-364,-530 L-381,-520 L-398,-530 L-398,-550 L-381,-560 Z" />
<path fill="#4ee055" d="M-346,-580 L-346,-560 L-364,-550 L-381,-560 L-381,-580 L-364,-590 Z" />
<path fill="#D8D388" d="M-329,-610 L-329,-590 L-346,-580 L-364,-590 L-364,-610 L-346,-620 Z" />
<path fill="#4ee055" d="M-346,-640 L-346,-620 L-364,-610 L-381,-620 L-381,-640 L-364,-650 Z" />
<path fill="#D8D388" d="M-312,-640 L-312,-620 L-329,-610 L-346,-620 L-346,-640 L-329,-650 Z" />
<path fill="#D8D388" d="M-277,-640 L-277,-620 L-294,-610 L-312,-620 L-312,-640 L-294,-650 Z" />
<path fill="#4ee055" d="M-242,-640 L-242,-620 L-260,-610 L-277,-620 L-277,-640 L-260,-650 Z" />
<path fill="#D8D388" d="M-208,-640 L-208,-620 L-225,-610 L-242,-620 L-242,-640 L-225,-650 Z" />
<path fill="#D8D388" d="M-173,-640 L-173,-620 L-191,-610 L-208,-620 L-208,-640 L-191,-650 Z" />
<path fill="#4ee055" d="M-139,-640 L-139,-620 L-156,-610 L-173,-620 L-173,-640 L-156,-650 Z" />
<path fill="#D8D388" d="M-104,-640 L-104,-620 L-121,-610 L-139,-620 L-139,-640 L-121,-650 Z" />
<path fill="#D8D388" d="M-69,-640 L-69,-620 L-87,-610 L-104,-620 L-104,-640 L-87,-650 Z" />
<path fill="#4ee055" d="M-35,-640 L-35,-620 L-52,-610 L-69,-620 L-69,-640 L-52,-650 Z" />
<path fill="#D8D388" d="M0,-640 L0,-620 L-17,-610 L-35,-620 L-35,-640 L-17,-650 Z" />
<path fill="#D8D388" d="M35,-640 L35,-620 L17,-610 L0,-620 L0,-640 L17,-650 Z" />
<path fill="#4ee055" d="M69,-640 L69,-620 L52,-610 L35,-620 L35,-640 L52,-650 Z" />
<path fill="#D8D388" d="M-675,-70 L-675,-50 L-693,-40 L-710,-50 L-710,-70 L-693,-80 Z" />
<path fill="#4ee055" d="M-658,-100 L-658,-80 L-675,-70 L-693,-80 L-693,-100 L-675,-110 Z" />
<path fill="#D8D388" d="M-641,-130 L-641,-110 L-658,-100 L-675,-110 L-675,-130 L-658,-140 Z" />
<path fill="#D8D388" d="M-624,-160 L-624,-140 L-641,-130 L-658,-140 L-658,-160 L-641,-170 Z" />
<path fill="#4ee055" d="M-606,-190 L-606,-170 L-624,-160 L-641,-170 L-641,-190 L-624,-200 Z" />
<path fill="#D8D388" d="M-589,-220 L-589,-200 L-606,-190 L-624,-200 L-624,-220 L-606,-230 Z" />
<path fill="#D8D388" d="M-572,-250 L-572,-230 L-589,-220 L-606,-230 L-606,-250 L-589,-260 Z" />
<path fill="#4ee055" d="M-554,-280 L-554,-260 L-572,-250 L-589,-260 L-589,-280 L-572,-290 Z" />
<path fill="#D8D388" d="M-537,-310 L-537,-290 L-554,-280 L-572,-290 L-572,-310 L-554,-320 Z" />
<path fill="#D8D388" d="M-520,-340 L-520,-320 L-537,-310 L-554,-320 L-554,-340 L-537,-350 Z" />
<path fill="#4ee055" d="M-502,-370 L-502,-350 L-520,-340 L-537,-350 L-537,-370 L-520,-380 Z" />
<path fill="#D8D388" d="M-485,-400 L-485,-380 L-502,-370 L-520,-380 L-520,-400 L-502,-410 Z" />
<path fill="#D8D388" d="M-468,-430 L-468,-410 L-485,-400 L-502,-410 L-502,-430 L-485,-440 Z" />
<path fill="#4ee055" d="M-450,-460 L-450,-440 L-468,-430 L-485,-440 L-485,-460 L-468,-470 Z" />
<path fill="#D8D388" d="M-433,-490 L-433,-470 L-450,-460 L-468,-470 L-468,-490 L-450,-500 Z" />
<path fill="#D8D388" d="M-416,-520 L-416,-500 L-433,-490 L-450,-500 L-450,-520 L-433,-530 Z" />
<path fill="#4ee055" d="M-398,-550 L-398,-530 L-416,-520 L-433,-530 L-433,-550 L-416,-560 Z" />
<path fill="#D8D388" d="M-381,-580 L-381,-560 L-398,-550 L-416,-560 L-416,-580 L-398,-590 Z" />
<path fill="#D8D388" d="M-364,-610 L-364,-590 L-381,-580 L-398,-590 L-398,-610 L-381,-620 Z" />
<path fill="#4ee055" d="M-346,-640 L-346,-620 L-364,-610 L-381,-620 L-381,-640 L-364,-650 Z" />
<path fill="#D8D388" d="M-364,-670 L-364,-650 L-381,-640 L-398,-650 L-398,-670 L-381,-680 Z" />
<path fill="#D8D388" d="M-329,-670 L-329,-650 L-346,-640 L-364,-650 L-364,-670 L-346,-680 Z" />
<path fill="#4ee055" d="M-294,-670 L-294,-650 L-312,-640 L-329,-650 L-329,-670 L-312,-680 Z" />
<path fill="#D8D388" d="M-260,-670 L-260,-650 L-277,-640 L-294,-650 L-294,-670 L-277,-680 Z" />
<path fill="#D8D388" d="M-156,-670 L-156,-650 L-173,-640 L-191,-650 L-191,-670 L-173,-680 Z" />
<path fill="#D8D388" d="M-121,-670 L-121,-650 L-139,-640 L-156,-650 L-156,-670 L-139,-680 Z" />
<path fill="#4ee055" d="M-87,-670 L-87,-650 L-104,-640 L-121,-650 L-121,-670 L-104,-680 Z" />
<path fill="#D8D388" d="M-17,-670 L-17,-650 L-35,-640 L-52,-650 L-52,-670 L-35,-680 Z" />
<path fill="#4ee055" d="M17,-670 L17,-650 L0,-640 L-17,-650 L-17,-670 L0,-680 Z" />
<path fill="#D8D388" d="M52,-670 L52,-650 L35,-640 L17,-650 L17,-670 L35,-680 Z" />
<path fill="#D8D388" d="M87,-670 L87,-650 L69,-640 L52,-650 L52,-670 L69,-680 Z" />
<path fill="#D8D388" d="M-693,-100 L-693,-80 L-710,-70 L-727,-80 L-727,-100 L-710,-110 Z" />
<path fill="#D8D388" d="M-675,-130 L-675,-110 L-693,-100 L-710,-110 L-710,-130 L-693,-140 Z" />
<path fill="#4ee055" d="M-658,-160 L-658,-140 L-675,-130 L-693,-140 L-693,-160 L-675,-170 Z" />
<path fill="#D8D388" d="M-641,-190 L-641,-170 L-658,-160 L-675,-170 L-675,-190 L-658,-200 Z" />
<path fill="#D8D388" d="M-624,-220 L-624,-200 L-641,-190 L-658,-200 L-658,-220 L-641,-230 Z" />
<path fill="#4ee055" d="M-606,-250 L-606,-230 L-624,-220 L-641,-230 L-641,-250 L-624,-260 Z" />
<path fill="#D8D388" d="M-589,-280 L-589,-260 L-606,-250 L-624,-260 L-624,-280 L-606,-290 Z" />
<path fill="#D8D388" d="M-572,-310 L-572,-290 L-589,-280 L-606,-290 L-606,-310 L-589,-320 Z" />
<path fill="#4ee055" d="M-554,-340 L-554,-320 L-572,-310 L-589,-320 L-589,-340 L-572,-350 Z" />
<path fill="#D8D388" d="M-537,-370 L-537,-350 L-554,-340 L-572,-350 L-572,-370 L-554,-380 Z" />
<path fill="#D8D388" d="M-520,-400 L-520,-380 L-537,-370 L-554,-380 L-554,-400 L-537,-410 Z" />
<path fill="#4ee055" d="M-502,-430 L-502,-410 L-520,-400 L-537,-410 L-537,-430 L-520,-440 Z" />
<path fill="#D8D388" d="M-485,-460 L-485,-440 L-502,-430 L-520,-440 L-520,-460 L-502,-470 Z" />
<path fill="#D8D388" d="M-468,-490 L-468,-470 L-485,-460 L-502,-470 L-502,-490 L-485,-500 Z" />
<path fill="#4ee055" d="M-450,-520 L-450,-500 L-468,-490 L-485,-500 L-485,-520 L-468,-530 Z" />
<path fill="#D8D388" d="M-433,-550 L-433,-530 L-450,-520 L-468,-530 L-468,-550 L-450,-560 Z" />
<path fill="#D8D388" d="M-416,-580 L-416,-560 L-433,-550 L-450,-560 L-450,-580 L-433,-590 Z" />
<path fill="#4ee055" d="M-398,-610 L-398,-590 L-416,-580 L-433,-590 L-433,-610 L-416,-620 Z" />
<path fill="#D8D388" d="M-381,-640 L-381,-620 L-398,-610 L-416,-620 L-416,-640 L-398,-650 Z" />
<path fill="#D8D388" d="M-364,-670 L-364,-650 L-381,-640 L-398,-650 L-398,-670 L-381,-680 Z" />
<path fill="#D8D388" d="M-381,-700 L-381,-680 L-398,-670 L-416,-680 L-416,-700 L-398,-710 Z" />
<path fill="#4ee055" d="M-346,-700 L-346,-680 L-364,-670 L-381,-680 L-381,-700 L-364,-710 Z" />
<path fill="#D8D388" d="M-312,-700 L-312,-680 L-329,-670 L-346,-680 L-346,-700 L-329,-710 Z" />
<path fill="#D8D388" d="M-277,-700 L-277,-680 L-294,-670 L-312,-680 L-312,-700 L-294,-710 Z" />
<path fill="#D8D388" d="M-727,-100 L-727,-80 L-745,-70 L-762,-80 L-762,-100 L-745,-110 Z" />
<path fill="#4ee055" d="M-710,-130 L-710,-110 L-727,-100 L-745,-110 L-745,-130 L-727,-140 Z" />
<path fill="#D8D388" d="M-693,-160 L-693,-140 L-710,-130 L-727,-140 L-727,-160 L-710,-170 Z" />
<path fill="#D8D388" d="M-675,-190 L-675,-170 L-693,-160 L-710,-170 L-710,-190 L-693,-200 Z" />
<path fill="#4ee055" d="M-658,-220 L-658,-200 L-675,-190 L-693,-200 L-693,-220 L-675,-230 Z" />
<path fill="#D8D388" d="M-641,-250 L-641,-230 L-658,-220 L-675,-230 L-675,-250 L-658,-260 Z" />
<path fill="#D8D388" d="M-624,-280 L-624,-260 L-641,-250 L-658,-260 L-658,-280 L-641,-290 Z" />
<path fill="#4ee055" d="M-606,-310 L-606,-290 L-624,-280 L-641,-290 L-641,-310 L-624,-320 Z" />
<path fill="#D8D388" d="M-589,-340 L-589,-320 L-606,-310 L-624,-320 L-624,-340 L-606,-350 Z" />
<path fill="#D8D388" d="M-572,-370 L-572,-350 L-589,-340 L-606,-350 L-606,-370 L-589,-380 Z" />
<path fill="#4ee055" d="M-554,-400 L-554,-380 L-572,-370 L-589,-380 L-589,-400 L-572,-410 Z" />
<path fill="#D8D388" d="M-537,-430 L-537,-410 L-554,-400 L-572,-410 L-572,-430 L-554,-440 Z" />
<path fill="#D8D388" d="M-520,-460 L-520,-440 L-537,-430 L-554,-440 L-554,-460 L-537,-470 Z" />
<path fill="#4ee055" d="M-502,-490 L-502,-470 L-520,-460 L-537,-470 L-537,-490 L-520,-500 Z" />
<path fill="#D8D388" d="M-485,-520 L-485,-500 L-502,-490 L-520,-500 L-520,-520 L-502,-530 Z" />
<path fill="#D8D388" d="M-468,-550 L-468,-530 L-485,-520 L-502,-530 L-502,-550 L-485,-560 Z" />
<path fill="#4ee055" d="M-450,-580 L-450,-560 L-468,-550 L-485,-560 L-485,-580 L-468,-590 Z" />
<path fill="#D8D388" d="M-433,-610 L-433,-590 L-450,-580 L-468,-590 L-468,-610 L-450,-620 Z" />
<path fill="#D8D388" d="M-416,-640 L-416,-620 L-433,-610 L-450,-620 L-450,-640 L-433,-650 Z" />
<path fill="#4ee055" d="M-398,-670 L-398,-650 L-416,-640 L-433,-650 L-433,-670 L-416,-680 Z" />
<path fill="#D8D388" d="M-381,-700 L-381,-680 L-398,-670 L-416,-680 L-416,-700 L-398,-710 Z" />
<path fill="#4ee055" d="M-398,-730 L-398,-710 L-416,-700 L-433,-710 L-433,-730 L-416,-740 Z" />
<path fill="#D8D388" d="M-364,-730 L-364,-710 L-381,-700 L-398,-710 L-398,-730 L-381,-740 Z" />
<path fill="#D8D388" d="M-329,-730 L-329,-710 L-346,-700 L-364,-710 L-364,-730 L-346,-740 Z" />
<path fill="#D8D388" d="M-745,-130 L-745,-110 L-762,-100 L-779,-110 L-779,-130 L-762,-140 Z" />
<path fill="#D8D388" d="M-727,-160 L-727,-140 L-745,-130 L-762,-140 L-762,-160 L-745,-170 Z" />
<path fill="#4ee055" d="M-710,-190 L-710,-170 L-727,-160 L-745,-170 L-745,-190 L-727,-200 Z" />
<path fill="#D8D388" d="M-693,-220 L-693,-200 L-710,-190 L-727,-200 L-727,-220 L-710,-230 Z" />
<path fill="#4ee055" d="M-658,-280 L-658,-260 L-675,-250 L-693,-260 L-693,-280 L-675,-290 Z" />
<path fill="#D8D388" d="M-641,-310 L-641,-290 L-658,-280 L-675,-290 L-675,-310 L-658,-320 Z" />
<path fill="#D8D388" d="M-624,-340 L-624,-320 L-641,-310 L-658,-320 L-658,-340 L-641,-350 Z" />
<path fill="#4ee055" d="M-606,-370 L-606,-350 L-624,-340 L-641,-350 L-641,-370 L-624,-380 Z" />
<path fill="#D8D388" d="M-589,-400 L-589,-380 L-606,-370 L-624,-380 L-624,-400 L-606,-410 Z" />
<path fill="#D8D388" d="M-572,-430 L-572,-410 L-589,-400 L-606,-410 L-606,-430 L-589,-440 Z" />
<path fill="#4ee055" d="M-554,-460 L-554,-440 L-572,-430 L-589,-440 L-589,-460 L-572,-470 Z" />
<path fill="#D8D388" d="M-537,-490 L-537,-470 L-554,-460 L-572,-470 L-572,-490 L-554,-500 Z" />
<path fill="#D8D388" d="M-520,-520 L-520,-500 L-537,-490 L-554,-500 L-554,-520 L-537,-530 Z" />
<path fill="#4ee055" d="M-502,-550 L-502,-530 L-520,-520 L-537,-530 L-537,-550 L-520,-560 Z" />
<path fill="#D8D388" d="M-485,-580 L-485,-560 L-502,-550 L-520,-560 L-520,-580 L-502,-590 Z" />
<path fill="#D8D388" d="M-468,-610 L-468,-590 L-485,-580 L-502,-590 L-502,-610 L-485,-620 Z" />
<path fill="#4ee055" d="M-450,-640 L-450,-620 L-468,-610 L-485,-620 L-485,-640 L-468,-650 Z" />
<path fill="#D8D388" d="M-433,-670 L-433,-650 L-450,-640 L-468,-650 L-468,-670 L-450,-680 Z" />
<path fill="#D8D388" d="M-416,-700 L-416,-680 L-433,-670 L-450,-680 L-450,-700 L-433,-710 Z" />
<path fill="#4ee055" d="M-398,-730 L-398,-710 L-416,-700 L-433,-710 L-433,-730 L-416,-740 Z" />
<path fill="#4ee055" d="M-762,-160 L-762,-140 L-779,-130 L-797,-140 L-797,-160 L-779,-170 Z" />
<path fill="#D8D388" d="M-745,-190 L-745,-170 L-762,-160 L-779,-170 L-779,-190 L-762,-200 Z" />
<path fill="#D8D388" d="M-727,-220 L-727,-200 L-745,-190 L-762,-200 L-762,-220 L-745,-230 Z" />
<path fill="#D8D388" d="M-675,-310 L-675,-290 L-693,-280 L-710,-290 L-710,-310 L-693,-320 Z" />
<path fill="#4ee055" d="M-658,-340 L-658,-320 L-675,-310 L-693,-320 L-693,-340 L-675,-350 Z" />
<path fill="#D8D388" d="M-641,-370 L-641,-350 L-658,-340 L-675,-350 L-675,-370 L-658,-380 Z" />
<path fill="#D8D388" d="M-624,-400 L-624,-380 L-641,-370 L-658,-380 L-658,-400 L-641,-410 Z" />
<path fill="#4ee055" d="M-606,-430 L-606,-410 L-624,-400 L-641,-410 L-641,-430 L-624,-440 Z" />
<path fill="#D8D388" d="M-589,-460 L-589,-440 L-606,-430 L-624,-440 L-624,-460 L-606,-470 Z" />
<path fill="#D8D388" d="M-572,-490 L-572,-470 L-589,-460 L-606,-470 L-606,-490 L-589,-500 Z" />
<path fill="#4ee055" d="M-554,-520 L-554,-500 L-572,-490 L-589,-500 L-589,-520 L-572,-530 Z" />
<path fill="#D8D388" d="M-537,-550 L-537,-530 L-554,-520 L-572,-530 L-572,-550 L-554,-560 Z" />
<path fill="#D8D388" d="M-520,-580 L-520,-560 L-537,-550 L-554,-560 L-554,-580 L-537,-590 Z" />
<path fill="#4ee055" d="M-502,-610 L-502,-590 L-520,-580 L-537,-590 L-537,-610 L-520,-620 Z" />
<path fill="#D8D388" d="M-485,-640 L-485,-620 L-502,-610 L-520,-620 L-520,-640 L-502,-650 Z" />
<path fill="#D8D388" d="M-468,-670 L-468,-650 L-485,-640 L-502,-650 L-502,-670 L-485,-680 Z" />
<path fill="#4ee055" d="M-450,-700 L-450,-680 L-468,-670 L-485,-680 L-485,-700 L-468,-710 Z" />
<path fill="#D8D388" d="M-433,-730 L-433,-710 L-450,-700 L-468,-710 L-468,-730 L-450,-740 Z" />
<path fill="#4ee055" d="M-710,-310 L-710,-290 L-727,-280 L-745,-290 L-745,-310 L-727,-320 Z" />
<path fill="#D8D388" d="M-693,-340 L-693,-320 L-710,-310 L-727,-320 L-727,-340 L-710,-350 Z" />
<path fill="#D8D388" d="M-675,-370 L-675,-350 L-693,-340 L-710,-350 L-710,-370 L-693,-380 Z" />
<path fill="#4ee055" d="M-658,-400 L-658,-380 L-675,-370 L-693,-380 L-693,-400 L-675,-410 Z" />
<path fill="#D8D388" d="M-641,-430 L-641,-410 L-658,-400 L-675,-410 L-675,-430 L-658,-440 Z" />
<path fill="#D8D388" d="M-624,-460 L-624,-440 L-641,-430 L-658,-440 L-658,-460 L-641,-470 Z" />
<path fill="#4ee055" d="M-606,-490 L-606,-470 L-624,-460 L-641,-470 L-641,-490 L-624,-500 Z" />
<path fill="#D8D388" d="M-589,-520 L-589,-500 L-606,-490 L-624,-500 L-624,-520 L-606,-530 Z" />
<path fill="#D8D388" d="M-572,-550 L-572,-530 L-589,-520 L-606,-530 L-606,-550 L-589,-560 Z" />
<path fill="#4ee055" d="M-554,-580 L-554,-560 L-572,-550 L-589,-560 L-589,-580 L-572,-590 Z" />
<path fill="#D8D388" d="M-537,-610 L-537,-590 L-554,-580 L-572,-590 L-572,-610 L-554,-620 Z" />
<path fill="#D8D388" d="M-520,-640 L-520,-620 L-537,-610 L-554,-620 L-554,-640 L-537,-650 Z" />
<path fill="#4ee055" d="M-502,-670 L-502,-650 L-520,-640 L-537,-650 L-537,-670 L-520,-680 Z" />
<path fill="#D8D388" d="M-485,-700 L-485,-680 L-502,-670 L-520,-680 L-520,-700 L-502,-710 Z" />
<path fill="#D8D388" d="M-468,-730 L-468,-710 L-485,-700 L-502,-710 L-502,-730 L-485,-740 Z" />
<path fill="#D8D388" d="M-745,-310 L-745,-290 L-762,-280 L-779,-290 L-779,-310 L-762,-320 Z" />
<path fill="#D8D388" d="M-727,-340 L-727,-320 L-745,-310 L-762,-320 L-762,-340 L-745,-350 Z" />
<path fill="#4ee055" d="M-710,-370 L-710,-350 L-727,-340 L-745,-350 L-745,-370 L-727,-380 Z" />
<path fill="#D8D388" d="M-693,-400 L-693,-380 L-710,-370 L-727,-380 L-727,-400 L-710,-410 Z" />
<path fill="#D8D388" d="M-675,-430 L-675,-410 L-693,-400 L-710,-410 L-710,-430 L-693,-440 Z" />
<path fill="#4ee055" d="M-658,-460 L-658,-440 L-675,-430 L-693,-440 L-693,-460 L-675,-470 Z" />
<path fill="#4ee055" d="M-606,-550 L-606,-530 L-624,-520 L-641,-530 L-641,-550 L-624,-560 Z" />
<path fill="#D8D388" d="M-589,-580 L-589,-560 L-606,-550 L-624,-560 L-624,-580 L-606,-590 Z" />
<path fill="#D8D388" d="M-572,-610 L-572,-590 L-589,-580 L-606,-590 L-606,-610 L-589,-620 Z" />
<path fill="#4ee055" d="M-554,-640 L-554,-620 L-572,-610 L-589,-620 L-589,-640 L-572,-650 Z" />
<path fill="#D8D388" d="M-537,-670 L-537,-650 L-554,-640 L-572,-650 L-572,-670 L-554,-680 Z" />
<path fill="#D8D388" d="M-520,-700 L-520,-680 L-537,-670 L-554,-680 L-554,-700 L-537,-710 Z" />
<path fill="#4ee055" d="M-762,-340 L-762,-320 L-779,-310 L-797,-320 L-797,-340 L-779,-350 Z" />
<path fill="#D8D388" d="M-745,-370 L-745,-350 L-762,-340 L-779,-350 L-779,-370 L-762,-380 Z" />
<path fill="#D8D388" d="M-727,-400 L-727,-380 L-745,-370 L-762,-380 L-762,-400 L-745,-410 Z" />
<path fill="#4ee055" d="M-710,-430 L-710,-410 L-727,-400 L-745,-410 L-745,-430 L-727,-440 Z" />
<path fill="#D8D388" d="M-641,-550 L-641,-530 L-658,-520 L-675,-530 L-675,-550 L-658,-560 Z" />
<path fill="#D8D388" d="M-624,-580 L-624,-560 L-641,-550 L-658,-560 L-658,-580 L-641,-590 Z" />
<path fill="#4ee055" d="M-606,-610 L-606,-590 L-624,-580 L-641,-590 L-641,-610 L-624,-620 Z" />
<path fill="#D8D388" d="M-589,-640 L-589,-620 L-606,-610 L-624,-620 L-624,-640 L-606,-650 Z" />
<path fill="#D8D388" d="M-572,-670 L-572,-650 L-589,-640 L-606,-650 L-606,-670 L-589,-680 Z" />
<path fill="#4ee055" d="M-554,-700 L-554,-680 L-572,-670 L-589,-680 L-589,-700 L-572,-710 Z" />
<path fill="#D8D388" d="M-779,-370 L-779,-350 L-797,-340 L-814,-350 L-814,-370 L-797,-380 Z" />
<path fill="#4ee055" d="M-762,-400 L-762,-380 L-779,-370 L-797,-380 L-797,-400 L-779,-410 Z" />
<path fill="#D8D388" d="M-745,-430 L-745,-410 L-762,-400 L-779,-410 L-779,-430 L-762,-440 Z" />
<path fill="#D8D388" d="M-693,-520 L-693,-500 L-710,-490 L-727,-500 L-727,-520 L-710,-530 Z" />
<path fill="#D8D388" d="M-675,-550 L-675,-530 L-693,-520 L-710,-530 L-710,-550 L-693,-560 Z" />
<path fill="#4ee055" d="M-658,-580 L-658,-560 L-675,-550 L-693,-560 L-693,-580 L-675,-590 Z" />
<path fill="#D8D388" d="M-641,-610 L-641,-590 L-658,-580 L-675,-590 L-675,-610 L-658,-620 Z" />
<path fill="#D8D388" d="M-624,-640 L-624,-620 L-641,-610 L-658,-620 L-658,-640 L-641,-650 Z" />
<path fill="#4ee055" d="M-606,-670 L-606,-650 L-624,-640 L-641,-650 L-641,-670 L-624,-680 Z" />
<path fill="#D8D388" d="M-727,-520 L-727,-500 L-745,-490 L-762,-500 L-762,-520 L-745,-530 Z" />
<path fill="#4ee055" d="M-710,-550 L-710,-530 L-727,-520 L-745,-530 L-745,-550 L-727,-560 Z" />
<path fill="#D8D388" d="M-693,-580 L-693,-560 L-710,-550 L-727,-560 L-727,-580 L-710,-590 Z" />
<path fill="#D8D388" d="M-675,-610 L-675,-590 L-693,-580 L-710,-590 L-710,-610 L-693,-620 Z" />
<path fill="#4ee055" d="M-658,-640 L-658,-620 L-675,-610 L-693,-620 L-693,-640 L-675,-650 Z" />
<path fill="#D8D388" d="M-641,-670 L-641,-650 L-658,-640 L-675,-650 L-675,-670 L-658,-680 Z" />
<path fill="#D8D388" d="M-624,-700 L-624,-680 L-641,-670 L-658,-680 L-658,-700 L-641,-710 Z" />
<path fill="#D8D388" d="M-779,-490 L-779,-470 L-797,-460 L-814,-470 L-814,-490 L-797,-500 Z" />
<path fill="#4ee055" d="M-762,-520 L-762,-500 L-779,-490 L-797,-500 L-797,-520 L-779,-530 Z" />
<path fill="#D8D388" d="M-745,-550 L-745,-530 L-762,-520 L-779,-530 L-779,-550 L-762,-560 Z" />
<path fill="#D8D388" d="M-727,-580 L-727,-560 L-745,-550 L-762,-560 L-762,-580 L-745,-590 Z" />
<path fill="#4ee055" d="M-710,-610 L-710,-590 L-727,-580 L-745,-590 L-745,-610 L-727,-620 Z" />
<path fill="#D8D388" d="M-693,-640 L-693,-620 L-710,-610 L-727,-620 L-727,-640 L-710,-650 Z" />
<path fill="#D8D388" d="M-675,-670 L-675,-650 L-693,-640 L-710,-650 L-710,-670 L-693,-680 Z" />
<path fill="#4ee055" d="M-658,-700 L-658,-680 L-675,-670 L-693,-680 L-693,-700 L-675,-710 Z" />
<path fill="#4ee055" d="M-814,-490 L-814,-470 L-831,-460 L-849,-470 L-849,-490 L-831,-500 Z" />
<path fill="#D8D388" d="M-797,-520 L-797,-500 L-814,-490 L-831,-500 L-831,-520 L-814,-530 Z" />
<path fill="#D8D388" d="M-779,-550 L-779,-530 L-797,-520 L-814,-530 L-814,-550 L-797,-560 Z" />
<path fill="#4ee055" d="M-762,-580 L-762,-560 L-779,-550 L-797,-560 L-797,-580 L-779,-590 Z" />
<path fill="#D8D388" d="M-745,-610 L-745,-590 L-762,-580 L-779,-590 L-779,-610 L-762,-620 Z" />
<path fill="#D8D388" d="M-727,-640 L-727,-620 L-745,-610 L-762,-620 L-762,-640 L-745,-650 Z" />
<path fill="#4ee055" d="M-710,-670 L-710,-650 L-727,-640 L-745,-650 L-745,-670 L-727,-680 Z" />
<path fill="#D8D388" d="M-693,-700 L-693,-680 L-710,-670 L-727,-680 L-727,-700 L-710,-710 Z" />
<path fill="#D8D388" d="M-675,-730 L-675,-710 L-693,-700 L-710,-710 L-710,-730 L-693,-740 Z" />
<path fill="#4ee055" d="M-658,-760 L-658,-740 L-675,-730 L-693,-740 L-693,-760 L-675,-770 Z" />
<path fill="#D8D388" d="M-831,-520 L-831,-500 L-849,-490 L-866,-500 L-866,-520 L-849,-530 Z" />
<path fill="#4ee055" d="M-814,-550 L-814,-530 L-831,-520 L-849,-530 L-849,-550 L-831,-560 Z" />
<path fill="#D8D388" d="M-797,-580 L-797,-560 L-814,-550 L-831,-560 L-831,-580 L-814,-590 Z" />
<path fill="#D8D388" d="M-779,-610 L-779,-590 L-797,-580 L-814,-590 L-814,-610 L-797,-620 Z" />
<path fill="#4ee055" d="M-762,-640 L-762,-620 L-779,-610 L-797,-620 L-797,-640 L-779,-650 Z" />
<path fill="#D8D388" d="M-745,-670 L-745,-650 L-762,-640 L-779,-650 L-779,-670 L-762,-680 Z" />
<path fill="#D8D388" d="M-727,-700 L-727,-680 L-745,-670 L-762,-680 L-762,-700 L-745,-710 Z" />
<path fill="#4ee055" d="M-710,-730 L-710,-710 L-727,-700 L-745,-710 L-745,-730 L-727,-740 Z" />
<path fill="#D8D388" d="M-693,-760 L-693,-740 L-710,-730 L-727,-740 L-727,-760 L-710,-770 Z" />
<path fill="#D8D388" d="M-675,-790 L-675,-770 L-693,-760 L-710,-770 L-710,-790 L-693,-800 Z" />
<path fill="#4ee055" d="M-814,-610 L-814,-590 L-831,-580 L-849,-590 L-849,-610 L-831,-620 Z" />
<path fill="#D8D388" d="M-797,-640 L-797,-620 L-814,-610 L-831,-620 L-831,-640 L-814,-650 Z" />
<path fill="#D8D388" d="M-779,-670 L-779,-650 L-797,-640 L-814,-650 L-814,-670 L-797,-680 Z" />
</g>
</svg>