<?xml version="1.0" encoding="utf-8"?>
<svg viewBox="-361.9986187818953 -250.0 1105.0484152289437 1100.0" preserveAspectRatio="xMidYMid meet" version="1.1" baseProfile="full" xmlns="http://www.w3.org/2000/svg" style="background-color: black;">
<g style="stroke:#ffffff; stroke-width: 1; stroke-linejoin: round;">
<path fill="#D8D388" d="M52,-10 L52,10 L35,20 L17,10 L17,-10 L35,-20 Z" />
<path fill="#D8D388" d="M35,20 L35,40 L17,50 L0,40 L0,20 L17,10 Z" />
<path fill="#4ee055" d="M69,-40 L69,-20 L52,-10 L35,-20 L35,-40 L52,-50 Z" />
<path fill="#D8D388" d="M87,-10 L87,10 L69,20 L52,10 L52,-10 L69,-20 Z" />
<path fill="#4ee055" d="M69,20 L69,40 L52,50 L35,40 L35,20 L52,10 Z" />
<path fill="#D8D388" d="M52,50 L52,70 L35,80 L17,70 L17,50 L35,40 Z" />
<path fill="#D8D388" d="M87,-70 L87,-50 L69,-40 L52,-50 L52,-70 L69,-80 Z" />
<path fill="#D8D388" d="M104,-40 L104,-20 L87,-10 L69,-20 L69,-40 L87,-50 Z" />
<path fill="#4ee055" d="M121,-10 L121,10 L104,20 L87,10 L87,-10 L104,-20 Z" />
<path fill="#D8D388" d="M104,20 L104,40 L87,50 L69,40 L69,20 L87,10 Z" />
<path fill="#D8D388" d="M87,50 L87,70 L69,80 L52,70 L52,50 L69,40 Z" />
<path fill="#4ee055" d="M69,80 L69,100 L52,110 L35,100 L35,80 L52,70 Z" />
<path fill="#D8D388" d="M35,80 L35,100 L17,110 L0,100 L0,80 L17,70 Z" />
<path fill="#D8D388" d="M104,-100 L104,-80 L87,-70 L69,-80 L69,-100 L87,-110 Z" />
<path fill="#4ee055" d="M121,-70 L121,-50 L104,-40 L87,-50 L87,-70 L104,-80 Z" />
<path fill="#D8D388" d="M139,-40 L139,-20 L121,-10 L104,-20 L104,-40 L121,-50 Z" />
<path fill="#D8D388" d="M156,-10 L156,10 L139,20 L121,10 L121,-10 L139,-20 Z" />
<path fill="#D8D388" d="M139,20 L139,40 L121,50 L104,40 L104,20 L121,10 Z" />
<path fill="#4ee055" d="M121,50 L121,70 L104,80 L87,70 L87,50 L104,40 Z" />
<path fill="#D8D388" d="M104,80 L104,100 L87,110 L69,100 L69,80 L87,70 Z" />
<path fill="#D8D388" d="M87,110 L87,130 L69,140 L52,130 L52,110 L69,100 Z" />
<path fill="#D8D388" d="M52,110 L52,130 L35,140 L17,130 L17,110 L35,100 Z" />
<path fill="#4ee055" d="M121,-130 L121,-110 L104,-100 L87,-110 L87,-130 L104,-140 Z" />
<path fill="#D8D388" d="M139,-100 L139,-80 L121,-70 L104,-80 L104,-100 L121,-110 Z" />
<path fill="#D8D388" d="M156,-70 L156,-50 L139,-40 L121,-50 L121,-70 L139,-80 Z" />
<path fill="#4ee055" d="M173,-40 L173,-20 L156,-10 L139,-20 L139,-40 L156,-50 Z" />
<path fill="#D8D388" d="M191,-10 L191,10 L173,20 L156,10 L156,-10 L173,-20 Z" />
<path fill="#4ee055" d="M173,20 L173,40 L156,50 L139,40 L139,20 L156,10 Z" />
<path fill="#D8D388" d="M156,50 L156,70 L139,80 L121,70 L121,50 L139,40 Z" />
<path fill="#D8D388" d="M139,80 L139,100 L121,110 L104,100 L104,80 L121,70 Z" />
<path fill="#4ee055" d="M121,110 L121,130 L104,140 L87,130 L87,110 L104,100 Z" />
<path fill="#D8D388" d="M104,140 L104,160 L87,170 L69,160 L69,140 L87,130 Z" />
<path fill="#4ee055" d="M69,140 L69,160 L52,170 L35,160 L35,140 L52,130 Z" />
<path fill="#D8D388" d="M35,140 L35,160 L17,170 L0,160 L0,140 L17,130 Z" />
<path fill="#D8D388" d="M139,-160 L139,-140 L121,-130 L104,-140 L104,-160 L121,-170 Z" />
<path fill="#D8D388" d="M156,-130 L156,-110 L139,-100 L121,-110 L121,-130 L139,-140 Z" />
<path fill="#4ee055" d="M173,-100 L173,-80 L156,-70 L139,-80 L139,-100 L156,-110 Z" />
<path fill="#D8D388" d="M191,-70 L191,-50 L173,-40 L156,-50 L156,-70 L173,-80 Z" />
<path fill="#D8D388" d="M208,-40 L208,-20 L191,-10 L173,-20 L173,-40 L191,-50 Z" />
<path fill="#4ee055" d="M225,-10 L225,10 L208,20 L191,10 L191,-10 L208,-20 Z" />
<path fill="#D8D388" d="M208,20 L208,40 L191,50 L173,40 L173,20 L191,10 Z" />
<path fill="#D8D388" d="M191,50 L191,70 L173,80 L156,70 L156,50 L173,40 Z" />
<path fill="#4ee055" d="M173,80 L173,100 L156,110 L139,100 L139,80 L156,70 Z" />
<path fill="#D8D388" d="M156,110 L156,130 L139,140 L121,130 L121,110 L139,100 Z" />
<path fill="#D8D388" d="M139,140 L139,160 L121,170 L104,160 L104,140 L121,130 Z" />
<path fill="#4ee055" d="M121,170 L121,190 L104,200 L87,190 L87,170 L104,160 Z" />
<path fill="#D8D388" d="M87,170 L87,190 L69,200 L52,190 L52,170 L69,160 Z" />
<path fill="#D8D388" d="M52,170 L52,190 L35,200 L17,190 L17,170 L35,160 Z" />
<path fill="#4ee055" d="M173,-160 L173,-140 L156,-130 L139,-140 L139,-160 L156,-170 Z" />
<path fill="#D8D388" d="M191,-130 L191,-110 L173,-100 L156,-110 L156,-130 L173,-140 Z" />
<path fill="#D8D388" d="M208,-100 L208,-80 L191,-70 L173,-80 L173,-100 L191,-110 Z" />
<path fill="#4ee055" d="M225,-70 L225,-50 L208,-40 L191,-50 L191,-70 L208,-80 Z" />
<path fill="#D8D388" d="M242,-40 L242,-20 L225,-10 L208,-20 L208,-40 L225,-50 Z" />
<path fill="#D8D388" d="M260,-10 L260,10 L242,20 L225,10 L225,-10 L242,-20 Z" />
<path fill="#D8D388" d="M242,20 L242,40 L225,50 L208,40 L208,20 L225,10 Z" />
<path fill="#4ee055" d="M225,50 L225,70 L208,80 L191,70 L191,50 L208,40 Z" />
<path fill="#D8D388" d="M208,80 L208,100 L191,110 L173,100 L173,80 L191,70 Z" />
<path fill="#D8D388" d="M191,110 L191,130 L173,140 L156,130 L156,110 L173,100 Z" />
<path fill="#4ee055" d="M173,140 L173,160 L156,170 L139,160 L139,140 L156,130 Z" />
<path fill="#D8D388" d="M156,170 L156,190 L139,200 L121,190 L121,170 L139,160 Z" />
<path fill="#D8D388" d="M139,200 L139,220 L121,230 L104,220 L104,200 L121,190 Z" />
<path fill="#D8D388" d="M104,200 L104,220 L87,230 L69,220 L69,200 L87,190 Z" />
<path fill="#D8D388" d="M191,-190 L191,-170 L173,-160 L156,-170 L156,-190 L173,-200 Z" />
<path fill="#D8D388" d="M208,-160 L208,-140 L191,-130 L173,-140 L173,-160 L191,-170 Z" />
<path fill="#4ee055" d="M225,-130 L225,-110 L208,-100 L191,-110 L191,-130 L208,-140 Z" />
<path fill="#D8D388" d="M242,-100 L242,-80 L225,-70 L208,-80 L208,-100 L225,-110 Z" />
<path fill="#D8D388" d="M260,-70 L260,-50 L242,-40 L225,-50 L225,-70 L242,-80 Z" />
<path fill="#4ee055" d="M277,-40 L277,-20 L260,-10 L242,-20 L242,-40 L260,-50 Z" />
<path fill="#D8D388" d="M294,-10 L294,10 L277,20 L260,10 L260,-10 L277,-20 Z" />
<path fill="#4ee055" d="M277,20 L277,40 L260,50 L242,40 L242,20 L260,10 Z" />
<path fill="#D8D388" d="M260,50 L260,70 L242,80 L225,70 L225,50 L242,40 Z" />
<path fill="#D8D388" d="M242,80 L242,100 L225,110 L208,100 L208,80 L225,70 Z" />
<path fill="#4ee055" d="M225,110 L225,130 L208,140 L191,130 L191,110 L208,100 Z" />
<path fill="#D8D388" d="M208,140 L208,160 L191,170 L173,160 L173,140 L191,130 Z" />
<path fill="#D8D388" d="M191,170 L191,190 L173,200 L156,190 L156,170 L173,160 Z" />
<path fill="#4ee055" d="M173,200 L173,220 L156,230 L139,220 L139,200 L156,190 Z" />
<path fill="#D8D388" d="M156,230 L156,250 L139,260 L121,250 L121,230 L139,220 Z" />
<path fill="#4ee055" d="M121,230 L121,250 L104,260 L87,250 L87,230 L104,220 Z" />
<path fill="#4ee055" d="M225,-190 L225,-170 L208,-160 L191,-170 L191,-190 L208,-200 Z" />
<path fill="#D8D388" d="M242,-160 L242,-140 L225,-130 L208,-140 L208,-160 L225,-170 Z" />
<path fill="#D8D388" d="M260,-130 L260,-110 L242,-100 L225,-110 L225,-130 L242,-140 Z" />
<path fill="#4ee055" d="M277,-100 L277,-80 L260,-70 L242,-80 L242,-100 L260,-110 Z" />
<path fill="#D8D388" d="M294,-70 L294,-50 L277,-40 L260,-50 L260,-70 L277,-80 Z" />
<path fill="#D8D388" d="M312,-40 L312,-20 L294,-10 L277,-20 L277,-40 L294,-50 Z" />
<path fill="#4ee055" d="M329,-10 L329,10 L312,20 L294,10 L294,-10 L312,-20 Z" />
<path fill="#D8D388" d="M312,20 L312,40 L294,50 L277,40 L277,20 L294,10 Z" />
<path fill="#D8D388" d="M294,50 L294,70 L277,80 L260,70 L260,50 L277,40 Z" />
<path fill="#4ee055" d="M277,80 L277,100 L260,110 L242,100 L242,80 L260,70 Z" />
<path fill="#D8D388" d="M260,110 L260,130 L242,140 L225,130 L225,110 L242,100 Z" />
<path fill="#D8D388" d="M242,140 L242,160 L225,170 L208,160 L208,140 L225,130 Z" />
<path fill="#4ee055" d="M225,170 L225,190 L208,200 L191,190 L191,170 L208,160 Z" />
<path fill="#D8D388" d="M208,200 L208,220 L191,230 L173,220 L173,200 L191,190 Z" />
<path fill="#D8D388" d="M191,230 L191,250 L173,260 L156,250 L156,230 L173,220 Z" />
<path fill="#4ee055" d="M173,260 L173,280 L156,290 L139,280 L139,260 L156,250 Z" />
<path fill="#D8D388" d="M260,-190 L260,-170 L242,-160 L225,-170 L225,-190 L242,-200 Z" />
<path fill="#4ee055" d="M277,-160 L277,-140 L260,-130 L242,-140 L242,-160 L260,-170 Z" />
<path fill="#D8D388" d="M294,-130 L294,-110 L277,-100 L260,-110 L260,-130 L277,-140 Z" />
<path fill="#D8D388" d="M312,-100 L312,-80 L294,-70 L277,-80 L277,-100 L294,-110 Z" />
<path fill="#4ee055" d="M329,-70 L329,-50 L312,-40 L294,-50 L294,-70 L312,-80 Z" />
<path fill="#D8D388" d="M346,-40 L346,-20 L329,-10 L312,-20 L312,-40 L329,-50 Z" />
<path fill="#D8D388" d="M364,-10 L364,10 L346,20 L329,10 L329,-10 L346,-20 Z" />
<path fill="#D8D388" d="M346,20 L346,40 L329,50 L312,40 L312,20 L329,10 Z" />
<path fill="#4ee055" d="M329,50 L329,70 L312,80 L294,70 L294,50 L312,40 Z" />
<path fill="#D8D388" d="M312,80 L312,100 L294,110 L277,100 L277,80 L294,70 Z" />
<path fill="#D8D388" d="M294,110 L294,130 L277,140 L260,130 L260,110 L277,100 Z" />
<path fill="#4ee055" d="M277,140 L277,160 L260,170 L242,160 L242,140 L260,130 Z" />
<path fill="#D8D388" d="M260,170 L260,190 L242,200 L225,190 L225,170 L242,160 Z" />
<path fill="#D8D388" d="M242,200 L242,220 L225,230 L208,220 L208,200 L225,190 Z" />
<path fill="#4ee055" d="M225,230 L225,250 L208,260 L191,250 L191,230 L208,220 Z" />
<path fill="#D8D388" d="M208,260 L208,280 L191,290 L173,280 L173,260 L191,250 Z" />
<path fill="#D8D388" d="M191,290 L191,310 L173,320 L156,310 L156,290 L173,280 Z" />
<path fill="#D8D388" d="M294,-190 L294,-170 L277,-160 L260,-170 L260,-190 L277,-200 Z" />
<path fill="#D8D388" d="M312,-160 L312,-140 L294,-130 L277,-140 L277,-160 L294,-170 Z" />
<path fill="#4ee055" d="M329,-130 L329,-110 L312,-100 L294,-110 L294,-130 L312,-140 Z" />
<path fill="#D8D388" d="M346,-100 L346,-80 L329,-70 L312,-80 L312,-100 L329,-110 Z" />
<path fill="#D8D388" d="M364,-70 L364,-50 L346,-40 L329,-50 L329,-70 L346,-80 Z" />
<path fill="#4ee055" d="M381,-40 L381,-20 L364,-10 L346,-20 L346,-40 L364,-50 Z" />
<path fill="#D8D388" d="M398,-10 L398,10 L381,20 L364,10 L364,-10 L381,-20 Z" />
<path fill="#4ee055" d="M381,20 L381,40 L364,50 L346,40 L346,20 L364,10 Z" />
<path fill="#D8D388" d="M364,50 L364,70 L346,80 L329,70 L329,50 L346,40 Z" />
<path fill="#D8D388" d="M346,80 L346,100 L329,110 L312,100 L312,80 L329,70 Z" />
<path fill="#4ee055" d="M329,110 L329,130 L312,140 L294,130 L294,110 L312,100 Z" />
<path fill="#D8D388" d="M312,140 L312,160 L294,170 L277,160 L277,140 L294,130 Z" />
<path fill="#D8D388" d="M294,170 L294,190 L277,200 L260,190 L260,170 L277,160 Z" />
<path fill="#4ee055" d="M277,200 L277,220 L260,230 L242,220 L242,200 L260,190 Z" />
<path fill="#D8D388" d="M260,230 L260,250 L242,260 L225,250 L225,230 L242,220 Z" />
<path fill="#D8D388" d="M242,260 L242,280 L225,290 L208,280 L208,260 L225,250 Z" />
<path fill="#4ee055" d="M225,290 L225,310 L208,320 L191,310 L191,290 L208,280 Z" />
<path fill="#D8D388" d="M208,320 L208,340 L191,350 L173,340 L173,320 L191,310 Z" />
<path fill="#4ee055" d="M173,320 L173,340 L156,350 L139,340 L139,320 L156,310 Z" />
<path fill="#D8D388" d="M139,320 L139,340 L121,350 L104,340 L104,320 L121,310 Z" />
<path fill="#D8D388" d="M346,-160 L346,-140 L329,-130 L312,-140 L312,-160 L329,-170 Z" />
<path fill="#D8D388" d="M364,-130 L364,-110 L346,-100 L329,-110 L329,-130 L346,-140 Z" />
<path fill="#4ee055" d="M381,-100 L381,-80 L364,-70 L346,-80 L346,-100 L364,-110 Z" />
<path fill="#D8D388" d="M398,-70 L398,-50 L381,-40 L364,-50 L364,-70 L381,-80 Z" />
<path fill="#D8D388" d="M416,-40 L416,-20 L398,-10 L381,-20 L381,-40 L398,-50 Z" />
<path fill="#4ee055" d="M433,-10 L433,10 L416,20 L398,10 L398,-10 L416,-20 Z" />
<path fill="#D8D388" d="M416,20 L416,40 L398,50 L381,40 L381,20 L398,10 Z" />
<path fill="#D8D388" d="M398,50 L398,70 L381,80 L364,70 L364,50 L381,40 Z" />
<path fill="#4ee055" d="M381,80 L381,100 L364,110 L346,100 L346,80 L364,70 Z" />
<path fill="#D8D388" d="M364,110 L364,130 L346,140 L329,130 L329,110 L346,100 Z" />
<path fill="#D8D388" d="M346,140 L346,160 L329,170 L312,160 L312,140 L329,130 Z" />
<path fill="#4ee055" d="M329,170 L329,190 L312,200 L294,190 L294,170 L312,160 Z" />
<path fill="#D8D388" d="M312,200 L312,220 L294,230 L277,220 L277,200 L294,190 Z" />
<path fill="#D8D388" d="M294,230 L294,250 L277,260 L260,250 L260,230 L277,220 Z" />
<path fill="#4ee055" d="M277,260 L277,280 L260,290 L242,280 L242,260 L260,250 Z" />
<path fill="#D8D388" d="M260,290 L260,310 L242,320 L225,310 L225,290 L242,280 Z" />
<path fill="#D8D388" d="M242,320 L242,340 L225,350 L208,340 L208,320 L225,310 Z" />
<path fill="#4ee055" d="M225,350 L225,370 L208,380 L191,370 L191,350 L208,340 Z" />
<path fill="#D8D388" d="M191,350 L191,370 L173,380 L156,370 L156,350 L173,340 Z" />
<path fill="#D8D388" d="M156,350 L156,370 L139,380 L121,370 L121,350 L139,340 Z" />
<path fill="#4ee055" d="M121,350 L121,370 L104,380 L87,370 L87,350 L104,340 Z" />
<path fill="#D8D388" d="M398,-130 L398,-110 L381,-100 L364,-110 L364,-130 L381,-140 Z" />
<path fill="#D8D388" d="M416,-100 L416,-80 L398,-70 L381,-80 L381,-100 L398,-110 Z" />
<path fill="#4ee055" d="M433,-70 L433,-50 L416,-40 L398,-50 L398,-70 L416,-80 Z" />
<path fill="#D8D388" d="M450,-40 L450,-20 L433,-10 L416,-20 L416,-40 L433,-50 Z" />
<path fill="#D8D388" d="M450,20 L450,40 L433,50 L416,40 L416,20 L433,10 Z" />
<path fill="#4ee055" d="M433,50 L433,70 L416,80 L398,70 L398,50 L416,40 Z" />
<path fill="#D8D388" d="M416,80 L416,100 L398,110 L381,100 L381,80 L398,70 Z" />
<path fill="#D8D388" d="M398,110 L398,130 L381,140 L364,130 L364,110 L381,100 Z" />
<path fill="#4ee055" d="M381,140 L381,160 L364,170 L346,160 L346,140 L364,130 Z" />
<path fill="#D8D388" d="M364,170 L364,190 L346,200 L329,190 L329,170 L346,160 Z" />
<path fill="#D8D388" d="M346,200 L346,220 L329,230 L312,220 L312,200 L329,190 Z" />
<path fill="#4ee055" d="M329,230 L329,250 L312,260 L294,250 L294,230 L312,220 Z" />
<path fill="#D8D388" d="M312,260 L312,280 L294,290 L277,280 L277,260 L294,250 Z" />
<path fill="#D8D388" d="M294,290 L294,310 L277,320 L260,310 L260,290 L277,280 Z" />
<path fill="#4ee055" d="M277,320 L277,340 L260,350 L242,340 L242,320 L260,310 Z" />
<path fill="#D8D388" d="M260,350 L260,370 L242,380 L225,370 L225,350 L242,340 Z" />
<path fill="#D8D388" d="M242,380 L242,400 L225,410 L208,400 L208,380 L225,370 Z" />
<path fill="#D8D388" d="M208,380 L208,400 L191,410 L173,400 L173,380 L191,370 Z" />
<path fill="#4ee055" d="M173,380 L173,400 L156,410 L139,400 L139,380 L156,370 Z" />
<path fill="#D8D388" d="M139,380 L139,400 L121,410 L104,400 L104,380 L121,370 Z" />
<path fill="#D8D388" d="M104,380 L104,400 L87,410 L69,400 L69,380 L87,370 Z" />
<path fill="#D8D388" d="M450,80 L450,100 L433,110 L416,100 L416,80 L433,70 Z" />
<path fill="#4ee055" d="M433,110 L433,130 L416,140 L398,130 L398,110 L416,100 Z" />
<path fill="#D8D388" d="M416,140 L416,160 L398,170 L381,160 L381,140 L398,130 Z" />
<path fill="#D8D388" d="M398,170 L398,190 L381,200 L364,190 L364,170 L381,160 Z" />
<path fill="#4ee055" d="M381,200 L381,220 L364,230 L346,220 L346,200 L364,190 Z" />
<path fill="#D8D388" d="M364,230 L364,250 L346,260 L329,250 L329,230 L346,220 Z" />
<path fill="#D8D388" d="M346,260 L346,280 L329,290 L312,280 L312,260 L329,250 Z" />
<path fill="#4ee055" d="M329,290 L329,310 L312,320 L294,310 L294,290 L312,280 Z" />
<path fill="#D8D388" d="M312,320 L312,340 L294,350 L277,340 L277,320 L294,310 Z" />
<path fill="#D8D388" d="M294,350 L294,370 L277,380 L260,370 L260,350 L277,340 Z" />
<path fill="#4ee055" d="M277,380 L277,400 L260,410 L242,400 L242,380 L260,370 Z" />
<path fill="#D8D388" d="M260,410 L260,430 L242,440 L225,430 L225,410 L242,400 Z" />
<path fill="#4ee055" d="M225,410 L225,430 L208,440 L191,430 L191,410 L208,400 Z" />
<path fill="#D8D388" d="M191,410 L191,430 L173,440 L156,430 L156,410 L173,400 Z" />
<path fill="#D8D388" d="M156,410 L156,430 L139,440 L121,430 L121,410 L139,400 Z" />
<path fill="#4ee055" d="M121,410 L121,430 L104,440 L87,430 L87,410 L104,400 Z" />
<path fill="#D8D388" d="M87,410 L87,430 L69,440 L52,430 L52,410 L69,400 Z" />
<path fill="#D8D388" d="M52,410 L52,430 L35,440 L17,430 L17,410 L35,400 Z" />
<path fill="#D8D388" d="M450,140 L450,160 L433,170 L416,160 L416,140 L433,130 Z" />
<path fill="#4ee055" d="M433,170 L433,190 L416,200 L398,190 L398,170 L416,160 Z" />
<path fill="#D8D388" d="M416,200 L416,220 L398,230 L381,220 L381,200 L398,190 Z" />
<path fill="#D8D388" d="M398,230 L398,250 L381,260 L364,250 L364,230 L381,220 Z" />
<path fill="#4ee055" d="M381,260 L381,280 L364,290 L346,280 L346,260 L364,250 Z" />
<path fill="#D8D388" d="M364,290 L364,310 L346,320 L329,310 L329,290 L346,280 Z" />
<path fill="#D8D388" d="M346,320 L346,340 L329,350 L312,340 L312,320 L329,310 Z" />
<path fill="#4ee055" d="M329,350 L329,370 L312,380 L294,370 L294,350 L312,340 Z" />
<path fill="#D8D388" d="M312,380 L312,400 L294,410 L277,400 L277,380 L294,370 Z" />
<path fill="#D8D388" d="M294,410 L294,430 L277,440 L260,430 L260,410 L277,400 Z" />
<path fill="#4ee055" d="M277,440 L277,460 L260,470 L242,460 L242,440 L260,430 Z" />
<path fill="#D8D388" d="M242,440 L242,460 L225,470 L208,460 L208,440 L225,430 Z" />
<path fill="#D8D388" d="M208,440 L208,460 L191,470 L173,460 L173,440 L191,430 Z" />
<path fill="#4ee055" d="M173,440 L173,460 L156,470 L139,460 L139,440 L156,430 Z" />
<path fill="#D8D388" d="M139,440 L139,460 L121,470 L104,460 L104,440 L121,430 Z" />
<path fill="#D8D388" d="M104,440 L104,460 L87,470 L69,460 L69,440 L87,430 Z" />
<path fill="#4ee055" d="M69,440 L69,460 L52,470 L35,460 L35,440 L52,430 Z" />
<path fill="#D8D388" d="M35,440 L35,460 L17,470 L0,460 L0,440 L17,430 Z" />
<path fill="#4ee055" d="M485,140 L485,160 L468,170 L450,160 L450,140 L468,130 Z" />
<path fill="#D8D388" d="M468,170 L468,190 L450,200 L433,190 L433,170 L450,160 Z" />
<path fill="#D8D388" d="M450,200 L450,220 L433,230 L416,220 L416,200 L433,190 Z" />
<path fill="#4ee055" d="M433,230 L433,250 L416,260 L398,250 L398,230 L416,220 Z" />
<path fill="#D8D388" d="M416,260 L416,280 L398,290 L381,280 L381,260 L398,250 Z" />
<path fill="#D8D388" d="M398,290 L398,310 L381,320 L364,310 L364,290 L381,280 Z" />
<path fill="#4ee055" d="M381,320 L381,340 L364,350 L346,340 L346,320 L364,310 Z" />
<path fill="#D8D388" d="M364,350 L364,370 L346,380 L329,370 L329,350 L346,340 Z" />
<path fill="#D8D388" d="M346,380 L346,400 L329,410 L312,400 L312,380 L329,370 Z" />
<path fill="#4ee055" d="M329,410 L329,430 L312,440 L294,430 L294,410 L312,400 Z" />
<path fill="#D8D388" d="M312,440 L312,460 L294,470 L277,460 L277,440 L294,430 Z" />
<path fill="#D8D388" d="M294,470 L294,490 L277,500 L260,490 L260,470 L277,460 Z" />
<path fill="#D8D388" d="M260,470 L260,490 L242,500 L225,490 L225,470 L242,460 Z" />
<path fill="#4ee055" d="M225,470 L225,490 L208,500 L191,490 L191,470 L208,460 Z" />
<path fill="#D8D388" d="M191,470 L191,490 L173,500 L156,490 L156,470 L173,460 Z" />
<path fill="#D8D388" d="M156,470 L156,490 L139,500 L121,490 L121,470 L139,460 Z" />
<path fill="#4ee055" d="M121,470 L121,490 L104,500 L87,490 L87,470 L104,460 Z" />
<path fill="#D8D388" d="M87,470 L87,490 L69,500 L52,490 L52,470 L69,460 Z" />
<path fill="#D8D388" d="M52,470 L52,490 L35,500 L17,490 L17,470 L35,460 Z" />
<path fill="#4ee055" d="M17,470 L17,490 L0,500 L-17,490 L-17,470 L0,460 Z" />
<path fill="#D8D388" d="M-17,470 L-17,490 L-35,500 L-52,490 L-52,470 L-35,460 Z" />
<path fill="#D8D388" d="M-52,470 L-52,490 L-69,500 L-87,490 L-87,470 L-69,460 Z" />
<path fill="#D8D388" d="M502,170 L502,190 L485,200 L468,190 L468,170 L485,160 Z" />
<path fill="#4ee055" d="M485,200 L485,220 L468,230 L450,220 L450,200 L468,190 Z" />
<path fill="#D8D388" d="M468,230 L468,250 L450,260 L433,250 L433,230 L450,220 Z" />
<path fill="#D8D388" d="M450,260 L450,280 L433,290 L416,280 L416,260 L433,250 Z" />
<path fill="#4ee055" d="M433,290 L433,310 L416,320 L398,310 L398,290 L416,280 Z" />
<path fill="#D8D388" d="M416,320 L416,340 L398,350 L381,340 L381,320 L398,310 Z" />
<path fill="#D8D388" d="M398,350 L398,370 L381,380 L364,370 L364,350 L381,340 Z" />
<path fill="#4ee055" d="M381,380 L381,400 L364,410 L346,400 L346,380 L364,370 Z" />
<path fill="#D8D388" d="M364,410 L364,430 L346,440 L329,430 L329,410 L346,400 Z" />
<path fill="#D8D388" d="M346,440 L346,460 L329,470 L312,460 L312,440 L329,430 Z" />
<path fill="#4ee055" d="M329,470 L329,490 L312,500 L294,490 L294,470 L312,460 Z" />
<path fill="#D8D388" d="M312,500 L312,520 L294,530 L277,520 L277,500 L294,490 Z" />
<path fill="#4ee055" d="M277,500 L277,520 L260,530 L242,520 L242,500 L260,490 Z" />
<path fill="#D8D388" d="M242,500 L242,520 L225,530 L208,520 L208,500 L225,490 Z" />
<path fill="#D8D388" d="M208,500 L208,520 L191,530 L173,520 L173,500 L191,490 Z" />
<path fill="#4ee055" d="M173,500 L173,520 L156,530 L139,520 L139,500 L156,490 Z" />
<path fill="#D8D388" d="M139,500 L139,520 L121,530 L104,520 L104,500 L121,490 Z" />
<path fill="#D8D388" d="M104,500 L104,520 L87,530 L69,520 L69,500 L87,490 Z" />
<path fill="#4ee055" d="M69,500 L69,520 L52,530 L35,520 L35,500 L52,490 Z" />
<path fill="#D8D388" d="M35,500 L35,520 L17,530 L0,520 L0,500 L17,490 Z" />
<path fill="#D8D388" d="M0,500 L0,520 L-17,530 L-35,520 L-35,500 L-17,490 Z" />
<path fill="#4ee055" d="M-35,500 L-35,520 L-52,530 L-69,520 L-69,500 L-52,490 Z" />
<path fill="#D8D388" d="M-69,500 L-69,520 L-87,530 L-104,520 L-104,500 L-87,490 Z" />
<path fill="#D8D388" d="M-104,500 L-104,520 L-121,530 L-139,520 L-139,500 L-121,490 Z" />
<path fill="#D8D388" d="M520,200 L520,220 L502,230 L485,220 L485,200 L502,190 Z" />
<path fill="#D8D388" d="M502,230 L502,250 L485,260 L468,250 L468,230 L485,220 Z" />
<path fill="#4ee055" d="M485,260 L485,280 L468,290 L450,280 L450,260 L468,250 Z" />
<path fill="#D8D388" d="M468,290 L468,310 L450,320 L433,310 L433,290 L450,280 Z" />
<path fill="#D8D388" d="M450,320 L450,340 L433,350 L416,340 L416,320 L433,310 Z" />
<path fill="#4ee055" d="M433,350 L433,370 L416,380 L398,370 L398,350 L416,340 Z" />
<path fill="#D8D388" d="M416,380 L416,400 L398,410 L381,400 L381,380 L398,370 Z" />
<path fill="#D8D388" d="M398,410 L398,430 L381,440 L364,430 L364,410 L381,400 Z" />
<path fill="#4ee055" d="M381,440 L381,460 L364,470 L346,460 L346,440 L364,430 Z" />
<path fill="#D8D388" d="M364,470 L364,490 L346,500 L329,490 L329,470 L346,460 Z" />
<path fill="#D8D388" d="M346,500 L346,520 L329,530 L312,520 L312,500 L329,490 Z" />
<path fill="#4ee055" d="M329,530 L329,550 L312,560 L294,550 L294,530 L312,520 Z" />
<path fill="#D8D388" d="M294,530 L294,550 L277,560 L260,550 L260,530 L277,520 Z" />
<path fill="#D8D388" d="M260,530 L260,550 L242,560 L225,550 L225,530 L242,520 Z" />
<path fill="#4ee055" d="M225,530 L225,550 L208,560 L191,550 L191,530 L208,520 Z" />
<path fill="#D8D388" d="M191,530 L191,550 L173,560 L156,550 L156,530 L173,520 Z" />
<path fill="#D8D388" d="M156,530 L156,550 L139,560 L121,550 L121,530 L139,520 Z" />
<path fill="#4ee055" d="M121,530 L121,550 L104,560 L87,550 L87,530 L104,520 Z" />
<path fill="#D8D388" d="M87,530 L87,550 L69,560 L52,550 L52,530 L69,520 Z" />
<path fill="#D8D388" d="M52,530 L52,550 L35,560 L17,550 L17,530 L35,520 Z" />
<path fill="#4ee055" d="M17,530 L17,550 L0,560 L-17,550 L-17,530 L0,520 Z" />
<path fill="#D8D388" d="M-17,530 L-17,550 L-35,560 L-52,550 L-52,530 L-35,520 Z" />
<path fill="#D8D388" d="M-52,530 L-52,550 L-69,560 L-87,550 L-87,530 L-69,520 Z" />
<path fill="#4ee055" d="M-87,530 L-87,550 L-104,560 L-121,550 L-121,530 L-104,520 Z" />
<path fill="#D8D388" d="M-121,530 L-121,550 L-139,560 L-156,550 L-156,530 L-139,520 Z" />
<path fill="#D8D388" d="M-156,530 L-156,550 L-173,560 L-191,550 L-191,530 L-173,520 Z" />
<path fill="#4ee055" d="M-191,530 L-191,550 L-208,560 L-225,550 L-225,530 L-208,520 Z" />
<path fill="#D8D388" d="M-225,530 L-225,550 L-242,560 L-260,550 L-260,530 L-242,520 Z" />
<path fill="#4ee055" d="M537,230 L537,250 L520,260 L502,250 L502,230 L520,220 Z" />
<path fill="#D8D388" d="M520,260 L520,280 L502,290 L485,280 L485,260 L502,250 Z" />
<path fill="#D8D388" d="M502,290 L502,310 L485,320 L468,310 L468,290 L485,280 Z" />
<path fill="#4ee055" d="M485,320 L485,340 L468,350 L450,340 L450,320 L468,310 Z" />
<path fill="#D8D388" d="M468,350 L468,370 L450,380 L433,370 L433,350 L450,340 Z" />
<path fill="#D8D388" d="M450,380 L450,400 L433,410 L416,400 L416,380 L433,370 Z" />
<path fill="#4ee055" d="M433,410 L433,430 L416,440 L398,430 L398,410 L416,400 Z" />
<path fill="#D8D388" d="M416,440 L416,460 L398,470 L381,460 L381,440 L398,430 Z" />
<path fill="#D8D388" d="M398,470 L398,490 L381,500 L364,490 L364,470 L381,460 Z" />
<path fill="#4ee055" d="M381,500 L381,520 L364,530 L346,520 L346,500 L364,490 Z" />
<path fill="#D8D388" d="M364,530 L364,550 L346,560 L329,550 L329,530 L346,520 Z" />
<path fill="#D8D388" d="M346,560 L346,580 L329,590 L312,580 L312,560 L329,550 Z" />
<path fill="#D8D388" d="M312,560 L312,580 L294,590 L277,580 L277,560 L294,550 Z" />
<path fill="#4ee055" d="M277,560 L277,580 L260,590 L242,580 L242,560 L260,550 Z" />
<path fill="#D8D388" d="M242,560 L242,580 L225,590 L208,580 L208,560 L225,550 Z" />
<path fill="#D8D388" d="M208,560 L208,580 L191,590 L173,580 L173,560 L191,550 Z" />
<path fill="#4ee055" d="M173,560 L173,580 L156,590 L139,580 L139,560 L156,550 Z" />
<path fill="#D8D388" d="M139,560 L139,580 L121,590 L104,580 L104,560 L121,550 Z" />
<path fill="#D8D388" d="M104,560 L104,580 L87,590 L69,580 L69,560 L87,550 Z" />
<path fill="#4ee055" d="M69,560 L69,580 L52,590 L35,580 L35,560 L52,550 Z" />
<path fill="#D8D388" d="M35,560 L35,580 L17,590 L0,580 L0,560 L17,550 Z" />
<path fill="#D8D388" d="M0,560 L0,580 L-17,590 L-35,580 L-35,560 L-17,550 Z" />
<path fill="#4ee055" d="M-35,560 L-35,580 L-52,590 L-69,580 L-69,560 L-52,550 Z" />
<path fill="#D8D388" d="M-69,560 L-69,580 L-87,590 L-104,580 L-104,560 L-87,550 Z" />
<path fill="#D8D388" d="M-104,560 L-104,580 L-121,590 L-139,580 L-139,560 L-121,550 Z" />
<path fill="#4ee055" d="M-139,560 L-139,580 L-156,590 L-173,580 L-173,560 L-156,550 Z" />
<path fill="#D8D388" d="M-173,560 L-173,580 L-191,590 L-208,580 L-208,560 L-191,550 Z" />
<path fill="#D8D388" d="M-208,560 L-208,580 L-225,590 L-242,580 L-242,560 L-225,550 Z" />
<path fill="#4ee055" d="M-242,560 L-242,580 L-260,590 L-277,580 L-277,560 L-260,550 Z" />
<path fill="#D8D388" d="M554,260 L554,280 L537,290 L520,280 L520,260 L537,250 Z" />
<path fill="#4ee055" d="M537,290 L537,310 L520,320 L502,310 L502,290 L520,280 Z" />
<path fill="#D8D388" d="M520,320 L520,340 L502,350 L485,340 L485,320 L502,310 Z" />
<path fill="#D8D388" d="M502,350 L502,370 L485,380 L468,370 L468,350 L485,340 Z" />
<path fill="#4ee055" d="M485,380 L485,400 L468,410 L450,400 L450,380 L468,370 Z" />
<path fill="#D8D388" d="M468,410 L468,430 L450,440 L433,430 L433,410 L450,400 Z" />
<path fill="#D8D388" d="M450,440 L450,460 L433,470 L416,460 L416,440 L433,430 Z" />
<path fill="#4ee055" d="M433,470 L433,490 L416,500 L398,490 L398,470 L416,460 Z" />
<path fill="#D8D388" d="M416,500 L416,520 L398,530 L381,520 L381,500 L398,490 Z" />
<path fill="#D8D388" d="M398,530 L398,550 L381,560 L364,550 L364,530 L381,520 Z" />
<path fill="#4ee055" d="M381,560 L381,580 L364,590 L346,580 L346,560 L364,550 Z" />
<path fill="#D8D388" d="M364,590 L364,610 L346,620 L329,610 L329,590 L346,580 Z" />
<path fill="#4ee055" d="M329,590 L329,610 L312,620 L294,610 L294,590 L312,580 Z" />
<path fill="#D8D388" d="M294,590 L294,610 L277,620 L260,610 L260,590 L277,580 Z" />
<path fill="#D8D388" d="M260,590 L260,610 L242,620 L225,610 L225,590 L242,580 Z" />
<path fill="#4ee055" d="M225,590 L225,610 L208,620 L191,610 L191,590 L208,580 Z" />
<path fill="#D8D388" d="M191,590 L191,610 L173,620 L156,610 L156,590 L173,580 Z" />
<path fill="#D8D388" d="M156,590 L156,610 L139,620 L121,610 L121,590 L139,580 Z" />
<path fill="#4ee055" d="M121,590 L121,610 L104,620 L87,610 L87,590 L104,580 Z" />
<path fill="#D8D388" d="M87,590 L87,610 L69,620 L52,610 L52,590 L69,580 Z" />
<path fill="#D8D388" d="M52,590 L52,610 L35,620 L17,610 L17,590 L35,580 Z" />
<path fill="#4ee055" d="M17,590 L17,610 L0,620 L-17,610 L-17,590 L0,580 Z" />
<path fill="#D8D388" d="M-17,590 L-17,610 L-35,620 L-52,610 L-52,590 L-35,580 Z" />
<path fill="#D8D388" d="M-52,590 L-52,610 L-69,620 L-87,610 L-87,590 L-69,580 Z" />
<path fill="#4ee055" d="M-87,590 L-87,610 L-104,620 L-121,610 L-121,590 L-104,580 Z" />
<path fill="#D8D388" d="M-121,590 L-121,610 L-139,620 L-156,610 L-156,590 L-139,580 Z" />
<path fill="#D8D388" d="M-156,590 L-156,610 L-173,620 L-191,610 L-191,590 L-173,580 Z" />
<path fill="#4ee055" d="M-191,590 L-191,610 L-208,620 L-225,610 L-225,590 L-208,580 Z" />
<path fill="#D8D388" d="M-225,590 L-225,610 L-242,620 L-260,610 L-260,590 L-242,580 Z" />
<path fill="#D8D388" d="M-260,590 L-260,610 L-277,620 L-294,610 L-294,590 L-277,580 Z" />
<path fill="#D8D388" d="M554,320 L554,340 L537,350 L520,340 L520,320 L537,310 Z" />
<path fill="#4ee055" d="M537,350 L537,370 L520,380 L502,370 L502,350 L520,340 Z" />
<path fill="#D8D388" d="M520,380 L520,400 L502,410 L485,400 L485,380 L502,370 Z" />
<path fill="#D8D388" d="M502,410 L502,430 L485,440 L468,430 L468,410 L485,400 Z" />
<path fill="#4ee055" d="M485,440 L485,460 L468,470 L450,460 L450,440 L468,430 Z" />
<path fill="#D8D388" d="M468,470 L468,490 L450,500 L433,490 L433,470 L450,460 Z" />
<path fill="#D8D388" d="M450,500 L450,520 L433,530 L416,520 L416,500 L433,490 Z" />
<path fill="#4ee055" d="M433,530 L433,550 L416,560 L398,550 L398,530 L416,520 Z" />
<path fill="#D8D388" d="M416,560 L416,580 L398,590 L381,580 L381,560 L398,550 Z" />
<path fill="#D8D388" d="M398,590 L398,610 L381,620 L364,610 L364,590 L381,580 Z" />
<path fill="#4ee055" d="M381,620 L381,640 L364,650 L346,640 L346,620 L364,610 Z" />
<path fill="#D8D388" d="M346,620 L346,640 L329,650 L312,640 L312,620 L329,610 Z" />
<path fill="#D8D388" d="M312,620 L312,640 L294,650 L277,640 L277,620 L294,610 Z" />
<path fill="#4ee055" d="M277,620 L277,640 L260,650 L242,640 L242,620 L260,610 Z" />
<path fill="#D8D388" d="M242,620 L242,640 L225,650 L208,640 L208,620 L225,610 Z" />
<path fill="#D8D388" d="M208,620 L208,640 L191,650 L173,640 L173,620 L191,610 Z" />
<path fill="#4ee055" d="M173,620 L173,640 L156,650 L139,640 L139,620 L156,610 Z" />
<path fill="#D8D388" d="M139,620 L139,640 L121,650 L104,640 L104,620 L121,610 Z" />
<path fill="#D8D388" d="M104,620 L104,640 L87,650 L69,640 L69,620 L87,610 Z" />
<path fill="#4ee055" d="M69,620 L69,640 L52,650 L35,640 L35,620 L52,610 Z" />
<path fill="#D8D388" d="M35,620 L35,640 L17,650 L0,640 L0,620 L17,610 Z" />
<path fill="#D8D388" d="M0,620 L0,640 L-17,650 L-35,640 L-35,620 L-17,610 Z" />
<path fill="#4ee055" d="M-35,620 L-35,640 L-52,650 L-69,640 L-69,620 L-52,610 Z" />
<path fill="#D8D388" d="M-69,620 L-69,640 L-87,650 L-104,640 L-104,620 L-87,610 Z" />
<path fill="#D8D388" d="M-104,620 L-104,640 L-121,650 L-139,640 L-139,620 L-121,610 Z" />
<path fill="#4ee055" d="M-139,620 L-139,640 L-156,650 L-173,640 L-173,620 L-156,610 Z" />
<path fill="#D8D388" d="M-173,620 L-173,640 L-191,650 L-208,640 L-208,620 L-191,610 Z" />
<path fill="#D8D388" d="M-208,620 L-208,640 L-225,650 L-242,640 L-242,620 L-225,610 Z" />
<path fill="#4ee055" d="M-242,620 L-242,640 L-260,650 L-277,640 L-277,620 L-260,610 Z" />
<path fill="#D8D388" d="M-277,620 L-277,640 L-294,650 L-312,640 L-312,620 L-294,610 Z" />
<path fill="#D8D388" d="M572,350 L572,370 L554,380 L537,370 L537,350 L554,340 Z" />
<path fill="#D8D388" d="M554,380 L554,400 L537,410 L520,400 L520,380 L537,370 Z" />
<path fill="#4ee055" d="M537,410 L537,430 L520,440 L502,430 L502,410 L520,400 Z" />
<path fill="#D8D388" d="M520,440 L520,460 L502,470 L485,460 L485,440 L502,430 Z" />
<path fill="#D8D388" d="M502,470 L502,490 L485,500 L468,490 L468,470 L485,460 Z" />
<path fill="#4ee055" d="M485,500 L485,520 L468,530 L450,520 L450,500 L468,490 Z" />
<path fill="#D8D388" d="M468,530 L468,550 L450,560 L433,550 L433,530 L450,520 Z" />
<path fill="#D8D388" d="M450,560 L450,580 L433,590 L416,580 L416,560 L433,550 Z" />
<path fill="#4ee055" d="M433,590 L433,610 L416,620 L398,610 L398,590 L416,580 Z" />
<path fill="#D8D388" d="M416,620 L416,640 L398,650 L381,640 L381,620 L398,610 Z" />
<path fill="#D8D388" d="M398,650 L398,670 L381,680 L364,670 L364,650 L381,640 Z" />
<path fill="#D8D388" d="M364,650 L364,670 L346,680 L329,670 L329,650 L346,640 Z" />
<path fill="#4ee055" d="M329,650 L329,670 L312,680 L294,670 L294,650 L312,640 Z" />
<path fill="#D8D388" d="M294,650 L294,670 L277,680 L260,670 L260,650 L277,640 Z" />
<path fill="#D8D388" d="M260,650 L260,670 L242,680 L225,670 L225,650 L242,640 Z" />
<path fill="#4ee055" d="M225,650 L225,670 L208,680 L191,670 L191,650 L208,640 Z" />
<path fill="#D8D388" d="M191,650 L191,670 L173,680 L156,670 L156,650 L173,640 Z" />
<path fill="#D8D388" d="M156,650 L156,670 L139,680 L121,670 L121,650 L139,640 Z" />
<path fill="#4ee055" d="M121,650 L121,670 L104,680 L87,670 L87,650 L104,640 Z" />
<path fill="#D8D388" d="M87,650 L87,670 L69,680 L52,670 L52,650 L69,640 Z" />
<path fill="#D8D388" d="M52,650 L52,670 L35,680 L17,670 L17,650 L35,640 Z" />
<path fill="#4ee055" d="M17,650 L17,670 L0,680 L-17,670 L-17,650 L0,640 Z" />
<path fill="#D8D388" d="M-17,650 L-17,670 L-35,680 L-52,670 L-52,650 L-35,640 Z" />
<path fill="#D8D388" d="M-52,650 L-52,670 L-69,680 L-87,670 L-87,650 L-69,640 Z" />
<path fill="#4ee055" d="M-87,650 L-87,670 L-104,680 L-121,670 L-121,650 L-104,640 Z" />
<path fill="#D8D388" d="M-121,650 L-121,670 L-139,680 L-156,670 L-156,650 L-139,640 Z" />
<path fill="#D8D388" d="M-156,650 L-156,670 L-173,680 L-191,670 L-191,650 L-173,640 Z" />
<path fill="#4ee055" d="M-191,650 L-191,670 L-208,680 L-225,670 L-225,650 L-208,640 Z" />
<path fill="#D8D388" d="M-225,650 L-225,670 L-242,680 L-260,670 L-260,650 L-242,640 Z" />
<path fill="#D8D388" d="M-260,650 L-260,670 L-277,680 L-294,670 L-294,650 L-277,640 Z" />
<path fill="#4ee055" d="M589,380 L589,400 L572,410 L554,400 L554,380 L572,370 Z" />
<path fill="#D8D388" d="M572,410 L572,430 L554,440 L537,430 L537,410 L554,400 Z" />
<path fill="#D8D388" d="M554,440 L554,460 L537,470 L520,460 L520,440 L537,430 Z" />
<path fill="#4ee055" d="M537,470 L537,490 L520,500 L502,490 L502,470 L520,460 Z" />
<path fill="#D8D388" d="M520,500 L520,520 L502,530 L485,520 L485,500 L502,490 Z" />
<path fill="#D8D388" d="M502,530 L502,550 L485,560 L468,550 L468,530 L485,520 Z" />
<path fill="#4ee055" d="M485,560 L485,580 L468,590 L450,580 L450,560 L468,550 Z" />
<path fill="#D8D388" d="M468,590 L468,610 L450,620 L433,610 L433,590 L450,580 Z" />
<path fill="#D8D388" d="M450,620 L450,640 L433,650 L416,640 L416,620 L433,610 Z" />
<path fill="#4ee055" d="M433,650 L433,670 L416,680 L398,670 L398,650 L416,640 Z" />
<path fill="#D8D388" d="M416,680 L416,700 L398,710 L381,700 L381,680 L398,670 Z" />
<path fill="#4ee055" d="M381,680 L381,700 L364,710 L346,700 L346,680 L364,670 Z" />
<path fill="#D8D388" d="M346,680 L346,700 L329,710 L312,700 L312,680 L329,670 Z" />
<path fill="#D8D388" d="M312,680 L312,700 L294,710 L277,700 L277,680 L294,670 Z" />
<path fill="#4ee055" d="M277,680 L277,700 L260,710 L242,700 L242,680 L260,670 Z" />
<path fill="#D8D388" d="M242,680 L242,700 L225,710 L208,700 L208,680 L225,670 Z" />
<path fill="#D8D388" d="M208,680 L208,700 L191,710 L173,700 L173,680 L191,670 Z" />
<path fill="#4ee055" d="M173,680 L173,700 L156,710 L139,700 L139,680 L156,670 Z" />
<path fill="#D8D388" d="M139,680 L139,700 L121,710 L104,700 L104,680 L121,670 Z" />
<path fill="#D8D388" d="M104,680 L104,700 L87,710 L69,700 L69,680 L87,670 Z" />
<path fill="#4ee055" d="M69,680 L69,700 L52,710 L35,700 L35,680 L52,670 Z" />
<path fill="#D8D388" d="M35,680 L35,700 L17,710 L0,700 L0,680 L17,670 Z" />
<path fill="#D8D388" d="M0,680 L0,700 L-17,710 L-35,700 L-35,680 L-17,670 Z" />
<path fill="#4ee055" d="M-35,680 L-35,700 L-52,710 L-69,700 L-69,680 L-52,670 Z" />
<path fill="#D8D388" d="M-69,680 L-69,700 L-87,710 L-104,700 L-104,680 L-87,670 Z" />
<path fill="#D8D388" d="M-104,680 L-104,700 L-121,710 L-139,700 L-139,680 L-121,670 Z" />
<path fill="#4ee055" d="M-139,680 L-139,700 L-156,710 L-173,700 L-173,680 L-156,670 Z" />
<path fill="#D8D388" d="M-173,680 L-173,700 L-191,710 L-208,700 L-208,680 L-191,670 Z" />
<path fill="#D8D388" d="M-208,680 L-208,700 L-225,710 L-242,700 L-242,680 L-225,670 Z" />
<path fill="#4ee055" d="M-242,680 L-242,700 L-260,710 L-277,700 L-277,680 L-260,670 Z" />
<path fill="#D8D388" d="M624,380 L624,400 L606,410 L589,400 L589,380 L606,370 Z" />
<path fill="#4ee055" d="M537,530 L537,550 L520,560 L502,550 L502,530 L520,520 Z" />
<path fill="#D8D388" d="M520,560 L520,580 L502,590 L485,580 L485,560 L502,550 Z" />
<path fill="#D8D388" d="M502,590 L502,610 L485,620 L468,610 L468,590 L485,580 Z" />
<path fill="#4ee055" d="M485,620 L485,640 L468,650 L450,640 L450,620 L468,610 Z" />
<path fill="#D8D388" d="M468,650 L468,670 L450,680 L433,670 L433,650 L450,640 Z" />
<path fill="#D8D388" d="M450,680 L450,700 L433,710 L416,700 L416,680 L433,670 Z" />
<path fill="#D8D388" d="M398,710 L398,730 L381,740 L364,730 L364,710 L381,700 Z" />
<path fill="#D8D388" d="M364,710 L364,730 L346,740 L329,730 L329,710 L346,700 Z" />
<path fill="#4ee055" d="M329,710 L329,730 L312,740 L294,730 L294,710 L312,700 Z" />
<path fill="#D8D388" d="M294,710 L294,730 L277,740 L260,730 L260,710 L277,700 Z" />
<path fill="#D8D388" d="M260,710 L260,730 L242,740 L225,730 L225,710 L242,700 Z" />
<path fill="#4ee055" d="M225,710 L225,730 L208,740 L191,730 L191,710 L208,700 Z" />
<path fill="#D8D388" d="M191,710 L191,730 L173,740 L156,730 L156,710 L173,700 Z" />
<path fill="#D8D388" d="M156,710 L156,730 L139,740 L121,730 L121,710 L139,700 Z" />
<path fill="#4ee055" d="M121,710 L121,730 L104,740 L87,730 L87,710 L104,700 Z" />
<path fill="#D8D388" d="M87,710 L87,730 L69,740 L52,730 L52,710 L69,700 Z" />
<path fill="#D8D388" d="M52,710 L52,730 L35,740 L17,730 L17,710 L35,700 Z" />
<path fill="#4ee055" d="M17,710 L17,730 L0,740 L-17,730 L-17,710 L0,700 Z" />
<path fill="#D8D388" d="M-17,710 L-17,730 L-35,740 L-52,730 L-52,710 L-35,700 Z" />
<path fill="#D8D388" d="M-52,710 L-52,730 L-69,740 L-87,730 L-87,710 L-69,700 Z" />
<path fill="#4ee055" d="M-87,710 L-87,730 L-104,740 L-121,730 L-121,710 L-104,700 Z" />
<path fill="#D8D388" d="M-121,710 L-121,730 L-139,740 L-156,730 L-156,710 L-139,700 Z" />
<path fill="#D8D388" d="M-156,710 L-156,730 L-173,740 L-191,730 L-191,710 L-173,700 Z" />
<path fill="#4ee055" d="M-191,710 L-191,730 L-208,740 L-225,730 L-225,710 L-208,700 Z" />
<path fill="#D8D388" d="M-225,710 L-225,730 L-242,740 L-260,730 L-260,710 L-242,700 Z" />
<path fill="#D8D388" d="M658,380 L658,400 L641,410 L624,400 L624,380 L641,370 Z" />
<path fill="#D8D388" d="M554,560 L554,580 L537,590 L520,580 L520,560 L537,550 Z" />
<path fill="#4ee055" d="M537,590 L537,610 L520,620 L502,610 L502,590 L520,580 Z" />
<path fill="#D8D388" d="M520,620 L520,640 L502,650 L485,640 L485,620 L502,610 Z" />
<path fill="#D8D388" d="M312,740 L312,760 L294,770 L277,760 L277,740 L294,730 Z" />
<path fill="#4ee055" d="M277,740 L277,760 L260,770 L242,760 L242,740 L260,730 Z" />
<path fill="#D8D388" d="M242,740 L242,760 L225,770 L208,760 L208,740 L225,730 Z" />
<path fill="#D8D388" d="M208,740 L208,760 L191,770 L173,760 L173,740 L191,730 Z" />
<path fill="#4ee055" d="M173,740 L173,760 L156,770 L139,760 L139,740 L156,730 Z" />
<path fill="#D8D388" d="M139,740 L139,760 L121,770 L104,760 L104,740 L121,730 Z" />
<path fill="#D8D388" d="M104,740 L104,760 L87,770 L69,760 L69,740 L87,730 Z" />
<path fill="#4ee055" d="M69,740 L69,760 L52,770 L35,760 L35,740 L52,730 Z" />
<path fill="#D8D388" d="M35,740 L35,760 L17,770 L0,760 L0,740 L17,730 Z" />
<path fill="#D8D388" d="M0,740 L0,760 L-17,770 L-35,760 L-35,740 L-17,730 Z" />
<path fill="#4ee055" d="M-139,740 L-139,760 L-156,770 L-173,760 L-173,740 L-156,730 Z" />
<path fill="#D8D388" d="M-173,740 L-173,760 L-191,770 L-208,760 L-208,740 L-191,730 Z" />
<path fill="#D8D388" d="M675,410 L675,430 L658,440 L641,430 L641,410 L658,400 Z" />
<path fill="#4ee055" d="M589,560 L589,580 L572,590 L554,580 L554,560 L572,550 Z" />
<path fill="#D8D388" d="M572,590 L572,610 L554,620 L537,610 L537,590 L554,580 Z" />
<path fill="#4ee055" d="M225,770 L225,790 L208,800 L191,790 L191,770 L208,760 Z" />
<path fill="#D8D388" d="M191,770 L191,790 L173,800 L156,790 L156,770 L173,760 Z" />
<path fill="#D8D388" d="M156,770 L156,790 L139,800 L121,790 L121,770 L139,760 Z" />
<path fill="#4ee055" d="M121,770 L121,790 L104,800 L87,790 L87,770 L104,760 Z" />
<path fill="#D8D388" d="M87,770 L87,790 L69,800 L52,790 L52,770 L69,760 Z" />
<path fill="#D8D388" d="M52,770 L52,790 L35,800 L17,790 L17,770 L35,760 Z" />
<path fill="#4ee055" d="M17,110 L17,130 L0,140 L-17,130 L-17,110 L0,100 Z" />
<path fill="#D8D388" d="M468,-10 L468,10 L450,20 L433,10 L433,-10 L450,-20 Z" />
<path fill="#4ee055" d="M69,380 L69,400 L52,410 L35,400 L35,380 L52,370 Z" />
<path fill="#D8D388" d="M-260,530 L-260,550 L-277,560 L-294,550 L-294,530 L-277,520 Z" />
<path fill="#D8D388" d="M554,200 L554,220 L537,230 L520,220 L520,200 L537,190 Z" />
<path fill="#D8D388" d="M-277,560 L-277,580 L-294,590 L-312,580 L-312,560 L-294,550 Z" />
<path fill="#D8D388" d="M-277,680 L-277,700 L-294,710 L-312,700 L-312,680 L-294,670 Z" />
<path fill="#D8D388" d="M658,320 L658,340 L641,350 L624,340 L624,320 L641,310 Z" />
<path fill="#D8D388" d="M554,500 L554,520 L537,530 L520,520 L520,500 L537,490 Z" />
<path fill="#D8D388" d="M-260,710 L-260,730 L-277,740 L-294,730 L-294,710 L-277,700 Z" />
<path fill="#4ee055" d="M693,320 L693,340 L675,350 L658,340 L658,320 L675,310 Z" />
<path fill="#D8D388" d="M675,350 L675,370 L658,380 L641,370 L641,350 L658,340 Z" />
<path fill="#4ee055" d="M641,410 L641,430 L624,440 L606,430 L606,410 L624,400 Z" />
<path fill="#D8D388" d="M502,650 L502,670 L485,680 L468,670 L468,650 L485,640 Z" />
<path fill="#D8D388" d="M658,440 L658,460 L641,470 L624,460 L624,440 L641,430 Z" />
<path fill="#D8D388" d="M260,770 L260,790 L242,800 L225,790 L225,770 L242,760 Z" />
</g>
</svg>