<?xml version="1.0" encoding="utf-8"?>
<svg viewBox="-1049.6227893867397 -1010.5000000000001 1371.7842395945509 1331.0" preserveAspectRatio="xMidYMid meet" version="1.1" baseProfile="full" xmlns="http://www.w3.org/2000/svg" style="background-color: black;">
<g style="stroke:#ffffff; stroke-width: 1; stroke-linejoin: round;">
<path fill="#D8D388" d="M87,-130 L87,-110 L69,-100 L52,-110 L52,-130 L69,-140 Z" />
<path fill="#4ee055" d="M-35,-160 L-35,-140 L-52,-130 L-69,-140 L-69,-160 L-52,-170 Z" />
<path fill="#D8D388" d="M0,-160 L0,-140 L-17,-130 L-35,-140 L-35,-160 L-17,-170 Z" />
<path fill="#D8D388" d="M35,-160 L35,-140 L17,-130 L0,-140 L0,-160 L17,-170 Z" />
<path fill="#4ee055" d="M69,-160 L69,-140 L52,-130 L35,-140 L35,-160 L52,-170 Z" />
<path fill="#4ee055" d="M121,-130 L121,-110 L104,-100 L87,-110 L87,-130 L104,-140 Z" />
<path fill="#D8D388" d="M139,-100 L139,-80 L121,-70 L104,-80 L104,-100 L121,-110 Z" />
<path fill="#4ee055" d="M-87,-190 L-87,-170 L-104,-160 L-121,-170 L-121,-190 L-104,-200 Z" />
<path fill="#D8D388" d="M-52,-190 L-52,-170 L-69,-160 L-87,-170 L-87,-190 L-69,-200 Z" />
<path fill="#D8D388" d="M-17,-190 L-17,-170 L-35,-160 L-52,-170 L-52,-190 L-35,-200 Z" />
<path fill="#4ee055" d="M17,-190 L17,-170 L0,-160 L-17,-170 L-17,-190 L0,-200 Z" />
<path fill="#D8D388" d="M156,-130 L156,-110 L139,-100 L121,-110 L121,-130 L139,-140 Z" />
<path fill="#4ee055" d="M173,-100 L173,-80 L156,-70 L139,-80 L139,-100 L156,-110 Z" />
<path fill="#D8D388" d="M191,-70 L191,-50 L173,-40 L156,-50 L156,-70 L173,-80 Z" />
<path fill="#D8D388" d="M208,-40 L208,-20 L191,-10 L173,-20 L173,-40 L191,-50 Z" />
<path fill="#4ee055" d="M-87,-190 L-87,-170 L-104,-160 L-121,-170 L-121,-190 L-104,-200 Z" />
<path fill="#D8D388" d="M-104,-220 L-104,-200 L-121,-190 L-139,-200 L-139,-220 L-121,-230 Z" />
<path fill="#D8D388" d="M-69,-220 L-69,-200 L-87,-190 L-104,-200 L-104,-220 L-87,-230 Z" />
<path fill="#4ee055" d="M-35,-220 L-35,-200 L-52,-190 L-69,-200 L-69,-220 L-52,-230 Z" />
<path fill="#4ee055" d="M173,-160 L173,-140 L156,-130 L139,-140 L139,-160 L156,-170 Z" />
<path fill="#D8D388" d="M191,-130 L191,-110 L173,-100 L156,-110 L156,-130 L173,-140 Z" />
<path fill="#D8D388" d="M208,-100 L208,-80 L191,-70 L173,-80 L173,-100 L191,-110 Z" />
<path fill="#4ee055" d="M225,-70 L225,-50 L208,-40 L191,-50 L191,-70 L208,-80 Z" />
<path fill="#D8D388" d="M-104,-220 L-104,-200 L-121,-190 L-139,-200 L-139,-220 L-121,-230 Z" />
<path fill="#D8D388" d="M-121,-250 L-121,-230 L-139,-220 L-156,-230 L-156,-250 L-139,-260 Z" />
<path fill="#4ee055" d="M-87,-250 L-87,-230 L-104,-220 L-121,-230 L-121,-250 L-104,-260 Z" />
<path fill="#D8D388" d="M-52,-250 L-52,-230 L-69,-220 L-87,-230 L-87,-250 L-69,-260 Z" />
<path fill="#D8D388" d="M-17,-250 L-17,-230 L-35,-220 L-52,-230 L-52,-250 L-35,-260 Z" />
<path fill="#4ee055" d="M17,-250 L17,-230 L0,-220 L-17,-230 L-17,-250 L0,-260 Z" />
<path fill="#4ee055" d="M-139,-220 L-139,-200 L-156,-190 L-173,-200 L-173,-220 L-156,-230 Z" />
<path fill="#D8D388" d="M-121,-250 L-121,-230 L-139,-220 L-156,-230 L-156,-250 L-139,-260 Z" />
<path fill="#4ee055" d="M-139,-280 L-139,-260 L-156,-250 L-173,-260 L-173,-280 L-156,-290 Z" />
<path fill="#D8D388" d="M-104,-280 L-104,-260 L-121,-250 L-139,-260 L-139,-280 L-121,-290 Z" />
<path fill="#D8D388" d="M-69,-280 L-69,-260 L-87,-250 L-104,-260 L-104,-280 L-87,-290 Z" />
<path fill="#4ee055" d="M-35,-280 L-35,-260 L-52,-250 L-69,-260 L-69,-280 L-52,-290 Z" />
<path fill="#D8D388" d="M0,-280 L0,-260 L-17,-250 L-35,-260 L-35,-280 L-17,-290 Z" />
<path fill="#D8D388" d="M35,-280 L35,-260 L17,-250 L0,-260 L0,-280 L17,-290 Z" />
<path fill="#4ee055" d="M69,-280 L69,-260 L52,-250 L35,-260 L35,-280 L52,-290 Z" />
<path fill="#4ee055" d="M173,-280 L173,-260 L156,-250 L139,-260 L139,-280 L156,-290 Z" />
<path fill="#D8D388" d="M-260,-70 L-260,-50 L-277,-40 L-294,-50 L-294,-70 L-277,-80 Z" />
<path fill="#4ee055" d="M-242,-100 L-242,-80 L-260,-70 L-277,-80 L-277,-100 L-260,-110 Z" />
<path fill="#D8D388" d="M-225,-130 L-225,-110 L-242,-100 L-260,-110 L-260,-130 L-242,-140 Z" />
<path fill="#D8D388" d="M-208,-160 L-208,-140 L-225,-130 L-242,-140 L-242,-160 L-225,-170 Z" />
<path fill="#D8D388" d="M-173,-220 L-173,-200 L-191,-190 L-208,-200 L-208,-220 L-191,-230 Z" />
<path fill="#D8D388" d="M-156,-250 L-156,-230 L-173,-220 L-191,-230 L-191,-250 L-173,-260 Z" />
<path fill="#4ee055" d="M-139,-280 L-139,-260 L-156,-250 L-173,-260 L-173,-280 L-156,-290 Z" />
<path fill="#D8D388" d="M-156,-310 L-156,-290 L-173,-280 L-191,-290 L-191,-310 L-173,-320 Z" />
<path fill="#D8D388" d="M-121,-310 L-121,-290 L-139,-280 L-156,-290 L-156,-310 L-139,-320 Z" />
<path fill="#4ee055" d="M-87,-310 L-87,-290 L-104,-280 L-121,-290 L-121,-310 L-104,-320 Z" />
<path fill="#D8D388" d="M87,-310 L87,-290 L69,-280 L52,-290 L52,-310 L69,-320 Z" />
<path fill="#4ee055" d="M121,-310 L121,-290 L104,-280 L87,-290 L87,-310 L104,-320 Z" />
<path fill="#D8D388" d="M156,-310 L156,-290 L139,-280 L121,-290 L121,-310 L139,-320 Z" />
<path fill="#D8D388" d="M191,-310 L191,-290 L173,-280 L156,-290 L156,-310 L173,-320 Z" />
<path fill="#D8D388" d="M208,-280 L208,-260 L191,-250 L173,-260 L173,-280 L191,-290 Z" />
<path fill="#4ee055" d="M225,-250 L225,-230 L208,-220 L191,-230 L191,-250 L208,-260 Z" />
<path fill="#D8D388" d="M242,-220 L242,-200 L225,-190 L208,-200 L208,-220 L225,-230 Z" />
<path fill="#D8D388" d="M-312,-40 L-312,-20 L-329,-10 L-346,-20 L-346,-40 L-329,-50 Z" />
<path fill="#4ee055" d="M-294,-70 L-294,-50 L-312,-40 L-329,-50 L-329,-70 L-312,-80 Z" />
<path fill="#D8D388" d="M-277,-100 L-277,-80 L-294,-70 L-312,-80 L-312,-100 L-294,-110 Z" />
<path fill="#D8D388" d="M-260,-130 L-260,-110 L-277,-100 L-294,-110 L-294,-130 L-277,-140 Z" />
<path fill="#4ee055" d="M-242,-160 L-242,-140 L-260,-130 L-277,-140 L-277,-160 L-260,-170 Z" />
<path fill="#D8D388" d="M-225,-190 L-225,-170 L-242,-160 L-260,-170 L-260,-190 L-242,-200 Z" />
<path fill="#D8D388" d="M-208,-220 L-208,-200 L-225,-190 L-242,-200 L-242,-220 L-225,-230 Z" />
<path fill="#4ee055" d="M-191,-250 L-191,-230 L-208,-220 L-225,-230 L-225,-250 L-208,-260 Z" />
<path fill="#D8D388" d="M-173,-280 L-173,-260 L-191,-250 L-208,-260 L-208,-280 L-191,-290 Z" />
<path fill="#D8D388" d="M-156,-310 L-156,-290 L-173,-280 L-191,-290 L-191,-310 L-173,-320 Z" />
<path fill="#D8D388" d="M-173,-340 L-173,-320 L-191,-310 L-208,-320 L-208,-340 L-191,-350 Z" />
<path fill="#D8D388" d="M208,-340 L208,-320 L191,-310 L173,-320 L173,-340 L191,-350 Z" />
<path fill="#4ee055" d="M225,-310 L225,-290 L208,-280 L191,-290 L191,-310 L208,-320 Z" />
<path fill="#D8D388" d="M242,-280 L242,-260 L225,-250 L208,-260 L208,-280 L225,-290 Z" />
<path fill="#D8D388" d="M260,-250 L260,-230 L242,-220 L225,-230 L225,-250 L242,-260 Z" />
<path fill="#4ee055" d="M-346,-40 L-346,-20 L-364,-10 L-381,-20 L-381,-40 L-364,-50 Z" />
<path fill="#D8D388" d="M-329,-70 L-329,-50 L-346,-40 L-364,-50 L-364,-70 L-346,-80 Z" />
<path fill="#D8D388" d="M-312,-100 L-312,-80 L-329,-70 L-346,-80 L-346,-100 L-329,-110 Z" />
<path fill="#4ee055" d="M-294,-130 L-294,-110 L-312,-100 L-329,-110 L-329,-130 L-312,-140 Z" />
<path fill="#D8D388" d="M-277,-160 L-277,-140 L-294,-130 L-312,-140 L-312,-160 L-294,-170 Z" />
<path fill="#D8D388" d="M-260,-190 L-260,-170 L-277,-160 L-294,-170 L-294,-190 L-277,-200 Z" />
<path fill="#4ee055" d="M-242,-220 L-242,-200 L-260,-190 L-277,-200 L-277,-220 L-260,-230 Z" />
<path fill="#D8D388" d="M-225,-250 L-225,-230 L-242,-220 L-260,-230 L-260,-250 L-242,-260 Z" />
<path fill="#D8D388" d="M-208,-280 L-208,-260 L-225,-250 L-242,-260 L-242,-280 L-225,-290 Z" />
<path fill="#4ee055" d="M-191,-310 L-191,-290 L-208,-280 L-225,-290 L-225,-310 L-208,-320 Z" />
<path fill="#D8D388" d="M-173,-340 L-173,-320 L-191,-310 L-208,-320 L-208,-340 L-191,-350 Z" />
<path fill="#4ee055" d="M-191,-370 L-191,-350 L-208,-340 L-225,-350 L-225,-370 L-208,-380 Z" />
<path fill="#D8D388" d="M-156,-370 L-156,-350 L-173,-340 L-191,-350 L-191,-370 L-173,-380 Z" />
<path fill="#D8D388" d="M-381,-40 L-381,-20 L-398,-10 L-416,-20 L-416,-40 L-398,-50 Z" />
<path fill="#D8D388" d="M-364,-70 L-364,-50 L-381,-40 L-398,-50 L-398,-70 L-381,-80 Z" />
<path fill="#4ee055" d="M-346,-100 L-346,-80 L-364,-70 L-381,-80 L-381,-100 L-364,-110 Z" />
<path fill="#D8D388" d="M-329,-130 L-329,-110 L-346,-100 L-364,-110 L-364,-130 L-346,-140 Z" />
<path fill="#D8D388" d="M-312,-160 L-312,-140 L-329,-130 L-346,-140 L-346,-160 L-329,-170 Z" />
<path fill="#4ee055" d="M-294,-190 L-294,-170 L-312,-160 L-329,-170 L-329,-190 L-312,-200 Z" />
<path fill="#D8D388" d="M-277,-220 L-277,-200 L-294,-190 L-312,-200 L-312,-220 L-294,-230 Z" />
<path fill="#D8D388" d="M-260,-250 L-260,-230 L-277,-220 L-294,-230 L-294,-250 L-277,-260 Z" />
<path fill="#4ee055" d="M-242,-280 L-242,-260 L-260,-250 L-277,-260 L-277,-280 L-260,-290 Z" />
<path fill="#D8D388" d="M-225,-310 L-225,-290 L-242,-280 L-260,-290 L-260,-310 L-242,-320 Z" />
<path fill="#D8D388" d="M-208,-340 L-208,-320 L-225,-310 L-242,-320 L-242,-340 L-225,-350 Z" />
<path fill="#4ee055" d="M-191,-370 L-191,-350 L-208,-340 L-225,-350 L-225,-370 L-208,-380 Z" />
<path fill="#D8D388" d="M-208,-400 L-208,-380 L-225,-370 L-242,-380 L-242,-400 L-225,-410 Z" />
<path fill="#D8D388" d="M-173,-400 L-173,-380 L-191,-370 L-208,-380 L-208,-400 L-191,-410 Z" />
<path fill="#4ee055" d="M-139,-400 L-139,-380 L-156,-370 L-173,-380 L-173,-400 L-156,-410 Z" />
<path fill="#D8D388" d="M-416,20 L-416,40 L-433,50 L-450,40 L-450,20 L-433,10 Z" />
<path fill="#D8D388" d="M-433,-10 L-433,10 L-450,20 L-468,10 L-468,-10 L-450,-20 Z" />
<path fill="#D8D388" d="M-416,-40 L-416,-20 L-433,-10 L-450,-20 L-450,-40 L-433,-50 Z" />
<path fill="#4ee055" d="M-398,-70 L-398,-50 L-416,-40 L-433,-50 L-433,-70 L-416,-80 Z" />
<path fill="#D8D388" d="M-381,-100 L-381,-80 L-398,-70 L-416,-80 L-416,-100 L-398,-110 Z" />
<path fill="#D8D388" d="M-364,-130 L-364,-110 L-381,-100 L-398,-110 L-398,-130 L-381,-140 Z" />
<path fill="#4ee055" d="M-346,-160 L-346,-140 L-364,-130 L-381,-140 L-381,-160 L-364,-170 Z" />
<path fill="#D8D388" d="M-329,-190 L-329,-170 L-346,-160 L-364,-170 L-364,-190 L-346,-200 Z" />
<path fill="#D8D388" d="M-312,-220 L-312,-200 L-329,-190 L-346,-200 L-346,-220 L-329,-230 Z" />
<path fill="#4ee055" d="M-294,-250 L-294,-230 L-312,-220 L-329,-230 L-329,-250 L-312,-260 Z" />
<path fill="#D8D388" d="M-277,-280 L-277,-260 L-294,-250 L-312,-260 L-312,-280 L-294,-290 Z" />
<path fill="#D8D388" d="M-260,-310 L-260,-290 L-277,-280 L-294,-290 L-294,-310 L-277,-320 Z" />
<path fill="#4ee055" d="M-242,-340 L-242,-320 L-260,-310 L-277,-320 L-277,-340 L-260,-350 Z" />
<path fill="#D8D388" d="M-225,-370 L-225,-350 L-242,-340 L-260,-350 L-260,-370 L-242,-380 Z" />
<path fill="#D8D388" d="M-208,-400 L-208,-380 L-225,-370 L-242,-380 L-242,-400 L-225,-410 Z" />
<path fill="#D8D388" d="M-225,-430 L-225,-410 L-242,-400 L-260,-410 L-260,-430 L-242,-440 Z" />
<path fill="#4ee055" d="M-191,-430 L-191,-410 L-208,-400 L-225,-410 L-225,-430 L-208,-440 Z" />
<path fill="#D8D388" d="M-156,-430 L-156,-410 L-173,-400 L-191,-410 L-191,-430 L-173,-440 Z" />
<path fill="#D8D388" d="M-433,50 L-433,70 L-450,80 L-468,70 L-468,50 L-450,40 Z" />
<path fill="#4ee055" d="M-450,20 L-450,40 L-468,50 L-485,40 L-485,20 L-468,10 Z" />
<path fill="#D8D388" d="M-468,-10 L-468,10 L-485,20 L-502,10 L-502,-10 L-485,-20 Z" />
<path fill="#4ee055" d="M-450,-40 L-450,-20 L-468,-10 L-485,-20 L-485,-40 L-468,-50 Z" />
<path fill="#D8D388" d="M-433,-70 L-433,-50 L-450,-40 L-468,-50 L-468,-70 L-450,-80 Z" />
<path fill="#D8D388" d="M-416,-100 L-416,-80 L-433,-70 L-450,-80 L-450,-100 L-433,-110 Z" />
<path fill="#4ee055" d="M-398,-130 L-398,-110 L-416,-100 L-433,-110 L-433,-130 L-416,-140 Z" />
<path fill="#D8D388" d="M-381,-160 L-381,-140 L-398,-130 L-416,-140 L-416,-160 L-398,-170 Z" />
<path fill="#D8D388" d="M-364,-190 L-364,-170 L-381,-160 L-398,-170 L-398,-190 L-381,-200 Z" />
<path fill="#4ee055" d="M-346,-220 L-346,-200 L-364,-190 L-381,-200 L-381,-220 L-364,-230 Z" />
<path fill="#D8D388" d="M-329,-250 L-329,-230 L-346,-220 L-364,-230 L-364,-250 L-346,-260 Z" />
<path fill="#D8D388" d="M-312,-280 L-312,-260 L-329,-250 L-346,-260 L-346,-280 L-329,-290 Z" />
<path fill="#4ee055" d="M-294,-310 L-294,-290 L-312,-280 L-329,-290 L-329,-310 L-312,-320 Z" />
<path fill="#D8D388" d="M-277,-340 L-277,-320 L-294,-310 L-312,-320 L-312,-340 L-294,-350 Z" />
<path fill="#D8D388" d="M-260,-370 L-260,-350 L-277,-340 L-294,-350 L-294,-370 L-277,-380 Z" />
<path fill="#4ee055" d="M-242,-400 L-242,-380 L-260,-370 L-277,-380 L-277,-400 L-260,-410 Z" />
<path fill="#D8D388" d="M-225,-430 L-225,-410 L-242,-400 L-260,-410 L-260,-430 L-242,-440 Z" />
<path fill="#4ee055" d="M-242,-460 L-242,-440 L-260,-430 L-277,-440 L-277,-460 L-260,-470 Z" />
<path fill="#D8D388" d="M-208,-460 L-208,-440 L-225,-430 L-242,-440 L-242,-460 L-225,-470 Z" />
<path fill="#D8D388" d="M-173,-460 L-173,-440 L-191,-430 L-208,-440 L-208,-460 L-191,-470 Z" />
<path fill="#4ee055" d="M-139,-460 L-139,-440 L-156,-430 L-173,-440 L-173,-460 L-156,-470 Z" />
<path fill="#4ee055" d="M-450,80 L-450,100 L-468,110 L-485,100 L-485,80 L-468,70 Z" />
<path fill="#D8D388" d="M-468,50 L-468,70 L-485,80 L-502,70 L-502,50 L-485,40 Z" />
<path fill="#D8D388" d="M-485,20 L-485,40 L-502,50 L-520,40 L-520,20 L-502,10 Z" />
<path fill="#4ee055" d="M-502,-10 L-502,10 L-520,20 L-537,10 L-537,-10 L-520,-20 Z" />
<path fill="#D8D388" d="M-485,-40 L-485,-20 L-502,-10 L-520,-20 L-520,-40 L-502,-50 Z" />
<path fill="#D8D388" d="M-468,-70 L-468,-50 L-485,-40 L-502,-50 L-502,-70 L-485,-80 Z" />
<path fill="#4ee055" d="M-450,-100 L-450,-80 L-468,-70 L-485,-80 L-485,-100 L-468,-110 Z" />
<path fill="#D8D388" d="M-433,-130 L-433,-110 L-450,-100 L-468,-110 L-468,-130 L-450,-140 Z" />
<path fill="#D8D388" d="M-416,-160 L-416,-140 L-433,-130 L-450,-140 L-450,-160 L-433,-170 Z" />
<path fill="#4ee055" d="M-398,-190 L-398,-170 L-416,-160 L-433,-170 L-433,-190 L-416,-200 Z" />
<path fill="#D8D388" d="M-381,-220 L-381,-200 L-398,-190 L-416,-200 L-416,-220 L-398,-230 Z" />
<path fill="#D8D388" d="M-364,-250 L-364,-230 L-381,-220 L-398,-230 L-398,-250 L-381,-260 Z" />
<path fill="#4ee055" d="M-346,-280 L-346,-260 L-364,-250 L-381,-260 L-381,-280 L-364,-290 Z" />
<path fill="#D8D388" d="M-329,-310 L-329,-290 L-346,-280 L-364,-290 L-364,-310 L-346,-320 Z" />
<path fill="#D8D388" d="M-312,-340 L-312,-320 L-329,-310 L-346,-320 L-346,-340 L-329,-350 Z" />
<path fill="#4ee055" d="M-294,-370 L-294,-350 L-312,-340 L-329,-350 L-329,-370 L-312,-380 Z" />
<path fill="#D8D388" d="M-277,-400 L-277,-380 L-294,-370 L-312,-380 L-312,-400 L-294,-410 Z" />
<path fill="#D8D388" d="M-260,-430 L-260,-410 L-277,-400 L-294,-410 L-294,-430 L-277,-440 Z" />
<path fill="#4ee055" d="M-242,-460 L-242,-440 L-260,-430 L-277,-440 L-277,-460 L-260,-470 Z" />
<path fill="#D8D388" d="M-260,-490 L-260,-470 L-277,-460 L-294,-470 L-294,-490 L-277,-500 Z" />
<path fill="#D8D388" d="M-225,-490 L-225,-470 L-242,-460 L-260,-470 L-260,-490 L-242,-500 Z" />
<path fill="#4ee055" d="M-191,-490 L-191,-470 L-208,-460 L-225,-470 L-225,-490 L-208,-500 Z" />
<path fill="#D8D388" d="M-156,-490 L-156,-470 L-173,-460 L-191,-470 L-191,-490 L-173,-500 Z" />
<path fill="#D8D388" d="M-121,-490 L-121,-470 L-139,-460 L-156,-470 L-156,-490 L-139,-500 Z" />
<path fill="#4ee055" d="M-450,140 L-450,160 L-468,170 L-485,160 L-485,140 L-468,130 Z" />
<path fill="#D8D388" d="M-468,110 L-468,130 L-485,140 L-502,130 L-502,110 L-485,100 Z" />
<path fill="#D8D388" d="M-485,80 L-485,100 L-502,110 L-520,100 L-520,80 L-502,70 Z" />
<path fill="#4ee055" d="M-502,50 L-502,70 L-520,80 L-537,70 L-537,50 L-520,40 Z" />
<path fill="#D8D388" d="M-520,20 L-520,40 L-537,50 L-554,40 L-554,20 L-537,10 Z" />
<path fill="#D8D388" d="M-537,-10 L-537,10 L-554,20 L-572,10 L-572,-10 L-554,-20 Z" />
<path fill="#D8D388" d="M-520,-40 L-520,-20 L-537,-10 L-554,-20 L-554,-40 L-537,-50 Z" />
<path fill="#4ee055" d="M-502,-70 L-502,-50 L-520,-40 L-537,-50 L-537,-70 L-520,-80 Z" />
<path fill="#D8D388" d="M-485,-100 L-485,-80 L-502,-70 L-520,-80 L-520,-100 L-502,-110 Z" />
<path fill="#D8D388" d="M-468,-130 L-468,-110 L-485,-100 L-502,-110 L-502,-130 L-485,-140 Z" />
<path fill="#4ee055" d="M-450,-160 L-450,-140 L-468,-130 L-485,-140 L-485,-160 L-468,-170 Z" />
<path fill="#D8D388" d="M-433,-190 L-433,-170 L-450,-160 L-468,-170 L-468,-190 L-450,-200 Z" />
<path fill="#D8D388" d="M-416,-220 L-416,-200 L-433,-190 L-450,-200 L-450,-220 L-433,-230 Z" />
<path fill="#4ee055" d="M-398,-250 L-398,-230 L-416,-220 L-433,-230 L-433,-250 L-416,-260 Z" />
<path fill="#D8D388" d="M-381,-280 L-381,-260 L-398,-250 L-416,-260 L-416,-280 L-398,-290 Z" />
<path fill="#D8D388" d="M-364,-310 L-364,-290 L-381,-280 L-398,-290 L-398,-310 L-381,-320 Z" />
<path fill="#4ee055" d="M-346,-340 L-346,-320 L-364,-310 L-381,-320 L-381,-340 L-364,-350 Z" />
<path fill="#D8D388" d="M-329,-370 L-329,-350 L-346,-340 L-364,-350 L-364,-370 L-346,-380 Z" />
<path fill="#D8D388" d="M-312,-400 L-312,-380 L-329,-370 L-346,-380 L-346,-400 L-329,-410 Z" />
<path fill="#4ee055" d="M-294,-430 L-294,-410 L-312,-400 L-329,-410 L-329,-430 L-312,-440 Z" />
<path fill="#D8D388" d="M-277,-460 L-277,-440 L-294,-430 L-312,-440 L-312,-460 L-294,-470 Z" />
<path fill="#D8D388" d="M-260,-490 L-260,-470 L-277,-460 L-294,-470 L-294,-490 L-277,-500 Z" />
<path fill="#D8D388" d="M-277,-520 L-277,-500 L-294,-490 L-312,-500 L-312,-520 L-294,-530 Z" />
<path fill="#4ee055" d="M-242,-520 L-242,-500 L-260,-490 L-277,-500 L-277,-520 L-260,-530 Z" />
<path fill="#D8D388" d="M-208,-520 L-208,-500 L-225,-490 L-242,-500 L-242,-520 L-225,-530 Z" />
<path fill="#D8D388" d="M-173,-520 L-173,-500 L-191,-490 L-208,-500 L-208,-520 L-191,-530 Z" />
<path fill="#4ee055" d="M-139,-520 L-139,-500 L-156,-490 L-173,-500 L-173,-520 L-156,-530 Z" />
<path fill="#4ee055" d="M-450,200 L-450,220 L-468,230 L-485,220 L-485,200 L-468,190 Z" />
<path fill="#D8D388" d="M-468,170 L-468,190 L-485,200 L-502,190 L-502,170 L-485,160 Z" />
<path fill="#D8D388" d="M-485,140 L-485,160 L-502,170 L-520,160 L-520,140 L-502,130 Z" />
<path fill="#4ee055" d="M-502,110 L-502,130 L-520,140 L-537,130 L-537,110 L-520,100 Z" />
<path fill="#D8D388" d="M-520,80 L-520,100 L-537,110 L-554,100 L-554,80 L-537,70 Z" />
<path fill="#D8D388" d="M-537,50 L-537,70 L-554,80 L-572,70 L-572,50 L-554,40 Z" />
<path fill="#4ee055" d="M-554,20 L-554,40 L-572,50 L-589,40 L-589,20 L-572,10 Z" />
<path fill="#D8D388" d="M-572,-10 L-572,10 L-589,20 L-606,10 L-606,-10 L-589,-20 Z" />
<path fill="#4ee055" d="M-554,-40 L-554,-20 L-572,-10 L-589,-20 L-589,-40 L-572,-50 Z" />
<path fill="#D8D388" d="M-537,-70 L-537,-50 L-554,-40 L-572,-50 L-572,-70 L-554,-80 Z" />
<path fill="#D8D388" d="M-468,-190 L-468,-170 L-485,-160 L-502,-170 L-502,-190 L-485,-200 Z" />
<path fill="#4ee055" d="M-450,-220 L-450,-200 L-468,-190 L-485,-200 L-485,-220 L-468,-230 Z" />
<path fill="#D8D388" d="M-433,-250 L-433,-230 L-450,-220 L-468,-230 L-468,-250 L-450,-260 Z" />
<path fill="#D8D388" d="M-416,-280 L-416,-260 L-433,-250 L-450,-260 L-450,-280 L-433,-290 Z" />
<path fill="#4ee055" d="M-398,-310 L-398,-290 L-416,-280 L-433,-290 L-433,-310 L-416,-320 Z" />
<path fill="#D8D388" d="M-381,-340 L-381,-320 L-398,-310 L-416,-320 L-416,-340 L-398,-350 Z" />
<path fill="#D8D388" d="M-364,-370 L-364,-350 L-381,-340 L-398,-350 L-398,-370 L-381,-380 Z" />
<path fill="#4ee055" d="M-346,-400 L-346,-380 L-364,-370 L-381,-380 L-381,-400 L-364,-410 Z" />
<path fill="#D8D388" d="M-329,-430 L-329,-410 L-346,-400 L-364,-410 L-364,-430 L-346,-440 Z" />
<path fill="#D8D388" d="M-312,-460 L-312,-440 L-329,-430 L-346,-440 L-346,-460 L-329,-470 Z" />
<path fill="#4ee055" d="M-294,-490 L-294,-470 L-312,-460 L-329,-470 L-329,-490 L-312,-500 Z" />
<path fill="#D8D388" d="M-277,-520 L-277,-500 L-294,-490 L-312,-500 L-312,-520 L-294,-530 Z" />
<path fill="#4ee055" d="M-294,-550 L-294,-530 L-312,-520 L-329,-530 L-329,-550 L-312,-560 Z" />
<path fill="#D8D388" d="M-260,-550 L-260,-530 L-277,-520 L-294,-530 L-294,-550 L-277,-560 Z" />
<path fill="#D8D388" d="M-225,-550 L-225,-530 L-242,-520 L-260,-530 L-260,-550 L-242,-560 Z" />
<path fill="#4ee055" d="M-191,-550 L-191,-530 L-208,-520 L-225,-530 L-225,-550 L-208,-560 Z" />
<path fill="#D8D388" d="M-156,-550 L-156,-530 L-173,-520 L-191,-530 L-191,-550 L-173,-560 Z" />
<path fill="#D8D388" d="M-121,-550 L-121,-530 L-139,-520 L-156,-530 L-156,-550 L-139,-560 Z" />
<path fill="#D8D388" d="M-485,200 L-485,220 L-502,230 L-520,220 L-520,200 L-502,190 Z" />
<path fill="#4ee055" d="M-502,170 L-502,190 L-520,200 L-537,190 L-537,170 L-520,160 Z" />
<path fill="#D8D388" d="M-520,140 L-520,160 L-537,170 L-554,160 L-554,140 L-537,130 Z" />
<path fill="#D8D388" d="M-537,110 L-537,130 L-554,140 L-572,130 L-572,110 L-554,100 Z" />
<path fill="#4ee055" d="M-554,80 L-554,100 L-572,110 L-589,100 L-589,80 L-572,70 Z" />
<path fill="#D8D388" d="M-572,50 L-572,70 L-589,80 L-606,70 L-606,50 L-589,40 Z" />
<path fill="#D8D388" d="M-589,20 L-589,40 L-606,50 L-624,40 L-624,20 L-606,10 Z" />
<path fill="#4ee055" d="M-606,-10 L-606,10 L-624,20 L-641,10 L-641,-10 L-624,-20 Z" />
<path fill="#D8D388" d="M-589,-40 L-589,-20 L-606,-10 L-624,-20 L-624,-40 L-606,-50 Z" />
<path fill="#D8D388" d="M-572,-70 L-572,-50 L-589,-40 L-606,-50 L-606,-70 L-589,-80 Z" />
<path fill="#D8D388" d="M-468,-250 L-468,-230 L-485,-220 L-502,-230 L-502,-250 L-485,-260 Z" />
<path fill="#4ee055" d="M-450,-280 L-450,-260 L-468,-250 L-485,-260 L-485,-280 L-468,-290 Z" />
<path fill="#D8D388" d="M-433,-310 L-433,-290 L-450,-280 L-468,-290 L-468,-310 L-450,-320 Z" />
<path fill="#D8D388" d="M-416,-340 L-416,-320 L-433,-310 L-450,-320 L-450,-340 L-433,-350 Z" />
<path fill="#4ee055" d="M-398,-370 L-398,-350 L-416,-340 L-433,-350 L-433,-370 L-416,-380 Z" />
<path fill="#D8D388" d="M-381,-400 L-381,-380 L-398,-370 L-416,-380 L-416,-400 L-398,-410 Z" />
<path fill="#D8D388" d="M-364,-430 L-364,-410 L-381,-400 L-398,-410 L-398,-430 L-381,-440 Z" />
<path fill="#4ee055" d="M-346,-460 L-346,-440 L-364,-430 L-381,-440 L-381,-460 L-364,-470 Z" />
<path fill="#D8D388" d="M-329,-490 L-329,-470 L-346,-460 L-364,-470 L-364,-490 L-346,-500 Z" />
<path fill="#D8D388" d="M-312,-520 L-312,-500 L-329,-490 L-346,-500 L-346,-520 L-329,-530 Z" />
<path fill="#4ee055" d="M-294,-550 L-294,-530 L-312,-520 L-329,-530 L-329,-550 L-312,-560 Z" />
<path fill="#D8D388" d="M-312,-580 L-312,-560 L-329,-550 L-346,-560 L-346,-580 L-329,-590 Z" />
<path fill="#D8D388" d="M-277,-580 L-277,-560 L-294,-550 L-312,-560 L-312,-580 L-294,-590 Z" />
<path fill="#4ee055" d="M-242,-580 L-242,-560 L-260,-550 L-277,-560 L-277,-580 L-260,-590 Z" />
<path fill="#D8D388" d="M-208,-580 L-208,-560 L-225,-550 L-242,-560 L-242,-580 L-225,-590 Z" />
<path fill="#D8D388" d="M-173,-580 L-173,-560 L-191,-550 L-208,-560 L-208,-580 L-191,-590 Z" />
<path fill="#4ee055" d="M-139,-580 L-139,-560 L-156,-550 L-173,-560 L-173,-580 L-156,-590 Z" />
<path fill="#D8D388" d="M-520,200 L-520,220 L-537,230 L-554,220 L-554,200 L-537,190 Z" />
<path fill="#D8D388" d="M-537,170 L-537,190 L-554,200 L-572,190 L-572,170 L-554,160 Z" />
<path fill="#D8D388" d="M-589,80 L-589,100 L-606,110 L-624,100 L-624,80 L-606,70 Z" />
<path fill="#4ee055" d="M-606,50 L-606,70 L-624,80 L-641,70 L-641,50 L-624,40 Z" />
<path fill="#D8D388" d="M-641,-10 L-641,10 L-658,20 L-675,10 L-675,-10 L-658,-20 Z" />
<path fill="#D8D388" d="M-624,-40 L-624,-20 L-641,-10 L-658,-20 L-658,-40 L-641,-50 Z" />
<path fill="#4ee055" d="M-606,-70 L-606,-50 L-624,-40 L-641,-50 L-641,-70 L-624,-80 Z" />
<path fill="#D8D388" d="M-468,-310 L-468,-290 L-485,-280 L-502,-290 L-502,-310 L-485,-320 Z" />
<path fill="#4ee055" d="M-450,-340 L-450,-320 L-468,-310 L-485,-320 L-485,-340 L-468,-350 Z" />
<path fill="#D8D388" d="M-433,-370 L-433,-350 L-450,-340 L-468,-350 L-468,-370 L-450,-380 Z" />
<path fill="#D8D388" d="M-416,-400 L-416,-380 L-433,-370 L-450,-380 L-450,-400 L-433,-410 Z" />
<path fill="#4ee055" d="M-398,-430 L-398,-410 L-416,-400 L-433,-410 L-433,-430 L-416,-440 Z" />
<path fill="#D8D388" d="M-381,-460 L-381,-440 L-398,-430 L-416,-440 L-416,-460 L-398,-470 Z" />
<path fill="#D8D388" d="M-364,-490 L-364,-470 L-381,-460 L-398,-470 L-398,-490 L-381,-500 Z" />
<path fill="#4ee055" d="M-346,-520 L-346,-500 L-364,-490 L-381,-500 L-381,-520 L-364,-530 Z" />
<path fill="#D8D388" d="M-329,-550 L-329,-530 L-346,-520 L-364,-530 L-364,-550 L-346,-560 Z" />
<path fill="#D8D388" d="M-312,-580 L-312,-560 L-329,-550 L-346,-560 L-346,-580 L-329,-590 Z" />
<path fill="#D8D388" d="M-329,-610 L-329,-590 L-346,-580 L-364,-590 L-364,-610 L-346,-620 Z" />
<path fill="#4ee055" d="M-294,-610 L-294,-590 L-312,-580 L-329,-590 L-329,-610 L-312,-620 Z" />
<path fill="#D8D388" d="M-260,-610 L-260,-590 L-277,-580 L-294,-590 L-294,-610 L-277,-620 Z" />
<path fill="#D8D388" d="M-225,-610 L-225,-590 L-242,-580 L-260,-590 L-260,-610 L-242,-620 Z" />
<path fill="#4ee055" d="M-191,-610 L-191,-590 L-208,-580 L-225,-590 L-225,-610 L-208,-620 Z" />
<path fill="#D8D388" d="M-156,-610 L-156,-590 L-173,-580 L-191,-590 L-191,-610 L-173,-620 Z" />
<path fill="#4ee055" d="M-606,110 L-606,130 L-624,140 L-641,130 L-641,110 L-624,100 Z" />
<path fill="#D8D388" d="M-624,80 L-624,100 L-641,110 L-658,100 L-658,80 L-641,70 Z" />
<path fill="#D8D388" d="M-641,50 L-641,70 L-658,80 L-675,70 L-675,50 L-658,40 Z" />
<path fill="#D8D388" d="M-675,-10 L-675,10 L-693,20 L-710,10 L-710,-10 L-693,-20 Z" />
<path fill="#4ee055" d="M-658,-40 L-658,-20 L-675,-10 L-693,-20 L-693,-40 L-675,-50 Z" />
<path fill="#D8D388" d="M-641,-70 L-641,-50 L-658,-40 L-675,-50 L-675,-70 L-658,-80 Z" />
<path fill="#D8D388" d="M-624,-100 L-624,-80 L-641,-70 L-658,-80 L-658,-100 L-641,-110 Z" />
<path fill="#D8D388" d="M-485,-340 L-485,-320 L-502,-310 L-520,-320 L-520,-340 L-502,-350 Z" />
<path fill="#D8D388" d="M-468,-370 L-468,-350 L-485,-340 L-502,-350 L-502,-370 L-485,-380 Z" />
<path fill="#4ee055" d="M-450,-400 L-450,-380 L-468,-370 L-485,-380 L-485,-400 L-468,-410 Z" />
<path fill="#D8D388" d="M-433,-430 L-433,-410 L-450,-400 L-468,-410 L-468,-430 L-450,-440 Z" />
<path fill="#D8D388" d="M-416,-460 L-416,-440 L-433,-430 L-450,-440 L-450,-460 L-433,-470 Z" />
<path fill="#4ee055" d="M-398,-490 L-398,-470 L-416,-460 L-433,-470 L-433,-490 L-416,-500 Z" />
<path fill="#D8D388" d="M-381,-520 L-381,-500 L-398,-490 L-416,-500 L-416,-520 L-398,-530 Z" />
<path fill="#D8D388" d="M-364,-550 L-364,-530 L-381,-520 L-398,-530 L-398,-550 L-381,-560 Z" />
<path fill="#4ee055" d="M-346,-580 L-346,-560 L-364,-550 L-381,-560 L-381,-580 L-364,-590 Z" />
<path fill="#D8D388" d="M-329,-610 L-329,-590 L-346,-580 L-364,-590 L-364,-610 L-346,-620 Z" />
<path fill="#4ee055" d="M-346,-640 L-346,-620 L-364,-610 L-381,-620 L-381,-640 L-364,-650 Z" />
<path fill="#D8D388" d="M-312,-640 L-312,-620 L-329,-610 L-346,-620 L-346,-640 L-329,-650 Z" />
<path fill="#D8D388" d="M-277,-640 L-277,-620 L-294,-610 L-312,-620 L-312,-640 L-294,-650 Z" />
<path fill="#4ee055" d="M-242,-640 L-242,-620 L-260,-610 L-277,-620 L-277,-640 L-260,-650 Z" />
<path fill="#D8D388" d="M-208,-640 L-208,-620 L-225,-610 L-242,-620 L-242,-640 L-225,-650 Z" />
<path fill="#D8D388" d="M-173,-640 L-173,-620 L-191,-610 L-208,-620 L-208,-640 L-191,-650 Z" />
<path fill="#4ee055" d="M-139,-640 L-139,-620 L-156,-610 L-173,-620 L-173,-640 L-156,-650 Z" />
<path fill="#D8D388" d="M-641,110 L-641,130 L-658,140 L-675,130 L-675,110 L-658,100 Z" />
<path fill="#4ee055" d="M-658,80 L-658,100 L-675,110 L-693,100 L-693,80 L-675,70 Z" />
<path fill="#D8D388" d="M-675,50 L-675,70 L-693,80 L-710,70 L-710,50 L-693,40 Z" />
<path fill="#D8D388" d="M-693,20 L-693,40 L-710,50 L-727,40 L-727,20 L-710,10 Z" />
<path fill="#D8D388" d="M-675,-70 L-675,-50 L-693,-40 L-710,-50 L-710,-70 L-693,-80 Z" />
<path fill="#4ee055" d="M-658,-100 L-658,-80 L-675,-70 L-693,-80 L-693,-100 L-675,-110 Z" />
<path fill="#4ee055" d="M-450,-460 L-450,-440 L-468,-430 L-485,-440 L-485,-460 L-468,-470 Z" />
<path fill="#D8D388" d="M-433,-490 L-433,-470 L-450,-460 L-468,-470 L-468,-490 L-450,-500 Z" />
<path fill="#D8D388" d="M-416,-520 L-416,-500 L-433,-490 L-450,-500 L-450,-520 L-433,-530 Z" />
<path fill="#4ee055" d="M-398,-550 L-398,-530 L-416,-520 L-433,-530 L-433,-550 L-416,-560 Z" />
<path fill="#D8D388" d="M-381,-580 L-381,-560 L-398,-550 L-416,-560 L-416,-580 L-398,-590 Z" />
<path fill="#D8D388" d="M-364,-610 L-364,-590 L-381,-580 L-398,-590 L-398,-610 L-381,-620 Z" />
<path fill="#4ee055" d="M-346,-640 L-346,-620 L-364,-610 L-381,-620 L-381,-640 L-364,-650 Z" />
<path fill="#D8D388" d="M-364,-670 L-364,-650 L-381,-640 L-398,-650 L-398,-670 L-381,-680 Z" />
<path fill="#D8D388" d="M-329,-670 L-329,-650 L-346,-640 L-364,-650 L-364,-670 L-346,-680 Z" />
<path fill="#4ee055" d="M-294,-670 L-294,-650 L-312,-640 L-329,-650 L-329,-670 L-312,-680 Z" />
<path fill="#D8D388" d="M-260,-670 L-260,-650 L-277,-640 L-294,-650 L-294,-670 L-277,-680 Z" />
<path fill="#D8D388" d="M-225,-670 L-225,-650 L-242,-640 L-260,-650 L-260,-670 L-242,-680 Z" />
<path fill="#4ee055" d="M-191,-670 L-191,-650 L-208,-640 L-225,-650 L-225,-670 L-208,-680 Z" />
<path fill="#4ee055" d="M225,-670 L225,-650 L208,-640 L191,-650 L191,-670 L208,-680 Z" />
<path fill="#D8D388" d="M260,-670 L260,-650 L242,-640 L225,-650 L225,-670 L242,-680 Z" />
<path fill="#4ee055" d="M-658,140 L-658,160 L-675,170 L-693,160 L-693,140 L-675,130 Z" />
<path fill="#D8D388" d="M-675,110 L-675,130 L-693,140 L-710,130 L-710,110 L-693,100 Z" />
<path fill="#D8D388" d="M-693,80 L-693,100 L-710,110 L-727,100 L-727,80 L-710,70 Z" />
<path fill="#4ee055" d="M-710,50 L-710,70 L-727,80 L-745,70 L-745,50 L-727,40 Z" />
<path fill="#D8D388" d="M-727,20 L-727,40 L-745,50 L-762,40 L-762,20 L-745,10 Z" />
<path fill="#D8D388" d="M-675,-130 L-675,-110 L-693,-100 L-710,-110 L-710,-130 L-693,-140 Z" />
<path fill="#4ee055" d="M-658,-160 L-658,-140 L-675,-130 L-693,-140 L-693,-160 L-675,-170 Z" />
<path fill="#4ee055" d="M-450,-520 L-450,-500 L-468,-490 L-485,-500 L-485,-520 L-468,-530 Z" />
<path fill="#D8D388" d="M-433,-550 L-433,-530 L-450,-520 L-468,-530 L-468,-550 L-450,-560 Z" />
<path fill="#D8D388" d="M-416,-580 L-416,-560 L-433,-550 L-450,-560 L-450,-580 L-433,-590 Z" />
<path fill="#4ee055" d="M-398,-610 L-398,-590 L-416,-580 L-433,-590 L-433,-610 L-416,-620 Z" />
<path fill="#D8D388" d="M-381,-640 L-381,-620 L-398,-610 L-416,-620 L-416,-640 L-398,-650 Z" />
<path fill="#D8D388" d="M-364,-670 L-364,-650 L-381,-640 L-398,-650 L-398,-670 L-381,-680 Z" />
<path fill="#D8D388" d="M-381,-700 L-381,-680 L-398,-670 L-416,-680 L-416,-700 L-398,-710 Z" />
<path fill="#4ee055" d="M-346,-700 L-346,-680 L-364,-670 L-381,-680 L-381,-700 L-364,-710 Z" />
<path fill="#D8D388" d="M-312,-700 L-312,-680 L-329,-670 L-346,-680 L-346,-700 L-329,-710 Z" />
<path fill="#D8D388" d="M-277,-700 L-277,-680 L-294,-670 L-312,-680 L-312,-700 L-294,-710 Z" />
<path fill="#4ee055" d="M-242,-700 L-242,-680 L-260,-670 L-277,-680 L-277,-700 L-260,-710 Z" />
<path fill="#D8D388" d="M-208,-700 L-208,-680 L-225,-670 L-242,-680 L-242,-700 L-225,-710 Z" />
<path fill="#D8D388" d="M-173,-700 L-173,-680 L-191,-670 L-208,-680 L-208,-700 L-191,-710 Z" />
<path fill="#D8D388" d="M208,-700 L208,-680 L191,-670 L173,-680 L173,-700 L191,-710 Z" />
<path fill="#D8D388" d="M242,-700 L242,-680 L225,-670 L208,-680 L208,-700 L225,-710 Z" />
<path fill="#D8D388" d="M-693,140 L-693,160 L-710,170 L-727,160 L-727,140 L-710,130 Z" />
<path fill="#D8D388" d="M-745,50 L-745,70 L-762,80 L-779,70 L-779,50 L-762,40 Z" />
<path fill="#4ee055" d="M-762,20 L-762,40 L-779,50 L-797,40 L-797,20 L-779,10 Z" />
<path fill="#D8D388" d="M-779,-10 L-779,10 L-797,20 L-814,10 L-814,-10 L-797,-20 Z" />
<path fill="#D8D388" d="M-675,-190 L-675,-170 L-693,-160 L-710,-170 L-710,-190 L-693,-200 Z" />
<path fill="#4ee055" d="M-450,-580 L-450,-560 L-468,-550 L-485,-560 L-485,-580 L-468,-590 Z" />
<path fill="#D8D388" d="M-433,-610 L-433,-590 L-450,-580 L-468,-590 L-468,-610 L-450,-620 Z" />
<path fill="#D8D388" d="M-416,-640 L-416,-620 L-433,-610 L-450,-620 L-450,-640 L-433,-650 Z" />
<path fill="#4ee055" d="M-398,-670 L-398,-650 L-416,-640 L-433,-650 L-433,-670 L-416,-680 Z" />
<path fill="#D8D388" d="M-381,-700 L-381,-680 L-398,-670 L-416,-680 L-416,-700 L-398,-710 Z" />
<path fill="#4ee055" d="M-398,-730 L-398,-710 L-416,-700 L-433,-710 L-433,-730 L-416,-740 Z" />
<path fill="#D8D388" d="M-364,-730 L-364,-710 L-381,-700 L-398,-710 L-398,-730 L-381,-740 Z" />
<path fill="#D8D388" d="M-329,-730 L-329,-710 L-346,-700 L-364,-710 L-364,-730 L-346,-740 Z" />
<path fill="#4ee055" d="M-294,-730 L-294,-710 L-312,-700 L-329,-710 L-329,-730 L-312,-740 Z" />
<path fill="#D8D388" d="M-260,-730 L-260,-710 L-277,-700 L-294,-710 L-294,-730 L-277,-740 Z" />
<path fill="#D8D388" d="M-225,-730 L-225,-710 L-242,-700 L-260,-710 L-260,-730 L-242,-740 Z" />
<path fill="#4ee055" d="M-191,-730 L-191,-710 L-208,-700 L-225,-710 L-225,-730 L-208,-740 Z" />
<path fill="#D8D388" d="M-156,-730 L-156,-710 L-173,-700 L-191,-710 L-191,-730 L-173,-740 Z" />
<path fill="#D8D388" d="M-121,-730 L-121,-710 L-139,-700 L-156,-710 L-156,-730 L-139,-740 Z" />
<path fill="#4ee055" d="M-87,-730 L-87,-710 L-104,-700 L-121,-710 L-121,-730 L-104,-740 Z" />
<path fill="#D8D388" d="M156,-730 L156,-710 L139,-700 L121,-710 L121,-730 L139,-740 Z" />
<path fill="#D8D388" d="M191,-730 L191,-710 L173,-700 L156,-710 L156,-730 L173,-740 Z" />
<path fill="#4ee055" d="M225,-730 L225,-710 L208,-700 L191,-710 L191,-730 L208,-740 Z" />
<path fill="#4ee055" d="M-710,170 L-710,190 L-727,200 L-745,190 L-745,170 L-727,160 Z" />
<path fill="#4ee055" d="M-762,80 L-762,100 L-779,110 L-797,100 L-797,80 L-779,70 Z" />
<path fill="#D8D388" d="M-797,20 L-797,40 L-814,50 L-831,40 L-831,20 L-814,10 Z" />
<path fill="#4ee055" d="M-814,-10 L-814,10 L-831,20 L-849,10 L-849,-10 L-831,-20 Z" />
<path fill="#D8D388" d="M-693,-220 L-693,-200 L-710,-190 L-727,-200 L-727,-220 L-710,-230 Z" />
<path fill="#4ee055" d="M-450,-640 L-450,-620 L-468,-610 L-485,-620 L-485,-640 L-468,-650 Z" />
<path fill="#D8D388" d="M-433,-670 L-433,-650 L-450,-640 L-468,-650 L-468,-670 L-450,-680 Z" />
<path fill="#D8D388" d="M-416,-700 L-416,-680 L-433,-670 L-450,-680 L-450,-700 L-433,-710 Z" />
<path fill="#4ee055" d="M-398,-730 L-398,-710 L-416,-700 L-433,-710 L-433,-730 L-416,-740 Z" />
<path fill="#D8D388" d="M-416,-760 L-416,-740 L-433,-730 L-450,-740 L-450,-760 L-433,-770 Z" />
<path fill="#D8D388" d="M-381,-760 L-381,-740 L-398,-730 L-416,-740 L-416,-760 L-398,-770 Z" />
<path fill="#4ee055" d="M-346,-760 L-346,-740 L-364,-730 L-381,-740 L-381,-760 L-364,-770 Z" />
<path fill="#D8D388" d="M-312,-760 L-312,-740 L-329,-730 L-346,-740 L-346,-760 L-329,-770 Z" />
<path fill="#D8D388" d="M-277,-760 L-277,-740 L-294,-730 L-312,-740 L-312,-760 L-294,-770 Z" />
<path fill="#4ee055" d="M-242,-760 L-242,-740 L-260,-730 L-277,-740 L-277,-760 L-260,-770 Z" />
<path fill="#D8D388" d="M-208,-760 L-208,-740 L-225,-730 L-242,-740 L-242,-760 L-225,-770 Z" />
<path fill="#D8D388" d="M-173,-760 L-173,-740 L-191,-730 L-208,-740 L-208,-760 L-191,-770 Z" />
<path fill="#4ee055" d="M-139,-760 L-139,-740 L-156,-730 L-173,-740 L-173,-760 L-156,-770 Z" />
<path fill="#D8D388" d="M-104,-760 L-104,-740 L-121,-730 L-139,-740 L-139,-760 L-121,-770 Z" />
<path fill="#D8D388" d="M-69,-760 L-69,-740 L-87,-730 L-104,-740 L-104,-760 L-87,-770 Z" />
<path fill="#4ee055" d="M-35,-760 L-35,-740 L-52,-730 L-69,-740 L-69,-760 L-52,-770 Z" />
<path fill="#D8D388" d="M104,-760 L104,-740 L87,-730 L69,-740 L69,-760 L87,-770 Z" />
<path fill="#D8D388" d="M139,-760 L139,-740 L121,-730 L104,-740 L104,-760 L121,-770 Z" />
<path fill="#4ee055" d="M173,-760 L173,-740 L156,-730 L139,-740 L139,-760 L156,-770 Z" />
<path fill="#D8D388" d="M208,-760 L208,-740 L191,-730 L173,-740 L173,-760 L191,-770 Z" />
<path fill="#D8D388" d="M242,-760 L242,-740 L225,-730 L208,-740 L208,-760 L225,-770 Z" />
<path fill="#D8D388" d="M-727,200 L-727,220 L-745,230 L-762,220 L-762,200 L-745,190 Z" />
<path fill="#D8D388" d="M-745,170 L-745,190 L-762,200 L-779,190 L-779,170 L-762,160 Z" />
<path fill="#D8D388" d="M-797,80 L-797,100 L-814,110 L-831,100 L-831,80 L-814,70 Z" />
<path fill="#D8D388" d="M-849,-10 L-849,10 L-866,20 L-883,10 L-883,-10 L-866,-20 Z" />
<path fill="#D8D388" d="M-831,-40 L-831,-20 L-849,-10 L-866,-20 L-866,-40 L-849,-50 Z" />
<path fill="#D8D388" d="M-727,-220 L-727,-200 L-745,-190 L-762,-200 L-762,-220 L-745,-230 Z" />
<path fill="#4ee055" d="M-710,-250 L-710,-230 L-727,-220 L-745,-230 L-745,-250 L-727,-260 Z" />
<path fill="#4ee055" d="M-450,-700 L-450,-680 L-468,-670 L-485,-680 L-485,-700 L-468,-710 Z" />
<path fill="#D8D388" d="M-433,-730 L-433,-710 L-450,-700 L-468,-710 L-468,-730 L-450,-740 Z" />
<path fill="#D8D388" d="M-416,-760 L-416,-740 L-433,-730 L-450,-740 L-450,-760 L-433,-770 Z" />
<path fill="#D8D388" d="M-433,-790 L-433,-770 L-450,-760 L-468,-770 L-468,-790 L-450,-800 Z" />
<path fill="#4ee055" d="M-398,-790 L-398,-770 L-416,-760 L-433,-770 L-433,-790 L-416,-800 Z" />
<path fill="#D8D388" d="M-364,-790 L-364,-770 L-381,-760 L-398,-770 L-398,-790 L-381,-800 Z" />
<path fill="#D8D388" d="M-329,-790 L-329,-770 L-346,-760 L-364,-770 L-364,-790 L-346,-800 Z" />
<path fill="#4ee055" d="M-294,-790 L-294,-770 L-312,-760 L-329,-770 L-329,-790 L-312,-800 Z" />
<path fill="#D8D388" d="M-260,-790 L-260,-770 L-277,-760 L-294,-770 L-294,-790 L-277,-800 Z" />
<path fill="#D8D388" d="M-225,-790 L-225,-770 L-242,-760 L-260,-770 L-260,-790 L-242,-800 Z" />
<path fill="#4ee055" d="M-191,-790 L-191,-770 L-208,-760 L-225,-770 L-225,-790 L-208,-800 Z" />
<path fill="#D8D388" d="M-156,-790 L-156,-770 L-173,-760 L-191,-770 L-191,-790 L-173,-800 Z" />
<path fill="#D8D388" d="M-121,-790 L-121,-770 L-139,-760 L-156,-770 L-156,-790 L-139,-800 Z" />
<path fill="#4ee055" d="M-87,-790 L-87,-770 L-104,-760 L-121,-770 L-121,-790 L-104,-800 Z" />
<path fill="#D8D388" d="M-52,-790 L-52,-770 L-69,-760 L-87,-770 L-87,-790 L-69,-800 Z" />
<path fill="#D8D388" d="M-17,-790 L-17,-770 L-35,-760 L-52,-770 L-52,-790 L-35,-800 Z" />
<path fill="#4ee055" d="M17,-790 L17,-770 L0,-760 L-17,-770 L-17,-790 L0,-800 Z" />
<path fill="#D8D388" d="M52,-790 L52,-770 L35,-760 L17,-770 L17,-790 L35,-800 Z" />
<path fill="#D8D388" d="M87,-790 L87,-770 L69,-760 L52,-770 L52,-790 L69,-800 Z" />
<path fill="#D8D388" d="M-745,230 L-745,250 L-762,260 L-779,250 L-779,230 L-762,220 Z" />
<path fill="#4ee055" d="M-762,200 L-762,220 L-779,230 L-797,220 L-797,200 L-779,190 Z" />
<path fill="#4ee055" d="M-866,20 L-866,40 L-883,50 L-901,40 L-901,20 L-883,10 Z" />
<path fill="#D8D388" d="M-883,-10 L-883,10 L-901,20 L-918,10 L-918,-10 L-901,-20 Z" />
<path fill="#4ee055" d="M-866,-40 L-866,-20 L-883,-10 L-901,-20 L-901,-40 L-883,-50 Z" />
<path fill="#D8D388" d="M-745,-250 L-745,-230 L-762,-220 L-779,-230 L-779,-250 L-762,-260 Z" />
<path fill="#4ee055" d="M-450,-760 L-450,-740 L-468,-730 L-485,-740 L-485,-760 L-468,-770 Z" />
<path fill="#D8D388" d="M-433,-790 L-433,-770 L-450,-760 L-468,-770 L-468,-790 L-450,-800 Z" />
<path fill="#D8D388" d="M-416,-820 L-416,-800 L-433,-790 L-450,-800 L-450,-820 L-433,-830 Z" />
<path fill="#D8D388" d="M-381,-820 L-381,-800 L-398,-790 L-416,-800 L-416,-820 L-398,-830 Z" />
<path fill="#4ee055" d="M-346,-820 L-346,-800 L-364,-790 L-381,-800 L-381,-820 L-364,-830 Z" />
<path fill="#D8D388" d="M-312,-820 L-312,-800 L-329,-790 L-346,-800 L-346,-820 L-329,-830 Z" />
<path fill="#D8D388" d="M-277,-820 L-277,-800 L-294,-790 L-312,-800 L-312,-820 L-294,-830 Z" />
<path fill="#4ee055" d="M-242,-820 L-242,-800 L-260,-790 L-277,-800 L-277,-820 L-260,-830 Z" />
<path fill="#D8D388" d="M-208,-820 L-208,-800 L-225,-790 L-242,-800 L-242,-820 L-225,-830 Z" />
<path fill="#D8D388" d="M-173,-820 L-173,-800 L-191,-790 L-208,-800 L-208,-820 L-191,-830 Z" />
<path fill="#4ee055" d="M-139,-820 L-139,-800 L-156,-790 L-173,-800 L-173,-820 L-156,-830 Z" />
<path fill="#D8D388" d="M-104,-820 L-104,-800 L-121,-790 L-139,-800 L-139,-820 L-121,-830 Z" />
<path fill="#D8D388" d="M-69,-820 L-69,-800 L-87,-790 L-104,-800 L-104,-820 L-87,-830 Z" />
<path fill="#4ee055" d="M-35,-820 L-35,-800 L-52,-790 L-69,-800 L-69,-820 L-52,-830 Z" />
<path fill="#D8D388" d="M0,-820 L0,-800 L-17,-790 L-35,-800 L-35,-820 L-17,-830 Z" />
<path fill="#D8D388" d="M35,-820 L35,-800 L17,-790 L0,-800 L0,-820 L17,-830 Z" />
<path fill="#D8D388" d="M-797,200 L-797,220 L-814,230 L-831,220 L-831,200 L-814,190 Z" />
<path fill="#D8D388" d="M-901,20 L-901,40 L-918,50 L-935,40 L-935,20 L-918,10 Z" />
<path fill="#D8D388" d="M-901,-40 L-901,-20 L-918,-10 L-935,-20 L-935,-40 L-918,-50 Z" />
<path fill="#D8D388" d="M-883,-70 L-883,-50 L-901,-40 L-918,-50 L-918,-70 L-901,-80 Z" />
<path fill="#D8D388" d="M-797,-220 L-797,-200 L-814,-190 L-831,-200 L-831,-220 L-814,-230 Z" />
<path fill="#D8D388" d="M-779,-250 L-779,-230 L-797,-220 L-814,-230 L-814,-250 L-797,-260 Z" />
<path fill="#4ee055" d="M-762,-280 L-762,-260 L-779,-250 L-797,-260 L-797,-280 L-779,-290 Z" />
<path fill="#D8D388" d="M-433,-850 L-433,-830 L-450,-820 L-468,-830 L-468,-850 L-450,-860 Z" />
<path fill="#4ee055" d="M-398,-850 L-398,-830 L-416,-820 L-433,-830 L-433,-850 L-416,-860 Z" />
<path fill="#D8D388" d="M-364,-850 L-364,-830 L-381,-820 L-398,-830 L-398,-850 L-381,-860 Z" />
<path fill="#D8D388" d="M-329,-850 L-329,-830 L-346,-820 L-364,-830 L-364,-850 L-346,-860 Z" />
<path fill="#4ee055" d="M-294,-850 L-294,-830 L-312,-820 L-329,-830 L-329,-850 L-312,-860 Z" />
<path fill="#D8D388" d="M-260,-850 L-260,-830 L-277,-820 L-294,-830 L-294,-850 L-277,-860 Z" />
<path fill="#D8D388" d="M-225,-850 L-225,-830 L-242,-820 L-260,-830 L-260,-850 L-242,-860 Z" />
<path fill="#4ee055" d="M-191,-850 L-191,-830 L-208,-820 L-225,-830 L-225,-850 L-208,-860 Z" />
<path fill="#D8D388" d="M-156,-850 L-156,-830 L-173,-820 L-191,-830 L-191,-850 L-173,-860 Z" />
<path fill="#D8D388" d="M-121,-850 L-121,-830 L-139,-820 L-156,-830 L-156,-850 L-139,-860 Z" />
<path fill="#4ee055" d="M-87,-850 L-87,-830 L-104,-820 L-121,-830 L-121,-850 L-104,-860 Z" />
<path fill="#D8D388" d="M191,-850 L191,-830 L173,-820 L156,-830 L156,-850 L173,-860 Z" />
<path fill="#D8D388" d="M-831,200 L-831,220 L-849,230 L-866,220 L-866,200 L-849,190 Z" />
<path fill="#D8D388" d="M-935,20 L-935,40 L-953,50 L-970,40 L-970,20 L-953,10 Z" />
<path fill="#4ee055" d="M-918,-70 L-918,-50 L-935,-40 L-953,-50 L-953,-70 L-935,-80 Z" />
<path fill="#4ee055" d="M-866,-160 L-866,-140 L-883,-130 L-901,-140 L-901,-160 L-883,-170 Z" />
<path fill="#D8D388" d="M-849,-190 L-849,-170 L-866,-160 L-883,-170 L-883,-190 L-866,-200 Z" />
<path fill="#D8D388" d="M-831,-220 L-831,-200 L-849,-190 L-866,-200 L-866,-220 L-849,-230 Z" />
<path fill="#4ee055" d="M-814,-250 L-814,-230 L-831,-220 L-849,-230 L-849,-250 L-831,-260 Z" />
<path fill="#D8D388" d="M-797,-280 L-797,-260 L-814,-250 L-831,-260 L-831,-280 L-814,-290 Z" />
<path fill="#D8D388" d="M-416,-880 L-416,-860 L-433,-850 L-450,-860 L-450,-880 L-433,-890 Z" />
<path fill="#D8D388" d="M-381,-880 L-381,-860 L-398,-850 L-416,-860 L-416,-880 L-398,-890 Z" />
<path fill="#4ee055" d="M-346,-880 L-346,-860 L-364,-850 L-381,-860 L-381,-880 L-364,-890 Z" />
<path fill="#D8D388" d="M-312,-880 L-312,-860 L-329,-850 L-346,-860 L-346,-880 L-329,-890 Z" />
<path fill="#D8D388" d="M-277,-880 L-277,-860 L-294,-850 L-312,-860 L-312,-880 L-294,-890 Z" />
<path fill="#4ee055" d="M-242,-880 L-242,-860 L-260,-850 L-277,-860 L-277,-880 L-260,-890 Z" />
<path fill="#D8D388" d="M-208,-880 L-208,-860 L-225,-850 L-242,-860 L-242,-880 L-225,-890 Z" />
<path fill="#4ee055" d="M-139,-880 L-139,-860 L-156,-850 L-173,-860 L-173,-880 L-156,-890 Z" />
<path fill="#D8D388" d="M-104,-880 L-104,-860 L-121,-850 L-139,-860 L-139,-880 L-121,-890 Z" />
<path fill="#D8D388" d="M-69,-880 L-69,-860 L-87,-850 L-104,-860 L-104,-880 L-87,-890 Z" />
<path fill="#4ee055" d="M173,-880 L173,-860 L156,-850 L139,-860 L139,-880 L156,-890 Z" />
<path fill="#D8D388" d="M208,-880 L208,-860 L191,-850 L173,-860 L173,-880 L191,-890 Z" />
<path fill="#D8D388" d="M-953,-70 L-953,-50 L-970,-40 L-987,-50 L-987,-70 L-970,-80 Z" />
<path fill="#D8D388" d="M-935,-100 L-935,-80 L-953,-70 L-970,-80 L-970,-100 L-953,-110 Z" />
<path fill="#4ee055" d="M-918,-130 L-918,-110 L-935,-100 L-953,-110 L-953,-130 L-935,-140 Z" />
<path fill="#D8D388" d="M-883,-190 L-883,-170 L-901,-160 L-918,-170 L-918,-190 L-901,-200 Z" />
<path fill="#D8D388" d="M-831,-280 L-831,-260 L-849,-250 L-866,-260 L-866,-280 L-849,-290 Z" />
<path fill="#4ee055" d="M-398,-910 L-398,-890 L-416,-880 L-433,-890 L-433,-910 L-416,-920 Z" />
<path fill="#D8D388" d="M-364,-910 L-364,-890 L-381,-880 L-398,-890 L-398,-910 L-381,-920 Z" />
<path fill="#D8D388" d="M-329,-910 L-329,-890 L-346,-880 L-364,-890 L-364,-910 L-346,-920 Z" />
<path fill="#4ee055" d="M-294,-910 L-294,-890 L-312,-880 L-329,-890 L-329,-910 L-312,-920 Z" />
<path fill="#D8D388" d="M-260,-910 L-260,-890 L-277,-880 L-294,-890 L-294,-910 L-277,-920 Z" />
<path fill="#D8D388" d="M-121,-910 L-121,-890 L-139,-880 L-156,-890 L-156,-910 L-139,-920 Z" />
<path fill="#4ee055" d="M-87,-910 L-87,-890 L-104,-880 L-121,-890 L-121,-910 L-104,-920 Z" />
<path fill="#D8D388" d="M-52,-910 L-52,-890 L-69,-880 L-87,-890 L-87,-910 L-69,-920 Z" />
<path fill="#D8D388" d="M-17,-910 L-17,-890 L-35,-880 L-52,-890 L-52,-910 L-35,-920 Z" />
<path fill="#4ee055" d="M121,-910 L121,-890 L104,-880 L87,-890 L87,-910 L104,-920 Z" />
<path fill="#D8D388" d="M156,-910 L156,-890 L139,-880 L121,-890 L121,-910 L139,-920 Z" />
<path fill="#D8D388" d="M191,-910 L191,-890 L173,-880 L156,-890 L156,-910 L173,-920 Z" />
<path fill="#D8D388" d="M-953,-130 L-953,-110 L-970,-100 L-987,-110 L-987,-130 L-970,-140 Z" />
<path fill="#4ee055" d="M-866,-280 L-866,-260 L-883,-250 L-901,-260 L-901,-280 L-883,-290 Z" />
<path fill="#D8D388" d="M-381,-940 L-381,-920 L-398,-910 L-416,-920 L-416,-940 L-398,-950 Z" />
<path fill="#4ee055" d="M-346,-940 L-346,-920 L-364,-910 L-381,-920 L-381,-940 L-364,-950 Z" />
<path fill="#D8D388" d="M-69,-940 L-69,-920 L-87,-910 L-104,-920 L-104,-940 L-87,-950 Z" />
<path fill="#4ee055" d="M-35,-940 L-35,-920 L-52,-910 L-69,-920 L-69,-940 L-52,-950 Z" />
<path fill="#D8D388" d="M0,-940 L0,-920 L-17,-910 L-35,-920 L-35,-940 L-17,-950 Z" />
<path fill="#D8D388" d="M35,-940 L35,-920 L17,-910 L0,-920 L0,-940 L17,-950 Z" />
<path fill="#4ee055" d="M69,-940 L69,-920 L52,-910 L35,-920 L35,-940 L52,-950 Z" />
<path fill="#D8D388" d="M104,-940 L104,-920 L87,-910 L69,-920 L69,-940 L87,-950 Z" />
<path fill="#D8D388" d="M139,-940 L139,-920 L121,-910 L104,-920 L104,-940 L121,-950 Z" />
<path fill="#4ee055" d="M173,-940 L173,-920 L156,-910 L139,-920 L139,-940 L156,-950 Z" />
<path fill="#D8D388" d="M208,-940 L208,-920 L191,-910 L173,-920 L173,-940 L191,-950 Z" />
</g>
</svg>