<?xml version="1.0" encoding="utf-8"?>
<svg viewBox="-743.0497964470484 -733.0 1105.0484152289437 1166.0" preserveAspectRatio="xMidYMid meet" version="1.1" baseProfile="full" xmlns="http://www.w3.org/2000/svg" style="background-color: black;">
<g style="stroke:#ffffff; stroke-width: 1; stroke-linejoin: round;">
<path fill="#4ee055" d="M17,-10 L17,10 L0,20 L-17,10 L-17,-10 L0,-20 Z" />
<path fill="#D8D388" d="M0,-40 L0,-20 L-17,-10 L-35,-20 L-35,-40 L-17,-50 Z" />
<path fill="#D8D388" d="M35,-40 L35,-20 L17,-10 L0,-20 L0,-40 L17,-50 Z" />
<path fill="#D8D388" d="M52,-10 L52,10 L35,20 L17,10 L17,-10 L35,-20 Z" />
<path fill="#D8D388" d="M35,20 L35,40 L17,50 L0,40 L0,20 L17,10 Z" />
<path fill="#D8D388" d="M0,20 L0,40 L-17,50 L-35,40 L-35,20 L-17,10 Z" />
<path fill="#D8D388" d="M-17,-10 L-17,10 L-35,20 L-52,10 L-52,-10 L-35,-20 Z" />
<path fill="#D8D388" d="M0,-40 L0,-20 L-17,-10 L-35,-20 L-35,-40 L-17,-50 Z" />
<path fill="#D8D388" d="M-17,-70 L-17,-50 L-35,-40 L-52,-50 L-52,-70 L-35,-80 Z" />
<path fill="#4ee055" d="M17,-70 L17,-50 L0,-40 L-17,-50 L-17,-70 L0,-80 Z" />
<path fill="#D8D388" d="M52,-70 L52,-50 L35,-40 L17,-50 L17,-70 L35,-80 Z" />
<path fill="#4ee055" d="M69,-40 L69,-20 L52,-10 L35,-20 L35,-40 L52,-50 Z" />
<path fill="#D8D388" d="M87,-10 L87,10 L69,20 L52,10 L52,-10 L69,-20 Z" />
<path fill="#4ee055" d="M69,20 L69,40 L52,50 L35,40 L35,20 L52,10 Z" />
<path fill="#D8D388" d="M52,50 L52,70 L35,80 L17,70 L17,50 L35,40 Z" />
<path fill="#4ee055" d="M17,50 L17,70 L0,80 L-17,70 L-17,50 L0,40 Z" />
<path fill="#D8D388" d="M-17,50 L-17,70 L-35,80 L-52,70 L-52,50 L-35,40 Z" />
<path fill="#4ee055" d="M-35,20 L-35,40 L-52,50 L-69,40 L-69,20 L-52,10 Z" />
<path fill="#D8D388" d="M-52,-10 L-52,10 L-69,20 L-87,10 L-87,-10 L-69,-20 Z" />
<path fill="#4ee055" d="M-35,-40 L-35,-20 L-52,-10 L-69,-20 L-69,-40 L-52,-50 Z" />
<path fill="#D8D388" d="M-17,-70 L-17,-50 L-35,-40 L-52,-50 L-52,-70 L-35,-80 Z" />
<path fill="#4ee055" d="M-35,-100 L-35,-80 L-52,-70 L-69,-80 L-69,-100 L-52,-110 Z" />
<path fill="#D8D388" d="M0,-100 L0,-80 L-17,-70 L-35,-80 L-35,-100 L-17,-110 Z" />
<path fill="#D8D388" d="M35,-100 L35,-80 L17,-70 L0,-80 L0,-100 L17,-110 Z" />
<path fill="#4ee055" d="M69,-100 L69,-80 L52,-70 L35,-80 L35,-100 L52,-110 Z" />
<path fill="#D8D388" d="M87,-70 L87,-50 L69,-40 L52,-50 L52,-70 L69,-80 Z" />
<path fill="#D8D388" d="M104,-40 L104,-20 L87,-10 L69,-20 L69,-40 L87,-50 Z" />
<path fill="#4ee055" d="M121,-10 L121,10 L104,20 L87,10 L87,-10 L104,-20 Z" />
<path fill="#D8D388" d="M104,20 L104,40 L87,50 L69,40 L69,20 L87,10 Z" />
<path fill="#D8D388" d="M87,50 L87,70 L69,80 L52,70 L52,50 L69,40 Z" />
<path fill="#4ee055" d="M69,80 L69,100 L52,110 L35,100 L35,80 L52,70 Z" />
<path fill="#D8D388" d="M35,80 L35,100 L17,110 L0,100 L0,80 L17,70 Z" />
<path fill="#D8D388" d="M0,80 L0,100 L-17,110 L-35,100 L-35,80 L-17,70 Z" />
<path fill="#D8D388" d="M-69,20 L-69,40 L-87,50 L-104,40 L-104,20 L-87,10 Z" />
<path fill="#4ee055" d="M-87,-10 L-87,10 L-104,20 L-121,10 L-121,-10 L-104,-20 Z" />
<path fill="#D8D388" d="M-69,-40 L-69,-20 L-87,-10 L-104,-20 L-104,-40 L-87,-50 Z" />
<path fill="#D8D388" d="M-52,-70 L-52,-50 L-69,-40 L-87,-50 L-87,-70 L-69,-80 Z" />
<path fill="#4ee055" d="M-35,-100 L-35,-80 L-52,-70 L-69,-80 L-69,-100 L-52,-110 Z" />
<path fill="#D8D388" d="M-52,-130 L-52,-110 L-69,-100 L-87,-110 L-87,-130 L-69,-140 Z" />
<path fill="#D8D388" d="M-17,-130 L-17,-110 L-35,-100 L-52,-110 L-52,-130 L-35,-140 Z" />
<path fill="#4ee055" d="M17,-130 L17,-110 L0,-100 L-17,-110 L-17,-130 L0,-140 Z" />
<path fill="#D8D388" d="M52,-130 L52,-110 L35,-100 L17,-110 L17,-130 L35,-140 Z" />
<path fill="#D8D388" d="M87,-130 L87,-110 L69,-100 L52,-110 L52,-130 L69,-140 Z" />
<path fill="#D8D388" d="M104,-100 L104,-80 L87,-70 L69,-80 L69,-100 L87,-110 Z" />
<path fill="#4ee055" d="M121,-70 L121,-50 L104,-40 L87,-50 L87,-70 L104,-80 Z" />
<path fill="#D8D388" d="M139,-40 L139,-20 L121,-10 L104,-20 L104,-40 L121,-50 Z" />
<path fill="#D8D388" d="M156,-10 L156,10 L139,20 L121,10 L121,-10 L139,-20 Z" />
<path fill="#D8D388" d="M139,20 L139,40 L121,50 L104,40 L104,20 L121,10 Z" />
<path fill="#4ee055" d="M121,50 L121,70 L104,80 L87,70 L87,50 L104,40 Z" />
<path fill="#D8D388" d="M104,80 L104,100 L87,110 L69,100 L69,80 L87,70 Z" />
<path fill="#D8D388" d="M87,110 L87,130 L69,140 L52,130 L52,110 L69,100 Z" />
<path fill="#D8D388" d="M52,110 L52,130 L35,140 L17,130 L17,110 L35,100 Z" />
<path fill="#D8D388" d="M-69,80 L-69,100 L-87,110 L-104,100 L-104,80 L-87,70 Z" />
<path fill="#D8D388" d="M-104,20 L-104,40 L-121,50 L-139,40 L-139,20 L-121,10 Z" />
<path fill="#D8D388" d="M-121,-10 L-121,10 L-139,20 L-156,10 L-156,-10 L-139,-20 Z" />
<path fill="#D8D388" d="M-104,-40 L-104,-20 L-121,-10 L-139,-20 L-139,-40 L-121,-50 Z" />
<path fill="#4ee055" d="M-87,-70 L-87,-50 L-104,-40 L-121,-50 L-121,-70 L-104,-80 Z" />
<path fill="#D8D388" d="M-69,-100 L-69,-80 L-87,-70 L-104,-80 L-104,-100 L-87,-110 Z" />
<path fill="#D8D388" d="M-52,-130 L-52,-110 L-69,-100 L-87,-110 L-87,-130 L-69,-140 Z" />
<path fill="#D8D388" d="M-69,-160 L-69,-140 L-87,-130 L-104,-140 L-104,-160 L-87,-170 Z" />
<path fill="#4ee055" d="M-35,-160 L-35,-140 L-52,-130 L-69,-140 L-69,-160 L-52,-170 Z" />
<path fill="#D8D388" d="M0,-160 L0,-140 L-17,-130 L-35,-140 L-35,-160 L-17,-170 Z" />
<path fill="#D8D388" d="M35,-160 L35,-140 L17,-130 L0,-140 L0,-160 L17,-170 Z" />
<path fill="#4ee055" d="M69,-160 L69,-140 L52,-130 L35,-140 L35,-160 L52,-170 Z" />
<path fill="#D8D388" d="M104,-160 L104,-140 L87,-130 L69,-140 L69,-160 L87,-170 Z" />
<path fill="#D8D388" d="M139,-100 L139,-80 L121,-70 L104,-80 L104,-100 L121,-110 Z" />
<path fill="#D8D388" d="M156,-70 L156,-50 L139,-40 L121,-50 L121,-70 L139,-80 Z" />
<path fill="#4ee055" d="M173,-40 L173,-20 L156,-10 L139,-20 L139,-40 L156,-50 Z" />
<path fill="#D8D388" d="M191,-10 L191,10 L173,20 L156,10 L156,-10 L173,-20 Z" />
<path fill="#4ee055" d="M173,20 L173,40 L156,50 L139,40 L139,20 L156,10 Z" />
<path fill="#D8D388" d="M156,50 L156,70 L139,80 L121,70 L121,50 L139,40 Z" />
<path fill="#D8D388" d="M139,80 L139,100 L121,110 L104,100 L104,80 L121,70 Z" />
<path fill="#D8D388" d="M104,140 L104,160 L87,170 L69,160 L69,140 L87,130 Z" />
<path fill="#D8D388" d="M-121,50 L-121,70 L-139,80 L-156,70 L-156,50 L-139,40 Z" />
<path fill="#4ee055" d="M-139,20 L-139,40 L-156,50 L-173,40 L-173,20 L-156,10 Z" />
<path fill="#D8D388" d="M-156,-10 L-156,10 L-173,20 L-191,10 L-191,-10 L-173,-20 Z" />
<path fill="#4ee055" d="M-139,-40 L-139,-20 L-156,-10 L-173,-20 L-173,-40 L-156,-50 Z" />
<path fill="#D8D388" d="M-121,-70 L-121,-50 L-139,-40 L-156,-50 L-156,-70 L-139,-80 Z" />
<path fill="#D8D388" d="M-104,-100 L-104,-80 L-121,-70 L-139,-80 L-139,-100 L-121,-110 Z" />
<path fill="#4ee055" d="M-87,-130 L-87,-110 L-104,-100 L-121,-110 L-121,-130 L-104,-140 Z" />
<path fill="#D8D388" d="M-69,-160 L-69,-140 L-87,-130 L-104,-140 L-104,-160 L-87,-170 Z" />
<path fill="#4ee055" d="M-87,-190 L-87,-170 L-104,-160 L-121,-170 L-121,-190 L-104,-200 Z" />
<path fill="#D8D388" d="M-52,-190 L-52,-170 L-69,-160 L-87,-170 L-87,-190 L-69,-200 Z" />
<path fill="#D8D388" d="M-17,-190 L-17,-170 L-35,-160 L-52,-170 L-52,-190 L-35,-200 Z" />
<path fill="#4ee055" d="M17,-190 L17,-170 L0,-160 L-17,-170 L-17,-190 L0,-200 Z" />
<path fill="#D8D388" d="M52,-190 L52,-170 L35,-160 L17,-170 L17,-190 L35,-200 Z" />
<path fill="#D8D388" d="M139,-160 L139,-140 L121,-130 L104,-140 L104,-160 L121,-170 Z" />
<path fill="#4ee055" d="M173,-100 L173,-80 L156,-70 L139,-80 L139,-100 L156,-110 Z" />
<path fill="#D8D388" d="M191,-70 L191,-50 L173,-40 L156,-50 L156,-70 L173,-80 Z" />
<path fill="#D8D388" d="M208,-40 L208,-20 L191,-10 L173,-20 L173,-40 L191,-50 Z" />
<path fill="#4ee055" d="M225,-10 L225,10 L208,20 L191,10 L191,-10 L208,-20 Z" />
<path fill="#D8D388" d="M208,20 L208,40 L191,50 L173,40 L173,20 L191,10 Z" />
<path fill="#D8D388" d="M191,50 L191,70 L173,80 L156,70 L156,50 L173,40 Z" />
<path fill="#4ee055" d="M173,80 L173,100 L156,110 L139,100 L139,80 L156,70 Z" />
<path fill="#D8D388" d="M156,110 L156,130 L139,140 L121,130 L121,110 L139,100 Z" />
<path fill="#4ee055" d="M121,170 L121,190 L104,200 L87,190 L87,170 L104,160 Z" />
<path fill="#4ee055" d="M-139,80 L-139,100 L-156,110 L-173,100 L-173,80 L-156,70 Z" />
<path fill="#D8D388" d="M-156,50 L-156,70 L-173,80 L-191,70 L-191,50 L-173,40 Z" />
<path fill="#D8D388" d="M-173,20 L-173,40 L-191,50 L-208,40 L-208,20 L-191,10 Z" />
<path fill="#4ee055" d="M-191,-10 L-191,10 L-208,20 L-225,10 L-225,-10 L-208,-20 Z" />
<path fill="#D8D388" d="M-173,-40 L-173,-20 L-191,-10 L-208,-20 L-208,-40 L-191,-50 Z" />
<path fill="#D8D388" d="M-156,-70 L-156,-50 L-173,-40 L-191,-50 L-191,-70 L-173,-80 Z" />
<path fill="#4ee055" d="M-139,-100 L-139,-80 L-156,-70 L-173,-80 L-173,-100 L-156,-110 Z" />
<path fill="#D8D388" d="M-121,-130 L-121,-110 L-139,-100 L-156,-110 L-156,-130 L-139,-140 Z" />
<path fill="#D8D388" d="M-104,-160 L-104,-140 L-121,-130 L-139,-140 L-139,-160 L-121,-170 Z" />
<path fill="#4ee055" d="M-87,-190 L-87,-170 L-104,-160 L-121,-170 L-121,-190 L-104,-200 Z" />
<path fill="#D8D388" d="M-104,-220 L-104,-200 L-121,-190 L-139,-200 L-139,-220 L-121,-230 Z" />
<path fill="#D8D388" d="M-69,-220 L-69,-200 L-87,-190 L-104,-200 L-104,-220 L-87,-230 Z" />
<path fill="#4ee055" d="M-35,-220 L-35,-200 L-52,-190 L-69,-200 L-69,-220 L-52,-230 Z" />
<path fill="#D8D388" d="M0,-220 L0,-200 L-17,-190 L-35,-200 L-35,-220 L-17,-230 Z" />
<path fill="#D8D388" d="M35,-220 L35,-200 L17,-190 L0,-200 L0,-220 L17,-230 Z" />
<path fill="#4ee055" d="M69,-220 L69,-200 L52,-190 L35,-200 L35,-220 L52,-230 Z" />
<path fill="#4ee055" d="M225,-70 L225,-50 L208,-40 L191,-50 L191,-70 L208,-80 Z" />
<path fill="#4ee055" d="M225,50 L225,70 L208,80 L191,70 L191,50 L208,40 Z" />
<path fill="#D8D388" d="M208,80 L208,100 L191,110 L173,100 L173,80 L191,70 Z" />
<path fill="#D8D388" d="M191,110 L191,130 L173,140 L156,130 L156,110 L173,100 Z" />
<path fill="#D8D388" d="M-156,110 L-156,130 L-173,140 L-191,130 L-191,110 L-173,100 Z" />
<path fill="#D8D388" d="M-173,80 L-173,100 L-191,110 L-208,100 L-208,80 L-191,70 Z" />
<path fill="#4ee055" d="M-191,50 L-191,70 L-208,80 L-225,70 L-225,50 L-208,40 Z" />
<path fill="#D8D388" d="M-208,20 L-208,40 L-225,50 L-242,40 L-242,20 L-225,10 Z" />
<path fill="#D8D388" d="M-225,-10 L-225,10 L-242,20 L-260,10 L-260,-10 L-242,-20 Z" />
<path fill="#D8D388" d="M-208,-40 L-208,-20 L-225,-10 L-242,-20 L-242,-40 L-225,-50 Z" />
<path fill="#4ee055" d="M-191,-70 L-191,-50 L-208,-40 L-225,-50 L-225,-70 L-208,-80 Z" />
<path fill="#D8D388" d="M-173,-100 L-173,-80 L-191,-70 L-208,-80 L-208,-100 L-191,-110 Z" />
<path fill="#D8D388" d="M-156,-130 L-156,-110 L-173,-100 L-191,-110 L-191,-130 L-173,-140 Z" />
<path fill="#4ee055" d="M-139,-160 L-139,-140 L-156,-130 L-173,-140 L-173,-160 L-156,-170 Z" />
<path fill="#D8D388" d="M-121,-190 L-121,-170 L-139,-160 L-156,-170 L-156,-190 L-139,-200 Z" />
<path fill="#D8D388" d="M-104,-220 L-104,-200 L-121,-190 L-139,-200 L-139,-220 L-121,-230 Z" />
<path fill="#D8D388" d="M-121,-250 L-121,-230 L-139,-220 L-156,-230 L-156,-250 L-139,-260 Z" />
<path fill="#4ee055" d="M-87,-250 L-87,-230 L-104,-220 L-121,-230 L-121,-250 L-104,-260 Z" />
<path fill="#D8D388" d="M-52,-250 L-52,-230 L-69,-220 L-87,-230 L-87,-250 L-69,-260 Z" />
<path fill="#D8D388" d="M-17,-250 L-17,-230 L-35,-220 L-52,-230 L-52,-250 L-35,-260 Z" />
<path fill="#4ee055" d="M17,-250 L17,-230 L0,-220 L-17,-230 L-17,-250 L0,-260 Z" />
<path fill="#D8D388" d="M52,-250 L52,-230 L35,-220 L17,-230 L17,-250 L35,-260 Z" />
<path fill="#D8D388" d="M87,-250 L87,-230 L69,-220 L52,-230 L52,-250 L69,-260 Z" />
<path fill="#4ee055" d="M121,-250 L121,-230 L104,-220 L87,-230 L87,-250 L104,-260 Z" />
<path fill="#D8D388" d="M242,80 L242,100 L225,110 L208,100 L208,80 L225,70 Z" />
<path fill="#4ee055" d="M225,110 L225,130 L208,140 L191,130 L191,110 L208,100 Z" />
<path fill="#D8D388" d="M208,140 L208,160 L191,170 L173,160 L173,140 L191,130 Z" />
<path fill="#D8D388" d="M-156,170 L-156,190 L-173,200 L-191,190 L-191,170 L-173,160 Z" />
<path fill="#D8D388" d="M-173,140 L-173,160 L-191,170 L-208,160 L-208,140 L-191,130 Z" />
<path fill="#4ee055" d="M-191,110 L-191,130 L-208,140 L-225,130 L-225,110 L-208,100 Z" />
<path fill="#D8D388" d="M-208,80 L-208,100 L-225,110 L-242,100 L-242,80 L-225,70 Z" />
<path fill="#D8D388" d="M-225,50 L-225,70 L-242,80 L-260,70 L-260,50 L-242,40 Z" />
<path fill="#4ee055" d="M-242,20 L-242,40 L-260,50 L-277,40 L-277,20 L-260,10 Z" />
<path fill="#D8D388" d="M-260,-10 L-260,10 L-277,20 L-294,10 L-294,-10 L-277,-20 Z" />
<path fill="#4ee055" d="M-242,-40 L-242,-20 L-260,-10 L-277,-20 L-277,-40 L-260,-50 Z" />
<path fill="#D8D388" d="M-225,-70 L-225,-50 L-242,-40 L-260,-50 L-260,-70 L-242,-80 Z" />
<path fill="#D8D388" d="M-208,-100 L-208,-80 L-225,-70 L-242,-80 L-242,-100 L-225,-110 Z" />
<path fill="#4ee055" d="M-191,-130 L-191,-110 L-208,-100 L-225,-110 L-225,-130 L-208,-140 Z" />
<path fill="#D8D388" d="M-173,-160 L-173,-140 L-191,-130 L-208,-140 L-208,-160 L-191,-170 Z" />
<path fill="#D8D388" d="M-156,-190 L-156,-170 L-173,-160 L-191,-170 L-191,-190 L-173,-200 Z" />
<path fill="#4ee055" d="M-139,-220 L-139,-200 L-156,-190 L-173,-200 L-173,-220 L-156,-230 Z" />
<path fill="#D8D388" d="M-121,-250 L-121,-230 L-139,-220 L-156,-230 L-156,-250 L-139,-260 Z" />
<path fill="#4ee055" d="M-139,-280 L-139,-260 L-156,-250 L-173,-260 L-173,-280 L-156,-290 Z" />
<path fill="#D8D388" d="M-104,-280 L-104,-260 L-121,-250 L-139,-260 L-139,-280 L-121,-290 Z" />
<path fill="#D8D388" d="M-69,-280 L-69,-260 L-87,-250 L-104,-260 L-104,-280 L-87,-290 Z" />
<path fill="#4ee055" d="M-35,-280 L-35,-260 L-52,-250 L-69,-260 L-69,-280 L-52,-290 Z" />
<path fill="#D8D388" d="M0,-280 L0,-260 L-17,-250 L-35,-260 L-35,-280 L-17,-290 Z" />
<path fill="#D8D388" d="M35,-280 L35,-260 L17,-250 L0,-260 L0,-280 L17,-290 Z" />
<path fill="#4ee055" d="M69,-280 L69,-260 L52,-250 L35,-260 L35,-280 L52,-290 Z" />
<path fill="#D8D388" d="M104,-280 L104,-260 L87,-250 L69,-260 L69,-280 L87,-290 Z" />
<path fill="#D8D388" d="M139,-280 L139,-260 L121,-250 L104,-260 L104,-280 L121,-290 Z" />
<path fill="#D8D388" d="M260,110 L260,130 L242,140 L225,130 L225,110 L242,100 Z" />
<path fill="#D8D388" d="M-156,230 L-156,250 L-173,260 L-191,250 L-191,230 L-173,220 Z" />
<path fill="#D8D388" d="M-173,200 L-173,220 L-191,230 L-208,220 L-208,200 L-191,190 Z" />
<path fill="#4ee055" d="M-191,170 L-191,190 L-208,200 L-225,190 L-225,170 L-208,160 Z" />
<path fill="#D8D388" d="M-208,140 L-208,160 L-225,170 L-242,160 L-242,140 L-225,130 Z" />
<path fill="#D8D388" d="M-225,110 L-225,130 L-242,140 L-260,130 L-260,110 L-242,100 Z" />
<path fill="#4ee055" d="M-242,80 L-242,100 L-260,110 L-277,100 L-277,80 L-260,70 Z" />
<path fill="#D8D388" d="M-260,50 L-260,70 L-277,80 L-294,70 L-294,50 L-277,40 Z" />
<path fill="#D8D388" d="M-277,20 L-277,40 L-294,50 L-312,40 L-312,20 L-294,10 Z" />
<path fill="#4ee055" d="M-294,-10 L-294,10 L-312,20 L-329,10 L-329,-10 L-312,-20 Z" />
<path fill="#D8D388" d="M-277,-40 L-277,-20 L-294,-10 L-312,-20 L-312,-40 L-294,-50 Z" />
<path fill="#D8D388" d="M-260,-70 L-260,-50 L-277,-40 L-294,-50 L-294,-70 L-277,-80 Z" />
<path fill="#4ee055" d="M-242,-100 L-242,-80 L-260,-70 L-277,-80 L-277,-100 L-260,-110 Z" />
<path fill="#D8D388" d="M-225,-130 L-225,-110 L-242,-100 L-260,-110 L-260,-130 L-242,-140 Z" />
<path fill="#D8D388" d="M-208,-160 L-208,-140 L-225,-130 L-242,-140 L-242,-160 L-225,-170 Z" />
<path fill="#4ee055" d="M-191,-190 L-191,-170 L-208,-160 L-225,-170 L-225,-190 L-208,-200 Z" />
<path fill="#D8D388" d="M-173,-220 L-173,-200 L-191,-190 L-208,-200 L-208,-220 L-191,-230 Z" />
<path fill="#D8D388" d="M-156,-250 L-156,-230 L-173,-220 L-191,-230 L-191,-250 L-173,-260 Z" />
<path fill="#4ee055" d="M-139,-280 L-139,-260 L-156,-250 L-173,-260 L-173,-280 L-156,-290 Z" />
<path fill="#D8D388" d="M-156,-310 L-156,-290 L-173,-280 L-191,-290 L-191,-310 L-173,-320 Z" />
<path fill="#D8D388" d="M-121,-310 L-121,-290 L-139,-280 L-156,-290 L-156,-310 L-139,-320 Z" />
<path fill="#4ee055" d="M-87,-310 L-87,-290 L-104,-280 L-121,-290 L-121,-310 L-104,-320 Z" />
<path fill="#D8D388" d="M-52,-310 L-52,-290 L-69,-280 L-87,-290 L-87,-310 L-69,-320 Z" />
<path fill="#D8D388" d="M-17,-310 L-17,-290 L-35,-280 L-52,-290 L-52,-310 L-35,-320 Z" />
<path fill="#4ee055" d="M17,-310 L17,-290 L0,-280 L-17,-290 L-17,-310 L0,-320 Z" />
<path fill="#D8D388" d="M52,-310 L52,-290 L35,-280 L17,-290 L17,-310 L35,-320 Z" />
<path fill="#D8D388" d="M87,-310 L87,-290 L69,-280 L52,-290 L52,-310 L69,-320 Z" />
<path fill="#4ee055" d="M121,-310 L121,-290 L104,-280 L87,-290 L87,-310 L104,-320 Z" />
<path fill="#D8D388" d="M156,-310 L156,-290 L139,-280 L121,-290 L121,-310 L139,-320 Z" />
<path fill="#D8D388" d="M191,-310 L191,-290 L173,-280 L156,-290 L156,-310 L173,-320 Z" />
<path fill="#D8D388" d="M294,110 L294,130 L277,140 L260,130 L260,110 L277,100 Z" />
<path fill="#D8D388" d="M-208,200 L-208,220 L-225,230 L-242,220 L-242,200 L-225,190 Z" />
<path fill="#D8D388" d="M-225,170 L-225,190 L-242,200 L-260,190 L-260,170 L-242,160 Z" />
<path fill="#4ee055" d="M-242,140 L-242,160 L-260,170 L-277,160 L-277,140 L-260,130 Z" />
<path fill="#D8D388" d="M-260,110 L-260,130 L-277,140 L-294,130 L-294,110 L-277,100 Z" />
<path fill="#D8D388" d="M-277,80 L-277,100 L-294,110 L-312,100 L-312,80 L-294,70 Z" />
<path fill="#4ee055" d="M-294,50 L-294,70 L-312,80 L-329,70 L-329,50 L-312,40 Z" />
<path fill="#D8D388" d="M-312,20 L-312,40 L-329,50 L-346,40 L-346,20 L-329,10 Z" />
<path fill="#D8D388" d="M-329,-10 L-329,10 L-346,20 L-364,10 L-364,-10 L-346,-20 Z" />
<path fill="#D8D388" d="M-312,-40 L-312,-20 L-329,-10 L-346,-20 L-346,-40 L-329,-50 Z" />
<path fill="#4ee055" d="M-294,-70 L-294,-50 L-312,-40 L-329,-50 L-329,-70 L-312,-80 Z" />
<path fill="#D8D388" d="M-277,-100 L-277,-80 L-294,-70 L-312,-80 L-312,-100 L-294,-110 Z" />
<path fill="#D8D388" d="M-260,-130 L-260,-110 L-277,-100 L-294,-110 L-294,-130 L-277,-140 Z" />
<path fill="#4ee055" d="M-242,-160 L-242,-140 L-260,-130 L-277,-140 L-277,-160 L-260,-170 Z" />
<path fill="#D8D388" d="M-225,-190 L-225,-170 L-242,-160 L-260,-170 L-260,-190 L-242,-200 Z" />
<path fill="#D8D388" d="M-208,-220 L-208,-200 L-225,-190 L-242,-200 L-242,-220 L-225,-230 Z" />
<path fill="#4ee055" d="M-191,-250 L-191,-230 L-208,-220 L-225,-230 L-225,-250 L-208,-260 Z" />
<path fill="#D8D388" d="M-173,-280 L-173,-260 L-191,-250 L-208,-260 L-208,-280 L-191,-290 Z" />
<path fill="#D8D388" d="M-156,-310 L-156,-290 L-173,-280 L-191,-290 L-191,-310 L-173,-320 Z" />
<path fill="#D8D388" d="M-173,-340 L-173,-320 L-191,-310 L-208,-320 L-208,-340 L-191,-350 Z" />
<path fill="#4ee055" d="M-139,-340 L-139,-320 L-156,-310 L-173,-320 L-173,-340 L-156,-350 Z" />
<path fill="#D8D388" d="M-104,-340 L-104,-320 L-121,-310 L-139,-320 L-139,-340 L-121,-350 Z" />
<path fill="#D8D388" d="M-69,-340 L-69,-320 L-87,-310 L-104,-320 L-104,-340 L-87,-350 Z" />
<path fill="#4ee055" d="M-35,-340 L-35,-320 L-52,-310 L-69,-320 L-69,-340 L-52,-350 Z" />
<path fill="#D8D388" d="M0,-340 L0,-320 L-17,-310 L-35,-320 L-35,-340 L-17,-350 Z" />
<path fill="#D8D388" d="M35,-340 L35,-320 L17,-310 L0,-320 L0,-340 L17,-350 Z" />
<path fill="#4ee055" d="M69,-340 L69,-320 L52,-310 L35,-320 L35,-340 L52,-350 Z" />
<path fill="#D8D388" d="M104,-340 L104,-320 L87,-310 L69,-320 L69,-340 L87,-350 Z" />
<path fill="#D8D388" d="M139,-340 L139,-320 L121,-310 L104,-320 L104,-340 L121,-350 Z" />
<path fill="#4ee055" d="M173,-340 L173,-320 L156,-310 L139,-320 L139,-340 L156,-350 Z" />
<path fill="#D8D388" d="M208,-340 L208,-320 L191,-310 L173,-320 L173,-340 L191,-350 Z" />
<path fill="#D8D388" d="M312,140 L312,160 L294,170 L277,160 L277,140 L294,130 Z" />
<path fill="#D8D388" d="M-225,230 L-225,250 L-242,260 L-260,250 L-260,230 L-242,220 Z" />
<path fill="#4ee055" d="M-242,200 L-242,220 L-260,230 L-277,220 L-277,200 L-260,190 Z" />
<path fill="#D8D388" d="M-260,170 L-260,190 L-277,200 L-294,190 L-294,170 L-277,160 Z" />
<path fill="#D8D388" d="M-277,140 L-277,160 L-294,170 L-312,160 L-312,140 L-294,130 Z" />
<path fill="#4ee055" d="M-294,110 L-294,130 L-312,140 L-329,130 L-329,110 L-312,100 Z" />
<path fill="#D8D388" d="M-312,80 L-312,100 L-329,110 L-346,100 L-346,80 L-329,70 Z" />
<path fill="#D8D388" d="M-329,50 L-329,70 L-346,80 L-364,70 L-364,50 L-346,40 Z" />
<path fill="#4ee055" d="M-346,20 L-346,40 L-364,50 L-381,40 L-381,20 L-364,10 Z" />
<path fill="#4ee055" d="M-346,-40 L-346,-20 L-364,-10 L-381,-20 L-381,-40 L-364,-50 Z" />
<path fill="#D8D388" d="M-329,-70 L-329,-50 L-346,-40 L-364,-50 L-364,-70 L-346,-80 Z" />
<path fill="#D8D388" d="M-312,-100 L-312,-80 L-329,-70 L-346,-80 L-346,-100 L-329,-110 Z" />
<path fill="#4ee055" d="M-294,-130 L-294,-110 L-312,-100 L-329,-110 L-329,-130 L-312,-140 Z" />
<path fill="#D8D388" d="M-277,-160 L-277,-140 L-294,-130 L-312,-140 L-312,-160 L-294,-170 Z" />
<path fill="#D8D388" d="M-260,-190 L-260,-170 L-277,-160 L-294,-170 L-294,-190 L-277,-200 Z" />
<path fill="#4ee055" d="M-242,-220 L-242,-200 L-260,-190 L-277,-200 L-277,-220 L-260,-230 Z" />
<path fill="#D8D388" d="M-225,-250 L-225,-230 L-242,-220 L-260,-230 L-260,-250 L-242,-260 Z" />
<path fill="#D8D388" d="M-208,-280 L-208,-260 L-225,-250 L-242,-260 L-242,-280 L-225,-290 Z" />
<path fill="#4ee055" d="M-191,-310 L-191,-290 L-208,-280 L-225,-290 L-225,-310 L-208,-320 Z" />
<path fill="#D8D388" d="M-173,-340 L-173,-320 L-191,-310 L-208,-320 L-208,-340 L-191,-350 Z" />
<path fill="#4ee055" d="M-191,-370 L-191,-350 L-208,-340 L-225,-350 L-225,-370 L-208,-380 Z" />
<path fill="#D8D388" d="M-156,-370 L-156,-350 L-173,-340 L-191,-350 L-191,-370 L-173,-380 Z" />
<path fill="#D8D388" d="M-121,-370 L-121,-350 L-139,-340 L-156,-350 L-156,-370 L-139,-380 Z" />
<path fill="#4ee055" d="M-87,-370 L-87,-350 L-104,-340 L-121,-350 L-121,-370 L-104,-380 Z" />
<path fill="#D8D388" d="M-52,-370 L-52,-350 L-69,-340 L-87,-350 L-87,-370 L-69,-380 Z" />
<path fill="#D8D388" d="M-17,-370 L-17,-350 L-35,-340 L-52,-350 L-52,-370 L-35,-380 Z" />
<path fill="#4ee055" d="M17,-370 L17,-350 L0,-340 L-17,-350 L-17,-370 L0,-380 Z" />
<path fill="#D8D388" d="M52,-370 L52,-350 L35,-340 L17,-350 L17,-370 L35,-380 Z" />
<path fill="#D8D388" d="M87,-370 L87,-350 L69,-340 L52,-350 L52,-370 L69,-380 Z" />
<path fill="#4ee055" d="M121,-370 L121,-350 L104,-340 L87,-350 L87,-370 L104,-380 Z" />
<path fill="#D8D388" d="M156,-370 L156,-350 L139,-340 L121,-350 L121,-370 L139,-380 Z" />
<path fill="#D8D388" d="M191,-370 L191,-350 L173,-340 L156,-350 L156,-370 L173,-380 Z" />
<path fill="#D8D388" d="M-260,230 L-260,250 L-277,260 L-294,250 L-294,230 L-277,220 Z" />
<path fill="#D8D388" d="M-277,200 L-277,220 L-294,230 L-312,220 L-312,200 L-294,190 Z" />
<path fill="#4ee055" d="M-294,170 L-294,190 L-312,200 L-329,190 L-329,170 L-312,160 Z" />
<path fill="#D8D388" d="M-312,140 L-312,160 L-329,170 L-346,160 L-346,140 L-329,130 Z" />
<path fill="#D8D388" d="M-329,110 L-329,130 L-346,140 L-364,130 L-364,110 L-346,100 Z" />
<path fill="#4ee055" d="M-346,80 L-346,100 L-364,110 L-381,100 L-381,80 L-364,70 Z" />
<path fill="#D8D388" d="M-364,50 L-364,70 L-381,80 L-398,70 L-398,50 L-381,40 Z" />
<path fill="#D8D388" d="M-364,-70 L-364,-50 L-381,-40 L-398,-50 L-398,-70 L-381,-80 Z" />
<path fill="#4ee055" d="M-346,-100 L-346,-80 L-364,-70 L-381,-80 L-381,-100 L-364,-110 Z" />
<path fill="#D8D388" d="M-329,-130 L-329,-110 L-346,-100 L-364,-110 L-364,-130 L-346,-140 Z" />
<path fill="#D8D388" d="M-312,-160 L-312,-140 L-329,-130 L-346,-140 L-346,-160 L-329,-170 Z" />
<path fill="#4ee055" d="M-294,-190 L-294,-170 L-312,-160 L-329,-170 L-329,-190 L-312,-200 Z" />
<path fill="#D8D388" d="M-277,-220 L-277,-200 L-294,-190 L-312,-200 L-312,-220 L-294,-230 Z" />
<path fill="#D8D388" d="M-260,-250 L-260,-230 L-277,-220 L-294,-230 L-294,-250 L-277,-260 Z" />
<path fill="#4ee055" d="M-242,-280 L-242,-260 L-260,-250 L-277,-260 L-277,-280 L-260,-290 Z" />
<path fill="#D8D388" d="M-225,-310 L-225,-290 L-242,-280 L-260,-290 L-260,-310 L-242,-320 Z" />
<path fill="#D8D388" d="M-208,-340 L-208,-320 L-225,-310 L-242,-320 L-242,-340 L-225,-350 Z" />
<path fill="#4ee055" d="M-191,-370 L-191,-350 L-208,-340 L-225,-350 L-225,-370 L-208,-380 Z" />
<path fill="#D8D388" d="M-208,-400 L-208,-380 L-225,-370 L-242,-380 L-242,-400 L-225,-410 Z" />
<path fill="#D8D388" d="M-173,-400 L-173,-380 L-191,-370 L-208,-380 L-208,-400 L-191,-410 Z" />
<path fill="#4ee055" d="M-139,-400 L-139,-380 L-156,-370 L-173,-380 L-173,-400 L-156,-410 Z" />
<path fill="#D8D388" d="M-104,-400 L-104,-380 L-121,-370 L-139,-380 L-139,-400 L-121,-410 Z" />
<path fill="#D8D388" d="M-69,-400 L-69,-380 L-87,-370 L-104,-380 L-104,-400 L-87,-410 Z" />
<path fill="#4ee055" d="M-35,-400 L-35,-380 L-52,-370 L-69,-380 L-69,-400 L-52,-410 Z" />
<path fill="#D8D388" d="M0,-400 L0,-380 L-17,-370 L-35,-380 L-35,-400 L-17,-410 Z" />
<path fill="#D8D388" d="M35,-400 L35,-380 L17,-370 L0,-380 L0,-400 L17,-410 Z" />
<path fill="#4ee055" d="M69,-400 L69,-380 L52,-370 L35,-380 L35,-400 L52,-410 Z" />
<path fill="#D8D388" d="M104,-400 L104,-380 L87,-370 L69,-380 L69,-400 L87,-410 Z" />
<path fill="#D8D388" d="M139,-400 L139,-380 L121,-370 L104,-380 L104,-400 L121,-410 Z" />
<path fill="#4ee055" d="M173,-400 L173,-380 L156,-370 L139,-380 L139,-400 L156,-410 Z" />
<path fill="#D8D388" d="M208,-400 L208,-380 L191,-370 L173,-380 L173,-400 L191,-410 Z" />
<path fill="#D8D388" d="M-277,260 L-277,280 L-294,290 L-312,280 L-312,260 L-294,250 Z" />
<path fill="#4ee055" d="M-294,230 L-294,250 L-312,260 L-329,250 L-329,230 L-312,220 Z" />
<path fill="#D8D388" d="M-312,200 L-312,220 L-329,230 L-346,220 L-346,200 L-329,190 Z" />
<path fill="#D8D388" d="M-329,170 L-329,190 L-346,200 L-364,190 L-364,170 L-346,160 Z" />
<path fill="#4ee055" d="M-346,140 L-346,160 L-364,170 L-381,160 L-381,140 L-364,130 Z" />
<path fill="#D8D388" d="M-364,110 L-364,130 L-381,140 L-398,130 L-398,110 L-381,100 Z" />
<path fill="#D8D388" d="M-381,80 L-381,100 L-398,110 L-416,100 L-416,80 L-398,70 Z" />
<path fill="#4ee055" d="M-398,50 L-398,70 L-416,80 L-433,70 L-433,50 L-416,40 Z" />
<path fill="#4ee055" d="M-398,-70 L-398,-50 L-416,-40 L-433,-50 L-433,-70 L-416,-80 Z" />
<path fill="#D8D388" d="M-381,-100 L-381,-80 L-398,-70 L-416,-80 L-416,-100 L-398,-110 Z" />
<path fill="#D8D388" d="M-364,-130 L-364,-110 L-381,-100 L-398,-110 L-398,-130 L-381,-140 Z" />
<path fill="#4ee055" d="M-346,-160 L-346,-140 L-364,-130 L-381,-140 L-381,-160 L-364,-170 Z" />
<path fill="#D8D388" d="M-329,-190 L-329,-170 L-346,-160 L-364,-170 L-364,-190 L-346,-200 Z" />
<path fill="#D8D388" d="M-312,-220 L-312,-200 L-329,-190 L-346,-200 L-346,-220 L-329,-230 Z" />
<path fill="#4ee055" d="M-294,-250 L-294,-230 L-312,-220 L-329,-230 L-329,-250 L-312,-260 Z" />
<path fill="#D8D388" d="M-277,-280 L-277,-260 L-294,-250 L-312,-260 L-312,-280 L-294,-290 Z" />
<path fill="#D8D388" d="M-260,-310 L-260,-290 L-277,-280 L-294,-290 L-294,-310 L-277,-320 Z" />
<path fill="#4ee055" d="M-242,-340 L-242,-320 L-260,-310 L-277,-320 L-277,-340 L-260,-350 Z" />
<path fill="#D8D388" d="M-225,-370 L-225,-350 L-242,-340 L-260,-350 L-260,-370 L-242,-380 Z" />
<path fill="#D8D388" d="M-208,-400 L-208,-380 L-225,-370 L-242,-380 L-242,-400 L-225,-410 Z" />
<path fill="#D8D388" d="M-225,-430 L-225,-410 L-242,-400 L-260,-410 L-260,-430 L-242,-440 Z" />
<path fill="#4ee055" d="M-191,-430 L-191,-410 L-208,-400 L-225,-410 L-225,-430 L-208,-440 Z" />
<path fill="#D8D388" d="M-156,-430 L-156,-410 L-173,-400 L-191,-410 L-191,-430 L-173,-440 Z" />
<path fill="#D8D388" d="M-121,-430 L-121,-410 L-139,-400 L-156,-410 L-156,-430 L-139,-440 Z" />
<path fill="#D8D388" d="M-52,-430 L-52,-410 L-69,-400 L-87,-410 L-87,-430 L-69,-440 Z" />
<path fill="#D8D388" d="M-17,-430 L-17,-410 L-35,-400 L-52,-410 L-52,-430 L-35,-440 Z" />
<path fill="#4ee055" d="M17,-430 L17,-410 L0,-400 L-17,-410 L-17,-430 L0,-440 Z" />
<path fill="#D8D388" d="M52,-430 L52,-410 L35,-400 L17,-410 L17,-430 L35,-440 Z" />
<path fill="#D8D388" d="M87,-430 L87,-410 L69,-400 L52,-410 L52,-430 L69,-440 Z" />
<path fill="#4ee055" d="M121,-430 L121,-410 L104,-400 L87,-410 L87,-430 L104,-440 Z" />
<path fill="#D8D388" d="M156,-430 L156,-410 L139,-400 L121,-410 L121,-430 L139,-440 Z" />
<path fill="#D8D388" d="M191,-430 L191,-410 L173,-400 L156,-410 L156,-430 L173,-440 Z" />
<path fill="#4ee055" d="M225,-430 L225,-410 L208,-400 L191,-410 L191,-430 L208,-440 Z" />
<path fill="#D8D388" d="M260,-430 L260,-410 L242,-400 L225,-410 L225,-430 L242,-440 Z" />
<path fill="#4ee055" d="M-294,290 L-294,310 L-312,320 L-329,310 L-329,290 L-312,280 Z" />
<path fill="#D8D388" d="M-312,260 L-312,280 L-329,290 L-346,280 L-346,260 L-329,250 Z" />
<path fill="#D8D388" d="M-329,230 L-329,250 L-346,260 L-364,250 L-364,230 L-346,220 Z" />
<path fill="#4ee055" d="M-346,200 L-346,220 L-364,230 L-381,220 L-381,200 L-364,190 Z" />
<path fill="#D8D388" d="M-364,170 L-364,190 L-381,200 L-398,190 L-398,170 L-381,160 Z" />
<path fill="#D8D388" d="M-381,140 L-381,160 L-398,170 L-416,160 L-416,140 L-398,130 Z" />
<path fill="#D8D388" d="M-416,80 L-416,100 L-433,110 L-450,100 L-450,80 L-433,70 Z" />
<path fill="#D8D388" d="M-416,-100 L-416,-80 L-433,-70 L-450,-80 L-450,-100 L-433,-110 Z" />
<path fill="#4ee055" d="M-398,-130 L-398,-110 L-416,-100 L-433,-110 L-433,-130 L-416,-140 Z" />
<path fill="#D8D388" d="M-381,-160 L-381,-140 L-398,-130 L-416,-140 L-416,-160 L-398,-170 Z" />
<path fill="#D8D388" d="M-364,-190 L-364,-170 L-381,-160 L-398,-170 L-398,-190 L-381,-200 Z" />
<path fill="#4ee055" d="M-346,-220 L-346,-200 L-364,-190 L-381,-200 L-381,-220 L-364,-230 Z" />
<path fill="#D8D388" d="M-329,-250 L-329,-230 L-346,-220 L-364,-230 L-364,-250 L-346,-260 Z" />
<path fill="#D8D388" d="M-312,-280 L-312,-260 L-329,-250 L-346,-260 L-346,-280 L-329,-290 Z" />
<path fill="#4ee055" d="M-294,-310 L-294,-290 L-312,-280 L-329,-290 L-329,-310 L-312,-320 Z" />
<path fill="#D8D388" d="M-277,-340 L-277,-320 L-294,-310 L-312,-320 L-312,-340 L-294,-350 Z" />
<path fill="#D8D388" d="M-260,-370 L-260,-350 L-277,-340 L-294,-350 L-294,-370 L-277,-380 Z" />
<path fill="#4ee055" d="M-242,-400 L-242,-380 L-260,-370 L-277,-380 L-277,-400 L-260,-410 Z" />
<path fill="#D8D388" d="M-225,-430 L-225,-410 L-242,-400 L-260,-410 L-260,-430 L-242,-440 Z" />
<path fill="#4ee055" d="M-242,-460 L-242,-440 L-260,-430 L-277,-440 L-277,-460 L-260,-470 Z" />
<path fill="#D8D388" d="M-208,-460 L-208,-440 L-225,-430 L-242,-440 L-242,-460 L-225,-470 Z" />
<path fill="#D8D388" d="M-173,-460 L-173,-440 L-191,-430 L-208,-440 L-208,-460 L-191,-470 Z" />
<path fill="#4ee055" d="M-139,-460 L-139,-440 L-156,-430 L-173,-440 L-173,-460 L-156,-470 Z" />
<path fill="#D8D388" d="M0,-460 L0,-440 L-17,-430 L-35,-440 L-35,-460 L-17,-470 Z" />
<path fill="#D8D388" d="M35,-460 L35,-440 L17,-430 L0,-440 L0,-460 L17,-470 Z" />
<path fill="#4ee055" d="M69,-460 L69,-440 L52,-430 L35,-440 L35,-460 L52,-470 Z" />
<path fill="#D8D388" d="M104,-460 L104,-440 L87,-430 L69,-440 L69,-460 L87,-470 Z" />
<path fill="#D8D388" d="M139,-460 L139,-440 L121,-430 L104,-440 L104,-460 L121,-470 Z" />
<path fill="#4ee055" d="M173,-460 L173,-440 L156,-430 L139,-440 L139,-460 L156,-470 Z" />
<path fill="#D8D388" d="M208,-460 L208,-440 L191,-430 L173,-440 L173,-460 L191,-470 Z" />
<path fill="#D8D388" d="M242,-460 L242,-440 L225,-430 L208,-440 L208,-460 L225,-470 Z" />
<path fill="#4ee055" d="M277,-460 L277,-440 L260,-430 L242,-440 L242,-460 L260,-470 Z" />
<path fill="#D8D388" d="M-312,320 L-312,340 L-329,350 L-346,340 L-346,320 L-329,310 Z" />
<path fill="#D8D388" d="M-329,290 L-329,310 L-346,320 L-364,310 L-364,290 L-346,280 Z" />
<path fill="#4ee055" d="M-346,260 L-346,280 L-364,290 L-381,280 L-381,260 L-364,250 Z" />
<path fill="#D8D388" d="M-364,230 L-364,250 L-381,260 L-398,250 L-398,230 L-381,220 Z" />
<path fill="#4ee055" d="M-398,170 L-398,190 L-416,200 L-433,190 L-433,170 L-416,160 Z" />
<path fill="#4ee055" d="M-450,-100 L-450,-80 L-468,-70 L-485,-80 L-485,-100 L-468,-110 Z" />
<path fill="#D8D388" d="M-433,-130 L-433,-110 L-450,-100 L-468,-110 L-468,-130 L-450,-140 Z" />
<path fill="#D8D388" d="M-416,-160 L-416,-140 L-433,-130 L-450,-140 L-450,-160 L-433,-170 Z" />
<path fill="#4ee055" d="M-398,-190 L-398,-170 L-416,-160 L-433,-170 L-433,-190 L-416,-200 Z" />
<path fill="#D8D388" d="M-381,-220 L-381,-200 L-398,-190 L-416,-200 L-416,-220 L-398,-230 Z" />
<path fill="#D8D388" d="M-364,-250 L-364,-230 L-381,-220 L-398,-230 L-398,-250 L-381,-260 Z" />
<path fill="#4ee055" d="M-346,-280 L-346,-260 L-364,-250 L-381,-260 L-381,-280 L-364,-290 Z" />
<path fill="#D8D388" d="M-329,-310 L-329,-290 L-346,-280 L-364,-290 L-364,-310 L-346,-320 Z" />
<path fill="#D8D388" d="M-312,-340 L-312,-320 L-329,-310 L-346,-320 L-346,-340 L-329,-350 Z" />
<path fill="#4ee055" d="M-294,-370 L-294,-350 L-312,-340 L-329,-350 L-329,-370 L-312,-380 Z" />
<path fill="#D8D388" d="M-277,-400 L-277,-380 L-294,-370 L-312,-380 L-312,-400 L-294,-410 Z" />
<path fill="#D8D388" d="M-260,-430 L-260,-410 L-277,-400 L-294,-410 L-294,-430 L-277,-440 Z" />
<path fill="#4ee055" d="M-242,-460 L-242,-440 L-260,-430 L-277,-440 L-277,-460 L-260,-470 Z" />
<path fill="#D8D388" d="M-260,-490 L-260,-470 L-277,-460 L-294,-470 L-294,-490 L-277,-500 Z" />
<path fill="#D8D388" d="M-225,-490 L-225,-470 L-242,-460 L-260,-470 L-260,-490 L-242,-500 Z" />
<path fill="#4ee055" d="M-191,-490 L-191,-470 L-208,-460 L-225,-470 L-225,-490 L-208,-500 Z" />
<path fill="#D8D388" d="M-156,-490 L-156,-470 L-173,-460 L-191,-470 L-191,-490 L-173,-500 Z" />
<path fill="#4ee055" d="M17,-490 L17,-470 L0,-460 L-17,-470 L-17,-490 L0,-500 Z" />
<path fill="#D8D388" d="M52,-490 L52,-470 L35,-460 L17,-470 L17,-490 L35,-500 Z" />
<path fill="#D8D388" d="M87,-490 L87,-470 L69,-460 L52,-470 L52,-490 L69,-500 Z" />
<path fill="#4ee055" d="M121,-490 L121,-470 L104,-460 L87,-470 L87,-490 L104,-500 Z" />
<path fill="#D8D388" d="M156,-490 L156,-470 L139,-460 L121,-470 L121,-490 L139,-500 Z" />
<path fill="#D8D388" d="M191,-490 L191,-470 L173,-460 L156,-470 L156,-490 L173,-500 Z" />
<path fill="#4ee055" d="M225,-490 L225,-470 L208,-460 L191,-470 L191,-490 L208,-500 Z" />
<path fill="#D8D388" d="M260,-490 L260,-470 L242,-460 L225,-470 L225,-490 L242,-500 Z" />
<path fill="#D8D388" d="M-329,350 L-329,370 L-346,380 L-364,370 L-364,350 L-346,340 Z" />
<path fill="#D8D388" d="M-381,260 L-381,280 L-398,290 L-416,280 L-416,260 L-398,250 Z" />
<path fill="#4ee055" d="M-502,-70 L-502,-50 L-520,-40 L-537,-50 L-537,-70 L-520,-80 Z" />
<path fill="#D8D388" d="M-485,-100 L-485,-80 L-502,-70 L-520,-80 L-520,-100 L-502,-110 Z" />
<path fill="#D8D388" d="M-468,-130 L-468,-110 L-485,-100 L-502,-110 L-502,-130 L-485,-140 Z" />
<path fill="#4ee055" d="M-450,-160 L-450,-140 L-468,-130 L-485,-140 L-485,-160 L-468,-170 Z" />
<path fill="#D8D388" d="M-433,-190 L-433,-170 L-450,-160 L-468,-170 L-468,-190 L-450,-200 Z" />
<path fill="#D8D388" d="M-416,-220 L-416,-200 L-433,-190 L-450,-200 L-450,-220 L-433,-230 Z" />
<path fill="#4ee055" d="M-398,-250 L-398,-230 L-416,-220 L-433,-230 L-433,-250 L-416,-260 Z" />
<path fill="#D8D388" d="M-381,-280 L-381,-260 L-398,-250 L-416,-260 L-416,-280 L-398,-290 Z" />
<path fill="#D8D388" d="M-364,-310 L-364,-290 L-381,-280 L-398,-290 L-398,-310 L-381,-320 Z" />
<path fill="#4ee055" d="M-346,-340 L-346,-320 L-364,-310 L-381,-320 L-381,-340 L-364,-350 Z" />
<path fill="#D8D388" d="M-329,-370 L-329,-350 L-346,-340 L-364,-350 L-364,-370 L-346,-380 Z" />
<path fill="#D8D388" d="M-312,-400 L-312,-380 L-329,-370 L-346,-380 L-346,-400 L-329,-410 Z" />
<path fill="#4ee055" d="M-294,-430 L-294,-410 L-312,-400 L-329,-410 L-329,-430 L-312,-440 Z" />
<path fill="#D8D388" d="M-277,-460 L-277,-440 L-294,-430 L-312,-440 L-312,-460 L-294,-470 Z" />
<path fill="#D8D388" d="M-260,-490 L-260,-470 L-277,-460 L-294,-470 L-294,-490 L-277,-500 Z" />
<path fill="#D8D388" d="M-277,-520 L-277,-500 L-294,-490 L-312,-500 L-312,-520 L-294,-530 Z" />
<path fill="#4ee055" d="M-242,-520 L-242,-500 L-260,-490 L-277,-500 L-277,-520 L-260,-530 Z" />
<path fill="#D8D388" d="M-208,-520 L-208,-500 L-225,-490 L-242,-500 L-242,-520 L-225,-530 Z" />
<path fill="#D8D388" d="M-173,-520 L-173,-500 L-191,-490 L-208,-500 L-208,-520 L-191,-530 Z" />
<path fill="#4ee055" d="M-139,-520 L-139,-500 L-156,-490 L-173,-500 L-173,-520 L-156,-530 Z" />
<path fill="#D8D388" d="M139,-520 L139,-500 L121,-490 L104,-500 L104,-520 L121,-530 Z" />
<path fill="#D8D388" d="M208,-520 L208,-500 L191,-490 L173,-500 L173,-520 L191,-530 Z" />
<path fill="#D8D388" d="M242,-520 L242,-500 L225,-490 L208,-500 L208,-520 L225,-530 Z" />
<path fill="#4ee055" d="M277,-520 L277,-500 L260,-490 L242,-500 L242,-520 L260,-530 Z" />
<path fill="#D8D388" d="M-537,-70 L-537,-50 L-554,-40 L-572,-50 L-572,-70 L-554,-80 Z" />
<path fill="#D8D388" d="M-520,-100 L-520,-80 L-537,-70 L-554,-80 L-554,-100 L-537,-110 Z" />
<path fill="#4ee055" d="M-502,-130 L-502,-110 L-520,-100 L-537,-110 L-537,-130 L-520,-140 Z" />
<path fill="#D8D388" d="M-485,-160 L-485,-140 L-502,-130 L-520,-140 L-520,-160 L-502,-170 Z" />
<path fill="#D8D388" d="M-468,-190 L-468,-170 L-485,-160 L-502,-170 L-502,-190 L-485,-200 Z" />
<path fill="#4ee055" d="M-450,-220 L-450,-200 L-468,-190 L-485,-200 L-485,-220 L-468,-230 Z" />
<path fill="#D8D388" d="M-433,-250 L-433,-230 L-450,-220 L-468,-230 L-468,-250 L-450,-260 Z" />
<path fill="#D8D388" d="M-416,-280 L-416,-260 L-433,-250 L-450,-260 L-450,-280 L-433,-290 Z" />
<path fill="#4ee055" d="M-398,-310 L-398,-290 L-416,-280 L-433,-290 L-433,-310 L-416,-320 Z" />
<path fill="#D8D388" d="M-381,-340 L-381,-320 L-398,-310 L-416,-320 L-416,-340 L-398,-350 Z" />
<path fill="#D8D388" d="M-364,-370 L-364,-350 L-381,-340 L-398,-350 L-398,-370 L-381,-380 Z" />
<path fill="#4ee055" d="M-346,-400 L-346,-380 L-364,-370 L-381,-380 L-381,-400 L-364,-410 Z" />
<path fill="#D8D388" d="M-329,-430 L-329,-410 L-346,-400 L-364,-410 L-364,-430 L-346,-440 Z" />
<path fill="#D8D388" d="M-312,-460 L-312,-440 L-329,-430 L-346,-440 L-346,-460 L-329,-470 Z" />
<path fill="#4ee055" d="M-294,-490 L-294,-470 L-312,-460 L-329,-470 L-329,-490 L-312,-500 Z" />
<path fill="#D8D388" d="M-277,-520 L-277,-500 L-294,-490 L-312,-500 L-312,-520 L-294,-530 Z" />
<path fill="#4ee055" d="M-294,-550 L-294,-530 L-312,-520 L-329,-530 L-329,-550 L-312,-560 Z" />
<path fill="#D8D388" d="M-260,-550 L-260,-530 L-277,-520 L-294,-530 L-294,-550 L-277,-560 Z" />
<path fill="#D8D388" d="M-225,-550 L-225,-530 L-242,-520 L-260,-530 L-260,-550 L-242,-560 Z" />
<path fill="#4ee055" d="M-191,-550 L-191,-530 L-208,-520 L-225,-530 L-225,-550 L-208,-560 Z" />
<path fill="#D8D388" d="M156,-550 L156,-530 L139,-520 L121,-530 L121,-550 L139,-560 Z" />
<path fill="#D8D388" d="M294,-550 L294,-530 L277,-520 L260,-530 L260,-550 L277,-560 Z" />
<path fill="#4ee055" d="M-554,-100 L-554,-80 L-572,-70 L-589,-80 L-589,-100 L-572,-110 Z" />
<path fill="#D8D388" d="M-537,-130 L-537,-110 L-554,-100 L-572,-110 L-572,-130 L-554,-140 Z" />
<path fill="#D8D388" d="M-520,-160 L-520,-140 L-537,-130 L-554,-140 L-554,-160 L-537,-170 Z" />
<path fill="#4ee055" d="M-502,-190 L-502,-170 L-520,-160 L-537,-170 L-537,-190 L-520,-200 Z" />
<path fill="#D8D388" d="M-485,-220 L-485,-200 L-502,-190 L-520,-200 L-520,-220 L-502,-230 Z" />
<path fill="#D8D388" d="M-468,-250 L-468,-230 L-485,-220 L-502,-230 L-502,-250 L-485,-260 Z" />
<path fill="#4ee055" d="M-450,-280 L-450,-260 L-468,-250 L-485,-260 L-485,-280 L-468,-290 Z" />
<path fill="#D8D388" d="M-433,-310 L-433,-290 L-450,-280 L-468,-290 L-468,-310 L-450,-320 Z" />
<path fill="#D8D388" d="M-381,-400 L-381,-380 L-398,-370 L-416,-380 L-416,-400 L-398,-410 Z" />
<path fill="#D8D388" d="M-364,-430 L-364,-410 L-381,-400 L-398,-410 L-398,-430 L-381,-440 Z" />
<path fill="#4ee055" d="M-346,-460 L-346,-440 L-364,-430 L-381,-440 L-381,-460 L-364,-470 Z" />
<path fill="#D8D388" d="M-329,-490 L-329,-470 L-346,-460 L-364,-470 L-364,-490 L-346,-500 Z" />
<path fill="#D8D388" d="M-312,-520 L-312,-500 L-329,-490 L-346,-500 L-346,-520 L-329,-530 Z" />
<path fill="#4ee055" d="M-294,-550 L-294,-530 L-312,-520 L-329,-530 L-329,-550 L-312,-560 Z" />
<path fill="#D8D388" d="M-312,-580 L-312,-560 L-329,-550 L-346,-560 L-346,-580 L-329,-590 Z" />
<path fill="#D8D388" d="M-277,-580 L-277,-560 L-294,-550 L-312,-560 L-312,-580 L-294,-590 Z" />
<path fill="#4ee055" d="M-242,-580 L-242,-560 L-260,-550 L-277,-560 L-277,-580 L-260,-590 Z" />
<path fill="#D8D388" d="M-208,-580 L-208,-560 L-225,-550 L-242,-560 L-242,-580 L-225,-590 Z" />
<path fill="#D8D388" d="M-173,-580 L-173,-560 L-191,-550 L-208,-560 L-208,-580 L-191,-590 Z" />
<path fill="#D8D388" d="M-589,-100 L-589,-80 L-606,-70 L-624,-80 L-624,-100 L-606,-110 Z" />
<path fill="#D8D388" d="M-572,-130 L-572,-110 L-589,-100 L-606,-110 L-606,-130 L-589,-140 Z" />
<path fill="#4ee055" d="M-554,-160 L-554,-140 L-572,-130 L-589,-140 L-589,-160 L-572,-170 Z" />
<path fill="#D8D388" d="M-537,-190 L-537,-170 L-554,-160 L-572,-170 L-572,-190 L-554,-200 Z" />
<path fill="#D8D388" d="M-520,-220 L-520,-200 L-537,-190 L-554,-200 L-554,-220 L-537,-230 Z" />
<path fill="#4ee055" d="M-502,-250 L-502,-230 L-520,-220 L-537,-230 L-537,-250 L-520,-260 Z" />
<path fill="#D8D388" d="M-485,-280 L-485,-260 L-502,-250 L-520,-260 L-520,-280 L-502,-290 Z" />
<path fill="#D8D388" d="M-468,-310 L-468,-290 L-485,-280 L-502,-290 L-502,-310 L-485,-320 Z" />
<path fill="#D8D388" d="M-381,-460 L-381,-440 L-398,-430 L-416,-440 L-416,-460 L-398,-470 Z" />
<path fill="#D8D388" d="M-364,-490 L-364,-470 L-381,-460 L-398,-470 L-398,-490 L-381,-500 Z" />
<path fill="#4ee055" d="M-346,-520 L-346,-500 L-364,-490 L-381,-500 L-381,-520 L-364,-530 Z" />
<path fill="#D8D388" d="M-329,-550 L-329,-530 L-346,-520 L-364,-530 L-364,-550 L-346,-560 Z" />
<path fill="#D8D388" d="M-312,-580 L-312,-560 L-329,-550 L-346,-560 L-346,-580 L-329,-590 Z" />
<path fill="#D8D388" d="M-329,-610 L-329,-590 L-346,-580 L-364,-590 L-364,-610 L-346,-620 Z" />
<path fill="#4ee055" d="M-294,-610 L-294,-590 L-312,-580 L-329,-590 L-329,-610 L-312,-620 Z" />
<path fill="#D8D388" d="M-260,-610 L-260,-590 L-277,-580 L-294,-590 L-294,-610 L-277,-620 Z" />
<path fill="#4ee055" d="M-191,-610 L-191,-590 L-208,-580 L-225,-590 L-225,-610 L-208,-620 Z" />
<path fill="#D8D388" d="M-624,-100 L-624,-80 L-641,-70 L-658,-80 L-658,-100 L-641,-110 Z" />
<path fill="#4ee055" d="M-606,-130 L-606,-110 L-624,-100 L-641,-110 L-641,-130 L-624,-140 Z" />
<path fill="#D8D388" d="M-589,-160 L-589,-140 L-606,-130 L-624,-140 L-624,-160 L-606,-170 Z" />
<path fill="#D8D388" d="M-572,-190 L-572,-170 L-589,-160 L-606,-170 L-606,-190 L-589,-200 Z" />
<path fill="#4ee055" d="M-554,-220 L-554,-200 L-572,-190 L-589,-200 L-589,-220 L-572,-230 Z" />
<path fill="#D8D388" d="M-537,-250 L-537,-230 L-554,-220 L-572,-230 L-572,-250 L-554,-260 Z" />
<path fill="#D8D388" d="M-520,-280 L-520,-260 L-537,-250 L-554,-260 L-554,-280 L-537,-290 Z" />
<path fill="#4ee055" d="M-502,-310 L-502,-290 L-520,-280 L-537,-290 L-537,-310 L-520,-320 Z" />
<path fill="#D8D388" d="M-485,-340 L-485,-320 L-502,-310 L-520,-320 L-520,-340 L-502,-350 Z" />
<path fill="#4ee055" d="M-398,-490 L-398,-470 L-416,-460 L-433,-470 L-433,-490 L-416,-500 Z" />
<path fill="#D8D388" d="M-381,-520 L-381,-500 L-398,-490 L-416,-500 L-416,-520 L-398,-530 Z" />
<path fill="#D8D388" d="M-364,-550 L-364,-530 L-381,-520 L-398,-530 L-398,-550 L-381,-560 Z" />
<path fill="#4ee055" d="M-346,-580 L-346,-560 L-364,-550 L-381,-560 L-381,-580 L-364,-590 Z" />
<path fill="#D8D388" d="M-329,-610 L-329,-590 L-346,-580 L-364,-590 L-364,-610 L-346,-620 Z" />
<path fill="#4ee055" d="M-346,-640 L-346,-620 L-364,-610 L-381,-620 L-381,-640 L-364,-650 Z" />
<path fill="#D8D388" d="M-312,-640 L-312,-620 L-329,-610 L-346,-620 L-346,-640 L-329,-650 Z" />
<path fill="#D8D388" d="M-277,-640 L-277,-620 L-294,-610 L-312,-620 L-312,-640 L-294,-650 Z" />
<path fill="#D8D388" d="M-624,-160 L-624,-140 L-641,-130 L-658,-140 L-658,-160 L-641,-170 Z" />
<path fill="#4ee055" d="M-606,-190 L-606,-170 L-624,-160 L-641,-170 L-641,-190 L-624,-200 Z" />
<path fill="#D8D388" d="M-589,-220 L-589,-200 L-606,-190 L-624,-200 L-624,-220 L-606,-230 Z" />
<path fill="#D8D388" d="M-572,-250 L-572,-230 L-589,-220 L-606,-230 L-606,-250 L-589,-260 Z" />
<path fill="#4ee055" d="M-554,-280 L-554,-260 L-572,-250 L-589,-260 L-589,-280 L-572,-290 Z" />
<path fill="#D8D388" d="M-537,-310 L-537,-290 L-554,-280 L-572,-290 L-572,-310 L-554,-320 Z" />
<path fill="#D8D388" d="M-416,-520 L-416,-500 L-433,-490 L-450,-500 L-450,-520 L-433,-530 Z" />
<path fill="#D8D388" d="M-381,-580 L-381,-560 L-398,-550 L-416,-560 L-416,-580 L-398,-590 Z" />
<path fill="#4ee055" d="M-346,-640 L-346,-620 L-364,-610 L-381,-620 L-381,-640 L-364,-650 Z" />
<path fill="#D8D388" d="M-364,-670 L-364,-650 L-381,-640 L-398,-650 L-398,-670 L-381,-680 Z" />
<path fill="#D8D388" d="M-329,-670 L-329,-650 L-346,-640 L-364,-650 L-364,-670 L-346,-680 Z" />
<path fill="#4ee055" d="M-294,-670 L-294,-650 L-312,-640 L-329,-650 L-329,-670 L-312,-680 Z" />
<path fill="#D8D388" d="M-260,-670 L-260,-650 L-277,-640 L-294,-650 L-294,-670 L-277,-680 Z" />
<path fill="#4ee055" d="M-658,-160 L-658,-140 L-675,-130 L-693,-140 L-693,-160 L-675,-170 Z" />
<path fill="#D8D388" d="M-641,-190 L-641,-170 L-658,-160 L-675,-170 L-675,-190 L-658,-200 Z" />
<path fill="#D8D388" d="M-624,-220 L-624,-200 L-641,-190 L-658,-200 L-658,-220 L-641,-230 Z" />
</g>
</svg>