<?xml version="1.0" encoding="utf-8"?>
<svg viewBox="-1070.4073990775662 -1046.5 1447.9944751275816 1463.0" preserveAspectRatio="xMidYMid meet" version="1.1" baseProfile="full" xmlns="http://www.w3.org/2000/svg" style="background-color: black;">
<g style="stroke:#ffffff; stroke-width: 1; stroke-linejoin: round;">
<path fill="#D8D388" d="M-52,50 L-52,70 L-69,80 L-87,70 L-87,50 L-69,40 Z" />
<path fill="#D8D388" d="M-69,20 L-69,40 L-87,50 L-104,40 L-104,20 L-87,10 Z" />
<path fill="#4ee055" d="M-87,-10 L-87,10 L-104,20 L-121,10 L-121,-10 L-104,-20 Z" />
<path fill="#D8D388" d="M-69,-40 L-69,-20 L-87,-10 L-104,-20 L-104,-40 L-87,-50 Z" />
<path fill="#D8D388" d="M-52,110 L-52,130 L-69,140 L-87,130 L-87,110 L-69,100 Z" />
<path fill="#D8D388" d="M-69,80 L-69,100 L-87,110 L-104,100 L-104,80 L-87,70 Z" />
<path fill="#4ee055" d="M-87,-70 L-87,-50 L-104,-40 L-121,-50 L-121,-70 L-104,-80 Z" />
<path fill="#D8D388" d="M104,-160 L104,-140 L87,-130 L69,-140 L69,-160 L87,-170 Z" />
<path fill="#4ee055" d="M121,-130 L121,-110 L104,-100 L87,-110 L87,-130 L104,-140 Z" />
<path fill="#D8D388" d="M-69,140 L-69,160 L-87,170 L-104,160 L-104,140 L-87,130 Z" />
<path fill="#4ee055" d="M-139,20 L-139,40 L-156,50 L-173,40 L-173,20 L-156,10 Z" />
<path fill="#D8D388" d="M-156,-10 L-156,10 L-173,20 L-191,10 L-191,-10 L-173,-20 Z" />
<path fill="#4ee055" d="M-139,-40 L-139,-20 L-156,-10 L-173,-20 L-173,-40 L-156,-50 Z" />
<path fill="#D8D388" d="M-121,-70 L-121,-50 L-139,-40 L-156,-50 L-156,-70 L-139,-80 Z" />
<path fill="#D8D388" d="M-104,-100 L-104,-80 L-121,-70 L-139,-80 L-139,-100 L-121,-110 Z" />
<path fill="#4ee055" d="M-87,-130 L-87,-110 L-104,-100 L-121,-110 L-121,-130 L-104,-140 Z" />
<path fill="#4ee055" d="M-87,-190 L-87,-170 L-104,-160 L-121,-170 L-121,-190 L-104,-200 Z" />
<path fill="#D8D388" d="M87,-190 L87,-170 L69,-160 L52,-170 L52,-190 L69,-200 Z" />
<path fill="#D8D388" d="M-52,170 L-52,190 L-69,200 L-87,190 L-87,170 L-69,160 Z" />
<path fill="#D8D388" d="M-156,50 L-156,70 L-173,80 L-191,70 L-191,50 L-173,40 Z" />
<path fill="#D8D388" d="M-173,20 L-173,40 L-191,50 L-208,40 L-208,20 L-191,10 Z" />
<path fill="#4ee055" d="M-191,-10 L-191,10 L-208,20 L-225,10 L-225,-10 L-208,-20 Z" />
<path fill="#D8D388" d="M-173,-40 L-173,-20 L-191,-10 L-208,-20 L-208,-40 L-191,-50 Z" />
<path fill="#D8D388" d="M-156,-70 L-156,-50 L-173,-40 L-191,-50 L-191,-70 L-173,-80 Z" />
<path fill="#4ee055" d="M-139,-100 L-139,-80 L-156,-70 L-173,-80 L-173,-100 L-156,-110 Z" />
<path fill="#D8D388" d="M-104,-160 L-104,-140 L-121,-130 L-139,-140 L-139,-160 L-121,-170 Z" />
<path fill="#4ee055" d="M-87,-190 L-87,-170 L-104,-160 L-121,-170 L-121,-190 L-104,-200 Z" />
<path fill="#D8D388" d="M-104,-220 L-104,-200 L-121,-190 L-139,-200 L-139,-220 L-121,-230 Z" />
<path fill="#4ee055" d="M69,-220 L69,-200 L52,-190 L35,-200 L35,-220 L52,-230 Z" />
<path fill="#D8D388" d="M-173,80 L-173,100 L-191,110 L-208,100 L-208,80 L-191,70 Z" />
<path fill="#4ee055" d="M-191,50 L-191,70 L-208,80 L-225,70 L-225,50 L-208,40 Z" />
<path fill="#D8D388" d="M-208,20 L-208,40 L-225,50 L-242,40 L-242,20 L-225,10 Z" />
<path fill="#D8D388" d="M-225,-10 L-225,10 L-242,20 L-260,10 L-260,-10 L-242,-20 Z" />
<path fill="#D8D388" d="M-208,-40 L-208,-20 L-225,-10 L-242,-20 L-242,-40 L-225,-50 Z" />
<path fill="#4ee055" d="M-191,-70 L-191,-50 L-208,-40 L-225,-50 L-225,-70 L-208,-80 Z" />
<path fill="#D8D388" d="M-173,-100 L-173,-80 L-191,-70 L-208,-80 L-208,-100 L-191,-110 Z" />
<path fill="#D8D388" d="M-156,-130 L-156,-110 L-173,-100 L-191,-110 L-191,-130 L-173,-140 Z" />
<path fill="#D8D388" d="M-104,-220 L-104,-200 L-121,-190 L-139,-200 L-139,-220 L-121,-230 Z" />
<path fill="#D8D388" d="M-121,-250 L-121,-230 L-139,-220 L-156,-230 L-156,-250 L-139,-260 Z" />
<path fill="#4ee055" d="M17,-250 L17,-230 L0,-220 L-17,-230 L-17,-250 L0,-260 Z" />
<path fill="#D8D388" d="M52,-250 L52,-230 L35,-220 L17,-230 L17,-250 L35,-260 Z" />
<path fill="#4ee055" d="M-191,110 L-191,130 L-208,140 L-225,130 L-225,110 L-208,100 Z" />
<path fill="#D8D388" d="M-208,80 L-208,100 L-225,110 L-242,100 L-242,80 L-225,70 Z" />
<path fill="#D8D388" d="M-225,50 L-225,70 L-242,80 L-260,70 L-260,50 L-242,40 Z" />
<path fill="#4ee055" d="M-242,20 L-242,40 L-260,50 L-277,40 L-277,20 L-260,10 Z" />
<path fill="#D8D388" d="M-260,-10 L-260,10 L-277,20 L-294,10 L-294,-10 L-277,-20 Z" />
<path fill="#4ee055" d="M-242,-40 L-242,-20 L-260,-10 L-277,-20 L-277,-40 L-260,-50 Z" />
<path fill="#D8D388" d="M-225,-70 L-225,-50 L-242,-40 L-260,-50 L-260,-70 L-242,-80 Z" />
<path fill="#D8D388" d="M-208,-100 L-208,-80 L-225,-70 L-242,-80 L-242,-100 L-225,-110 Z" />
<path fill="#4ee055" d="M-191,-130 L-191,-110 L-208,-100 L-225,-110 L-225,-130 L-208,-140 Z" />
<path fill="#D8D388" d="M-173,-160 L-173,-140 L-191,-130 L-208,-140 L-208,-160 L-191,-170 Z" />
<path fill="#D8D388" d="M-156,-190 L-156,-170 L-173,-160 L-191,-170 L-191,-190 L-173,-200 Z" />
<path fill="#D8D388" d="M-121,-250 L-121,-230 L-139,-220 L-156,-230 L-156,-250 L-139,-260 Z" />
<path fill="#4ee055" d="M-139,-280 L-139,-260 L-156,-250 L-173,-260 L-173,-280 L-156,-290 Z" />
<path fill="#D8D388" d="M0,-280 L0,-260 L-17,-250 L-35,-260 L-35,-280 L-17,-290 Z" />
<path fill="#D8D388" d="M35,-280 L35,-260 L17,-250 L0,-260 L0,-280 L17,-290 Z" />
<path fill="#4ee055" d="M-191,170 L-191,190 L-208,200 L-225,190 L-225,170 L-208,160 Z" />
<path fill="#D8D388" d="M-208,140 L-208,160 L-225,170 L-242,160 L-242,140 L-225,130 Z" />
<path fill="#D8D388" d="M-225,110 L-225,130 L-242,140 L-260,130 L-260,110 L-242,100 Z" />
<path fill="#4ee055" d="M-242,80 L-242,100 L-260,110 L-277,100 L-277,80 L-260,70 Z" />
<path fill="#D8D388" d="M-260,50 L-260,70 L-277,80 L-294,70 L-294,50 L-277,40 Z" />
<path fill="#D8D388" d="M-277,20 L-277,40 L-294,50 L-312,40 L-312,20 L-294,10 Z" />
<path fill="#D8D388" d="M-277,-40 L-277,-20 L-294,-10 L-312,-20 L-312,-40 L-294,-50 Z" />
<path fill="#D8D388" d="M-260,-70 L-260,-50 L-277,-40 L-294,-50 L-294,-70 L-277,-80 Z" />
<path fill="#4ee055" d="M-242,-100 L-242,-80 L-260,-70 L-277,-80 L-277,-100 L-260,-110 Z" />
<path fill="#D8D388" d="M-225,-130 L-225,-110 L-242,-100 L-260,-110 L-260,-130 L-242,-140 Z" />
<path fill="#D8D388" d="M-208,-160 L-208,-140 L-225,-130 L-242,-140 L-242,-160 L-225,-170 Z" />
<path fill="#4ee055" d="M-191,-190 L-191,-170 L-208,-160 L-225,-170 L-225,-190 L-208,-200 Z" />
<path fill="#D8D388" d="M-173,-220 L-173,-200 L-191,-190 L-208,-200 L-208,-220 L-191,-230 Z" />
<path fill="#4ee055" d="M-139,-280 L-139,-260 L-156,-250 L-173,-260 L-173,-280 L-156,-290 Z" />
<path fill="#D8D388" d="M-156,-310 L-156,-290 L-173,-280 L-191,-290 L-191,-310 L-173,-320 Z" />
<path fill="#D8D388" d="M-121,-310 L-121,-290 L-139,-280 L-156,-290 L-156,-310 L-139,-320 Z" />
<path fill="#D8D388" d="M-17,-310 L-17,-290 L-35,-280 L-52,-290 L-52,-310 L-35,-320 Z" />
<path fill="#D8D388" d="M-208,200 L-208,220 L-225,230 L-242,220 L-242,200 L-225,190 Z" />
<path fill="#D8D388" d="M-225,170 L-225,190 L-242,200 L-260,190 L-260,170 L-242,160 Z" />
<path fill="#4ee055" d="M-242,140 L-242,160 L-260,170 L-277,160 L-277,140 L-260,130 Z" />
<path fill="#D8D388" d="M-260,110 L-260,130 L-277,140 L-294,130 L-294,110 L-277,100 Z" />
<path fill="#D8D388" d="M-277,80 L-277,100 L-294,110 L-312,100 L-312,80 L-294,70 Z" />
<path fill="#D8D388" d="M-277,-100 L-277,-80 L-294,-70 L-312,-80 L-312,-100 L-294,-110 Z" />
<path fill="#D8D388" d="M-260,-130 L-260,-110 L-277,-100 L-294,-110 L-294,-130 L-277,-140 Z" />
<path fill="#4ee055" d="M-242,-160 L-242,-140 L-260,-130 L-277,-140 L-277,-160 L-260,-170 Z" />
<path fill="#D8D388" d="M-225,-190 L-225,-170 L-242,-160 L-260,-170 L-260,-190 L-242,-200 Z" />
<path fill="#D8D388" d="M-208,-220 L-208,-200 L-225,-190 L-242,-200 L-242,-220 L-225,-230 Z" />
<path fill="#4ee055" d="M-191,-250 L-191,-230 L-208,-220 L-225,-230 L-225,-250 L-208,-260 Z" />
<path fill="#D8D388" d="M-173,-280 L-173,-260 L-191,-250 L-208,-260 L-208,-280 L-191,-290 Z" />
<path fill="#D8D388" d="M-156,-310 L-156,-290 L-173,-280 L-191,-290 L-191,-310 L-173,-320 Z" />
<path fill="#D8D388" d="M-173,-340 L-173,-320 L-191,-310 L-208,-320 L-208,-340 L-191,-350 Z" />
<path fill="#D8D388" d="M-69,-340 L-69,-320 L-87,-310 L-104,-320 L-104,-340 L-87,-350 Z" />
<path fill="#4ee055" d="M-35,-340 L-35,-320 L-52,-310 L-69,-320 L-69,-340 L-52,-350 Z" />
<path fill="#D8D388" d="M-225,230 L-225,250 L-242,260 L-260,250 L-260,230 L-242,220 Z" />
<path fill="#D8D388" d="M-260,170 L-260,190 L-277,200 L-294,190 L-294,170 L-277,160 Z" />
<path fill="#D8D388" d="M-329,50 L-329,70 L-346,80 L-364,70 L-364,50 L-346,40 Z" />
<path fill="#4ee055" d="M-346,20 L-346,40 L-364,50 L-381,40 L-381,20 L-364,10 Z" />
<path fill="#4ee055" d="M-346,-40 L-346,-20 L-364,-10 L-381,-20 L-381,-40 L-364,-50 Z" />
<path fill="#D8D388" d="M-329,-70 L-329,-50 L-346,-40 L-364,-50 L-364,-70 L-346,-80 Z" />
<path fill="#D8D388" d="M-277,-160 L-277,-140 L-294,-130 L-312,-140 L-312,-160 L-294,-170 Z" />
<path fill="#D8D388" d="M-260,-190 L-260,-170 L-277,-160 L-294,-170 L-294,-190 L-277,-200 Z" />
<path fill="#4ee055" d="M-242,-220 L-242,-200 L-260,-190 L-277,-200 L-277,-220 L-260,-230 Z" />
<path fill="#D8D388" d="M-225,-250 L-225,-230 L-242,-220 L-260,-230 L-260,-250 L-242,-260 Z" />
<path fill="#D8D388" d="M-208,-280 L-208,-260 L-225,-250 L-242,-260 L-242,-280 L-225,-290 Z" />
<path fill="#4ee055" d="M-191,-310 L-191,-290 L-208,-280 L-225,-290 L-225,-310 L-208,-320 Z" />
<path fill="#D8D388" d="M-173,-340 L-173,-320 L-191,-310 L-208,-320 L-208,-340 L-191,-350 Z" />
<path fill="#4ee055" d="M-191,-370 L-191,-350 L-208,-340 L-225,-350 L-225,-370 L-208,-380 Z" />
<path fill="#D8D388" d="M-156,-370 L-156,-350 L-173,-340 L-191,-350 L-191,-370 L-173,-380 Z" />
<path fill="#D8D388" d="M-121,-370 L-121,-350 L-139,-340 L-156,-350 L-156,-370 L-139,-380 Z" />
<path fill="#4ee055" d="M-87,-370 L-87,-350 L-104,-340 L-121,-350 L-121,-370 L-104,-380 Z" />
<path fill="#D8D388" d="M-52,-370 L-52,-350 L-69,-340 L-87,-350 L-87,-370 L-69,-380 Z" />
<path fill="#D8D388" d="M-225,290 L-225,310 L-242,320 L-260,310 L-260,290 L-242,280 Z" />
<path fill="#4ee055" d="M-242,260 L-242,280 L-260,290 L-277,280 L-277,260 L-260,250 Z" />
<path fill="#D8D388" d="M-329,110 L-329,130 L-346,140 L-364,130 L-364,110 L-346,100 Z" />
<path fill="#4ee055" d="M-346,80 L-346,100 L-364,110 L-381,100 L-381,80 L-364,70 Z" />
<path fill="#D8D388" d="M-364,-70 L-364,-50 L-381,-40 L-398,-50 L-398,-70 L-381,-80 Z" />
<path fill="#4ee055" d="M-346,-100 L-346,-80 L-364,-70 L-381,-80 L-381,-100 L-364,-110 Z" />
<path fill="#D8D388" d="M-329,-130 L-329,-110 L-346,-100 L-364,-110 L-364,-130 L-346,-140 Z" />
<path fill="#D8D388" d="M-277,-220 L-277,-200 L-294,-190 L-312,-200 L-312,-220 L-294,-230 Z" />
<path fill="#D8D388" d="M-260,-250 L-260,-230 L-277,-220 L-294,-230 L-294,-250 L-277,-260 Z" />
<path fill="#4ee055" d="M-242,-280 L-242,-260 L-260,-250 L-277,-260 L-277,-280 L-260,-290 Z" />
<path fill="#D8D388" d="M-225,-310 L-225,-290 L-242,-280 L-260,-290 L-260,-310 L-242,-320 Z" />
<path fill="#D8D388" d="M-208,-340 L-208,-320 L-225,-310 L-242,-320 L-242,-340 L-225,-350 Z" />
<path fill="#4ee055" d="M-191,-370 L-191,-350 L-208,-340 L-225,-350 L-225,-370 L-208,-380 Z" />
<path fill="#D8D388" d="M-208,-400 L-208,-380 L-225,-370 L-242,-380 L-242,-400 L-225,-410 Z" />
<path fill="#D8D388" d="M-173,-400 L-173,-380 L-191,-370 L-208,-380 L-208,-400 L-191,-410 Z" />
<path fill="#4ee055" d="M-139,-400 L-139,-380 L-156,-370 L-173,-380 L-173,-400 L-156,-410 Z" />
<path fill="#D8D388" d="M-104,-400 L-104,-380 L-121,-370 L-139,-380 L-139,-400 L-121,-410 Z" />
<path fill="#D8D388" d="M-69,-400 L-69,-380 L-87,-370 L-104,-380 L-104,-400 L-87,-410 Z" />
<path fill="#4ee055" d="M-35,-400 L-35,-380 L-52,-370 L-69,-380 L-69,-400 L-52,-410 Z" />
<path fill="#D8D388" d="M-260,290 L-260,310 L-277,320 L-294,310 L-294,290 L-277,280 Z" />
<path fill="#D8D388" d="M-329,170 L-329,190 L-346,200 L-364,190 L-364,170 L-346,160 Z" />
<path fill="#4ee055" d="M-346,140 L-346,160 L-364,170 L-381,160 L-381,140 L-364,130 Z" />
<path fill="#4ee055" d="M-346,-160 L-346,-140 L-364,-130 L-381,-140 L-381,-160 L-364,-170 Z" />
<path fill="#D8D388" d="M-329,-190 L-329,-170 L-346,-160 L-364,-170 L-364,-190 L-346,-200 Z" />
<path fill="#4ee055" d="M-294,-250 L-294,-230 L-312,-220 L-329,-230 L-329,-250 L-312,-260 Z" />
<path fill="#D8D388" d="M-277,-280 L-277,-260 L-294,-250 L-312,-260 L-312,-280 L-294,-290 Z" />
<path fill="#D8D388" d="M-260,-310 L-260,-290 L-277,-280 L-294,-290 L-294,-310 L-277,-320 Z" />
<path fill="#4ee055" d="M-242,-340 L-242,-320 L-260,-310 L-277,-320 L-277,-340 L-260,-350 Z" />
<path fill="#D8D388" d="M-225,-370 L-225,-350 L-242,-340 L-260,-350 L-260,-370 L-242,-380 Z" />
<path fill="#D8D388" d="M-208,-400 L-208,-380 L-225,-370 L-242,-380 L-242,-400 L-225,-410 Z" />
<path fill="#D8D388" d="M-225,-430 L-225,-410 L-242,-400 L-260,-410 L-260,-430 L-242,-440 Z" />
<path fill="#4ee055" d="M-191,-430 L-191,-410 L-208,-400 L-225,-410 L-225,-430 L-208,-440 Z" />
<path fill="#D8D388" d="M-156,-430 L-156,-410 L-173,-400 L-191,-410 L-191,-430 L-173,-440 Z" />
<path fill="#D8D388" d="M-121,-430 L-121,-410 L-139,-400 L-156,-410 L-156,-430 L-139,-440 Z" />
<path fill="#4ee055" d="M-87,-430 L-87,-410 L-104,-400 L-121,-410 L-121,-430 L-104,-440 Z" />
<path fill="#D8D388" d="M-52,-430 L-52,-410 L-69,-400 L-87,-410 L-87,-430 L-69,-440 Z" />
<path fill="#D8D388" d="M-17,-430 L-17,-410 L-35,-400 L-52,-410 L-52,-430 L-35,-440 Z" />
<path fill="#4ee055" d="M17,-430 L17,-410 L0,-400 L-17,-410 L-17,-430 L0,-440 Z" />
<path fill="#D8D388" d="M52,-430 L52,-410 L35,-400 L17,-410 L17,-430 L35,-440 Z" />
<path fill="#D8D388" d="M-329,230 L-329,250 L-346,260 L-364,250 L-364,230 L-346,220 Z" />
<path fill="#4ee055" d="M-346,200 L-346,220 L-364,230 L-381,220 L-381,200 L-364,190 Z" />
<path fill="#4ee055" d="M-346,-220 L-346,-200 L-364,-190 L-381,-200 L-381,-220 L-364,-230 Z" />
<path fill="#D8D388" d="M-329,-250 L-329,-230 L-346,-220 L-364,-230 L-364,-250 L-346,-260 Z" />
<path fill="#D8D388" d="M-312,-280 L-312,-260 L-329,-250 L-346,-260 L-346,-280 L-329,-290 Z" />
<path fill="#4ee055" d="M-294,-310 L-294,-290 L-312,-280 L-329,-290 L-329,-310 L-312,-320 Z" />
<path fill="#D8D388" d="M-277,-340 L-277,-320 L-294,-310 L-312,-320 L-312,-340 L-294,-350 Z" />
<path fill="#D8D388" d="M-260,-370 L-260,-350 L-277,-340 L-294,-350 L-294,-370 L-277,-380 Z" />
<path fill="#4ee055" d="M-242,-400 L-242,-380 L-260,-370 L-277,-380 L-277,-400 L-260,-410 Z" />
<path fill="#D8D388" d="M-225,-430 L-225,-410 L-242,-400 L-260,-410 L-260,-430 L-242,-440 Z" />
<path fill="#4ee055" d="M-242,-460 L-242,-440 L-260,-430 L-277,-440 L-277,-460 L-260,-470 Z" />
<path fill="#D8D388" d="M-208,-460 L-208,-440 L-225,-430 L-242,-440 L-242,-460 L-225,-470 Z" />
<path fill="#D8D388" d="M-173,-460 L-173,-440 L-191,-430 L-208,-440 L-208,-460 L-191,-470 Z" />
<path fill="#4ee055" d="M-139,-460 L-139,-440 L-156,-430 L-173,-440 L-173,-460 L-156,-470 Z" />
<path fill="#D8D388" d="M-104,-460 L-104,-440 L-121,-430 L-139,-440 L-139,-460 L-121,-470 Z" />
<path fill="#D8D388" d="M-69,-460 L-69,-440 L-87,-430 L-104,-440 L-104,-460 L-87,-470 Z" />
<path fill="#4ee055" d="M-35,-460 L-35,-440 L-52,-430 L-69,-440 L-69,-460 L-52,-470 Z" />
<path fill="#D8D388" d="M0,-460 L0,-440 L-17,-430 L-35,-440 L-35,-460 L-17,-470 Z" />
<path fill="#D8D388" d="M35,-460 L35,-440 L17,-430 L0,-440 L0,-460 L17,-470 Z" />
<path fill="#4ee055" d="M69,-460 L69,-440 L52,-430 L35,-440 L35,-460 L52,-470 Z" />
<path fill="#D8D388" d="M-329,290 L-329,310 L-346,320 L-364,310 L-364,290 L-346,280 Z" />
<path fill="#4ee055" d="M-346,260 L-346,280 L-364,290 L-381,280 L-381,260 L-364,250 Z" />
<path fill="#D8D388" d="M-312,-340 L-312,-320 L-329,-310 L-346,-320 L-346,-340 L-329,-350 Z" />
<path fill="#4ee055" d="M-294,-370 L-294,-350 L-312,-340 L-329,-350 L-329,-370 L-312,-380 Z" />
<path fill="#D8D388" d="M-277,-400 L-277,-380 L-294,-370 L-312,-380 L-312,-400 L-294,-410 Z" />
<path fill="#D8D388" d="M-260,-430 L-260,-410 L-277,-400 L-294,-410 L-294,-430 L-277,-440 Z" />
<path fill="#4ee055" d="M-242,-460 L-242,-440 L-260,-430 L-277,-440 L-277,-460 L-260,-470 Z" />
<path fill="#D8D388" d="M-260,-490 L-260,-470 L-277,-460 L-294,-470 L-294,-490 L-277,-500 Z" />
<path fill="#D8D388" d="M-225,-490 L-225,-470 L-242,-460 L-260,-470 L-260,-490 L-242,-500 Z" />
<path fill="#4ee055" d="M-191,-490 L-191,-470 L-208,-460 L-225,-470 L-225,-490 L-208,-500 Z" />
<path fill="#D8D388" d="M-156,-490 L-156,-470 L-173,-460 L-191,-470 L-191,-490 L-173,-500 Z" />
<path fill="#D8D388" d="M-121,-490 L-121,-470 L-139,-460 L-156,-470 L-156,-490 L-139,-500 Z" />
<path fill="#4ee055" d="M-87,-490 L-87,-470 L-104,-460 L-121,-470 L-121,-490 L-104,-500 Z" />
<path fill="#D8D388" d="M-52,-490 L-52,-470 L-69,-460 L-87,-470 L-87,-490 L-69,-500 Z" />
<path fill="#D8D388" d="M-17,-490 L-17,-470 L-35,-460 L-52,-470 L-52,-490 L-35,-500 Z" />
<path fill="#4ee055" d="M17,-490 L17,-470 L0,-460 L-17,-470 L-17,-490 L0,-500 Z" />
<path fill="#D8D388" d="M52,-490 L52,-470 L35,-460 L17,-470 L17,-490 L35,-500 Z" />
<path fill="#D8D388" d="M87,-490 L87,-470 L69,-460 L52,-470 L52,-490 L69,-500 Z" />
<path fill="#4ee055" d="M121,-490 L121,-470 L104,-460 L87,-470 L87,-490 L104,-500 Z" />
<path fill="#D8D388" d="M-537,-10 L-537,10 L-554,20 L-572,10 L-572,-10 L-554,-20 Z" />
<path fill="#D8D388" d="M-364,-310 L-364,-290 L-381,-280 L-398,-290 L-398,-310 L-381,-320 Z" />
<path fill="#4ee055" d="M-346,-340 L-346,-320 L-364,-310 L-381,-320 L-381,-340 L-364,-350 Z" />
<path fill="#D8D388" d="M-329,-370 L-329,-350 L-346,-340 L-364,-350 L-364,-370 L-346,-380 Z" />
<path fill="#D8D388" d="M-312,-400 L-312,-380 L-329,-370 L-346,-380 L-346,-400 L-329,-410 Z" />
<path fill="#4ee055" d="M-294,-430 L-294,-410 L-312,-400 L-329,-410 L-329,-430 L-312,-440 Z" />
<path fill="#D8D388" d="M-277,-460 L-277,-440 L-294,-430 L-312,-440 L-312,-460 L-294,-470 Z" />
<path fill="#D8D388" d="M-260,-490 L-260,-470 L-277,-460 L-294,-470 L-294,-490 L-277,-500 Z" />
<path fill="#D8D388" d="M-277,-520 L-277,-500 L-294,-490 L-312,-500 L-312,-520 L-294,-530 Z" />
<path fill="#4ee055" d="M-242,-520 L-242,-500 L-260,-490 L-277,-500 L-277,-520 L-260,-530 Z" />
<path fill="#D8D388" d="M-208,-520 L-208,-500 L-225,-490 L-242,-500 L-242,-520 L-225,-530 Z" />
<path fill="#D8D388" d="M-173,-520 L-173,-500 L-191,-490 L-208,-500 L-208,-520 L-191,-530 Z" />
<path fill="#4ee055" d="M-139,-520 L-139,-500 L-156,-490 L-173,-500 L-173,-520 L-156,-530 Z" />
<path fill="#D8D388" d="M-104,-520 L-104,-500 L-121,-490 L-139,-500 L-139,-520 L-121,-530 Z" />
<path fill="#D8D388" d="M-69,-520 L-69,-500 L-87,-490 L-104,-500 L-104,-520 L-87,-530 Z" />
<path fill="#4ee055" d="M-35,-520 L-35,-500 L-52,-490 L-69,-500 L-69,-520 L-52,-530 Z" />
<path fill="#D8D388" d="M0,-520 L0,-500 L-17,-490 L-35,-500 L-35,-520 L-17,-530 Z" />
<path fill="#D8D388" d="M35,-520 L35,-500 L17,-490 L0,-500 L0,-520 L17,-530 Z" />
<path fill="#4ee055" d="M69,-520 L69,-500 L52,-490 L35,-500 L35,-520 L52,-530 Z" />
<path fill="#D8D388" d="M104,-520 L104,-500 L87,-490 L69,-500 L69,-520 L87,-530 Z" />
<path fill="#4ee055" d="M-554,20 L-554,40 L-572,50 L-589,40 L-589,20 L-572,10 Z" />
<path fill="#4ee055" d="M-554,-40 L-554,-20 L-572,-10 L-589,-20 L-589,-40 L-572,-50 Z" />
<path fill="#D8D388" d="M-537,-70 L-537,-50 L-554,-40 L-572,-50 L-572,-70 L-554,-80 Z" />
<path fill="#D8D388" d="M-520,-100 L-520,-80 L-537,-70 L-554,-80 L-554,-100 L-537,-110 Z" />
<path fill="#4ee055" d="M-502,-130 L-502,-110 L-520,-100 L-537,-110 L-537,-130 L-520,-140 Z" />
<path fill="#D8D388" d="M-485,-160 L-485,-140 L-502,-130 L-520,-140 L-520,-160 L-502,-170 Z" />
<path fill="#D8D388" d="M-468,-190 L-468,-170 L-485,-160 L-502,-170 L-502,-190 L-485,-200 Z" />
<path fill="#4ee055" d="M-450,-220 L-450,-200 L-468,-190 L-485,-200 L-485,-220 L-468,-230 Z" />
<path fill="#D8D388" d="M-433,-250 L-433,-230 L-450,-220 L-468,-230 L-468,-250 L-450,-260 Z" />
<path fill="#D8D388" d="M-416,-280 L-416,-260 L-433,-250 L-450,-260 L-450,-280 L-433,-290 Z" />
<path fill="#4ee055" d="M-398,-310 L-398,-290 L-416,-280 L-433,-290 L-433,-310 L-416,-320 Z" />
<path fill="#D8D388" d="M-381,-340 L-381,-320 L-398,-310 L-416,-320 L-416,-340 L-398,-350 Z" />
<path fill="#D8D388" d="M-364,-370 L-364,-350 L-381,-340 L-398,-350 L-398,-370 L-381,-380 Z" />
<path fill="#4ee055" d="M-346,-400 L-346,-380 L-364,-370 L-381,-380 L-381,-400 L-364,-410 Z" />
<path fill="#D8D388" d="M-329,-430 L-329,-410 L-346,-400 L-364,-410 L-364,-430 L-346,-440 Z" />
<path fill="#D8D388" d="M-312,-460 L-312,-440 L-329,-430 L-346,-440 L-346,-460 L-329,-470 Z" />
<path fill="#4ee055" d="M-294,-490 L-294,-470 L-312,-460 L-329,-470 L-329,-490 L-312,-500 Z" />
<path fill="#D8D388" d="M-277,-520 L-277,-500 L-294,-490 L-312,-500 L-312,-520 L-294,-530 Z" />
<path fill="#4ee055" d="M-294,-550 L-294,-530 L-312,-520 L-329,-530 L-329,-550 L-312,-560 Z" />
<path fill="#D8D388" d="M-260,-550 L-260,-530 L-277,-520 L-294,-530 L-294,-550 L-277,-560 Z" />
<path fill="#D8D388" d="M-225,-550 L-225,-530 L-242,-520 L-260,-530 L-260,-550 L-242,-560 Z" />
<path fill="#4ee055" d="M-191,-550 L-191,-530 L-208,-520 L-225,-530 L-225,-550 L-208,-560 Z" />
<path fill="#D8D388" d="M-156,-550 L-156,-530 L-173,-520 L-191,-530 L-191,-550 L-173,-560 Z" />
<path fill="#D8D388" d="M-121,-550 L-121,-530 L-139,-520 L-156,-530 L-156,-550 L-139,-560 Z" />
<path fill="#4ee055" d="M-87,-550 L-87,-530 L-104,-520 L-121,-530 L-121,-550 L-104,-560 Z" />
<path fill="#D8D388" d="M-52,-550 L-52,-530 L-69,-520 L-87,-530 L-87,-550 L-69,-560 Z" />
<path fill="#D8D388" d="M-17,-550 L-17,-530 L-35,-520 L-52,-530 L-52,-550 L-35,-560 Z" />
<path fill="#4ee055" d="M17,-550 L17,-530 L0,-520 L-17,-530 L-17,-550 L0,-560 Z" />
<path fill="#D8D388" d="M52,-550 L52,-530 L35,-520 L17,-530 L17,-550 L35,-560 Z" />
<path fill="#D8D388" d="M87,-550 L87,-530 L69,-520 L52,-530 L52,-550 L69,-560 Z" />
<path fill="#4ee055" d="M121,-550 L121,-530 L104,-520 L87,-530 L87,-550 L104,-560 Z" />
<path fill="#D8D388" d="M-572,50 L-572,70 L-589,80 L-606,70 L-606,50 L-589,40 Z" />
<path fill="#D8D388" d="M-468,-250 L-468,-230 L-485,-220 L-502,-230 L-502,-250 L-485,-260 Z" />
<path fill="#4ee055" d="M-450,-280 L-450,-260 L-468,-250 L-485,-260 L-485,-280 L-468,-290 Z" />
<path fill="#D8D388" d="M-433,-310 L-433,-290 L-450,-280 L-468,-290 L-468,-310 L-450,-320 Z" />
<path fill="#D8D388" d="M-416,-340 L-416,-320 L-433,-310 L-450,-320 L-450,-340 L-433,-350 Z" />
<path fill="#4ee055" d="M-398,-370 L-398,-350 L-416,-340 L-433,-350 L-433,-370 L-416,-380 Z" />
<path fill="#D8D388" d="M-381,-400 L-381,-380 L-398,-370 L-416,-380 L-416,-400 L-398,-410 Z" />
<path fill="#D8D388" d="M-364,-430 L-364,-410 L-381,-400 L-398,-410 L-398,-430 L-381,-440 Z" />
<path fill="#4ee055" d="M-346,-460 L-346,-440 L-364,-430 L-381,-440 L-381,-460 L-364,-470 Z" />
<path fill="#D8D388" d="M-329,-490 L-329,-470 L-346,-460 L-364,-470 L-364,-490 L-346,-500 Z" />
<path fill="#D8D388" d="M-312,-520 L-312,-500 L-329,-490 L-346,-500 L-346,-520 L-329,-530 Z" />
<path fill="#4ee055" d="M-294,-550 L-294,-530 L-312,-520 L-329,-530 L-329,-550 L-312,-560 Z" />
<path fill="#D8D388" d="M-312,-580 L-312,-560 L-329,-550 L-346,-560 L-346,-580 L-329,-590 Z" />
<path fill="#D8D388" d="M-277,-580 L-277,-560 L-294,-550 L-312,-560 L-312,-580 L-294,-590 Z" />
<path fill="#4ee055" d="M-242,-580 L-242,-560 L-260,-550 L-277,-560 L-277,-580 L-260,-590 Z" />
<path fill="#D8D388" d="M-208,-580 L-208,-560 L-225,-550 L-242,-560 L-242,-580 L-225,-590 Z" />
<path fill="#D8D388" d="M-173,-580 L-173,-560 L-191,-550 L-208,-560 L-208,-580 L-191,-590 Z" />
<path fill="#4ee055" d="M-139,-580 L-139,-560 L-156,-550 L-173,-560 L-173,-580 L-156,-590 Z" />
<path fill="#D8D388" d="M-104,-580 L-104,-560 L-121,-550 L-139,-560 L-139,-580 L-121,-590 Z" />
<path fill="#D8D388" d="M-69,-580 L-69,-560 L-87,-550 L-104,-560 L-104,-580 L-87,-590 Z" />
<path fill="#4ee055" d="M-35,-580 L-35,-560 L-52,-550 L-69,-560 L-69,-580 L-52,-590 Z" />
<path fill="#D8D388" d="M0,-580 L0,-560 L-17,-550 L-35,-560 L-35,-580 L-17,-590 Z" />
<path fill="#D8D388" d="M35,-580 L35,-560 L17,-550 L0,-560 L0,-580 L17,-590 Z" />
<path fill="#4ee055" d="M69,-580 L69,-560 L52,-550 L35,-560 L35,-580 L52,-590 Z" />
<path fill="#D8D388" d="M104,-580 L104,-560 L87,-550 L69,-560 L69,-580 L87,-590 Z" />
<path fill="#D8D388" d="M139,-580 L139,-560 L121,-550 L104,-560 L104,-580 L121,-590 Z" />
<path fill="#4ee055" d="M173,-580 L173,-560 L156,-550 L139,-560 L139,-580 L156,-590 Z" />
<path fill="#D8D388" d="M-468,-310 L-468,-290 L-485,-280 L-502,-290 L-502,-310 L-485,-320 Z" />
<path fill="#4ee055" d="M-450,-340 L-450,-320 L-468,-310 L-485,-320 L-485,-340 L-468,-350 Z" />
<path fill="#D8D388" d="M-433,-370 L-433,-350 L-450,-340 L-468,-350 L-468,-370 L-450,-380 Z" />
<path fill="#D8D388" d="M-416,-400 L-416,-380 L-433,-370 L-450,-380 L-450,-400 L-433,-410 Z" />
<path fill="#4ee055" d="M-398,-430 L-398,-410 L-416,-400 L-433,-410 L-433,-430 L-416,-440 Z" />
<path fill="#D8D388" d="M-381,-460 L-381,-440 L-398,-430 L-416,-440 L-416,-460 L-398,-470 Z" />
<path fill="#D8D388" d="M-364,-490 L-364,-470 L-381,-460 L-398,-470 L-398,-490 L-381,-500 Z" />
<path fill="#4ee055" d="M-346,-520 L-346,-500 L-364,-490 L-381,-500 L-381,-520 L-364,-530 Z" />
<path fill="#D8D388" d="M-329,-550 L-329,-530 L-346,-520 L-364,-530 L-364,-550 L-346,-560 Z" />
<path fill="#D8D388" d="M-312,-580 L-312,-560 L-329,-550 L-346,-560 L-346,-580 L-329,-590 Z" />
<path fill="#D8D388" d="M-329,-610 L-329,-590 L-346,-580 L-364,-590 L-364,-610 L-346,-620 Z" />
<path fill="#4ee055" d="M-294,-610 L-294,-590 L-312,-580 L-329,-590 L-329,-610 L-312,-620 Z" />
<path fill="#D8D388" d="M-260,-610 L-260,-590 L-277,-580 L-294,-590 L-294,-610 L-277,-620 Z" />
<path fill="#4ee055" d="M-191,-610 L-191,-590 L-208,-580 L-225,-590 L-225,-610 L-208,-620 Z" />
<path fill="#D8D388" d="M-121,-610 L-121,-590 L-139,-580 L-156,-590 L-156,-610 L-139,-620 Z" />
<path fill="#4ee055" d="M-87,-610 L-87,-590 L-104,-580 L-121,-590 L-121,-610 L-104,-620 Z" />
<path fill="#D8D388" d="M-52,-610 L-52,-590 L-69,-580 L-87,-590 L-87,-610 L-69,-620 Z" />
<path fill="#D8D388" d="M-17,-610 L-17,-590 L-35,-580 L-52,-590 L-52,-610 L-35,-620 Z" />
<path fill="#4ee055" d="M17,-610 L17,-590 L0,-580 L-17,-590 L-17,-610 L0,-620 Z" />
<path fill="#D8D388" d="M52,-610 L52,-590 L35,-580 L17,-590 L17,-610 L35,-620 Z" />
<path fill="#D8D388" d="M87,-610 L87,-590 L69,-580 L52,-590 L52,-610 L69,-620 Z" />
<path fill="#4ee055" d="M121,-610 L121,-590 L104,-580 L87,-590 L87,-610 L104,-620 Z" />
<path fill="#D8D388" d="M156,-610 L156,-590 L139,-580 L121,-590 L121,-610 L139,-620 Z" />
<path fill="#D8D388" d="M191,-610 L191,-590 L173,-580 L156,-590 L156,-610 L173,-620 Z" />
<path fill="#4ee055" d="M225,-610 L225,-590 L208,-580 L191,-590 L191,-610 L208,-620 Z" />
<path fill="#4ee055" d="M-502,-310 L-502,-290 L-520,-280 L-537,-290 L-537,-310 L-520,-320 Z" />
<path fill="#D8D388" d="M-485,-340 L-485,-320 L-502,-310 L-520,-320 L-520,-340 L-502,-350 Z" />
<path fill="#D8D388" d="M-468,-370 L-468,-350 L-485,-340 L-502,-350 L-502,-370 L-485,-380 Z" />
<path fill="#4ee055" d="M-450,-400 L-450,-380 L-468,-370 L-485,-380 L-485,-400 L-468,-410 Z" />
<path fill="#D8D388" d="M-433,-430 L-433,-410 L-450,-400 L-468,-410 L-468,-430 L-450,-440 Z" />
<path fill="#D8D388" d="M-416,-460 L-416,-440 L-433,-430 L-450,-440 L-450,-460 L-433,-470 Z" />
<path fill="#4ee055" d="M-398,-490 L-398,-470 L-416,-460 L-433,-470 L-433,-490 L-416,-500 Z" />
<path fill="#D8D388" d="M-381,-520 L-381,-500 L-398,-490 L-416,-500 L-416,-520 L-398,-530 Z" />
<path fill="#D8D388" d="M-364,-550 L-364,-530 L-381,-520 L-398,-530 L-398,-550 L-381,-560 Z" />
<path fill="#4ee055" d="M-346,-580 L-346,-560 L-364,-550 L-381,-560 L-381,-580 L-364,-590 Z" />
<path fill="#D8D388" d="M-329,-610 L-329,-590 L-346,-580 L-364,-590 L-364,-610 L-346,-620 Z" />
<path fill="#4ee055" d="M-346,-640 L-346,-620 L-364,-610 L-381,-620 L-381,-640 L-364,-650 Z" />
<path fill="#D8D388" d="M-312,-640 L-312,-620 L-329,-610 L-346,-620 L-346,-640 L-329,-650 Z" />
<path fill="#D8D388" d="M-277,-640 L-277,-620 L-294,-610 L-312,-620 L-312,-640 L-294,-650 Z" />
<path fill="#D8D388" d="M-208,-640 L-208,-620 L-225,-610 L-242,-620 L-242,-640 L-225,-650 Z" />
<path fill="#D8D388" d="M-69,-640 L-69,-620 L-87,-610 L-104,-620 L-104,-640 L-87,-650 Z" />
<path fill="#4ee055" d="M-35,-640 L-35,-620 L-52,-610 L-69,-620 L-69,-640 L-52,-650 Z" />
<path fill="#D8D388" d="M0,-640 L0,-620 L-17,-610 L-35,-620 L-35,-640 L-17,-650 Z" />
<path fill="#D8D388" d="M35,-640 L35,-620 L17,-610 L0,-620 L0,-640 L17,-650 Z" />
<path fill="#4ee055" d="M69,-640 L69,-620 L52,-610 L35,-620 L35,-640 L52,-650 Z" />
<path fill="#D8D388" d="M104,-640 L104,-620 L87,-610 L69,-620 L69,-640 L87,-650 Z" />
<path fill="#D8D388" d="M139,-640 L139,-620 L121,-610 L104,-620 L104,-640 L121,-650 Z" />
<path fill="#4ee055" d="M173,-640 L173,-620 L156,-610 L139,-620 L139,-640 L156,-650 Z" />
<path fill="#D8D388" d="M208,-640 L208,-620 L191,-610 L173,-620 L173,-640 L191,-650 Z" />
<path fill="#D8D388" d="M242,-640 L242,-620 L225,-610 L208,-620 L208,-640 L225,-650 Z" />
<path fill="#D8D388" d="M-537,-310 L-537,-290 L-554,-280 L-572,-290 L-572,-310 L-554,-320 Z" />
<path fill="#D8D388" d="M-520,-340 L-520,-320 L-537,-310 L-554,-320 L-554,-340 L-537,-350 Z" />
<path fill="#4ee055" d="M-502,-370 L-502,-350 L-520,-340 L-537,-350 L-537,-370 L-520,-380 Z" />
<path fill="#D8D388" d="M-485,-400 L-485,-380 L-502,-370 L-520,-380 L-520,-400 L-502,-410 Z" />
<path fill="#D8D388" d="M-468,-430 L-468,-410 L-485,-400 L-502,-410 L-502,-430 L-485,-440 Z" />
<path fill="#4ee055" d="M-450,-460 L-450,-440 L-468,-430 L-485,-440 L-485,-460 L-468,-470 Z" />
<path fill="#D8D388" d="M-433,-490 L-433,-470 L-450,-460 L-468,-470 L-468,-490 L-450,-500 Z" />
<path fill="#D8D388" d="M-416,-520 L-416,-500 L-433,-490 L-450,-500 L-450,-520 L-433,-530 Z" />
<path fill="#4ee055" d="M-398,-550 L-398,-530 L-416,-520 L-433,-530 L-433,-550 L-416,-560 Z" />
<path fill="#D8D388" d="M-381,-580 L-381,-560 L-398,-550 L-416,-560 L-416,-580 L-398,-590 Z" />
<path fill="#D8D388" d="M-364,-610 L-364,-590 L-381,-580 L-398,-590 L-398,-610 L-381,-620 Z" />
<path fill="#4ee055" d="M-346,-640 L-346,-620 L-364,-610 L-381,-620 L-381,-640 L-364,-650 Z" />
<path fill="#D8D388" d="M-364,-670 L-364,-650 L-381,-640 L-398,-650 L-398,-670 L-381,-680 Z" />
<path fill="#D8D388" d="M-329,-670 L-329,-650 L-346,-640 L-364,-650 L-364,-670 L-346,-680 Z" />
<path fill="#4ee055" d="M-294,-670 L-294,-650 L-312,-640 L-329,-650 L-329,-670 L-312,-680 Z" />
<path fill="#4ee055" d="M-191,-670 L-191,-650 L-208,-640 L-225,-650 L-225,-670 L-208,-680 Z" />
<path fill="#D8D388" d="M-17,-670 L-17,-650 L-35,-640 L-52,-650 L-52,-670 L-35,-680 Z" />
<path fill="#4ee055" d="M17,-670 L17,-650 L0,-640 L-17,-650 L-17,-670 L0,-680 Z" />
<path fill="#D8D388" d="M52,-670 L52,-650 L35,-640 L17,-650 L17,-670 L35,-680 Z" />
<path fill="#D8D388" d="M87,-670 L87,-650 L69,-640 L52,-650 L52,-670 L69,-680 Z" />
<path fill="#4ee055" d="M121,-670 L121,-650 L104,-640 L87,-650 L87,-670 L104,-680 Z" />
<path fill="#D8D388" d="M156,-670 L156,-650 L139,-640 L121,-650 L121,-670 L139,-680 Z" />
<path fill="#D8D388" d="M191,-670 L191,-650 L173,-640 L156,-650 L156,-670 L173,-680 Z" />
<path fill="#4ee055" d="M225,-670 L225,-650 L208,-640 L191,-650 L191,-670 L208,-680 Z" />
<path fill="#D8D388" d="M260,-670 L260,-650 L242,-640 L225,-650 L225,-670 L242,-680 Z" />
<path fill="#D8D388" d="M-572,-310 L-572,-290 L-589,-280 L-606,-290 L-606,-310 L-589,-320 Z" />
<path fill="#4ee055" d="M-554,-340 L-554,-320 L-572,-310 L-589,-320 L-589,-340 L-572,-350 Z" />
<path fill="#D8D388" d="M-537,-370 L-537,-350 L-554,-340 L-572,-350 L-572,-370 L-554,-380 Z" />
<path fill="#D8D388" d="M-520,-400 L-520,-380 L-537,-370 L-554,-380 L-554,-400 L-537,-410 Z" />
<path fill="#4ee055" d="M-502,-430 L-502,-410 L-520,-400 L-537,-410 L-537,-430 L-520,-440 Z" />
<path fill="#D8D388" d="M-485,-460 L-485,-440 L-502,-430 L-520,-440 L-520,-460 L-502,-470 Z" />
<path fill="#D8D388" d="M-468,-490 L-468,-470 L-485,-460 L-502,-470 L-502,-490 L-485,-500 Z" />
<path fill="#D8D388" d="M-433,-550 L-433,-530 L-450,-520 L-468,-530 L-468,-550 L-450,-560 Z" />
<path fill="#4ee055" d="M-398,-610 L-398,-590 L-416,-580 L-433,-590 L-433,-610 L-416,-620 Z" />
<path fill="#D8D388" d="M-381,-640 L-381,-620 L-398,-610 L-416,-620 L-416,-640 L-398,-650 Z" />
<path fill="#D8D388" d="M-364,-670 L-364,-650 L-381,-640 L-398,-650 L-398,-670 L-381,-680 Z" />
<path fill="#D8D388" d="M-381,-700 L-381,-680 L-398,-670 L-416,-680 L-416,-700 L-398,-710 Z" />
<path fill="#4ee055" d="M-346,-700 L-346,-680 L-364,-670 L-381,-680 L-381,-700 L-364,-710 Z" />
<path fill="#D8D388" d="M-312,-700 L-312,-680 L-329,-670 L-346,-680 L-346,-700 L-329,-710 Z" />
<path fill="#D8D388" d="M-277,-700 L-277,-680 L-294,-670 L-312,-680 L-312,-700 L-294,-710 Z" />
<path fill="#D8D388" d="M-208,-700 L-208,-680 L-225,-670 L-242,-680 L-242,-700 L-225,-710 Z" />
<path fill="#D8D388" d="M-173,-700 L-173,-680 L-191,-670 L-208,-680 L-208,-700 L-191,-710 Z" />
<path fill="#D8D388" d="M35,-700 L35,-680 L17,-670 L0,-680 L0,-700 L17,-710 Z" />
<path fill="#4ee055" d="M69,-700 L69,-680 L52,-670 L35,-680 L35,-700 L52,-710 Z" />
<path fill="#D8D388" d="M104,-700 L104,-680 L87,-670 L69,-680 L69,-700 L87,-710 Z" />
<path fill="#D8D388" d="M139,-700 L139,-680 L121,-670 L104,-680 L104,-700 L121,-710 Z" />
<path fill="#4ee055" d="M173,-700 L173,-680 L156,-670 L139,-680 L139,-700 L156,-710 Z" />
<path fill="#D8D388" d="M208,-700 L208,-680 L191,-670 L173,-680 L173,-700 L191,-710 Z" />
<path fill="#D8D388" d="M242,-700 L242,-680 L225,-670 L208,-680 L208,-700 L225,-710 Z" />
<path fill="#4ee055" d="M277,-700 L277,-680 L260,-670 L242,-680 L242,-700 L260,-710 Z" />
<path fill="#D8D388" d="M-624,-280 L-624,-260 L-641,-250 L-658,-260 L-658,-280 L-641,-290 Z" />
<path fill="#4ee055" d="M-606,-310 L-606,-290 L-624,-280 L-641,-290 L-641,-310 L-624,-320 Z" />
<path fill="#D8D388" d="M-589,-340 L-589,-320 L-606,-310 L-624,-320 L-624,-340 L-606,-350 Z" />
<path fill="#D8D388" d="M-572,-370 L-572,-350 L-589,-340 L-606,-350 L-606,-370 L-589,-380 Z" />
<path fill="#4ee055" d="M-554,-400 L-554,-380 L-572,-370 L-589,-380 L-589,-400 L-572,-410 Z" />
<path fill="#D8D388" d="M-537,-430 L-537,-410 L-554,-400 L-572,-410 L-572,-430 L-554,-440 Z" />
<path fill="#D8D388" d="M-520,-460 L-520,-440 L-537,-430 L-554,-440 L-554,-460 L-537,-470 Z" />
<path fill="#4ee055" d="M-502,-490 L-502,-470 L-520,-460 L-537,-470 L-537,-490 L-520,-500 Z" />
<path fill="#4ee055" d="M-450,-580 L-450,-560 L-468,-550 L-485,-560 L-485,-580 L-468,-590 Z" />
<path fill="#4ee055" d="M-398,-670 L-398,-650 L-416,-640 L-433,-650 L-433,-670 L-416,-680 Z" />
<path fill="#D8D388" d="M-381,-700 L-381,-680 L-398,-670 L-416,-680 L-416,-700 L-398,-710 Z" />
<path fill="#4ee055" d="M-398,-730 L-398,-710 L-416,-700 L-433,-710 L-433,-730 L-416,-740 Z" />
<path fill="#D8D388" d="M-364,-730 L-364,-710 L-381,-700 L-398,-710 L-398,-730 L-381,-740 Z" />
<path fill="#D8D388" d="M-329,-730 L-329,-710 L-346,-700 L-364,-710 L-364,-730 L-346,-740 Z" />
<path fill="#4ee055" d="M-191,-730 L-191,-710 L-208,-700 L-225,-710 L-225,-730 L-208,-740 Z" />
<path fill="#D8D388" d="M87,-730 L87,-710 L69,-700 L52,-710 L52,-730 L69,-740 Z" />
<path fill="#4ee055" d="M121,-730 L121,-710 L104,-700 L87,-710 L87,-730 L104,-740 Z" />
<path fill="#D8D388" d="M156,-730 L156,-710 L139,-700 L121,-710 L121,-730 L139,-740 Z" />
<path fill="#D8D388" d="M191,-730 L191,-710 L173,-700 L156,-710 L156,-730 L173,-740 Z" />
<path fill="#4ee055" d="M225,-730 L225,-710 L208,-700 L191,-710 L191,-730 L208,-740 Z" />
<path fill="#D8D388" d="M260,-730 L260,-710 L242,-700 L225,-710 L225,-730 L242,-740 Z" />
<path fill="#D8D388" d="M294,-730 L294,-710 L277,-700 L260,-710 L260,-730 L277,-740 Z" />
<path fill="#D8D388" d="M-641,-310 L-641,-290 L-658,-280 L-675,-290 L-675,-310 L-658,-320 Z" />
<path fill="#D8D388" d="M-624,-340 L-624,-320 L-641,-310 L-658,-320 L-658,-340 L-641,-350 Z" />
<path fill="#4ee055" d="M-606,-370 L-606,-350 L-624,-340 L-641,-350 L-641,-370 L-624,-380 Z" />
<path fill="#D8D388" d="M-589,-400 L-589,-380 L-606,-370 L-624,-380 L-624,-400 L-606,-410 Z" />
<path fill="#D8D388" d="M-572,-430 L-572,-410 L-589,-400 L-606,-410 L-606,-430 L-589,-440 Z" />
<path fill="#4ee055" d="M-554,-460 L-554,-440 L-572,-430 L-589,-440 L-589,-460 L-572,-470 Z" />
<path fill="#D8D388" d="M-537,-490 L-537,-470 L-554,-460 L-572,-470 L-572,-490 L-554,-500 Z" />
<path fill="#D8D388" d="M-468,-610 L-468,-590 L-485,-580 L-502,-590 L-502,-610 L-485,-620 Z" />
<path fill="#4ee055" d="M-398,-730 L-398,-710 L-416,-700 L-433,-710 L-433,-730 L-416,-740 Z" />
<path fill="#D8D388" d="M-312,-760 L-312,-740 L-329,-730 L-346,-740 L-346,-760 L-329,-770 Z" />
<path fill="#D8D388" d="M-173,-760 L-173,-740 L-191,-730 L-208,-740 L-208,-760 L-191,-770 Z" />
<path fill="#4ee055" d="M173,-760 L173,-740 L156,-730 L139,-740 L139,-760 L156,-770 Z" />
<path fill="#D8D388" d="M208,-760 L208,-740 L191,-730 L173,-740 L173,-760 L191,-770 Z" />
<path fill="#D8D388" d="M242,-760 L242,-740 L225,-730 L208,-740 L208,-760 L225,-770 Z" />
<path fill="#4ee055" d="M277,-760 L277,-740 L260,-730 L242,-740 L242,-760 L260,-770 Z" />
<path fill="#D8D388" d="M312,-760 L312,-740 L294,-730 L277,-740 L277,-760 L294,-770 Z" />
<path fill="#D8D388" d="M-675,-310 L-675,-290 L-693,-280 L-710,-290 L-710,-310 L-693,-320 Z" />
<path fill="#4ee055" d="M-658,-340 L-658,-320 L-675,-310 L-693,-320 L-693,-340 L-675,-350 Z" />
<path fill="#D8D388" d="M-641,-370 L-641,-350 L-658,-340 L-675,-350 L-675,-370 L-658,-380 Z" />
<path fill="#D8D388" d="M-624,-400 L-624,-380 L-641,-370 L-658,-380 L-658,-400 L-641,-410 Z" />
<path fill="#4ee055" d="M-606,-430 L-606,-410 L-624,-400 L-641,-410 L-641,-430 L-624,-440 Z" />
<path fill="#D8D388" d="M-589,-460 L-589,-440 L-606,-430 L-624,-440 L-624,-460 L-606,-470 Z" />
<path fill="#D8D388" d="M-572,-490 L-572,-470 L-589,-460 L-606,-470 L-606,-490 L-589,-500 Z" />
<path fill="#D8D388" d="M-485,-640 L-485,-620 L-502,-610 L-520,-620 L-520,-640 L-502,-650 Z" />
<path fill="#4ee055" d="M-294,-790 L-294,-770 L-312,-760 L-329,-770 L-329,-790 L-312,-800 Z" />
<path fill="#D8D388" d="M-156,-790 L-156,-770 L-173,-760 L-191,-770 L-191,-790 L-173,-800 Z" />
<path fill="#4ee055" d="M-710,-310 L-710,-290 L-727,-280 L-745,-290 L-745,-310 L-727,-320 Z" />
<path fill="#D8D388" d="M-693,-340 L-693,-320 L-710,-310 L-727,-320 L-727,-340 L-710,-350 Z" />
<path fill="#D8D388" d="M-675,-370 L-675,-350 L-693,-340 L-710,-350 L-710,-370 L-693,-380 Z" />
<path fill="#4ee055" d="M-658,-400 L-658,-380 L-675,-370 L-693,-380 L-693,-400 L-675,-410 Z" />
<path fill="#D8D388" d="M-641,-430 L-641,-410 L-658,-400 L-675,-410 L-675,-430 L-658,-440 Z" />
<path fill="#D8D388" d="M-624,-460 L-624,-440 L-641,-430 L-658,-440 L-658,-460 L-641,-470 Z" />
<path fill="#4ee055" d="M-606,-490 L-606,-470 L-624,-460 L-641,-470 L-641,-490 L-624,-500 Z" />
<path fill="#D8D388" d="M-520,-640 L-520,-620 L-537,-610 L-554,-620 L-554,-640 L-537,-650 Z" />
<path fill="#4ee055" d="M-450,-760 L-450,-740 L-468,-730 L-485,-740 L-485,-760 L-468,-770 Z" />
<path fill="#D8D388" d="M-277,-820 L-277,-800 L-294,-790 L-312,-800 L-312,-820 L-294,-830 Z" />
<path fill="#4ee055" d="M-139,-820 L-139,-800 L-156,-790 L-173,-800 L-173,-820 L-156,-830 Z" />
<path fill="#4ee055" d="M-710,-370 L-710,-350 L-727,-340 L-745,-350 L-745,-370 L-727,-380 Z" />
<path fill="#D8D388" d="M-693,-400 L-693,-380 L-710,-370 L-727,-380 L-727,-400 L-710,-410 Z" />
<path fill="#D8D388" d="M-675,-430 L-675,-410 L-693,-400 L-710,-410 L-710,-430 L-693,-440 Z" />
<path fill="#4ee055" d="M-658,-460 L-658,-440 L-675,-430 L-693,-440 L-693,-460 L-675,-470 Z" />
<path fill="#D8D388" d="M-641,-490 L-641,-470 L-658,-460 L-675,-470 L-675,-490 L-658,-500 Z" />
<path fill="#D8D388" d="M-537,-670 L-537,-650 L-554,-640 L-572,-650 L-572,-670 L-554,-680 Z" />
<path fill="#D8D388" d="M-156,-850 L-156,-830 L-173,-820 L-191,-830 L-191,-850 L-173,-860 Z" />
<path fill="#D8D388" d="M-745,-370 L-745,-350 L-762,-340 L-779,-350 L-779,-370 L-762,-380 Z" />
<path fill="#D8D388" d="M-727,-400 L-727,-380 L-745,-370 L-762,-380 L-762,-400 L-745,-410 Z" />
<path fill="#4ee055" d="M-710,-430 L-710,-410 L-727,-400 L-745,-410 L-745,-430 L-727,-440 Z" />
<path fill="#D8D388" d="M-693,-460 L-693,-440 L-710,-430 L-727,-440 L-727,-460 L-710,-470 Z" />
<path fill="#D8D388" d="M-675,-490 L-675,-470 L-693,-460 L-710,-470 L-710,-490 L-693,-500 Z" />
<path fill="#4ee055" d="M-658,-520 L-658,-500 L-675,-490 L-693,-500 L-693,-520 L-675,-530 Z" />
<path fill="#4ee055" d="M-554,-700 L-554,-680 L-572,-670 L-589,-680 L-589,-700 L-572,-710 Z" />
<path fill="#4ee055" d="M-502,-790 L-502,-770 L-520,-760 L-537,-770 L-537,-790 L-520,-800 Z" />
<path fill="#D8D388" d="M-277,-880 L-277,-860 L-294,-850 L-312,-860 L-312,-880 L-294,-890 Z" />
<path fill="#4ee055" d="M-139,-880 L-139,-860 L-156,-850 L-173,-860 L-173,-880 L-156,-890 Z" />
<path fill="#D8D388" d="M-779,-370 L-779,-350 L-797,-340 L-814,-350 L-814,-370 L-797,-380 Z" />
<path fill="#4ee055" d="M-762,-400 L-762,-380 L-779,-370 L-797,-380 L-797,-400 L-779,-410 Z" />
<path fill="#D8D388" d="M-745,-430 L-745,-410 L-762,-400 L-779,-410 L-779,-430 L-762,-440 Z" />
<path fill="#D8D388" d="M-727,-460 L-727,-440 L-745,-430 L-762,-440 L-762,-460 L-745,-470 Z" />
<path fill="#4ee055" d="M-710,-490 L-710,-470 L-727,-460 L-745,-470 L-745,-490 L-727,-500 Z" />
<path fill="#D8D388" d="M-693,-520 L-693,-500 L-710,-490 L-727,-500 L-727,-520 L-710,-530 Z" />
<path fill="#D8D388" d="M-572,-730 L-572,-710 L-589,-700 L-606,-710 L-606,-730 L-589,-740 Z" />
<path fill="#D8D388" d="M-520,-820 L-520,-800 L-537,-790 L-554,-800 L-554,-820 L-537,-830 Z" />
<path fill="#D8D388" d="M-260,-910 L-260,-890 L-277,-880 L-294,-890 L-294,-910 L-277,-920 Z" />
<path fill="#D8D388" d="M-121,-910 L-121,-890 L-139,-880 L-156,-890 L-156,-910 L-139,-920 Z" />
<path fill="#4ee055" d="M-814,-370 L-814,-350 L-831,-340 L-849,-350 L-849,-370 L-831,-380 Z" />
<path fill="#D8D388" d="M-797,-400 L-797,-380 L-814,-370 L-831,-380 L-831,-400 L-814,-410 Z" />
<path fill="#D8D388" d="M-779,-430 L-779,-410 L-797,-400 L-814,-410 L-814,-430 L-797,-440 Z" />
<path fill="#4ee055" d="M-762,-460 L-762,-440 L-779,-430 L-797,-440 L-797,-460 L-779,-470 Z" />
<path fill="#D8D388" d="M-745,-490 L-745,-470 L-762,-460 L-779,-470 L-779,-490 L-762,-500 Z" />
<path fill="#D8D388" d="M-727,-520 L-727,-500 L-745,-490 L-762,-500 L-762,-520 L-745,-530 Z" />
<path fill="#D8D388" d="M-589,-760 L-589,-740 L-606,-730 L-624,-740 L-624,-760 L-606,-770 Z" />
<path fill="#D8D388" d="M-537,-850 L-537,-830 L-554,-820 L-572,-830 L-572,-850 L-554,-860 Z" />
<path fill="#4ee055" d="M-242,-940 L-242,-920 L-260,-910 L-277,-920 L-277,-940 L-260,-950 Z" />
<path fill="#4ee055" d="M-139,-940 L-139,-920 L-156,-910 L-173,-920 L-173,-940 L-156,-950 Z" />
<path fill="#D8D388" d="M-831,-400 L-831,-380 L-849,-370 L-866,-380 L-866,-400 L-849,-410 Z" />
<path fill="#4ee055" d="M-814,-430 L-814,-410 L-831,-400 L-849,-410 L-849,-430 L-831,-440 Z" />
<path fill="#D8D388" d="M-797,-460 L-797,-440 L-814,-430 L-831,-440 L-831,-460 L-814,-470 Z" />
<path fill="#D8D388" d="M-779,-490 L-779,-470 L-797,-460 L-814,-470 L-814,-490 L-797,-500 Z" />
<path fill="#4ee055" d="M-762,-520 L-762,-500 L-779,-490 L-797,-500 L-797,-520 L-779,-530 Z" />
<path fill="#D8D388" d="M-572,-850 L-572,-830 L-589,-820 L-606,-830 L-606,-850 L-589,-860 Z" />
<path fill="#D8D388" d="M-260,-970 L-260,-950 L-277,-940 L-294,-950 L-294,-970 L-277,-980 Z" />
<path fill="#4ee055" d="M-866,-400 L-866,-380 L-883,-370 L-901,-380 L-901,-400 L-883,-410 Z" />
<path fill="#D8D388" d="M-849,-430 L-849,-410 L-866,-400 L-883,-410 L-883,-430 L-866,-440 Z" />
<path fill="#D8D388" d="M-831,-460 L-831,-440 L-849,-430 L-866,-440 L-866,-460 L-849,-470 Z" />
<path fill="#4ee055" d="M-814,-490 L-814,-470 L-831,-460 L-849,-470 L-849,-490 L-831,-500 Z" />
<path fill="#D8D388" d="M-797,-520 L-797,-500 L-814,-490 L-831,-500 L-831,-520 L-814,-530 Z" />
<path fill="#D8D388" d="M-901,-400 L-901,-380 L-918,-370 L-935,-380 L-935,-400 L-918,-410 Z" />
<path fill="#D8D388" d="M-883,-430 L-883,-410 L-901,-400 L-918,-410 L-918,-430 L-901,-440 Z" />
<path fill="#4ee055" d="M-866,-460 L-866,-440 L-883,-430 L-901,-440 L-901,-460 L-883,-470 Z" />
<path fill="#D8D388" d="M-849,-490 L-849,-470 L-866,-460 L-883,-470 L-883,-490 L-866,-500 Z" />
<path fill="#D8D388" d="M-831,-520 L-831,-500 L-849,-490 L-866,-500 L-866,-520 L-849,-530 Z" />
<path fill="#4ee055" d="M-918,-430 L-918,-410 L-935,-400 L-953,-410 L-953,-430 L-935,-440 Z" />
<path fill="#D8D388" d="M-901,-460 L-901,-440 L-918,-430 L-935,-440 L-935,-460 L-918,-470 Z" />
<path fill="#D8D388" d="M-883,-490 L-883,-470 L-901,-460 L-918,-470 L-918,-490 L-901,-500 Z" />
<path fill="#4ee055" d="M-866,-520 L-866,-500 L-883,-490 L-901,-500 L-901,-520 L-883,-530 Z" />
<path fill="#D8D388" d="M-953,-430 L-953,-410 L-970,-400 L-987,-410 L-987,-430 L-970,-440 Z" />
<path fill="#D8D388" d="M-935,-460 L-935,-440 L-953,-430 L-970,-440 L-970,-460 L-953,-470 Z" />
<path fill="#4ee055" d="M-918,-490 L-918,-470 L-935,-460 L-953,-470 L-953,-490 L-935,-500 Z" />
<path fill="#4ee055" d="M-970,-460 L-970,-440 L-987,-430 L-1005,-440 L-1005,-460 L-987,-470 Z" />
<path fill="#D8D388" d="M-953,-490 L-953,-470 L-970,-460 L-987,-470 L-987,-490 L-970,-500 Z" />
<path fill="#D8D388" d="M-52,-10 L-52,10 L-69,20 L-87,10 L-87,-10 L-69,-20 Z" />
<path fill="#D8D388" d="M-121,-10 L-121,10 L-139,20 L-156,10 L-156,-10 L-139,-20 Z" />
<path fill="#D8D388" d="M-104,-40 L-104,-20 L-121,-10 L-139,-20 L-139,-40 L-121,-50 Z" />
<path fill="#4ee055" d="M69,-160 L69,-140 L52,-130 L35,-140 L35,-160 L52,-170 Z" />
<path fill="#D8D388" d="M-69,200 L-69,220 L-87,230 L-104,220 L-104,200 L-87,190 Z" />
<path fill="#4ee055" d="M-139,-160 L-139,-140 L-156,-130 L-173,-140 L-173,-160 L-156,-170 Z" />
<path fill="#D8D388" d="M-121,-190 L-121,-170 L-139,-160 L-156,-170 L-156,-190 L-139,-200 Z" />
<path fill="#D8D388" d="M-173,140 L-173,160 L-191,170 L-208,160 L-208,140 L-191,130 Z" />
<path fill="#D8D388" d="M-156,-250 L-156,-230 L-173,-220 L-191,-230 L-191,-250 L-173,-260 Z" />
<path fill="#D8D388" d="M-329,-10 L-329,10 L-346,20 L-364,10 L-364,-10 L-346,-20 Z" />
<path fill="#D8D388" d="M-208,260 L-208,280 L-225,290 L-242,280 L-242,260 L-225,250 Z" />
<path fill="#D8D388" d="M-364,-10 L-364,10 L-381,20 L-398,10 L-398,-10 L-381,-20 Z" />
<path fill="#D8D388" d="M-364,50 L-364,70 L-381,80 L-398,70 L-398,50 L-381,40 Z" />
<path fill="#4ee055" d="M-294,-190 L-294,-170 L-312,-160 L-329,-170 L-329,-190 L-312,-200 Z" />
<path fill="#4ee055" d="M-242,320 L-242,340 L-260,350 L-277,340 L-277,320 L-260,310 Z" />
</g>
</svg>