<?xml version="1.0" encoding="utf-8"?>
<svg viewBox="-1077.3356023078416 -1058.5 1219.3637685284898 1067.0" preserveAspectRatio="xMidYMid meet" version="1.1" baseProfile="full" xmlns="http://www.w3.org/2000/svg" style="background-color: black;">
<g style="stroke:#ffffff; stroke-width: 1; stroke-linejoin: round;">
<path fill="#D8D388" d="M87,-130 L87,-110 L69,-100 L52,-110 L52,-130 L69,-140 Z" />
<path fill="#4ee055" d="M69,-160 L69,-140 L52,-130 L35,-140 L35,-160 L52,-170 Z" />
<path fill="#D8D388" d="M52,-190 L52,-170 L35,-160 L17,-170 L17,-190 L35,-200 Z" />
<path fill="#D8D388" d="M87,-190 L87,-170 L69,-160 L52,-170 L52,-190 L69,-200 Z" />
<path fill="#D8D388" d="M35,-220 L35,-200 L17,-190 L0,-200 L0,-220 L17,-230 Z" />
<path fill="#4ee055" d="M69,-220 L69,-200 L52,-190 L35,-200 L35,-220 L52,-230 Z" />
<path fill="#4ee055" d="M17,-250 L17,-230 L0,-220 L-17,-230 L-17,-250 L0,-260 Z" />
<path fill="#D8D388" d="M52,-250 L52,-230 L35,-220 L17,-230 L17,-250 L35,-260 Z" />
<path fill="#D8D388" d="M87,-250 L87,-230 L69,-220 L52,-230 L52,-250 L69,-260 Z" />
<path fill="#D8D388" d="M0,-280 L0,-260 L-17,-250 L-35,-260 L-35,-280 L-17,-290 Z" />
<path fill="#D8D388" d="M35,-280 L35,-260 L17,-250 L0,-260 L0,-280 L17,-290 Z" />
<path fill="#4ee055" d="M69,-280 L69,-260 L52,-250 L35,-260 L35,-280 L52,-290 Z" />
<path fill="#4ee055" d="M17,-310 L17,-290 L0,-280 L-17,-290 L-17,-310 L0,-320 Z" />
<path fill="#D8D388" d="M52,-310 L52,-290 L35,-280 L17,-290 L17,-310 L35,-320 Z" />
<path fill="#D8D388" d="M87,-310 L87,-290 L69,-280 L52,-290 L52,-310 L69,-320 Z" />
<path fill="#D8D388" d="M0,-340 L0,-320 L-17,-310 L-35,-320 L-35,-340 L-17,-350 Z" />
<path fill="#D8D388" d="M35,-340 L35,-320 L17,-310 L0,-320 L0,-340 L17,-350 Z" />
<path fill="#4ee055" d="M69,-340 L69,-320 L52,-310 L35,-320 L35,-340 L52,-350 Z" />
<path fill="#D8D388" d="M-17,-370 L-17,-350 L-35,-340 L-52,-350 L-52,-370 L-35,-380 Z" />
<path fill="#4ee055" d="M17,-370 L17,-350 L0,-340 L-17,-350 L-17,-370 L0,-380 Z" />
<path fill="#D8D388" d="M52,-370 L52,-350 L35,-340 L17,-350 L17,-370 L35,-380 Z" />
<path fill="#D8D388" d="M87,-370 L87,-350 L69,-340 L52,-350 L52,-370 L69,-380 Z" />
<path fill="#4ee055" d="M-35,-400 L-35,-380 L-52,-370 L-69,-380 L-69,-400 L-52,-410 Z" />
<path fill="#D8D388" d="M0,-400 L0,-380 L-17,-370 L-35,-380 L-35,-400 L-17,-410 Z" />
<path fill="#D8D388" d="M35,-400 L35,-380 L17,-370 L0,-380 L0,-400 L17,-410 Z" />
<path fill="#4ee055" d="M69,-400 L69,-380 L52,-370 L35,-380 L35,-400 L52,-410 Z" />
<path fill="#D8D388" d="M-225,-430 L-225,-410 L-242,-400 L-260,-410 L-260,-430 L-242,-440 Z" />
<path fill="#4ee055" d="M-191,-430 L-191,-410 L-208,-400 L-225,-410 L-225,-430 L-208,-440 Z" />
<path fill="#D8D388" d="M-156,-430 L-156,-410 L-173,-400 L-191,-410 L-191,-430 L-173,-440 Z" />
<path fill="#D8D388" d="M-121,-430 L-121,-410 L-139,-400 L-156,-410 L-156,-430 L-139,-440 Z" />
<path fill="#4ee055" d="M-87,-430 L-87,-410 L-104,-400 L-121,-410 L-121,-430 L-104,-440 Z" />
<path fill="#D8D388" d="M-52,-430 L-52,-410 L-69,-400 L-87,-410 L-87,-430 L-69,-440 Z" />
<path fill="#D8D388" d="M-17,-430 L-17,-410 L-35,-400 L-52,-410 L-52,-430 L-35,-440 Z" />
<path fill="#4ee055" d="M17,-430 L17,-410 L0,-400 L-17,-410 L-17,-430 L0,-440 Z" />
<path fill="#D8D388" d="M52,-430 L52,-410 L35,-400 L17,-410 L17,-430 L35,-440 Z" />
<path fill="#D8D388" d="M87,-430 L87,-410 L69,-400 L52,-410 L52,-430 L69,-440 Z" />
<path fill="#D8D388" d="M-225,-430 L-225,-410 L-242,-400 L-260,-410 L-260,-430 L-242,-440 Z" />
<path fill="#4ee055" d="M-242,-460 L-242,-440 L-260,-430 L-277,-440 L-277,-460 L-260,-470 Z" />
<path fill="#D8D388" d="M-208,-460 L-208,-440 L-225,-430 L-242,-440 L-242,-460 L-225,-470 Z" />
<path fill="#D8D388" d="M-173,-460 L-173,-440 L-191,-430 L-208,-440 L-208,-460 L-191,-470 Z" />
<path fill="#4ee055" d="M-139,-460 L-139,-440 L-156,-430 L-173,-440 L-173,-460 L-156,-470 Z" />
<path fill="#D8D388" d="M-104,-460 L-104,-440 L-121,-430 L-139,-440 L-139,-460 L-121,-470 Z" />
<path fill="#D8D388" d="M-69,-460 L-69,-440 L-87,-430 L-104,-440 L-104,-460 L-87,-470 Z" />
<path fill="#4ee055" d="M-35,-460 L-35,-440 L-52,-430 L-69,-440 L-69,-460 L-52,-470 Z" />
<path fill="#D8D388" d="M0,-460 L0,-440 L-17,-430 L-35,-440 L-35,-460 L-17,-470 Z" />
<path fill="#D8D388" d="M35,-460 L35,-440 L17,-430 L0,-440 L0,-460 L17,-470 Z" />
<path fill="#4ee055" d="M69,-460 L69,-440 L52,-430 L35,-440 L35,-460 L52,-470 Z" />
<path fill="#D8D388" d="M-260,-430 L-260,-410 L-277,-400 L-294,-410 L-294,-430 L-277,-440 Z" />
<path fill="#4ee055" d="M-242,-460 L-242,-440 L-260,-430 L-277,-440 L-277,-460 L-260,-470 Z" />
<path fill="#D8D388" d="M-260,-490 L-260,-470 L-277,-460 L-294,-470 L-294,-490 L-277,-500 Z" />
<path fill="#D8D388" d="M-225,-490 L-225,-470 L-242,-460 L-260,-470 L-260,-490 L-242,-500 Z" />
<path fill="#4ee055" d="M-191,-490 L-191,-470 L-208,-460 L-225,-470 L-225,-490 L-208,-500 Z" />
<path fill="#D8D388" d="M-156,-490 L-156,-470 L-173,-460 L-191,-470 L-191,-490 L-173,-500 Z" />
<path fill="#D8D388" d="M-121,-490 L-121,-470 L-139,-460 L-156,-470 L-156,-490 L-139,-500 Z" />
<path fill="#4ee055" d="M-87,-490 L-87,-470 L-104,-460 L-121,-470 L-121,-490 L-104,-500 Z" />
<path fill="#D8D388" d="M-52,-490 L-52,-470 L-69,-460 L-87,-470 L-87,-490 L-69,-500 Z" />
<path fill="#D8D388" d="M-17,-490 L-17,-470 L-35,-460 L-52,-470 L-52,-490 L-35,-500 Z" />
<path fill="#4ee055" d="M17,-490 L17,-470 L0,-460 L-17,-470 L-17,-490 L0,-500 Z" />
<path fill="#D8D388" d="M52,-490 L52,-470 L35,-460 L17,-470 L17,-490 L35,-500 Z" />
<path fill="#D8D388" d="M87,-490 L87,-470 L69,-460 L52,-470 L52,-490 L69,-500 Z" />
<path fill="#4ee055" d="M-294,-430 L-294,-410 L-312,-400 L-329,-410 L-329,-430 L-312,-440 Z" />
<path fill="#D8D388" d="M-277,-460 L-277,-440 L-294,-430 L-312,-440 L-312,-460 L-294,-470 Z" />
<path fill="#D8D388" d="M-260,-490 L-260,-470 L-277,-460 L-294,-470 L-294,-490 L-277,-500 Z" />
<path fill="#D8D388" d="M-277,-520 L-277,-500 L-294,-490 L-312,-500 L-312,-520 L-294,-530 Z" />
<path fill="#4ee055" d="M-242,-520 L-242,-500 L-260,-490 L-277,-500 L-277,-520 L-260,-530 Z" />
<path fill="#D8D388" d="M-208,-520 L-208,-500 L-225,-490 L-242,-500 L-242,-520 L-225,-530 Z" />
<path fill="#D8D388" d="M-173,-520 L-173,-500 L-191,-490 L-208,-500 L-208,-520 L-191,-530 Z" />
<path fill="#4ee055" d="M-139,-520 L-139,-500 L-156,-490 L-173,-500 L-173,-520 L-156,-530 Z" />
<path fill="#D8D388" d="M-104,-520 L-104,-500 L-121,-490 L-139,-500 L-139,-520 L-121,-530 Z" />
<path fill="#D8D388" d="M-69,-520 L-69,-500 L-87,-490 L-104,-500 L-104,-520 L-87,-530 Z" />
<path fill="#4ee055" d="M-35,-520 L-35,-500 L-52,-490 L-69,-500 L-69,-520 L-52,-530 Z" />
<path fill="#D8D388" d="M0,-520 L0,-500 L-17,-490 L-35,-500 L-35,-520 L-17,-530 Z" />
<path fill="#D8D388" d="M35,-520 L35,-500 L17,-490 L0,-500 L0,-520 L17,-530 Z" />
<path fill="#4ee055" d="M69,-520 L69,-500 L52,-490 L35,-500 L35,-520 L52,-530 Z" />
<path fill="#D8D388" d="M-329,-430 L-329,-410 L-346,-400 L-364,-410 L-364,-430 L-346,-440 Z" />
<path fill="#D8D388" d="M-312,-460 L-312,-440 L-329,-430 L-346,-440 L-346,-460 L-329,-470 Z" />
<path fill="#4ee055" d="M-294,-490 L-294,-470 L-312,-460 L-329,-470 L-329,-490 L-312,-500 Z" />
<path fill="#D8D388" d="M-277,-520 L-277,-500 L-294,-490 L-312,-500 L-312,-520 L-294,-530 Z" />
<path fill="#4ee055" d="M-294,-550 L-294,-530 L-312,-520 L-329,-530 L-329,-550 L-312,-560 Z" />
<path fill="#D8D388" d="M-260,-550 L-260,-530 L-277,-520 L-294,-530 L-294,-550 L-277,-560 Z" />
<path fill="#D8D388" d="M-225,-550 L-225,-530 L-242,-520 L-260,-530 L-260,-550 L-242,-560 Z" />
<path fill="#4ee055" d="M-191,-550 L-191,-530 L-208,-520 L-225,-530 L-225,-550 L-208,-560 Z" />
<path fill="#D8D388" d="M-156,-550 L-156,-530 L-173,-520 L-191,-530 L-191,-550 L-173,-560 Z" />
<path fill="#D8D388" d="M-121,-550 L-121,-530 L-139,-520 L-156,-530 L-156,-550 L-139,-560 Z" />
<path fill="#4ee055" d="M-87,-550 L-87,-530 L-104,-520 L-121,-530 L-121,-550 L-104,-560 Z" />
<path fill="#D8D388" d="M-52,-550 L-52,-530 L-69,-520 L-87,-530 L-87,-550 L-69,-560 Z" />
<path fill="#D8D388" d="M-17,-550 L-17,-530 L-35,-520 L-52,-530 L-52,-550 L-35,-560 Z" />
<path fill="#4ee055" d="M17,-550 L17,-530 L0,-520 L-17,-530 L-17,-550 L0,-560 Z" />
<path fill="#D8D388" d="M52,-550 L52,-530 L35,-520 L17,-530 L17,-550 L35,-560 Z" />
<path fill="#D8D388" d="M87,-550 L87,-530 L69,-520 L52,-530 L52,-550 L69,-560 Z" />
<path fill="#D8D388" d="M-364,-430 L-364,-410 L-381,-400 L-398,-410 L-398,-430 L-381,-440 Z" />
<path fill="#4ee055" d="M-346,-460 L-346,-440 L-364,-430 L-381,-440 L-381,-460 L-364,-470 Z" />
<path fill="#D8D388" d="M-329,-490 L-329,-470 L-346,-460 L-364,-470 L-364,-490 L-346,-500 Z" />
<path fill="#D8D388" d="M-312,-520 L-312,-500 L-329,-490 L-346,-500 L-346,-520 L-329,-530 Z" />
<path fill="#4ee055" d="M-294,-550 L-294,-530 L-312,-520 L-329,-530 L-329,-550 L-312,-560 Z" />
<path fill="#D8D388" d="M-312,-580 L-312,-560 L-329,-550 L-346,-560 L-346,-580 L-329,-590 Z" />
<path fill="#D8D388" d="M-277,-580 L-277,-560 L-294,-550 L-312,-560 L-312,-580 L-294,-590 Z" />
<path fill="#4ee055" d="M-242,-580 L-242,-560 L-260,-550 L-277,-560 L-277,-580 L-260,-590 Z" />
<path fill="#D8D388" d="M-208,-580 L-208,-560 L-225,-550 L-242,-560 L-242,-580 L-225,-590 Z" />
<path fill="#D8D388" d="M-173,-580 L-173,-560 L-191,-550 L-208,-560 L-208,-580 L-191,-590 Z" />
<path fill="#4ee055" d="M-139,-580 L-139,-560 L-156,-550 L-173,-560 L-173,-580 L-156,-590 Z" />
<path fill="#4ee055" d="M-35,-580 L-35,-560 L-52,-550 L-69,-560 L-69,-580 L-52,-590 Z" />
<path fill="#D8D388" d="M0,-580 L0,-560 L-17,-550 L-35,-560 L-35,-580 L-17,-590 Z" />
<path fill="#D8D388" d="M35,-580 L35,-560 L17,-550 L0,-560 L0,-580 L17,-590 Z" />
<path fill="#4ee055" d="M69,-580 L69,-560 L52,-550 L35,-560 L35,-580 L52,-590 Z" />
<path fill="#4ee055" d="M-398,-430 L-398,-410 L-416,-400 L-433,-410 L-433,-430 L-416,-440 Z" />
<path fill="#D8D388" d="M-381,-460 L-381,-440 L-398,-430 L-416,-440 L-416,-460 L-398,-470 Z" />
<path fill="#D8D388" d="M-364,-490 L-364,-470 L-381,-460 L-398,-470 L-398,-490 L-381,-500 Z" />
<path fill="#4ee055" d="M-346,-520 L-346,-500 L-364,-490 L-381,-500 L-381,-520 L-364,-530 Z" />
<path fill="#D8D388" d="M-329,-550 L-329,-530 L-346,-520 L-364,-530 L-364,-550 L-346,-560 Z" />
<path fill="#D8D388" d="M-312,-580 L-312,-560 L-329,-550 L-346,-560 L-346,-580 L-329,-590 Z" />
<path fill="#D8D388" d="M-17,-610 L-17,-590 L-35,-580 L-52,-590 L-52,-610 L-35,-620 Z" />
<path fill="#4ee055" d="M17,-610 L17,-590 L0,-580 L-17,-590 L-17,-610 L0,-620 Z" />
<path fill="#D8D388" d="M52,-610 L52,-590 L35,-580 L17,-590 L17,-610 L35,-620 Z" />
<path fill="#D8D388" d="M87,-610 L87,-590 L69,-580 L52,-590 L52,-610 L69,-620 Z" />
<path fill="#D8D388" d="M-433,-430 L-433,-410 L-450,-400 L-468,-410 L-468,-430 L-450,-440 Z" />
<path fill="#D8D388" d="M-416,-460 L-416,-440 L-433,-430 L-450,-440 L-450,-460 L-433,-470 Z" />
<path fill="#4ee055" d="M-398,-490 L-398,-470 L-416,-460 L-433,-470 L-433,-490 L-416,-500 Z" />
<path fill="#D8D388" d="M-381,-520 L-381,-500 L-398,-490 L-416,-500 L-416,-520 L-398,-530 Z" />
<path fill="#D8D388" d="M-364,-550 L-364,-530 L-381,-520 L-398,-530 L-398,-550 L-381,-560 Z" />
<path fill="#4ee055" d="M-346,-580 L-346,-560 L-364,-550 L-381,-560 L-381,-580 L-364,-590 Z" />
<path fill="#4ee055" d="M-35,-640 L-35,-620 L-52,-610 L-69,-620 L-69,-640 L-52,-650 Z" />
<path fill="#D8D388" d="M0,-640 L0,-620 L-17,-610 L-35,-620 L-35,-640 L-17,-650 Z" />
<path fill="#D8D388" d="M35,-640 L35,-620 L17,-610 L0,-620 L0,-640 L17,-650 Z" />
<path fill="#4ee055" d="M69,-640 L69,-620 L52,-610 L35,-620 L35,-640 L52,-650 Z" />
<path fill="#D8D388" d="M-468,-430 L-468,-410 L-485,-400 L-502,-410 L-502,-430 L-485,-440 Z" />
<path fill="#4ee055" d="M-450,-460 L-450,-440 L-468,-430 L-485,-440 L-485,-460 L-468,-470 Z" />
<path fill="#D8D388" d="M-433,-490 L-433,-470 L-450,-460 L-468,-470 L-468,-490 L-450,-500 Z" />
<path fill="#D8D388" d="M-416,-520 L-416,-500 L-433,-490 L-450,-500 L-450,-520 L-433,-530 Z" />
<path fill="#4ee055" d="M-398,-550 L-398,-530 L-416,-520 L-433,-530 L-433,-550 L-416,-560 Z" />
<path fill="#D8D388" d="M-381,-580 L-381,-560 L-398,-550 L-416,-560 L-416,-580 L-398,-590 Z" />
<path fill="#D8D388" d="M-17,-670 L-17,-650 L-35,-640 L-52,-650 L-52,-670 L-35,-680 Z" />
<path fill="#4ee055" d="M17,-670 L17,-650 L0,-640 L-17,-650 L-17,-670 L0,-680 Z" />
<path fill="#D8D388" d="M52,-670 L52,-650 L35,-640 L17,-650 L17,-670 L35,-680 Z" />
<path fill="#D8D388" d="M87,-670 L87,-650 L69,-640 L52,-650 L52,-670 L69,-680 Z" />
<path fill="#4ee055" d="M-502,-430 L-502,-410 L-520,-400 L-537,-410 L-537,-430 L-520,-440 Z" />
<path fill="#D8D388" d="M-485,-460 L-485,-440 L-502,-430 L-520,-440 L-520,-460 L-502,-470 Z" />
<path fill="#D8D388" d="M-468,-490 L-468,-470 L-485,-460 L-502,-470 L-502,-490 L-485,-500 Z" />
<path fill="#4ee055" d="M-450,-520 L-450,-500 L-468,-490 L-485,-500 L-485,-520 L-468,-530 Z" />
<path fill="#D8D388" d="M-433,-550 L-433,-530 L-450,-520 L-468,-530 L-468,-550 L-450,-560 Z" />
<path fill="#D8D388" d="M-416,-580 L-416,-560 L-433,-550 L-450,-560 L-450,-580 L-433,-590 Z" />
<path fill="#D8D388" d="M0,-700 L0,-680 L-17,-670 L-35,-680 L-35,-700 L-17,-710 Z" />
<path fill="#D8D388" d="M35,-700 L35,-680 L17,-670 L0,-680 L0,-700 L17,-710 Z" />
<path fill="#4ee055" d="M69,-700 L69,-680 L52,-670 L35,-680 L35,-700 L52,-710 Z" />
<path fill="#4ee055" d="M-658,-220 L-658,-200 L-675,-190 L-693,-200 L-693,-220 L-675,-230 Z" />
<path fill="#D8D388" d="M-641,-250 L-641,-230 L-658,-220 L-675,-230 L-675,-250 L-658,-260 Z" />
<path fill="#D8D388" d="M-624,-280 L-624,-260 L-641,-250 L-658,-260 L-658,-280 L-641,-290 Z" />
<path fill="#4ee055" d="M-606,-310 L-606,-290 L-624,-280 L-641,-290 L-641,-310 L-624,-320 Z" />
<path fill="#D8D388" d="M-537,-430 L-537,-410 L-554,-400 L-572,-410 L-572,-430 L-554,-440 Z" />
<path fill="#D8D388" d="M-520,-460 L-520,-440 L-537,-430 L-554,-440 L-554,-460 L-537,-470 Z" />
<path fill="#4ee055" d="M-502,-490 L-502,-470 L-520,-460 L-537,-470 L-537,-490 L-520,-500 Z" />
<path fill="#D8D388" d="M-485,-520 L-485,-500 L-502,-490 L-520,-500 L-520,-520 L-502,-530 Z" />
<path fill="#D8D388" d="M-468,-550 L-468,-530 L-485,-520 L-502,-530 L-502,-550 L-485,-560 Z" />
<path fill="#4ee055" d="M-450,-580 L-450,-560 L-468,-550 L-485,-560 L-485,-580 L-468,-590 Z" />
<path fill="#4ee055" d="M17,-730 L17,-710 L0,-700 L-17,-710 L-17,-730 L0,-740 Z" />
<path fill="#D8D388" d="M52,-730 L52,-710 L35,-700 L17,-710 L17,-730 L35,-740 Z" />
<path fill="#D8D388" d="M87,-730 L87,-710 L69,-700 L52,-710 L52,-730 L69,-740 Z" />
<path fill="#D8D388" d="M-745,-130 L-745,-110 L-762,-100 L-779,-110 L-779,-130 L-762,-140 Z" />
<path fill="#D8D388" d="M-727,-160 L-727,-140 L-745,-130 L-762,-140 L-762,-160 L-745,-170 Z" />
<path fill="#4ee055" d="M-710,-190 L-710,-170 L-727,-160 L-745,-170 L-745,-190 L-727,-200 Z" />
<path fill="#D8D388" d="M-693,-220 L-693,-200 L-710,-190 L-727,-200 L-727,-220 L-710,-230 Z" />
<path fill="#D8D388" d="M-675,-250 L-675,-230 L-693,-220 L-710,-230 L-710,-250 L-693,-260 Z" />
<path fill="#4ee055" d="M-658,-280 L-658,-260 L-675,-250 L-693,-260 L-693,-280 L-675,-290 Z" />
<path fill="#D8D388" d="M-641,-310 L-641,-290 L-658,-280 L-675,-290 L-675,-310 L-658,-320 Z" />
<path fill="#D8D388" d="M-624,-340 L-624,-320 L-641,-310 L-658,-320 L-658,-340 L-641,-350 Z" />
<path fill="#4ee055" d="M-606,-370 L-606,-350 L-624,-340 L-641,-350 L-641,-370 L-624,-380 Z" />
<path fill="#D8D388" d="M-589,-400 L-589,-380 L-606,-370 L-624,-380 L-624,-400 L-606,-410 Z" />
<path fill="#D8D388" d="M-572,-430 L-572,-410 L-589,-400 L-606,-410 L-606,-430 L-589,-440 Z" />
<path fill="#4ee055" d="M-554,-460 L-554,-440 L-572,-430 L-589,-440 L-589,-460 L-572,-470 Z" />
<path fill="#D8D388" d="M-537,-490 L-537,-470 L-554,-460 L-572,-470 L-572,-490 L-554,-500 Z" />
<path fill="#D8D388" d="M-520,-520 L-520,-500 L-537,-490 L-554,-500 L-554,-520 L-537,-530 Z" />
<path fill="#4ee055" d="M-502,-550 L-502,-530 L-520,-520 L-537,-530 L-537,-550 L-520,-560 Z" />
<path fill="#D8D388" d="M-485,-580 L-485,-560 L-502,-550 L-520,-560 L-520,-580 L-502,-590 Z" />
<path fill="#D8D388" d="M35,-760 L35,-740 L17,-730 L0,-740 L0,-760 L17,-770 Z" />
<path fill="#4ee055" d="M69,-760 L69,-740 L52,-730 L35,-740 L35,-760 L52,-770 Z" />
<path fill="#D8D388" d="M-779,-130 L-779,-110 L-797,-100 L-814,-110 L-814,-130 L-797,-140 Z" />
<path fill="#4ee055" d="M-762,-160 L-762,-140 L-779,-130 L-797,-140 L-797,-160 L-779,-170 Z" />
<path fill="#D8D388" d="M-745,-190 L-745,-170 L-762,-160 L-779,-170 L-779,-190 L-762,-200 Z" />
<path fill="#D8D388" d="M-727,-220 L-727,-200 L-745,-190 L-762,-200 L-762,-220 L-745,-230 Z" />
<path fill="#4ee055" d="M-710,-250 L-710,-230 L-727,-220 L-745,-230 L-745,-250 L-727,-260 Z" />
<path fill="#D8D388" d="M-693,-280 L-693,-260 L-710,-250 L-727,-260 L-727,-280 L-710,-290 Z" />
<path fill="#D8D388" d="M-675,-310 L-675,-290 L-693,-280 L-710,-290 L-710,-310 L-693,-320 Z" />
<path fill="#4ee055" d="M-658,-340 L-658,-320 L-675,-310 L-693,-320 L-693,-340 L-675,-350 Z" />
<path fill="#D8D388" d="M-641,-370 L-641,-350 L-658,-340 L-675,-350 L-675,-370 L-658,-380 Z" />
<path fill="#D8D388" d="M-624,-400 L-624,-380 L-641,-370 L-658,-380 L-658,-400 L-641,-410 Z" />
<path fill="#4ee055" d="M-606,-430 L-606,-410 L-624,-400 L-641,-410 L-641,-430 L-624,-440 Z" />
<path fill="#D8D388" d="M-589,-460 L-589,-440 L-606,-430 L-624,-440 L-624,-460 L-606,-470 Z" />
<path fill="#D8D388" d="M-572,-490 L-572,-470 L-589,-460 L-606,-470 L-606,-490 L-589,-500 Z" />
<path fill="#4ee055" d="M-554,-520 L-554,-500 L-572,-490 L-589,-500 L-589,-520 L-572,-530 Z" />
<path fill="#D8D388" d="M-537,-550 L-537,-530 L-554,-520 L-572,-530 L-572,-550 L-554,-560 Z" />
<path fill="#D8D388" d="M-520,-580 L-520,-560 L-537,-550 L-554,-560 L-554,-580 L-537,-590 Z" />
<path fill="#D8D388" d="M52,-790 L52,-770 L35,-760 L17,-770 L17,-790 L35,-800 Z" />
<path fill="#D8D388" d="M87,-790 L87,-770 L69,-760 L52,-770 L52,-790 L69,-800 Z" />
<path fill="#4ee055" d="M-814,-130 L-814,-110 L-831,-100 L-849,-110 L-849,-130 L-831,-140 Z" />
<path fill="#D8D388" d="M-797,-160 L-797,-140 L-814,-130 L-831,-140 L-831,-160 L-814,-170 Z" />
<path fill="#D8D388" d="M-779,-190 L-779,-170 L-797,-160 L-814,-170 L-814,-190 L-797,-200 Z" />
<path fill="#4ee055" d="M-762,-220 L-762,-200 L-779,-190 L-797,-200 L-797,-220 L-779,-230 Z" />
<path fill="#D8D388" d="M-745,-250 L-745,-230 L-762,-220 L-779,-230 L-779,-250 L-762,-260 Z" />
<path fill="#D8D388" d="M-727,-280 L-727,-260 L-745,-250 L-762,-260 L-762,-280 L-745,-290 Z" />
<path fill="#4ee055" d="M-710,-310 L-710,-290 L-727,-280 L-745,-290 L-745,-310 L-727,-320 Z" />
<path fill="#D8D388" d="M-693,-340 L-693,-320 L-710,-310 L-727,-320 L-727,-340 L-710,-350 Z" />
<path fill="#D8D388" d="M-675,-370 L-675,-350 L-693,-340 L-710,-350 L-710,-370 L-693,-380 Z" />
<path fill="#4ee055" d="M-658,-400 L-658,-380 L-675,-370 L-693,-380 L-693,-400 L-675,-410 Z" />
<path fill="#D8D388" d="M-641,-430 L-641,-410 L-658,-400 L-675,-410 L-675,-430 L-658,-440 Z" />
<path fill="#D8D388" d="M-624,-460 L-624,-440 L-641,-430 L-658,-440 L-658,-460 L-641,-470 Z" />
<path fill="#4ee055" d="M-606,-490 L-606,-470 L-624,-460 L-641,-470 L-641,-490 L-624,-500 Z" />
<path fill="#D8D388" d="M-589,-520 L-589,-500 L-606,-490 L-624,-500 L-624,-520 L-606,-530 Z" />
<path fill="#D8D388" d="M-572,-550 L-572,-530 L-589,-520 L-606,-530 L-606,-550 L-589,-560 Z" />
<path fill="#4ee055" d="M-554,-580 L-554,-560 L-572,-550 L-589,-560 L-589,-580 L-572,-590 Z" />
<path fill="#D8D388" d="M35,-820 L35,-800 L17,-790 L0,-800 L0,-820 L17,-830 Z" />
<path fill="#4ee055" d="M69,-820 L69,-800 L52,-790 L35,-800 L35,-820 L52,-830 Z" />
<path fill="#D8D388" d="M-849,-130 L-849,-110 L-866,-100 L-883,-110 L-883,-130 L-866,-140 Z" />
<path fill="#D8D388" d="M-831,-160 L-831,-140 L-849,-130 L-866,-140 L-866,-160 L-849,-170 Z" />
<path fill="#4ee055" d="M-814,-190 L-814,-170 L-831,-160 L-849,-170 L-849,-190 L-831,-200 Z" />
<path fill="#D8D388" d="M-797,-220 L-797,-200 L-814,-190 L-831,-200 L-831,-220 L-814,-230 Z" />
<path fill="#D8D388" d="M-779,-250 L-779,-230 L-797,-220 L-814,-230 L-814,-250 L-797,-260 Z" />
<path fill="#4ee055" d="M-762,-280 L-762,-260 L-779,-250 L-797,-260 L-797,-280 L-779,-290 Z" />
<path fill="#D8D388" d="M-745,-310 L-745,-290 L-762,-280 L-779,-290 L-779,-310 L-762,-320 Z" />
<path fill="#D8D388" d="M-727,-340 L-727,-320 L-745,-310 L-762,-320 L-762,-340 L-745,-350 Z" />
<path fill="#4ee055" d="M-710,-370 L-710,-350 L-727,-340 L-745,-350 L-745,-370 L-727,-380 Z" />
<path fill="#D8D388" d="M-693,-400 L-693,-380 L-710,-370 L-727,-380 L-727,-400 L-710,-410 Z" />
<path fill="#D8D388" d="M-675,-430 L-675,-410 L-693,-400 L-710,-410 L-710,-430 L-693,-440 Z" />
<path fill="#4ee055" d="M-658,-460 L-658,-440 L-675,-430 L-693,-440 L-693,-460 L-675,-470 Z" />
<path fill="#D8D388" d="M-641,-490 L-641,-470 L-658,-460 L-675,-470 L-675,-490 L-658,-500 Z" />
<path fill="#D8D388" d="M-624,-520 L-624,-500 L-641,-490 L-658,-500 L-658,-520 L-641,-530 Z" />
<path fill="#4ee055" d="M-606,-550 L-606,-530 L-624,-520 L-641,-530 L-641,-550 L-624,-560 Z" />
<path fill="#D8D388" d="M-589,-580 L-589,-560 L-606,-550 L-624,-560 L-624,-580 L-606,-590 Z" />
<path fill="#D8D388" d="M-572,-610 L-572,-590 L-589,-580 L-606,-590 L-606,-610 L-589,-620 Z" />
<path fill="#4ee055" d="M-554,-640 L-554,-620 L-572,-610 L-589,-620 L-589,-640 L-572,-650 Z" />
<path fill="#D8D388" d="M52,-850 L52,-830 L35,-820 L17,-830 L17,-850 L35,-860 Z" />
<path fill="#D8D388" d="M87,-850 L87,-830 L69,-820 L52,-830 L52,-850 L69,-860 Z" />
<path fill="#D8D388" d="M-883,-130 L-883,-110 L-901,-100 L-918,-110 L-918,-130 L-901,-140 Z" />
<path fill="#4ee055" d="M-866,-160 L-866,-140 L-883,-130 L-901,-140 L-901,-160 L-883,-170 Z" />
<path fill="#D8D388" d="M-849,-190 L-849,-170 L-866,-160 L-883,-170 L-883,-190 L-866,-200 Z" />
<path fill="#D8D388" d="M-831,-220 L-831,-200 L-849,-190 L-866,-200 L-866,-220 L-849,-230 Z" />
<path fill="#4ee055" d="M-814,-250 L-814,-230 L-831,-220 L-849,-230 L-849,-250 L-831,-260 Z" />
<path fill="#D8D388" d="M-797,-280 L-797,-260 L-814,-250 L-831,-260 L-831,-280 L-814,-290 Z" />
<path fill="#D8D388" d="M-779,-310 L-779,-290 L-797,-280 L-814,-290 L-814,-310 L-797,-320 Z" />
<path fill="#4ee055" d="M-762,-340 L-762,-320 L-779,-310 L-797,-320 L-797,-340 L-779,-350 Z" />
<path fill="#D8D388" d="M-745,-370 L-745,-350 L-762,-340 L-779,-350 L-779,-370 L-762,-380 Z" />
<path fill="#D8D388" d="M-727,-400 L-727,-380 L-745,-370 L-762,-380 L-762,-400 L-745,-410 Z" />
<path fill="#4ee055" d="M-710,-430 L-710,-410 L-727,-400 L-745,-410 L-745,-430 L-727,-440 Z" />
<path fill="#D8D388" d="M-693,-460 L-693,-440 L-710,-430 L-727,-440 L-727,-460 L-710,-470 Z" />
<path fill="#D8D388" d="M-675,-490 L-675,-470 L-693,-460 L-710,-470 L-710,-490 L-693,-500 Z" />
<path fill="#4ee055" d="M-658,-520 L-658,-500 L-675,-490 L-693,-500 L-693,-520 L-675,-530 Z" />
<path fill="#D8D388" d="M-641,-550 L-641,-530 L-658,-520 L-675,-530 L-675,-550 L-658,-560 Z" />
<path fill="#D8D388" d="M-624,-580 L-624,-560 L-641,-550 L-658,-560 L-658,-580 L-641,-590 Z" />
<path fill="#4ee055" d="M-606,-610 L-606,-590 L-624,-580 L-641,-590 L-641,-610 L-624,-620 Z" />
<path fill="#D8D388" d="M-589,-640 L-589,-620 L-606,-610 L-624,-620 L-624,-640 L-606,-650 Z" />
<path fill="#D8D388" d="M-572,-670 L-572,-650 L-589,-640 L-606,-650 L-606,-670 L-589,-680 Z" />
<path fill="#4ee055" d="M69,-880 L69,-860 L52,-850 L35,-860 L35,-880 L52,-890 Z" />
<path fill="#4ee055" d="M-918,-130 L-918,-110 L-935,-100 L-953,-110 L-953,-130 L-935,-140 Z" />
<path fill="#D8D388" d="M-901,-160 L-901,-140 L-918,-130 L-935,-140 L-935,-160 L-918,-170 Z" />
<path fill="#D8D388" d="M-883,-190 L-883,-170 L-901,-160 L-918,-170 L-918,-190 L-901,-200 Z" />
<path fill="#4ee055" d="M-866,-220 L-866,-200 L-883,-190 L-901,-200 L-901,-220 L-883,-230 Z" />
<path fill="#D8D388" d="M-849,-250 L-849,-230 L-866,-220 L-883,-230 L-883,-250 L-866,-260 Z" />
<path fill="#D8D388" d="M-831,-280 L-831,-260 L-849,-250 L-866,-260 L-866,-280 L-849,-290 Z" />
<path fill="#4ee055" d="M-814,-310 L-814,-290 L-831,-280 L-849,-290 L-849,-310 L-831,-320 Z" />
<path fill="#D8D388" d="M-797,-340 L-797,-320 L-814,-310 L-831,-320 L-831,-340 L-814,-350 Z" />
<path fill="#D8D388" d="M-779,-370 L-779,-350 L-797,-340 L-814,-350 L-814,-370 L-797,-380 Z" />
<path fill="#4ee055" d="M-762,-400 L-762,-380 L-779,-370 L-797,-380 L-797,-400 L-779,-410 Z" />
<path fill="#D8D388" d="M-745,-430 L-745,-410 L-762,-400 L-779,-410 L-779,-430 L-762,-440 Z" />
<path fill="#D8D388" d="M-727,-460 L-727,-440 L-745,-430 L-762,-440 L-762,-460 L-745,-470 Z" />
<path fill="#4ee055" d="M-710,-490 L-710,-470 L-727,-460 L-745,-470 L-745,-490 L-727,-500 Z" />
<path fill="#D8D388" d="M-693,-520 L-693,-500 L-710,-490 L-727,-500 L-727,-520 L-710,-530 Z" />
<path fill="#D8D388" d="M-675,-550 L-675,-530 L-693,-520 L-710,-530 L-710,-550 L-693,-560 Z" />
<path fill="#4ee055" d="M-658,-580 L-658,-560 L-675,-550 L-693,-560 L-693,-580 L-675,-590 Z" />
<path fill="#D8D388" d="M-641,-610 L-641,-590 L-658,-580 L-675,-590 L-675,-610 L-658,-620 Z" />
<path fill="#D8D388" d="M-624,-640 L-624,-620 L-641,-610 L-658,-620 L-658,-640 L-641,-650 Z" />
<path fill="#4ee055" d="M-606,-670 L-606,-650 L-624,-640 L-641,-650 L-641,-670 L-624,-680 Z" />
<path fill="#D8D388" d="M-589,-700 L-589,-680 L-606,-670 L-624,-680 L-624,-700 L-606,-710 Z" />
<path fill="#D8D388" d="M87,-910 L87,-890 L69,-880 L52,-890 L52,-910 L69,-920 Z" />
<path fill="#D8D388" d="M-953,-130 L-953,-110 L-970,-100 L-987,-110 L-987,-130 L-970,-140 Z" />
<path fill="#D8D388" d="M-935,-160 L-935,-140 L-953,-130 L-970,-140 L-970,-160 L-953,-170 Z" />
<path fill="#4ee055" d="M-918,-190 L-918,-170 L-935,-160 L-953,-170 L-953,-190 L-935,-200 Z" />
<path fill="#D8D388" d="M-901,-220 L-901,-200 L-918,-190 L-935,-200 L-935,-220 L-918,-230 Z" />
<path fill="#D8D388" d="M-883,-250 L-883,-230 L-901,-220 L-918,-230 L-918,-250 L-901,-260 Z" />
<path fill="#4ee055" d="M-866,-280 L-866,-260 L-883,-250 L-901,-260 L-901,-280 L-883,-290 Z" />
<path fill="#D8D388" d="M-849,-310 L-849,-290 L-866,-280 L-883,-290 L-883,-310 L-866,-320 Z" />
<path fill="#D8D388" d="M-831,-340 L-831,-320 L-849,-310 L-866,-320 L-866,-340 L-849,-350 Z" />
<path fill="#4ee055" d="M-814,-370 L-814,-350 L-831,-340 L-849,-350 L-849,-370 L-831,-380 Z" />
<path fill="#D8D388" d="M-797,-400 L-797,-380 L-814,-370 L-831,-380 L-831,-400 L-814,-410 Z" />
<path fill="#D8D388" d="M-779,-430 L-779,-410 L-797,-400 L-814,-410 L-814,-430 L-797,-440 Z" />
<path fill="#4ee055" d="M-762,-460 L-762,-440 L-779,-430 L-797,-440 L-797,-460 L-779,-470 Z" />
<path fill="#D8D388" d="M-745,-490 L-745,-470 L-762,-460 L-779,-470 L-779,-490 L-762,-500 Z" />
<path fill="#D8D388" d="M-727,-520 L-727,-500 L-745,-490 L-762,-500 L-762,-520 L-745,-530 Z" />
<path fill="#4ee055" d="M-710,-550 L-710,-530 L-727,-520 L-745,-530 L-745,-550 L-727,-560 Z" />
<path fill="#D8D388" d="M-693,-580 L-693,-560 L-710,-550 L-727,-560 L-727,-580 L-710,-590 Z" />
<path fill="#D8D388" d="M-675,-610 L-675,-590 L-693,-580 L-710,-590 L-710,-610 L-693,-620 Z" />
<path fill="#4ee055" d="M-658,-640 L-658,-620 L-675,-610 L-693,-620 L-693,-640 L-675,-650 Z" />
<path fill="#D8D388" d="M-641,-670 L-641,-650 L-658,-640 L-675,-650 L-675,-670 L-658,-680 Z" />
<path fill="#D8D388" d="M-624,-700 L-624,-680 L-641,-670 L-658,-680 L-658,-700 L-641,-710 Z" />
<path fill="#4ee055" d="M-606,-730 L-606,-710 L-624,-700 L-641,-710 L-641,-730 L-624,-740 Z" />
<path fill="#D8D388" d="M-987,-130 L-987,-110 L-1005,-100 L-1022,-110 L-1022,-130 L-1005,-140 Z" />
<path fill="#4ee055" d="M-970,-160 L-970,-140 L-987,-130 L-1005,-140 L-1005,-160 L-987,-170 Z" />
<path fill="#D8D388" d="M-953,-190 L-953,-170 L-970,-160 L-987,-170 L-987,-190 L-970,-200 Z" />
<path fill="#D8D388" d="M-935,-220 L-935,-200 L-953,-190 L-970,-200 L-970,-220 L-953,-230 Z" />
<path fill="#4ee055" d="M-918,-250 L-918,-230 L-935,-220 L-953,-230 L-953,-250 L-935,-260 Z" />
<path fill="#D8D388" d="M-901,-280 L-901,-260 L-918,-250 L-935,-260 L-935,-280 L-918,-290 Z" />
<path fill="#D8D388" d="M-883,-310 L-883,-290 L-901,-280 L-918,-290 L-918,-310 L-901,-320 Z" />
<path fill="#4ee055" d="M-866,-340 L-866,-320 L-883,-310 L-901,-320 L-901,-340 L-883,-350 Z" />
<path fill="#D8D388" d="M-849,-370 L-849,-350 L-866,-340 L-883,-350 L-883,-370 L-866,-380 Z" />
<path fill="#D8D388" d="M-831,-400 L-831,-380 L-849,-370 L-866,-380 L-866,-400 L-849,-410 Z" />
<path fill="#4ee055" d="M-814,-430 L-814,-410 L-831,-400 L-849,-410 L-849,-430 L-831,-440 Z" />
<path fill="#D8D388" d="M-797,-460 L-797,-440 L-814,-430 L-831,-440 L-831,-460 L-814,-470 Z" />
<path fill="#D8D388" d="M-779,-490 L-779,-470 L-797,-460 L-814,-470 L-814,-490 L-797,-500 Z" />
<path fill="#4ee055" d="M-762,-520 L-762,-500 L-779,-490 L-797,-500 L-797,-520 L-779,-530 Z" />
<path fill="#D8D388" d="M-745,-550 L-745,-530 L-762,-520 L-779,-530 L-779,-550 L-762,-560 Z" />
<path fill="#D8D388" d="M-727,-580 L-727,-560 L-745,-550 L-762,-560 L-762,-580 L-745,-590 Z" />
<path fill="#4ee055" d="M-710,-610 L-710,-590 L-727,-580 L-745,-590 L-745,-610 L-727,-620 Z" />
<path fill="#D8D388" d="M-693,-640 L-693,-620 L-710,-610 L-727,-620 L-727,-640 L-710,-650 Z" />
<path fill="#D8D388" d="M-675,-670 L-675,-650 L-693,-640 L-710,-650 L-710,-670 L-693,-680 Z" />
<path fill="#4ee055" d="M-658,-700 L-658,-680 L-675,-670 L-693,-680 L-693,-700 L-675,-710 Z" />
<path fill="#D8D388" d="M-641,-730 L-641,-710 L-658,-700 L-675,-710 L-675,-730 L-658,-740 Z" />
<path fill="#D8D388" d="M-624,-760 L-624,-740 L-641,-730 L-658,-740 L-658,-760 L-641,-770 Z" />
<path fill="#4ee055" d="M-606,-790 L-606,-770 L-624,-760 L-641,-770 L-641,-790 L-624,-800 Z" />
<path fill="#D8D388" d="M87,-970 L87,-950 L69,-940 L52,-950 L52,-970 L69,-980 Z" />
<path fill="#4ee055" d="M-970,-220 L-970,-200 L-987,-190 L-1005,-200 L-1005,-220 L-987,-230 Z" />
<path fill="#D8D388" d="M-953,-250 L-953,-230 L-970,-220 L-987,-230 L-987,-250 L-970,-260 Z" />
<path fill="#D8D388" d="M-935,-280 L-935,-260 L-953,-250 L-970,-260 L-970,-280 L-953,-290 Z" />
<path fill="#4ee055" d="M-918,-310 L-918,-290 L-935,-280 L-953,-290 L-953,-310 L-935,-320 Z" />
<path fill="#D8D388" d="M-901,-340 L-901,-320 L-918,-310 L-935,-320 L-935,-340 L-918,-350 Z" />
<path fill="#D8D388" d="M-883,-370 L-883,-350 L-901,-340 L-918,-350 L-918,-370 L-901,-380 Z" />
<path fill="#4ee055" d="M-866,-400 L-866,-380 L-883,-370 L-901,-380 L-901,-400 L-883,-410 Z" />
<path fill="#D8D388" d="M-849,-430 L-849,-410 L-866,-400 L-883,-410 L-883,-430 L-866,-440 Z" />
<path fill="#D8D388" d="M-831,-460 L-831,-440 L-849,-430 L-866,-440 L-866,-460 L-849,-470 Z" />
<path fill="#4ee055" d="M-814,-490 L-814,-470 L-831,-460 L-849,-470 L-849,-490 L-831,-500 Z" />
<path fill="#D8D388" d="M-797,-520 L-797,-500 L-814,-490 L-831,-500 L-831,-520 L-814,-530 Z" />
<path fill="#D8D388" d="M-779,-550 L-779,-530 L-797,-520 L-814,-530 L-814,-550 L-797,-560 Z" />
<path fill="#4ee055" d="M-762,-580 L-762,-560 L-779,-550 L-797,-560 L-797,-580 L-779,-590 Z" />
<path fill="#D8D388" d="M-745,-610 L-745,-590 L-762,-580 L-779,-590 L-779,-610 L-762,-620 Z" />
<path fill="#D8D388" d="M-727,-640 L-727,-620 L-745,-610 L-762,-620 L-762,-640 L-745,-650 Z" />
<path fill="#4ee055" d="M-710,-670 L-710,-650 L-727,-640 L-745,-650 L-745,-670 L-727,-680 Z" />
<path fill="#D8D388" d="M-693,-700 L-693,-680 L-710,-670 L-727,-680 L-727,-700 L-710,-710 Z" />
<path fill="#D8D388" d="M-675,-730 L-675,-710 L-693,-700 L-710,-710 L-710,-730 L-693,-740 Z" />
<path fill="#4ee055" d="M-658,-760 L-658,-740 L-675,-730 L-693,-740 L-693,-760 L-675,-770 Z" />
<path fill="#D8D388" d="M-641,-790 L-641,-770 L-658,-760 L-675,-770 L-675,-790 L-658,-800 Z" />
<path fill="#D8D388" d="M-624,-820 L-624,-800 L-641,-790 L-658,-800 L-658,-820 L-641,-830 Z" />
<path fill="#4ee055" d="M-970,-280 L-970,-260 L-987,-250 L-1005,-260 L-1005,-280 L-987,-290 Z" />
<path fill="#D8D388" d="M-953,-310 L-953,-290 L-970,-280 L-987,-290 L-987,-310 L-970,-320 Z" />
<path fill="#D8D388" d="M-935,-340 L-935,-320 L-953,-310 L-970,-320 L-970,-340 L-953,-350 Z" />
<path fill="#4ee055" d="M-918,-370 L-918,-350 L-935,-340 L-953,-350 L-953,-370 L-935,-380 Z" />
<path fill="#D8D388" d="M-901,-400 L-901,-380 L-918,-370 L-935,-380 L-935,-400 L-918,-410 Z" />
<path fill="#D8D388" d="M-883,-430 L-883,-410 L-901,-400 L-918,-410 L-918,-430 L-901,-440 Z" />
<path fill="#4ee055" d="M-866,-460 L-866,-440 L-883,-430 L-901,-440 L-901,-460 L-883,-470 Z" />
<path fill="#D8D388" d="M-849,-490 L-849,-470 L-866,-460 L-883,-470 L-883,-490 L-866,-500 Z" />
<path fill="#D8D388" d="M-831,-520 L-831,-500 L-849,-490 L-866,-500 L-866,-520 L-849,-530 Z" />
<path fill="#4ee055" d="M-814,-550 L-814,-530 L-831,-520 L-849,-530 L-849,-550 L-831,-560 Z" />
<path fill="#D8D388" d="M-797,-580 L-797,-560 L-814,-550 L-831,-560 L-831,-580 L-814,-590 Z" />
<path fill="#D8D388" d="M-779,-610 L-779,-590 L-797,-580 L-814,-590 L-814,-610 L-797,-620 Z" />
<path fill="#4ee055" d="M-762,-640 L-762,-620 L-779,-610 L-797,-620 L-797,-640 L-779,-650 Z" />
<path fill="#D8D388" d="M-745,-670 L-745,-650 L-762,-640 L-779,-650 L-779,-670 L-762,-680 Z" />
<path fill="#D8D388" d="M-727,-700 L-727,-680 L-745,-670 L-762,-680 L-762,-700 L-745,-710 Z" />
<path fill="#4ee055" d="M-710,-730 L-710,-710 L-727,-700 L-745,-710 L-745,-730 L-727,-740 Z" />
<path fill="#D8D388" d="M-693,-760 L-693,-740 L-710,-730 L-727,-740 L-727,-760 L-710,-770 Z" />
<path fill="#D8D388" d="M-675,-790 L-675,-770 L-693,-760 L-710,-770 L-710,-790 L-693,-800 Z" />
<path fill="#4ee055" d="M-658,-820 L-658,-800 L-675,-790 L-693,-800 L-693,-820 L-675,-830 Z" />
<path fill="#D8D388" d="M-641,-850 L-641,-830 L-658,-820 L-675,-830 L-675,-850 L-658,-860 Z" />
<path fill="#4ee055" d="M-970,-340 L-970,-320 L-987,-310 L-1005,-320 L-1005,-340 L-987,-350 Z" />
<path fill="#D8D388" d="M-953,-370 L-953,-350 L-970,-340 L-987,-350 L-987,-370 L-970,-380 Z" />
<path fill="#D8D388" d="M-935,-400 L-935,-380 L-953,-370 L-970,-380 L-970,-400 L-953,-410 Z" />
<path fill="#4ee055" d="M-918,-430 L-918,-410 L-935,-400 L-953,-410 L-953,-430 L-935,-440 Z" />
<path fill="#D8D388" d="M-901,-460 L-901,-440 L-918,-430 L-935,-440 L-935,-460 L-918,-470 Z" />
<path fill="#D8D388" d="M-883,-490 L-883,-470 L-901,-460 L-918,-470 L-918,-490 L-901,-500 Z" />
<path fill="#4ee055" d="M-866,-520 L-866,-500 L-883,-490 L-901,-500 L-901,-520 L-883,-530 Z" />
<path fill="#D8D388" d="M-849,-550 L-849,-530 L-866,-520 L-883,-530 L-883,-550 L-866,-560 Z" />
<path fill="#D8D388" d="M-831,-580 L-831,-560 L-849,-550 L-866,-560 L-866,-580 L-849,-590 Z" />
<path fill="#4ee055" d="M-814,-610 L-814,-590 L-831,-580 L-849,-590 L-849,-610 L-831,-620 Z" />
<path fill="#D8D388" d="M-797,-640 L-797,-620 L-814,-610 L-831,-620 L-831,-640 L-814,-650 Z" />
<path fill="#D8D388" d="M-779,-670 L-779,-650 L-797,-640 L-814,-650 L-814,-670 L-797,-680 Z" />
<path fill="#4ee055" d="M-762,-700 L-762,-680 L-779,-670 L-797,-680 L-797,-700 L-779,-710 Z" />
<path fill="#D8D388" d="M-745,-730 L-745,-710 L-762,-700 L-779,-710 L-779,-730 L-762,-740 Z" />
<path fill="#D8D388" d="M-727,-760 L-727,-740 L-745,-730 L-762,-740 L-762,-760 L-745,-770 Z" />
<path fill="#4ee055" d="M-710,-790 L-710,-770 L-727,-760 L-745,-770 L-745,-790 L-727,-800 Z" />
<path fill="#D8D388" d="M-693,-820 L-693,-800 L-710,-790 L-727,-800 L-727,-820 L-710,-830 Z" />
<path fill="#D8D388" d="M-675,-850 L-675,-830 L-693,-820 L-710,-830 L-710,-850 L-693,-860 Z" />
<path fill="#4ee055" d="M-658,-880 L-658,-860 L-675,-850 L-693,-860 L-693,-880 L-675,-890 Z" />
<path fill="#4ee055" d="M-970,-400 L-970,-380 L-987,-370 L-1005,-380 L-1005,-400 L-987,-410 Z" />
<path fill="#D8D388" d="M-953,-430 L-953,-410 L-970,-400 L-987,-410 L-987,-430 L-970,-440 Z" />
<path fill="#D8D388" d="M-935,-460 L-935,-440 L-953,-430 L-970,-440 L-970,-460 L-953,-470 Z" />
<path fill="#4ee055" d="M-918,-490 L-918,-470 L-935,-460 L-953,-470 L-953,-490 L-935,-500 Z" />
<path fill="#D8D388" d="M-901,-520 L-901,-500 L-918,-490 L-935,-500 L-935,-520 L-918,-530 Z" />
<path fill="#D8D388" d="M-883,-550 L-883,-530 L-901,-520 L-918,-530 L-918,-550 L-901,-560 Z" />
<path fill="#4ee055" d="M-866,-580 L-866,-560 L-883,-550 L-901,-560 L-901,-580 L-883,-590 Z" />
<path fill="#D8D388" d="M-849,-610 L-849,-590 L-866,-580 L-883,-590 L-883,-610 L-866,-620 Z" />
<path fill="#D8D388" d="M-831,-640 L-831,-620 L-849,-610 L-866,-620 L-866,-640 L-849,-650 Z" />
<path fill="#4ee055" d="M-814,-670 L-814,-650 L-831,-640 L-849,-650 L-849,-670 L-831,-680 Z" />
<path fill="#D8D388" d="M-797,-700 L-797,-680 L-814,-670 L-831,-680 L-831,-700 L-814,-710 Z" />
<path fill="#D8D388" d="M-779,-730 L-779,-710 L-797,-700 L-814,-710 L-814,-730 L-797,-740 Z" />
<path fill="#4ee055" d="M-762,-760 L-762,-740 L-779,-730 L-797,-740 L-797,-760 L-779,-770 Z" />
<path fill="#D8D388" d="M-745,-790 L-745,-770 L-762,-760 L-779,-770 L-779,-790 L-762,-800 Z" />
<path fill="#D8D388" d="M-727,-820 L-727,-800 L-745,-790 L-762,-800 L-762,-820 L-745,-830 Z" />
<path fill="#4ee055" d="M-710,-850 L-710,-830 L-727,-820 L-745,-830 L-745,-850 L-727,-860 Z" />
<path fill="#D8D388" d="M-693,-880 L-693,-860 L-710,-850 L-727,-860 L-727,-880 L-710,-890 Z" />
<path fill="#D8D388" d="M-675,-910 L-675,-890 L-693,-880 L-710,-890 L-710,-910 L-693,-920 Z" />
<path fill="#4ee055" d="M-970,-460 L-970,-440 L-987,-430 L-1005,-440 L-1005,-460 L-987,-470 Z" />
<path fill="#D8D388" d="M-953,-490 L-953,-470 L-970,-460 L-987,-470 L-987,-490 L-970,-500 Z" />
<path fill="#D8D388" d="M-935,-520 L-935,-500 L-953,-490 L-970,-500 L-970,-520 L-953,-530 Z" />
<path fill="#4ee055" d="M-918,-550 L-918,-530 L-935,-520 L-953,-530 L-953,-550 L-935,-560 Z" />
<path fill="#D8D388" d="M-901,-580 L-901,-560 L-918,-550 L-935,-560 L-935,-580 L-918,-590 Z" />
<path fill="#D8D388" d="M-883,-610 L-883,-590 L-901,-580 L-918,-590 L-918,-610 L-901,-620 Z" />
<path fill="#4ee055" d="M-866,-640 L-866,-620 L-883,-610 L-901,-620 L-901,-640 L-883,-650 Z" />
<path fill="#D8D388" d="M-849,-670 L-849,-650 L-866,-640 L-883,-650 L-883,-670 L-866,-680 Z" />
<path fill="#D8D388" d="M-831,-700 L-831,-680 L-849,-670 L-866,-680 L-866,-700 L-849,-710 Z" />
<path fill="#4ee055" d="M-814,-730 L-814,-710 L-831,-700 L-849,-710 L-849,-730 L-831,-740 Z" />
<path fill="#D8D388" d="M-797,-760 L-797,-740 L-814,-730 L-831,-740 L-831,-760 L-814,-770 Z" />
<path fill="#D8D388" d="M-779,-790 L-779,-770 L-797,-760 L-814,-770 L-814,-790 L-797,-800 Z" />
<path fill="#4ee055" d="M-762,-820 L-762,-800 L-779,-790 L-797,-800 L-797,-820 L-779,-830 Z" />
<path fill="#D8D388" d="M-745,-850 L-745,-830 L-762,-820 L-779,-830 L-779,-850 L-762,-860 Z" />
<path fill="#D8D388" d="M-727,-880 L-727,-860 L-745,-850 L-762,-860 L-762,-880 L-745,-890 Z" />
<path fill="#4ee055" d="M-710,-910 L-710,-890 L-727,-880 L-745,-890 L-745,-910 L-727,-920 Z" />
<path fill="#D8D388" d="M-693,-940 L-693,-920 L-710,-910 L-727,-920 L-727,-940 L-710,-950 Z" />
<path fill="#4ee055" d="M-970,-520 L-970,-500 L-987,-490 L-1005,-500 L-1005,-520 L-987,-530 Z" />
<path fill="#D8D388" d="M-953,-550 L-953,-530 L-970,-520 L-987,-530 L-987,-550 L-970,-560 Z" />
<path fill="#D8D388" d="M-935,-580 L-935,-560 L-953,-550 L-970,-560 L-970,-580 L-953,-590 Z" />
<path fill="#4ee055" d="M-918,-610 L-918,-590 L-935,-580 L-953,-590 L-953,-610 L-935,-620 Z" />
<path fill="#D8D388" d="M-901,-640 L-901,-620 L-918,-610 L-935,-620 L-935,-640 L-918,-650 Z" />
<path fill="#D8D388" d="M-883,-670 L-883,-650 L-901,-640 L-918,-650 L-918,-670 L-901,-680 Z" />
<path fill="#4ee055" d="M-866,-700 L-866,-680 L-883,-670 L-901,-680 L-901,-700 L-883,-710 Z" />
<path fill="#D8D388" d="M-849,-730 L-849,-710 L-866,-700 L-883,-710 L-883,-730 L-866,-740 Z" />
<path fill="#D8D388" d="M-831,-760 L-831,-740 L-849,-730 L-866,-740 L-866,-760 L-849,-770 Z" />
<path fill="#4ee055" d="M-814,-790 L-814,-770 L-831,-760 L-849,-770 L-849,-790 L-831,-800 Z" />
<path fill="#D8D388" d="M-797,-820 L-797,-800 L-814,-790 L-831,-800 L-831,-820 L-814,-830 Z" />
<path fill="#D8D388" d="M-779,-850 L-779,-830 L-797,-820 L-814,-830 L-814,-850 L-797,-860 Z" />
<path fill="#4ee055" d="M-762,-880 L-762,-860 L-779,-850 L-797,-860 L-797,-880 L-779,-890 Z" />
<path fill="#D8D388" d="M-745,-910 L-745,-890 L-762,-880 L-779,-890 L-779,-910 L-762,-920 Z" />
<path fill="#D8D388" d="M-727,-940 L-727,-920 L-745,-910 L-762,-920 L-762,-940 L-745,-950 Z" />
<path fill="#4ee055" d="M-710,-970 L-710,-950 L-727,-940 L-745,-950 L-745,-970 L-727,-980 Z" />
<path fill="#4ee055" d="M-970,-580 L-970,-560 L-987,-550 L-1005,-560 L-1005,-580 L-987,-590 Z" />
<path fill="#D8D388" d="M-953,-610 L-953,-590 L-970,-580 L-987,-590 L-987,-610 L-970,-620 Z" />
<path fill="#D8D388" d="M-935,-640 L-935,-620 L-953,-610 L-970,-620 L-970,-640 L-953,-650 Z" />
<path fill="#4ee055" d="M-918,-670 L-918,-650 L-935,-640 L-953,-650 L-953,-670 L-935,-680 Z" />
<path fill="#D8D388" d="M-901,-700 L-901,-680 L-918,-670 L-935,-680 L-935,-700 L-918,-710 Z" />
<path fill="#D8D388" d="M-883,-730 L-883,-710 L-901,-700 L-918,-710 L-918,-730 L-901,-740 Z" />
<path fill="#4ee055" d="M-866,-760 L-866,-740 L-883,-730 L-901,-740 L-901,-760 L-883,-770 Z" />
<path fill="#D8D388" d="M-849,-790 L-849,-770 L-866,-760 L-883,-770 L-883,-790 L-866,-800 Z" />
<path fill="#D8D388" d="M-831,-820 L-831,-800 L-849,-790 L-866,-800 L-866,-820 L-849,-830 Z" />
<path fill="#4ee055" d="M-814,-850 L-814,-830 L-831,-820 L-849,-830 L-849,-850 L-831,-860 Z" />
<path fill="#D8D388" d="M-797,-880 L-797,-860 L-814,-850 L-831,-860 L-831,-880 L-814,-890 Z" />
<path fill="#D8D388" d="M-779,-910 L-779,-890 L-797,-880 L-814,-890 L-814,-910 L-797,-920 Z" />
<path fill="#4ee055" d="M-762,-940 L-762,-920 L-779,-910 L-797,-920 L-797,-940 L-779,-950 Z" />
<path fill="#D8D388" d="M-745,-970 L-745,-950 L-762,-940 L-779,-950 L-779,-970 L-762,-980 Z" />
<path fill="#D8D388" d="M-727,-1000 L-727,-980 L-745,-970 L-762,-980 L-762,-1000 L-745,-1010 Z" />
<path fill="#4ee055" d="M-970,-640 L-970,-620 L-987,-610 L-1005,-620 L-1005,-640 L-987,-650 Z" />
<path fill="#D8D388" d="M-953,-670 L-953,-650 L-970,-640 L-987,-650 L-987,-670 L-970,-680 Z" />
<path fill="#D8D388" d="M-935,-700 L-935,-680 L-953,-670 L-970,-680 L-970,-700 L-953,-710 Z" />
<path fill="#4ee055" d="M-918,-730 L-918,-710 L-935,-700 L-953,-710 L-953,-730 L-935,-740 Z" />
<path fill="#D8D388" d="M-901,-760 L-901,-740 L-918,-730 L-935,-740 L-935,-760 L-918,-770 Z" />
<path fill="#D8D388" d="M-883,-790 L-883,-770 L-901,-760 L-918,-770 L-918,-790 L-901,-800 Z" />
<path fill="#4ee055" d="M-866,-820 L-866,-800 L-883,-790 L-901,-800 L-901,-820 L-883,-830 Z" />
<path fill="#D8D388" d="M-849,-850 L-849,-830 L-866,-820 L-883,-830 L-883,-850 L-866,-860 Z" />
<path fill="#D8D388" d="M-831,-880 L-831,-860 L-849,-850 L-866,-860 L-866,-880 L-849,-890 Z" />
<path fill="#4ee055" d="M-814,-910 L-814,-890 L-831,-880 L-849,-890 L-849,-910 L-831,-920 Z" />
<path fill="#D8D388" d="M-797,-940 L-797,-920 L-814,-910 L-831,-920 L-831,-940 L-814,-950 Z" />
<path fill="#D8D388" d="M-779,-970 L-779,-950 L-797,-940 L-814,-950 L-814,-970 L-797,-980 Z" />
<path fill="#4ee055" d="M-762,-1000 L-762,-980 L-779,-970 L-797,-980 L-797,-1000 L-779,-1010 Z" />
<path fill="#4ee055" d="M-970,-700 L-970,-680 L-987,-670 L-1005,-680 L-1005,-700 L-987,-710 Z" />
<path fill="#D8D388" d="M-953,-730 L-953,-710 L-970,-700 L-987,-710 L-987,-730 L-970,-740 Z" />
<path fill="#D8D388" d="M-935,-760 L-935,-740 L-953,-730 L-970,-740 L-970,-760 L-953,-770 Z" />
<path fill="#4ee055" d="M-918,-790 L-918,-770 L-935,-760 L-953,-770 L-953,-790 L-935,-800 Z" />
<path fill="#D8D388" d="M-901,-820 L-901,-800 L-918,-790 L-935,-800 L-935,-820 L-918,-830 Z" />
<path fill="#D8D388" d="M-883,-850 L-883,-830 L-901,-820 L-918,-830 L-918,-850 L-901,-860 Z" />
<path fill="#4ee055" d="M-866,-880 L-866,-860 L-883,-850 L-901,-860 L-901,-880 L-883,-890 Z" />
<path fill="#D8D388" d="M-849,-910 L-849,-890 L-866,-880 L-883,-890 L-883,-910 L-866,-920 Z" />
<path fill="#D8D388" d="M-831,-940 L-831,-920 L-849,-910 L-866,-920 L-866,-940 L-849,-950 Z" />
<path fill="#4ee055" d="M-814,-970 L-814,-950 L-831,-940 L-849,-950 L-849,-970 L-831,-980 Z" />
<path fill="#D8D388" d="M-797,-1000 L-797,-980 L-814,-970 L-831,-980 L-831,-1000 L-814,-1010 Z" />
<path fill="#4ee055" d="M-970,-760 L-970,-740 L-987,-730 L-1005,-740 L-1005,-760 L-987,-770 Z" />
<path fill="#D8D388" d="M-953,-790 L-953,-770 L-970,-760 L-987,-770 L-987,-790 L-970,-800 Z" />
<path fill="#D8D388" d="M-935,-820 L-935,-800 L-953,-790 L-970,-800 L-970,-820 L-953,-830 Z" />
<path fill="#4ee055" d="M-918,-850 L-918,-830 L-935,-820 L-953,-830 L-953,-850 L-935,-860 Z" />
<path fill="#D8D388" d="M-901,-880 L-901,-860 L-918,-850 L-935,-860 L-935,-880 L-918,-890 Z" />
<path fill="#D8D388" d="M-883,-910 L-883,-890 L-901,-880 L-918,-890 L-918,-910 L-901,-920 Z" />
<path fill="#4ee055" d="M-866,-940 L-866,-920 L-883,-910 L-901,-920 L-901,-940 L-883,-950 Z" />
<path fill="#D8D388" d="M-849,-970 L-849,-950 L-866,-940 L-883,-950 L-883,-970 L-866,-980 Z" />
<path fill="#D8D388" d="M-831,-1000 L-831,-980 L-849,-970 L-866,-980 L-866,-1000 L-849,-1010 Z" />
<path fill="#4ee055" d="M-970,-820 L-970,-800 L-987,-790 L-1005,-800 L-1005,-820 L-987,-830 Z" />
<path fill="#D8D388" d="M-953,-850 L-953,-830 L-970,-820 L-987,-830 L-987,-850 L-970,-860 Z" />
<path fill="#D8D388" d="M-935,-880 L-935,-860 L-953,-850 L-970,-860 L-970,-880 L-953,-890 Z" />
<path fill="#4ee055" d="M-918,-910 L-918,-890 L-935,-880 L-953,-890 L-953,-910 L-935,-920 Z" />
<path fill="#D8D388" d="M-901,-940 L-901,-920 L-918,-910 L-935,-920 L-935,-940 L-918,-950 Z" />
<path fill="#D8D388" d="M-883,-970 L-883,-950 L-901,-940 L-918,-950 L-918,-970 L-901,-980 Z" />
<path fill="#4ee055" d="M-866,-1000 L-866,-980 L-883,-970 L-901,-980 L-901,-1000 L-883,-1010 Z" />
<path fill="#4ee055" d="M-970,-880 L-970,-860 L-987,-850 L-1005,-860 L-1005,-880 L-987,-890 Z" />
<path fill="#D8D388" d="M-953,-910 L-953,-890 L-970,-880 L-987,-890 L-987,-910 L-970,-920 Z" />
<path fill="#D8D388" d="M-935,-940 L-935,-920 L-953,-910 L-970,-920 L-970,-940 L-953,-950 Z" />
<path fill="#4ee055" d="M-918,-970 L-918,-950 L-935,-940 L-953,-950 L-953,-970 L-935,-980 Z" />
<path fill="#D8D388" d="M-901,-1000 L-901,-980 L-918,-970 L-935,-980 L-935,-1000 L-918,-1010 Z" />
<path fill="#D8D388" d="M-987,-910 L-987,-890 L-1005,-880 L-1022,-890 L-1022,-910 L-1005,-920 Z" />
<path fill="#4ee055" d="M-970,-940 L-970,-920 L-987,-910 L-1005,-920 L-1005,-940 L-987,-950 Z" />
<path fill="#D8D388" d="M-953,-970 L-953,-950 L-970,-940 L-987,-950 L-987,-970 L-970,-980 Z" />
<path fill="#D8D388" d="M-935,-1000 L-935,-980 L-953,-970 L-970,-980 L-970,-1000 L-953,-1010 Z" />
<path fill="#D8D388" d="M-987,-970 L-987,-950 L-1005,-940 L-1022,-950 L-1022,-970 L-1005,-980 Z" />
<path fill="#4ee055" d="M-970,-1000 L-970,-980 L-987,-970 L-1005,-980 L-1005,-1000 L-987,-1010 Z" />
<path fill="#4ee055" d="M69,-100 L69,-80 L52,-70 L35,-80 L35,-100 L52,-110 Z" />
<path fill="#D8D388" d="M87,-70 L87,-50 L69,-40 L52,-50 L52,-70 L69,-80 Z" />
<path fill="#D8D388" d="M-17,-310 L-17,-290 L-35,-280 L-52,-290 L-52,-310 L-35,-320 Z" />
<path fill="#D8D388" d="M-675,-190 L-675,-170 L-693,-160 L-710,-170 L-710,-190 L-693,-200 Z" />
<path fill="#D8D388" d="M-589,-340 L-589,-320 L-606,-310 L-624,-320 L-624,-340 L-606,-350 Z" />
<path fill="#D8D388" d="M-572,-370 L-572,-350 L-589,-340 L-606,-350 L-606,-370 L-589,-380 Z" />
</g>
</svg>