<?xml version="1.0" encoding="utf-8"?>
<svg viewBox="-790.6811936551925 -868.0000000000001 1009.7856208126555 1496.0" preserveAspectRatio="xMidYMid meet" version="1.1" baseProfile="full" xmlns="http://www.w3.org/2000/svg" style="background-color: black;">
<g style="stroke:#ffffff; stroke-width: 1; stroke-linejoin: round;">
<path fill="#D8D388" d="M-225,-10 L-225,10 L-242,20 L-260,10 L-260,-10 L-242,-20 Z" />
<path fill="#D8D388" d="M-225,50 L-225,70 L-242,80 L-260,70 L-260,50 L-242,40 Z" />
<path fill="#4ee055" d="M-242,20 L-242,40 L-260,50 L-277,40 L-277,20 L-260,10 Z" />
<path fill="#D8D388" d="M-260,-10 L-260,10 L-277,20 L-294,10 L-294,-10 L-277,-20 Z" />
<path fill="#4ee055" d="M-242,-40 L-242,-20 L-260,-10 L-277,-20 L-277,-40 L-260,-50 Z" />
<path fill="#D8D388" d="M-225,-70 L-225,-50 L-242,-40 L-260,-50 L-260,-70 L-242,-80 Z" />
<path fill="#D8D388" d="M-225,110 L-225,130 L-242,140 L-260,130 L-260,110 L-242,100 Z" />
<path fill="#4ee055" d="M-242,80 L-242,100 L-260,110 L-277,100 L-277,80 L-260,70 Z" />
<path fill="#D8D388" d="M-260,50 L-260,70 L-277,80 L-294,70 L-294,50 L-277,40 Z" />
<path fill="#D8D388" d="M-277,20 L-277,40 L-294,50 L-312,40 L-312,20 L-294,10 Z" />
<path fill="#4ee055" d="M-294,-10 L-294,10 L-312,20 L-329,10 L-329,-10 L-312,-20 Z" />
<path fill="#D8D388" d="M-277,-40 L-277,-20 L-294,-10 L-312,-20 L-312,-40 L-294,-50 Z" />
<path fill="#D8D388" d="M-260,-70 L-260,-50 L-277,-40 L-294,-50 L-294,-70 L-277,-80 Z" />
<path fill="#4ee055" d="M-242,-100 L-242,-80 L-260,-70 L-277,-80 L-277,-100 L-260,-110 Z" />
<path fill="#D8D388" d="M-225,-130 L-225,-110 L-242,-100 L-260,-110 L-260,-130 L-242,-140 Z" />
<path fill="#D8D388" d="M-225,170 L-225,190 L-242,200 L-260,190 L-260,170 L-242,160 Z" />
<path fill="#4ee055" d="M-242,140 L-242,160 L-260,170 L-277,160 L-277,140 L-260,130 Z" />
<path fill="#D8D388" d="M-260,110 L-260,130 L-277,140 L-294,130 L-294,110 L-277,100 Z" />
<path fill="#D8D388" d="M-277,80 L-277,100 L-294,110 L-312,100 L-312,80 L-294,70 Z" />
<path fill="#4ee055" d="M-294,50 L-294,70 L-312,80 L-329,70 L-329,50 L-312,40 Z" />
<path fill="#D8D388" d="M-312,20 L-312,40 L-329,50 L-346,40 L-346,20 L-329,10 Z" />
<path fill="#D8D388" d="M-329,-10 L-329,10 L-346,20 L-364,10 L-364,-10 L-346,-20 Z" />
<path fill="#D8D388" d="M-312,-40 L-312,-20 L-329,-10 L-346,-20 L-346,-40 L-329,-50 Z" />
<path fill="#4ee055" d="M-294,-70 L-294,-50 L-312,-40 L-329,-50 L-329,-70 L-312,-80 Z" />
<path fill="#D8D388" d="M-277,-100 L-277,-80 L-294,-70 L-312,-80 L-312,-100 L-294,-110 Z" />
<path fill="#D8D388" d="M-260,-130 L-260,-110 L-277,-100 L-294,-110 L-294,-130 L-277,-140 Z" />
<path fill="#4ee055" d="M-242,-160 L-242,-140 L-260,-130 L-277,-140 L-277,-160 L-260,-170 Z" />
<path fill="#D8D388" d="M-225,-190 L-225,-170 L-242,-160 L-260,-170 L-260,-190 L-242,-200 Z" />
<path fill="#4ee055" d="M173,-340 L173,-320 L156,-310 L139,-320 L139,-340 L156,-350 Z" />
<path fill="#D8D388" d="M-225,230 L-225,250 L-242,260 L-260,250 L-260,230 L-242,220 Z" />
<path fill="#4ee055" d="M-242,200 L-242,220 L-260,230 L-277,220 L-277,200 L-260,190 Z" />
<path fill="#D8D388" d="M-260,170 L-260,190 L-277,200 L-294,190 L-294,170 L-277,160 Z" />
<path fill="#D8D388" d="M-277,140 L-277,160 L-294,170 L-312,160 L-312,140 L-294,130 Z" />
<path fill="#4ee055" d="M-294,110 L-294,130 L-312,140 L-329,130 L-329,110 L-312,100 Z" />
<path fill="#D8D388" d="M-312,80 L-312,100 L-329,110 L-346,100 L-346,80 L-329,70 Z" />
<path fill="#D8D388" d="M-329,50 L-329,70 L-346,80 L-364,70 L-364,50 L-346,40 Z" />
<path fill="#4ee055" d="M-346,20 L-346,40 L-364,50 L-381,40 L-381,20 L-364,10 Z" />
<path fill="#D8D388" d="M-364,-10 L-364,10 L-381,20 L-398,10 L-398,-10 L-381,-20 Z" />
<path fill="#4ee055" d="M-346,-40 L-346,-20 L-364,-10 L-381,-20 L-381,-40 L-364,-50 Z" />
<path fill="#D8D388" d="M-329,-70 L-329,-50 L-346,-40 L-364,-50 L-364,-70 L-346,-80 Z" />
<path fill="#D8D388" d="M-312,-100 L-312,-80 L-329,-70 L-346,-80 L-346,-100 L-329,-110 Z" />
<path fill="#4ee055" d="M-294,-130 L-294,-110 L-312,-100 L-329,-110 L-329,-130 L-312,-140 Z" />
<path fill="#D8D388" d="M-277,-160 L-277,-140 L-294,-130 L-312,-140 L-312,-160 L-294,-170 Z" />
<path fill="#D8D388" d="M-260,-190 L-260,-170 L-277,-160 L-294,-170 L-294,-190 L-277,-200 Z" />
<path fill="#4ee055" d="M-242,-220 L-242,-200 L-260,-190 L-277,-200 L-277,-220 L-260,-230 Z" />
<path fill="#D8D388" d="M-225,-250 L-225,-230 L-242,-220 L-260,-230 L-260,-250 L-242,-260 Z" />
<path fill="#D8D388" d="M52,-370 L52,-350 L35,-340 L17,-350 L17,-370 L35,-380 Z" />
<path fill="#D8D388" d="M87,-370 L87,-350 L69,-340 L52,-350 L52,-370 L69,-380 Z" />
<path fill="#4ee055" d="M121,-370 L121,-350 L104,-340 L87,-350 L87,-370 L104,-380 Z" />
<path fill="#D8D388" d="M156,-370 L156,-350 L139,-340 L121,-350 L121,-370 L139,-380 Z" />
<path fill="#D8D388" d="M-225,290 L-225,310 L-242,320 L-260,310 L-260,290 L-242,280 Z" />
<path fill="#4ee055" d="M-242,260 L-242,280 L-260,290 L-277,280 L-277,260 L-260,250 Z" />
<path fill="#D8D388" d="M-260,230 L-260,250 L-277,260 L-294,250 L-294,230 L-277,220 Z" />
<path fill="#D8D388" d="M-277,200 L-277,220 L-294,230 L-312,220 L-312,200 L-294,190 Z" />
<path fill="#4ee055" d="M-294,170 L-294,190 L-312,200 L-329,190 L-329,170 L-312,160 Z" />
<path fill="#D8D388" d="M-312,140 L-312,160 L-329,170 L-346,160 L-346,140 L-329,130 Z" />
<path fill="#D8D388" d="M-329,110 L-329,130 L-346,140 L-364,130 L-364,110 L-346,100 Z" />
<path fill="#4ee055" d="M-346,80 L-346,100 L-364,110 L-381,100 L-381,80 L-364,70 Z" />
<path fill="#D8D388" d="M-364,50 L-364,70 L-381,80 L-398,70 L-398,50 L-381,40 Z" />
<path fill="#D8D388" d="M-381,20 L-381,40 L-398,50 L-416,40 L-416,20 L-398,10 Z" />
<path fill="#4ee055" d="M-398,-10 L-398,10 L-416,20 L-433,10 L-433,-10 L-416,-20 Z" />
<path fill="#D8D388" d="M-381,-40 L-381,-20 L-398,-10 L-416,-20 L-416,-40 L-398,-50 Z" />
<path fill="#D8D388" d="M-364,-70 L-364,-50 L-381,-40 L-398,-50 L-398,-70 L-381,-80 Z" />
<path fill="#4ee055" d="M-346,-100 L-346,-80 L-364,-70 L-381,-80 L-381,-100 L-364,-110 Z" />
<path fill="#D8D388" d="M-329,-130 L-329,-110 L-346,-100 L-364,-110 L-364,-130 L-346,-140 Z" />
<path fill="#D8D388" d="M-312,-160 L-312,-140 L-329,-130 L-346,-140 L-346,-160 L-329,-170 Z" />
<path fill="#4ee055" d="M-294,-190 L-294,-170 L-312,-160 L-329,-170 L-329,-190 L-312,-200 Z" />
<path fill="#D8D388" d="M-277,-220 L-277,-200 L-294,-190 L-312,-200 L-312,-220 L-294,-230 Z" />
<path fill="#D8D388" d="M-260,-250 L-260,-230 L-277,-220 L-294,-230 L-294,-250 L-277,-260 Z" />
<path fill="#4ee055" d="M-242,-280 L-242,-260 L-260,-250 L-277,-260 L-277,-280 L-260,-290 Z" />
<path fill="#D8D388" d="M-225,-310 L-225,-290 L-242,-280 L-260,-290 L-260,-310 L-242,-320 Z" />
<path fill="#D8D388" d="M-208,-400 L-208,-380 L-225,-370 L-242,-380 L-242,-400 L-225,-410 Z" />
<path fill="#D8D388" d="M-173,-400 L-173,-380 L-191,-370 L-208,-380 L-208,-400 L-191,-410 Z" />
<path fill="#4ee055" d="M-139,-400 L-139,-380 L-156,-370 L-173,-380 L-173,-400 L-156,-410 Z" />
<path fill="#D8D388" d="M-104,-400 L-104,-380 L-121,-370 L-139,-380 L-139,-400 L-121,-410 Z" />
<path fill="#D8D388" d="M-69,-400 L-69,-380 L-87,-370 L-104,-380 L-104,-400 L-87,-410 Z" />
<path fill="#4ee055" d="M-35,-400 L-35,-380 L-52,-370 L-69,-380 L-69,-400 L-52,-410 Z" />
<path fill="#D8D388" d="M0,-400 L0,-380 L-17,-370 L-35,-380 L-35,-400 L-17,-410 Z" />
<path fill="#D8D388" d="M35,-400 L35,-380 L17,-370 L0,-380 L0,-400 L17,-410 Z" />
<path fill="#4ee055" d="M69,-400 L69,-380 L52,-370 L35,-380 L35,-400 L52,-410 Z" />
<path fill="#D8D388" d="M104,-400 L104,-380 L87,-370 L69,-380 L69,-400 L87,-410 Z" />
<path fill="#D8D388" d="M139,-400 L139,-380 L121,-370 L104,-380 L104,-400 L121,-410 Z" />
<path fill="#4ee055" d="M173,-400 L173,-380 L156,-370 L139,-380 L139,-400 L156,-410 Z" />
<path fill="#D8D388" d="M-225,350 L-225,370 L-242,380 L-260,370 L-260,350 L-242,340 Z" />
<path fill="#4ee055" d="M-242,320 L-242,340 L-260,350 L-277,340 L-277,320 L-260,310 Z" />
<path fill="#D8D388" d="M-260,290 L-260,310 L-277,320 L-294,310 L-294,290 L-277,280 Z" />
<path fill="#D8D388" d="M-277,260 L-277,280 L-294,290 L-312,280 L-312,260 L-294,250 Z" />
<path fill="#4ee055" d="M-294,230 L-294,250 L-312,260 L-329,250 L-329,230 L-312,220 Z" />
<path fill="#D8D388" d="M-312,200 L-312,220 L-329,230 L-346,220 L-346,200 L-329,190 Z" />
<path fill="#D8D388" d="M-329,170 L-329,190 L-346,200 L-364,190 L-364,170 L-346,160 Z" />
<path fill="#4ee055" d="M-346,140 L-346,160 L-364,170 L-381,160 L-381,140 L-364,130 Z" />
<path fill="#D8D388" d="M-364,110 L-364,130 L-381,140 L-398,130 L-398,110 L-381,100 Z" />
<path fill="#D8D388" d="M-381,80 L-381,100 L-398,110 L-416,100 L-416,80 L-398,70 Z" />
<path fill="#4ee055" d="M-398,50 L-398,70 L-416,80 L-433,70 L-433,50 L-416,40 Z" />
<path fill="#D8D388" d="M-416,20 L-416,40 L-433,50 L-450,40 L-450,20 L-433,10 Z" />
<path fill="#D8D388" d="M-433,-10 L-433,10 L-450,20 L-468,10 L-468,-10 L-450,-20 Z" />
<path fill="#D8D388" d="M-416,-40 L-416,-20 L-433,-10 L-450,-20 L-450,-40 L-433,-50 Z" />
<path fill="#4ee055" d="M-398,-70 L-398,-50 L-416,-40 L-433,-50 L-433,-70 L-416,-80 Z" />
<path fill="#D8D388" d="M-381,-100 L-381,-80 L-398,-70 L-416,-80 L-416,-100 L-398,-110 Z" />
<path fill="#D8D388" d="M-364,-130 L-364,-110 L-381,-100 L-398,-110 L-398,-130 L-381,-140 Z" />
<path fill="#4ee055" d="M-346,-160 L-346,-140 L-364,-130 L-381,-140 L-381,-160 L-364,-170 Z" />
<path fill="#D8D388" d="M-329,-190 L-329,-170 L-346,-160 L-364,-170 L-364,-190 L-346,-200 Z" />
<path fill="#D8D388" d="M-312,-220 L-312,-200 L-329,-190 L-346,-200 L-346,-220 L-329,-230 Z" />
<path fill="#4ee055" d="M-294,-250 L-294,-230 L-312,-220 L-329,-230 L-329,-250 L-312,-260 Z" />
<path fill="#D8D388" d="M-277,-280 L-277,-260 L-294,-250 L-312,-260 L-312,-280 L-294,-290 Z" />
<path fill="#D8D388" d="M-260,-310 L-260,-290 L-277,-280 L-294,-290 L-294,-310 L-277,-320 Z" />
<path fill="#4ee055" d="M-242,-340 L-242,-320 L-260,-310 L-277,-320 L-277,-340 L-260,-350 Z" />
<path fill="#D8D388" d="M-225,-370 L-225,-350 L-242,-340 L-260,-350 L-260,-370 L-242,-380 Z" />
<path fill="#D8D388" d="M-208,-400 L-208,-380 L-225,-370 L-242,-380 L-242,-400 L-225,-410 Z" />
<path fill="#D8D388" d="M-225,-430 L-225,-410 L-242,-400 L-260,-410 L-260,-430 L-242,-440 Z" />
<path fill="#4ee055" d="M-191,-430 L-191,-410 L-208,-400 L-225,-410 L-225,-430 L-208,-440 Z" />
<path fill="#D8D388" d="M-156,-430 L-156,-410 L-173,-400 L-191,-410 L-191,-430 L-173,-440 Z" />
<path fill="#D8D388" d="M-121,-430 L-121,-410 L-139,-400 L-156,-410 L-156,-430 L-139,-440 Z" />
<path fill="#4ee055" d="M-87,-430 L-87,-410 L-104,-400 L-121,-410 L-121,-430 L-104,-440 Z" />
<path fill="#D8D388" d="M-52,-430 L-52,-410 L-69,-400 L-87,-410 L-87,-430 L-69,-440 Z" />
<path fill="#D8D388" d="M-17,-430 L-17,-410 L-35,-400 L-52,-410 L-52,-430 L-35,-440 Z" />
<path fill="#4ee055" d="M17,-430 L17,-410 L0,-400 L-17,-410 L-17,-430 L0,-440 Z" />
<path fill="#D8D388" d="M52,-430 L52,-410 L35,-400 L17,-410 L17,-430 L35,-440 Z" />
<path fill="#D8D388" d="M87,-430 L87,-410 L69,-400 L52,-410 L52,-430 L69,-440 Z" />
<path fill="#4ee055" d="M121,-430 L121,-410 L104,-400 L87,-410 L87,-430 L104,-440 Z" />
<path fill="#D8D388" d="M156,-430 L156,-410 L139,-400 L121,-410 L121,-430 L139,-440 Z" />
<path fill="#D8D388" d="M-225,410 L-225,430 L-242,440 L-260,430 L-260,410 L-242,400 Z" />
<path fill="#4ee055" d="M-242,380 L-242,400 L-260,410 L-277,400 L-277,380 L-260,370 Z" />
<path fill="#D8D388" d="M-260,350 L-260,370 L-277,380 L-294,370 L-294,350 L-277,340 Z" />
<path fill="#D8D388" d="M-277,320 L-277,340 L-294,350 L-312,340 L-312,320 L-294,310 Z" />
<path fill="#4ee055" d="M-294,290 L-294,310 L-312,320 L-329,310 L-329,290 L-312,280 Z" />
<path fill="#D8D388" d="M-312,260 L-312,280 L-329,290 L-346,280 L-346,260 L-329,250 Z" />
<path fill="#D8D388" d="M-329,230 L-329,250 L-346,260 L-364,250 L-364,230 L-346,220 Z" />
<path fill="#4ee055" d="M-346,200 L-346,220 L-364,230 L-381,220 L-381,200 L-364,190 Z" />
<path fill="#D8D388" d="M-364,170 L-364,190 L-381,200 L-398,190 L-398,170 L-381,160 Z" />
<path fill="#D8D388" d="M-381,140 L-381,160 L-398,170 L-416,160 L-416,140 L-398,130 Z" />
<path fill="#4ee055" d="M-398,110 L-398,130 L-416,140 L-433,130 L-433,110 L-416,100 Z" />
<path fill="#D8D388" d="M-416,80 L-416,100 L-433,110 L-450,100 L-450,80 L-433,70 Z" />
<path fill="#D8D388" d="M-433,50 L-433,70 L-450,80 L-468,70 L-468,50 L-450,40 Z" />
<path fill="#D8D388" d="M-433,-70 L-433,-50 L-450,-40 L-468,-50 L-468,-70 L-450,-80 Z" />
<path fill="#D8D388" d="M-416,-100 L-416,-80 L-433,-70 L-450,-80 L-450,-100 L-433,-110 Z" />
<path fill="#4ee055" d="M-398,-130 L-398,-110 L-416,-100 L-433,-110 L-433,-130 L-416,-140 Z" />
<path fill="#D8D388" d="M-381,-160 L-381,-140 L-398,-130 L-416,-140 L-416,-160 L-398,-170 Z" />
<path fill="#D8D388" d="M-364,-190 L-364,-170 L-381,-160 L-398,-170 L-398,-190 L-381,-200 Z" />
<path fill="#4ee055" d="M-346,-220 L-346,-200 L-364,-190 L-381,-200 L-381,-220 L-364,-230 Z" />
<path fill="#D8D388" d="M-329,-250 L-329,-230 L-346,-220 L-364,-230 L-364,-250 L-346,-260 Z" />
<path fill="#D8D388" d="M-312,-280 L-312,-260 L-329,-250 L-346,-260 L-346,-280 L-329,-290 Z" />
<path fill="#4ee055" d="M-294,-310 L-294,-290 L-312,-280 L-329,-290 L-329,-310 L-312,-320 Z" />
<path fill="#D8D388" d="M-277,-340 L-277,-320 L-294,-310 L-312,-320 L-312,-340 L-294,-350 Z" />
<path fill="#D8D388" d="M-260,-370 L-260,-350 L-277,-340 L-294,-350 L-294,-370 L-277,-380 Z" />
<path fill="#4ee055" d="M-242,-400 L-242,-380 L-260,-370 L-277,-380 L-277,-400 L-260,-410 Z" />
<path fill="#D8D388" d="M-225,-430 L-225,-410 L-242,-400 L-260,-410 L-260,-430 L-242,-440 Z" />
<path fill="#4ee055" d="M-242,-460 L-242,-440 L-260,-430 L-277,-440 L-277,-460 L-260,-470 Z" />
<path fill="#D8D388" d="M-208,-460 L-208,-440 L-225,-430 L-242,-440 L-242,-460 L-225,-470 Z" />
<path fill="#D8D388" d="M-173,-460 L-173,-440 L-191,-430 L-208,-440 L-208,-460 L-191,-470 Z" />
<path fill="#4ee055" d="M-139,-460 L-139,-440 L-156,-430 L-173,-440 L-173,-460 L-156,-470 Z" />
<path fill="#D8D388" d="M-104,-460 L-104,-440 L-121,-430 L-139,-440 L-139,-460 L-121,-470 Z" />
<path fill="#D8D388" d="M-69,-460 L-69,-440 L-87,-430 L-104,-440 L-104,-460 L-87,-470 Z" />
<path fill="#4ee055" d="M-35,-460 L-35,-440 L-52,-430 L-69,-440 L-69,-460 L-52,-470 Z" />
<path fill="#D8D388" d="M0,-460 L0,-440 L-17,-430 L-35,-440 L-35,-460 L-17,-470 Z" />
<path fill="#D8D388" d="M35,-460 L35,-440 L17,-430 L0,-440 L0,-460 L17,-470 Z" />
<path fill="#4ee055" d="M69,-460 L69,-440 L52,-430 L35,-440 L35,-460 L52,-470 Z" />
<path fill="#D8D388" d="M104,-460 L104,-440 L87,-430 L69,-440 L69,-460 L87,-470 Z" />
<path fill="#D8D388" d="M139,-460 L139,-440 L121,-430 L104,-440 L104,-460 L121,-470 Z" />
<path fill="#4ee055" d="M-242,440 L-242,460 L-260,470 L-277,460 L-277,440 L-260,430 Z" />
<path fill="#D8D388" d="M-260,410 L-260,430 L-277,440 L-294,430 L-294,410 L-277,400 Z" />
<path fill="#D8D388" d="M-277,380 L-277,400 L-294,410 L-312,400 L-312,380 L-294,370 Z" />
<path fill="#4ee055" d="M-294,350 L-294,370 L-312,380 L-329,370 L-329,350 L-312,340 Z" />
<path fill="#D8D388" d="M-312,320 L-312,340 L-329,350 L-346,340 L-346,320 L-329,310 Z" />
<path fill="#D8D388" d="M-329,290 L-329,310 L-346,320 L-364,310 L-364,290 L-346,280 Z" />
<path fill="#4ee055" d="M-346,260 L-346,280 L-364,290 L-381,280 L-381,260 L-364,250 Z" />
<path fill="#D8D388" d="M-364,230 L-364,250 L-381,260 L-398,250 L-398,230 L-381,220 Z" />
<path fill="#D8D388" d="M-381,200 L-381,220 L-398,230 L-416,220 L-416,200 L-398,190 Z" />
<path fill="#4ee055" d="M-398,170 L-398,190 L-416,200 L-433,190 L-433,170 L-416,160 Z" />
<path fill="#D8D388" d="M-416,140 L-416,160 L-433,170 L-450,160 L-450,140 L-433,130 Z" />
<path fill="#D8D388" d="M-433,110 L-433,130 L-450,140 L-468,130 L-468,110 L-450,100 Z" />
<path fill="#D8D388" d="M-433,-130 L-433,-110 L-450,-100 L-468,-110 L-468,-130 L-450,-140 Z" />
<path fill="#D8D388" d="M-416,-160 L-416,-140 L-433,-130 L-450,-140 L-450,-160 L-433,-170 Z" />
<path fill="#4ee055" d="M-398,-190 L-398,-170 L-416,-160 L-433,-170 L-433,-190 L-416,-200 Z" />
<path fill="#D8D388" d="M-381,-220 L-381,-200 L-398,-190 L-416,-200 L-416,-220 L-398,-230 Z" />
<path fill="#D8D388" d="M-364,-250 L-364,-230 L-381,-220 L-398,-230 L-398,-250 L-381,-260 Z" />
<path fill="#4ee055" d="M-346,-280 L-346,-260 L-364,-250 L-381,-260 L-381,-280 L-364,-290 Z" />
<path fill="#D8D388" d="M-329,-310 L-329,-290 L-346,-280 L-364,-290 L-364,-310 L-346,-320 Z" />
<path fill="#D8D388" d="M-312,-340 L-312,-320 L-329,-310 L-346,-320 L-346,-340 L-329,-350 Z" />
<path fill="#4ee055" d="M-294,-370 L-294,-350 L-312,-340 L-329,-350 L-329,-370 L-312,-380 Z" />
<path fill="#D8D388" d="M-277,-400 L-277,-380 L-294,-370 L-312,-380 L-312,-400 L-294,-410 Z" />
<path fill="#D8D388" d="M-260,-430 L-260,-410 L-277,-400 L-294,-410 L-294,-430 L-277,-440 Z" />
<path fill="#4ee055" d="M-242,-460 L-242,-440 L-260,-430 L-277,-440 L-277,-460 L-260,-470 Z" />
<path fill="#D8D388" d="M-260,-490 L-260,-470 L-277,-460 L-294,-470 L-294,-490 L-277,-500 Z" />
<path fill="#D8D388" d="M-225,-490 L-225,-470 L-242,-460 L-260,-470 L-260,-490 L-242,-500 Z" />
<path fill="#4ee055" d="M-191,-490 L-191,-470 L-208,-460 L-225,-470 L-225,-490 L-208,-500 Z" />
<path fill="#D8D388" d="M-156,-490 L-156,-470 L-173,-460 L-191,-470 L-191,-490 L-173,-500 Z" />
<path fill="#D8D388" d="M-121,-490 L-121,-470 L-139,-460 L-156,-470 L-156,-490 L-139,-500 Z" />
<path fill="#4ee055" d="M-87,-490 L-87,-470 L-104,-460 L-121,-470 L-121,-490 L-104,-500 Z" />
<path fill="#D8D388" d="M-52,-490 L-52,-470 L-69,-460 L-87,-470 L-87,-490 L-69,-500 Z" />
<path fill="#D8D388" d="M-17,-490 L-17,-470 L-35,-460 L-52,-470 L-52,-490 L-35,-500 Z" />
<path fill="#4ee055" d="M17,-490 L17,-470 L0,-460 L-17,-470 L-17,-490 L0,-500 Z" />
<path fill="#D8D388" d="M52,-490 L52,-470 L35,-460 L17,-470 L17,-490 L35,-500 Z" />
<path fill="#D8D388" d="M87,-490 L87,-470 L69,-460 L52,-470 L52,-490 L69,-500 Z" />
<path fill="#4ee055" d="M121,-490 L121,-470 L104,-460 L87,-470 L87,-490 L104,-500 Z" />
<path fill="#D8D388" d="M-225,470 L-225,490 L-242,500 L-260,490 L-260,470 L-242,460 Z" />
<path fill="#D8D388" d="M-260,470 L-260,490 L-277,500 L-294,490 L-294,470 L-277,460 Z" />
<path fill="#D8D388" d="M-277,440 L-277,460 L-294,470 L-312,460 L-312,440 L-294,430 Z" />
<path fill="#4ee055" d="M-294,410 L-294,430 L-312,440 L-329,430 L-329,410 L-312,400 Z" />
<path fill="#D8D388" d="M-312,380 L-312,400 L-329,410 L-346,400 L-346,380 L-329,370 Z" />
<path fill="#D8D388" d="M-329,350 L-329,370 L-346,380 L-364,370 L-364,350 L-346,340 Z" />
<path fill="#4ee055" d="M-346,320 L-346,340 L-364,350 L-381,340 L-381,320 L-364,310 Z" />
<path fill="#D8D388" d="M-364,290 L-364,310 L-381,320 L-398,310 L-398,290 L-381,280 Z" />
<path fill="#D8D388" d="M-381,260 L-381,280 L-398,290 L-416,280 L-416,260 L-398,250 Z" />
<path fill="#4ee055" d="M-398,230 L-398,250 L-416,260 L-433,250 L-433,230 L-416,220 Z" />
<path fill="#D8D388" d="M-416,200 L-416,220 L-433,230 L-450,220 L-450,200 L-433,190 Z" />
<path fill="#D8D388" d="M-433,170 L-433,190 L-450,200 L-468,190 L-468,170 L-450,160 Z" />
<path fill="#D8D388" d="M-433,-190 L-433,-170 L-450,-160 L-468,-170 L-468,-190 L-450,-200 Z" />
<path fill="#D8D388" d="M-416,-220 L-416,-200 L-433,-190 L-450,-200 L-450,-220 L-433,-230 Z" />
<path fill="#4ee055" d="M-398,-250 L-398,-230 L-416,-220 L-433,-230 L-433,-250 L-416,-260 Z" />
<path fill="#D8D388" d="M-381,-280 L-381,-260 L-398,-250 L-416,-260 L-416,-280 L-398,-290 Z" />
<path fill="#D8D388" d="M-364,-310 L-364,-290 L-381,-280 L-398,-290 L-398,-310 L-381,-320 Z" />
<path fill="#4ee055" d="M-346,-340 L-346,-320 L-364,-310 L-381,-320 L-381,-340 L-364,-350 Z" />
<path fill="#D8D388" d="M-329,-370 L-329,-350 L-346,-340 L-364,-350 L-364,-370 L-346,-380 Z" />
<path fill="#D8D388" d="M-312,-400 L-312,-380 L-329,-370 L-346,-380 L-346,-400 L-329,-410 Z" />
<path fill="#4ee055" d="M-294,-430 L-294,-410 L-312,-400 L-329,-410 L-329,-430 L-312,-440 Z" />
<path fill="#D8D388" d="M-277,-460 L-277,-440 L-294,-430 L-312,-440 L-312,-460 L-294,-470 Z" />
<path fill="#D8D388" d="M-260,-490 L-260,-470 L-277,-460 L-294,-470 L-294,-490 L-277,-500 Z" />
<path fill="#D8D388" d="M-277,-520 L-277,-500 L-294,-490 L-312,-500 L-312,-520 L-294,-530 Z" />
<path fill="#4ee055" d="M-242,-520 L-242,-500 L-260,-490 L-277,-500 L-277,-520 L-260,-530 Z" />
<path fill="#D8D388" d="M-208,-520 L-208,-500 L-225,-490 L-242,-500 L-242,-520 L-225,-530 Z" />
<path fill="#D8D388" d="M-173,-520 L-173,-500 L-191,-490 L-208,-500 L-208,-520 L-191,-530 Z" />
<path fill="#4ee055" d="M-139,-520 L-139,-500 L-156,-490 L-173,-500 L-173,-520 L-156,-530 Z" />
<path fill="#D8D388" d="M-104,-520 L-104,-500 L-121,-490 L-139,-500 L-139,-520 L-121,-530 Z" />
<path fill="#D8D388" d="M-69,-520 L-69,-500 L-87,-490 L-104,-500 L-104,-520 L-87,-530 Z" />
<path fill="#4ee055" d="M-35,-520 L-35,-500 L-52,-490 L-69,-500 L-69,-520 L-52,-530 Z" />
<path fill="#D8D388" d="M0,-520 L0,-500 L-17,-490 L-35,-500 L-35,-520 L-17,-530 Z" />
<path fill="#D8D388" d="M35,-520 L35,-500 L17,-490 L0,-500 L0,-520 L17,-530 Z" />
<path fill="#4ee055" d="M69,-520 L69,-500 L52,-490 L35,-500 L35,-520 L52,-530 Z" />
<path fill="#D8D388" d="M104,-520 L104,-500 L87,-490 L69,-500 L69,-520 L87,-530 Z" />
<path fill="#4ee055" d="M-242,500 L-242,520 L-260,530 L-277,520 L-277,500 L-260,490 Z" />
<path fill="#D8D388" d="M-277,500 L-277,520 L-294,530 L-312,520 L-312,500 L-294,490 Z" />
<path fill="#4ee055" d="M-294,470 L-294,490 L-312,500 L-329,490 L-329,470 L-312,460 Z" />
<path fill="#D8D388" d="M-312,440 L-312,460 L-329,470 L-346,460 L-346,440 L-329,430 Z" />
<path fill="#D8D388" d="M-329,410 L-329,430 L-346,440 L-364,430 L-364,410 L-346,400 Z" />
<path fill="#4ee055" d="M-346,380 L-346,400 L-364,410 L-381,400 L-381,380 L-364,370 Z" />
<path fill="#D8D388" d="M-364,350 L-364,370 L-381,380 L-398,370 L-398,350 L-381,340 Z" />
<path fill="#D8D388" d="M-381,320 L-381,340 L-398,350 L-416,340 L-416,320 L-398,310 Z" />
<path fill="#4ee055" d="M-398,290 L-398,310 L-416,320 L-433,310 L-433,290 L-416,280 Z" />
<path fill="#D8D388" d="M-416,260 L-416,280 L-433,290 L-450,280 L-450,260 L-433,250 Z" />
<path fill="#D8D388" d="M-433,230 L-433,250 L-450,260 L-468,250 L-468,230 L-450,220 Z" />
<path fill="#D8D388" d="M-433,-250 L-433,-230 L-450,-220 L-468,-230 L-468,-250 L-450,-260 Z" />
<path fill="#D8D388" d="M-416,-280 L-416,-260 L-433,-250 L-450,-260 L-450,-280 L-433,-290 Z" />
<path fill="#4ee055" d="M-398,-310 L-398,-290 L-416,-280 L-433,-290 L-433,-310 L-416,-320 Z" />
<path fill="#D8D388" d="M-381,-340 L-381,-320 L-398,-310 L-416,-320 L-416,-340 L-398,-350 Z" />
<path fill="#D8D388" d="M-364,-370 L-364,-350 L-381,-340 L-398,-350 L-398,-370 L-381,-380 Z" />
<path fill="#4ee055" d="M-346,-400 L-346,-380 L-364,-370 L-381,-380 L-381,-400 L-364,-410 Z" />
<path fill="#D8D388" d="M-329,-430 L-329,-410 L-346,-400 L-364,-410 L-364,-430 L-346,-440 Z" />
<path fill="#D8D388" d="M-312,-460 L-312,-440 L-329,-430 L-346,-440 L-346,-460 L-329,-470 Z" />
<path fill="#4ee055" d="M-294,-490 L-294,-470 L-312,-460 L-329,-470 L-329,-490 L-312,-500 Z" />
<path fill="#D8D388" d="M-277,-520 L-277,-500 L-294,-490 L-312,-500 L-312,-520 L-294,-530 Z" />
<path fill="#4ee055" d="M-294,-550 L-294,-530 L-312,-520 L-329,-530 L-329,-550 L-312,-560 Z" />
<path fill="#D8D388" d="M-260,-550 L-260,-530 L-277,-520 L-294,-530 L-294,-550 L-277,-560 Z" />
<path fill="#D8D388" d="M-225,-550 L-225,-530 L-242,-520 L-260,-530 L-260,-550 L-242,-560 Z" />
<path fill="#4ee055" d="M-191,-550 L-191,-530 L-208,-520 L-225,-530 L-225,-550 L-208,-560 Z" />
<path fill="#D8D388" d="M-156,-550 L-156,-530 L-173,-520 L-191,-530 L-191,-550 L-173,-560 Z" />
<path fill="#D8D388" d="M-121,-550 L-121,-530 L-139,-520 L-156,-530 L-156,-550 L-139,-560 Z" />
<path fill="#4ee055" d="M-87,-550 L-87,-530 L-104,-520 L-121,-530 L-121,-550 L-104,-560 Z" />
<path fill="#D8D388" d="M-52,-550 L-52,-530 L-69,-520 L-87,-530 L-87,-550 L-69,-560 Z" />
<path fill="#D8D388" d="M-17,-550 L-17,-530 L-35,-520 L-52,-530 L-52,-550 L-35,-560 Z" />
<path fill="#4ee055" d="M17,-550 L17,-530 L0,-520 L-17,-530 L-17,-550 L0,-560 Z" />
<path fill="#D8D388" d="M52,-550 L52,-530 L35,-520 L17,-530 L17,-550 L35,-560 Z" />
<path fill="#D8D388" d="M87,-550 L87,-530 L69,-520 L52,-530 L52,-550 L69,-560 Z" />
<path fill="#D8D388" d="M-225,530 L-225,550 L-242,560 L-260,550 L-260,530 L-242,520 Z" />
<path fill="#D8D388" d="M-260,530 L-260,550 L-277,560 L-294,550 L-294,530 L-277,520 Z" />
<path fill="#4ee055" d="M-294,530 L-294,550 L-312,560 L-329,550 L-329,530 L-312,520 Z" />
<path fill="#D8D388" d="M-312,500 L-312,520 L-329,530 L-346,520 L-346,500 L-329,490 Z" />
<path fill="#D8D388" d="M-329,470 L-329,490 L-346,500 L-364,490 L-364,470 L-346,460 Z" />
<path fill="#4ee055" d="M-346,440 L-346,460 L-364,470 L-381,460 L-381,440 L-364,430 Z" />
<path fill="#D8D388" d="M-364,410 L-364,430 L-381,440 L-398,430 L-398,410 L-381,400 Z" />
<path fill="#D8D388" d="M-381,380 L-381,400 L-398,410 L-416,400 L-416,380 L-398,370 Z" />
<path fill="#4ee055" d="M-398,350 L-398,370 L-416,380 L-433,370 L-433,350 L-416,340 Z" />
<path fill="#D8D388" d="M-416,320 L-416,340 L-433,350 L-450,340 L-450,320 L-433,310 Z" />
<path fill="#D8D388" d="M-433,290 L-433,310 L-450,320 L-468,310 L-468,290 L-450,280 Z" />
<path fill="#D8D388" d="M-433,-310 L-433,-290 L-450,-280 L-468,-290 L-468,-310 L-450,-320 Z" />
<path fill="#D8D388" d="M-416,-340 L-416,-320 L-433,-310 L-450,-320 L-450,-340 L-433,-350 Z" />
<path fill="#4ee055" d="M-398,-370 L-398,-350 L-416,-340 L-433,-350 L-433,-370 L-416,-380 Z" />
<path fill="#D8D388" d="M-381,-400 L-381,-380 L-398,-370 L-416,-380 L-416,-400 L-398,-410 Z" />
<path fill="#D8D388" d="M-364,-430 L-364,-410 L-381,-400 L-398,-410 L-398,-430 L-381,-440 Z" />
<path fill="#4ee055" d="M-346,-460 L-346,-440 L-364,-430 L-381,-440 L-381,-460 L-364,-470 Z" />
<path fill="#D8D388" d="M-329,-490 L-329,-470 L-346,-460 L-364,-470 L-364,-490 L-346,-500 Z" />
<path fill="#D8D388" d="M-312,-520 L-312,-500 L-329,-490 L-346,-500 L-346,-520 L-329,-530 Z" />
<path fill="#4ee055" d="M-294,-550 L-294,-530 L-312,-520 L-329,-530 L-329,-550 L-312,-560 Z" />
<path fill="#D8D388" d="M-312,-580 L-312,-560 L-329,-550 L-346,-560 L-346,-580 L-329,-590 Z" />
<path fill="#D8D388" d="M-277,-580 L-277,-560 L-294,-550 L-312,-560 L-312,-580 L-294,-590 Z" />
<path fill="#4ee055" d="M-242,-580 L-242,-560 L-260,-550 L-277,-560 L-277,-580 L-260,-590 Z" />
<path fill="#D8D388" d="M-208,-580 L-208,-560 L-225,-550 L-242,-560 L-242,-580 L-225,-590 Z" />
<path fill="#D8D388" d="M-173,-580 L-173,-560 L-191,-550 L-208,-560 L-208,-580 L-191,-590 Z" />
<path fill="#4ee055" d="M-139,-580 L-139,-560 L-156,-550 L-173,-560 L-173,-580 L-156,-590 Z" />
<path fill="#D8D388" d="M-104,-580 L-104,-560 L-121,-550 L-139,-560 L-139,-580 L-121,-590 Z" />
<path fill="#D8D388" d="M-69,-580 L-69,-560 L-87,-550 L-104,-560 L-104,-580 L-87,-590 Z" />
<path fill="#4ee055" d="M-35,-580 L-35,-560 L-52,-550 L-69,-560 L-69,-580 L-52,-590 Z" />
<path fill="#D8D388" d="M0,-580 L0,-560 L-17,-550 L-35,-560 L-35,-580 L-17,-590 Z" />
<path fill="#D8D388" d="M35,-580 L35,-560 L17,-550 L0,-560 L0,-580 L17,-590 Z" />
<path fill="#4ee055" d="M69,-580 L69,-560 L52,-550 L35,-560 L35,-580 L52,-590 Z" />
<path fill="#D8D388" d="M-329,530 L-329,550 L-346,560 L-364,550 L-364,530 L-346,520 Z" />
<path fill="#4ee055" d="M-346,500 L-346,520 L-364,530 L-381,520 L-381,500 L-364,490 Z" />
<path fill="#D8D388" d="M-364,470 L-364,490 L-381,500 L-398,490 L-398,470 L-381,460 Z" />
<path fill="#D8D388" d="M-381,440 L-381,460 L-398,470 L-416,460 L-416,440 L-398,430 Z" />
<path fill="#4ee055" d="M-398,410 L-398,430 L-416,440 L-433,430 L-433,410 L-416,400 Z" />
<path fill="#D8D388" d="M-416,380 L-416,400 L-433,410 L-450,400 L-450,380 L-433,370 Z" />
<path fill="#D8D388" d="M-433,350 L-433,370 L-450,380 L-468,370 L-468,350 L-450,340 Z" />
<path fill="#D8D388" d="M-433,-370 L-433,-350 L-450,-340 L-468,-350 L-468,-370 L-450,-380 Z" />
<path fill="#D8D388" d="M-416,-400 L-416,-380 L-433,-370 L-450,-380 L-450,-400 L-433,-410 Z" />
<path fill="#4ee055" d="M-398,-430 L-398,-410 L-416,-400 L-433,-410 L-433,-430 L-416,-440 Z" />
<path fill="#D8D388" d="M-381,-460 L-381,-440 L-398,-430 L-416,-440 L-416,-460 L-398,-470 Z" />
<path fill="#D8D388" d="M-364,-490 L-364,-470 L-381,-460 L-398,-470 L-398,-490 L-381,-500 Z" />
<path fill="#4ee055" d="M-346,-520 L-346,-500 L-364,-490 L-381,-500 L-381,-520 L-364,-530 Z" />
<path fill="#D8D388" d="M-329,-550 L-329,-530 L-346,-520 L-364,-530 L-364,-550 L-346,-560 Z" />
<path fill="#D8D388" d="M-312,-580 L-312,-560 L-329,-550 L-346,-560 L-346,-580 L-329,-590 Z" />
<path fill="#D8D388" d="M-329,-610 L-329,-590 L-346,-580 L-364,-590 L-364,-610 L-346,-620 Z" />
<path fill="#4ee055" d="M-294,-610 L-294,-590 L-312,-580 L-329,-590 L-329,-610 L-312,-620 Z" />
<path fill="#D8D388" d="M-260,-610 L-260,-590 L-277,-580 L-294,-590 L-294,-610 L-277,-620 Z" />
<path fill="#D8D388" d="M-225,-610 L-225,-590 L-242,-580 L-260,-590 L-260,-610 L-242,-620 Z" />
<path fill="#4ee055" d="M-191,-610 L-191,-590 L-208,-580 L-225,-590 L-225,-610 L-208,-620 Z" />
<path fill="#D8D388" d="M-156,-610 L-156,-590 L-173,-580 L-191,-590 L-191,-610 L-173,-620 Z" />
<path fill="#D8D388" d="M-121,-610 L-121,-590 L-139,-580 L-156,-590 L-156,-610 L-139,-620 Z" />
<path fill="#4ee055" d="M-87,-610 L-87,-590 L-104,-580 L-121,-590 L-121,-610 L-104,-620 Z" />
<path fill="#D8D388" d="M-52,-610 L-52,-590 L-69,-580 L-87,-590 L-87,-610 L-69,-620 Z" />
<path fill="#D8D388" d="M-17,-610 L-17,-590 L-35,-580 L-52,-590 L-52,-610 L-35,-620 Z" />
<path fill="#4ee055" d="M17,-610 L17,-590 L0,-580 L-17,-590 L-17,-610 L0,-620 Z" />
<path fill="#D8D388" d="M-364,530 L-364,550 L-381,560 L-398,550 L-398,530 L-381,520 Z" />
<path fill="#D8D388" d="M-381,500 L-381,520 L-398,530 L-416,520 L-416,500 L-398,490 Z" />
<path fill="#4ee055" d="M-398,470 L-398,490 L-416,500 L-433,490 L-433,470 L-416,460 Z" />
<path fill="#D8D388" d="M-416,440 L-416,460 L-433,470 L-450,460 L-450,440 L-433,430 Z" />
<path fill="#D8D388" d="M-433,410 L-433,430 L-450,440 L-468,430 L-468,410 L-450,400 Z" />
<path fill="#4ee055" d="M-450,-400 L-450,-380 L-468,-370 L-485,-380 L-485,-400 L-468,-410 Z" />
<path fill="#D8D388" d="M-433,-430 L-433,-410 L-450,-400 L-468,-410 L-468,-430 L-450,-440 Z" />
<path fill="#D8D388" d="M-416,-460 L-416,-440 L-433,-430 L-450,-440 L-450,-460 L-433,-470 Z" />
<path fill="#4ee055" d="M-398,-490 L-398,-470 L-416,-460 L-433,-470 L-433,-490 L-416,-500 Z" />
<path fill="#D8D388" d="M-381,-520 L-381,-500 L-398,-490 L-416,-500 L-416,-520 L-398,-530 Z" />
<path fill="#D8D388" d="M-364,-550 L-364,-530 L-381,-520 L-398,-530 L-398,-550 L-381,-560 Z" />
<path fill="#4ee055" d="M-346,-580 L-346,-560 L-364,-550 L-381,-560 L-381,-580 L-364,-590 Z" />
<path fill="#D8D388" d="M-329,-610 L-329,-590 L-346,-580 L-364,-590 L-364,-610 L-346,-620 Z" />
<path fill="#4ee055" d="M-346,-640 L-346,-620 L-364,-610 L-381,-620 L-381,-640 L-364,-650 Z" />
<path fill="#D8D388" d="M-312,-640 L-312,-620 L-329,-610 L-346,-620 L-346,-640 L-329,-650 Z" />
<path fill="#D8D388" d="M-277,-640 L-277,-620 L-294,-610 L-312,-620 L-312,-640 L-294,-650 Z" />
<path fill="#4ee055" d="M-242,-640 L-242,-620 L-260,-610 L-277,-620 L-277,-640 L-260,-650 Z" />
<path fill="#D8D388" d="M-208,-640 L-208,-620 L-225,-610 L-242,-620 L-242,-640 L-225,-650 Z" />
<path fill="#D8D388" d="M-173,-640 L-173,-620 L-191,-610 L-208,-620 L-208,-640 L-191,-650 Z" />
<path fill="#4ee055" d="M-139,-640 L-139,-620 L-156,-610 L-173,-620 L-173,-640 L-156,-650 Z" />
<path fill="#D8D388" d="M-104,-640 L-104,-620 L-121,-610 L-139,-620 L-139,-640 L-121,-650 Z" />
<path fill="#D8D388" d="M-69,-640 L-69,-620 L-87,-610 L-104,-620 L-104,-640 L-87,-650 Z" />
<path fill="#4ee055" d="M-35,-640 L-35,-620 L-52,-610 L-69,-620 L-69,-640 L-52,-650 Z" />
<path fill="#4ee055" d="M-398,530 L-398,550 L-416,560 L-433,550 L-433,530 L-416,520 Z" />
<path fill="#D8D388" d="M-416,500 L-416,520 L-433,530 L-450,520 L-450,500 L-433,490 Z" />
<path fill="#D8D388" d="M-433,470 L-433,490 L-450,500 L-468,490 L-468,470 L-450,460 Z" />
<path fill="#4ee055" d="M-502,-370 L-502,-350 L-520,-340 L-537,-350 L-537,-370 L-520,-380 Z" />
<path fill="#D8D388" d="M-485,-400 L-485,-380 L-502,-370 L-520,-380 L-520,-400 L-502,-410 Z" />
<path fill="#D8D388" d="M-468,-430 L-468,-410 L-485,-400 L-502,-410 L-502,-430 L-485,-440 Z" />
<path fill="#4ee055" d="M-450,-460 L-450,-440 L-468,-430 L-485,-440 L-485,-460 L-468,-470 Z" />
<path fill="#D8D388" d="M-433,-490 L-433,-470 L-450,-460 L-468,-470 L-468,-490 L-450,-500 Z" />
<path fill="#D8D388" d="M-416,-520 L-416,-500 L-433,-490 L-450,-500 L-450,-520 L-433,-530 Z" />
<path fill="#4ee055" d="M-398,-550 L-398,-530 L-416,-520 L-433,-530 L-433,-550 L-416,-560 Z" />
<path fill="#D8D388" d="M-381,-580 L-381,-560 L-398,-550 L-416,-560 L-416,-580 L-398,-590 Z" />
<path fill="#D8D388" d="M-364,-610 L-364,-590 L-381,-580 L-398,-590 L-398,-610 L-381,-620 Z" />
<path fill="#4ee055" d="M-346,-640 L-346,-620 L-364,-610 L-381,-620 L-381,-640 L-364,-650 Z" />
<path fill="#D8D388" d="M-364,-670 L-364,-650 L-381,-640 L-398,-650 L-398,-670 L-381,-680 Z" />
<path fill="#D8D388" d="M-329,-670 L-329,-650 L-346,-640 L-364,-650 L-364,-670 L-346,-680 Z" />
<path fill="#4ee055" d="M-294,-670 L-294,-650 L-312,-640 L-329,-650 L-329,-670 L-312,-680 Z" />
<path fill="#D8D388" d="M-260,-670 L-260,-650 L-277,-640 L-294,-650 L-294,-670 L-277,-680 Z" />
<path fill="#D8D388" d="M-225,-670 L-225,-650 L-242,-640 L-260,-650 L-260,-670 L-242,-680 Z" />
<path fill="#4ee055" d="M-191,-670 L-191,-650 L-208,-640 L-225,-650 L-225,-670 L-208,-680 Z" />
<path fill="#D8D388" d="M-156,-670 L-156,-650 L-173,-640 L-191,-650 L-191,-670 L-173,-680 Z" />
<path fill="#D8D388" d="M-121,-670 L-121,-650 L-139,-640 L-156,-650 L-156,-670 L-139,-680 Z" />
<path fill="#4ee055" d="M-87,-670 L-87,-650 L-104,-640 L-121,-650 L-121,-670 L-104,-680 Z" />
<path fill="#D8D388" d="M-52,-670 L-52,-650 L-69,-640 L-87,-650 L-87,-670 L-69,-680 Z" />
<path fill="#D8D388" d="M-433,530 L-433,550 L-450,560 L-468,550 L-468,530 L-450,520 Z" />
<path fill="#D8D388" d="M-537,-370 L-537,-350 L-554,-340 L-572,-350 L-572,-370 L-554,-380 Z" />
<path fill="#D8D388" d="M-520,-400 L-520,-380 L-537,-370 L-554,-380 L-554,-400 L-537,-410 Z" />
<path fill="#4ee055" d="M-502,-430 L-502,-410 L-520,-400 L-537,-410 L-537,-430 L-520,-440 Z" />
<path fill="#D8D388" d="M-485,-460 L-485,-440 L-502,-430 L-520,-440 L-520,-460 L-502,-470 Z" />
<path fill="#D8D388" d="M-468,-490 L-468,-470 L-485,-460 L-502,-470 L-502,-490 L-485,-500 Z" />
<path fill="#4ee055" d="M-450,-520 L-450,-500 L-468,-490 L-485,-500 L-485,-520 L-468,-530 Z" />
<path fill="#D8D388" d="M-433,-550 L-433,-530 L-450,-520 L-468,-530 L-468,-550 L-450,-560 Z" />
<path fill="#D8D388" d="M-416,-580 L-416,-560 L-433,-550 L-450,-560 L-450,-580 L-433,-590 Z" />
<path fill="#4ee055" d="M-398,-610 L-398,-590 L-416,-580 L-433,-590 L-433,-610 L-416,-620 Z" />
<path fill="#D8D388" d="M-381,-640 L-381,-620 L-398,-610 L-416,-620 L-416,-640 L-398,-650 Z" />
<path fill="#D8D388" d="M-364,-670 L-364,-650 L-381,-640 L-398,-650 L-398,-670 L-381,-680 Z" />
<path fill="#D8D388" d="M-381,-700 L-381,-680 L-398,-670 L-416,-680 L-416,-700 L-398,-710 Z" />
<path fill="#4ee055" d="M-346,-700 L-346,-680 L-364,-670 L-381,-680 L-381,-700 L-364,-710 Z" />
<path fill="#D8D388" d="M-312,-700 L-312,-680 L-329,-670 L-346,-680 L-346,-700 L-329,-710 Z" />
<path fill="#D8D388" d="M-277,-700 L-277,-680 L-294,-670 L-312,-680 L-312,-700 L-294,-710 Z" />
<path fill="#4ee055" d="M-242,-700 L-242,-680 L-260,-670 L-277,-680 L-277,-700 L-260,-710 Z" />
<path fill="#D8D388" d="M-208,-700 L-208,-680 L-225,-670 L-242,-680 L-242,-700 L-225,-710 Z" />
<path fill="#D8D388" d="M-173,-700 L-173,-680 L-191,-670 L-208,-680 L-208,-700 L-191,-710 Z" />
<path fill="#4ee055" d="M-139,-700 L-139,-680 L-156,-670 L-173,-680 L-173,-700 L-156,-710 Z" />
<path fill="#D8D388" d="M-104,-700 L-104,-680 L-121,-670 L-139,-680 L-139,-700 L-121,-710 Z" />
<path fill="#D8D388" d="M-572,-370 L-572,-350 L-589,-340 L-606,-350 L-606,-370 L-589,-380 Z" />
<path fill="#4ee055" d="M-554,-400 L-554,-380 L-572,-370 L-589,-380 L-589,-400 L-572,-410 Z" />
<path fill="#D8D388" d="M-537,-430 L-537,-410 L-554,-400 L-572,-410 L-572,-430 L-554,-440 Z" />
<path fill="#D8D388" d="M-520,-460 L-520,-440 L-537,-430 L-554,-440 L-554,-460 L-537,-470 Z" />
<path fill="#4ee055" d="M-502,-490 L-502,-470 L-520,-460 L-537,-470 L-537,-490 L-520,-500 Z" />
<path fill="#D8D388" d="M-485,-520 L-485,-500 L-502,-490 L-520,-500 L-520,-520 L-502,-530 Z" />
<path fill="#D8D388" d="M-468,-550 L-468,-530 L-485,-520 L-502,-530 L-502,-550 L-485,-560 Z" />
<path fill="#4ee055" d="M-450,-580 L-450,-560 L-468,-550 L-485,-560 L-485,-580 L-468,-590 Z" />
<path fill="#D8D388" d="M-433,-610 L-433,-590 L-450,-580 L-468,-590 L-468,-610 L-450,-620 Z" />
<path fill="#D8D388" d="M-416,-640 L-416,-620 L-433,-610 L-450,-620 L-450,-640 L-433,-650 Z" />
<path fill="#4ee055" d="M-398,-670 L-398,-650 L-416,-640 L-433,-650 L-433,-670 L-416,-680 Z" />
<path fill="#D8D388" d="M-381,-700 L-381,-680 L-398,-670 L-416,-680 L-416,-700 L-398,-710 Z" />
<path fill="#4ee055" d="M-398,-730 L-398,-710 L-416,-700 L-433,-710 L-433,-730 L-416,-740 Z" />
<path fill="#D8D388" d="M-364,-730 L-364,-710 L-381,-700 L-398,-710 L-398,-730 L-381,-740 Z" />
<path fill="#D8D388" d="M-329,-730 L-329,-710 L-346,-700 L-364,-710 L-364,-730 L-346,-740 Z" />
<path fill="#4ee055" d="M-294,-730 L-294,-710 L-312,-700 L-329,-710 L-329,-730 L-312,-740 Z" />
<path fill="#D8D388" d="M-260,-730 L-260,-710 L-277,-700 L-294,-710 L-294,-730 L-277,-740 Z" />
<path fill="#D8D388" d="M-225,-730 L-225,-710 L-242,-700 L-260,-710 L-260,-730 L-242,-740 Z" />
<path fill="#4ee055" d="M-191,-730 L-191,-710 L-208,-700 L-225,-710 L-225,-730 L-208,-740 Z" />
<path fill="#D8D388" d="M-156,-730 L-156,-710 L-173,-700 L-191,-710 L-191,-730 L-173,-740 Z" />
<path fill="#4ee055" d="M-606,-370 L-606,-350 L-624,-340 L-641,-350 L-641,-370 L-624,-380 Z" />
<path fill="#D8D388" d="M-589,-400 L-589,-380 L-606,-370 L-624,-380 L-624,-400 L-606,-410 Z" />
<path fill="#D8D388" d="M-572,-430 L-572,-410 L-589,-400 L-606,-410 L-606,-430 L-589,-440 Z" />
<path fill="#4ee055" d="M-554,-460 L-554,-440 L-572,-430 L-589,-440 L-589,-460 L-572,-470 Z" />
<path fill="#D8D388" d="M-537,-490 L-537,-470 L-554,-460 L-572,-470 L-572,-490 L-554,-500 Z" />
<path fill="#D8D388" d="M-520,-520 L-520,-500 L-537,-490 L-554,-500 L-554,-520 L-537,-530 Z" />
<path fill="#4ee055" d="M-502,-550 L-502,-530 L-520,-520 L-537,-530 L-537,-550 L-520,-560 Z" />
<path fill="#D8D388" d="M-485,-580 L-485,-560 L-502,-550 L-520,-560 L-520,-580 L-502,-590 Z" />
<path fill="#D8D388" d="M-468,-610 L-468,-590 L-485,-580 L-502,-590 L-502,-610 L-485,-620 Z" />
<path fill="#4ee055" d="M-450,-640 L-450,-620 L-468,-610 L-485,-620 L-485,-640 L-468,-650 Z" />
<path fill="#D8D388" d="M-433,-670 L-433,-650 L-450,-640 L-468,-650 L-468,-670 L-450,-680 Z" />
<path fill="#D8D388" d="M-416,-700 L-416,-680 L-433,-670 L-450,-680 L-450,-700 L-433,-710 Z" />
<path fill="#4ee055" d="M-398,-730 L-398,-710 L-416,-700 L-433,-710 L-433,-730 L-416,-740 Z" />
<path fill="#D8D388" d="M-641,-370 L-641,-350 L-658,-340 L-675,-350 L-675,-370 L-658,-380 Z" />
<path fill="#D8D388" d="M-624,-400 L-624,-380 L-641,-370 L-658,-380 L-658,-400 L-641,-410 Z" />
<path fill="#4ee055" d="M-606,-430 L-606,-410 L-624,-400 L-641,-410 L-641,-430 L-624,-440 Z" />
<path fill="#D8D388" d="M-589,-460 L-589,-440 L-606,-430 L-624,-440 L-624,-460 L-606,-470 Z" />
<path fill="#D8D388" d="M-572,-490 L-572,-470 L-589,-460 L-606,-470 L-606,-490 L-589,-500 Z" />
<path fill="#4ee055" d="M-554,-520 L-554,-500 L-572,-490 L-589,-500 L-589,-520 L-572,-530 Z" />
<path fill="#D8D388" d="M-537,-550 L-537,-530 L-554,-520 L-572,-530 L-572,-550 L-554,-560 Z" />
<path fill="#D8D388" d="M-520,-580 L-520,-560 L-537,-550 L-554,-560 L-554,-580 L-537,-590 Z" />
<path fill="#4ee055" d="M-502,-610 L-502,-590 L-520,-580 L-537,-590 L-537,-610 L-520,-620 Z" />
<path fill="#D8D388" d="M-485,-640 L-485,-620 L-502,-610 L-520,-620 L-520,-640 L-502,-650 Z" />
<path fill="#D8D388" d="M-468,-670 L-468,-650 L-485,-640 L-502,-650 L-502,-670 L-485,-680 Z" />
<path fill="#4ee055" d="M-450,-700 L-450,-680 L-468,-670 L-485,-680 L-485,-700 L-468,-710 Z" />
<path fill="#D8D388" d="M-433,-730 L-433,-710 L-450,-700 L-468,-710 L-468,-730 L-450,-740 Z" />
<path fill="#D8D388" d="M-675,-370 L-675,-350 L-693,-340 L-710,-350 L-710,-370 L-693,-380 Z" />
<path fill="#4ee055" d="M-658,-400 L-658,-380 L-675,-370 L-693,-380 L-693,-400 L-675,-410 Z" />
<path fill="#D8D388" d="M-641,-430 L-641,-410 L-658,-400 L-675,-410 L-675,-430 L-658,-440 Z" />
<path fill="#D8D388" d="M-624,-460 L-624,-440 L-641,-430 L-658,-440 L-658,-460 L-641,-470 Z" />
<path fill="#4ee055" d="M-606,-490 L-606,-470 L-624,-460 L-641,-470 L-641,-490 L-624,-500 Z" />
<path fill="#D8D388" d="M-589,-520 L-589,-500 L-606,-490 L-624,-500 L-624,-520 L-606,-530 Z" />
<path fill="#D8D388" d="M-572,-550 L-572,-530 L-589,-520 L-606,-530 L-606,-550 L-589,-560 Z" />
<path fill="#4ee055" d="M-554,-580 L-554,-560 L-572,-550 L-589,-560 L-589,-580 L-572,-590 Z" />
<path fill="#D8D388" d="M-537,-610 L-537,-590 L-554,-580 L-572,-590 L-572,-610 L-554,-620 Z" />
<path fill="#D8D388" d="M-520,-640 L-520,-620 L-537,-610 L-554,-620 L-554,-640 L-537,-650 Z" />
<path fill="#4ee055" d="M-502,-670 L-502,-650 L-520,-640 L-537,-650 L-537,-670 L-520,-680 Z" />
<path fill="#D8D388" d="M-485,-700 L-485,-680 L-502,-670 L-520,-680 L-520,-700 L-502,-710 Z" />
<path fill="#D8D388" d="M-468,-730 L-468,-710 L-485,-700 L-502,-710 L-502,-730 L-485,-740 Z" />
<path fill="#4ee055" d="M-710,-370 L-710,-350 L-727,-340 L-745,-350 L-745,-370 L-727,-380 Z" />
<path fill="#D8D388" d="M-693,-400 L-693,-380 L-710,-370 L-727,-380 L-727,-400 L-710,-410 Z" />
<path fill="#D8D388" d="M-675,-430 L-675,-410 L-693,-400 L-710,-410 L-710,-430 L-693,-440 Z" />
<path fill="#4ee055" d="M-658,-460 L-658,-440 L-675,-430 L-693,-440 L-693,-460 L-675,-470 Z" />
<path fill="#D8D388" d="M-641,-490 L-641,-470 L-658,-460 L-675,-470 L-675,-490 L-658,-500 Z" />
<path fill="#D8D388" d="M-624,-520 L-624,-500 L-641,-490 L-658,-500 L-658,-520 L-641,-530 Z" />
<path fill="#4ee055" d="M-606,-550 L-606,-530 L-624,-520 L-641,-530 L-641,-550 L-624,-560 Z" />
<path fill="#D8D388" d="M-589,-580 L-589,-560 L-606,-550 L-624,-560 L-624,-580 L-606,-590 Z" />
<path fill="#D8D388" d="M-572,-610 L-572,-590 L-589,-580 L-606,-590 L-606,-610 L-589,-620 Z" />
<path fill="#4ee055" d="M-554,-640 L-554,-620 L-572,-610 L-589,-620 L-589,-640 L-572,-650 Z" />
<path fill="#D8D388" d="M-537,-670 L-537,-650 L-554,-640 L-572,-650 L-572,-670 L-554,-680 Z" />
<path fill="#D8D388" d="M-520,-700 L-520,-680 L-537,-670 L-554,-680 L-554,-700 L-537,-710 Z" />
<path fill="#4ee055" d="M-502,-730 L-502,-710 L-520,-700 L-537,-710 L-537,-730 L-520,-740 Z" />
<path fill="#4ee055" d="M-710,-430 L-710,-410 L-727,-400 L-745,-410 L-745,-430 L-727,-440 Z" />
<path fill="#D8D388" d="M-693,-460 L-693,-440 L-710,-430 L-727,-440 L-727,-460 L-710,-470 Z" />
<path fill="#D8D388" d="M-675,-490 L-675,-470 L-693,-460 L-710,-470 L-710,-490 L-693,-500 Z" />
<path fill="#4ee055" d="M-658,-520 L-658,-500 L-675,-490 L-693,-500 L-693,-520 L-675,-530 Z" />
<path fill="#D8D388" d="M-641,-550 L-641,-530 L-658,-520 L-675,-530 L-675,-550 L-658,-560 Z" />
<path fill="#D8D388" d="M-624,-580 L-624,-560 L-641,-550 L-658,-560 L-658,-580 L-641,-590 Z" />
<path fill="#4ee055" d="M-606,-610 L-606,-590 L-624,-580 L-641,-590 L-641,-610 L-624,-620 Z" />
<path fill="#D8D388" d="M-589,-640 L-589,-620 L-606,-610 L-624,-620 L-624,-640 L-606,-650 Z" />
<path fill="#D8D388" d="M-572,-670 L-572,-650 L-589,-640 L-606,-650 L-606,-670 L-589,-680 Z" />
<path fill="#4ee055" d="M-554,-700 L-554,-680 L-572,-670 L-589,-680 L-589,-700 L-572,-710 Z" />
<path fill="#D8D388" d="M-537,-730 L-537,-710 L-554,-700 L-572,-710 L-572,-730 L-554,-740 Z" />
<path fill="#D8D388" d="M-520,-760 L-520,-740 L-537,-730 L-554,-740 L-554,-760 L-537,-770 Z" />
<path fill="#4ee055" d="M-502,-790 L-502,-770 L-520,-760 L-537,-770 L-537,-790 L-520,-800 Z" />
<path fill="#4ee055" d="M-710,-490 L-710,-470 L-727,-460 L-745,-470 L-745,-490 L-727,-500 Z" />
<path fill="#D8D388" d="M-693,-520 L-693,-500 L-710,-490 L-727,-500 L-727,-520 L-710,-530 Z" />
<path fill="#D8D388" d="M-675,-550 L-675,-530 L-693,-520 L-710,-530 L-710,-550 L-693,-560 Z" />
<path fill="#4ee055" d="M-658,-580 L-658,-560 L-675,-550 L-693,-560 L-693,-580 L-675,-590 Z" />
<path fill="#D8D388" d="M-641,-610 L-641,-590 L-658,-580 L-675,-590 L-675,-610 L-658,-620 Z" />
<path fill="#D8D388" d="M-624,-640 L-624,-620 L-641,-610 L-658,-620 L-658,-640 L-641,-650 Z" />
<path fill="#4ee055" d="M-606,-670 L-606,-650 L-624,-640 L-641,-650 L-641,-670 L-624,-680 Z" />
<path fill="#D8D388" d="M-589,-700 L-589,-680 L-606,-670 L-624,-680 L-624,-700 L-606,-710 Z" />
<path fill="#D8D388" d="M-572,-730 L-572,-710 L-589,-700 L-606,-710 L-606,-730 L-589,-740 Z" />
<path fill="#4ee055" d="M-554,-760 L-554,-740 L-572,-730 L-589,-740 L-589,-760 L-572,-770 Z" />
<path fill="#D8D388" d="M-537,-790 L-537,-770 L-554,-760 L-572,-770 L-572,-790 L-554,-800 Z" />
<path fill="#4ee055" d="M-710,-550 L-710,-530 L-727,-520 L-745,-530 L-745,-550 L-727,-560 Z" />
<path fill="#D8D388" d="M-693,-580 L-693,-560 L-710,-550 L-727,-560 L-727,-580 L-710,-590 Z" />
<path fill="#D8D388" d="M-675,-610 L-675,-590 L-693,-580 L-710,-590 L-710,-610 L-693,-620 Z" />
<path fill="#4ee055" d="M-658,-640 L-658,-620 L-675,-610 L-693,-620 L-693,-640 L-675,-650 Z" />
<path fill="#D8D388" d="M-641,-670 L-641,-650 L-658,-640 L-675,-650 L-675,-670 L-658,-680 Z" />
<path fill="#D8D388" d="M-624,-700 L-624,-680 L-641,-670 L-658,-680 L-658,-700 L-641,-710 Z" />
<path fill="#4ee055" d="M-606,-730 L-606,-710 L-624,-700 L-641,-710 L-641,-730 L-624,-740 Z" />
<path fill="#D8D388" d="M-589,-760 L-589,-740 L-606,-730 L-624,-740 L-624,-760 L-606,-770 Z" />
<path fill="#D8D388" d="M-572,-790 L-572,-770 L-589,-760 L-606,-770 L-606,-790 L-589,-800 Z" />
<path fill="#4ee055" d="M-710,-610 L-710,-590 L-727,-580 L-745,-590 L-745,-610 L-727,-620 Z" />
<path fill="#D8D388" d="M-693,-640 L-693,-620 L-710,-610 L-727,-620 L-727,-640 L-710,-650 Z" />
<path fill="#D8D388" d="M-675,-670 L-675,-650 L-693,-640 L-710,-650 L-710,-670 L-693,-680 Z" />
<path fill="#4ee055" d="M-658,-700 L-658,-680 L-675,-670 L-693,-680 L-693,-700 L-675,-710 Z" />
<path fill="#D8D388" d="M-641,-730 L-641,-710 L-658,-700 L-675,-710 L-675,-730 L-658,-740 Z" />
<path fill="#D8D388" d="M-624,-760 L-624,-740 L-641,-730 L-658,-740 L-658,-760 L-641,-770 Z" />
<path fill="#4ee055" d="M-606,-790 L-606,-770 L-624,-760 L-641,-770 L-641,-790 L-624,-800 Z" />
</g>
</svg>