<?xml version="1.0" encoding="utf-8"?>
<svg viewBox="-354.2043901478354 -368.5 933.5753852796248 1067.0" preserveAspectRatio="xMidYMid meet" version="1.1" baseProfile="full" xmlns="http://www.w3.org/2000/svg" style="background-color: black;">
<g style="stroke:#ffffff; stroke-width: 1; stroke-linejoin: round;">
<path fill="#4ee055" d="M17,-10 L17,10 L0,20 L-17,10 L-17,-10 L0,-20 Z" />
<path fill="#D8D388" d="M0,-40 L0,-20 L-17,-10 L-35,-20 L-35,-40 L-17,-50 Z" />
<path fill="#D8D388" d="M35,-40 L35,-20 L17,-10 L0,-20 L0,-40 L17,-50 Z" />
<path fill="#D8D388" d="M52,-10 L52,10 L35,20 L17,10 L17,-10 L35,-20 Z" />
<path fill="#D8D388" d="M35,20 L35,40 L17,50 L0,40 L0,20 L17,10 Z" />
<path fill="#D8D388" d="M0,20 L0,40 L-17,50 L-35,40 L-35,20 L-17,10 Z" />
<path fill="#D8D388" d="M-17,-10 L-17,10 L-35,20 L-52,10 L-52,-10 L-35,-20 Z" />
<path fill="#D8D388" d="M0,-40 L0,-20 L-17,-10 L-35,-20 L-35,-40 L-17,-50 Z" />
<path fill="#D8D388" d="M-17,-70 L-17,-50 L-35,-40 L-52,-50 L-52,-70 L-35,-80 Z" />
<path fill="#4ee055" d="M17,-70 L17,-50 L0,-40 L-17,-50 L-17,-70 L0,-80 Z" />
<path fill="#D8D388" d="M52,-70 L52,-50 L35,-40 L17,-50 L17,-70 L35,-80 Z" />
<path fill="#4ee055" d="M69,-40 L69,-20 L52,-10 L35,-20 L35,-40 L52,-50 Z" />
<path fill="#D8D388" d="M87,-10 L87,10 L69,20 L52,10 L52,-10 L69,-20 Z" />
<path fill="#4ee055" d="M69,20 L69,40 L52,50 L35,40 L35,20 L52,10 Z" />
<path fill="#D8D388" d="M52,50 L52,70 L35,80 L17,70 L17,50 L35,40 Z" />
<path fill="#4ee055" d="M17,50 L17,70 L0,80 L-17,70 L-17,50 L0,40 Z" />
<path fill="#D8D388" d="M-17,50 L-17,70 L-35,80 L-52,70 L-52,50 L-35,40 Z" />
<path fill="#4ee055" d="M-35,20 L-35,40 L-52,50 L-69,40 L-69,20 L-52,10 Z" />
<path fill="#D8D388" d="M-52,-10 L-52,10 L-69,20 L-87,10 L-87,-10 L-69,-20 Z" />
<path fill="#4ee055" d="M-35,-40 L-35,-20 L-52,-10 L-69,-20 L-69,-40 L-52,-50 Z" />
<path fill="#D8D388" d="M-17,-70 L-17,-50 L-35,-40 L-52,-50 L-52,-70 L-35,-80 Z" />
<path fill="#4ee055" d="M-35,-100 L-35,-80 L-52,-70 L-69,-80 L-69,-100 L-52,-110 Z" />
<path fill="#D8D388" d="M0,-100 L0,-80 L-17,-70 L-35,-80 L-35,-100 L-17,-110 Z" />
<path fill="#D8D388" d="M35,-100 L35,-80 L17,-70 L0,-80 L0,-100 L17,-110 Z" />
<path fill="#4ee055" d="M69,-100 L69,-80 L52,-70 L35,-80 L35,-100 L52,-110 Z" />
<path fill="#D8D388" d="M87,-70 L87,-50 L69,-40 L52,-50 L52,-70 L69,-80 Z" />
<path fill="#D8D388" d="M104,-40 L104,-20 L87,-10 L69,-20 L69,-40 L87,-50 Z" />
<path fill="#4ee055" d="M121,-10 L121,10 L104,20 L87,10 L87,-10 L104,-20 Z" />
<path fill="#D8D388" d="M104,20 L104,40 L87,50 L69,40 L69,20 L87,10 Z" />
<path fill="#D8D388" d="M87,50 L87,70 L69,80 L52,70 L52,50 L69,40 Z" />
<path fill="#4ee055" d="M69,80 L69,100 L52,110 L35,100 L35,80 L52,70 Z" />
<path fill="#D8D388" d="M35,80 L35,100 L17,110 L0,100 L0,80 L17,70 Z" />
<path fill="#D8D388" d="M0,80 L0,100 L-17,110 L-35,100 L-35,80 L-17,70 Z" />
<path fill="#4ee055" d="M-35,80 L-35,100 L-52,110 L-69,100 L-69,80 L-52,70 Z" />
<path fill="#D8D388" d="M-52,50 L-52,70 L-69,80 L-87,70 L-87,50 L-69,40 Z" />
<path fill="#D8D388" d="M-69,20 L-69,40 L-87,50 L-104,40 L-104,20 L-87,10 Z" />
<path fill="#4ee055" d="M-87,-10 L-87,10 L-104,20 L-121,10 L-121,-10 L-104,-20 Z" />
<path fill="#D8D388" d="M-69,-40 L-69,-20 L-87,-10 L-104,-20 L-104,-40 L-87,-50 Z" />
<path fill="#D8D388" d="M-52,-70 L-52,-50 L-69,-40 L-87,-50 L-87,-70 L-69,-80 Z" />
<path fill="#4ee055" d="M-35,-100 L-35,-80 L-52,-70 L-69,-80 L-69,-100 L-52,-110 Z" />
<path fill="#D8D388" d="M-52,-130 L-52,-110 L-69,-100 L-87,-110 L-87,-130 L-69,-140 Z" />
<path fill="#D8D388" d="M-17,-130 L-17,-110 L-35,-100 L-52,-110 L-52,-130 L-35,-140 Z" />
<path fill="#4ee055" d="M17,-130 L17,-110 L0,-100 L-17,-110 L-17,-130 L0,-140 Z" />
<path fill="#D8D388" d="M52,-130 L52,-110 L35,-100 L17,-110 L17,-130 L35,-140 Z" />
<path fill="#D8D388" d="M87,-130 L87,-110 L69,-100 L52,-110 L52,-130 L69,-140 Z" />
<path fill="#D8D388" d="M104,-100 L104,-80 L87,-70 L69,-80 L69,-100 L87,-110 Z" />
<path fill="#4ee055" d="M121,-70 L121,-50 L104,-40 L87,-50 L87,-70 L104,-80 Z" />
<path fill="#D8D388" d="M139,-40 L139,-20 L121,-10 L104,-20 L104,-40 L121,-50 Z" />
<path fill="#D8D388" d="M156,-10 L156,10 L139,20 L121,10 L121,-10 L139,-20 Z" />
<path fill="#D8D388" d="M139,20 L139,40 L121,50 L104,40 L104,20 L121,10 Z" />
<path fill="#4ee055" d="M121,50 L121,70 L104,80 L87,70 L87,50 L104,40 Z" />
<path fill="#D8D388" d="M104,80 L104,100 L87,110 L69,100 L69,80 L87,70 Z" />
<path fill="#D8D388" d="M87,110 L87,130 L69,140 L52,130 L52,110 L69,100 Z" />
<path fill="#D8D388" d="M52,110 L52,130 L35,140 L17,130 L17,110 L35,100 Z" />
<path fill="#4ee055" d="M17,110 L17,130 L0,140 L-17,130 L-17,110 L0,100 Z" />
<path fill="#D8D388" d="M-17,110 L-17,130 L-35,140 L-52,130 L-52,110 L-35,100 Z" />
<path fill="#D8D388" d="M-52,110 L-52,130 L-69,140 L-87,130 L-87,110 L-69,100 Z" />
<path fill="#D8D388" d="M-69,80 L-69,100 L-87,110 L-104,100 L-104,80 L-87,70 Z" />
<path fill="#4ee055" d="M-87,50 L-87,70 L-104,80 L-121,70 L-121,50 L-104,40 Z" />
<path fill="#D8D388" d="M-104,20 L-104,40 L-121,50 L-139,40 L-139,20 L-121,10 Z" />
<path fill="#D8D388" d="M-121,-10 L-121,10 L-139,20 L-156,10 L-156,-10 L-139,-20 Z" />
<path fill="#D8D388" d="M-104,-40 L-104,-20 L-121,-10 L-139,-20 L-139,-40 L-121,-50 Z" />
<path fill="#4ee055" d="M-87,-70 L-87,-50 L-104,-40 L-121,-50 L-121,-70 L-104,-80 Z" />
<path fill="#D8D388" d="M-69,-100 L-69,-80 L-87,-70 L-104,-80 L-104,-100 L-87,-110 Z" />
<path fill="#D8D388" d="M-52,-130 L-52,-110 L-69,-100 L-87,-110 L-87,-130 L-69,-140 Z" />
<path fill="#D8D388" d="M-69,-160 L-69,-140 L-87,-130 L-104,-140 L-104,-160 L-87,-170 Z" />
<path fill="#4ee055" d="M-35,-160 L-35,-140 L-52,-130 L-69,-140 L-69,-160 L-52,-170 Z" />
<path fill="#D8D388" d="M0,-160 L0,-140 L-17,-130 L-35,-140 L-35,-160 L-17,-170 Z" />
<path fill="#D8D388" d="M35,-160 L35,-140 L17,-130 L0,-140 L0,-160 L17,-170 Z" />
<path fill="#4ee055" d="M69,-160 L69,-140 L52,-130 L35,-140 L35,-160 L52,-170 Z" />
<path fill="#D8D388" d="M104,-160 L104,-140 L87,-130 L69,-140 L69,-160 L87,-170 Z" />
<path fill="#4ee055" d="M121,-130 L121,-110 L104,-100 L87,-110 L87,-130 L104,-140 Z" />
<path fill="#D8D388" d="M139,-100 L139,-80 L121,-70 L104,-80 L104,-100 L121,-110 Z" />
<path fill="#D8D388" d="M156,-70 L156,-50 L139,-40 L121,-50 L121,-70 L139,-80 Z" />
<path fill="#4ee055" d="M173,-40 L173,-20 L156,-10 L139,-20 L139,-40 L156,-50 Z" />
<path fill="#D8D388" d="M191,-10 L191,10 L173,20 L156,10 L156,-10 L173,-20 Z" />
<path fill="#4ee055" d="M173,20 L173,40 L156,50 L139,40 L139,20 L156,10 Z" />
<path fill="#D8D388" d="M156,50 L156,70 L139,80 L121,70 L121,50 L139,40 Z" />
<path fill="#D8D388" d="M139,80 L139,100 L121,110 L104,100 L104,80 L121,70 Z" />
<path fill="#4ee055" d="M121,110 L121,130 L104,140 L87,130 L87,110 L104,100 Z" />
<path fill="#D8D388" d="M104,140 L104,160 L87,170 L69,160 L69,140 L87,130 Z" />
<path fill="#4ee055" d="M69,140 L69,160 L52,170 L35,160 L35,140 L52,130 Z" />
<path fill="#D8D388" d="M35,140 L35,160 L17,170 L0,160 L0,140 L17,130 Z" />
<path fill="#D8D388" d="M0,140 L0,160 L-17,170 L-35,160 L-35,140 L-17,130 Z" />
<path fill="#4ee055" d="M-35,140 L-35,160 L-52,170 L-69,160 L-69,140 L-52,130 Z" />
<path fill="#4ee055" d="M-87,110 L-87,130 L-104,140 L-121,130 L-121,110 L-104,100 Z" />
<path fill="#D8D388" d="M-104,80 L-104,100 L-121,110 L-139,100 L-139,80 L-121,70 Z" />
<path fill="#D8D388" d="M-121,50 L-121,70 L-139,80 L-156,70 L-156,50 L-139,40 Z" />
<path fill="#4ee055" d="M-139,20 L-139,40 L-156,50 L-173,40 L-173,20 L-156,10 Z" />
<path fill="#D8D388" d="M-156,-10 L-156,10 L-173,20 L-191,10 L-191,-10 L-173,-20 Z" />
<path fill="#4ee055" d="M-139,-40 L-139,-20 L-156,-10 L-173,-20 L-173,-40 L-156,-50 Z" />
<path fill="#D8D388" d="M-121,-70 L-121,-50 L-139,-40 L-156,-50 L-156,-70 L-139,-80 Z" />
<path fill="#D8D388" d="M-104,-100 L-104,-80 L-121,-70 L-139,-80 L-139,-100 L-121,-110 Z" />
<path fill="#4ee055" d="M-87,-130 L-87,-110 L-104,-100 L-121,-110 L-121,-130 L-104,-140 Z" />
<path fill="#D8D388" d="M-69,-160 L-69,-140 L-87,-130 L-104,-140 L-104,-160 L-87,-170 Z" />
<path fill="#4ee055" d="M-87,-190 L-87,-170 L-104,-160 L-121,-170 L-121,-190 L-104,-200 Z" />
<path fill="#D8D388" d="M-52,-190 L-52,-170 L-69,-160 L-87,-170 L-87,-190 L-69,-200 Z" />
<path fill="#D8D388" d="M-17,-190 L-17,-170 L-35,-160 L-52,-170 L-52,-190 L-35,-200 Z" />
<path fill="#4ee055" d="M17,-190 L17,-170 L0,-160 L-17,-170 L-17,-190 L0,-200 Z" />
<path fill="#D8D388" d="M52,-190 L52,-170 L35,-160 L17,-170 L17,-190 L35,-200 Z" />
<path fill="#D8D388" d="M87,-190 L87,-170 L69,-160 L52,-170 L52,-190 L69,-200 Z" />
<path fill="#4ee055" d="M121,-190 L121,-170 L104,-160 L87,-170 L87,-190 L104,-200 Z" />
<path fill="#D8D388" d="M139,-160 L139,-140 L121,-130 L104,-140 L104,-160 L121,-170 Z" />
<path fill="#D8D388" d="M156,-130 L156,-110 L139,-100 L121,-110 L121,-130 L139,-140 Z" />
<path fill="#4ee055" d="M173,-100 L173,-80 L156,-70 L139,-80 L139,-100 L156,-110 Z" />
<path fill="#D8D388" d="M191,-70 L191,-50 L173,-40 L156,-50 L156,-70 L173,-80 Z" />
<path fill="#D8D388" d="M208,-40 L208,-20 L191,-10 L173,-20 L173,-40 L191,-50 Z" />
<path fill="#4ee055" d="M225,-10 L225,10 L208,20 L191,10 L191,-10 L208,-20 Z" />
<path fill="#D8D388" d="M208,20 L208,40 L191,50 L173,40 L173,20 L191,10 Z" />
<path fill="#D8D388" d="M191,50 L191,70 L173,80 L156,70 L156,50 L173,40 Z" />
<path fill="#4ee055" d="M173,80 L173,100 L156,110 L139,100 L139,80 L156,70 Z" />
<path fill="#D8D388" d="M156,110 L156,130 L139,140 L121,130 L121,110 L139,100 Z" />
<path fill="#D8D388" d="M139,140 L139,160 L121,170 L104,160 L104,140 L121,130 Z" />
<path fill="#4ee055" d="M121,170 L121,190 L104,200 L87,190 L87,170 L104,160 Z" />
<path fill="#D8D388" d="M87,170 L87,190 L69,200 L52,190 L52,170 L69,160 Z" />
<path fill="#D8D388" d="M52,170 L52,190 L35,200 L17,190 L17,170 L35,160 Z" />
<path fill="#4ee055" d="M17,170 L17,190 L0,200 L-17,190 L-17,170 L0,160 Z" />
<path fill="#4ee055" d="M-139,80 L-139,100 L-156,110 L-173,100 L-173,80 L-156,70 Z" />
<path fill="#D8D388" d="M-156,50 L-156,70 L-173,80 L-191,70 L-191,50 L-173,40 Z" />
<path fill="#D8D388" d="M-173,20 L-173,40 L-191,50 L-208,40 L-208,20 L-191,10 Z" />
<path fill="#4ee055" d="M-191,-10 L-191,10 L-208,20 L-225,10 L-225,-10 L-208,-20 Z" />
<path fill="#D8D388" d="M-173,-40 L-173,-20 L-191,-10 L-208,-20 L-208,-40 L-191,-50 Z" />
<path fill="#D8D388" d="M-156,-70 L-156,-50 L-173,-40 L-191,-50 L-191,-70 L-173,-80 Z" />
<path fill="#4ee055" d="M-139,-100 L-139,-80 L-156,-70 L-173,-80 L-173,-100 L-156,-110 Z" />
<path fill="#D8D388" d="M-121,-130 L-121,-110 L-139,-100 L-156,-110 L-156,-130 L-139,-140 Z" />
<path fill="#D8D388" d="M-104,-160 L-104,-140 L-121,-130 L-139,-140 L-139,-160 L-121,-170 Z" />
<path fill="#4ee055" d="M-87,-190 L-87,-170 L-104,-160 L-121,-170 L-121,-190 L-104,-200 Z" />
<path fill="#D8D388" d="M-104,-220 L-104,-200 L-121,-190 L-139,-200 L-139,-220 L-121,-230 Z" />
<path fill="#D8D388" d="M-69,-220 L-69,-200 L-87,-190 L-104,-200 L-104,-220 L-87,-230 Z" />
<path fill="#4ee055" d="M-35,-220 L-35,-200 L-52,-190 L-69,-200 L-69,-220 L-52,-230 Z" />
<path fill="#D8D388" d="M0,-220 L0,-200 L-17,-190 L-35,-200 L-35,-220 L-17,-230 Z" />
<path fill="#D8D388" d="M35,-220 L35,-200 L17,-190 L0,-200 L0,-220 L17,-230 Z" />
<path fill="#4ee055" d="M69,-220 L69,-200 L52,-190 L35,-200 L35,-220 L52,-230 Z" />
<path fill="#D8D388" d="M104,-220 L104,-200 L87,-190 L69,-200 L69,-220 L87,-230 Z" />
<path fill="#D8D388" d="M139,-220 L139,-200 L121,-190 L104,-200 L104,-220 L121,-230 Z" />
<path fill="#D8D388" d="M156,-190 L156,-170 L139,-160 L121,-170 L121,-190 L139,-200 Z" />
<path fill="#4ee055" d="M173,-160 L173,-140 L156,-130 L139,-140 L139,-160 L156,-170 Z" />
<path fill="#D8D388" d="M191,-130 L191,-110 L173,-100 L156,-110 L156,-130 L173,-140 Z" />
<path fill="#D8D388" d="M208,-100 L208,-80 L191,-70 L173,-80 L173,-100 L191,-110 Z" />
<path fill="#4ee055" d="M225,-70 L225,-50 L208,-40 L191,-50 L191,-70 L208,-80 Z" />
<path fill="#D8D388" d="M242,-40 L242,-20 L225,-10 L208,-20 L208,-40 L225,-50 Z" />
<path fill="#D8D388" d="M260,-10 L260,10 L242,20 L225,10 L225,-10 L242,-20 Z" />
<path fill="#D8D388" d="M242,20 L242,40 L225,50 L208,40 L208,20 L225,10 Z" />
<path fill="#4ee055" d="M225,50 L225,70 L208,80 L191,70 L191,50 L208,40 Z" />
<path fill="#D8D388" d="M208,80 L208,100 L191,110 L173,100 L173,80 L191,70 Z" />
<path fill="#D8D388" d="M191,110 L191,130 L173,140 L156,130 L156,110 L173,100 Z" />
<path fill="#4ee055" d="M173,140 L173,160 L156,170 L139,160 L139,140 L156,130 Z" />
<path fill="#D8D388" d="M156,170 L156,190 L139,200 L121,190 L121,170 L139,160 Z" />
<path fill="#D8D388" d="M139,200 L139,220 L121,230 L104,220 L104,200 L121,190 Z" />
<path fill="#D8D388" d="M104,200 L104,220 L87,230 L69,220 L69,200 L87,190 Z" />
<path fill="#4ee055" d="M69,200 L69,220 L52,230 L35,220 L35,200 L52,190 Z" />
<path fill="#D8D388" d="M35,200 L35,220 L17,230 L0,220 L0,200 L17,190 Z" />
<path fill="#D8D388" d="M0,200 L0,220 L-17,230 L-35,220 L-35,200 L-17,190 Z" />
<path fill="#4ee055" d="M-35,200 L-35,220 L-52,230 L-69,220 L-69,200 L-52,190 Z" />
<path fill="#4ee055" d="M-191,50 L-191,70 L-208,80 L-225,70 L-225,50 L-208,40 Z" />
<path fill="#D8D388" d="M-208,20 L-208,40 L-225,50 L-242,40 L-242,20 L-225,10 Z" />
<path fill="#D8D388" d="M-225,-10 L-225,10 L-242,20 L-260,10 L-260,-10 L-242,-20 Z" />
<path fill="#D8D388" d="M-208,-40 L-208,-20 L-225,-10 L-242,-20 L-242,-40 L-225,-50 Z" />
<path fill="#4ee055" d="M-191,-70 L-191,-50 L-208,-40 L-225,-50 L-225,-70 L-208,-80 Z" />
<path fill="#D8D388" d="M-173,-100 L-173,-80 L-191,-70 L-208,-80 L-208,-100 L-191,-110 Z" />
<path fill="#D8D388" d="M-156,-130 L-156,-110 L-173,-100 L-191,-110 L-191,-130 L-173,-140 Z" />
<path fill="#4ee055" d="M-139,-160 L-139,-140 L-156,-130 L-173,-140 L-173,-160 L-156,-170 Z" />
<path fill="#D8D388" d="M-121,-190 L-121,-170 L-139,-160 L-156,-170 L-156,-190 L-139,-200 Z" />
<path fill="#D8D388" d="M-104,-220 L-104,-200 L-121,-190 L-139,-200 L-139,-220 L-121,-230 Z" />
<path fill="#4ee055" d="M-87,-250 L-87,-230 L-104,-220 L-121,-230 L-121,-250 L-104,-260 Z" />
<path fill="#D8D388" d="M-52,-250 L-52,-230 L-69,-220 L-87,-230 L-87,-250 L-69,-260 Z" />
<path fill="#D8D388" d="M-17,-250 L-17,-230 L-35,-220 L-52,-230 L-52,-250 L-35,-260 Z" />
<path fill="#4ee055" d="M17,-250 L17,-230 L0,-220 L-17,-230 L-17,-250 L0,-260 Z" />
<path fill="#D8D388" d="M52,-250 L52,-230 L35,-220 L17,-230 L17,-250 L35,-260 Z" />
<path fill="#D8D388" d="M87,-250 L87,-230 L69,-220 L52,-230 L52,-250 L69,-260 Z" />
<path fill="#4ee055" d="M121,-250 L121,-230 L104,-220 L87,-230 L87,-250 L104,-260 Z" />
<path fill="#D8D388" d="M156,-250 L156,-230 L139,-220 L121,-230 L121,-250 L139,-260 Z" />
<path fill="#4ee055" d="M173,-220 L173,-200 L156,-190 L139,-200 L139,-220 L156,-230 Z" />
<path fill="#D8D388" d="M191,-190 L191,-170 L173,-160 L156,-170 L156,-190 L173,-200 Z" />
<path fill="#D8D388" d="M208,-160 L208,-140 L191,-130 L173,-140 L173,-160 L191,-170 Z" />
<path fill="#4ee055" d="M225,-130 L225,-110 L208,-100 L191,-110 L191,-130 L208,-140 Z" />
<path fill="#D8D388" d="M242,-100 L242,-80 L225,-70 L208,-80 L208,-100 L225,-110 Z" />
<path fill="#D8D388" d="M260,-70 L260,-50 L242,-40 L225,-50 L225,-70 L242,-80 Z" />
<path fill="#4ee055" d="M277,-40 L277,-20 L260,-10 L242,-20 L242,-40 L260,-50 Z" />
<path fill="#D8D388" d="M294,-10 L294,10 L277,20 L260,10 L260,-10 L277,-20 Z" />
<path fill="#4ee055" d="M277,20 L277,40 L260,50 L242,40 L242,20 L260,10 Z" />
<path fill="#D8D388" d="M260,50 L260,70 L242,80 L225,70 L225,50 L242,40 Z" />
<path fill="#D8D388" d="M242,80 L242,100 L225,110 L208,100 L208,80 L225,70 Z" />
<path fill="#4ee055" d="M225,110 L225,130 L208,140 L191,130 L191,110 L208,100 Z" />
<path fill="#D8D388" d="M208,140 L208,160 L191,170 L173,160 L173,140 L191,130 Z" />
<path fill="#D8D388" d="M191,170 L191,190 L173,200 L156,190 L156,170 L173,160 Z" />
<path fill="#4ee055" d="M173,200 L173,220 L156,230 L139,220 L139,200 L156,190 Z" />
<path fill="#D8D388" d="M156,230 L156,250 L139,260 L121,250 L121,230 L139,220 Z" />
<path fill="#4ee055" d="M121,230 L121,250 L104,260 L87,250 L87,230 L104,220 Z" />
<path fill="#D8D388" d="M87,230 L87,250 L69,260 L52,250 L52,230 L69,220 Z" />
<path fill="#D8D388" d="M52,230 L52,250 L35,260 L17,250 L17,230 L35,220 Z" />
<path fill="#4ee055" d="M17,230 L17,250 L0,260 L-17,250 L-17,230 L0,220 Z" />
<path fill="#D8D388" d="M-17,230 L-17,250 L-35,260 L-52,250 L-52,230 L-35,220 Z" />
<path fill="#D8D388" d="M-52,230 L-52,250 L-69,260 L-87,250 L-87,230 L-69,220 Z" />
<path fill="#4ee055" d="M-87,230 L-87,250 L-104,260 L-121,250 L-121,230 L-104,220 Z" />
<path fill="#D8D388" d="M-121,230 L-121,250 L-139,260 L-156,250 L-156,230 L-139,220 Z" />
<path fill="#4ee055" d="M-242,-40 L-242,-20 L-260,-10 L-277,-20 L-277,-40 L-260,-50 Z" />
<path fill="#D8D388" d="M-225,-70 L-225,-50 L-242,-40 L-260,-50 L-260,-70 L-242,-80 Z" />
<path fill="#D8D388" d="M-208,-100 L-208,-80 L-225,-70 L-242,-80 L-242,-100 L-225,-110 Z" />
<path fill="#4ee055" d="M-191,-130 L-191,-110 L-208,-100 L-225,-110 L-225,-130 L-208,-140 Z" />
<path fill="#D8D388" d="M-173,-160 L-173,-140 L-191,-130 L-208,-140 L-208,-160 L-191,-170 Z" />
<path fill="#D8D388" d="M-156,-190 L-156,-170 L-173,-160 L-191,-170 L-191,-190 L-173,-200 Z" />
<path fill="#4ee055" d="M-139,-220 L-139,-200 L-156,-190 L-173,-200 L-173,-220 L-156,-230 Z" />
<path fill="#4ee055" d="M-35,-280 L-35,-260 L-52,-250 L-69,-260 L-69,-280 L-52,-290 Z" />
<path fill="#D8D388" d="M0,-280 L0,-260 L-17,-250 L-35,-260 L-35,-280 L-17,-290 Z" />
<path fill="#D8D388" d="M35,-280 L35,-260 L17,-250 L0,-260 L0,-280 L17,-290 Z" />
<path fill="#4ee055" d="M69,-280 L69,-260 L52,-250 L35,-260 L35,-280 L52,-290 Z" />
<path fill="#D8D388" d="M104,-280 L104,-260 L87,-250 L69,-260 L69,-280 L87,-290 Z" />
<path fill="#D8D388" d="M139,-280 L139,-260 L121,-250 L104,-260 L104,-280 L121,-290 Z" />
<path fill="#D8D388" d="M191,-250 L191,-230 L173,-220 L156,-230 L156,-250 L173,-260 Z" />
<path fill="#D8D388" d="M208,-220 L208,-200 L191,-190 L173,-200 L173,-220 L191,-230 Z" />
<path fill="#4ee055" d="M225,-190 L225,-170 L208,-160 L191,-170 L191,-190 L208,-200 Z" />
<path fill="#D8D388" d="M242,-160 L242,-140 L225,-130 L208,-140 L208,-160 L225,-170 Z" />
<path fill="#D8D388" d="M260,-130 L260,-110 L242,-100 L225,-110 L225,-130 L242,-140 Z" />
<path fill="#4ee055" d="M277,-100 L277,-80 L260,-70 L242,-80 L242,-100 L260,-110 Z" />
<path fill="#D8D388" d="M294,-70 L294,-50 L277,-40 L260,-50 L260,-70 L277,-80 Z" />
<path fill="#D8D388" d="M312,-40 L312,-20 L294,-10 L277,-20 L277,-40 L294,-50 Z" />
<path fill="#4ee055" d="M329,-10 L329,10 L312,20 L294,10 L294,-10 L312,-20 Z" />
<path fill="#D8D388" d="M312,20 L312,40 L294,50 L277,40 L277,20 L294,10 Z" />
<path fill="#D8D388" d="M294,50 L294,70 L277,80 L260,70 L260,50 L277,40 Z" />
<path fill="#4ee055" d="M277,80 L277,100 L260,110 L242,100 L242,80 L260,70 Z" />
<path fill="#D8D388" d="M260,110 L260,130 L242,140 L225,130 L225,110 L242,100 Z" />
<path fill="#D8D388" d="M242,140 L242,160 L225,170 L208,160 L208,140 L225,130 Z" />
<path fill="#4ee055" d="M225,170 L225,190 L208,200 L191,190 L191,170 L208,160 Z" />
<path fill="#D8D388" d="M208,200 L208,220 L191,230 L173,220 L173,200 L191,190 Z" />
<path fill="#D8D388" d="M191,230 L191,250 L173,260 L156,250 L156,230 L173,220 Z" />
<path fill="#4ee055" d="M173,260 L173,280 L156,290 L139,280 L139,260 L156,250 Z" />
<path fill="#D8D388" d="M139,260 L139,280 L121,290 L104,280 L104,260 L121,250 Z" />
<path fill="#D8D388" d="M104,260 L104,280 L87,290 L69,280 L69,260 L87,250 Z" />
<path fill="#4ee055" d="M69,260 L69,280 L52,290 L35,280 L35,260 L52,250 Z" />
<path fill="#D8D388" d="M35,260 L35,280 L17,290 L0,280 L0,260 L17,250 Z" />
<path fill="#D8D388" d="M0,260 L0,280 L-17,290 L-35,280 L-35,260 L-17,250 Z" />
<path fill="#4ee055" d="M-35,260 L-35,280 L-52,290 L-69,280 L-69,260 L-52,250 Z" />
<path fill="#D8D388" d="M-69,260 L-69,280 L-87,290 L-104,280 L-104,260 L-87,250 Z" />
<path fill="#D8D388" d="M-104,260 L-104,280 L-121,290 L-139,280 L-139,260 L-121,250 Z" />
<path fill="#4ee055" d="M-139,260 L-139,280 L-156,290 L-173,280 L-173,260 L-156,250 Z" />
<path fill="#D8D388" d="M-260,-70 L-260,-50 L-277,-40 L-294,-50 L-294,-70 L-277,-80 Z" />
<path fill="#4ee055" d="M-242,-100 L-242,-80 L-260,-70 L-277,-80 L-277,-100 L-260,-110 Z" />
<path fill="#D8D388" d="M-225,-130 L-225,-110 L-242,-100 L-260,-110 L-260,-130 L-242,-140 Z" />
<path fill="#D8D388" d="M-208,-160 L-208,-140 L-225,-130 L-242,-140 L-242,-160 L-225,-170 Z" />
<path fill="#4ee055" d="M17,-310 L17,-290 L0,-280 L-17,-290 L-17,-310 L0,-320 Z" />
<path fill="#D8D388" d="M52,-310 L52,-290 L35,-280 L17,-290 L17,-310 L35,-320 Z" />
<path fill="#D8D388" d="M87,-310 L87,-290 L69,-280 L52,-290 L52,-310 L69,-320 Z" />
<path fill="#4ee055" d="M277,-160 L277,-140 L260,-130 L242,-140 L242,-160 L260,-170 Z" />
<path fill="#D8D388" d="M294,-130 L294,-110 L277,-100 L260,-110 L260,-130 L277,-140 Z" />
<path fill="#D8D388" d="M312,-100 L312,-80 L294,-70 L277,-80 L277,-100 L294,-110 Z" />
<path fill="#4ee055" d="M329,-70 L329,-50 L312,-40 L294,-50 L294,-70 L312,-80 Z" />
<path fill="#D8D388" d="M346,-40 L346,-20 L329,-10 L312,-20 L312,-40 L329,-50 Z" />
<path fill="#D8D388" d="M364,-10 L364,10 L346,20 L329,10 L329,-10 L346,-20 Z" />
<path fill="#D8D388" d="M346,20 L346,40 L329,50 L312,40 L312,20 L329,10 Z" />
<path fill="#4ee055" d="M329,50 L329,70 L312,80 L294,70 L294,50 L312,40 Z" />
<path fill="#D8D388" d="M312,80 L312,100 L294,110 L277,100 L277,80 L294,70 Z" />
<path fill="#D8D388" d="M294,110 L294,130 L277,140 L260,130 L260,110 L277,100 Z" />
<path fill="#4ee055" d="M277,140 L277,160 L260,170 L242,160 L242,140 L260,130 Z" />
<path fill="#D8D388" d="M260,170 L260,190 L242,200 L225,190 L225,170 L242,160 Z" />
<path fill="#D8D388" d="M242,200 L242,220 L225,230 L208,220 L208,200 L225,190 Z" />
<path fill="#4ee055" d="M225,230 L225,250 L208,260 L191,250 L191,230 L208,220 Z" />
<path fill="#D8D388" d="M208,260 L208,280 L191,290 L173,280 L173,260 L191,250 Z" />
<path fill="#D8D388" d="M191,290 L191,310 L173,320 L156,310 L156,290 L173,280 Z" />
<path fill="#D8D388" d="M156,290 L156,310 L139,320 L121,310 L121,290 L139,280 Z" />
<path fill="#4ee055" d="M121,290 L121,310 L104,320 L87,310 L87,290 L104,280 Z" />
<path fill="#D8D388" d="M87,290 L87,310 L69,320 L52,310 L52,290 L69,280 Z" />
<path fill="#D8D388" d="M52,290 L52,310 L35,320 L17,310 L17,290 L35,280 Z" />
<path fill="#4ee055" d="M17,290 L17,310 L0,320 L-17,310 L-17,290 L0,280 Z" />
<path fill="#D8D388" d="M-17,290 L-17,310 L-35,320 L-52,310 L-52,290 L-35,280 Z" />
<path fill="#D8D388" d="M-52,290 L-52,310 L-69,320 L-87,310 L-87,290 L-69,280 Z" />
<path fill="#4ee055" d="M-87,290 L-87,310 L-104,320 L-121,310 L-121,290 L-104,280 Z" />
<path fill="#D8D388" d="M-121,290 L-121,310 L-139,320 L-156,310 L-156,290 L-139,280 Z" />
<path fill="#D8D388" d="M-156,290 L-156,310 L-173,320 L-191,310 L-191,290 L-173,280 Z" />
<path fill="#D8D388" d="M-277,-100 L-277,-80 L-294,-70 L-312,-80 L-312,-100 L-294,-110 Z" />
<path fill="#D8D388" d="M-260,-130 L-260,-110 L-277,-100 L-294,-110 L-294,-130 L-277,-140 Z" />
<path fill="#D8D388" d="M398,-10 L398,10 L381,20 L364,10 L364,-10 L381,-20 Z" />
<path fill="#4ee055" d="M381,20 L381,40 L364,50 L346,40 L346,20 L364,10 Z" />
<path fill="#D8D388" d="M364,50 L364,70 L346,80 L329,70 L329,50 L346,40 Z" />
<path fill="#D8D388" d="M346,80 L346,100 L329,110 L312,100 L312,80 L329,70 Z" />
<path fill="#4ee055" d="M329,110 L329,130 L312,140 L294,130 L294,110 L312,100 Z" />
<path fill="#D8D388" d="M312,140 L312,160 L294,170 L277,160 L277,140 L294,130 Z" />
<path fill="#D8D388" d="M294,170 L294,190 L277,200 L260,190 L260,170 L277,160 Z" />
<path fill="#4ee055" d="M277,200 L277,220 L260,230 L242,220 L242,200 L260,190 Z" />
<path fill="#D8D388" d="M260,230 L260,250 L242,260 L225,250 L225,230 L242,220 Z" />
<path fill="#D8D388" d="M242,260 L242,280 L225,290 L208,280 L208,260 L225,250 Z" />
<path fill="#4ee055" d="M225,290 L225,310 L208,320 L191,310 L191,290 L208,280 Z" />
<path fill="#D8D388" d="M208,320 L208,340 L191,350 L173,340 L173,320 L191,310 Z" />
<path fill="#4ee055" d="M173,320 L173,340 L156,350 L139,340 L139,320 L156,310 Z" />
<path fill="#D8D388" d="M139,320 L139,340 L121,350 L104,340 L104,320 L121,310 Z" />
<path fill="#D8D388" d="M104,320 L104,340 L87,350 L69,340 L69,320 L87,310 Z" />
<path fill="#4ee055" d="M69,320 L69,340 L52,350 L35,340 L35,320 L52,310 Z" />
<path fill="#D8D388" d="M35,320 L35,340 L17,350 L0,340 L0,320 L17,310 Z" />
<path fill="#D8D388" d="M0,320 L0,340 L-17,350 L-35,340 L-35,320 L-17,310 Z" />
<path fill="#4ee055" d="M-35,320 L-35,340 L-52,350 L-69,340 L-69,320 L-52,310 Z" />
<path fill="#D8D388" d="M-69,320 L-69,340 L-87,350 L-104,340 L-104,320 L-87,310 Z" />
<path fill="#D8D388" d="M-104,320 L-104,340 L-121,350 L-139,340 L-139,320 L-121,310 Z" />
<path fill="#4ee055" d="M-139,320 L-139,340 L-156,350 L-173,340 L-173,320 L-156,310 Z" />
<path fill="#D8D388" d="M-173,320 L-173,340 L-191,350 L-208,340 L-208,320 L-191,310 Z" />
<path fill="#4ee055" d="M-191,290 L-191,310 L-208,320 L-225,310 L-225,290 L-208,280 Z" />
<path fill="#D8D388" d="M416,20 L416,40 L398,50 L381,40 L381,20 L398,10 Z" />
<path fill="#D8D388" d="M398,50 L398,70 L381,80 L364,70 L364,50 L381,40 Z" />
<path fill="#4ee055" d="M381,80 L381,100 L364,110 L346,100 L346,80 L364,70 Z" />
<path fill="#D8D388" d="M364,110 L364,130 L346,140 L329,130 L329,110 L346,100 Z" />
<path fill="#D8D388" d="M346,140 L346,160 L329,170 L312,160 L312,140 L329,130 Z" />
<path fill="#4ee055" d="M329,170 L329,190 L312,200 L294,190 L294,170 L312,160 Z" />
<path fill="#D8D388" d="M312,200 L312,220 L294,230 L277,220 L277,200 L294,190 Z" />
<path fill="#D8D388" d="M294,230 L294,250 L277,260 L260,250 L260,230 L277,220 Z" />
<path fill="#4ee055" d="M277,260 L277,280 L260,290 L242,280 L242,260 L260,250 Z" />
<path fill="#D8D388" d="M260,290 L260,310 L242,320 L225,310 L225,290 L242,280 Z" />
<path fill="#D8D388" d="M242,320 L242,340 L225,350 L208,340 L208,320 L225,310 Z" />
<path fill="#4ee055" d="M225,350 L225,370 L208,380 L191,370 L191,350 L208,340 Z" />
<path fill="#D8D388" d="M191,350 L191,370 L173,380 L156,370 L156,350 L173,340 Z" />
<path fill="#D8D388" d="M156,350 L156,370 L139,380 L121,370 L121,350 L139,340 Z" />
<path fill="#4ee055" d="M121,350 L121,370 L104,380 L87,370 L87,350 L104,340 Z" />
<path fill="#D8D388" d="M87,350 L87,370 L69,380 L52,370 L52,350 L69,340 Z" />
<path fill="#D8D388" d="M52,350 L52,370 L35,380 L17,370 L17,350 L35,340 Z" />
<path fill="#4ee055" d="M17,350 L17,370 L0,380 L-17,370 L-17,350 L0,340 Z" />
<path fill="#D8D388" d="M-17,350 L-17,370 L-35,380 L-52,370 L-52,350 L-35,340 Z" />
<path fill="#D8D388" d="M-52,350 L-52,370 L-69,380 L-87,370 L-87,350 L-69,340 Z" />
<path fill="#4ee055" d="M-87,350 L-87,370 L-104,380 L-121,370 L-121,350 L-104,340 Z" />
<path fill="#D8D388" d="M-121,350 L-121,370 L-139,380 L-156,370 L-156,350 L-139,340 Z" />
<path fill="#D8D388" d="M-156,350 L-156,370 L-173,380 L-191,370 L-191,350 L-173,340 Z" />
<path fill="#4ee055" d="M-191,350 L-191,370 L-208,380 L-225,370 L-225,350 L-208,340 Z" />
<path fill="#D8D388" d="M-208,320 L-208,340 L-225,350 L-242,340 L-242,320 L-225,310 Z" />
<path fill="#4ee055" d="M433,50 L433,70 L416,80 L398,70 L398,50 L416,40 Z" />
<path fill="#D8D388" d="M416,80 L416,100 L398,110 L381,100 L381,80 L398,70 Z" />
<path fill="#D8D388" d="M398,110 L398,130 L381,140 L364,130 L364,110 L381,100 Z" />
<path fill="#4ee055" d="M381,140 L381,160 L364,170 L346,160 L346,140 L364,130 Z" />
<path fill="#D8D388" d="M364,170 L364,190 L346,200 L329,190 L329,170 L346,160 Z" />
<path fill="#D8D388" d="M346,200 L346,220 L329,230 L312,220 L312,200 L329,190 Z" />
<path fill="#4ee055" d="M329,230 L329,250 L312,260 L294,250 L294,230 L312,220 Z" />
<path fill="#D8D388" d="M312,260 L312,280 L294,290 L277,280 L277,260 L294,250 Z" />
<path fill="#D8D388" d="M294,290 L294,310 L277,320 L260,310 L260,290 L277,280 Z" />
<path fill="#4ee055" d="M277,320 L277,340 L260,350 L242,340 L242,320 L260,310 Z" />
<path fill="#D8D388" d="M260,350 L260,370 L242,380 L225,370 L225,350 L242,340 Z" />
<path fill="#D8D388" d="M242,380 L242,400 L225,410 L208,400 L208,380 L225,370 Z" />
<path fill="#D8D388" d="M208,380 L208,400 L191,410 L173,400 L173,380 L191,370 Z" />
<path fill="#4ee055" d="M173,380 L173,400 L156,410 L139,400 L139,380 L156,370 Z" />
<path fill="#D8D388" d="M139,380 L139,400 L121,410 L104,400 L104,380 L121,370 Z" />
<path fill="#D8D388" d="M104,380 L104,400 L87,410 L69,400 L69,380 L87,370 Z" />
<path fill="#4ee055" d="M69,380 L69,400 L52,410 L35,400 L35,380 L52,370 Z" />
<path fill="#D8D388" d="M35,380 L35,400 L17,410 L0,400 L0,380 L17,370 Z" />
<path fill="#D8D388" d="M0,380 L0,400 L-17,410 L-35,400 L-35,380 L-17,370 Z" />
<path fill="#4ee055" d="M-35,380 L-35,400 L-52,410 L-69,400 L-69,380 L-52,370 Z" />
<path fill="#D8D388" d="M-69,380 L-69,400 L-87,410 L-104,400 L-104,380 L-87,370 Z" />
<path fill="#D8D388" d="M-104,380 L-104,400 L-121,410 L-139,400 L-139,380 L-121,370 Z" />
<path fill="#4ee055" d="M-139,380 L-139,400 L-156,410 L-173,400 L-173,380 L-156,370 Z" />
<path fill="#D8D388" d="M-173,380 L-173,400 L-191,410 L-208,400 L-208,380 L-191,370 Z" />
<path fill="#D8D388" d="M-208,380 L-208,400 L-225,410 L-242,400 L-242,380 L-225,370 Z" />
<path fill="#D8D388" d="M-225,350 L-225,370 L-242,380 L-260,370 L-260,350 L-242,340 Z" />
<path fill="#D8D388" d="M450,80 L450,100 L433,110 L416,100 L416,80 L433,70 Z" />
<path fill="#4ee055" d="M433,110 L433,130 L416,140 L398,130 L398,110 L416,100 Z" />
<path fill="#D8D388" d="M416,140 L416,160 L398,170 L381,160 L381,140 L398,130 Z" />
<path fill="#D8D388" d="M398,170 L398,190 L381,200 L364,190 L364,170 L381,160 Z" />
<path fill="#4ee055" d="M381,200 L381,220 L364,230 L346,220 L346,200 L364,190 Z" />
<path fill="#D8D388" d="M364,230 L364,250 L346,260 L329,250 L329,230 L346,220 Z" />
<path fill="#D8D388" d="M346,260 L346,280 L329,290 L312,280 L312,260 L329,250 Z" />
<path fill="#4ee055" d="M329,290 L329,310 L312,320 L294,310 L294,290 L312,280 Z" />
<path fill="#D8D388" d="M312,320 L312,340 L294,350 L277,340 L277,320 L294,310 Z" />
<path fill="#D8D388" d="M294,350 L294,370 L277,380 L260,370 L260,350 L277,340 Z" />
<path fill="#4ee055" d="M277,380 L277,400 L260,410 L242,400 L242,380 L260,370 Z" />
<path fill="#D8D388" d="M260,410 L260,430 L242,440 L225,430 L225,410 L242,400 Z" />
<path fill="#4ee055" d="M225,410 L225,430 L208,440 L191,430 L191,410 L208,400 Z" />
<path fill="#D8D388" d="M191,410 L191,430 L173,440 L156,430 L156,410 L173,400 Z" />
<path fill="#D8D388" d="M156,410 L156,430 L139,440 L121,430 L121,410 L139,400 Z" />
<path fill="#4ee055" d="M121,410 L121,430 L104,440 L87,430 L87,410 L104,400 Z" />
<path fill="#D8D388" d="M87,410 L87,430 L69,440 L52,430 L52,410 L69,400 Z" />
<path fill="#D8D388" d="M52,410 L52,430 L35,440 L17,430 L17,410 L35,400 Z" />
<path fill="#4ee055" d="M17,410 L17,430 L0,440 L-17,430 L-17,410 L0,400 Z" />
<path fill="#D8D388" d="M-17,410 L-17,430 L-35,440 L-52,430 L-52,410 L-35,400 Z" />
<path fill="#D8D388" d="M-52,410 L-52,430 L-69,440 L-87,430 L-87,410 L-69,400 Z" />
<path fill="#4ee055" d="M-87,410 L-87,430 L-104,440 L-121,430 L-121,410 L-104,400 Z" />
<path fill="#D8D388" d="M-121,410 L-121,430 L-139,440 L-156,430 L-156,410 L-139,400 Z" />
<path fill="#D8D388" d="M-156,410 L-156,430 L-173,440 L-191,430 L-191,410 L-173,400 Z" />
<path fill="#4ee055" d="M-191,410 L-191,430 L-208,440 L-225,430 L-225,410 L-208,400 Z" />
<path fill="#D8D388" d="M-225,410 L-225,430 L-242,440 L-260,430 L-260,410 L-242,400 Z" />
<path fill="#4ee055" d="M-242,380 L-242,400 L-260,410 L-277,400 L-277,380 L-260,370 Z" />
<path fill="#D8D388" d="M468,110 L468,130 L450,140 L433,130 L433,110 L450,100 Z" />
<path fill="#D8D388" d="M450,140 L450,160 L433,170 L416,160 L416,140 L433,130 Z" />
<path fill="#4ee055" d="M433,170 L433,190 L416,200 L398,190 L398,170 L416,160 Z" />
<path fill="#D8D388" d="M416,200 L416,220 L398,230 L381,220 L381,200 L398,190 Z" />
<path fill="#D8D388" d="M398,230 L398,250 L381,260 L364,250 L364,230 L381,220 Z" />
<path fill="#4ee055" d="M381,260 L381,280 L364,290 L346,280 L346,260 L364,250 Z" />
<path fill="#D8D388" d="M364,290 L364,310 L346,320 L329,310 L329,290 L346,280 Z" />
<path fill="#D8D388" d="M346,320 L346,340 L329,350 L312,340 L312,320 L329,310 Z" />
<path fill="#4ee055" d="M329,350 L329,370 L312,380 L294,370 L294,350 L312,340 Z" />
<path fill="#D8D388" d="M312,380 L312,400 L294,410 L277,400 L277,380 L294,370 Z" />
<path fill="#D8D388" d="M294,410 L294,430 L277,440 L260,430 L260,410 L277,400 Z" />
<path fill="#4ee055" d="M277,440 L277,460 L260,470 L242,460 L242,440 L260,430 Z" />
<path fill="#D8D388" d="M242,440 L242,460 L225,470 L208,460 L208,440 L225,430 Z" />
<path fill="#D8D388" d="M208,440 L208,460 L191,470 L173,460 L173,440 L191,430 Z" />
<path fill="#4ee055" d="M173,440 L173,460 L156,470 L139,460 L139,440 L156,430 Z" />
<path fill="#D8D388" d="M139,440 L139,460 L121,470 L104,460 L104,440 L121,430 Z" />
<path fill="#D8D388" d="M104,440 L104,460 L87,470 L69,460 L69,440 L87,430 Z" />
<path fill="#4ee055" d="M69,440 L69,460 L52,470 L35,460 L35,440 L52,430 Z" />
<path fill="#D8D388" d="M35,440 L35,460 L17,470 L0,460 L0,440 L17,430 Z" />
<path fill="#D8D388" d="M0,440 L0,460 L-17,470 L-35,460 L-35,440 L-17,430 Z" />
<path fill="#4ee055" d="M-35,440 L-35,460 L-52,470 L-69,460 L-69,440 L-52,430 Z" />
<path fill="#D8D388" d="M-69,440 L-69,460 L-87,470 L-104,460 L-104,440 L-87,430 Z" />
<path fill="#D8D388" d="M-104,440 L-104,460 L-121,470 L-139,460 L-139,440 L-121,430 Z" />
<path fill="#4ee055" d="M-139,440 L-139,460 L-156,470 L-173,460 L-173,440 L-156,430 Z" />
<path fill="#D8D388" d="M-173,440 L-173,460 L-191,470 L-208,460 L-208,440 L-191,430 Z" />
<path fill="#D8D388" d="M-208,440 L-208,460 L-225,470 L-242,460 L-242,440 L-225,430 Z" />
<path fill="#4ee055" d="M-242,440 L-242,460 L-260,470 L-277,460 L-277,440 L-260,430 Z" />
<path fill="#D8D388" d="M-260,410 L-260,430 L-277,440 L-294,430 L-294,410 L-277,400 Z" />
<path fill="#4ee055" d="M485,140 L485,160 L468,170 L450,160 L450,140 L468,130 Z" />
<path fill="#D8D388" d="M468,170 L468,190 L450,200 L433,190 L433,170 L450,160 Z" />
<path fill="#D8D388" d="M450,200 L450,220 L433,230 L416,220 L416,200 L433,190 Z" />
<path fill="#4ee055" d="M433,230 L433,250 L416,260 L398,250 L398,230 L416,220 Z" />
<path fill="#D8D388" d="M416,260 L416,280 L398,290 L381,280 L381,260 L398,250 Z" />
<path fill="#D8D388" d="M398,290 L398,310 L381,320 L364,310 L364,290 L381,280 Z" />
<path fill="#4ee055" d="M381,320 L381,340 L364,350 L346,340 L346,320 L364,310 Z" />
<path fill="#D8D388" d="M364,350 L364,370 L346,380 L329,370 L329,350 L346,340 Z" />
<path fill="#D8D388" d="M346,380 L346,400 L329,410 L312,400 L312,380 L329,370 Z" />
<path fill="#4ee055" d="M329,410 L329,430 L312,440 L294,430 L294,410 L312,400 Z" />
<path fill="#D8D388" d="M312,440 L312,460 L294,470 L277,460 L277,440 L294,430 Z" />
<path fill="#D8D388" d="M294,470 L294,490 L277,500 L260,490 L260,470 L277,460 Z" />
<path fill="#D8D388" d="M260,470 L260,490 L242,500 L225,490 L225,470 L242,460 Z" />
<path fill="#4ee055" d="M225,470 L225,490 L208,500 L191,490 L191,470 L208,460 Z" />
<path fill="#D8D388" d="M191,470 L191,490 L173,500 L156,490 L156,470 L173,460 Z" />
<path fill="#D8D388" d="M156,470 L156,490 L139,500 L121,490 L121,470 L139,460 Z" />
<path fill="#4ee055" d="M121,470 L121,490 L104,500 L87,490 L87,470 L104,460 Z" />
<path fill="#D8D388" d="M87,470 L87,490 L69,500 L52,490 L52,470 L69,460 Z" />
<path fill="#D8D388" d="M52,470 L52,490 L35,500 L17,490 L17,470 L35,460 Z" />
<path fill="#4ee055" d="M17,470 L17,490 L0,500 L-17,490 L-17,470 L0,460 Z" />
<path fill="#D8D388" d="M-17,470 L-17,490 L-35,500 L-52,490 L-52,470 L-35,460 Z" />
<path fill="#D8D388" d="M-52,470 L-52,490 L-69,500 L-87,490 L-87,470 L-69,460 Z" />
<path fill="#4ee055" d="M-87,470 L-87,490 L-104,500 L-121,490 L-121,470 L-104,460 Z" />
<path fill="#D8D388" d="M-121,470 L-121,490 L-139,500 L-156,490 L-156,470 L-139,460 Z" />
<path fill="#D8D388" d="M-156,470 L-156,490 L-173,500 L-191,490 L-191,470 L-173,460 Z" />
<path fill="#4ee055" d="M-191,470 L-191,490 L-208,500 L-225,490 L-225,470 L-208,460 Z" />
<path fill="#D8D388" d="M520,140 L520,160 L502,170 L485,160 L485,140 L502,130 Z" />
<path fill="#D8D388" d="M502,170 L502,190 L485,200 L468,190 L468,170 L485,160 Z" />
<path fill="#4ee055" d="M485,200 L485,220 L468,230 L450,220 L450,200 L468,190 Z" />
<path fill="#D8D388" d="M468,230 L468,250 L450,260 L433,250 L433,230 L450,220 Z" />
<path fill="#D8D388" d="M450,260 L450,280 L433,290 L416,280 L416,260 L433,250 Z" />
<path fill="#4ee055" d="M433,290 L433,310 L416,320 L398,310 L398,290 L416,280 Z" />
<path fill="#D8D388" d="M416,320 L416,340 L398,350 L381,340 L381,320 L398,310 Z" />
<path fill="#D8D388" d="M398,350 L398,370 L381,380 L364,370 L364,350 L381,340 Z" />
<path fill="#4ee055" d="M381,380 L381,400 L364,410 L346,400 L346,380 L364,370 Z" />
<path fill="#D8D388" d="M364,410 L364,430 L346,440 L329,430 L329,410 L346,400 Z" />
<path fill="#D8D388" d="M346,440 L346,460 L329,470 L312,460 L312,440 L329,430 Z" />
<path fill="#4ee055" d="M329,470 L329,490 L312,500 L294,490 L294,470 L312,460 Z" />
<path fill="#D8D388" d="M312,500 L312,520 L294,530 L277,520 L277,500 L294,490 Z" />
<path fill="#4ee055" d="M277,500 L277,520 L260,530 L242,520 L242,500 L260,490 Z" />
<path fill="#D8D388" d="M242,500 L242,520 L225,530 L208,520 L208,500 L225,490 Z" />
<path fill="#D8D388" d="M208,500 L208,520 L191,530 L173,520 L173,500 L191,490 Z" />
<path fill="#4ee055" d="M173,500 L173,520 L156,530 L139,520 L139,500 L156,490 Z" />
<path fill="#D8D388" d="M139,500 L139,520 L121,530 L104,520 L104,500 L121,490 Z" />
<path fill="#D8D388" d="M104,500 L104,520 L87,530 L69,520 L69,500 L87,490 Z" />
<path fill="#4ee055" d="M69,500 L69,520 L52,530 L35,520 L35,500 L52,490 Z" />
<path fill="#D8D388" d="M35,500 L35,520 L17,530 L0,520 L0,500 L17,490 Z" />
<path fill="#D8D388" d="M0,500 L0,520 L-17,530 L-35,520 L-35,500 L-17,490 Z" />
<path fill="#4ee055" d="M-35,500 L-35,520 L-52,530 L-69,520 L-69,500 L-52,490 Z" />
<path fill="#D8D388" d="M-69,500 L-69,520 L-87,530 L-104,520 L-104,500 L-87,490 Z" />
<path fill="#D8D388" d="M-104,500 L-104,520 L-121,530 L-139,520 L-139,500 L-121,490 Z" />
<path fill="#4ee055" d="M-139,500 L-139,520 L-156,530 L-173,520 L-173,500 L-156,490 Z" />
<path fill="#4ee055" d="M537,170 L537,190 L520,200 L502,190 L502,170 L520,160 Z" />
<path fill="#D8D388" d="M520,200 L520,220 L502,230 L485,220 L485,200 L502,190 Z" />
<path fill="#D8D388" d="M502,230 L502,250 L485,260 L468,250 L468,230 L485,220 Z" />
<path fill="#4ee055" d="M485,260 L485,280 L468,290 L450,280 L450,260 L468,250 Z" />
<path fill="#D8D388" d="M468,290 L468,310 L450,320 L433,310 L433,290 L450,280 Z" />
<path fill="#D8D388" d="M450,320 L450,340 L433,350 L416,340 L416,320 L433,310 Z" />
<path fill="#4ee055" d="M433,350 L433,370 L416,380 L398,370 L398,350 L416,340 Z" />
<path fill="#D8D388" d="M416,380 L416,400 L398,410 L381,400 L381,380 L398,370 Z" />
<path fill="#D8D388" d="M398,410 L398,430 L381,440 L364,430 L364,410 L381,400 Z" />
<path fill="#4ee055" d="M381,440 L381,460 L364,470 L346,460 L346,440 L364,430 Z" />
<path fill="#D8D388" d="M364,470 L364,490 L346,500 L329,490 L329,470 L346,460 Z" />
<path fill="#D8D388" d="M294,530 L294,550 L277,560 L260,550 L260,530 L277,520 Z" />
<path fill="#D8D388" d="M260,530 L260,550 L242,560 L225,550 L225,530 L242,520 Z" />
<path fill="#4ee055" d="M225,530 L225,550 L208,560 L191,550 L191,530 L208,520 Z" />
<path fill="#D8D388" d="M191,530 L191,550 L173,560 L156,550 L156,530 L173,520 Z" />
<path fill="#D8D388" d="M156,530 L156,550 L139,560 L121,550 L121,530 L139,520 Z" />
<path fill="#4ee055" d="M121,530 L121,550 L104,560 L87,550 L87,530 L104,520 Z" />
<path fill="#D8D388" d="M87,530 L87,550 L69,560 L52,550 L52,530 L69,520 Z" />
<path fill="#D8D388" d="M52,530 L52,550 L35,560 L17,550 L17,530 L35,520 Z" />
<path fill="#4ee055" d="M17,530 L17,550 L0,560 L-17,550 L-17,530 L0,520 Z" />
<path fill="#D8D388" d="M-17,530 L-17,550 L-35,560 L-52,550 L-52,530 L-35,520 Z" />
<path fill="#D8D388" d="M-52,530 L-52,550 L-69,560 L-87,550 L-87,530 L-69,520 Z" />
<path fill="#4ee055" d="M-87,530 L-87,550 L-104,560 L-121,550 L-121,530 L-104,520 Z" />
<path fill="#D8D388" d="M-121,530 L-121,550 L-139,560 L-156,550 L-156,530 L-139,520 Z" />
<path fill="#4ee055" d="M277,560 L277,580 L260,590 L242,580 L242,560 L260,550 Z" />
<path fill="#D8D388" d="M242,560 L242,580 L225,590 L208,580 L208,560 L225,550 Z" />
<path fill="#D8D388" d="M208,560 L208,580 L191,590 L173,580 L173,560 L191,550 Z" />
<path fill="#4ee055" d="M173,560 L173,580 L156,590 L139,580 L139,560 L156,550 Z" />
<path fill="#D8D388" d="M139,560 L139,580 L121,590 L104,580 L104,560 L121,550 Z" />
<path fill="#D8D388" d="M104,560 L104,580 L87,590 L69,580 L69,560 L87,550 Z" />
<path fill="#4ee055" d="M69,560 L69,580 L52,590 L35,580 L35,560 L52,550 Z" />
<path fill="#D8D388" d="M35,560 L35,580 L17,590 L0,580 L0,560 L17,550 Z" />
<path fill="#D8D388" d="M0,560 L0,580 L-17,590 L-35,580 L-35,560 L-17,550 Z" />
<path fill="#4ee055" d="M-35,560 L-35,580 L-52,590 L-69,580 L-69,560 L-52,550 Z" />
<path fill="#D8D388" d="M-69,560 L-69,580 L-87,590 L-104,580 L-104,560 L-87,550 Z" />
<path fill="#4ee055" d="M225,590 L225,610 L208,620 L191,610 L191,590 L208,580 Z" />
<path fill="#D8D388" d="M191,590 L191,610 L173,620 L156,610 L156,590 L173,580 Z" />
<path fill="#D8D388" d="M156,590 L156,610 L139,620 L121,610 L121,590 L139,580 Z" />
<path fill="#4ee055" d="M121,590 L121,610 L104,620 L87,610 L87,590 L104,580 Z" />
<path fill="#D8D388" d="M87,590 L87,610 L69,620 L52,610 L52,590 L69,580 Z" />
<path fill="#D8D388" d="M52,590 L52,610 L35,620 L17,610 L17,590 L35,580 Z" />
<path fill="#4ee055" d="M17,590 L17,610 L0,620 L-17,610 L-17,590 L0,580 Z" />
<path fill="#D8D388" d="M-17,590 L-17,610 L-35,620 L-52,610 L-52,590 L-35,580 Z" />
<path fill="#4ee055" d="M173,620 L173,640 L156,650 L139,640 L139,620 L156,610 Z" />
<path fill="#D8D388" d="M139,620 L139,640 L121,650 L104,640 L104,620 L121,610 Z" />
<path fill="#D8D388" d="M104,620 L104,640 L87,650 L69,640 L69,620 L87,610 Z" />
<path fill="#4ee055" d="M69,620 L69,640 L52,650 L35,640 L35,620 L52,610 Z" />
</g>
</svg>