<?xml version="1.0" encoding="utf-8"?>
<svg viewBox="-474.58192127387247 -226.0 1676.6251817266736 1232.0" preserveAspectRatio="xMidYMid meet" version="1.1" baseProfile="full" xmlns="http://www.w3.org/2000/svg" style="background-color: black;">
<g style="stroke:#ffffff; stroke-width: 1; stroke-linejoin: round;">
<path fill="#D8D388" d="M104,140 L104,160 L87,170 L69,160 L69,140 L87,130 Z" />
<path fill="#D8D388" d="M156,110 L156,130 L139,140 L121,130 L121,110 L139,100 Z" />
<path fill="#D8D388" d="M139,140 L139,160 L121,170 L104,160 L104,140 L121,130 Z" />
<path fill="#4ee055" d="M121,170 L121,190 L104,200 L87,190 L87,170 L104,160 Z" />
<path fill="#D8D388" d="M87,170 L87,190 L69,200 L52,190 L52,170 L69,160 Z" />
<path fill="#D8D388" d="M191,110 L191,130 L173,140 L156,130 L156,110 L173,100 Z" />
<path fill="#4ee055" d="M173,140 L173,160 L156,170 L139,160 L139,140 L156,130 Z" />
<path fill="#D8D388" d="M156,170 L156,190 L139,200 L121,190 L121,170 L139,160 Z" />
<path fill="#D8D388" d="M139,200 L139,220 L121,230 L104,220 L104,200 L121,190 Z" />
<path fill="#D8D388" d="M104,200 L104,220 L87,230 L69,220 L69,200 L87,190 Z" />
<path fill="#4ee055" d="M69,200 L69,220 L52,230 L35,220 L35,200 L52,190 Z" />
<path fill="#D8D388" d="M35,200 L35,220 L17,230 L0,220 L0,200 L17,190 Z" />
<path fill="#4ee055" d="M225,110 L225,130 L208,140 L191,130 L191,110 L208,100 Z" />
<path fill="#D8D388" d="M208,140 L208,160 L191,170 L173,160 L173,140 L191,130 Z" />
<path fill="#D8D388" d="M191,170 L191,190 L173,200 L156,190 L156,170 L173,160 Z" />
<path fill="#4ee055" d="M173,200 L173,220 L156,230 L139,220 L139,200 L156,190 Z" />
<path fill="#D8D388" d="M156,230 L156,250 L139,260 L121,250 L121,230 L139,220 Z" />
<path fill="#4ee055" d="M121,230 L121,250 L104,260 L87,250 L87,230 L104,220 Z" />
<path fill="#D8D388" d="M87,230 L87,250 L69,260 L52,250 L52,230 L69,220 Z" />
<path fill="#D8D388" d="M52,230 L52,250 L35,260 L17,250 L17,230 L35,220 Z" />
<path fill="#4ee055" d="M17,230 L17,250 L0,260 L-17,250 L-17,230 L0,220 Z" />
<path fill="#D8D388" d="M-17,230 L-17,250 L-35,260 L-52,250 L-52,230 L-35,220 Z" />
<path fill="#D8D388" d="M260,110 L260,130 L242,140 L225,130 L225,110 L242,100 Z" />
<path fill="#D8D388" d="M242,140 L242,160 L225,170 L208,160 L208,140 L225,130 Z" />
<path fill="#4ee055" d="M225,170 L225,190 L208,200 L191,190 L191,170 L208,160 Z" />
<path fill="#D8D388" d="M208,200 L208,220 L191,230 L173,220 L173,200 L191,190 Z" />
<path fill="#D8D388" d="M191,230 L191,250 L173,260 L156,250 L156,230 L173,220 Z" />
<path fill="#4ee055" d="M173,260 L173,280 L156,290 L139,280 L139,260 L156,250 Z" />
<path fill="#D8D388" d="M139,260 L139,280 L121,290 L104,280 L104,260 L121,250 Z" />
<path fill="#D8D388" d="M104,260 L104,280 L87,290 L69,280 L69,260 L87,250 Z" />
<path fill="#4ee055" d="M69,260 L69,280 L52,290 L35,280 L35,260 L52,250 Z" />
<path fill="#D8D388" d="M35,260 L35,280 L17,290 L0,280 L0,260 L17,250 Z" />
<path fill="#D8D388" d="M0,260 L0,280 L-17,290 L-35,280 L-35,260 L-17,250 Z" />
<path fill="#4ee055" d="M-35,260 L-35,280 L-52,290 L-69,280 L-69,260 L-52,250 Z" />
<path fill="#D8D388" d="M-69,260 L-69,280 L-87,290 L-104,280 L-104,260 L-87,250 Z" />
<path fill="#D8D388" d="M-104,260 L-104,280 L-121,290 L-139,280 L-139,260 L-121,250 Z" />
<path fill="#D8D388" d="M312,80 L312,100 L294,110 L277,100 L277,80 L294,70 Z" />
<path fill="#D8D388" d="M294,110 L294,130 L277,140 L260,130 L260,110 L277,100 Z" />
<path fill="#4ee055" d="M277,140 L277,160 L260,170 L242,160 L242,140 L260,130 Z" />
<path fill="#D8D388" d="M260,170 L260,190 L242,200 L225,190 L225,170 L242,160 Z" />
<path fill="#D8D388" d="M242,200 L242,220 L225,230 L208,220 L208,200 L225,190 Z" />
<path fill="#4ee055" d="M225,230 L225,250 L208,260 L191,250 L191,230 L208,220 Z" />
<path fill="#D8D388" d="M208,260 L208,280 L191,290 L173,280 L173,260 L191,250 Z" />
<path fill="#D8D388" d="M191,290 L191,310 L173,320 L156,310 L156,290 L173,280 Z" />
<path fill="#D8D388" d="M156,290 L156,310 L139,320 L121,310 L121,290 L139,280 Z" />
<path fill="#4ee055" d="M121,290 L121,310 L104,320 L87,310 L87,290 L104,280 Z" />
<path fill="#D8D388" d="M87,290 L87,310 L69,320 L52,310 L52,290 L69,280 Z" />
<path fill="#D8D388" d="M52,290 L52,310 L35,320 L17,310 L17,290 L35,280 Z" />
<path fill="#4ee055" d="M17,290 L17,310 L0,320 L-17,310 L-17,290 L0,280 Z" />
<path fill="#D8D388" d="M-17,290 L-17,310 L-35,320 L-52,310 L-52,290 L-35,280 Z" />
<path fill="#D8D388" d="M-52,290 L-52,310 L-69,320 L-87,310 L-87,290 L-69,280 Z" />
<path fill="#4ee055" d="M-87,290 L-87,310 L-104,320 L-121,310 L-121,290 L-104,280 Z" />
<path fill="#D8D388" d="M-121,290 L-121,310 L-139,320 L-156,310 L-156,290 L-139,280 Z" />
<path fill="#D8D388" d="M-156,290 L-156,310 L-173,320 L-191,310 L-191,290 L-173,280 Z" />
<path fill="#D8D388" d="M346,80 L346,100 L329,110 L312,100 L312,80 L329,70 Z" />
<path fill="#4ee055" d="M329,110 L329,130 L312,140 L294,130 L294,110 L312,100 Z" />
<path fill="#D8D388" d="M312,140 L312,160 L294,170 L277,160 L277,140 L294,130 Z" />
<path fill="#D8D388" d="M294,170 L294,190 L277,200 L260,190 L260,170 L277,160 Z" />
<path fill="#4ee055" d="M277,200 L277,220 L260,230 L242,220 L242,200 L260,190 Z" />
<path fill="#D8D388" d="M260,230 L260,250 L242,260 L225,250 L225,230 L242,220 Z" />
<path fill="#D8D388" d="M242,260 L242,280 L225,290 L208,280 L208,260 L225,250 Z" />
<path fill="#4ee055" d="M225,290 L225,310 L208,320 L191,310 L191,290 L208,280 Z" />
<path fill="#D8D388" d="M208,320 L208,340 L191,350 L173,340 L173,320 L191,310 Z" />
<path fill="#4ee055" d="M173,320 L173,340 L156,350 L139,340 L139,320 L156,310 Z" />
<path fill="#D8D388" d="M139,320 L139,340 L121,350 L104,340 L104,320 L121,310 Z" />
<path fill="#D8D388" d="M104,320 L104,340 L87,350 L69,340 L69,320 L87,310 Z" />
<path fill="#4ee055" d="M69,320 L69,340 L52,350 L35,340 L35,320 L52,310 Z" />
<path fill="#D8D388" d="M35,320 L35,340 L17,350 L0,340 L0,320 L17,310 Z" />
<path fill="#D8D388" d="M0,320 L0,340 L-17,350 L-35,340 L-35,320 L-17,310 Z" />
<path fill="#4ee055" d="M-35,320 L-35,340 L-52,350 L-69,340 L-69,320 L-52,310 Z" />
<path fill="#D8D388" d="M-69,320 L-69,340 L-87,350 L-104,340 L-104,320 L-87,310 Z" />
<path fill="#D8D388" d="M-104,320 L-104,340 L-121,350 L-139,340 L-139,320 L-121,310 Z" />
<path fill="#4ee055" d="M-139,320 L-139,340 L-156,350 L-173,340 L-173,320 L-156,310 Z" />
<path fill="#D8D388" d="M-173,320 L-173,340 L-191,350 L-208,340 L-208,320 L-191,310 Z" />
<path fill="#4ee055" d="M-191,290 L-191,310 L-208,320 L-225,310 L-225,290 L-208,280 Z" />
<path fill="#D8D388" d="M-225,230 L-225,250 L-242,260 L-260,250 L-260,230 L-242,220 Z" />
<path fill="#D8D388" d="M-277,140 L-277,160 L-294,170 L-312,160 L-312,140 L-294,130 Z" />
<path fill="#4ee055" d="M-294,110 L-294,130 L-312,140 L-329,130 L-329,110 L-312,100 Z" />
<path fill="#D8D388" d="M398,50 L398,70 L381,80 L364,70 L364,50 L381,40 Z" />
<path fill="#4ee055" d="M381,80 L381,100 L364,110 L346,100 L346,80 L364,70 Z" />
<path fill="#D8D388" d="M364,110 L364,130 L346,140 L329,130 L329,110 L346,100 Z" />
<path fill="#D8D388" d="M346,140 L346,160 L329,170 L312,160 L312,140 L329,130 Z" />
<path fill="#4ee055" d="M329,170 L329,190 L312,200 L294,190 L294,170 L312,160 Z" />
<path fill="#D8D388" d="M312,200 L312,220 L294,230 L277,220 L277,200 L294,190 Z" />
<path fill="#D8D388" d="M294,230 L294,250 L277,260 L260,250 L260,230 L277,220 Z" />
<path fill="#4ee055" d="M277,260 L277,280 L260,290 L242,280 L242,260 L260,250 Z" />
<path fill="#D8D388" d="M260,290 L260,310 L242,320 L225,310 L225,290 L242,280 Z" />
<path fill="#D8D388" d="M242,320 L242,340 L225,350 L208,340 L208,320 L225,310 Z" />
<path fill="#4ee055" d="M225,350 L225,370 L208,380 L191,370 L191,350 L208,340 Z" />
<path fill="#D8D388" d="M191,350 L191,370 L173,380 L156,370 L156,350 L173,340 Z" />
<path fill="#D8D388" d="M156,350 L156,370 L139,380 L121,370 L121,350 L139,340 Z" />
<path fill="#4ee055" d="M121,350 L121,370 L104,380 L87,370 L87,350 L104,340 Z" />
<path fill="#D8D388" d="M87,350 L87,370 L69,380 L52,370 L52,350 L69,340 Z" />
<path fill="#D8D388" d="M52,350 L52,370 L35,380 L17,370 L17,350 L35,340 Z" />
<path fill="#4ee055" d="M17,350 L17,370 L0,380 L-17,370 L-17,350 L0,340 Z" />
<path fill="#D8D388" d="M-17,350 L-17,370 L-35,380 L-52,370 L-52,350 L-35,340 Z" />
<path fill="#D8D388" d="M-52,350 L-52,370 L-69,380 L-87,370 L-87,350 L-69,340 Z" />
<path fill="#4ee055" d="M-87,350 L-87,370 L-104,380 L-121,370 L-121,350 L-104,340 Z" />
<path fill="#D8D388" d="M-121,350 L-121,370 L-139,380 L-156,370 L-156,350 L-139,340 Z" />
<path fill="#D8D388" d="M-156,350 L-156,370 L-173,380 L-191,370 L-191,350 L-173,340 Z" />
<path fill="#4ee055" d="M-191,350 L-191,370 L-208,380 L-225,370 L-225,350 L-208,340 Z" />
<path fill="#D8D388" d="M-208,320 L-208,340 L-225,350 L-242,340 L-242,320 L-225,310 Z" />
<path fill="#D8D388" d="M-225,290 L-225,310 L-242,320 L-260,310 L-260,290 L-242,280 Z" />
<path fill="#4ee055" d="M-242,260 L-242,280 L-260,290 L-277,280 L-277,260 L-260,250 Z" />
<path fill="#D8D388" d="M-260,230 L-260,250 L-277,260 L-294,250 L-294,230 L-277,220 Z" />
<path fill="#D8D388" d="M-277,200 L-277,220 L-294,230 L-312,220 L-312,200 L-294,190 Z" />
<path fill="#4ee055" d="M-294,170 L-294,190 L-312,200 L-329,190 L-329,170 L-312,160 Z" />
<path fill="#D8D388" d="M-312,140 L-312,160 L-329,170 L-346,160 L-346,140 L-329,130 Z" />
<path fill="#D8D388" d="M-329,110 L-329,130 L-346,140 L-364,130 L-364,110 L-346,100 Z" />
<path fill="#D8D388" d="M450,20 L450,40 L433,50 L416,40 L416,20 L433,10 Z" />
<path fill="#4ee055" d="M433,50 L433,70 L416,80 L398,70 L398,50 L416,40 Z" />
<path fill="#D8D388" d="M416,80 L416,100 L398,110 L381,100 L381,80 L398,70 Z" />
<path fill="#D8D388" d="M398,110 L398,130 L381,140 L364,130 L364,110 L381,100 Z" />
<path fill="#4ee055" d="M381,140 L381,160 L364,170 L346,160 L346,140 L364,130 Z" />
<path fill="#D8D388" d="M364,170 L364,190 L346,200 L329,190 L329,170 L346,160 Z" />
<path fill="#D8D388" d="M346,200 L346,220 L329,230 L312,220 L312,200 L329,190 Z" />
<path fill="#4ee055" d="M329,230 L329,250 L312,260 L294,250 L294,230 L312,220 Z" />
<path fill="#D8D388" d="M312,260 L312,280 L294,290 L277,280 L277,260 L294,250 Z" />
<path fill="#D8D388" d="M294,290 L294,310 L277,320 L260,310 L260,290 L277,280 Z" />
<path fill="#4ee055" d="M277,320 L277,340 L260,350 L242,340 L242,320 L260,310 Z" />
<path fill="#D8D388" d="M260,350 L260,370 L242,380 L225,370 L225,350 L242,340 Z" />
<path fill="#D8D388" d="M242,380 L242,400 L225,410 L208,400 L208,380 L225,370 Z" />
<path fill="#D8D388" d="M208,380 L208,400 L191,410 L173,400 L173,380 L191,370 Z" />
<path fill="#4ee055" d="M173,380 L173,400 L156,410 L139,400 L139,380 L156,370 Z" />
<path fill="#D8D388" d="M139,380 L139,400 L121,410 L104,400 L104,380 L121,370 Z" />
<path fill="#D8D388" d="M104,380 L104,400 L87,410 L69,400 L69,380 L87,370 Z" />
<path fill="#4ee055" d="M69,380 L69,400 L52,410 L35,400 L35,380 L52,370 Z" />
<path fill="#D8D388" d="M35,380 L35,400 L17,410 L0,400 L0,380 L17,370 Z" />
<path fill="#D8D388" d="M0,380 L0,400 L-17,410 L-35,400 L-35,380 L-17,370 Z" />
<path fill="#4ee055" d="M-35,380 L-35,400 L-52,410 L-69,400 L-69,380 L-52,370 Z" />
<path fill="#D8D388" d="M-69,380 L-69,400 L-87,410 L-104,400 L-104,380 L-87,370 Z" />
<path fill="#D8D388" d="M-104,380 L-104,400 L-121,410 L-139,400 L-139,380 L-121,370 Z" />
<path fill="#4ee055" d="M-139,380 L-139,400 L-156,410 L-173,400 L-173,380 L-156,370 Z" />
<path fill="#D8D388" d="M-173,380 L-173,400 L-191,410 L-208,400 L-208,380 L-191,370 Z" />
<path fill="#D8D388" d="M-208,380 L-208,400 L-225,410 L-242,400 L-242,380 L-225,370 Z" />
<path fill="#D8D388" d="M-225,350 L-225,370 L-242,380 L-260,370 L-260,350 L-242,340 Z" />
<path fill="#4ee055" d="M-242,320 L-242,340 L-260,350 L-277,340 L-277,320 L-260,310 Z" />
<path fill="#D8D388" d="M-260,290 L-260,310 L-277,320 L-294,310 L-294,290 L-277,280 Z" />
<path fill="#D8D388" d="M-277,260 L-277,280 L-294,290 L-312,280 L-312,260 L-294,250 Z" />
<path fill="#4ee055" d="M-294,230 L-294,250 L-312,260 L-329,250 L-329,230 L-312,220 Z" />
<path fill="#D8D388" d="M-312,200 L-312,220 L-329,230 L-346,220 L-346,200 L-329,190 Z" />
<path fill="#D8D388" d="M-329,170 L-329,190 L-346,200 L-364,190 L-364,170 L-346,160 Z" />
<path fill="#4ee055" d="M-346,140 L-346,160 L-364,170 L-381,160 L-381,140 L-364,130 Z" />
<path fill="#D8D388" d="M502,-10 L502,10 L485,20 L468,10 L468,-10 L485,-20 Z" />
<path fill="#4ee055" d="M485,20 L485,40 L468,50 L450,40 L450,20 L468,10 Z" />
<path fill="#D8D388" d="M468,50 L468,70 L450,80 L433,70 L433,50 L450,40 Z" />
<path fill="#D8D388" d="M450,80 L450,100 L433,110 L416,100 L416,80 L433,70 Z" />
<path fill="#D8D388" d="M416,140 L416,160 L398,170 L381,160 L381,140 L398,130 Z" />
<path fill="#D8D388" d="M398,170 L398,190 L381,200 L364,190 L364,170 L381,160 Z" />
<path fill="#4ee055" d="M381,200 L381,220 L364,230 L346,220 L346,200 L364,190 Z" />
<path fill="#D8D388" d="M364,230 L364,250 L346,260 L329,250 L329,230 L346,220 Z" />
<path fill="#D8D388" d="M346,260 L346,280 L329,290 L312,280 L312,260 L329,250 Z" />
<path fill="#4ee055" d="M329,290 L329,310 L312,320 L294,310 L294,290 L312,280 Z" />
<path fill="#D8D388" d="M312,320 L312,340 L294,350 L277,340 L277,320 L294,310 Z" />
<path fill="#D8D388" d="M294,350 L294,370 L277,380 L260,370 L260,350 L277,340 Z" />
<path fill="#4ee055" d="M277,380 L277,400 L260,410 L242,400 L242,380 L260,370 Z" />
<path fill="#D8D388" d="M260,410 L260,430 L242,440 L225,430 L225,410 L242,400 Z" />
<path fill="#4ee055" d="M225,410 L225,430 L208,440 L191,430 L191,410 L208,400 Z" />
<path fill="#D8D388" d="M191,410 L191,430 L173,440 L156,430 L156,410 L173,400 Z" />
<path fill="#D8D388" d="M156,410 L156,430 L139,440 L121,430 L121,410 L139,400 Z" />
<path fill="#4ee055" d="M121,410 L121,430 L104,440 L87,430 L87,410 L104,400 Z" />
<path fill="#D8D388" d="M87,410 L87,430 L69,440 L52,430 L52,410 L69,400 Z" />
<path fill="#D8D388" d="M52,410 L52,430 L35,440 L17,430 L17,410 L35,400 Z" />
<path fill="#4ee055" d="M17,410 L17,430 L0,440 L-17,430 L-17,410 L0,400 Z" />
<path fill="#D8D388" d="M-17,410 L-17,430 L-35,440 L-52,430 L-52,410 L-35,400 Z" />
<path fill="#D8D388" d="M-52,410 L-52,430 L-69,440 L-87,430 L-87,410 L-69,400 Z" />
<path fill="#4ee055" d="M-87,410 L-87,430 L-104,440 L-121,430 L-121,410 L-104,400 Z" />
<path fill="#D8D388" d="M-121,410 L-121,430 L-139,440 L-156,430 L-156,410 L-139,400 Z" />
<path fill="#D8D388" d="M-156,410 L-156,430 L-173,440 L-191,430 L-191,410 L-173,400 Z" />
<path fill="#4ee055" d="M-191,410 L-191,430 L-208,440 L-225,430 L-225,410 L-208,400 Z" />
<path fill="#D8D388" d="M-225,410 L-225,430 L-242,440 L-260,430 L-260,410 L-242,400 Z" />
<path fill="#4ee055" d="M-242,380 L-242,400 L-260,410 L-277,400 L-277,380 L-260,370 Z" />
<path fill="#D8D388" d="M-260,350 L-260,370 L-277,380 L-294,370 L-294,350 L-277,340 Z" />
<path fill="#D8D388" d="M-277,320 L-277,340 L-294,350 L-312,340 L-312,320 L-294,310 Z" />
<path fill="#4ee055" d="M-294,290 L-294,310 L-312,320 L-329,310 L-329,290 L-312,280 Z" />
<path fill="#D8D388" d="M-312,260 L-312,280 L-329,290 L-346,280 L-346,260 L-329,250 Z" />
<path fill="#D8D388" d="M-329,230 L-329,250 L-346,260 L-364,250 L-364,230 L-346,220 Z" />
<path fill="#4ee055" d="M537,-10 L537,10 L520,20 L502,10 L502,-10 L520,-20 Z" />
<path fill="#D8D388" d="M520,20 L520,40 L502,50 L485,40 L485,20 L502,10 Z" />
<path fill="#D8D388" d="M468,110 L468,130 L450,140 L433,130 L433,110 L450,100 Z" />
<path fill="#D8D388" d="M450,140 L450,160 L433,170 L416,160 L416,140 L433,130 Z" />
<path fill="#4ee055" d="M433,170 L433,190 L416,200 L398,190 L398,170 L416,160 Z" />
<path fill="#D8D388" d="M416,200 L416,220 L398,230 L381,220 L381,200 L398,190 Z" />
<path fill="#4ee055" d="M381,260 L381,280 L364,290 L346,280 L346,260 L364,250 Z" />
<path fill="#D8D388" d="M364,290 L364,310 L346,320 L329,310 L329,290 L346,280 Z" />
<path fill="#D8D388" d="M346,320 L346,340 L329,350 L312,340 L312,320 L329,310 Z" />
<path fill="#4ee055" d="M329,350 L329,370 L312,380 L294,370 L294,350 L312,340 Z" />
<path fill="#D8D388" d="M312,380 L312,400 L294,410 L277,400 L277,380 L294,370 Z" />
<path fill="#D8D388" d="M294,410 L294,430 L277,440 L260,430 L260,410 L277,400 Z" />
<path fill="#4ee055" d="M277,440 L277,460 L260,470 L242,460 L242,440 L260,430 Z" />
<path fill="#D8D388" d="M242,440 L242,460 L225,470 L208,460 L208,440 L225,430 Z" />
<path fill="#D8D388" d="M208,440 L208,460 L191,470 L173,460 L173,440 L191,430 Z" />
<path fill="#4ee055" d="M173,440 L173,460 L156,470 L139,460 L139,440 L156,430 Z" />
<path fill="#D8D388" d="M139,440 L139,460 L121,470 L104,460 L104,440 L121,430 Z" />
<path fill="#D8D388" d="M104,440 L104,460 L87,470 L69,460 L69,440 L87,430 Z" />
<path fill="#4ee055" d="M69,440 L69,460 L52,470 L35,460 L35,440 L52,430 Z" />
<path fill="#D8D388" d="M35,440 L35,460 L17,470 L0,460 L0,440 L17,430 Z" />
<path fill="#D8D388" d="M0,440 L0,460 L-17,470 L-35,460 L-35,440 L-17,430 Z" />
<path fill="#4ee055" d="M-35,440 L-35,460 L-52,470 L-69,460 L-69,440 L-52,430 Z" />
<path fill="#D8D388" d="M-69,440 L-69,460 L-87,470 L-104,460 L-104,440 L-87,430 Z" />
<path fill="#D8D388" d="M-104,440 L-104,460 L-121,470 L-139,460 L-139,440 L-121,430 Z" />
<path fill="#4ee055" d="M-139,440 L-139,460 L-156,470 L-173,460 L-173,440 L-156,430 Z" />
<path fill="#D8D388" d="M-260,410 L-260,430 L-277,440 L-294,430 L-294,410 L-277,400 Z" />
<path fill="#D8D388" d="M-277,380 L-277,400 L-294,410 L-312,400 L-312,380 L-294,370 Z" />
<path fill="#4ee055" d="M-294,350 L-294,370 L-312,380 L-329,370 L-329,350 L-312,340 Z" />
<path fill="#D8D388" d="M-312,320 L-312,340 L-329,350 L-346,340 L-346,320 L-329,310 Z" />
<path fill="#D8D388" d="M-329,290 L-329,310 L-346,320 L-364,310 L-364,290 L-346,280 Z" />
<path fill="#4ee055" d="M-346,260 L-346,280 L-364,290 L-381,280 L-381,260 L-364,250 Z" />
<path fill="#D8D388" d="M554,-40 L554,-20 L537,-10 L520,-20 L520,-40 L537,-50 Z" />
<path fill="#D8D388" d="M520,80 L520,100 L502,110 L485,100 L485,80 L502,70 Z" />
<path fill="#D8D388" d="M502,110 L502,130 L485,140 L468,130 L468,110 L485,100 Z" />
<path fill="#4ee055" d="M485,140 L485,160 L468,170 L450,160 L450,140 L468,130 Z" />
<path fill="#D8D388" d="M416,260 L416,280 L398,290 L381,280 L381,260 L398,250 Z" />
<path fill="#D8D388" d="M398,290 L398,310 L381,320 L364,310 L364,290 L381,280 Z" />
<path fill="#4ee055" d="M381,320 L381,340 L364,350 L346,340 L346,320 L364,310 Z" />
<path fill="#D8D388" d="M364,350 L364,370 L346,380 L329,370 L329,350 L346,340 Z" />
<path fill="#D8D388" d="M346,380 L346,400 L329,410 L312,400 L312,380 L329,370 Z" />
<path fill="#4ee055" d="M329,410 L329,430 L312,440 L294,430 L294,410 L312,400 Z" />
<path fill="#D8D388" d="M312,440 L312,460 L294,470 L277,460 L277,440 L294,430 Z" />
<path fill="#D8D388" d="M294,470 L294,490 L277,500 L260,490 L260,470 L277,460 Z" />
<path fill="#D8D388" d="M260,470 L260,490 L242,500 L225,490 L225,470 L242,460 Z" />
<path fill="#4ee055" d="M225,470 L225,490 L208,500 L191,490 L191,470 L208,460 Z" />
<path fill="#D8D388" d="M191,470 L191,490 L173,500 L156,490 L156,470 L173,460 Z" />
<path fill="#D8D388" d="M156,470 L156,490 L139,500 L121,490 L121,470 L139,460 Z" />
<path fill="#4ee055" d="M121,470 L121,490 L104,500 L87,490 L87,470 L104,460 Z" />
<path fill="#D8D388" d="M-312,380 L-312,400 L-329,410 L-346,400 L-346,380 L-329,370 Z" />
<path fill="#D8D388" d="M-329,350 L-329,370 L-346,380 L-364,370 L-364,350 L-346,340 Z" />
<path fill="#4ee055" d="M589,-40 L589,-20 L572,-10 L554,-20 L554,-40 L572,-50 Z" />
<path fill="#D8D388" d="M572,50 L572,70 L554,80 L537,70 L537,50 L554,40 Z" />
<path fill="#D8D388" d="M554,80 L554,100 L537,110 L520,100 L520,80 L537,70 Z" />
<path fill="#4ee055" d="M537,110 L537,130 L520,140 L502,130 L502,110 L520,100 Z" />
<path fill="#4ee055" d="M433,290 L433,310 L416,320 L398,310 L398,290 L416,280 Z" />
<path fill="#D8D388" d="M416,320 L416,340 L398,350 L381,340 L381,320 L398,310 Z" />
<path fill="#D8D388" d="M398,350 L398,370 L381,380 L364,370 L364,350 L381,340 Z" />
<path fill="#4ee055" d="M381,380 L381,400 L364,410 L346,400 L346,380 L364,370 Z" />
<path fill="#D8D388" d="M364,410 L364,430 L346,440 L329,430 L329,410 L346,400 Z" />
<path fill="#D8D388" d="M346,440 L346,460 L329,470 L312,460 L312,440 L329,430 Z" />
<path fill="#4ee055" d="M329,470 L329,490 L312,500 L294,490 L294,470 L312,460 Z" />
<path fill="#D8D388" d="M312,500 L312,520 L294,530 L277,520 L277,500 L294,490 Z" />
<path fill="#4ee055" d="M277,500 L277,520 L260,530 L242,520 L242,500 L260,490 Z" />
<path fill="#D8D388" d="M242,500 L242,520 L225,530 L208,520 L208,500 L225,490 Z" />
<path fill="#4ee055" d="M-346,380 L-346,400 L-364,410 L-381,400 L-381,380 L-364,370 Z" />
<path fill="#D8D388" d="M-364,350 L-364,370 L-381,380 L-398,370 L-398,350 L-381,340 Z" />
<path fill="#D8D388" d="M606,-70 L606,-50 L589,-40 L572,-50 L572,-70 L589,-80 Z" />
<path fill="#4ee055" d="M641,-10 L641,10 L624,20 L606,10 L606,-10 L624,-20 Z" />
<path fill="#D8D388" d="M624,20 L624,40 L606,50 L589,40 L589,20 L606,10 Z" />
<path fill="#D8D388" d="M606,50 L606,70 L589,80 L572,70 L572,50 L589,40 Z" />
<path fill="#D8D388" d="M450,320 L450,340 L433,350 L416,340 L416,320 L433,310 Z" />
<path fill="#4ee055" d="M433,350 L433,370 L416,380 L398,370 L398,350 L416,340 Z" />
<path fill="#D8D388" d="M416,380 L416,400 L398,410 L381,400 L381,380 L398,370 Z" />
<path fill="#D8D388" d="M398,410 L398,430 L381,440 L364,430 L364,410 L381,400 Z" />
<path fill="#4ee055" d="M381,440 L381,460 L364,470 L346,460 L346,440 L364,430 Z" />
<path fill="#D8D388" d="M364,470 L364,490 L346,500 L329,490 L329,470 L346,460 Z" />
<path fill="#D8D388" d="M346,500 L346,520 L329,530 L312,520 L312,500 L329,490 Z" />
<path fill="#4ee055" d="M329,530 L329,550 L312,560 L294,550 L294,530 L312,520 Z" />
<path fill="#D8D388" d="M294,530 L294,550 L277,560 L260,550 L260,530 L277,520 Z" />
<path fill="#D8D388" d="M260,530 L260,550 L242,560 L225,550 L225,530 L242,520 Z" />
<path fill="#D8D388" d="M624,-100 L624,-80 L606,-70 L589,-80 L589,-100 L606,-110 Z" />
<path fill="#4ee055" d="M641,-70 L641,-50 L624,-40 L606,-50 L606,-70 L624,-80 Z" />
<path fill="#D8D388" d="M658,-40 L658,-20 L641,-10 L624,-20 L624,-40 L641,-50 Z" />
<path fill="#D8D388" d="M675,-10 L675,10 L658,20 L641,10 L641,-10 L658,-20 Z" />
<path fill="#D8D388" d="M658,20 L658,40 L641,50 L624,40 L624,20 L641,10 Z" />
<path fill="#4ee055" d="M485,320 L485,340 L468,350 L450,340 L450,320 L468,310 Z" />
<path fill="#D8D388" d="M468,350 L468,370 L450,380 L433,370 L433,350 L450,340 Z" />
<path fill="#D8D388" d="M450,380 L450,400 L433,410 L416,400 L416,380 L433,370 Z" />
<path fill="#4ee055" d="M433,410 L433,430 L416,440 L398,430 L398,410 L416,400 Z" />
<path fill="#D8D388" d="M416,440 L416,460 L398,470 L381,460 L381,440 L398,430 Z" />
<path fill="#D8D388" d="M398,470 L398,490 L381,500 L364,490 L364,470 L381,460 Z" />
<path fill="#4ee055" d="M381,500 L381,520 L364,530 L346,520 L346,500 L364,490 Z" />
<path fill="#D8D388" d="M364,530 L364,550 L346,560 L329,550 L329,530 L346,520 Z" />
<path fill="#D8D388" d="M346,560 L346,580 L329,590 L312,580 L312,560 L329,550 Z" />
<path fill="#D8D388" d="M312,560 L312,580 L294,590 L277,580 L277,560 L294,550 Z" />
<path fill="#D8D388" d="M624,-160 L624,-140 L606,-130 L589,-140 L589,-160 L606,-170 Z" />
<path fill="#4ee055" d="M641,-130 L641,-110 L624,-100 L606,-110 L606,-130 L624,-140 Z" />
<path fill="#D8D388" d="M675,-70 L675,-50 L658,-40 L641,-50 L641,-70 L658,-80 Z" />
<path fill="#4ee055" d="M693,-40 L693,-20 L675,-10 L658,-20 L658,-40 L675,-50 Z" />
<path fill="#D8D388" d="M502,350 L502,370 L485,380 L468,370 L468,350 L485,340 Z" />
<path fill="#4ee055" d="M485,380 L485,400 L468,410 L450,400 L450,380 L468,370 Z" />
<path fill="#D8D388" d="M468,410 L468,430 L450,440 L433,430 L433,410 L450,400 Z" />
<path fill="#D8D388" d="M450,440 L450,460 L433,470 L416,460 L416,440 L433,430 Z" />
<path fill="#4ee055" d="M433,470 L433,490 L416,500 L398,490 L398,470 L416,460 Z" />
<path fill="#D8D388" d="M416,500 L416,520 L398,530 L381,520 L381,500 L398,490 Z" />
<path fill="#D8D388" d="M398,530 L398,550 L381,560 L364,550 L364,530 L381,520 Z" />
<path fill="#4ee055" d="M381,560 L381,580 L364,590 L346,580 L346,560 L364,550 Z" />
<path fill="#D8D388" d="M364,590 L364,610 L346,620 L329,610 L329,590 L346,580 Z" />
<path fill="#4ee055" d="M329,590 L329,610 L312,620 L294,610 L294,590 L312,580 Z" />
<path fill="#D8D388" d="M520,380 L520,400 L502,410 L485,400 L485,380 L502,370 Z" />
<path fill="#D8D388" d="M502,410 L502,430 L485,440 L468,430 L468,410 L485,400 Z" />
<path fill="#4ee055" d="M485,440 L485,460 L468,470 L450,460 L450,440 L468,430 Z" />
<path fill="#D8D388" d="M468,470 L468,490 L450,500 L433,490 L433,470 L450,460 Z" />
<path fill="#D8D388" d="M450,500 L450,520 L433,530 L416,520 L416,500 L433,490 Z" />
<path fill="#4ee055" d="M433,530 L433,550 L416,560 L398,550 L398,530 L416,520 Z" />
<path fill="#D8D388" d="M416,560 L416,580 L398,590 L381,580 L381,560 L398,550 Z" />
<path fill="#D8D388" d="M398,590 L398,610 L381,620 L364,610 L364,590 L381,580 Z" />
<path fill="#4ee055" d="M381,620 L381,640 L364,650 L346,640 L346,620 L364,610 Z" />
<path fill="#D8D388" d="M346,620 L346,640 L329,650 L312,640 L312,620 L329,610 Z" />
<path fill="#4ee055" d="M537,410 L537,430 L520,440 L502,430 L502,410 L520,400 Z" />
<path fill="#D8D388" d="M520,440 L520,460 L502,470 L485,460 L485,440 L502,430 Z" />
<path fill="#D8D388" d="M502,470 L502,490 L485,500 L468,490 L468,470 L485,460 Z" />
<path fill="#4ee055" d="M485,500 L485,520 L468,530 L450,520 L450,500 L468,490 Z" />
<path fill="#D8D388" d="M468,530 L468,550 L450,560 L433,550 L433,530 L450,520 Z" />
<path fill="#D8D388" d="M450,560 L450,580 L433,590 L416,580 L416,560 L433,550 Z" />
<path fill="#4ee055" d="M433,590 L433,610 L416,620 L398,610 L398,590 L416,580 Z" />
<path fill="#D8D388" d="M416,620 L416,640 L398,650 L381,640 L381,620 L398,610 Z" />
<path fill="#D8D388" d="M398,650 L398,670 L381,680 L364,670 L364,650 L381,640 Z" />
<path fill="#D8D388" d="M364,650 L364,670 L346,680 L329,670 L329,650 L346,640 Z" />
<path fill="#D8D388" d="M554,440 L554,460 L537,470 L520,460 L520,440 L537,430 Z" />
<path fill="#4ee055" d="M537,470 L537,490 L520,500 L502,490 L502,470 L520,460 Z" />
<path fill="#D8D388" d="M520,500 L520,520 L502,530 L485,520 L485,500 L502,490 Z" />
<path fill="#D8D388" d="M502,530 L502,550 L485,560 L468,550 L468,530 L485,520 Z" />
<path fill="#4ee055" d="M485,560 L485,580 L468,590 L450,580 L450,560 L468,550 Z" />
<path fill="#D8D388" d="M468,590 L468,610 L450,620 L433,610 L433,590 L450,580 Z" />
<path fill="#D8D388" d="M450,620 L450,640 L433,650 L416,640 L416,620 L433,610 Z" />
<path fill="#4ee055" d="M433,650 L433,670 L416,680 L398,670 L398,650 L416,640 Z" />
<path fill="#D8D388" d="M416,680 L416,700 L398,710 L381,700 L381,680 L398,670 Z" />
<path fill="#4ee055" d="M381,680 L381,700 L364,710 L346,700 L346,680 L364,670 Z" />
<path fill="#D8D388" d="M572,470 L572,490 L554,500 L537,490 L537,470 L554,460 Z" />
<path fill="#D8D388" d="M554,500 L554,520 L537,530 L520,520 L520,500 L537,490 Z" />
<path fill="#4ee055" d="M537,530 L537,550 L520,560 L502,550 L502,530 L520,520 Z" />
<path fill="#D8D388" d="M520,560 L520,580 L502,590 L485,580 L485,560 L502,550 Z" />
<path fill="#D8D388" d="M502,590 L502,610 L485,620 L468,610 L468,590 L485,580 Z" />
<path fill="#4ee055" d="M485,620 L485,640 L468,650 L450,640 L450,620 L468,610 Z" />
<path fill="#D8D388" d="M468,650 L468,670 L450,680 L433,670 L433,650 L450,640 Z" />
<path fill="#D8D388" d="M450,680 L450,700 L433,710 L416,700 L416,680 L433,670 Z" />
<path fill="#4ee055" d="M433,710 L433,730 L416,740 L398,730 L398,710 L416,700 Z" />
<path fill="#D8D388" d="M398,710 L398,730 L381,740 L364,730 L364,710 L381,700 Z" />
<path fill="#4ee055" d="M589,500 L589,520 L572,530 L554,520 L554,500 L572,490 Z" />
<path fill="#D8D388" d="M572,530 L572,550 L554,560 L537,550 L537,530 L554,520 Z" />
<path fill="#D8D388" d="M554,560 L554,580 L537,590 L520,580 L520,560 L537,550 Z" />
<path fill="#4ee055" d="M537,590 L537,610 L520,620 L502,610 L502,590 L520,580 Z" />
<path fill="#D8D388" d="M520,620 L520,640 L502,650 L485,640 L485,620 L502,610 Z" />
<path fill="#D8D388" d="M502,650 L502,670 L485,680 L468,670 L468,650 L485,640 Z" />
<path fill="#4ee055" d="M485,680 L485,700 L468,710 L450,700 L450,680 L468,670 Z" />
<path fill="#D8D388" d="M468,710 L468,730 L450,740 L433,730 L433,710 L450,700 Z" />
<path fill="#D8D388" d="M450,740 L450,760 L433,770 L416,760 L416,740 L433,730 Z" />
<path fill="#D8D388" d="M606,530 L606,550 L589,560 L572,550 L572,530 L589,520 Z" />
<path fill="#4ee055" d="M589,560 L589,580 L572,590 L554,580 L554,560 L572,550 Z" />
<path fill="#D8D388" d="M572,590 L572,610 L554,620 L537,610 L537,590 L554,580 Z" />
<path fill="#D8D388" d="M554,620 L554,640 L537,650 L520,640 L520,620 L537,610 Z" />
<path fill="#4ee055" d="M537,650 L537,670 L520,680 L502,670 L502,650 L520,640 Z" />
<path fill="#D8D388" d="M520,680 L520,700 L502,710 L485,700 L485,680 L502,670 Z" />
<path fill="#D8D388" d="M502,710 L502,730 L485,740 L468,730 L468,710 L485,700 Z" />
<path fill="#4ee055" d="M485,740 L485,760 L468,770 L450,760 L450,740 L468,730 Z" />
<path fill="#D8D388" d="M468,770 L468,790 L450,800 L433,790 L433,770 L450,760 Z" />
<path fill="#4ee055" d="M641,530 L641,550 L624,560 L606,550 L606,530 L624,520 Z" />
<path fill="#D8D388" d="M624,560 L624,580 L606,590 L589,580 L589,560 L606,550 Z" />
<path fill="#D8D388" d="M606,590 L606,610 L589,620 L572,610 L572,590 L589,580 Z" />
<path fill="#4ee055" d="M589,620 L589,640 L572,650 L554,640 L554,620 L572,610 Z" />
<path fill="#D8D388" d="M572,650 L572,670 L554,680 L537,670 L537,650 L554,640 Z" />
<path fill="#D8D388" d="M554,680 L554,700 L537,710 L520,700 L520,680 L537,670 Z" />
<path fill="#4ee055" d="M537,710 L537,730 L520,740 L502,730 L502,710 L520,700 Z" />
<path fill="#D8D388" d="M520,740 L520,760 L502,770 L485,760 L485,740 L502,730 Z" />
<path fill="#D8D388" d="M502,770 L502,790 L485,800 L468,790 L468,770 L485,760 Z" />
<path fill="#4ee055" d="M485,800 L485,820 L468,830 L450,820 L450,800 L468,790 Z" />
<path fill="#4ee055" d="M693,500 L693,520 L675,530 L658,520 L658,500 L675,490 Z" />
<path fill="#D8D388" d="M675,530 L675,550 L658,560 L641,550 L641,530 L658,520 Z" />
<path fill="#D8D388" d="M658,560 L658,580 L641,590 L624,580 L624,560 L641,550 Z" />
<path fill="#4ee055" d="M641,590 L641,610 L624,620 L606,610 L606,590 L624,580 Z" />
<path fill="#D8D388" d="M624,620 L624,640 L606,650 L589,640 L589,620 L606,610 Z" />
<path fill="#D8D388" d="M606,650 L606,670 L589,680 L572,670 L572,650 L589,640 Z" />
<path fill="#4ee055" d="M589,680 L589,700 L572,710 L554,700 L554,680 L572,670 Z" />
<path fill="#D8D388" d="M572,710 L572,730 L554,740 L537,730 L537,710 L554,700 Z" />
<path fill="#D8D388" d="M554,740 L554,760 L537,770 L520,760 L520,740 L537,730 Z" />
<path fill="#4ee055" d="M537,770 L537,790 L520,800 L502,790 L502,770 L520,760 Z" />
<path fill="#D8D388" d="M520,800 L520,820 L502,830 L485,820 L485,800 L502,790 Z" />
<path fill="#D8D388" d="M727,500 L727,520 L710,530 L693,520 L693,500 L710,490 Z" />
<path fill="#D8D388" d="M710,530 L710,550 L693,560 L675,550 L675,530 L693,520 Z" />
<path fill="#4ee055" d="M693,560 L693,580 L675,590 L658,580 L658,560 L675,550 Z" />
<path fill="#D8D388" d="M675,590 L675,610 L658,620 L641,610 L641,590 L658,580 Z" />
<path fill="#D8D388" d="M658,620 L658,640 L641,650 L624,640 L624,620 L641,610 Z" />
<path fill="#4ee055" d="M641,650 L641,670 L624,680 L606,670 L606,650 L624,640 Z" />
<path fill="#D8D388" d="M624,680 L624,700 L606,710 L589,700 L589,680 L606,670 Z" />
<path fill="#D8D388" d="M606,710 L606,730 L589,740 L572,730 L572,710 L589,700 Z" />
<path fill="#4ee055" d="M589,740 L589,760 L572,770 L554,760 L554,740 L572,730 Z" />
<path fill="#D8D388" d="M572,770 L572,790 L554,800 L537,790 L537,770 L554,760 Z" />
<path fill="#D8D388" d="M554,800 L554,820 L537,830 L520,820 L520,800 L537,790 Z" />
<path fill="#4ee055" d="M537,830 L537,850 L520,860 L502,850 L502,830 L520,820 Z" />
<path fill="#D8D388" d="M779,470 L779,490 L762,500 L745,490 L745,470 L762,460 Z" />
<path fill="#D8D388" d="M762,500 L762,520 L745,530 L727,520 L727,500 L745,490 Z" />
<path fill="#4ee055" d="M745,530 L745,550 L727,560 L710,550 L710,530 L727,520 Z" />
<path fill="#D8D388" d="M727,560 L727,580 L710,590 L693,580 L693,560 L710,550 Z" />
<path fill="#D8D388" d="M710,590 L710,610 L693,620 L675,610 L675,590 L693,580 Z" />
<path fill="#4ee055" d="M693,620 L693,640 L675,650 L658,640 L658,620 L675,610 Z" />
<path fill="#D8D388" d="M675,650 L675,670 L658,680 L641,670 L641,650 L658,640 Z" />
<path fill="#D8D388" d="M658,680 L658,700 L641,710 L624,700 L624,680 L641,670 Z" />
<path fill="#4ee055" d="M641,710 L641,730 L624,740 L606,730 L606,710 L624,700 Z" />
<path fill="#D8D388" d="M624,740 L624,760 L606,770 L589,760 L589,740 L606,730 Z" />
<path fill="#D8D388" d="M606,770 L606,790 L589,800 L572,790 L572,770 L589,760 Z" />
<path fill="#4ee055" d="M589,800 L589,820 L572,830 L554,820 L554,800 L572,790 Z" />
<path fill="#D8D388" d="M572,830 L572,850 L554,860 L537,850 L537,830 L554,820 Z" />
<path fill="#D8D388" d="M554,860 L554,880 L537,890 L520,880 L520,860 L537,850 Z" />
<path fill="#D8D388" d="M814,470 L814,490 L797,500 L779,490 L779,470 L797,460 Z" />
<path fill="#4ee055" d="M797,500 L797,520 L779,530 L762,520 L762,500 L779,490 Z" />
<path fill="#D8D388" d="M779,530 L779,550 L762,560 L745,550 L745,530 L762,520 Z" />
<path fill="#D8D388" d="M762,560 L762,580 L745,590 L727,580 L727,560 L745,550 Z" />
<path fill="#4ee055" d="M745,590 L745,610 L727,620 L710,610 L710,590 L727,580 Z" />
<path fill="#D8D388" d="M727,620 L727,640 L710,650 L693,640 L693,620 L710,610 Z" />
<path fill="#D8D388" d="M710,650 L710,670 L693,680 L675,670 L675,650 L693,640 Z" />
<path fill="#4ee055" d="M693,680 L693,700 L675,710 L658,700 L658,680 L675,670 Z" />
<path fill="#D8D388" d="M675,710 L675,730 L658,740 L641,730 L641,710 L658,700 Z" />
<path fill="#D8D388" d="M658,740 L658,760 L641,770 L624,760 L624,740 L641,730 Z" />
<path fill="#4ee055" d="M641,770 L641,790 L624,800 L606,790 L606,770 L624,760 Z" />
<path fill="#D8D388" d="M624,800 L624,820 L606,830 L589,820 L589,800 L606,790 Z" />
<path fill="#D8D388" d="M606,830 L606,850 L589,860 L572,850 L572,830 L589,820 Z" />
<path fill="#4ee055" d="M589,860 L589,880 L572,890 L554,880 L554,860 L572,850 Z" />
<path fill="#D8D388" d="M866,440 L866,460 L849,470 L831,460 L831,440 L849,430 Z" />
<path fill="#4ee055" d="M849,470 L849,490 L831,500 L814,490 L814,470 L831,460 Z" />
<path fill="#D8D388" d="M831,500 L831,520 L814,530 L797,520 L797,500 L814,490 Z" />
<path fill="#D8D388" d="M814,530 L814,550 L797,560 L779,550 L779,530 L797,520 Z" />
<path fill="#D8D388" d="M779,590 L779,610 L762,620 L745,610 L745,590 L762,580 Z" />
<path fill="#D8D388" d="M762,620 L762,640 L745,650 L727,640 L727,620 L745,610 Z" />
<path fill="#4ee055" d="M745,650 L745,670 L727,680 L710,670 L710,650 L727,640 Z" />
<path fill="#D8D388" d="M727,680 L727,700 L710,710 L693,700 L693,680 L710,670 Z" />
<path fill="#D8D388" d="M710,710 L710,730 L693,740 L675,730 L675,710 L693,700 Z" />
<path fill="#4ee055" d="M693,740 L693,760 L675,770 L658,760 L658,740 L675,730 Z" />
<path fill="#D8D388" d="M675,770 L675,790 L658,800 L641,790 L641,770 L658,760 Z" />
<path fill="#D8D388" d="M658,800 L658,820 L641,830 L624,820 L624,800 L641,790 Z" />
<path fill="#4ee055" d="M641,830 L641,850 L624,860 L606,850 L606,830 L624,820 Z" />
<path fill="#D8D388" d="M624,860 L624,880 L606,890 L589,880 L589,860 L606,850 Z" />
<path fill="#D8D388" d="M606,890 L606,910 L589,920 L572,910 L572,890 L589,880 Z" />
<path fill="#D8D388" d="M1022,230 L1022,250 L1005,260 L987,250 L987,230 L1005,220 Z" />
<path fill="#4ee055" d="M1005,260 L1005,280 L987,290 L970,280 L970,260 L987,250 Z" />
<path fill="#D8D388" d="M987,290 L987,310 L970,320 L953,310 L953,290 L970,280 Z" />
<path fill="#D8D388" d="M970,320 L970,340 L953,350 L935,340 L935,320 L953,310 Z" />
<path fill="#4ee055" d="M953,350 L953,370 L935,380 L918,370 L918,350 L935,340 Z" />
<path fill="#D8D388" d="M935,380 L935,400 L918,410 L901,400 L901,380 L918,370 Z" />
<path fill="#D8D388" d="M918,410 L918,430 L901,440 L883,430 L883,410 L901,400 Z" />
<path fill="#4ee055" d="M901,440 L901,460 L883,470 L866,460 L866,440 L883,430 Z" />
<path fill="#D8D388" d="M883,470 L883,490 L866,500 L849,490 L849,470 L866,460 Z" />
<path fill="#D8D388" d="M866,500 L866,520 L849,530 L831,520 L831,500 L849,490 Z" />
<path fill="#D8D388" d="M814,590 L814,610 L797,620 L779,610 L779,590 L797,580 Z" />
<path fill="#4ee055" d="M797,620 L797,640 L779,650 L762,640 L762,620 L779,610 Z" />
<path fill="#D8D388" d="M779,650 L779,670 L762,680 L745,670 L745,650 L762,640 Z" />
<path fill="#D8D388" d="M762,680 L762,700 L745,710 L727,700 L727,680 L745,670 Z" />
<path fill="#4ee055" d="M745,710 L745,730 L727,740 L710,730 L710,710 L727,700 Z" />
<path fill="#D8D388" d="M727,740 L727,760 L710,770 L693,760 L693,740 L710,730 Z" />
<path fill="#D8D388" d="M710,770 L710,790 L693,800 L675,790 L675,770 L693,760 Z" />
<path fill="#4ee055" d="M693,800 L693,820 L675,830 L658,820 L658,800 L675,790 Z" />
<path fill="#D8D388" d="M675,830 L675,850 L658,860 L641,850 L641,830 L658,820 Z" />
<path fill="#D8D388" d="M658,860 L658,880 L641,890 L624,880 L624,860 L641,850 Z" />
<path fill="#4ee055" d="M641,890 L641,910 L624,920 L606,910 L606,890 L624,880 Z" />
<path fill="#4ee055" d="M1005,320 L1005,340 L987,350 L970,340 L970,320 L987,310 Z" />
<path fill="#4ee055" d="M901,500 L901,520 L883,530 L866,520 L866,500 L883,490 Z" />
<path fill="#D8D388" d="M866,560 L866,580 L849,590 L831,580 L831,560 L849,550 Z" />
<path fill="#4ee055" d="M849,590 L849,610 L831,620 L814,610 L814,590 L831,580 Z" />
<path fill="#D8D388" d="M831,620 L831,640 L814,650 L797,640 L797,620 L814,610 Z" />
<path fill="#D8D388" d="M814,650 L814,670 L797,680 L779,670 L779,650 L797,640 Z" />
<path fill="#D8D388" d="M779,710 L779,730 L762,740 L745,730 L745,710 L762,700 Z" />
<path fill="#D8D388" d="M762,740 L762,760 L745,770 L727,760 L727,740 L745,730 Z" />
<path fill="#4ee055" d="M745,770 L745,790 L727,800 L710,790 L710,770 L727,760 Z" />
<path fill="#D8D388" d="M727,800 L727,820 L710,830 L693,820 L693,800 L710,790 Z" />
<path fill="#D8D388" d="M710,830 L710,850 L693,860 L675,850 L675,830 L693,820 Z" />
<path fill="#4ee055" d="M693,860 L693,880 L675,890 L658,880 L658,860 L675,850 Z" />
<path fill="#D8D388" d="M675,890 L675,910 L658,920 L641,910 L641,890 L658,880 Z" />
<path fill="#D8D388" d="M658,920 L658,940 L641,950 L624,940 L624,920 L641,910 Z" />
<path fill="#4ee055" d="M901,560 L901,580 L883,590 L866,580 L866,560 L883,550 Z" />
<path fill="#D8D388" d="M883,590 L883,610 L866,620 L849,610 L849,590 L866,580 Z" />
<path fill="#D8D388" d="M866,620 L866,640 L849,650 L831,640 L831,620 L849,610 Z" />
<path fill="#D8D388" d="M831,680 L831,700 L814,710 L797,700 L797,680 L814,670 Z" />
<path fill="#D8D388" d="M814,710 L814,730 L797,740 L779,730 L779,710 L797,700 Z" />
<path fill="#4ee055" d="M797,740 L797,760 L779,770 L762,760 L762,740 L779,730 Z" />
<path fill="#D8D388" d="M779,770 L779,790 L762,800 L745,790 L745,770 L762,760 Z" />
<path fill="#D8D388" d="M762,800 L762,820 L745,830 L727,820 L727,800 L745,790 Z" />
<path fill="#4ee055" d="M745,830 L745,850 L727,860 L710,850 L710,830 L727,820 Z" />
<path fill="#D8D388" d="M727,860 L727,880 L710,890 L693,880 L693,860 L710,850 Z" />
<path fill="#D8D388" d="M710,890 L710,910 L693,920 L675,910 L675,890 L693,880 Z" />
<path fill="#4ee055" d="M953,530 L953,550 L935,560 L918,550 L918,530 L935,520 Z" />
<path fill="#D8D388" d="M935,560 L935,580 L918,590 L901,580 L901,560 L918,550 Z" />
<path fill="#D8D388" d="M918,590 L918,610 L901,620 L883,610 L883,590 L901,580 Z" />
<path fill="#D8D388" d="M883,650 L883,670 L866,680 L849,670 L849,650 L866,640 Z" />
<path fill="#D8D388" d="M866,680 L866,700 L849,710 L831,700 L831,680 L849,670 Z" />
<path fill="#4ee055" d="M849,710 L849,730 L831,740 L814,730 L814,710 L831,700 Z" />
<path fill="#D8D388" d="M831,740 L831,760 L814,770 L797,760 L797,740 L814,730 Z" />
<path fill="#D8D388" d="M814,770 L814,790 L797,800 L779,790 L779,770 L797,760 Z" />
<path fill="#4ee055" d="M797,800 L797,820 L779,830 L762,820 L762,800 L779,790 Z" />
<path fill="#D8D388" d="M779,830 L779,850 L762,860 L745,850 L745,830 L762,820 Z" />
<path fill="#D8D388" d="M762,860 L762,880 L745,890 L727,880 L727,860 L745,850 Z" />
<path fill="#4ee055" d="M1005,500 L1005,520 L987,530 L970,520 L970,500 L987,490 Z" />
<path fill="#D8D388" d="M987,530 L987,550 L970,560 L953,550 L953,530 L970,520 Z" />
<path fill="#D8D388" d="M970,560 L970,580 L953,590 L935,580 L935,560 L953,550 Z" />
<path fill="#D8D388" d="M918,650 L918,670 L901,680 L883,670 L883,650 L901,640 Z" />
<path fill="#4ee055" d="M901,680 L901,700 L883,710 L866,700 L866,680 L883,670 Z" />
<path fill="#D8D388" d="M883,710 L883,730 L866,740 L849,730 L849,710 L866,700 Z" />
<path fill="#D8D388" d="M866,740 L866,760 L849,770 L831,760 L831,740 L849,730 Z" />
<path fill="#4ee055" d="M849,770 L849,790 L831,800 L814,790 L814,770 L831,760 Z" />
<path fill="#D8D388" d="M831,800 L831,820 L814,830 L797,820 L797,800 L814,790 Z" />
<path fill="#D8D388" d="M814,830 L814,850 L797,860 L779,850 L779,830 L797,820 Z" />
<path fill="#4ee055" d="M1109,380 L1109,400 L1091,410 L1074,400 L1074,380 L1091,370 Z" />
<path fill="#D8D388" d="M1091,410 L1091,430 L1074,440 L1057,430 L1057,410 L1074,400 Z" />
<path fill="#D8D388" d="M1074,440 L1074,460 L1057,470 L1039,460 L1039,440 L1057,430 Z" />
<path fill="#4ee055" d="M1057,470 L1057,490 L1039,500 L1022,490 L1022,470 L1039,460 Z" />
<path fill="#D8D388" d="M1039,500 L1039,520 L1022,530 L1005,520 L1005,500 L1022,490 Z" />
<path fill="#D8D388" d="M970,620 L970,640 L953,650 L935,640 L935,620 L953,610 Z" />
<path fill="#4ee055" d="M953,650 L953,670 L935,680 L918,670 L918,650 L935,640 Z" />
<path fill="#D8D388" d="M935,680 L935,700 L918,710 L901,700 L901,680 L918,670 Z" />
<path fill="#D8D388" d="M918,710 L918,730 L901,740 L883,730 L883,710 L901,700 Z" />
<path fill="#4ee055" d="M901,740 L901,760 L883,770 L866,760 L866,740 L883,730 Z" />
<path fill="#D8D388" d="M883,770 L883,790 L866,800 L849,790 L849,770 L866,760 Z" />
<path fill="#D8D388" d="M1126,410 L1126,430 L1109,440 L1091,430 L1091,410 L1109,400 Z" />
<path fill="#4ee055" d="M1109,440 L1109,460 L1091,470 L1074,460 L1074,440 L1091,430 Z" />
</g>
</svg>