<?xml version="1.0" encoding="utf-8"?>
<svg viewBox="-588.0312491696338 -559.0 1505.1521517773544 1298.0" preserveAspectRatio="xMidYMid meet" version="1.1" baseProfile="full" xmlns="http://www.w3.org/2000/svg" style="background-color: black;">
<g style="stroke:#ffffff; stroke-width: 1; stroke-linejoin: round;">
<path fill="#D8D388" d="M-52,-130 L-52,-110 L-69,-100 L-87,-110 L-87,-130 L-69,-140 Z" />
<path fill="#D8D388" d="M-104,-40 L-104,-20 L-121,-10 L-139,-20 L-139,-40 L-121,-50 Z" />
<path fill="#D8D388" d="M-69,-100 L-69,-80 L-87,-70 L-104,-80 L-104,-100 L-87,-110 Z" />
<path fill="#D8D388" d="M-52,-130 L-52,-110 L-69,-100 L-87,-110 L-87,-130 L-69,-140 Z" />
<path fill="#D8D388" d="M-69,-160 L-69,-140 L-87,-130 L-104,-140 L-104,-160 L-87,-170 Z" />
<path fill="#4ee055" d="M-35,-160 L-35,-140 L-52,-130 L-69,-140 L-69,-160 L-52,-170 Z" />
<path fill="#D8D388" d="M0,-160 L0,-140 L-17,-130 L-35,-140 L-35,-160 L-17,-170 Z" />
<path fill="#4ee055" d="M-139,20 L-139,40 L-156,50 L-173,40 L-173,20 L-156,10 Z" />
<path fill="#D8D388" d="M-156,-10 L-156,10 L-173,20 L-191,10 L-191,-10 L-173,-20 Z" />
<path fill="#4ee055" d="M-139,-40 L-139,-20 L-156,-10 L-173,-20 L-173,-40 L-156,-50 Z" />
<path fill="#D8D388" d="M-121,-70 L-121,-50 L-139,-40 L-156,-50 L-156,-70 L-139,-80 Z" />
<path fill="#D8D388" d="M-104,-100 L-104,-80 L-121,-70 L-139,-80 L-139,-100 L-121,-110 Z" />
<path fill="#4ee055" d="M-87,-130 L-87,-110 L-104,-100 L-121,-110 L-121,-130 L-104,-140 Z" />
<path fill="#D8D388" d="M-69,-160 L-69,-140 L-87,-130 L-104,-140 L-104,-160 L-87,-170 Z" />
<path fill="#4ee055" d="M-87,-190 L-87,-170 L-104,-160 L-121,-170 L-121,-190 L-104,-200 Z" />
<path fill="#D8D388" d="M-52,-190 L-52,-170 L-69,-160 L-87,-170 L-87,-190 L-69,-200 Z" />
<path fill="#D8D388" d="M-17,-190 L-17,-170 L-35,-160 L-52,-170 L-52,-190 L-35,-200 Z" />
<path fill="#4ee055" d="M17,-190 L17,-170 L0,-160 L-17,-170 L-17,-190 L0,-200 Z" />
<path fill="#D8D388" d="M52,-190 L52,-170 L35,-160 L17,-170 L17,-190 L35,-200 Z" />
<path fill="#D8D388" d="M87,-190 L87,-170 L69,-160 L52,-170 L52,-190 L69,-200 Z" />
<path fill="#4ee055" d="M-139,80 L-139,100 L-156,110 L-173,100 L-173,80 L-156,70 Z" />
<path fill="#D8D388" d="M-156,50 L-156,70 L-173,80 L-191,70 L-191,50 L-173,40 Z" />
<path fill="#D8D388" d="M-173,20 L-173,40 L-191,50 L-208,40 L-208,20 L-191,10 Z" />
<path fill="#4ee055" d="M-191,-10 L-191,10 L-208,20 L-225,10 L-225,-10 L-208,-20 Z" />
<path fill="#D8D388" d="M-173,-40 L-173,-20 L-191,-10 L-208,-20 L-208,-40 L-191,-50 Z" />
<path fill="#D8D388" d="M-156,-70 L-156,-50 L-173,-40 L-191,-50 L-191,-70 L-173,-80 Z" />
<path fill="#4ee055" d="M-139,-100 L-139,-80 L-156,-70 L-173,-80 L-173,-100 L-156,-110 Z" />
<path fill="#D8D388" d="M-121,-130 L-121,-110 L-139,-100 L-156,-110 L-156,-130 L-139,-140 Z" />
<path fill="#D8D388" d="M-104,-160 L-104,-140 L-121,-130 L-139,-140 L-139,-160 L-121,-170 Z" />
<path fill="#4ee055" d="M-87,-190 L-87,-170 L-104,-160 L-121,-170 L-121,-190 L-104,-200 Z" />
<path fill="#4ee055" d="M-35,-220 L-35,-200 L-52,-190 L-69,-200 L-69,-220 L-52,-230 Z" />
<path fill="#D8D388" d="M0,-220 L0,-200 L-17,-190 L-35,-200 L-35,-220 L-17,-230 Z" />
<path fill="#D8D388" d="M35,-220 L35,-200 L17,-190 L0,-200 L0,-220 L17,-230 Z" />
<path fill="#4ee055" d="M69,-220 L69,-200 L52,-190 L35,-200 L35,-220 L52,-230 Z" />
<path fill="#D8D388" d="M104,-220 L104,-200 L87,-190 L69,-200 L69,-220 L87,-230 Z" />
<path fill="#D8D388" d="M139,-220 L139,-200 L121,-190 L104,-200 L104,-220 L121,-230 Z" />
<path fill="#4ee055" d="M-139,140 L-139,160 L-156,170 L-173,160 L-173,140 L-156,130 Z" />
<path fill="#D8D388" d="M-156,110 L-156,130 L-173,140 L-191,130 L-191,110 L-173,100 Z" />
<path fill="#D8D388" d="M-173,80 L-173,100 L-191,110 L-208,100 L-208,80 L-191,70 Z" />
<path fill="#4ee055" d="M-191,50 L-191,70 L-208,80 L-225,70 L-225,50 L-208,40 Z" />
<path fill="#D8D388" d="M-208,20 L-208,40 L-225,50 L-242,40 L-242,20 L-225,10 Z" />
<path fill="#D8D388" d="M-173,-100 L-173,-80 L-191,-70 L-208,-80 L-208,-100 L-191,-110 Z" />
<path fill="#4ee055" d="M17,-250 L17,-230 L0,-220 L-17,-230 L-17,-250 L0,-260 Z" />
<path fill="#D8D388" d="M52,-250 L52,-230 L35,-220 L17,-230 L17,-250 L35,-260 Z" />
<path fill="#D8D388" d="M87,-250 L87,-230 L69,-220 L52,-230 L52,-250 L69,-260 Z" />
<path fill="#4ee055" d="M121,-250 L121,-230 L104,-220 L87,-230 L87,-250 L104,-260 Z" />
<path fill="#D8D388" d="M156,-250 L156,-230 L139,-220 L121,-230 L121,-250 L139,-260 Z" />
<path fill="#4ee055" d="M173,-220 L173,-200 L156,-190 L139,-200 L139,-220 L156,-230 Z" />
<path fill="#D8D388" d="M-121,230 L-121,250 L-139,260 L-156,250 L-156,230 L-139,220 Z" />
<path fill="#4ee055" d="M-139,200 L-139,220 L-156,230 L-173,220 L-173,200 L-156,190 Z" />
<path fill="#D8D388" d="M-156,170 L-156,190 L-173,200 L-191,190 L-191,170 L-173,160 Z" />
<path fill="#D8D388" d="M-173,140 L-173,160 L-191,170 L-208,160 L-208,140 L-191,130 Z" />
<path fill="#4ee055" d="M-191,110 L-191,130 L-208,140 L-225,130 L-225,110 L-208,100 Z" />
<path fill="#D8D388" d="M-208,80 L-208,100 L-225,110 L-242,100 L-242,80 L-225,70 Z" />
<path fill="#D8D388" d="M104,-280 L104,-260 L87,-250 L69,-260 L69,-280 L87,-290 Z" />
<path fill="#D8D388" d="M139,-280 L139,-260 L121,-250 L104,-260 L104,-280 L121,-290 Z" />
<path fill="#4ee055" d="M173,-280 L173,-260 L156,-250 L139,-260 L139,-280 L156,-290 Z" />
<path fill="#D8D388" d="M191,-250 L191,-230 L173,-220 L156,-230 L156,-250 L173,-260 Z" />
<path fill="#D8D388" d="M208,-220 L208,-200 L191,-190 L173,-200 L173,-220 L191,-230 Z" />
<path fill="#D8D388" d="M-104,260 L-104,280 L-121,290 L-139,280 L-139,260 L-121,250 Z" />
<path fill="#4ee055" d="M-139,260 L-139,280 L-156,290 L-173,280 L-173,260 L-156,250 Z" />
<path fill="#D8D388" d="M-156,230 L-156,250 L-173,260 L-191,250 L-191,230 L-173,220 Z" />
<path fill="#D8D388" d="M-173,200 L-173,220 L-191,230 L-208,220 L-208,200 L-191,190 Z" />
<path fill="#4ee055" d="M-191,170 L-191,190 L-208,200 L-225,190 L-225,170 L-208,160 Z" />
<path fill="#D8D388" d="M-208,140 L-208,160 L-225,170 L-242,160 L-242,140 L-225,130 Z" />
<path fill="#D8D388" d="M208,-280 L208,-260 L191,-250 L173,-260 L173,-280 L191,-290 Z" />
<path fill="#4ee055" d="M225,-250 L225,-230 L208,-220 L191,-230 L191,-250 L208,-260 Z" />
<path fill="#D8D388" d="M242,-220 L242,-200 L225,-190 L208,-200 L208,-220 L225,-230 Z" />
<path fill="#D8D388" d="M-52,290 L-52,310 L-69,320 L-87,310 L-87,290 L-69,280 Z" />
<path fill="#4ee055" d="M-87,290 L-87,310 L-104,320 L-121,310 L-121,290 L-104,280 Z" />
<path fill="#D8D388" d="M-121,290 L-121,310 L-139,320 L-156,310 L-156,290 L-139,280 Z" />
<path fill="#D8D388" d="M242,-280 L242,-260 L225,-250 L208,-260 L208,-280 L225,-290 Z" />
<path fill="#D8D388" d="M260,-250 L260,-230 L242,-220 L225,-230 L225,-250 L242,-260 Z" />
<path fill="#4ee055" d="M277,-220 L277,-200 L260,-190 L242,-200 L242,-220 L260,-230 Z" />
<path fill="#D8D388" d="M0,320 L0,340 L-17,350 L-35,340 L-35,320 L-17,310 Z" />
<path fill="#4ee055" d="M-35,320 L-35,340 L-52,350 L-69,340 L-69,320 L-52,310 Z" />
<path fill="#D8D388" d="M-69,320 L-69,340 L-87,350 L-104,340 L-104,320 L-87,310 Z" />
<path fill="#4ee055" d="M-191,-370 L-191,-350 L-208,-340 L-225,-350 L-225,-370 L-208,-380 Z" />
<path fill="#D8D388" d="M-156,-370 L-156,-350 L-173,-340 L-191,-350 L-191,-370 L-173,-380 Z" />
<path fill="#4ee055" d="M225,-370 L225,-350 L208,-340 L191,-350 L191,-370 L208,-380 Z" />
<path fill="#D8D388" d="M242,-340 L242,-320 L225,-310 L208,-320 L208,-340 L225,-350 Z" />
<path fill="#4ee055" d="M277,-280 L277,-260 L260,-250 L242,-260 L242,-280 L260,-290 Z" />
<path fill="#D8D388" d="M294,-250 L294,-230 L277,-220 L260,-230 L260,-250 L277,-260 Z" />
<path fill="#D8D388" d="M312,-220 L312,-200 L294,-190 L277,-200 L277,-220 L294,-230 Z" />
<path fill="#D8D388" d="M52,350 L52,370 L35,380 L17,370 L17,350 L35,340 Z" />
<path fill="#4ee055" d="M17,350 L17,370 L0,380 L-17,370 L-17,350 L0,340 Z" />
<path fill="#D8D388" d="M-17,350 L-17,370 L-35,380 L-52,370 L-52,350 L-35,340 Z" />
<path fill="#D8D388" d="M-52,350 L-52,370 L-69,380 L-87,370 L-87,350 L-69,340 Z" />
<path fill="#D8D388" d="M-208,-340 L-208,-320 L-225,-310 L-242,-320 L-242,-340 L-225,-350 Z" />
<path fill="#4ee055" d="M-191,-370 L-191,-350 L-208,-340 L-225,-350 L-225,-370 L-208,-380 Z" />
<path fill="#D8D388" d="M-208,-400 L-208,-380 L-225,-370 L-242,-380 L-242,-400 L-225,-410 Z" />
<path fill="#D8D388" d="M-173,-400 L-173,-380 L-191,-370 L-208,-380 L-208,-400 L-191,-410 Z" />
<path fill="#4ee055" d="M-139,-400 L-139,-380 L-156,-370 L-173,-380 L-173,-400 L-156,-410 Z" />
<path fill="#D8D388" d="M-104,-400 L-104,-380 L-121,-370 L-139,-380 L-139,-400 L-121,-410 Z" />
<path fill="#D8D388" d="M208,-400 L208,-380 L191,-370 L173,-380 L173,-400 L191,-410 Z" />
<path fill="#D8D388" d="M242,-400 L242,-380 L225,-370 L208,-380 L208,-400 L225,-410 Z" />
<path fill="#D8D388" d="M260,-370 L260,-350 L242,-340 L225,-350 L225,-370 L242,-380 Z" />
<path fill="#4ee055" d="M277,-340 L277,-320 L260,-310 L242,-320 L242,-340 L260,-350 Z" />
<path fill="#D8D388" d="M312,-280 L312,-260 L294,-250 L277,-260 L277,-280 L294,-290 Z" />
<path fill="#4ee055" d="M329,-250 L329,-230 L312,-220 L294,-230 L294,-250 L312,-260 Z" />
<path fill="#D8D388" d="M346,-220 L346,-200 L329,-190 L312,-200 L312,-220 L329,-230 Z" />
<path fill="#D8D388" d="M242,380 L242,400 L225,410 L208,400 L208,380 L225,370 Z" />
<path fill="#D8D388" d="M208,380 L208,400 L191,410 L173,400 L173,380 L191,370 Z" />
<path fill="#4ee055" d="M173,380 L173,400 L156,410 L139,400 L139,380 L156,370 Z" />
<path fill="#D8D388" d="M139,380 L139,400 L121,410 L104,400 L104,380 L121,370 Z" />
<path fill="#D8D388" d="M104,380 L104,400 L87,410 L69,400 L69,380 L87,370 Z" />
<path fill="#4ee055" d="M69,380 L69,400 L52,410 L35,400 L35,380 L52,370 Z" />
<path fill="#D8D388" d="M35,380 L35,400 L17,410 L0,400 L0,380 L17,370 Z" />
<path fill="#D8D388" d="M-433,-10 L-433,10 L-450,20 L-468,10 L-468,-10 L-450,-20 Z" />
<path fill="#D8D388" d="M-277,-280 L-277,-260 L-294,-250 L-312,-260 L-312,-280 L-294,-290 Z" />
<path fill="#D8D388" d="M-260,-310 L-260,-290 L-277,-280 L-294,-290 L-294,-310 L-277,-320 Z" />
<path fill="#4ee055" d="M-242,-340 L-242,-320 L-260,-310 L-277,-320 L-277,-340 L-260,-350 Z" />
<path fill="#D8D388" d="M-225,-370 L-225,-350 L-242,-340 L-260,-350 L-260,-370 L-242,-380 Z" />
<path fill="#D8D388" d="M-208,-400 L-208,-380 L-225,-370 L-242,-380 L-242,-400 L-225,-410 Z" />
<path fill="#4ee055" d="M-191,-430 L-191,-410 L-208,-400 L-225,-410 L-225,-430 L-208,-440 Z" />
<path fill="#D8D388" d="M-156,-430 L-156,-410 L-173,-400 L-191,-410 L-191,-430 L-173,-440 Z" />
<path fill="#D8D388" d="M-121,-430 L-121,-410 L-139,-400 L-156,-410 L-156,-430 L-139,-440 Z" />
<path fill="#4ee055" d="M-87,-430 L-87,-410 L-104,-400 L-121,-410 L-121,-430 L-104,-440 Z" />
<path fill="#D8D388" d="M-52,-430 L-52,-410 L-69,-400 L-87,-410 L-87,-430 L-69,-440 Z" />
<path fill="#4ee055" d="M225,-430 L225,-410 L208,-400 L191,-410 L191,-430 L208,-440 Z" />
<path fill="#D8D388" d="M260,-430 L260,-410 L242,-400 L225,-410 L225,-430 L242,-440 Z" />
<path fill="#4ee055" d="M277,-400 L277,-380 L260,-370 L242,-380 L242,-400 L260,-410 Z" />
<path fill="#D8D388" d="M294,-370 L294,-350 L277,-340 L260,-350 L260,-370 L277,-380 Z" />
<path fill="#D8D388" d="M346,-280 L346,-260 L329,-250 L312,-260 L312,-280 L329,-290 Z" />
<path fill="#D8D388" d="M364,-250 L364,-230 L346,-220 L329,-230 L329,-250 L346,-260 Z" />
<path fill="#4ee055" d="M381,-220 L381,-200 L364,-190 L346,-200 L346,-220 L364,-230 Z" />
<path fill="#4ee055" d="M277,380 L277,400 L260,410 L242,400 L242,380 L260,370 Z" />
<path fill="#D8D388" d="M260,410 L260,430 L242,440 L225,430 L225,410 L242,400 Z" />
<path fill="#4ee055" d="M225,410 L225,430 L208,440 L191,430 L191,410 L208,400 Z" />
<path fill="#D8D388" d="M191,410 L191,430 L173,440 L156,430 L156,410 L173,400 Z" />
<path fill="#D8D388" d="M156,410 L156,430 L139,440 L121,430 L121,410 L139,400 Z" />
<path fill="#4ee055" d="M121,410 L121,430 L104,440 L87,430 L87,410 L104,400 Z" />
<path fill="#4ee055" d="M-450,20 L-450,40 L-468,50 L-485,40 L-485,20 L-468,10 Z" />
<path fill="#D8D388" d="M-468,-10 L-468,10 L-485,20 L-502,10 L-502,-10 L-485,-20 Z" />
<path fill="#4ee055" d="M-450,-40 L-450,-20 L-468,-10 L-485,-20 L-485,-40 L-468,-50 Z" />
<path fill="#D8D388" d="M-433,-70 L-433,-50 L-450,-40 L-468,-50 L-468,-70 L-450,-80 Z" />
<path fill="#D8D388" d="M-416,-100 L-416,-80 L-433,-70 L-450,-80 L-450,-100 L-433,-110 Z" />
<path fill="#4ee055" d="M-346,-220 L-346,-200 L-364,-190 L-381,-200 L-381,-220 L-364,-230 Z" />
<path fill="#D8D388" d="M-329,-250 L-329,-230 L-346,-220 L-364,-230 L-364,-250 L-346,-260 Z" />
<path fill="#D8D388" d="M-312,-280 L-312,-260 L-329,-250 L-346,-260 L-346,-280 L-329,-290 Z" />
<path fill="#4ee055" d="M-294,-310 L-294,-290 L-312,-280 L-329,-290 L-329,-310 L-312,-320 Z" />
<path fill="#D8D388" d="M-277,-340 L-277,-320 L-294,-310 L-312,-320 L-312,-340 L-294,-350 Z" />
<path fill="#D8D388" d="M-260,-370 L-260,-350 L-277,-340 L-294,-350 L-294,-370 L-277,-380 Z" />
<path fill="#4ee055" d="M-242,-400 L-242,-380 L-260,-370 L-277,-380 L-277,-400 L-260,-410 Z" />
<path fill="#D8D388" d="M-104,-460 L-104,-440 L-121,-430 L-139,-440 L-139,-460 L-121,-470 Z" />
<path fill="#D8D388" d="M-69,-460 L-69,-440 L-87,-430 L-104,-440 L-104,-460 L-87,-470 Z" />
<path fill="#4ee055" d="M-35,-460 L-35,-440 L-52,-430 L-69,-440 L-69,-460 L-52,-470 Z" />
<path fill="#D8D388" d="M0,-460 L0,-440 L-17,-430 L-35,-440 L-35,-460 L-17,-470 Z" />
<path fill="#D8D388" d="M35,-460 L35,-440 L17,-430 L0,-440 L0,-460 L17,-470 Z" />
<path fill="#4ee055" d="M69,-460 L69,-440 L52,-430 L35,-440 L35,-460 L52,-470 Z" />
<path fill="#D8D388" d="M104,-460 L104,-440 L87,-430 L69,-440 L69,-460 L87,-470 Z" />
<path fill="#D8D388" d="M139,-460 L139,-440 L121,-430 L104,-440 L104,-460 L121,-470 Z" />
<path fill="#4ee055" d="M173,-460 L173,-440 L156,-430 L139,-440 L139,-460 L156,-470 Z" />
<path fill="#D8D388" d="M208,-460 L208,-440 L191,-430 L173,-440 L173,-460 L191,-470 Z" />
<path fill="#D8D388" d="M242,-460 L242,-440 L225,-430 L208,-440 L208,-460 L225,-470 Z" />
<path fill="#4ee055" d="M277,-460 L277,-440 L260,-430 L242,-440 L242,-460 L260,-470 Z" />
<path fill="#D8D388" d="M294,-430 L294,-410 L277,-400 L260,-410 L260,-430 L277,-440 Z" />
<path fill="#4ee055" d="M381,-280 L381,-260 L364,-250 L346,-260 L346,-280 L364,-290 Z" />
<path fill="#D8D388" d="M398,-250 L398,-230 L381,-220 L364,-230 L364,-250 L381,-260 Z" />
<path fill="#D8D388" d="M416,-220 L416,-200 L398,-190 L381,-200 L381,-220 L398,-230 Z" />
<path fill="#D8D388" d="M312,380 L312,400 L294,410 L277,400 L277,380 L294,370 Z" />
<path fill="#D8D388" d="M294,410 L294,430 L277,440 L260,430 L260,410 L277,400 Z" />
<path fill="#D8D388" d="M-433,110 L-433,130 L-450,140 L-468,130 L-468,110 L-450,100 Z" />
<path fill="#4ee055" d="M-450,80 L-450,100 L-468,110 L-485,100 L-485,80 L-468,70 Z" />
<path fill="#D8D388" d="M-468,50 L-468,70 L-485,80 L-502,70 L-502,50 L-485,40 Z" />
<path fill="#4ee055" d="M-450,-100 L-450,-80 L-468,-70 L-485,-80 L-485,-100 L-468,-110 Z" />
<path fill="#D8D388" d="M-433,-130 L-433,-110 L-450,-100 L-468,-110 L-468,-130 L-450,-140 Z" />
<path fill="#D8D388" d="M-416,-160 L-416,-140 L-433,-130 L-450,-140 L-450,-160 L-433,-170 Z" />
<path fill="#4ee055" d="M-398,-190 L-398,-170 L-416,-160 L-433,-170 L-433,-190 L-416,-200 Z" />
<path fill="#D8D388" d="M-381,-220 L-381,-200 L-398,-190 L-416,-200 L-416,-220 L-398,-230 Z" />
<path fill="#D8D388" d="M-364,-250 L-364,-230 L-381,-220 L-398,-230 L-398,-250 L-381,-260 Z" />
<path fill="#4ee055" d="M-346,-280 L-346,-260 L-364,-250 L-381,-260 L-381,-280 L-364,-290 Z" />
<path fill="#D8D388" d="M-329,-310 L-329,-290 L-346,-280 L-364,-290 L-364,-310 L-346,-320 Z" />
<path fill="#D8D388" d="M-312,-340 L-312,-320 L-329,-310 L-346,-320 L-346,-340 L-329,-350 Z" />
<path fill="#D8D388" d="M-52,-490 L-52,-470 L-69,-460 L-87,-470 L-87,-490 L-69,-500 Z" />
<path fill="#D8D388" d="M-17,-490 L-17,-470 L-35,-460 L-52,-470 L-52,-490 L-35,-500 Z" />
<path fill="#4ee055" d="M17,-490 L17,-470 L0,-460 L-17,-470 L-17,-490 L0,-500 Z" />
<path fill="#D8D388" d="M52,-490 L52,-470 L35,-460 L17,-470 L17,-490 L35,-500 Z" />
<path fill="#D8D388" d="M87,-490 L87,-470 L69,-460 L52,-470 L52,-490 L69,-500 Z" />
<path fill="#4ee055" d="M121,-490 L121,-470 L104,-460 L87,-470 L87,-490 L104,-500 Z" />
<path fill="#D8D388" d="M156,-490 L156,-470 L139,-460 L121,-470 L121,-490 L139,-500 Z" />
<path fill="#D8D388" d="M191,-490 L191,-470 L173,-460 L156,-470 L156,-490 L173,-500 Z" />
<path fill="#4ee055" d="M225,-490 L225,-470 L208,-460 L191,-470 L191,-490 L208,-500 Z" />
<path fill="#D8D388" d="M260,-490 L260,-470 L242,-460 L225,-470 L225,-490 L242,-500 Z" />
<path fill="#D8D388" d="M294,-490 L294,-470 L277,-460 L260,-470 L260,-490 L277,-500 Z" />
<path fill="#D8D388" d="M312,-460 L312,-440 L294,-430 L277,-440 L277,-460 L294,-470 Z" />
<path fill="#D8D388" d="M364,-370 L364,-350 L346,-340 L329,-350 L329,-370 L346,-380 Z" />
<path fill="#4ee055" d="M381,-340 L381,-320 L364,-310 L346,-320 L346,-340 L364,-350 Z" />
<path fill="#D8D388" d="M398,-310 L398,-290 L381,-280 L364,-290 L364,-310 L381,-320 Z" />
<path fill="#D8D388" d="M416,-280 L416,-260 L398,-250 L381,-260 L381,-280 L398,-290 Z" />
<path fill="#4ee055" d="M433,-250 L433,-230 L416,-220 L398,-230 L398,-250 L416,-260 Z" />
<path fill="#D8D388" d="M450,-220 L450,-200 L433,-190 L416,-200 L416,-220 L433,-230 Z" />
<path fill="#D8D388" d="M346,380 L346,400 L329,410 L312,400 L312,380 L329,370 Z" />
<path fill="#4ee055" d="M329,410 L329,430 L312,440 L294,430 L294,410 L312,400 Z" />
<path fill="#D8D388" d="M260,470 L260,490 L242,500 L225,490 L225,470 L242,460 Z" />
<path fill="#4ee055" d="M225,470 L225,490 L208,500 L191,490 L191,470 L208,460 Z" />
<path fill="#D8D388" d="M191,470 L191,490 L173,500 L156,490 L156,470 L173,460 Z" />
<path fill="#D8D388" d="M-260,470 L-260,490 L-277,500 L-294,490 L-294,470 L-277,460 Z" />
<path fill="#D8D388" d="M-277,440 L-277,460 L-294,470 L-312,460 L-312,440 L-294,430 Z" />
<path fill="#D8D388" d="M-433,170 L-433,190 L-450,200 L-468,190 L-468,170 L-450,160 Z" />
<path fill="#4ee055" d="M-450,140 L-450,160 L-468,170 L-485,160 L-485,140 L-468,130 Z" />
<path fill="#D8D388" d="M-468,110 L-468,130 L-485,140 L-502,130 L-502,110 L-485,100 Z" />
<path fill="#4ee055" d="M329,-490 L329,-470 L312,-460 L294,-470 L294,-490 L312,-500 Z" />
<path fill="#D8D388" d="M346,-460 L346,-440 L329,-430 L312,-440 L312,-460 L329,-470 Z" />
<path fill="#4ee055" d="M381,-400 L381,-380 L364,-370 L346,-380 L346,-400 L364,-410 Z" />
<path fill="#D8D388" d="M398,-370 L398,-350 L381,-340 L364,-350 L364,-370 L381,-380 Z" />
<path fill="#D8D388" d="M416,-340 L416,-320 L398,-310 L381,-320 L381,-340 L398,-350 Z" />
<path fill="#4ee055" d="M433,-310 L433,-290 L416,-280 L398,-290 L398,-310 L416,-320 Z" />
<path fill="#D8D388" d="M468,-250 L468,-230 L450,-220 L433,-230 L433,-250 L450,-260 Z" />
<path fill="#4ee055" d="M485,-220 L485,-200 L468,-190 L450,-200 L450,-220 L468,-230 Z" />
<path fill="#D8D388" d="M502,-190 L502,-170 L485,-160 L468,-170 L468,-190 L485,-200 Z" />
<path fill="#4ee055" d="M381,380 L381,400 L364,410 L346,400 L346,380 L364,370 Z" />
<path fill="#D8D388" d="M364,410 L364,430 L346,440 L329,430 L329,410 L346,400 Z" />
<path fill="#D8D388" d="M346,440 L346,460 L329,470 L312,460 L312,440 L329,430 Z" />
<path fill="#4ee055" d="M277,500 L277,520 L260,530 L242,520 L242,500 L260,490 Z" />
<path fill="#D8D388" d="M242,500 L242,520 L225,530 L208,520 L208,500 L225,490 Z" />
<path fill="#D8D388" d="M208,500 L208,520 L191,530 L173,520 L173,500 L191,490 Z" />
<path fill="#D8D388" d="M-208,500 L-208,520 L-225,530 L-242,520 L-242,500 L-225,490 Z" />
<path fill="#4ee055" d="M-242,500 L-242,520 L-260,530 L-277,520 L-277,500 L-260,490 Z" />
<path fill="#D8D388" d="M-277,500 L-277,520 L-294,530 L-312,520 L-312,500 L-294,490 Z" />
<path fill="#4ee055" d="M-294,470 L-294,490 L-312,500 L-329,490 L-329,470 L-312,460 Z" />
<path fill="#D8D388" d="M-312,440 L-312,460 L-329,470 L-346,460 L-346,440 L-329,430 Z" />
<path fill="#D8D388" d="M-329,410 L-329,430 L-346,440 L-364,430 L-364,410 L-346,400 Z" />
<path fill="#4ee055" d="M-346,380 L-346,400 L-364,410 L-381,400 L-381,380 L-364,370 Z" />
<path fill="#D8D388" d="M-381,320 L-381,340 L-398,350 L-416,340 L-416,320 L-398,310 Z" />
<path fill="#D8D388" d="M-416,260 L-416,280 L-433,290 L-450,280 L-450,260 L-433,250 Z" />
<path fill="#D8D388" d="M-433,230 L-433,250 L-450,260 L-468,250 L-468,230 L-450,220 Z" />
<path fill="#4ee055" d="M-450,200 L-450,220 L-468,230 L-485,220 L-485,200 L-468,190 Z" />
<path fill="#D8D388" d="M-468,170 L-468,190 L-485,200 L-502,190 L-502,170 L-485,160 Z" />
<path fill="#4ee055" d="M381,-460 L381,-440 L364,-430 L346,-440 L346,-460 L364,-470 Z" />
<path fill="#D8D388" d="M398,-430 L398,-410 L381,-400 L364,-410 L364,-430 L381,-440 Z" />
<path fill="#D8D388" d="M416,-400 L416,-380 L398,-370 L381,-380 L381,-400 L398,-410 Z" />
<path fill="#4ee055" d="M433,-370 L433,-350 L416,-340 L398,-350 L398,-370 L416,-380 Z" />
<path fill="#D8D388" d="M502,-250 L502,-230 L485,-220 L468,-230 L468,-250 L485,-260 Z" />
<path fill="#D8D388" d="M520,-220 L520,-200 L502,-190 L485,-200 L485,-220 L502,-230 Z" />
<path fill="#4ee055" d="M537,-190 L537,-170 L520,-160 L502,-170 L502,-190 L520,-200 Z" />
<path fill="#4ee055" d="M433,350 L433,370 L416,380 L398,370 L398,350 L416,340 Z" />
<path fill="#D8D388" d="M416,380 L416,400 L398,410 L381,400 L381,380 L398,370 Z" />
<path fill="#4ee055" d="M381,440 L381,460 L364,470 L346,460 L346,440 L364,430 Z" />
<path fill="#D8D388" d="M346,500 L346,520 L329,530 L312,520 L312,500 L329,490 Z" />
<path fill="#D8D388" d="M260,530 L260,550 L242,560 L225,550 L225,530 L242,520 Z" />
<path fill="#4ee055" d="M225,530 L225,550 L208,560 L191,550 L191,530 L208,520 Z" />
<path fill="#D8D388" d="M191,530 L191,550 L173,560 L156,550 L156,530 L173,520 Z" />
<path fill="#D8D388" d="M-156,530 L-156,550 L-173,560 L-191,550 L-191,530 L-173,520 Z" />
<path fill="#4ee055" d="M-191,530 L-191,550 L-208,560 L-225,550 L-225,530 L-208,520 Z" />
<path fill="#D8D388" d="M-225,530 L-225,550 L-242,560 L-260,550 L-260,530 L-242,520 Z" />
<path fill="#D8D388" d="M-260,530 L-260,550 L-277,560 L-294,550 L-294,530 L-277,520 Z" />
<path fill="#D8D388" d="M-312,500 L-312,520 L-329,530 L-346,520 L-346,500 L-329,490 Z" />
<path fill="#D8D388" d="M-329,470 L-329,490 L-346,500 L-364,490 L-364,470 L-346,460 Z" />
<path fill="#4ee055" d="M-346,440 L-346,460 L-364,470 L-381,460 L-381,440 L-364,430 Z" />
<path fill="#D8D388" d="M-364,410 L-364,430 L-381,440 L-398,430 L-398,410 L-381,400 Z" />
<path fill="#D8D388" d="M-381,380 L-381,400 L-398,410 L-416,400 L-416,380 L-398,370 Z" />
<path fill="#4ee055" d="M-398,350 L-398,370 L-416,380 L-433,370 L-433,350 L-416,340 Z" />
<path fill="#D8D388" d="M-416,320 L-416,340 L-433,350 L-450,340 L-450,320 L-433,310 Z" />
<path fill="#D8D388" d="M-433,290 L-433,310 L-450,320 L-468,310 L-468,290 L-450,280 Z" />
<path fill="#4ee055" d="M-450,260 L-450,280 L-468,290 L-485,280 L-485,260 L-468,250 Z" />
<path fill="#D8D388" d="M416,-460 L416,-440 L398,-430 L381,-440 L381,-460 L398,-470 Z" />
<path fill="#4ee055" d="M433,-430 L433,-410 L416,-400 L398,-410 L398,-430 L416,-440 Z" />
<path fill="#D8D388" d="M450,-400 L450,-380 L433,-370 L416,-380 L416,-400 L433,-410 Z" />
<path fill="#D8D388" d="M502,-310 L502,-290 L485,-280 L468,-290 L468,-310 L485,-320 Z" />
<path fill="#D8D388" d="M520,-280 L520,-260 L502,-250 L485,-260 L485,-280 L502,-290 Z" />
<path fill="#4ee055" d="M537,-250 L537,-230 L520,-220 L502,-230 L502,-250 L520,-260 Z" />
<path fill="#D8D388" d="M554,-220 L554,-200 L537,-190 L520,-200 L520,-220 L537,-230 Z" />
<path fill="#D8D388" d="M572,-190 L572,-170 L554,-160 L537,-170 L537,-190 L554,-200 Z" />
<path fill="#D8D388" d="M468,350 L468,370 L450,380 L433,370 L433,350 L450,340 Z" />
<path fill="#D8D388" d="M450,380 L450,400 L433,410 L416,400 L416,380 L433,370 Z" />
<path fill="#D8D388" d="M416,440 L416,460 L398,470 L381,460 L381,440 L398,430 Z" />
<path fill="#D8D388" d="M398,470 L398,490 L381,500 L364,490 L364,470 L381,460 Z" />
<path fill="#4ee055" d="M381,500 L381,520 L364,530 L346,520 L346,500 L364,490 Z" />
<path fill="#D8D388" d="M364,530 L364,550 L346,560 L329,550 L329,530 L346,520 Z" />
<path fill="#D8D388" d="M346,560 L346,580 L329,590 L312,580 L312,560 L329,550 Z" />
<path fill="#D8D388" d="M208,560 L208,580 L191,590 L173,580 L173,560 L191,550 Z" />
<path fill="#D8D388" d="M-69,560 L-69,580 L-87,590 L-104,580 L-104,560 L-87,550 Z" />
<path fill="#D8D388" d="M-104,560 L-104,580 L-121,590 L-139,580 L-139,560 L-121,550 Z" />
<path fill="#4ee055" d="M-139,560 L-139,580 L-156,590 L-173,580 L-173,560 L-156,550 Z" />
<path fill="#D8D388" d="M-173,560 L-173,580 L-191,590 L-208,580 L-208,560 L-191,550 Z" />
<path fill="#D8D388" d="M-208,560 L-208,580 L-225,590 L-242,580 L-242,560 L-225,550 Z" />
<path fill="#D8D388" d="M450,-460 L450,-440 L433,-430 L416,-440 L416,-460 L433,-470 Z" />
<path fill="#D8D388" d="M468,-430 L468,-410 L450,-400 L433,-410 L433,-430 L450,-440 Z" />
<path fill="#4ee055" d="M485,-400 L485,-380 L468,-370 L450,-380 L450,-400 L468,-410 Z" />
<path fill="#D8D388" d="M502,-370 L502,-350 L485,-340 L468,-350 L468,-370 L485,-380 Z" />
<path fill="#D8D388" d="M520,-340 L520,-320 L502,-310 L485,-320 L485,-340 L502,-350 Z" />
<path fill="#4ee055" d="M537,-310 L537,-290 L520,-280 L502,-290 L502,-310 L520,-320 Z" />
<path fill="#D8D388" d="M554,-280 L554,-260 L537,-250 L520,-260 L520,-280 L537,-290 Z" />
<path fill="#D8D388" d="M572,-250 L572,-230 L554,-220 L537,-230 L537,-250 L554,-260 Z" />
<path fill="#4ee055" d="M589,-220 L589,-200 L572,-190 L554,-200 L554,-220 L572,-230 Z" />
<path fill="#D8D388" d="M606,-190 L606,-170 L589,-160 L572,-170 L572,-190 L589,-200 Z" />
<path fill="#D8D388" d="M502,350 L502,370 L485,380 L468,370 L468,350 L485,340 Z" />
<path fill="#4ee055" d="M485,380 L485,400 L468,410 L450,400 L450,380 L468,370 Z" />
<path fill="#D8D388" d="M416,500 L416,520 L398,530 L381,520 L381,500 L398,490 Z" />
<path fill="#D8D388" d="M398,530 L398,550 L381,560 L364,550 L364,530 L381,520 Z" />
<path fill="#4ee055" d="M381,560 L381,580 L364,590 L346,580 L346,560 L364,550 Z" />
<path fill="#D8D388" d="M364,590 L364,610 L346,620 L329,610 L329,590 L346,580 Z" />
<path fill="#4ee055" d="M329,590 L329,610 L312,620 L294,610 L294,590 L312,580 Z" />
<path fill="#D8D388" d="M294,590 L294,610 L277,620 L260,610 L260,590 L277,580 Z" />
<path fill="#D8D388" d="M260,590 L260,610 L242,620 L225,610 L225,590 L242,580 Z" />
<path fill="#4ee055" d="M225,590 L225,610 L208,620 L191,610 L191,590 L208,580 Z" />
<path fill="#D8D388" d="M191,590 L191,610 L173,620 L156,610 L156,590 L173,580 Z" />
<path fill="#D8D388" d="M156,590 L156,610 L139,620 L121,610 L121,590 L139,580 Z" />
<path fill="#4ee055" d="M121,590 L121,610 L104,620 L87,610 L87,590 L104,580 Z" />
<path fill="#D8D388" d="M87,590 L87,610 L69,620 L52,610 L52,590 L69,580 Z" />
<path fill="#D8D388" d="M52,590 L52,610 L35,620 L17,610 L17,590 L35,580 Z" />
<path fill="#4ee055" d="M17,590 L17,610 L0,620 L-17,610 L-17,590 L0,580 Z" />
<path fill="#D8D388" d="M-17,590 L-17,610 L-35,620 L-52,610 L-52,590 L-35,580 Z" />
<path fill="#D8D388" d="M-52,590 L-52,610 L-69,620 L-87,610 L-87,590 L-69,580 Z" />
<path fill="#4ee055" d="M-87,590 L-87,610 L-104,620 L-121,610 L-121,590 L-104,580 Z" />
<path fill="#D8D388" d="M-121,590 L-121,610 L-139,620 L-156,610 L-156,590 L-139,580 Z" />
<path fill="#D8D388" d="M-156,590 L-156,610 L-173,620 L-191,610 L-191,590 L-173,580 Z" />
<path fill="#4ee055" d="M-191,590 L-191,610 L-208,620 L-225,610 L-225,590 L-208,580 Z" />
<path fill="#D8D388" d="M502,-430 L502,-410 L485,-400 L468,-410 L468,-430 L485,-440 Z" />
<path fill="#D8D388" d="M520,-400 L520,-380 L502,-370 L485,-380 L485,-400 L502,-410 Z" />
<path fill="#4ee055" d="M537,-370 L537,-350 L520,-340 L502,-350 L502,-370 L520,-380 Z" />
<path fill="#D8D388" d="M554,-340 L554,-320 L537,-310 L520,-320 L520,-340 L537,-350 Z" />
<path fill="#D8D388" d="M572,-310 L572,-290 L554,-280 L537,-290 L537,-310 L554,-320 Z" />
<path fill="#4ee055" d="M589,-280 L589,-260 L572,-250 L554,-260 L554,-280 L572,-290 Z" />
<path fill="#D8D388" d="M606,-250 L606,-230 L589,-220 L572,-230 L572,-250 L589,-260 Z" />
<path fill="#D8D388" d="M624,-220 L624,-200 L606,-190 L589,-200 L589,-220 L606,-230 Z" />
<path fill="#4ee055" d="M641,-190 L641,-170 L624,-160 L606,-170 L606,-190 L624,-200 Z" />
<path fill="#D8D388" d="M658,-160 L658,-140 L641,-130 L624,-140 L624,-160 L641,-170 Z" />
<path fill="#4ee055" d="M537,350 L537,370 L520,380 L502,370 L502,350 L520,340 Z" />
<path fill="#D8D388" d="M502,410 L502,430 L485,440 L468,430 L468,410 L485,400 Z" />
<path fill="#4ee055" d="M485,440 L485,460 L468,470 L450,460 L450,440 L468,430 Z" />
<path fill="#D8D388" d="M416,560 L416,580 L398,590 L381,580 L381,560 L398,550 Z" />
<path fill="#D8D388" d="M398,590 L398,610 L381,620 L364,610 L364,590 L381,580 Z" />
<path fill="#4ee055" d="M381,620 L381,640 L364,650 L346,640 L346,620 L364,610 Z" />
<path fill="#D8D388" d="M346,620 L346,640 L329,650 L312,640 L312,620 L329,610 Z" />
<path fill="#D8D388" d="M312,620 L312,640 L294,650 L277,640 L277,620 L294,610 Z" />
<path fill="#4ee055" d="M277,620 L277,640 L260,650 L242,640 L242,620 L260,610 Z" />
<path fill="#D8D388" d="M242,620 L242,640 L225,650 L208,640 L208,620 L225,610 Z" />
<path fill="#D8D388" d="M208,620 L208,640 L191,650 L173,640 L173,620 L191,610 Z" />
<path fill="#4ee055" d="M173,620 L173,640 L156,650 L139,640 L139,620 L156,610 Z" />
<path fill="#D8D388" d="M139,620 L139,640 L121,650 L104,640 L104,620 L121,610 Z" />
<path fill="#D8D388" d="M104,620 L104,640 L87,650 L69,640 L69,620 L87,610 Z" />
<path fill="#4ee055" d="M69,620 L69,640 L52,650 L35,640 L35,620 L52,610 Z" />
<path fill="#D8D388" d="M35,620 L35,640 L17,650 L0,640 L0,620 L17,610 Z" />
<path fill="#D8D388" d="M0,620 L0,640 L-17,650 L-35,640 L-35,620 L-17,610 Z" />
<path fill="#4ee055" d="M-35,620 L-35,640 L-52,650 L-69,640 L-69,620 L-52,610 Z" />
<path fill="#D8D388" d="M-69,620 L-69,640 L-87,650 L-104,640 L-104,620 L-87,610 Z" />
<path fill="#D8D388" d="M-104,620 L-104,640 L-121,650 L-139,640 L-139,620 L-121,610 Z" />
<path fill="#4ee055" d="M537,-430 L537,-410 L520,-400 L502,-410 L502,-430 L520,-440 Z" />
<path fill="#D8D388" d="M554,-400 L554,-380 L537,-370 L520,-380 L520,-400 L537,-410 Z" />
<path fill="#D8D388" d="M572,-370 L572,-350 L554,-340 L537,-350 L537,-370 L554,-380 Z" />
<path fill="#4ee055" d="M589,-340 L589,-320 L572,-310 L554,-320 L554,-340 L572,-350 Z" />
<path fill="#D8D388" d="M658,-220 L658,-200 L641,-190 L624,-200 L624,-220 L641,-230 Z" />
<path fill="#D8D388" d="M675,-190 L675,-170 L658,-160 L641,-170 L641,-190 L658,-200 Z" />
<path fill="#4ee055" d="M693,-160 L693,-140 L675,-130 L658,-140 L658,-160 L675,-170 Z" />
<path fill="#D8D388" d="M710,-130 L710,-110 L693,-100 L675,-110 L675,-130 L693,-140 Z" />
<path fill="#4ee055" d="M589,320 L589,340 L572,350 L554,340 L554,320 L572,310 Z" />
<path fill="#D8D388" d="M572,350 L572,370 L554,380 L537,370 L537,350 L554,340 Z" />
<path fill="#D8D388" d="M554,380 L554,400 L537,410 L520,400 L520,380 L537,370 Z" />
<path fill="#4ee055" d="M537,410 L537,430 L520,440 L502,430 L502,410 L520,400 Z" />
<path fill="#D8D388" d="M520,440 L520,460 L502,470 L485,460 L485,440 L502,430 Z" />
<path fill="#D8D388" d="M502,470 L502,490 L485,500 L468,490 L468,470 L485,460 Z" />
<path fill="#4ee055" d="M485,500 L485,520 L468,530 L450,520 L450,500 L468,490 Z" />
<path fill="#D8D388" d="M450,560 L450,580 L433,590 L416,580 L416,560 L433,550 Z" />
<path fill="#4ee055" d="M433,590 L433,610 L416,620 L398,610 L398,590 L416,580 Z" />
<path fill="#D8D388" d="M416,620 L416,640 L398,650 L381,640 L381,620 L398,610 Z" />
<path fill="#D8D388" d="M294,650 L294,670 L277,680 L260,670 L260,650 L277,640 Z" />
<path fill="#D8D388" d="M260,650 L260,670 L242,680 L225,670 L225,650 L242,640 Z" />
<path fill="#4ee055" d="M225,650 L225,670 L208,680 L191,670 L191,650 L208,640 Z" />
<path fill="#D8D388" d="M191,650 L191,670 L173,680 L156,670 L156,650 L173,640 Z" />
<path fill="#D8D388" d="M156,650 L156,670 L139,680 L121,670 L121,650 L139,640 Z" />
<path fill="#4ee055" d="M121,650 L121,670 L104,680 L87,670 L87,650 L104,640 Z" />
<path fill="#D8D388" d="M87,650 L87,670 L69,680 L52,670 L52,650 L69,640 Z" />
<path fill="#D8D388" d="M52,650 L52,670 L35,680 L17,670 L17,650 L35,640 Z" />
<path fill="#4ee055" d="M17,650 L17,670 L0,680 L-17,670 L-17,650 L0,640 Z" />
<path fill="#D8D388" d="M-17,650 L-17,670 L-35,680 L-52,670 L-52,650 L-35,640 Z" />
<path fill="#D8D388" d="M572,-430 L572,-410 L554,-400 L537,-410 L537,-430 L554,-440 Z" />
<path fill="#4ee055" d="M589,-400 L589,-380 L572,-370 L554,-380 L554,-400 L572,-410 Z" />
<path fill="#D8D388" d="M606,-370 L606,-350 L589,-340 L572,-350 L572,-370 L589,-380 Z" />
<path fill="#D8D388" d="M658,-280 L658,-260 L641,-250 L624,-260 L624,-280 L641,-290 Z" />
<path fill="#D8D388" d="M675,-250 L675,-230 L658,-220 L641,-230 L641,-250 L658,-260 Z" />
<path fill="#4ee055" d="M693,-220 L693,-200 L675,-190 L658,-200 L658,-220 L675,-230 Z" />
<path fill="#D8D388" d="M710,-190 L710,-170 L693,-160 L675,-170 L675,-190 L693,-200 Z" />
<path fill="#D8D388" d="M727,-160 L727,-140 L710,-130 L693,-140 L693,-160 L710,-170 Z" />
<path fill="#4ee055" d="M745,-130 L745,-110 L727,-100 L710,-110 L710,-130 L727,-140 Z" />
<path fill="#D8D388" d="M624,320 L624,340 L606,350 L589,340 L589,320 L606,310 Z" />
<path fill="#D8D388" d="M606,350 L606,370 L589,380 L572,370 L572,350 L589,340 Z" />
<path fill="#D8D388" d="M572,410 L572,430 L554,440 L537,430 L537,410 L554,400 Z" />
<path fill="#D8D388" d="M554,440 L554,460 L537,470 L520,460 L520,440 L537,430 Z" />
<path fill="#4ee055" d="M537,470 L537,490 L520,500 L502,490 L502,470 L520,460 Z" />
<path fill="#D8D388" d="M520,500 L520,520 L502,530 L485,520 L485,500 L502,490 Z" />
<path fill="#D8D388" d="M502,530 L502,550 L485,560 L468,550 L468,530 L485,520 Z" />
<path fill="#4ee055" d="M485,560 L485,580 L468,590 L450,580 L450,560 L468,550 Z" />
<path fill="#D8D388" d="M468,590 L468,610 L450,620 L433,610 L433,590 L450,580 Z" />
<path fill="#D8D388" d="M624,-400 L624,-380 L606,-370 L589,-380 L589,-400 L606,-410 Z" />
<path fill="#4ee055" d="M641,-370 L641,-350 L624,-340 L606,-350 L606,-370 L624,-380 Z" />
<path fill="#D8D388" d="M675,-310 L675,-290 L658,-280 L641,-290 L641,-310 L658,-320 Z" />
<path fill="#4ee055" d="M693,-280 L693,-260 L675,-250 L658,-260 L658,-280 L675,-290 Z" />
<path fill="#D8D388" d="M710,-250 L710,-230 L693,-220 L675,-230 L675,-250 L693,-260 Z" />
<path fill="#D8D388" d="M727,-220 L727,-200 L710,-190 L693,-200 L693,-220 L710,-230 Z" />
<path fill="#4ee055" d="M745,-190 L745,-170 L727,-160 L710,-170 L710,-190 L727,-200 Z" />
<path fill="#D8D388" d="M762,-160 L762,-140 L745,-130 L727,-140 L727,-160 L745,-170 Z" />
<path fill="#D8D388" d="M779,-130 L779,-110 L762,-100 L745,-110 L745,-130 L762,-140 Z" />
<path fill="#4ee055" d="M797,-100 L797,-80 L779,-70 L762,-80 L762,-100 L779,-110 Z" />
<path fill="#D8D388" d="M675,290 L675,310 L658,320 L641,310 L641,290 L658,280 Z" />
<path fill="#D8D388" d="M658,320 L658,340 L641,350 L624,340 L624,320 L641,310 Z" />
<path fill="#4ee055" d="M641,350 L641,370 L624,380 L606,370 L606,350 L624,340 Z" />
<path fill="#D8D388" d="M624,380 L624,400 L606,410 L589,400 L589,380 L606,370 Z" />
<path fill="#D8D388" d="M554,500 L554,520 L537,530 L520,520 L520,500 L537,490 Z" />
<path fill="#4ee055" d="M537,530 L537,550 L520,560 L502,550 L502,530 L520,520 Z" />
<path fill="#D8D388" d="M520,560 L520,580 L502,590 L485,580 L485,560 L502,550 Z" />
<path fill="#D8D388" d="M502,590 L502,610 L485,620 L468,610 L468,590 L485,580 Z" />
<path fill="#D8D388" d="M658,-400 L658,-380 L641,-370 L624,-380 L624,-400 L641,-410 Z" />
<path fill="#D8D388" d="M675,-370 L675,-350 L658,-340 L641,-350 L641,-370 L658,-380 Z" />
<path fill="#4ee055" d="M693,-340 L693,-320 L675,-310 L658,-320 L658,-340 L675,-350 Z" />
<path fill="#D8D388" d="M710,-310 L710,-290 L693,-280 L675,-290 L675,-310 L693,-320 Z" />
<path fill="#D8D388" d="M727,-280 L727,-260 L710,-250 L693,-260 L693,-280 L710,-290 Z" />
<path fill="#4ee055" d="M745,-250 L745,-230 L727,-220 L710,-230 L710,-250 L727,-260 Z" />
<path fill="#D8D388" d="M779,-190 L779,-170 L762,-160 L745,-170 L745,-190 L762,-200 Z" />
<path fill="#4ee055" d="M797,-160 L797,-140 L779,-130 L762,-140 L762,-160 L779,-170 Z" />
<path fill="#D8D388" d="M814,-130 L814,-110 L797,-100 L779,-110 L779,-130 L797,-140 Z" />
<path fill="#D8D388" d="M831,-100 L831,-80 L814,-70 L797,-80 L797,-100 L814,-110 Z" />
<path fill="#4ee055" d="M693,320 L693,340 L675,350 L658,340 L658,320 L675,310 Z" />
<path fill="#D8D388" d="M675,350 L675,370 L658,380 L641,370 L641,350 L658,340 Z" />
<path fill="#D8D388" d="M658,380 L658,400 L641,410 L624,400 L624,380 L641,370 Z" />
<path fill="#4ee055" d="M641,410 L641,430 L624,440 L606,430 L606,410 L624,400 Z" />
<path fill="#D8D388" d="M624,440 L624,460 L606,470 L589,460 L589,440 L606,430 Z" />
<path fill="#4ee055" d="M589,500 L589,520 L572,530 L554,520 L554,500 L572,490 Z" />
<path fill="#D8D388" d="M572,530 L572,550 L554,560 L537,550 L537,530 L554,520 Z" />
<path fill="#D8D388" d="M554,560 L554,580 L537,590 L520,580 L520,560 L537,550 Z" />
<path fill="#D8D388" d="M710,-370 L710,-350 L693,-340 L675,-350 L675,-370 L693,-380 Z" />
<path fill="#D8D388" d="M727,-340 L727,-320 L710,-310 L693,-320 L693,-340 L710,-350 Z" />
<path fill="#4ee055" d="M745,-310 L745,-290 L727,-280 L710,-290 L710,-310 L727,-320 Z" />
<path fill="#D8D388" d="M779,-250 L779,-230 L762,-220 L745,-230 L745,-250 L762,-260 Z" />
<path fill="#4ee055" d="M797,-220 L797,-200 L779,-190 L762,-200 L762,-220 L779,-230 Z" />
<path fill="#D8D388" d="M814,-190 L814,-170 L797,-160 L779,-170 L779,-190 L797,-200 Z" />
<path fill="#D8D388" d="M831,-160 L831,-140 L814,-130 L797,-140 L797,-160 L814,-170 Z" />
<path fill="#D8D388" d="M710,350 L710,370 L693,380 L675,370 L675,350 L693,340 Z" />
<path fill="#4ee055" d="M693,380 L693,400 L675,410 L658,400 L658,380 L675,370 Z" />
<path fill="#D8D388" d="M675,410 L675,430 L658,440 L641,430 L641,410 L658,400 Z" />
<path fill="#D8D388" d="M658,440 L658,460 L641,470 L624,460 L624,440 L641,430 Z" />
<path fill="#4ee055" d="M641,470 L641,490 L624,500 L606,490 L606,470 L624,460 Z" />
<path fill="#D8D388" d="M624,500 L624,520 L606,530 L589,520 L589,500 L606,490 Z" />
<path fill="#D8D388" d="M606,530 L606,550 L589,560 L572,550 L572,530 L589,520 Z" />
<path fill="#4ee055" d="M589,560 L589,580 L572,590 L554,580 L554,560 L572,550 Z" />
<path fill="#D8D388" d="M762,-340 L762,-320 L745,-310 L727,-320 L727,-340 L745,-350 Z" />
<path fill="#D8D388" d="M779,-310 L779,-290 L762,-280 L745,-290 L745,-310 L762,-320 Z" />
<path fill="#4ee055" d="M797,-280 L797,-260 L779,-250 L762,-260 L762,-280 L779,-290 Z" />
<path fill="#D8D388" d="M814,-250 L814,-230 L797,-220 L779,-230 L779,-250 L797,-260 Z" />
<path fill="#D8D388" d="M831,-220 L831,-200 L814,-190 L797,-200 L797,-220 L814,-230 Z" />
<path fill="#D8D388" d="M779,290 L779,310 L762,320 L745,310 L745,290 L762,280 Z" />
<path fill="#D8D388" d="M762,320 L762,340 L745,350 L727,340 L727,320 L745,310 Z" />
<path fill="#D8D388" d="M710,410 L710,430 L693,440 L675,430 L675,410 L693,400 Z" />
<path fill="#4ee055" d="M693,440 L693,460 L675,470 L658,460 L658,440 L675,430 Z" />
<path fill="#D8D388" d="M675,470 L675,490 L658,500 L641,490 L641,470 L658,460 Z" />
<path fill="#D8D388" d="M658,500 L658,520 L641,530 L624,520 L624,500 L641,490 Z" />
<path fill="#4ee055" d="M641,530 L641,550 L624,560 L606,550 L606,530 L624,520 Z" />
<path fill="#4ee055" d="M797,-340 L797,-320 L779,-310 L762,-320 L762,-340 L779,-350 Z" />
<path fill="#D8D388" d="M814,-310 L814,-290 L797,-280 L779,-290 L779,-310 L797,-320 Z" />
<path fill="#D8D388" d="M831,-280 L831,-260 L814,-250 L797,-260 L797,-280 L814,-290 Z" />
<path fill="#4ee055" d="M849,-250 L849,-230 L831,-220 L814,-230 L814,-250 L831,-260 Z" />
<path fill="#D8D388" d="M814,290 L814,310 L797,320 L779,310 L779,290 L797,280 Z" />
<path fill="#4ee055" d="M797,320 L797,340 L779,350 L762,340 L762,320 L779,310 Z" />
<path fill="#D8D388" d="M779,350 L779,370 L762,380 L745,370 L745,350 L762,340 Z" />
<path fill="#D8D388" d="M762,380 L762,400 L745,410 L727,400 L727,380 L745,370 Z" />
<path fill="#D8D388" d="M727,440 L727,460 L710,470 L693,460 L693,440 L710,430 Z" />
<path fill="#D8D388" d="M710,470 L710,490 L693,500 L675,490 L675,470 L693,460 Z" />
<path fill="#4ee055" d="M693,500 L693,520 L675,530 L658,520 L658,500 L675,490 Z" />
<path fill="#D8D388" d="M675,530 L675,550 L658,560 L641,550 L641,530 L658,520 Z" />
<path fill="#D8D388" d="M814,350 L814,370 L797,380 L779,370 L779,350 L797,340 Z" />
<path fill="#4ee055" d="M797,380 L797,400 L779,410 L762,400 L762,380 L779,370 Z" />
<path fill="#D8D388" d="M779,410 L779,430 L762,440 L745,430 L745,410 L762,400 Z" />
<path fill="#D8D388" d="M762,440 L762,460 L745,470 L727,460 L727,440 L745,430 Z" />
<path fill="#4ee055" d="M745,470 L745,490 L727,500 L710,490 L710,470 L727,460 Z" />
<path fill="#D8D388" d="M727,500 L727,520 L710,530 L693,520 L693,500 L710,490 Z" />
<path fill="#D8D388" d="M831,380 L831,400 L814,410 L797,400 L797,380 L814,370 Z" />
<path fill="#D8D388" d="M814,410 L814,430 L797,440 L779,430 L779,410 L797,400 Z" />
<path fill="#4ee055" d="M797,440 L797,460 L779,470 L762,460 L762,440 L779,430 Z" />
<path fill="#D8D388" d="M779,470 L779,490 L762,500 L745,490 L745,470 L762,460 Z" />
<path fill="#D8D388" d="M-121,-10 L-121,10 L-139,20 L-156,10 L-156,-10 L-139,-20 Z" />
<path fill="#4ee055" d="M-87,-70 L-87,-50 L-104,-40 L-121,-50 L-121,-70 L-104,-80 Z" />
<path fill="#D8D388" d="M-69,-220 L-69,-200 L-87,-190 L-104,-200 L-104,-220 L-87,-230 Z" />
<path fill="#4ee055" d="M-191,-70 L-191,-50 L-208,-40 L-225,-50 L-225,-70 L-208,-80 Z" />
<path fill="#D8D388" d="M-156,-130 L-156,-110 L-173,-100 L-191,-110 L-191,-130 L-173,-140 Z" />
<path fill="#4ee055" d="M-139,-160 L-139,-140 L-156,-130 L-173,-140 L-173,-160 L-156,-170 Z" />
<path fill="#D8D388" d="M-17,-250 L-17,-230 L-35,-220 L-52,-230 L-52,-250 L-35,-260 Z" />
<path fill="#D8D388" d="M-225,50 L-225,70 L-242,80 L-260,70 L-260,50 L-242,40 Z" />
<path fill="#D8D388" d="M-225,110 L-225,130 L-242,140 L-260,130 L-260,110 L-242,100 Z" />
<path fill="#D8D388" d="M-156,290 L-156,310 L-173,320 L-191,310 L-191,290 L-173,280 Z" />
<path fill="#D8D388" d="M-173,260 L-173,280 L-191,290 L-208,280 L-208,260 L-191,250 Z" />
<path fill="#D8D388" d="M208,-340 L208,-320 L191,-310 L173,-320 L173,-340 L191,-350 Z" />
<path fill="#D8D388" d="M-104,320 L-104,340 L-121,350 L-139,340 L-139,320 L-121,310 Z" />
<path fill="#4ee055" d="M-87,350 L-87,370 L-104,380 L-121,370 L-121,350 L-104,340 Z" />
<path fill="#D8D388" d="M-416,20 L-416,40 L-433,50 L-450,40 L-450,20 L-433,10 Z" />
<path fill="#D8D388" d="M-416,-40 L-416,-20 L-433,-10 L-450,-20 L-450,-40 L-433,-50 Z" />
<path fill="#D8D388" d="M312,-340 L312,-320 L294,-310 L277,-320 L277,-340 L294,-350 Z" />
<path fill="#D8D388" d="M-416,80 L-416,100 L-433,110 L-450,100 L-450,80 L-433,70 Z" />
<path fill="#D8D388" d="M-433,50 L-433,70 L-450,80 L-468,70 L-468,50 L-450,40 Z" />
<path fill="#4ee055" d="M-398,-130 L-398,-110 L-416,-100 L-433,-110 L-433,-130 L-416,-140 Z" />
<path fill="#D8D388" d="M-381,-160 L-381,-140 L-398,-130 L-416,-140 L-416,-160 L-398,-170 Z" />
<path fill="#D8D388" d="M-364,-190 L-364,-170 L-381,-160 L-398,-170 L-398,-190 L-381,-200 Z" />
<path fill="#D8D388" d="M312,-400 L312,-380 L294,-370 L277,-380 L277,-400 L294,-410 Z" />
<path fill="#D8D388" d="M346,-340 L346,-320 L329,-310 L312,-320 L312,-340 L329,-350 Z" />
<path fill="#D8D388" d="M364,-310 L364,-290 L346,-280 L329,-290 L329,-310 L346,-320 Z" />
<path fill="#D8D388" d="M-416,140 L-416,160 L-433,170 L-450,160 L-450,140 L-433,130 Z" />
<path fill="#D8D388" d="M-485,20 L-485,40 L-502,50 L-520,40 L-520,20 L-502,10 Z" />
<path fill="#D8D388" d="M-468,-70 L-468,-50 L-485,-40 L-502,-50 L-502,-70 L-485,-80 Z" />
<path fill="#D8D388" d="M346,-400 L346,-380 L329,-370 L312,-380 L312,-400 L329,-410 Z" />
<path fill="#D8D388" d="M468,-190 L468,-170 L450,-160 L433,-170 L433,-190 L450,-200 Z" />
</g>
</svg>