<?xml version="1.0" encoding="utf-8"?>
<svg viewBox="-1023.6420272732065 -739.0 1562.3098284271273 1298.0" preserveAspectRatio="xMidYMid meet" version="1.1" baseProfile="full" xmlns="http://www.w3.org/2000/svg" style="background-color: black;">
<g style="stroke:#ffffff; stroke-width: 1; stroke-linejoin: round;">
<path fill="#4ee055" d="M17,-10 L17,10 L0,20 L-17,10 L-17,-10 L0,-20 Z" />
<path fill="#D8D388" d="M0,-40 L0,-20 L-17,-10 L-35,-20 L-35,-40 L-17,-50 Z" />
<path fill="#D8D388" d="M52,-10 L52,10 L35,20 L17,10 L17,-10 L35,-20 Z" />
<path fill="#D8D388" d="M35,20 L35,40 L17,50 L0,40 L0,20 L17,10 Z" />
<path fill="#D8D388" d="M0,20 L0,40 L-17,50 L-35,40 L-35,20 L-17,10 Z" />
<path fill="#D8D388" d="M-17,-10 L-17,10 L-35,20 L-52,10 L-52,-10 L-35,-20 Z" />
<path fill="#D8D388" d="M0,-40 L0,-20 L-17,-10 L-35,-20 L-35,-40 L-17,-50 Z" />
<path fill="#D8D388" d="M87,-10 L87,10 L69,20 L52,10 L52,-10 L69,-20 Z" />
<path fill="#4ee055" d="M69,20 L69,40 L52,50 L35,40 L35,20 L52,10 Z" />
<path fill="#D8D388" d="M52,50 L52,70 L35,80 L17,70 L17,50 L35,40 Z" />
<path fill="#4ee055" d="M17,50 L17,70 L0,80 L-17,70 L-17,50 L0,40 Z" />
<path fill="#D8D388" d="M-17,50 L-17,70 L-35,80 L-52,70 L-52,50 L-35,40 Z" />
<path fill="#4ee055" d="M-35,20 L-35,40 L-52,50 L-69,40 L-69,20 L-52,10 Z" />
<path fill="#D8D388" d="M-52,-10 L-52,10 L-69,20 L-87,10 L-87,-10 L-69,-20 Z" />
<path fill="#4ee055" d="M-35,-40 L-35,-20 L-52,-10 L-69,-20 L-69,-40 L-52,-50 Z" />
<path fill="#4ee055" d="M121,-10 L121,10 L104,20 L87,10 L87,-10 L104,-20 Z" />
<path fill="#D8D388" d="M104,20 L104,40 L87,50 L69,40 L69,20 L87,10 Z" />
<path fill="#D8D388" d="M87,50 L87,70 L69,80 L52,70 L52,50 L69,40 Z" />
<path fill="#4ee055" d="M69,80 L69,100 L52,110 L35,100 L35,80 L52,70 Z" />
<path fill="#D8D388" d="M35,80 L35,100 L17,110 L0,100 L0,80 L17,70 Z" />
<path fill="#D8D388" d="M0,80 L0,100 L-17,110 L-35,100 L-35,80 L-17,70 Z" />
<path fill="#4ee055" d="M-35,80 L-35,100 L-52,110 L-69,100 L-69,80 L-52,70 Z" />
<path fill="#D8D388" d="M-52,50 L-52,70 L-69,80 L-87,70 L-87,50 L-69,40 Z" />
<path fill="#D8D388" d="M-69,20 L-69,40 L-87,50 L-104,40 L-104,20 L-87,10 Z" />
<path fill="#4ee055" d="M-87,-10 L-87,10 L-104,20 L-121,10 L-121,-10 L-104,-20 Z" />
<path fill="#D8D388" d="M-69,-40 L-69,-20 L-87,-10 L-104,-20 L-104,-40 L-87,-50 Z" />
<path fill="#D8D388" d="M156,-10 L156,10 L139,20 L121,10 L121,-10 L139,-20 Z" />
<path fill="#D8D388" d="M139,20 L139,40 L121,50 L104,40 L104,20 L121,10 Z" />
<path fill="#4ee055" d="M121,50 L121,70 L104,80 L87,70 L87,50 L104,40 Z" />
<path fill="#D8D388" d="M104,80 L104,100 L87,110 L69,100 L69,80 L87,70 Z" />
<path fill="#D8D388" d="M87,110 L87,130 L69,140 L52,130 L52,110 L69,100 Z" />
<path fill="#D8D388" d="M52,110 L52,130 L35,140 L17,130 L17,110 L35,100 Z" />
<path fill="#4ee055" d="M17,110 L17,130 L0,140 L-17,130 L-17,110 L0,100 Z" />
<path fill="#D8D388" d="M-17,110 L-17,130 L-35,140 L-52,130 L-52,110 L-35,100 Z" />
<path fill="#D8D388" d="M-52,110 L-52,130 L-69,140 L-87,130 L-87,110 L-69,100 Z" />
<path fill="#D8D388" d="M-69,80 L-69,100 L-87,110 L-104,100 L-104,80 L-87,70 Z" />
<path fill="#4ee055" d="M-87,50 L-87,70 L-104,80 L-121,70 L-121,50 L-104,40 Z" />
<path fill="#D8D388" d="M-104,20 L-104,40 L-121,50 L-139,40 L-139,20 L-121,10 Z" />
<path fill="#D8D388" d="M-121,-10 L-121,10 L-139,20 L-156,10 L-156,-10 L-139,-20 Z" />
<path fill="#D8D388" d="M-104,-40 L-104,-20 L-121,-10 L-139,-20 L-139,-40 L-121,-50 Z" />
<path fill="#D8D388" d="M-69,-160 L-69,-140 L-87,-130 L-104,-140 L-104,-160 L-87,-170 Z" />
<path fill="#D8D388" d="M191,-10 L191,10 L173,20 L156,10 L156,-10 L173,-20 Z" />
<path fill="#4ee055" d="M173,20 L173,40 L156,50 L139,40 L139,20 L156,10 Z" />
<path fill="#D8D388" d="M156,50 L156,70 L139,80 L121,70 L121,50 L139,40 Z" />
<path fill="#D8D388" d="M139,80 L139,100 L121,110 L104,100 L104,80 L121,70 Z" />
<path fill="#4ee055" d="M121,110 L121,130 L104,140 L87,130 L87,110 L104,100 Z" />
<path fill="#D8D388" d="M104,140 L104,160 L87,170 L69,160 L69,140 L87,130 Z" />
<path fill="#4ee055" d="M69,140 L69,160 L52,170 L35,160 L35,140 L52,130 Z" />
<path fill="#D8D388" d="M35,140 L35,160 L17,170 L0,160 L0,140 L17,130 Z" />
<path fill="#D8D388" d="M0,140 L0,160 L-17,170 L-35,160 L-35,140 L-17,130 Z" />
<path fill="#4ee055" d="M-35,140 L-35,160 L-52,170 L-69,160 L-69,140 L-52,130 Z" />
<path fill="#D8D388" d="M-69,140 L-69,160 L-87,170 L-104,160 L-104,140 L-87,130 Z" />
<path fill="#4ee055" d="M-87,110 L-87,130 L-104,140 L-121,130 L-121,110 L-104,100 Z" />
<path fill="#D8D388" d="M-104,80 L-104,100 L-121,110 L-139,100 L-139,80 L-121,70 Z" />
<path fill="#D8D388" d="M-121,50 L-121,70 L-139,80 L-156,70 L-156,50 L-139,40 Z" />
<path fill="#4ee055" d="M-139,20 L-139,40 L-156,50 L-173,40 L-173,20 L-156,10 Z" />
<path fill="#D8D388" d="M-156,-10 L-156,10 L-173,20 L-191,10 L-191,-10 L-173,-20 Z" />
<path fill="#4ee055" d="M-139,-40 L-139,-20 L-156,-10 L-173,-20 L-173,-40 L-156,-50 Z" />
<path fill="#D8D388" d="M-121,-70 L-121,-50 L-139,-40 L-156,-50 L-156,-70 L-139,-80 Z" />
<path fill="#D8D388" d="M-104,-100 L-104,-80 L-121,-70 L-139,-80 L-139,-100 L-121,-110 Z" />
<path fill="#4ee055" d="M-87,-130 L-87,-110 L-104,-100 L-121,-110 L-121,-130 L-104,-140 Z" />
<path fill="#D8D388" d="M-69,-160 L-69,-140 L-87,-130 L-104,-140 L-104,-160 L-87,-170 Z" />
<path fill="#4ee055" d="M-87,-190 L-87,-170 L-104,-160 L-121,-170 L-121,-190 L-104,-200 Z" />
<path fill="#D8D388" d="M208,20 L208,40 L191,50 L173,40 L173,20 L191,10 Z" />
<path fill="#D8D388" d="M191,50 L191,70 L173,80 L156,70 L156,50 L173,40 Z" />
<path fill="#4ee055" d="M173,80 L173,100 L156,110 L139,100 L139,80 L156,70 Z" />
<path fill="#D8D388" d="M156,110 L156,130 L139,140 L121,130 L121,110 L139,100 Z" />
<path fill="#D8D388" d="M139,140 L139,160 L121,170 L104,160 L104,140 L121,130 Z" />
<path fill="#4ee055" d="M17,170 L17,190 L0,200 L-17,190 L-17,170 L0,160 Z" />
<path fill="#D8D388" d="M-17,170 L-17,190 L-35,200 L-52,190 L-52,170 L-35,160 Z" />
<path fill="#D8D388" d="M-52,170 L-52,190 L-69,200 L-87,190 L-87,170 L-69,160 Z" />
<path fill="#4ee055" d="M-87,170 L-87,190 L-104,200 L-121,190 L-121,170 L-104,160 Z" />
<path fill="#D8D388" d="M-104,140 L-104,160 L-121,170 L-139,160 L-139,140 L-121,130 Z" />
<path fill="#D8D388" d="M-121,110 L-121,130 L-139,140 L-156,130 L-156,110 L-139,100 Z" />
<path fill="#4ee055" d="M-139,80 L-139,100 L-156,110 L-173,100 L-173,80 L-156,70 Z" />
<path fill="#D8D388" d="M-156,50 L-156,70 L-173,80 L-191,70 L-191,50 L-173,40 Z" />
<path fill="#D8D388" d="M-173,20 L-173,40 L-191,50 L-208,40 L-208,20 L-191,10 Z" />
<path fill="#4ee055" d="M-191,-10 L-191,10 L-208,20 L-225,10 L-225,-10 L-208,-20 Z" />
<path fill="#D8D388" d="M-173,-40 L-173,-20 L-191,-10 L-208,-20 L-208,-40 L-191,-50 Z" />
<path fill="#D8D388" d="M-156,-70 L-156,-50 L-173,-40 L-191,-50 L-191,-70 L-173,-80 Z" />
<path fill="#4ee055" d="M-139,-100 L-139,-80 L-156,-70 L-173,-80 L-173,-100 L-156,-110 Z" />
<path fill="#D8D388" d="M-121,-130 L-121,-110 L-139,-100 L-156,-110 L-156,-130 L-139,-140 Z" />
<path fill="#D8D388" d="M-104,-160 L-104,-140 L-121,-130 L-139,-140 L-139,-160 L-121,-170 Z" />
<path fill="#4ee055" d="M-87,-190 L-87,-170 L-104,-160 L-121,-170 L-121,-190 L-104,-200 Z" />
<path fill="#D8D388" d="M-104,-220 L-104,-200 L-121,-190 L-139,-200 L-139,-220 L-121,-230 Z" />
<path fill="#D8D388" d="M242,20 L242,40 L225,50 L208,40 L208,20 L225,10 Z" />
<path fill="#4ee055" d="M225,50 L225,70 L208,80 L191,70 L191,50 L208,40 Z" />
<path fill="#D8D388" d="M208,80 L208,100 L191,110 L173,100 L173,80 L191,70 Z" />
<path fill="#D8D388" d="M191,110 L191,130 L173,140 L156,130 L156,110 L173,100 Z" />
<path fill="#4ee055" d="M173,140 L173,160 L156,170 L139,160 L139,140 L156,130 Z" />
<path fill="#D8D388" d="M35,200 L35,220 L17,230 L0,220 L0,200 L17,190 Z" />
<path fill="#D8D388" d="M0,200 L0,220 L-17,230 L-35,220 L-35,200 L-17,190 Z" />
<path fill="#4ee055" d="M-35,200 L-35,220 L-52,230 L-69,220 L-69,200 L-52,190 Z" />
<path fill="#D8D388" d="M-121,170 L-121,190 L-139,200 L-156,190 L-156,170 L-139,160 Z" />
<path fill="#4ee055" d="M-139,140 L-139,160 L-156,170 L-173,160 L-173,140 L-156,130 Z" />
<path fill="#D8D388" d="M-156,110 L-156,130 L-173,140 L-191,130 L-191,110 L-173,100 Z" />
<path fill="#D8D388" d="M-173,80 L-173,100 L-191,110 L-208,100 L-208,80 L-191,70 Z" />
<path fill="#4ee055" d="M-191,50 L-191,70 L-208,80 L-225,70 L-225,50 L-208,40 Z" />
<path fill="#D8D388" d="M-208,20 L-208,40 L-225,50 L-242,40 L-242,20 L-225,10 Z" />
<path fill="#D8D388" d="M-225,-10 L-225,10 L-242,20 L-260,10 L-260,-10 L-242,-20 Z" />
<path fill="#D8D388" d="M-208,-40 L-208,-20 L-225,-10 L-242,-20 L-242,-40 L-225,-50 Z" />
<path fill="#4ee055" d="M-191,-70 L-191,-50 L-208,-40 L-225,-50 L-225,-70 L-208,-80 Z" />
<path fill="#D8D388" d="M-173,-100 L-173,-80 L-191,-70 L-208,-80 L-208,-100 L-191,-110 Z" />
<path fill="#D8D388" d="M-156,-130 L-156,-110 L-173,-100 L-191,-110 L-191,-130 L-173,-140 Z" />
<path fill="#4ee055" d="M-139,-160 L-139,-140 L-156,-130 L-173,-140 L-173,-160 L-156,-170 Z" />
<path fill="#D8D388" d="M-121,-190 L-121,-170 L-139,-160 L-156,-170 L-156,-190 L-139,-200 Z" />
<path fill="#D8D388" d="M-104,-220 L-104,-200 L-121,-190 L-139,-200 L-139,-220 L-121,-230 Z" />
<path fill="#D8D388" d="M-121,-250 L-121,-230 L-139,-220 L-156,-230 L-156,-250 L-139,-260 Z" />
<path fill="#4ee055" d="M-87,-250 L-87,-230 L-104,-220 L-121,-230 L-121,-250 L-104,-260 Z" />
<path fill="#4ee055" d="M277,20 L277,40 L260,50 L242,40 L242,20 L260,10 Z" />
<path fill="#D8D388" d="M260,50 L260,70 L242,80 L225,70 L225,50 L242,40 Z" />
<path fill="#D8D388" d="M242,80 L242,100 L225,110 L208,100 L208,80 L225,70 Z" />
<path fill="#4ee055" d="M225,110 L225,130 L208,140 L191,130 L191,110 L208,100 Z" />
<path fill="#D8D388" d="M208,140 L208,160 L191,170 L173,160 L173,140 L191,130 Z" />
<path fill="#D8D388" d="M52,230 L52,250 L35,260 L17,250 L17,230 L35,220 Z" />
<path fill="#4ee055" d="M17,230 L17,250 L0,260 L-17,250 L-17,230 L0,220 Z" />
<path fill="#D8D388" d="M-17,230 L-17,250 L-35,260 L-52,250 L-52,230 L-35,220 Z" />
<path fill="#D8D388" d="M-173,140 L-173,160 L-191,170 L-208,160 L-208,140 L-191,130 Z" />
<path fill="#4ee055" d="M-191,110 L-191,130 L-208,140 L-225,130 L-225,110 L-208,100 Z" />
<path fill="#D8D388" d="M-208,80 L-208,100 L-225,110 L-242,100 L-242,80 L-225,70 Z" />
<path fill="#D8D388" d="M-225,50 L-225,70 L-242,80 L-260,70 L-260,50 L-242,40 Z" />
<path fill="#4ee055" d="M-242,20 L-242,40 L-260,50 L-277,40 L-277,20 L-260,10 Z" />
<path fill="#D8D388" d="M-260,-10 L-260,10 L-277,20 L-294,10 L-294,-10 L-277,-20 Z" />
<path fill="#4ee055" d="M-242,-40 L-242,-20 L-260,-10 L-277,-20 L-277,-40 L-260,-50 Z" />
<path fill="#D8D388" d="M-225,-70 L-225,-50 L-242,-40 L-260,-50 L-260,-70 L-242,-80 Z" />
<path fill="#D8D388" d="M-208,-100 L-208,-80 L-225,-70 L-242,-80 L-242,-100 L-225,-110 Z" />
<path fill="#4ee055" d="M-191,-130 L-191,-110 L-208,-100 L-225,-110 L-225,-130 L-208,-140 Z" />
<path fill="#D8D388" d="M-173,-160 L-173,-140 L-191,-130 L-208,-140 L-208,-160 L-191,-170 Z" />
<path fill="#D8D388" d="M-156,-190 L-156,-170 L-173,-160 L-191,-170 L-191,-190 L-173,-200 Z" />
<path fill="#4ee055" d="M-139,-220 L-139,-200 L-156,-190 L-173,-200 L-173,-220 L-156,-230 Z" />
<path fill="#D8D388" d="M-121,-250 L-121,-230 L-139,-220 L-156,-230 L-156,-250 L-139,-260 Z" />
<path fill="#4ee055" d="M-139,-280 L-139,-260 L-156,-250 L-173,-260 L-173,-280 L-156,-290 Z" />
<path fill="#D8D388" d="M-69,-280 L-69,-260 L-87,-250 L-104,-260 L-104,-280 L-87,-290 Z" />
<path fill="#D8D388" d="M294,50 L294,70 L277,80 L260,70 L260,50 L277,40 Z" />
<path fill="#4ee055" d="M277,80 L277,100 L260,110 L242,100 L242,80 L260,70 Z" />
<path fill="#D8D388" d="M260,110 L260,130 L242,140 L225,130 L225,110 L242,100 Z" />
<path fill="#D8D388" d="M242,140 L242,160 L225,170 L208,160 L208,140 L225,130 Z" />
<path fill="#D8D388" d="M35,260 L35,280 L17,290 L0,280 L0,260 L17,250 Z" />
<path fill="#D8D388" d="M0,260 L0,280 L-17,290 L-35,280 L-35,260 L-17,250 Z" />
<path fill="#4ee055" d="M-35,260 L-35,280 L-52,290 L-69,280 L-69,260 L-52,250 Z" />
<path fill="#D8D388" d="M-104,260 L-104,280 L-121,290 L-139,280 L-139,260 L-121,250 Z" />
<path fill="#4ee055" d="M-139,260 L-139,280 L-156,290 L-173,280 L-173,260 L-156,250 Z" />
<path fill="#D8D388" d="M-156,230 L-156,250 L-173,260 L-191,250 L-191,230 L-173,220 Z" />
<path fill="#D8D388" d="M-173,200 L-173,220 L-191,230 L-208,220 L-208,200 L-191,190 Z" />
<path fill="#D8D388" d="M-225,110 L-225,130 L-242,140 L-260,130 L-260,110 L-242,100 Z" />
<path fill="#4ee055" d="M-242,80 L-242,100 L-260,110 L-277,100 L-277,80 L-260,70 Z" />
<path fill="#D8D388" d="M-260,50 L-260,70 L-277,80 L-294,70 L-294,50 L-277,40 Z" />
<path fill="#D8D388" d="M-277,20 L-277,40 L-294,50 L-312,40 L-312,20 L-294,10 Z" />
<path fill="#4ee055" d="M-294,-10 L-294,10 L-312,20 L-329,10 L-329,-10 L-312,-20 Z" />
<path fill="#D8D388" d="M-277,-40 L-277,-20 L-294,-10 L-312,-20 L-312,-40 L-294,-50 Z" />
<path fill="#D8D388" d="M-260,-70 L-260,-50 L-277,-40 L-294,-50 L-294,-70 L-277,-80 Z" />
<path fill="#4ee055" d="M-242,-100 L-242,-80 L-260,-70 L-277,-80 L-277,-100 L-260,-110 Z" />
<path fill="#D8D388" d="M-225,-130 L-225,-110 L-242,-100 L-260,-110 L-260,-130 L-242,-140 Z" />
<path fill="#D8D388" d="M-208,-160 L-208,-140 L-225,-130 L-242,-140 L-242,-160 L-225,-170 Z" />
<path fill="#D8D388" d="M-173,-220 L-173,-200 L-191,-190 L-208,-200 L-208,-220 L-191,-230 Z" />
<path fill="#D8D388" d="M-156,-250 L-156,-230 L-173,-220 L-191,-230 L-191,-250 L-173,-260 Z" />
<path fill="#4ee055" d="M-139,-280 L-139,-260 L-156,-250 L-173,-260 L-173,-280 L-156,-290 Z" />
<path fill="#4ee055" d="M329,50 L329,70 L312,80 L294,70 L294,50 L312,40 Z" />
<path fill="#D8D388" d="M312,80 L312,100 L294,110 L277,100 L277,80 L294,70 Z" />
<path fill="#D8D388" d="M294,110 L294,130 L277,140 L260,130 L260,110 L277,100 Z" />
<path fill="#4ee055" d="M277,140 L277,160 L260,170 L242,160 L242,140 L260,130 Z" />
<path fill="#4ee055" d="M121,290 L121,310 L104,320 L87,310 L87,290 L104,280 Z" />
<path fill="#D8D388" d="M87,290 L87,310 L69,320 L52,310 L52,290 L69,280 Z" />
<path fill="#D8D388" d="M52,290 L52,310 L35,320 L17,310 L17,290 L35,280 Z" />
<path fill="#4ee055" d="M17,290 L17,310 L0,320 L-17,310 L-17,290 L0,280 Z" />
<path fill="#4ee055" d="M-87,290 L-87,310 L-104,320 L-121,310 L-121,290 L-104,280 Z" />
<path fill="#D8D388" d="M-260,110 L-260,130 L-277,140 L-294,130 L-294,110 L-277,100 Z" />
<path fill="#D8D388" d="M-277,80 L-277,100 L-294,110 L-312,100 L-312,80 L-294,70 Z" />
<path fill="#4ee055" d="M-294,50 L-294,70 L-312,80 L-329,70 L-329,50 L-312,40 Z" />
<path fill="#D8D388" d="M-312,20 L-312,40 L-329,50 L-346,40 L-346,20 L-329,10 Z" />
<path fill="#D8D388" d="M-329,-10 L-329,10 L-346,20 L-364,10 L-364,-10 L-346,-20 Z" />
<path fill="#D8D388" d="M-312,-40 L-312,-20 L-329,-10 L-346,-20 L-346,-40 L-329,-50 Z" />
<path fill="#4ee055" d="M-294,-70 L-294,-50 L-312,-40 L-329,-50 L-329,-70 L-312,-80 Z" />
<path fill="#D8D388" d="M-277,-100 L-277,-80 L-294,-70 L-312,-80 L-312,-100 L-294,-110 Z" />
<path fill="#D8D388" d="M-260,-130 L-260,-110 L-277,-100 L-294,-110 L-294,-130 L-277,-140 Z" />
<path fill="#4ee055" d="M-242,-160 L-242,-140 L-260,-130 L-277,-140 L-277,-160 L-260,-170 Z" />
<path fill="#D8D388" d="M-225,-190 L-225,-170 L-242,-160 L-260,-170 L-260,-190 L-242,-200 Z" />
<path fill="#4ee055" d="M-191,-250 L-191,-230 L-208,-220 L-225,-230 L-225,-250 L-208,-260 Z" />
<path fill="#D8D388" d="M-173,-280 L-173,-260 L-191,-250 L-208,-260 L-208,-280 L-191,-290 Z" />
<path fill="#4ee055" d="M-139,-340 L-139,-320 L-156,-310 L-173,-320 L-173,-340 L-156,-350 Z" />
<path fill="#D8D388" d="M346,80 L346,100 L329,110 L312,100 L312,80 L329,70 Z" />
<path fill="#4ee055" d="M329,110 L329,130 L312,140 L294,130 L294,110 L312,100 Z" />
<path fill="#D8D388" d="M312,140 L312,160 L294,170 L277,160 L277,140 L294,130 Z" />
<path fill="#D8D388" d="M294,170 L294,190 L277,200 L260,190 L260,170 L277,160 Z" />
<path fill="#4ee055" d="M69,320 L69,340 L52,350 L35,340 L35,320 L52,310 Z" />
<path fill="#D8D388" d="M35,320 L35,340 L17,350 L0,340 L0,320 L17,310 Z" />
<path fill="#4ee055" d="M-35,320 L-35,340 L-52,350 L-69,340 L-69,320 L-52,310 Z" />
<path fill="#D8D388" d="M-69,320 L-69,340 L-87,350 L-104,340 L-104,320 L-87,310 Z" />
<path fill="#D8D388" d="M-312,80 L-312,100 L-329,110 L-346,100 L-346,80 L-329,70 Z" />
<path fill="#D8D388" d="M-329,50 L-329,70 L-346,80 L-364,70 L-364,50 L-346,40 Z" />
<path fill="#4ee055" d="M-346,20 L-346,40 L-364,50 L-381,40 L-381,20 L-364,10 Z" />
<path fill="#D8D388" d="M-364,-10 L-364,10 L-381,20 L-398,10 L-398,-10 L-381,-20 Z" />
<path fill="#4ee055" d="M-346,-40 L-346,-20 L-364,-10 L-381,-20 L-381,-40 L-364,-50 Z" />
<path fill="#D8D388" d="M-329,-70 L-329,-50 L-346,-40 L-364,-50 L-364,-70 L-346,-80 Z" />
<path fill="#D8D388" d="M-312,-100 L-312,-80 L-329,-70 L-346,-80 L-346,-100 L-329,-110 Z" />
<path fill="#4ee055" d="M-294,-130 L-294,-110 L-312,-100 L-329,-110 L-329,-130 L-312,-140 Z" />
<path fill="#D8D388" d="M-277,-160 L-277,-140 L-294,-130 L-312,-140 L-312,-160 L-294,-170 Z" />
<path fill="#D8D388" d="M-260,-190 L-260,-170 L-277,-160 L-294,-170 L-294,-190 L-277,-200 Z" />
<path fill="#4ee055" d="M-242,-220 L-242,-200 L-260,-190 L-277,-200 L-277,-220 L-260,-230 Z" />
<path fill="#4ee055" d="M-191,-310 L-191,-290 L-208,-280 L-225,-290 L-225,-310 L-208,-320 Z" />
<path fill="#4ee055" d="M-191,-370 L-191,-350 L-208,-340 L-225,-350 L-225,-370 L-208,-380 Z" />
<path fill="#D8D388" d="M-121,-370 L-121,-350 L-139,-340 L-156,-350 L-156,-370 L-139,-380 Z" />
<path fill="#4ee055" d="M-87,-370 L-87,-350 L-104,-340 L-121,-350 L-121,-370 L-104,-380 Z" />
<path fill="#4ee055" d="M381,80 L381,100 L364,110 L346,100 L346,80 L364,70 Z" />
<path fill="#D8D388" d="M364,110 L364,130 L346,140 L329,130 L329,110 L346,100 Z" />
<path fill="#D8D388" d="M346,140 L346,160 L329,170 L312,160 L312,140 L329,130 Z" />
<path fill="#4ee055" d="M329,170 L329,190 L312,200 L294,190 L294,170 L312,160 Z" />
<path fill="#4ee055" d="M17,350 L17,370 L0,380 L-17,370 L-17,350 L0,340 Z" />
<path fill="#D8D388" d="M-17,350 L-17,370 L-35,380 L-52,370 L-52,350 L-35,340 Z" />
<path fill="#D8D388" d="M-364,50 L-364,70 L-381,80 L-398,70 L-398,50 L-381,40 Z" />
<path fill="#D8D388" d="M-381,20 L-381,40 L-398,50 L-416,40 L-416,20 L-398,10 Z" />
<path fill="#4ee055" d="M-398,-10 L-398,10 L-416,20 L-433,10 L-433,-10 L-416,-20 Z" />
<path fill="#D8D388" d="M-381,-40 L-381,-20 L-398,-10 L-416,-20 L-416,-40 L-398,-50 Z" />
<path fill="#D8D388" d="M-364,-70 L-364,-50 L-381,-40 L-398,-50 L-398,-70 L-381,-80 Z" />
<path fill="#4ee055" d="M-346,-100 L-346,-80 L-364,-70 L-381,-80 L-381,-100 L-364,-110 Z" />
<path fill="#D8D388" d="M-329,-130 L-329,-110 L-346,-100 L-364,-110 L-364,-130 L-346,-140 Z" />
<path fill="#D8D388" d="M-312,-160 L-312,-140 L-329,-130 L-346,-140 L-346,-160 L-329,-170 Z" />
<path fill="#4ee055" d="M-294,-190 L-294,-170 L-312,-160 L-329,-170 L-329,-190 L-312,-200 Z" />
<path fill="#D8D388" d="M-277,-220 L-277,-200 L-294,-190 L-312,-200 L-312,-220 L-294,-230 Z" />
<path fill="#D8D388" d="M-260,-250 L-260,-230 L-277,-220 L-294,-230 L-294,-250 L-277,-260 Z" />
<path fill="#4ee055" d="M-191,-370 L-191,-350 L-208,-340 L-225,-350 L-225,-370 L-208,-380 Z" />
<path fill="#D8D388" d="M398,110 L398,130 L381,140 L364,130 L364,110 L381,100 Z" />
<path fill="#4ee055" d="M381,140 L381,160 L364,170 L346,160 L346,140 L364,130 Z" />
<path fill="#D8D388" d="M364,170 L364,190 L346,200 L329,190 L329,170 L346,160 Z" />
<path fill="#D8D388" d="M346,200 L346,220 L329,230 L312,220 L312,200 L329,190 Z" />
<path fill="#4ee055" d="M69,380 L69,400 L52,410 L35,400 L35,380 L52,370 Z" />
<path fill="#D8D388" d="M35,380 L35,400 L17,410 L0,400 L0,380 L17,370 Z" />
<path fill="#D8D388" d="M0,380 L0,400 L-17,410 L-35,400 L-35,380 L-17,370 Z" />
<path fill="#D8D388" d="M-433,-10 L-433,10 L-450,20 L-468,10 L-468,-10 L-450,-20 Z" />
<path fill="#D8D388" d="M-416,-40 L-416,-20 L-433,-10 L-450,-20 L-450,-40 L-433,-50 Z" />
<path fill="#4ee055" d="M-398,-70 L-398,-50 L-416,-40 L-433,-50 L-433,-70 L-416,-80 Z" />
<path fill="#D8D388" d="M-381,-100 L-381,-80 L-398,-70 L-416,-80 L-416,-100 L-398,-110 Z" />
<path fill="#D8D388" d="M-364,-130 L-364,-110 L-381,-100 L-398,-110 L-398,-130 L-381,-140 Z" />
<path fill="#4ee055" d="M-346,-160 L-346,-140 L-364,-130 L-381,-140 L-381,-160 L-364,-170 Z" />
<path fill="#D8D388" d="M-329,-190 L-329,-170 L-346,-160 L-364,-170 L-364,-190 L-346,-200 Z" />
<path fill="#D8D388" d="M-312,-220 L-312,-200 L-329,-190 L-346,-200 L-346,-220 L-329,-230 Z" />
<path fill="#4ee055" d="M-294,-250 L-294,-230 L-312,-220 L-329,-230 L-329,-250 L-312,-260 Z" />
<path fill="#D8D388" d="M-277,-280 L-277,-260 L-294,-250 L-312,-260 L-312,-280 L-294,-290 Z" />
<path fill="#D8D388" d="M416,140 L416,160 L398,170 L381,160 L381,140 L398,130 Z" />
<path fill="#D8D388" d="M398,170 L398,190 L381,200 L364,190 L364,170 L381,160 Z" />
<path fill="#4ee055" d="M381,200 L381,220 L364,230 L346,220 L346,200 L364,190 Z" />
<path fill="#D8D388" d="M364,230 L364,250 L346,260 L329,250 L329,230 L346,220 Z" />
<path fill="#4ee055" d="M121,410 L121,430 L104,440 L87,430 L87,410 L104,400 Z" />
<path fill="#D8D388" d="M87,410 L87,430 L69,440 L52,430 L52,410 L69,400 Z" />
<path fill="#D8D388" d="M52,410 L52,430 L35,440 L17,430 L17,410 L35,400 Z" />
<path fill="#4ee055" d="M-450,-40 L-450,-20 L-468,-10 L-485,-20 L-485,-40 L-468,-50 Z" />
<path fill="#D8D388" d="M-433,-70 L-433,-50 L-450,-40 L-468,-50 L-468,-70 L-450,-80 Z" />
<path fill="#D8D388" d="M-416,-100 L-416,-80 L-433,-70 L-450,-80 L-450,-100 L-433,-110 Z" />
<path fill="#4ee055" d="M-398,-130 L-398,-110 L-416,-100 L-433,-110 L-433,-130 L-416,-140 Z" />
<path fill="#D8D388" d="M-381,-160 L-381,-140 L-398,-130 L-416,-140 L-416,-160 L-398,-170 Z" />
<path fill="#D8D388" d="M-364,-190 L-364,-170 L-381,-160 L-398,-170 L-398,-190 L-381,-200 Z" />
<path fill="#4ee055" d="M-346,-220 L-346,-200 L-364,-190 L-381,-200 L-381,-220 L-364,-230 Z" />
<path fill="#D8D388" d="M-329,-250 L-329,-230 L-346,-220 L-364,-230 L-364,-250 L-346,-260 Z" />
<path fill="#D8D388" d="M-312,-280 L-312,-260 L-329,-250 L-346,-260 L-346,-280 L-329,-290 Z" />
<path fill="#4ee055" d="M-294,-310 L-294,-290 L-312,-280 L-329,-290 L-329,-310 L-312,-320 Z" />
<path fill="#4ee055" d="M433,170 L433,190 L416,200 L398,190 L398,170 L416,160 Z" />
<path fill="#D8D388" d="M416,200 L416,220 L398,230 L381,220 L381,200 L398,190 Z" />
<path fill="#D8D388" d="M398,230 L398,250 L381,260 L364,250 L364,230 L381,220 Z" />
<path fill="#4ee055" d="M381,260 L381,280 L364,290 L346,280 L346,260 L364,250 Z" />
<path fill="#4ee055" d="M277,440 L277,460 L260,470 L242,460 L242,440 L260,430 Z" />
<path fill="#D8D388" d="M208,440 L208,460 L191,470 L173,460 L173,440 L191,430 Z" />
<path fill="#4ee055" d="M173,440 L173,460 L156,470 L139,460 L139,440 L156,430 Z" />
<path fill="#D8D388" d="M139,440 L139,460 L121,470 L104,460 L104,440 L121,430 Z" />
<path fill="#D8D388" d="M104,440 L104,460 L87,470 L69,460 L69,440 L87,430 Z" />
<path fill="#D8D388" d="M-468,-70 L-468,-50 L-485,-40 L-502,-50 L-502,-70 L-485,-80 Z" />
<path fill="#4ee055" d="M-450,-100 L-450,-80 L-468,-70 L-485,-80 L-485,-100 L-468,-110 Z" />
<path fill="#D8D388" d="M-433,-130 L-433,-110 L-450,-100 L-468,-110 L-468,-130 L-450,-140 Z" />
<path fill="#D8D388" d="M-416,-160 L-416,-140 L-433,-130 L-450,-140 L-450,-160 L-433,-170 Z" />
<path fill="#4ee055" d="M-398,-190 L-398,-170 L-416,-160 L-433,-170 L-433,-190 L-416,-200 Z" />
<path fill="#D8D388" d="M-381,-220 L-381,-200 L-398,-190 L-416,-200 L-416,-220 L-398,-230 Z" />
<path fill="#D8D388" d="M-364,-250 L-364,-230 L-381,-220 L-398,-230 L-398,-250 L-381,-260 Z" />
<path fill="#4ee055" d="M-346,-280 L-346,-260 L-364,-250 L-381,-260 L-381,-280 L-364,-290 Z" />
<path fill="#D8D388" d="M-329,-310 L-329,-290 L-346,-280 L-364,-290 L-364,-310 L-346,-320 Z" />
<path fill="#D8D388" d="M-312,-340 L-312,-320 L-329,-310 L-346,-320 L-346,-340 L-329,-350 Z" />
<path fill="#D8D388" d="M450,200 L450,220 L433,230 L416,220 L416,200 L433,190 Z" />
<path fill="#4ee055" d="M433,230 L433,250 L416,260 L398,250 L398,230 L416,220 Z" />
<path fill="#D8D388" d="M416,260 L416,280 L398,290 L381,280 L381,260 L398,250 Z" />
<path fill="#D8D388" d="M398,290 L398,310 L381,320 L364,310 L364,290 L381,280 Z" />
<path fill="#4ee055" d="M381,320 L381,340 L364,350 L346,340 L346,320 L364,310 Z" />
<path fill="#D8D388" d="M364,350 L364,370 L346,380 L329,370 L329,350 L346,340 Z" />
<path fill="#4ee055" d="M329,410 L329,430 L312,440 L294,430 L294,410 L312,400 Z" />
<path fill="#D8D388" d="M312,440 L312,460 L294,470 L277,460 L277,440 L294,430 Z" />
<path fill="#D8D388" d="M294,470 L294,490 L277,500 L260,490 L260,470 L277,460 Z" />
<path fill="#D8D388" d="M260,470 L260,490 L242,500 L225,490 L225,470 L242,460 Z" />
<path fill="#4ee055" d="M225,470 L225,490 L208,500 L191,490 L191,470 L208,460 Z" />
<path fill="#D8D388" d="M191,470 L191,490 L173,500 L156,490 L156,470 L173,460 Z" />
<path fill="#D8D388" d="M156,470 L156,490 L139,500 L121,490 L121,470 L139,460 Z" />
<path fill="#D8D388" d="M-485,-100 L-485,-80 L-502,-70 L-520,-80 L-520,-100 L-502,-110 Z" />
<path fill="#D8D388" d="M-468,-130 L-468,-110 L-485,-100 L-502,-110 L-502,-130 L-485,-140 Z" />
<path fill="#4ee055" d="M-450,-160 L-450,-140 L-468,-130 L-485,-140 L-485,-160 L-468,-170 Z" />
<path fill="#D8D388" d="M-433,-190 L-433,-170 L-450,-160 L-468,-170 L-468,-190 L-450,-200 Z" />
<path fill="#D8D388" d="M-416,-220 L-416,-200 L-433,-190 L-450,-200 L-450,-220 L-433,-230 Z" />
<path fill="#4ee055" d="M-398,-250 L-398,-230 L-416,-220 L-433,-230 L-433,-250 L-416,-260 Z" />
<path fill="#D8D388" d="M-381,-280 L-381,-260 L-398,-250 L-416,-260 L-416,-280 L-398,-290 Z" />
<path fill="#D8D388" d="M-364,-310 L-364,-290 L-381,-280 L-398,-290 L-398,-310 L-381,-320 Z" />
<path fill="#4ee055" d="M-346,-340 L-346,-320 L-364,-310 L-381,-320 L-381,-340 L-364,-350 Z" />
<path fill="#D8D388" d="M-329,-370 L-329,-350 L-346,-340 L-364,-350 L-364,-370 L-346,-380 Z" />
<path fill="#D8D388" d="M468,230 L468,250 L450,260 L433,250 L433,230 L450,220 Z" />
<path fill="#D8D388" d="M450,260 L450,280 L433,290 L416,280 L416,260 L433,250 Z" />
<path fill="#4ee055" d="M433,290 L433,310 L416,320 L398,310 L398,290 L416,280 Z" />
<path fill="#D8D388" d="M416,320 L416,340 L398,350 L381,340 L381,320 L398,310 Z" />
<path fill="#D8D388" d="M398,350 L398,370 L381,380 L364,370 L364,350 L381,340 Z" />
<path fill="#4ee055" d="M381,380 L381,400 L364,410 L346,400 L346,380 L364,370 Z" />
<path fill="#D8D388" d="M364,410 L364,430 L346,440 L329,430 L329,410 L346,400 Z" />
<path fill="#D8D388" d="M346,440 L346,460 L329,470 L312,460 L312,440 L329,430 Z" />
<path fill="#4ee055" d="M329,470 L329,490 L312,500 L294,490 L294,470 L312,460 Z" />
<path fill="#4ee055" d="M-502,-130 L-502,-110 L-520,-100 L-537,-110 L-537,-130 L-520,-140 Z" />
<path fill="#D8D388" d="M-485,-160 L-485,-140 L-502,-130 L-520,-140 L-520,-160 L-502,-170 Z" />
<path fill="#D8D388" d="M-468,-190 L-468,-170 L-485,-160 L-502,-170 L-502,-190 L-485,-200 Z" />
<path fill="#4ee055" d="M-450,-220 L-450,-200 L-468,-190 L-485,-200 L-485,-220 L-468,-230 Z" />
<path fill="#D8D388" d="M-433,-250 L-433,-230 L-450,-220 L-468,-230 L-468,-250 L-450,-260 Z" />
<path fill="#D8D388" d="M-416,-280 L-416,-260 L-433,-250 L-450,-260 L-450,-280 L-433,-290 Z" />
<path fill="#4ee055" d="M-398,-310 L-398,-290 L-416,-280 L-433,-290 L-433,-310 L-416,-320 Z" />
<path fill="#D8D388" d="M-381,-340 L-381,-320 L-398,-310 L-416,-320 L-416,-340 L-398,-350 Z" />
<path fill="#D8D388" d="M-364,-370 L-364,-350 L-381,-340 L-398,-350 L-398,-370 L-381,-380 Z" />
<path fill="#4ee055" d="M-346,-400 L-346,-380 L-364,-370 L-381,-380 L-381,-400 L-364,-410 Z" />
<path fill="#D8D388" d="M-329,-430 L-329,-410 L-346,-400 L-364,-410 L-364,-430 L-346,-440 Z" />
<path fill="#D8D388" d="M468,290 L468,310 L450,320 L433,310 L433,290 L450,280 Z" />
<path fill="#D8D388" d="M450,320 L450,340 L433,350 L416,340 L416,320 L433,310 Z" />
<path fill="#4ee055" d="M433,350 L433,370 L416,380 L398,370 L398,350 L416,340 Z" />
<path fill="#D8D388" d="M416,380 L416,400 L398,410 L381,400 L381,380 L398,370 Z" />
<path fill="#D8D388" d="M398,410 L398,430 L381,440 L364,430 L364,410 L381,400 Z" />
<path fill="#4ee055" d="M381,440 L381,460 L364,470 L346,460 L346,440 L364,430 Z" />
<path fill="#D8D388" d="M364,470 L364,490 L346,500 L329,490 L329,470 L346,460 Z" />
<path fill="#D8D388" d="M-520,-160 L-520,-140 L-537,-130 L-554,-140 L-554,-160 L-537,-170 Z" />
<path fill="#4ee055" d="M-502,-190 L-502,-170 L-520,-160 L-537,-170 L-537,-190 L-520,-200 Z" />
<path fill="#D8D388" d="M-485,-220 L-485,-200 L-502,-190 L-520,-200 L-520,-220 L-502,-230 Z" />
<path fill="#D8D388" d="M-468,-250 L-468,-230 L-485,-220 L-502,-230 L-502,-250 L-485,-260 Z" />
<path fill="#4ee055" d="M-450,-280 L-450,-260 L-468,-250 L-485,-260 L-485,-280 L-468,-290 Z" />
<path fill="#D8D388" d="M-433,-310 L-433,-290 L-450,-280 L-468,-290 L-468,-310 L-450,-320 Z" />
<path fill="#D8D388" d="M-416,-340 L-416,-320 L-433,-310 L-450,-320 L-450,-340 L-433,-350 Z" />
<path fill="#4ee055" d="M-398,-370 L-398,-350 L-416,-340 L-433,-350 L-433,-370 L-416,-380 Z" />
<path fill="#D8D388" d="M-381,-400 L-381,-380 L-398,-370 L-416,-380 L-416,-400 L-398,-410 Z" />
<path fill="#D8D388" d="M-364,-430 L-364,-410 L-381,-400 L-398,-410 L-398,-430 L-381,-440 Z" />
<path fill="#4ee055" d="M-346,-460 L-346,-440 L-364,-430 L-381,-440 L-381,-460 L-364,-470 Z" />
<path fill="#D8D388" d="M-329,-490 L-329,-470 L-346,-460 L-364,-470 L-364,-490 L-346,-500 Z" />
<path fill="#D8D388" d="M450,380 L450,400 L433,410 L416,400 L416,380 L433,370 Z" />
<path fill="#D8D388" d="M-537,-190 L-537,-170 L-554,-160 L-572,-170 L-572,-190 L-554,-200 Z" />
<path fill="#D8D388" d="M-520,-220 L-520,-200 L-537,-190 L-554,-200 L-554,-220 L-537,-230 Z" />
<path fill="#4ee055" d="M-502,-250 L-502,-230 L-520,-220 L-537,-230 L-537,-250 L-520,-260 Z" />
<path fill="#D8D388" d="M-485,-280 L-485,-260 L-502,-250 L-520,-260 L-520,-280 L-502,-290 Z" />
<path fill="#D8D388" d="M-468,-310 L-468,-290 L-485,-280 L-502,-290 L-502,-310 L-485,-320 Z" />
<path fill="#4ee055" d="M-450,-340 L-450,-320 L-468,-310 L-485,-320 L-485,-340 L-468,-350 Z" />
<path fill="#D8D388" d="M-433,-370 L-433,-350 L-450,-340 L-468,-350 L-468,-370 L-450,-380 Z" />
<path fill="#D8D388" d="M-416,-400 L-416,-380 L-433,-370 L-450,-380 L-450,-400 L-433,-410 Z" />
<path fill="#4ee055" d="M-398,-430 L-398,-410 L-416,-400 L-433,-410 L-433,-430 L-416,-440 Z" />
<path fill="#D8D388" d="M-381,-460 L-381,-440 L-398,-430 L-416,-440 L-416,-460 L-398,-470 Z" />
<path fill="#D8D388" d="M-364,-490 L-364,-470 L-381,-460 L-398,-470 L-398,-490 L-381,-500 Z" />
<path fill="#4ee055" d="M-346,-520 L-346,-500 L-364,-490 L-381,-500 L-381,-520 L-364,-530 Z" />
<path fill="#4ee055" d="M-554,-220 L-554,-200 L-572,-190 L-589,-200 L-589,-220 L-572,-230 Z" />
<path fill="#D8D388" d="M-537,-250 L-537,-230 L-554,-220 L-572,-230 L-572,-250 L-554,-260 Z" />
<path fill="#D8D388" d="M-520,-280 L-520,-260 L-537,-250 L-554,-260 L-554,-280 L-537,-290 Z" />
<path fill="#4ee055" d="M-502,-310 L-502,-290 L-520,-280 L-537,-290 L-537,-310 L-520,-320 Z" />
<path fill="#D8D388" d="M-485,-340 L-485,-320 L-502,-310 L-520,-320 L-520,-340 L-502,-350 Z" />
<path fill="#D8D388" d="M-468,-370 L-468,-350 L-485,-340 L-502,-350 L-502,-370 L-485,-380 Z" />
<path fill="#4ee055" d="M-450,-400 L-450,-380 L-468,-370 L-485,-380 L-485,-400 L-468,-410 Z" />
<path fill="#D8D388" d="M-433,-430 L-433,-410 L-450,-400 L-468,-410 L-468,-430 L-450,-440 Z" />
<path fill="#D8D388" d="M-416,-460 L-416,-440 L-433,-430 L-450,-440 L-450,-460 L-433,-470 Z" />
<path fill="#4ee055" d="M-398,-490 L-398,-470 L-416,-460 L-433,-470 L-433,-490 L-416,-500 Z" />
<path fill="#D8D388" d="M-381,-520 L-381,-500 L-398,-490 L-416,-500 L-416,-520 L-398,-530 Z" />
<path fill="#D8D388" d="M-572,-250 L-572,-230 L-589,-220 L-606,-230 L-606,-250 L-589,-260 Z" />
<path fill="#4ee055" d="M-554,-280 L-554,-260 L-572,-250 L-589,-260 L-589,-280 L-572,-290 Z" />
<path fill="#D8D388" d="M-537,-310 L-537,-290 L-554,-280 L-572,-290 L-572,-310 L-554,-320 Z" />
<path fill="#D8D388" d="M-520,-340 L-520,-320 L-537,-310 L-554,-320 L-554,-340 L-537,-350 Z" />
<path fill="#4ee055" d="M-502,-370 L-502,-350 L-520,-340 L-537,-350 L-537,-370 L-520,-380 Z" />
<path fill="#D8D388" d="M-485,-400 L-485,-380 L-502,-370 L-520,-380 L-520,-400 L-502,-410 Z" />
<path fill="#D8D388" d="M-468,-430 L-468,-410 L-485,-400 L-502,-410 L-502,-430 L-485,-440 Z" />
<path fill="#4ee055" d="M-450,-460 L-450,-440 L-468,-430 L-485,-440 L-485,-460 L-468,-470 Z" />
<path fill="#D8D388" d="M-433,-490 L-433,-470 L-450,-460 L-468,-470 L-468,-490 L-450,-500 Z" />
<path fill="#D8D388" d="M-589,-280 L-589,-260 L-606,-250 L-624,-260 L-624,-280 L-606,-290 Z" />
<path fill="#D8D388" d="M-572,-310 L-572,-290 L-589,-280 L-606,-290 L-606,-310 L-589,-320 Z" />
<path fill="#4ee055" d="M-554,-340 L-554,-320 L-572,-310 L-589,-320 L-589,-340 L-572,-350 Z" />
<path fill="#D8D388" d="M-537,-370 L-537,-350 L-554,-340 L-572,-350 L-572,-370 L-554,-380 Z" />
<path fill="#D8D388" d="M-520,-400 L-520,-380 L-537,-370 L-554,-380 L-554,-400 L-537,-410 Z" />
<path fill="#4ee055" d="M-502,-430 L-502,-410 L-520,-400 L-537,-410 L-537,-430 L-520,-440 Z" />
<path fill="#D8D388" d="M-485,-460 L-485,-440 L-502,-430 L-520,-440 L-520,-460 L-502,-470 Z" />
<path fill="#D8D388" d="M-468,-490 L-468,-470 L-485,-460 L-502,-470 L-502,-490 L-485,-500 Z" />
<path fill="#4ee055" d="M-450,-520 L-450,-500 L-468,-490 L-485,-500 L-485,-520 L-468,-530 Z" />
<path fill="#4ee055" d="M-606,-310 L-606,-290 L-624,-280 L-641,-290 L-641,-310 L-624,-320 Z" />
<path fill="#D8D388" d="M-589,-340 L-589,-320 L-606,-310 L-624,-320 L-624,-340 L-606,-350 Z" />
<path fill="#D8D388" d="M-572,-370 L-572,-350 L-589,-340 L-606,-350 L-606,-370 L-589,-380 Z" />
<path fill="#4ee055" d="M-554,-400 L-554,-380 L-572,-370 L-589,-380 L-589,-400 L-572,-410 Z" />
<path fill="#D8D388" d="M-537,-430 L-537,-410 L-554,-400 L-572,-410 L-572,-430 L-554,-440 Z" />
<path fill="#D8D388" d="M-520,-460 L-520,-440 L-537,-430 L-554,-440 L-554,-460 L-537,-470 Z" />
<path fill="#4ee055" d="M-502,-490 L-502,-470 L-520,-460 L-537,-470 L-537,-490 L-520,-500 Z" />
<path fill="#D8D388" d="M-485,-520 L-485,-500 L-502,-490 L-520,-500 L-520,-520 L-502,-530 Z" />
<path fill="#D8D388" d="M-468,-550 L-468,-530 L-485,-520 L-502,-530 L-502,-550 L-485,-560 Z" />
<path fill="#D8D388" d="M-624,-340 L-624,-320 L-641,-310 L-658,-320 L-658,-340 L-641,-350 Z" />
<path fill="#4ee055" d="M-606,-370 L-606,-350 L-624,-340 L-641,-350 L-641,-370 L-624,-380 Z" />
<path fill="#D8D388" d="M-589,-400 L-589,-380 L-606,-370 L-624,-380 L-624,-400 L-606,-410 Z" />
<path fill="#D8D388" d="M-572,-430 L-572,-410 L-589,-400 L-606,-410 L-606,-430 L-589,-440 Z" />
<path fill="#4ee055" d="M-554,-460 L-554,-440 L-572,-430 L-589,-440 L-589,-460 L-572,-470 Z" />
<path fill="#D8D388" d="M-537,-490 L-537,-470 L-554,-460 L-572,-470 L-572,-490 L-554,-500 Z" />
<path fill="#D8D388" d="M-520,-520 L-520,-500 L-537,-490 L-554,-500 L-554,-520 L-537,-530 Z" />
<path fill="#4ee055" d="M-502,-550 L-502,-530 L-520,-520 L-537,-530 L-537,-550 L-520,-560 Z" />
<path fill="#D8D388" d="M-641,-370 L-641,-350 L-658,-340 L-675,-350 L-675,-370 L-658,-380 Z" />
<path fill="#D8D388" d="M-624,-400 L-624,-380 L-641,-370 L-658,-380 L-658,-400 L-641,-410 Z" />
<path fill="#4ee055" d="M-606,-430 L-606,-410 L-624,-400 L-641,-410 L-641,-430 L-624,-440 Z" />
<path fill="#D8D388" d="M-589,-460 L-589,-440 L-606,-430 L-624,-440 L-624,-460 L-606,-470 Z" />
<path fill="#D8D388" d="M-572,-490 L-572,-470 L-589,-460 L-606,-470 L-606,-490 L-589,-500 Z" />
<path fill="#4ee055" d="M-554,-520 L-554,-500 L-572,-490 L-589,-500 L-589,-520 L-572,-530 Z" />
<path fill="#D8D388" d="M-537,-550 L-537,-530 L-554,-520 L-572,-530 L-572,-550 L-554,-560 Z" />
<path fill="#D8D388" d="M-520,-580 L-520,-560 L-537,-550 L-554,-560 L-554,-580 L-537,-590 Z" />
<path fill="#D8D388" d="M-675,-370 L-675,-350 L-693,-340 L-710,-350 L-710,-370 L-693,-380 Z" />
<path fill="#4ee055" d="M-658,-400 L-658,-380 L-675,-370 L-693,-380 L-693,-400 L-675,-410 Z" />
<path fill="#D8D388" d="M-641,-430 L-641,-410 L-658,-400 L-675,-410 L-675,-430 L-658,-440 Z" />
<path fill="#D8D388" d="M-624,-460 L-624,-440 L-641,-430 L-658,-440 L-658,-460 L-641,-470 Z" />
<path fill="#4ee055" d="M-606,-490 L-606,-470 L-624,-460 L-641,-470 L-641,-490 L-624,-500 Z" />
<path fill="#D8D388" d="M-589,-520 L-589,-500 L-606,-490 L-624,-500 L-624,-520 L-606,-530 Z" />
<path fill="#D8D388" d="M-572,-550 L-572,-530 L-589,-520 L-606,-530 L-606,-550 L-589,-560 Z" />
<path fill="#4ee055" d="M-554,-580 L-554,-560 L-572,-550 L-589,-560 L-589,-580 L-572,-590 Z" />
<path fill="#D8D388" d="M-537,-610 L-537,-590 L-554,-580 L-572,-590 L-572,-610 L-554,-620 Z" />
<path fill="#D8D388" d="M-520,-640 L-520,-620 L-537,-610 L-554,-620 L-554,-640 L-537,-650 Z" />
<path fill="#4ee055" d="M-710,-370 L-710,-350 L-727,-340 L-745,-350 L-745,-370 L-727,-380 Z" />
<path fill="#D8D388" d="M-693,-400 L-693,-380 L-710,-370 L-727,-380 L-727,-400 L-710,-410 Z" />
<path fill="#D8D388" d="M-675,-430 L-675,-410 L-693,-400 L-710,-410 L-710,-430 L-693,-440 Z" />
<path fill="#4ee055" d="M-658,-460 L-658,-440 L-675,-430 L-693,-440 L-693,-460 L-675,-470 Z" />
<path fill="#D8D388" d="M-641,-490 L-641,-470 L-658,-460 L-675,-470 L-675,-490 L-658,-500 Z" />
<path fill="#D8D388" d="M-624,-520 L-624,-500 L-641,-490 L-658,-500 L-658,-520 L-641,-530 Z" />
<path fill="#4ee055" d="M-606,-550 L-606,-530 L-624,-520 L-641,-530 L-641,-550 L-624,-560 Z" />
<path fill="#D8D388" d="M-589,-580 L-589,-560 L-606,-550 L-624,-560 L-624,-580 L-606,-590 Z" />
<path fill="#D8D388" d="M-572,-610 L-572,-590 L-589,-580 L-606,-590 L-606,-610 L-589,-620 Z" />
<path fill="#4ee055" d="M-554,-640 L-554,-620 L-572,-610 L-589,-620 L-589,-640 L-572,-650 Z" />
<path fill="#D8D388" d="M-537,-670 L-537,-650 L-554,-640 L-572,-650 L-572,-670 L-554,-680 Z" />
<path fill="#D8D388" d="M-727,-400 L-727,-380 L-745,-370 L-762,-380 L-762,-400 L-745,-410 Z" />
<path fill="#4ee055" d="M-710,-430 L-710,-410 L-727,-400 L-745,-410 L-745,-430 L-727,-440 Z" />
<path fill="#D8D388" d="M-693,-460 L-693,-440 L-710,-430 L-727,-440 L-727,-460 L-710,-470 Z" />
<path fill="#D8D388" d="M-675,-490 L-675,-470 L-693,-460 L-710,-470 L-710,-490 L-693,-500 Z" />
<path fill="#4ee055" d="M-658,-520 L-658,-500 L-675,-490 L-693,-500 L-693,-520 L-675,-530 Z" />
<path fill="#D8D388" d="M-641,-550 L-641,-530 L-658,-520 L-675,-530 L-675,-550 L-658,-560 Z" />
<path fill="#D8D388" d="M-624,-580 L-624,-560 L-641,-550 L-658,-560 L-658,-580 L-641,-590 Z" />
<path fill="#4ee055" d="M-606,-610 L-606,-590 L-624,-580 L-641,-590 L-641,-610 L-624,-620 Z" />
<path fill="#D8D388" d="M-589,-640 L-589,-620 L-606,-610 L-624,-620 L-624,-640 L-606,-650 Z" />
<path fill="#D8D388" d="M-572,-670 L-572,-650 L-589,-640 L-606,-650 L-606,-670 L-589,-680 Z" />
<path fill="#4ee055" d="M-762,-400 L-762,-380 L-779,-370 L-797,-380 L-797,-400 L-779,-410 Z" />
<path fill="#D8D388" d="M-745,-430 L-745,-410 L-762,-400 L-779,-410 L-779,-430 L-762,-440 Z" />
<path fill="#D8D388" d="M-727,-460 L-727,-440 L-745,-430 L-762,-440 L-762,-460 L-745,-470 Z" />
<path fill="#4ee055" d="M-710,-490 L-710,-470 L-727,-460 L-745,-470 L-745,-490 L-727,-500 Z" />
<path fill="#D8D388" d="M-693,-520 L-693,-500 L-710,-490 L-727,-500 L-727,-520 L-710,-530 Z" />
<path fill="#D8D388" d="M-675,-550 L-675,-530 L-693,-520 L-710,-530 L-710,-550 L-693,-560 Z" />
<path fill="#4ee055" d="M-658,-580 L-658,-560 L-675,-550 L-693,-560 L-693,-580 L-675,-590 Z" />
<path fill="#D8D388" d="M-641,-610 L-641,-590 L-658,-580 L-675,-590 L-675,-610 L-658,-620 Z" />
<path fill="#D8D388" d="M-797,-400 L-797,-380 L-814,-370 L-831,-380 L-831,-400 L-814,-410 Z" />
<path fill="#D8D388" d="M-779,-430 L-779,-410 L-797,-400 L-814,-410 L-814,-430 L-797,-440 Z" />
<path fill="#4ee055" d="M-762,-460 L-762,-440 L-779,-430 L-797,-440 L-797,-460 L-779,-470 Z" />
<path fill="#D8D388" d="M-745,-490 L-745,-470 L-762,-460 L-779,-470 L-779,-490 L-762,-500 Z" />
<path fill="#D8D388" d="M-727,-520 L-727,-500 L-745,-490 L-762,-500 L-762,-520 L-745,-530 Z" />
<path fill="#4ee055" d="M-710,-550 L-710,-530 L-727,-520 L-745,-530 L-745,-550 L-727,-560 Z" />
<path fill="#D8D388" d="M-693,-580 L-693,-560 L-710,-550 L-727,-560 L-727,-580 L-710,-590 Z" />
<path fill="#D8D388" d="M-675,-610 L-675,-590 L-693,-580 L-710,-590 L-710,-610 L-693,-620 Z" />
<path fill="#4ee055" d="M-814,-430 L-814,-410 L-831,-400 L-849,-410 L-849,-430 L-831,-440 Z" />
<path fill="#D8D388" d="M-797,-460 L-797,-440 L-814,-430 L-831,-440 L-831,-460 L-814,-470 Z" />
<path fill="#D8D388" d="M-779,-490 L-779,-470 L-797,-460 L-814,-470 L-814,-490 L-797,-500 Z" />
<path fill="#4ee055" d="M-762,-520 L-762,-500 L-779,-490 L-797,-500 L-797,-520 L-779,-530 Z" />
<path fill="#D8D388" d="M-745,-550 L-745,-530 L-762,-520 L-779,-530 L-779,-550 L-762,-560 Z" />
<path fill="#D8D388" d="M-727,-580 L-727,-560 L-745,-550 L-762,-560 L-762,-580 L-745,-590 Z" />
<path fill="#4ee055" d="M-710,-610 L-710,-590 L-727,-580 L-745,-590 L-745,-610 L-727,-620 Z" />
<path fill="#D8D388" d="M-831,-460 L-831,-440 L-849,-430 L-866,-440 L-866,-460 L-849,-470 Z" />
<path fill="#4ee055" d="M-814,-490 L-814,-470 L-831,-460 L-849,-470 L-849,-490 L-831,-500 Z" />
<path fill="#D8D388" d="M-797,-520 L-797,-500 L-814,-490 L-831,-500 L-831,-520 L-814,-530 Z" />
<path fill="#D8D388" d="M-779,-550 L-779,-530 L-797,-520 L-814,-530 L-814,-550 L-797,-560 Z" />
<path fill="#4ee055" d="M-762,-580 L-762,-560 L-779,-550 L-797,-560 L-797,-580 L-779,-590 Z" />
<path fill="#D8D388" d="M-745,-610 L-745,-590 L-762,-580 L-779,-590 L-779,-610 L-762,-620 Z" />
<path fill="#D8D388" d="M-727,-640 L-727,-620 L-745,-610 L-762,-620 L-762,-640 L-745,-650 Z" />
<path fill="#D8D388" d="M-849,-490 L-849,-470 L-866,-460 L-883,-470 L-883,-490 L-866,-500 Z" />
<path fill="#D8D388" d="M-831,-520 L-831,-500 L-849,-490 L-866,-500 L-866,-520 L-849,-530 Z" />
<path fill="#4ee055" d="M-814,-550 L-814,-530 L-831,-520 L-849,-530 L-849,-550 L-831,-560 Z" />
<path fill="#D8D388" d="M-797,-580 L-797,-560 L-814,-550 L-831,-560 L-831,-580 L-814,-590 Z" />
<path fill="#D8D388" d="M-779,-610 L-779,-590 L-797,-580 L-814,-590 L-814,-610 L-797,-620 Z" />
<path fill="#4ee055" d="M-762,-640 L-762,-620 L-779,-610 L-797,-620 L-797,-640 L-779,-650 Z" />
<path fill="#4ee055" d="M-866,-520 L-866,-500 L-883,-490 L-901,-500 L-901,-520 L-883,-530 Z" />
<path fill="#D8D388" d="M-849,-550 L-849,-530 L-866,-520 L-883,-530 L-883,-550 L-866,-560 Z" />
<path fill="#D8D388" d="M-831,-580 L-831,-560 L-849,-550 L-866,-560 L-866,-580 L-849,-590 Z" />
<path fill="#4ee055" d="M-814,-610 L-814,-590 L-831,-580 L-849,-590 L-849,-610 L-831,-620 Z" />
<path fill="#D8D388" d="M-797,-640 L-797,-620 L-814,-610 L-831,-620 L-831,-640 L-814,-650 Z" />
<path fill="#D8D388" d="M-883,-550 L-883,-530 L-901,-520 L-918,-530 L-918,-550 L-901,-560 Z" />
<path fill="#4ee055" d="M-866,-580 L-866,-560 L-883,-550 L-901,-560 L-901,-580 L-883,-590 Z" />
<path fill="#D8D388" d="M-849,-610 L-849,-590 L-866,-580 L-883,-590 L-883,-610 L-866,-620 Z" />
<path fill="#D8D388" d="M-831,-640 L-831,-620 L-849,-610 L-866,-620 L-866,-640 L-849,-650 Z" />
<path fill="#4ee055" d="M-814,-670 L-814,-650 L-831,-640 L-849,-650 L-849,-670 L-831,-680 Z" />
<path fill="#D8D388" d="M-901,-580 L-901,-560 L-918,-550 L-935,-560 L-935,-580 L-918,-590 Z" />
<path fill="#D8D388" d="M-883,-610 L-883,-590 L-901,-580 L-918,-590 L-918,-610 L-901,-620 Z" />
<path fill="#4ee055" d="M-866,-640 L-866,-620 L-883,-610 L-901,-620 L-901,-640 L-883,-650 Z" />
<path fill="#D8D388" d="M-849,-670 L-849,-650 L-866,-640 L-883,-650 L-883,-670 L-866,-680 Z" />
<path fill="#4ee055" d="M-918,-610 L-918,-590 L-935,-580 L-953,-590 L-953,-610 L-935,-620 Z" />
<path fill="#D8D388" d="M-901,-640 L-901,-620 L-918,-610 L-935,-620 L-935,-640 L-918,-650 Z" />
<path fill="#D8D388" d="M-883,-670 L-883,-650 L-901,-640 L-918,-650 L-918,-670 L-901,-680 Z" />
<path fill="#4ee055" d="M-918,-670 L-918,-650 L-935,-640 L-953,-650 L-953,-670 L-935,-680 Z" />
<path fill="#D8D388" d="M35,-40 L35,-20 L17,-10 L0,-20 L0,-40 L17,-50 Z" />
<path fill="#4ee055" d="M225,-10 L225,10 L208,20 L191,10 L191,-10 L208,-20 Z" />
<path fill="#D8D388" d="M87,230 L87,250 L69,260 L52,250 L52,230 L69,220 Z" />
<path fill="#D8D388" d="M-52,230 L-52,250 L-69,260 L-87,250 L-87,230 L-69,220 Z" />
<path fill="#D8D388" d="M-156,-310 L-156,-290 L-173,-280 L-191,-290 L-191,-310 L-173,-320 Z" />
<path fill="#D8D388" d="M-121,-310 L-121,-290 L-139,-280 L-156,-290 L-156,-310 L-139,-320 Z" />
<path fill="#D8D388" d="M-52,290 L-52,310 L-69,320 L-87,310 L-87,290 L-69,280 Z" />
<path fill="#D8D388" d="M-121,290 L-121,310 L-139,320 L-156,310 L-156,290 L-139,280 Z" />
<path fill="#4ee055" d="M-191,230 L-191,250 L-208,260 L-225,250 L-225,230 L-208,220 Z" />
<path fill="#D8D388" d="M-156,-310 L-156,-290 L-173,-280 L-191,-290 L-191,-310 L-173,-320 Z" />
<path fill="#D8D388" d="M-173,-340 L-173,-320 L-191,-310 L-208,-320 L-208,-340 L-191,-350 Z" />
<path fill="#D8D388" d="M-173,-340 L-173,-320 L-191,-310 L-208,-320 L-208,-340 L-191,-350 Z" />
</g>
</svg>