<?xml version="1.0" encoding="utf-8"?>
<svg viewBox="-822.7241335952168 -215.5 1333.6791218280357 1001.0" preserveAspectRatio="xMidYMid meet" version="1.1" baseProfile="full" xmlns="http://www.w3.org/2000/svg" style="background-color: black;">
<g style="stroke:#ffffff; stroke-width: 1; stroke-linejoin: round;">
<path fill="#4ee055" d="M17,-10 L17,10 L0,20 L-17,10 L-17,-10 L0,-20 Z" />
<path fill="#D8D388" d="M0,-40 L0,-20 L-17,-10 L-35,-20 L-35,-40 L-17,-50 Z" />
<path fill="#D8D388" d="M35,-40 L35,-20 L17,-10 L0,-20 L0,-40 L17,-50 Z" />
<path fill="#D8D388" d="M0,20 L0,40 L-17,50 L-35,40 L-35,20 L-17,10 Z" />
<path fill="#D8D388" d="M-17,-10 L-17,10 L-35,20 L-52,10 L-52,-10 L-35,-20 Z" />
<path fill="#D8D388" d="M0,-40 L0,-20 L-17,-10 L-35,-20 L-35,-40 L-17,-50 Z" />
<path fill="#D8D388" d="M-17,-70 L-17,-50 L-35,-40 L-52,-50 L-52,-70 L-35,-80 Z" />
<path fill="#4ee055" d="M17,-70 L17,-50 L0,-40 L-17,-50 L-17,-70 L0,-80 Z" />
<path fill="#D8D388" d="M52,-70 L52,-50 L35,-40 L17,-50 L17,-70 L35,-80 Z" />
<path fill="#D8D388" d="M-17,50 L-17,70 L-35,80 L-52,70 L-52,50 L-35,40 Z" />
<path fill="#4ee055" d="M-35,20 L-35,40 L-52,50 L-69,40 L-69,20 L-52,10 Z" />
<path fill="#D8D388" d="M-52,-10 L-52,10 L-69,20 L-87,10 L-87,-10 L-69,-20 Z" />
<path fill="#4ee055" d="M-35,-40 L-35,-20 L-52,-10 L-69,-20 L-69,-40 L-52,-50 Z" />
<path fill="#D8D388" d="M-17,-70 L-17,-50 L-35,-40 L-52,-50 L-52,-70 L-35,-80 Z" />
<path fill="#D8D388" d="M87,50 L87,70 L69,80 L52,70 L52,50 L69,40 Z" />
<path fill="#4ee055" d="M69,80 L69,100 L52,110 L35,100 L35,80 L52,70 Z" />
<path fill="#D8D388" d="M35,80 L35,100 L17,110 L0,100 L0,80 L17,70 Z" />
<path fill="#D8D388" d="M0,80 L0,100 L-17,110 L-35,100 L-35,80 L-17,70 Z" />
<path fill="#4ee055" d="M-35,80 L-35,100 L-52,110 L-69,100 L-69,80 L-52,70 Z" />
<path fill="#D8D388" d="M-52,50 L-52,70 L-69,80 L-87,70 L-87,50 L-69,40 Z" />
<path fill="#D8D388" d="M-69,20 L-69,40 L-87,50 L-104,40 L-104,20 L-87,10 Z" />
<path fill="#4ee055" d="M-87,-10 L-87,10 L-104,20 L-121,10 L-121,-10 L-104,-20 Z" />
<path fill="#D8D388" d="M-69,-40 L-69,-20 L-87,-10 L-104,-20 L-104,-40 L-87,-50 Z" />
<path fill="#D8D388" d="M-52,-70 L-52,-50 L-69,-40 L-87,-50 L-87,-70 L-69,-80 Z" />
<path fill="#4ee055" d="M121,50 L121,70 L104,80 L87,70 L87,50 L104,40 Z" />
<path fill="#D8D388" d="M104,80 L104,100 L87,110 L69,100 L69,80 L87,70 Z" />
<path fill="#D8D388" d="M87,110 L87,130 L69,140 L52,130 L52,110 L69,100 Z" />
<path fill="#D8D388" d="M52,110 L52,130 L35,140 L17,130 L17,110 L35,100 Z" />
<path fill="#4ee055" d="M17,110 L17,130 L0,140 L-17,130 L-17,110 L0,100 Z" />
<path fill="#D8D388" d="M-17,110 L-17,130 L-35,140 L-52,130 L-52,110 L-35,100 Z" />
<path fill="#D8D388" d="M-52,110 L-52,130 L-69,140 L-87,130 L-87,110 L-69,100 Z" />
<path fill="#D8D388" d="M-69,80 L-69,100 L-87,110 L-104,100 L-104,80 L-87,70 Z" />
<path fill="#4ee055" d="M-87,50 L-87,70 L-104,80 L-121,70 L-121,50 L-104,40 Z" />
<path fill="#D8D388" d="M-104,20 L-104,40 L-121,50 L-139,40 L-139,20 L-121,10 Z" />
<path fill="#D8D388" d="M-121,-10 L-121,10 L-139,20 L-156,10 L-156,-10 L-139,-20 Z" />
<path fill="#D8D388" d="M-104,-40 L-104,-20 L-121,-10 L-139,-20 L-139,-40 L-121,-50 Z" />
<path fill="#4ee055" d="M-87,-70 L-87,-50 L-104,-40 L-121,-50 L-121,-70 L-104,-80 Z" />
<path fill="#4ee055" d="M173,20 L173,40 L156,50 L139,40 L139,20 L156,10 Z" />
<path fill="#D8D388" d="M156,50 L156,70 L139,80 L121,70 L121,50 L139,40 Z" />
<path fill="#D8D388" d="M139,80 L139,100 L121,110 L104,100 L104,80 L121,70 Z" />
<path fill="#4ee055" d="M121,110 L121,130 L104,140 L87,130 L87,110 L104,100 Z" />
<path fill="#D8D388" d="M104,140 L104,160 L87,170 L69,160 L69,140 L87,130 Z" />
<path fill="#4ee055" d="M69,140 L69,160 L52,170 L35,160 L35,140 L52,130 Z" />
<path fill="#D8D388" d="M35,140 L35,160 L17,170 L0,160 L0,140 L17,130 Z" />
<path fill="#D8D388" d="M0,140 L0,160 L-17,170 L-35,160 L-35,140 L-17,130 Z" />
<path fill="#4ee055" d="M-35,140 L-35,160 L-52,170 L-69,160 L-69,140 L-52,130 Z" />
<path fill="#D8D388" d="M-69,140 L-69,160 L-87,170 L-104,160 L-104,140 L-87,130 Z" />
<path fill="#4ee055" d="M-87,110 L-87,130 L-104,140 L-121,130 L-121,110 L-104,100 Z" />
<path fill="#D8D388" d="M-104,80 L-104,100 L-121,110 L-139,100 L-139,80 L-121,70 Z" />
<path fill="#D8D388" d="M-121,50 L-121,70 L-139,80 L-156,70 L-156,50 L-139,40 Z" />
<path fill="#4ee055" d="M-139,20 L-139,40 L-156,50 L-173,40 L-173,20 L-156,10 Z" />
<path fill="#D8D388" d="M-156,-10 L-156,10 L-173,20 L-191,10 L-191,-10 L-173,-20 Z" />
<path fill="#4ee055" d="M-139,-40 L-139,-20 L-156,-10 L-173,-20 L-173,-40 L-156,-50 Z" />
<path fill="#D8D388" d="M-121,-70 L-121,-50 L-139,-40 L-156,-50 L-156,-70 L-139,-80 Z" />
<path fill="#D8D388" d="M208,20 L208,40 L191,50 L173,40 L173,20 L191,10 Z" />
<path fill="#D8D388" d="M191,50 L191,70 L173,80 L156,70 L156,50 L173,40 Z" />
<path fill="#4ee055" d="M173,80 L173,100 L156,110 L139,100 L139,80 L156,70 Z" />
<path fill="#D8D388" d="M156,110 L156,130 L139,140 L121,130 L121,110 L139,100 Z" />
<path fill="#D8D388" d="M139,140 L139,160 L121,170 L104,160 L104,140 L121,130 Z" />
<path fill="#4ee055" d="M121,170 L121,190 L104,200 L87,190 L87,170 L104,160 Z" />
<path fill="#D8D388" d="M87,170 L87,190 L69,200 L52,190 L52,170 L69,160 Z" />
<path fill="#D8D388" d="M52,170 L52,190 L35,200 L17,190 L17,170 L35,160 Z" />
<path fill="#4ee055" d="M17,170 L17,190 L0,200 L-17,190 L-17,170 L0,160 Z" />
<path fill="#D8D388" d="M-17,170 L-17,190 L-35,200 L-52,190 L-52,170 L-35,160 Z" />
<path fill="#D8D388" d="M-52,170 L-52,190 L-69,200 L-87,190 L-87,170 L-69,160 Z" />
<path fill="#4ee055" d="M-87,170 L-87,190 L-104,200 L-121,190 L-121,170 L-104,160 Z" />
<path fill="#D8D388" d="M-104,140 L-104,160 L-121,170 L-139,160 L-139,140 L-121,130 Z" />
<path fill="#D8D388" d="M-121,110 L-121,130 L-139,140 L-156,130 L-156,110 L-139,100 Z" />
<path fill="#4ee055" d="M-139,80 L-139,100 L-156,110 L-173,100 L-173,80 L-156,70 Z" />
<path fill="#D8D388" d="M-156,50 L-156,70 L-173,80 L-191,70 L-191,50 L-173,40 Z" />
<path fill="#D8D388" d="M-173,20 L-173,40 L-191,50 L-208,40 L-208,20 L-191,10 Z" />
<path fill="#4ee055" d="M-191,-10 L-191,10 L-208,20 L-225,10 L-225,-10 L-208,-20 Z" />
<path fill="#D8D388" d="M-173,-40 L-173,-20 L-191,-10 L-208,-20 L-208,-40 L-191,-50 Z" />
<path fill="#D8D388" d="M242,20 L242,40 L225,50 L208,40 L208,20 L225,10 Z" />
<path fill="#4ee055" d="M225,50 L225,70 L208,80 L191,70 L191,50 L208,40 Z" />
<path fill="#D8D388" d="M208,80 L208,100 L191,110 L173,100 L173,80 L191,70 Z" />
<path fill="#D8D388" d="M191,110 L191,130 L173,140 L156,130 L156,110 L173,100 Z" />
<path fill="#4ee055" d="M173,140 L173,160 L156,170 L139,160 L139,140 L156,130 Z" />
<path fill="#D8D388" d="M156,170 L156,190 L139,200 L121,190 L121,170 L139,160 Z" />
<path fill="#D8D388" d="M139,200 L139,220 L121,230 L104,220 L104,200 L121,190 Z" />
<path fill="#D8D388" d="M104,200 L104,220 L87,230 L69,220 L69,200 L87,190 Z" />
<path fill="#4ee055" d="M69,200 L69,220 L52,230 L35,220 L35,200 L52,190 Z" />
<path fill="#D8D388" d="M35,200 L35,220 L17,230 L0,220 L0,200 L17,190 Z" />
<path fill="#D8D388" d="M0,200 L0,220 L-17,230 L-35,220 L-35,200 L-17,190 Z" />
<path fill="#4ee055" d="M-35,200 L-35,220 L-52,230 L-69,220 L-69,200 L-52,190 Z" />
<path fill="#D8D388" d="M-69,200 L-69,220 L-87,230 L-104,220 L-104,200 L-87,190 Z" />
<path fill="#D8D388" d="M-104,200 L-104,220 L-121,230 L-139,220 L-139,200 L-121,190 Z" />
<path fill="#D8D388" d="M-121,170 L-121,190 L-139,200 L-156,190 L-156,170 L-139,160 Z" />
<path fill="#4ee055" d="M-139,140 L-139,160 L-156,170 L-173,160 L-173,140 L-156,130 Z" />
<path fill="#D8D388" d="M-156,110 L-156,130 L-173,140 L-191,130 L-191,110 L-173,100 Z" />
<path fill="#D8D388" d="M-173,80 L-173,100 L-191,110 L-208,100 L-208,80 L-191,70 Z" />
<path fill="#4ee055" d="M-191,50 L-191,70 L-208,80 L-225,70 L-225,50 L-208,40 Z" />
<path fill="#D8D388" d="M-208,20 L-208,40 L-225,50 L-242,40 L-242,20 L-225,10 Z" />
<path fill="#D8D388" d="M-225,-10 L-225,10 L-242,20 L-260,10 L-260,-10 L-242,-20 Z" />
<path fill="#D8D388" d="M-208,-40 L-208,-20 L-225,-10 L-242,-20 L-242,-40 L-225,-50 Z" />
<path fill="#4ee055" d="M277,20 L277,40 L260,50 L242,40 L242,20 L260,10 Z" />
<path fill="#D8D388" d="M260,50 L260,70 L242,80 L225,70 L225,50 L242,40 Z" />
<path fill="#D8D388" d="M242,80 L242,100 L225,110 L208,100 L208,80 L225,70 Z" />
<path fill="#4ee055" d="M225,110 L225,130 L208,140 L191,130 L191,110 L208,100 Z" />
<path fill="#D8D388" d="M208,140 L208,160 L191,170 L173,160 L173,140 L191,130 Z" />
<path fill="#D8D388" d="M191,170 L191,190 L173,200 L156,190 L156,170 L173,160 Z" />
<path fill="#4ee055" d="M173,200 L173,220 L156,230 L139,220 L139,200 L156,190 Z" />
<path fill="#D8D388" d="M156,230 L156,250 L139,260 L121,250 L121,230 L139,220 Z" />
<path fill="#4ee055" d="M121,230 L121,250 L104,260 L87,250 L87,230 L104,220 Z" />
<path fill="#D8D388" d="M87,230 L87,250 L69,260 L52,250 L52,230 L69,220 Z" />
<path fill="#D8D388" d="M52,230 L52,250 L35,260 L17,250 L17,230 L35,220 Z" />
<path fill="#4ee055" d="M17,230 L17,250 L0,260 L-17,250 L-17,230 L0,220 Z" />
<path fill="#D8D388" d="M-17,230 L-17,250 L-35,260 L-52,250 L-52,230 L-35,220 Z" />
<path fill="#D8D388" d="M-52,230 L-52,250 L-69,260 L-87,250 L-87,230 L-69,220 Z" />
<path fill="#4ee055" d="M-87,230 L-87,250 L-104,260 L-121,250 L-121,230 L-104,220 Z" />
<path fill="#D8D388" d="M-121,230 L-121,250 L-139,260 L-156,250 L-156,230 L-139,220 Z" />
<path fill="#4ee055" d="M-139,200 L-139,220 L-156,230 L-173,220 L-173,200 L-156,190 Z" />
<path fill="#D8D388" d="M-156,170 L-156,190 L-173,200 L-191,190 L-191,170 L-173,160 Z" />
<path fill="#D8D388" d="M-173,140 L-173,160 L-191,170 L-208,160 L-208,140 L-191,130 Z" />
<path fill="#4ee055" d="M-191,110 L-191,130 L-208,140 L-225,130 L-225,110 L-208,100 Z" />
<path fill="#D8D388" d="M-208,80 L-208,100 L-225,110 L-242,100 L-242,80 L-225,70 Z" />
<path fill="#D8D388" d="M-225,50 L-225,70 L-242,80 L-260,70 L-260,50 L-242,40 Z" />
<path fill="#4ee055" d="M-242,20 L-242,40 L-260,50 L-277,40 L-277,20 L-260,10 Z" />
<path fill="#D8D388" d="M-260,-10 L-260,10 L-277,20 L-294,10 L-294,-10 L-277,-20 Z" />
<path fill="#4ee055" d="M-242,-40 L-242,-20 L-260,-10 L-277,-20 L-277,-40 L-260,-50 Z" />
<path fill="#D8D388" d="M312,20 L312,40 L294,50 L277,40 L277,20 L294,10 Z" />
<path fill="#D8D388" d="M294,50 L294,70 L277,80 L260,70 L260,50 L277,40 Z" />
<path fill="#4ee055" d="M277,80 L277,100 L260,110 L242,100 L242,80 L260,70 Z" />
<path fill="#D8D388" d="M260,110 L260,130 L242,140 L225,130 L225,110 L242,100 Z" />
<path fill="#D8D388" d="M242,140 L242,160 L225,170 L208,160 L208,140 L225,130 Z" />
<path fill="#4ee055" d="M225,170 L225,190 L208,200 L191,190 L191,170 L208,160 Z" />
<path fill="#D8D388" d="M208,200 L208,220 L191,230 L173,220 L173,200 L191,190 Z" />
<path fill="#D8D388" d="M191,230 L191,250 L173,260 L156,250 L156,230 L173,220 Z" />
<path fill="#4ee055" d="M173,260 L173,280 L156,290 L139,280 L139,260 L156,250 Z" />
<path fill="#D8D388" d="M139,260 L139,280 L121,290 L104,280 L104,260 L121,250 Z" />
<path fill="#D8D388" d="M104,260 L104,280 L87,290 L69,280 L69,260 L87,250 Z" />
<path fill="#4ee055" d="M69,260 L69,280 L52,290 L35,280 L35,260 L52,250 Z" />
<path fill="#D8D388" d="M35,260 L35,280 L17,290 L0,280 L0,260 L17,250 Z" />
<path fill="#D8D388" d="M0,260 L0,280 L-17,290 L-35,280 L-35,260 L-17,250 Z" />
<path fill="#4ee055" d="M-35,260 L-35,280 L-52,290 L-69,280 L-69,260 L-52,250 Z" />
<path fill="#D8D388" d="M-104,260 L-104,280 L-121,290 L-139,280 L-139,260 L-121,250 Z" />
<path fill="#4ee055" d="M-139,260 L-139,280 L-156,290 L-173,280 L-173,260 L-156,250 Z" />
<path fill="#D8D388" d="M-156,230 L-156,250 L-173,260 L-191,250 L-191,230 L-173,220 Z" />
<path fill="#D8D388" d="M-173,200 L-173,220 L-191,230 L-208,220 L-208,200 L-191,190 Z" />
<path fill="#4ee055" d="M-191,170 L-191,190 L-208,200 L-225,190 L-225,170 L-208,160 Z" />
<path fill="#D8D388" d="M-208,140 L-208,160 L-225,170 L-242,160 L-242,140 L-225,130 Z" />
<path fill="#D8D388" d="M-225,110 L-225,130 L-242,140 L-260,130 L-260,110 L-242,100 Z" />
<path fill="#4ee055" d="M-242,80 L-242,100 L-260,110 L-277,100 L-277,80 L-260,70 Z" />
<path fill="#D8D388" d="M-260,50 L-260,70 L-277,80 L-294,70 L-294,50 L-277,40 Z" />
<path fill="#D8D388" d="M-277,20 L-277,40 L-294,50 L-312,40 L-312,20 L-294,10 Z" />
<path fill="#4ee055" d="M-294,-10 L-294,10 L-312,20 L-329,10 L-329,-10 L-312,-20 Z" />
<path fill="#D8D388" d="M346,20 L346,40 L329,50 L312,40 L312,20 L329,10 Z" />
<path fill="#4ee055" d="M329,50 L329,70 L312,80 L294,70 L294,50 L312,40 Z" />
<path fill="#4ee055" d="M277,140 L277,160 L260,170 L242,160 L242,140 L260,130 Z" />
<path fill="#D8D388" d="M260,170 L260,190 L242,200 L225,190 L225,170 L242,160 Z" />
<path fill="#D8D388" d="M242,200 L242,220 L225,230 L208,220 L208,200 L225,190 Z" />
<path fill="#4ee055" d="M225,230 L225,250 L208,260 L191,250 L191,230 L208,220 Z" />
<path fill="#D8D388" d="M208,260 L208,280 L191,290 L173,280 L173,260 L191,250 Z" />
<path fill="#D8D388" d="M191,290 L191,310 L173,320 L156,310 L156,290 L173,280 Z" />
<path fill="#D8D388" d="M156,290 L156,310 L139,320 L121,310 L121,290 L139,280 Z" />
<path fill="#4ee055" d="M121,290 L121,310 L104,320 L87,310 L87,290 L104,280 Z" />
<path fill="#D8D388" d="M87,290 L87,310 L69,320 L52,310 L52,290 L69,280 Z" />
<path fill="#D8D388" d="M52,290 L52,310 L35,320 L17,310 L17,290 L35,280 Z" />
<path fill="#D8D388" d="M-121,290 L-121,310 L-139,320 L-156,310 L-156,290 L-139,280 Z" />
<path fill="#D8D388" d="M-173,260 L-173,280 L-191,290 L-208,280 L-208,260 L-191,250 Z" />
<path fill="#4ee055" d="M-191,230 L-191,250 L-208,260 L-225,250 L-225,230 L-208,220 Z" />
<path fill="#D8D388" d="M-208,200 L-208,220 L-225,230 L-242,220 L-242,200 L-225,190 Z" />
<path fill="#D8D388" d="M-225,170 L-225,190 L-242,200 L-260,190 L-260,170 L-242,160 Z" />
<path fill="#4ee055" d="M-242,140 L-242,160 L-260,170 L-277,160 L-277,140 L-260,130 Z" />
<path fill="#D8D388" d="M-260,110 L-260,130 L-277,140 L-294,130 L-294,110 L-277,100 Z" />
<path fill="#D8D388" d="M-277,80 L-277,100 L-294,110 L-312,100 L-312,80 L-294,70 Z" />
<path fill="#4ee055" d="M-294,50 L-294,70 L-312,80 L-329,70 L-329,50 L-312,40 Z" />
<path fill="#D8D388" d="M-312,20 L-312,40 L-329,50 L-346,40 L-346,20 L-329,10 Z" />
<path fill="#D8D388" d="M-329,-10 L-329,10 L-346,20 L-364,10 L-364,-10 L-346,-20 Z" />
<path fill="#D8D388" d="M364,50 L364,70 L346,80 L329,70 L329,50 L346,40 Z" />
<path fill="#4ee055" d="M277,200 L277,220 L260,230 L242,220 L242,200 L260,190 Z" />
<path fill="#D8D388" d="M260,230 L260,250 L242,260 L225,250 L225,230 L242,220 Z" />
<path fill="#D8D388" d="M242,260 L242,280 L225,290 L208,280 L208,260 L225,250 Z" />
<path fill="#4ee055" d="M225,290 L225,310 L208,320 L191,310 L191,290 L208,280 Z" />
<path fill="#D8D388" d="M208,320 L208,340 L191,350 L173,340 L173,320 L191,310 Z" />
<path fill="#D8D388" d="M-104,320 L-104,340 L-121,350 L-139,340 L-139,320 L-121,310 Z" />
<path fill="#4ee055" d="M-139,320 L-139,340 L-156,350 L-173,340 L-173,320 L-156,310 Z" />
<path fill="#4ee055" d="M-191,290 L-191,310 L-208,320 L-225,310 L-225,290 L-208,280 Z" />
<path fill="#D8D388" d="M-208,260 L-208,280 L-225,290 L-242,280 L-242,260 L-225,250 Z" />
<path fill="#D8D388" d="M-225,230 L-225,250 L-242,260 L-260,250 L-260,230 L-242,220 Z" />
<path fill="#4ee055" d="M-242,200 L-242,220 L-260,230 L-277,220 L-277,200 L-260,190 Z" />
<path fill="#D8D388" d="M-260,170 L-260,190 L-277,200 L-294,190 L-294,170 L-277,160 Z" />
<path fill="#D8D388" d="M-277,140 L-277,160 L-294,170 L-312,160 L-312,140 L-294,130 Z" />
<path fill="#4ee055" d="M-294,110 L-294,130 L-312,140 L-329,130 L-329,110 L-312,100 Z" />
<path fill="#D8D388" d="M-312,80 L-312,100 L-329,110 L-346,100 L-346,80 L-329,70 Z" />
<path fill="#D8D388" d="M-329,50 L-329,70 L-346,80 L-364,70 L-364,50 L-346,40 Z" />
<path fill="#4ee055" d="M-346,20 L-346,40 L-364,50 L-381,40 L-381,20 L-364,10 Z" />
<path fill="#D8D388" d="M-364,-10 L-364,10 L-381,20 L-398,10 L-398,-10 L-381,-20 Z" />
<path fill="#4ee055" d="M381,-100 L381,-80 L364,-70 L346,-80 L346,-100 L364,-110 Z" />
<path fill="#D8D388" d="M398,-70 L398,-50 L381,-40 L364,-50 L364,-70 L381,-80 Z" />
<path fill="#D8D388" d="M416,-40 L416,-20 L398,-10 L381,-20 L381,-40 L398,-50 Z" />
<path fill="#4ee055" d="M433,-10 L433,10 L416,20 L398,10 L398,-10 L416,-20 Z" />
<path fill="#D8D388" d="M398,50 L398,70 L381,80 L364,70 L364,50 L381,40 Z" />
<path fill="#4ee055" d="M381,80 L381,100 L364,110 L346,100 L346,80 L364,70 Z" />
<path fill="#D8D388" d="M294,230 L294,250 L277,260 L260,250 L260,230 L277,220 Z" />
<path fill="#4ee055" d="M277,260 L277,280 L260,290 L242,280 L242,260 L260,250 Z" />
<path fill="#D8D388" d="M260,290 L260,310 L242,320 L225,310 L225,290 L242,280 Z" />
<path fill="#D8D388" d="M242,320 L242,340 L225,350 L208,340 L208,320 L225,310 Z" />
<path fill="#4ee055" d="M225,350 L225,370 L208,380 L191,370 L191,350 L208,340 Z" />
<path fill="#D8D388" d="M-52,350 L-52,370 L-69,380 L-87,370 L-87,350 L-69,340 Z" />
<path fill="#4ee055" d="M-87,350 L-87,370 L-104,380 L-121,370 L-121,350 L-104,340 Z" />
<path fill="#D8D388" d="M-208,320 L-208,340 L-225,350 L-242,340 L-242,320 L-225,310 Z" />
<path fill="#D8D388" d="M-225,290 L-225,310 L-242,320 L-260,310 L-260,290 L-242,280 Z" />
<path fill="#4ee055" d="M-242,260 L-242,280 L-260,290 L-277,280 L-277,260 L-260,250 Z" />
<path fill="#D8D388" d="M-260,230 L-260,250 L-277,260 L-294,250 L-294,230 L-277,220 Z" />
<path fill="#D8D388" d="M-277,200 L-277,220 L-294,230 L-312,220 L-312,200 L-294,190 Z" />
<path fill="#4ee055" d="M-294,170 L-294,190 L-312,200 L-329,190 L-329,170 L-312,160 Z" />
<path fill="#D8D388" d="M-312,140 L-312,160 L-329,170 L-346,160 L-346,140 L-329,130 Z" />
<path fill="#D8D388" d="M-329,110 L-329,130 L-346,140 L-364,130 L-364,110 L-346,100 Z" />
<path fill="#4ee055" d="M-346,80 L-346,100 L-364,110 L-381,100 L-381,80 L-364,70 Z" />
<path fill="#D8D388" d="M-364,50 L-364,70 L-381,80 L-398,70 L-398,50 L-381,40 Z" />
<path fill="#D8D388" d="M-381,20 L-381,40 L-398,50 L-416,40 L-416,20 L-398,10 Z" />
<path fill="#D8D388" d="M398,-130 L398,-110 L381,-100 L364,-110 L364,-130 L381,-140 Z" />
<path fill="#D8D388" d="M416,-100 L416,-80 L398,-70 L381,-80 L381,-100 L398,-110 Z" />
<path fill="#4ee055" d="M433,-70 L433,-50 L416,-40 L398,-50 L398,-70 L416,-80 Z" />
<path fill="#4ee055" d="M433,50 L433,70 L416,80 L398,70 L398,50 L416,40 Z" />
<path fill="#D8D388" d="M416,80 L416,100 L398,110 L381,100 L381,80 L398,70 Z" />
<path fill="#4ee055" d="M329,230 L329,250 L312,260 L294,250 L294,230 L312,220 Z" />
<path fill="#D8D388" d="M312,260 L312,280 L294,290 L277,280 L277,260 L294,250 Z" />
<path fill="#D8D388" d="M294,290 L294,310 L277,320 L260,310 L260,290 L277,280 Z" />
<path fill="#4ee055" d="M277,320 L277,340 L260,350 L242,340 L242,320 L260,310 Z" />
<path fill="#D8D388" d="M260,350 L260,370 L242,380 L225,370 L225,350 L242,340 Z" />
<path fill="#D8D388" d="M242,380 L242,400 L225,410 L208,400 L208,380 L225,370 Z" />
<path fill="#D8D388" d="M0,380 L0,400 L-17,410 L-35,400 L-35,380 L-17,370 Z" />
<path fill="#4ee055" d="M-35,380 L-35,400 L-52,410 L-69,400 L-69,380 L-52,370 Z" />
<path fill="#D8D388" d="M-69,380 L-69,400 L-87,410 L-104,400 L-104,380 L-87,370 Z" />
<path fill="#4ee055" d="M-242,320 L-242,340 L-260,350 L-277,340 L-277,320 L-260,310 Z" />
<path fill="#D8D388" d="M-260,290 L-260,310 L-277,320 L-294,310 L-294,290 L-277,280 Z" />
<path fill="#D8D388" d="M-277,260 L-277,280 L-294,290 L-312,280 L-312,260 L-294,250 Z" />
<path fill="#4ee055" d="M-294,230 L-294,250 L-312,260 L-329,250 L-329,230 L-312,220 Z" />
<path fill="#D8D388" d="M-312,200 L-312,220 L-329,230 L-346,220 L-346,200 L-329,190 Z" />
<path fill="#D8D388" d="M-329,170 L-329,190 L-346,200 L-364,190 L-364,170 L-346,160 Z" />
<path fill="#4ee055" d="M-346,140 L-346,160 L-364,170 L-381,160 L-381,140 L-364,130 Z" />
<path fill="#D8D388" d="M-364,110 L-364,130 L-381,140 L-398,130 L-398,110 L-381,100 Z" />
<path fill="#D8D388" d="M-381,80 L-381,100 L-398,110 L-416,100 L-416,80 L-398,70 Z" />
<path fill="#4ee055" d="M-398,50 L-398,70 L-416,80 L-433,70 L-433,50 L-416,40 Z" />
<path fill="#D8D388" d="M-416,20 L-416,40 L-433,50 L-450,40 L-450,20 L-433,10 Z" />
<path fill="#D8D388" d="M-433,-10 L-433,10 L-450,20 L-468,10 L-468,-10 L-450,-20 Z" />
<path fill="#D8D388" d="M416,-160 L416,-140 L398,-130 L381,-140 L381,-160 L398,-170 Z" />
<path fill="#4ee055" d="M433,-130 L433,-110 L416,-100 L398,-110 L398,-130 L416,-140 Z" />
<path fill="#D8D388" d="M364,230 L364,250 L346,260 L329,250 L329,230 L346,220 Z" />
<path fill="#D8D388" d="M346,260 L346,280 L329,290 L312,280 L312,260 L329,250 Z" />
<path fill="#4ee055" d="M329,290 L329,310 L312,320 L294,310 L294,290 L312,280 Z" />
<path fill="#D8D388" d="M260,410 L260,430 L242,440 L225,430 L225,410 L242,400 Z" />
<path fill="#4ee055" d="M225,410 L225,430 L208,440 L191,430 L191,410 L208,400 Z" />
<path fill="#4ee055" d="M17,410 L17,430 L0,440 L-17,430 L-17,410 L0,400 Z" />
<path fill="#D8D388" d="M-17,410 L-17,430 L-35,440 L-52,430 L-52,410 L-35,400 Z" />
<path fill="#D8D388" d="M-260,350 L-260,370 L-277,380 L-294,370 L-294,350 L-277,340 Z" />
<path fill="#D8D388" d="M-277,320 L-277,340 L-294,350 L-312,340 L-312,320 L-294,310 Z" />
<path fill="#4ee055" d="M-294,290 L-294,310 L-312,320 L-329,310 L-329,290 L-312,280 Z" />
<path fill="#D8D388" d="M-312,260 L-312,280 L-329,290 L-346,280 L-346,260 L-329,250 Z" />
<path fill="#D8D388" d="M-329,230 L-329,250 L-346,260 L-364,250 L-364,230 L-346,220 Z" />
<path fill="#4ee055" d="M-346,200 L-346,220 L-364,230 L-381,220 L-381,200 L-364,190 Z" />
<path fill="#D8D388" d="M-364,170 L-364,190 L-381,200 L-398,190 L-398,170 L-381,160 Z" />
<path fill="#D8D388" d="M-381,140 L-381,160 L-398,170 L-416,160 L-416,140 L-398,130 Z" />
<path fill="#4ee055" d="M-398,110 L-398,130 L-416,140 L-433,130 L-433,110 L-416,100 Z" />
<path fill="#D8D388" d="M-416,80 L-416,100 L-433,110 L-450,100 L-450,80 L-433,70 Z" />
<path fill="#D8D388" d="M-433,50 L-433,70 L-450,80 L-468,70 L-468,50 L-450,40 Z" />
<path fill="#4ee055" d="M-450,20 L-450,40 L-468,50 L-485,40 L-485,20 L-468,10 Z" />
<path fill="#D8D388" d="M-468,-10 L-468,10 L-485,20 L-502,10 L-502,-10 L-485,-20 Z" />
<path fill="#4ee055" d="M-450,-40 L-450,-20 L-468,-10 L-485,-20 L-485,-40 L-468,-50 Z" />
<path fill="#D8D388" d="M450,-160 L450,-140 L433,-130 L416,-140 L416,-160 L433,-170 Z" />
<path fill="#D8D388" d="M416,200 L416,220 L398,230 L381,220 L381,200 L398,190 Z" />
<path fill="#D8D388" d="M398,230 L398,250 L381,260 L364,250 L364,230 L381,220 Z" />
<path fill="#4ee055" d="M381,260 L381,280 L364,290 L346,280 L346,260 L364,250 Z" />
<path fill="#D8D388" d="M242,440 L242,460 L225,470 L208,460 L208,440 L225,430 Z" />
<path fill="#D8D388" d="M35,440 L35,460 L17,470 L0,460 L0,440 L17,430 Z" />
<path fill="#D8D388" d="M0,440 L0,460 L-17,470 L-35,460 L-35,440 L-17,430 Z" />
<path fill="#4ee055" d="M-35,440 L-35,460 L-52,470 L-69,460 L-69,440 L-52,430 Z" />
<path fill="#4ee055" d="M-294,350 L-294,370 L-312,380 L-329,370 L-329,350 L-312,340 Z" />
<path fill="#D8D388" d="M-312,320 L-312,340 L-329,350 L-346,340 L-346,320 L-329,310 Z" />
<path fill="#D8D388" d="M-329,290 L-329,310 L-346,320 L-364,310 L-364,290 L-346,280 Z" />
<path fill="#4ee055" d="M-346,260 L-346,280 L-364,290 L-381,280 L-381,260 L-364,250 Z" />
<path fill="#D8D388" d="M-364,230 L-364,250 L-381,260 L-398,250 L-398,230 L-381,220 Z" />
<path fill="#D8D388" d="M-381,200 L-381,220 L-398,230 L-416,220 L-416,200 L-398,190 Z" />
<path fill="#4ee055" d="M-398,170 L-398,190 L-416,200 L-433,190 L-433,170 L-416,160 Z" />
<path fill="#D8D388" d="M-416,140 L-416,160 L-433,170 L-450,160 L-450,140 L-433,130 Z" />
<path fill="#D8D388" d="M-433,110 L-433,130 L-450,140 L-468,130 L-468,110 L-450,100 Z" />
<path fill="#4ee055" d="M-450,80 L-450,100 L-468,110 L-485,100 L-485,80 L-468,70 Z" />
<path fill="#D8D388" d="M-468,50 L-468,70 L-485,80 L-502,70 L-502,50 L-485,40 Z" />
<path fill="#D8D388" d="M-485,20 L-485,40 L-502,50 L-520,40 L-520,20 L-502,10 Z" />
<path fill="#4ee055" d="M-502,-10 L-502,10 L-520,20 L-537,10 L-537,-10 L-520,-20 Z" />
<path fill="#D8D388" d="M-485,-40 L-485,-20 L-502,-10 L-520,-20 L-520,-40 L-502,-50 Z" />
<path fill="#D8D388" d="M450,200 L450,220 L433,230 L416,220 L416,200 L433,190 Z" />
<path fill="#4ee055" d="M433,230 L433,250 L416,260 L398,250 L398,230 L416,220 Z" />
<path fill="#D8D388" d="M416,260 L416,280 L398,290 L381,280 L381,260 L398,250 Z" />
<path fill="#4ee055" d="M225,470 L225,490 L208,500 L191,490 L191,470 L208,460 Z" />
<path fill="#D8D388" d="M-17,470 L-17,490 L-35,500 L-52,490 L-52,470 L-35,460 Z" />
<path fill="#D8D388" d="M-329,350 L-329,370 L-346,380 L-364,370 L-364,350 L-346,340 Z" />
<path fill="#4ee055" d="M-346,320 L-346,340 L-364,350 L-381,340 L-381,320 L-364,310 Z" />
<path fill="#D8D388" d="M-364,290 L-364,310 L-381,320 L-398,310 L-398,290 L-381,280 Z" />
<path fill="#D8D388" d="M-381,260 L-381,280 L-398,290 L-416,280 L-416,260 L-398,250 Z" />
<path fill="#4ee055" d="M-398,230 L-398,250 L-416,260 L-433,250 L-433,230 L-416,220 Z" />
<path fill="#D8D388" d="M-416,200 L-416,220 L-433,230 L-450,220 L-450,200 L-433,190 Z" />
<path fill="#D8D388" d="M-433,170 L-433,190 L-450,200 L-468,190 L-468,170 L-450,160 Z" />
<path fill="#4ee055" d="M-450,140 L-450,160 L-468,170 L-485,160 L-485,140 L-468,130 Z" />
<path fill="#D8D388" d="M-468,110 L-468,130 L-485,140 L-502,130 L-502,110 L-485,100 Z" />
<path fill="#D8D388" d="M-485,80 L-485,100 L-502,110 L-520,100 L-520,80 L-502,70 Z" />
<path fill="#4ee055" d="M-502,50 L-502,70 L-520,80 L-537,70 L-537,50 L-520,40 Z" />
<path fill="#D8D388" d="M-520,20 L-520,40 L-537,50 L-554,40 L-554,20 L-537,10 Z" />
<path fill="#D8D388" d="M-537,-10 L-537,10 L-554,20 L-572,10 L-572,-10 L-554,-20 Z" />
<path fill="#D8D388" d="M-520,-40 L-520,-20 L-537,-10 L-554,-20 L-554,-40 L-537,-50 Z" />
<path fill="#4ee055" d="M-502,-70 L-502,-50 L-520,-40 L-537,-50 L-537,-70 L-520,-80 Z" />
<path fill="#D8D388" d="M450,260 L450,280 L433,290 L416,280 L416,260 L433,250 Z" />
<path fill="#4ee055" d="M433,290 L433,310 L416,320 L398,310 L398,290 L416,280 Z" />
<path fill="#D8D388" d="M242,500 L242,520 L225,530 L208,520 L208,500 L225,490 Z" />
<path fill="#D8D388" d="M0,500 L0,520 L-17,530 L-35,520 L-35,500 L-17,490 Z" />
<path fill="#4ee055" d="M-35,500 L-35,520 L-52,530 L-69,520 L-69,500 L-52,490 Z" />
<path fill="#D8D388" d="M-329,410 L-329,430 L-346,440 L-364,430 L-364,410 L-346,400 Z" />
<path fill="#4ee055" d="M-346,380 L-346,400 L-364,410 L-381,400 L-381,380 L-364,370 Z" />
<path fill="#D8D388" d="M-364,350 L-364,370 L-381,380 L-398,370 L-398,350 L-381,340 Z" />
<path fill="#D8D388" d="M-381,320 L-381,340 L-398,350 L-416,340 L-416,320 L-398,310 Z" />
<path fill="#4ee055" d="M-398,290 L-398,310 L-416,320 L-433,310 L-433,290 L-416,280 Z" />
<path fill="#D8D388" d="M-416,260 L-416,280 L-433,290 L-450,280 L-450,260 L-433,250 Z" />
<path fill="#D8D388" d="M-433,230 L-433,250 L-450,260 L-468,250 L-468,230 L-450,220 Z" />
<path fill="#4ee055" d="M-450,200 L-450,220 L-468,230 L-485,220 L-485,200 L-468,190 Z" />
<path fill="#D8D388" d="M-468,170 L-468,190 L-485,200 L-502,190 L-502,170 L-485,160 Z" />
<path fill="#D8D388" d="M-485,140 L-485,160 L-502,170 L-520,160 L-520,140 L-502,130 Z" />
<path fill="#4ee055" d="M-502,110 L-502,130 L-520,140 L-537,130 L-537,110 L-520,100 Z" />
<path fill="#D8D388" d="M-520,80 L-520,100 L-537,110 L-554,100 L-554,80 L-537,70 Z" />
<path fill="#D8D388" d="M-537,50 L-537,70 L-554,80 L-572,70 L-572,50 L-554,40 Z" />
<path fill="#4ee055" d="M-554,20 L-554,40 L-572,50 L-589,40 L-589,20 L-572,10 Z" />
<path fill="#D8D388" d="M-572,-10 L-572,10 L-589,20 L-606,10 L-606,-10 L-589,-20 Z" />
<path fill="#4ee055" d="M-554,-40 L-554,-20 L-572,-10 L-589,-20 L-589,-40 L-572,-50 Z" />
<path fill="#D8D388" d="M-537,-70 L-537,-50 L-554,-40 L-572,-50 L-572,-70 L-554,-80 Z" />
<path fill="#4ee055" d="M433,350 L433,370 L416,380 L398,370 L398,350 L416,340 Z" />
<path fill="#D8D388" d="M416,380 L416,400 L398,410 L381,400 L381,380 L398,370 Z" />
<path fill="#D8D388" d="M398,410 L398,430 L381,440 L364,430 L364,410 L381,400 Z" />
<path fill="#4ee055" d="M381,440 L381,460 L364,470 L346,460 L346,440 L364,430 Z" />
<path fill="#4ee055" d="M225,530 L225,550 L208,560 L191,550 L191,530 L208,520 Z" />
<path fill="#D8D388" d="M191,530 L191,550 L173,560 L156,550 L156,530 L173,520 Z" />
<path fill="#4ee055" d="M-346,440 L-346,460 L-364,470 L-381,460 L-381,440 L-364,430 Z" />
<path fill="#D8D388" d="M-364,410 L-364,430 L-381,440 L-398,430 L-398,410 L-381,400 Z" />
<path fill="#D8D388" d="M-381,380 L-381,400 L-398,410 L-416,400 L-416,380 L-398,370 Z" />
<path fill="#4ee055" d="M-398,350 L-398,370 L-416,380 L-433,370 L-433,350 L-416,340 Z" />
<path fill="#D8D388" d="M-416,320 L-416,340 L-433,350 L-450,340 L-450,320 L-433,310 Z" />
<path fill="#D8D388" d="M-433,290 L-433,310 L-450,320 L-468,310 L-468,290 L-450,280 Z" />
<path fill="#4ee055" d="M-450,260 L-450,280 L-468,290 L-485,280 L-485,260 L-468,250 Z" />
<path fill="#D8D388" d="M-468,230 L-468,250 L-485,260 L-502,250 L-502,230 L-485,220 Z" />
<path fill="#D8D388" d="M-485,200 L-485,220 L-502,230 L-520,220 L-520,200 L-502,190 Z" />
<path fill="#4ee055" d="M-502,170 L-502,190 L-520,200 L-537,190 L-537,170 L-520,160 Z" />
<path fill="#D8D388" d="M-520,140 L-520,160 L-537,170 L-554,160 L-554,140 L-537,130 Z" />
<path fill="#D8D388" d="M-537,110 L-537,130 L-554,140 L-572,130 L-572,110 L-554,100 Z" />
<path fill="#4ee055" d="M-554,80 L-554,100 L-572,110 L-589,100 L-589,80 L-572,70 Z" />
<path fill="#D8D388" d="M-572,50 L-572,70 L-589,80 L-606,70 L-606,50 L-589,40 Z" />
<path fill="#D8D388" d="M-589,20 L-589,40 L-606,50 L-624,40 L-624,20 L-606,10 Z" />
<path fill="#4ee055" d="M-606,-10 L-606,10 L-624,20 L-641,10 L-641,-10 L-624,-20 Z" />
<path fill="#D8D388" d="M-589,-40 L-589,-20 L-606,-10 L-624,-20 L-624,-40 L-606,-50 Z" />
<path fill="#D8D388" d="M-572,-70 L-572,-50 L-589,-40 L-606,-50 L-606,-70 L-589,-80 Z" />
<path fill="#4ee055" d="M433,410 L433,430 L416,440 L398,430 L398,410 L416,400 Z" />
<path fill="#D8D388" d="M416,440 L416,460 L398,470 L381,460 L381,440 L398,430 Z" />
<path fill="#D8D388" d="M398,470 L398,490 L381,500 L364,490 L364,470 L381,460 Z" />
<path fill="#D8D388" d="M208,560 L208,580 L191,590 L173,580 L173,560 L191,550 Z" />
<path fill="#4ee055" d="M173,560 L173,580 L156,590 L139,580 L139,560 L156,550 Z" />
<path fill="#D8D388" d="M139,560 L139,580 L121,590 L104,580 L104,560 L121,550 Z" />
<path fill="#D8D388" d="M104,560 L104,580 L87,590 L69,580 L69,560 L87,550 Z" />
<path fill="#4ee055" d="M69,560 L69,580 L52,590 L35,580 L35,560 L52,550 Z" />
<path fill="#D8D388" d="M-364,470 L-364,490 L-381,500 L-398,490 L-398,470 L-381,460 Z" />
<path fill="#D8D388" d="M-381,440 L-381,460 L-398,470 L-416,460 L-416,440 L-398,430 Z" />
<path fill="#4ee055" d="M-398,410 L-398,430 L-416,440 L-433,430 L-433,410 L-416,400 Z" />
<path fill="#D8D388" d="M-416,380 L-416,400 L-433,410 L-450,400 L-450,380 L-433,370 Z" />
<path fill="#D8D388" d="M-433,350 L-433,370 L-450,380 L-468,370 L-468,350 L-450,340 Z" />
<path fill="#4ee055" d="M-450,320 L-450,340 L-468,350 L-485,340 L-485,320 L-468,310 Z" />
<path fill="#D8D388" d="M-468,290 L-468,310 L-485,320 L-502,310 L-502,290 L-485,280 Z" />
<path fill="#D8D388" d="M-485,260 L-485,280 L-502,290 L-520,280 L-520,260 L-502,250 Z" />
<path fill="#4ee055" d="M-502,230 L-502,250 L-520,260 L-537,250 L-537,230 L-520,220 Z" />
<path fill="#D8D388" d="M-520,200 L-520,220 L-537,230 L-554,220 L-554,200 L-537,190 Z" />
<path fill="#D8D388" d="M-537,170 L-537,190 L-554,200 L-572,190 L-572,170 L-554,160 Z" />
<path fill="#4ee055" d="M-554,140 L-554,160 L-572,170 L-589,160 L-589,140 L-572,130 Z" />
<path fill="#D8D388" d="M-572,110 L-572,130 L-589,140 L-606,130 L-606,110 L-589,100 Z" />
<path fill="#D8D388" d="M-589,80 L-589,100 L-606,110 L-624,100 L-624,80 L-606,70 Z" />
<path fill="#4ee055" d="M-606,50 L-606,70 L-624,80 L-641,70 L-641,50 L-624,40 Z" />
<path fill="#D8D388" d="M-624,20 L-624,40 L-641,50 L-658,40 L-658,20 L-641,10 Z" />
<path fill="#D8D388" d="M-641,-10 L-641,10 L-658,20 L-675,10 L-675,-10 L-658,-20 Z" />
<path fill="#D8D388" d="M-624,-40 L-624,-20 L-641,-10 L-658,-20 L-658,-40 L-641,-50 Z" />
<path fill="#4ee055" d="M-606,-70 L-606,-50 L-624,-40 L-641,-50 L-641,-70 L-624,-80 Z" />
<path fill="#4ee055" d="M433,470 L433,490 L416,500 L398,490 L398,470 L416,460 Z" />
<path fill="#D8D388" d="M416,500 L416,520 L398,530 L381,520 L381,500 L398,490 Z" />
<path fill="#D8D388" d="M191,590 L191,610 L173,620 L156,610 L156,590 L173,580 Z" />
<path fill="#D8D388" d="M156,590 L156,610 L139,620 L121,610 L121,590 L139,580 Z" />
<path fill="#4ee055" d="M121,590 L121,610 L104,620 L87,610 L87,590 L104,580 Z" />
<path fill="#D8D388" d="M87,590 L87,610 L69,620 L52,610 L52,590 L69,580 Z" />
<path fill="#D8D388" d="M52,590 L52,610 L35,620 L17,610 L17,590 L35,580 Z" />
<path fill="#4ee055" d="M17,590 L17,610 L0,620 L-17,610 L-17,590 L0,580 Z" />
<path fill="#D8D388" d="M-17,590 L-17,610 L-35,620 L-52,610 L-52,590 L-35,580 Z" />
<path fill="#D8D388" d="M-381,500 L-381,520 L-398,530 L-416,520 L-416,500 L-398,490 Z" />
<path fill="#4ee055" d="M-398,470 L-398,490 L-416,500 L-433,490 L-433,470 L-416,460 Z" />
<path fill="#D8D388" d="M-416,440 L-416,460 L-433,470 L-450,460 L-450,440 L-433,430 Z" />
<path fill="#D8D388" d="M-433,410 L-433,430 L-450,440 L-468,430 L-468,410 L-450,400 Z" />
<path fill="#4ee055" d="M-450,380 L-450,400 L-468,410 L-485,400 L-485,380 L-468,370 Z" />
<path fill="#D8D388" d="M-468,350 L-468,370 L-485,380 L-502,370 L-502,350 L-485,340 Z" />
<path fill="#D8D388" d="M-485,320 L-485,340 L-502,350 L-520,340 L-520,320 L-502,310 Z" />
<path fill="#4ee055" d="M-502,290 L-502,310 L-520,320 L-537,310 L-537,290 L-520,280 Z" />
<path fill="#D8D388" d="M-537,230 L-537,250 L-554,260 L-572,250 L-572,230 L-554,220 Z" />
<path fill="#4ee055" d="M-554,200 L-554,220 L-572,230 L-589,220 L-589,200 L-572,190 Z" />
<path fill="#D8D388" d="M-572,170 L-572,190 L-589,200 L-606,190 L-606,170 L-589,160 Z" />
<path fill="#D8D388" d="M-589,140 L-589,160 L-606,170 L-624,160 L-624,140 L-606,130 Z" />
<path fill="#4ee055" d="M-606,110 L-606,130 L-624,140 L-641,130 L-641,110 L-624,100 Z" />
<path fill="#D8D388" d="M-624,80 L-624,100 L-641,110 L-658,100 L-658,80 L-641,70 Z" />
<path fill="#D8D388" d="M-641,50 L-641,70 L-658,80 L-675,70 L-675,50 L-658,40 Z" />
<path fill="#4ee055" d="M-658,20 L-658,40 L-675,50 L-693,40 L-693,20 L-675,10 Z" />
<path fill="#D8D388" d="M-675,-10 L-675,10 L-693,20 L-710,10 L-710,-10 L-693,-20 Z" />
<path fill="#4ee055" d="M-658,-40 L-658,-20 L-675,-10 L-693,-20 L-693,-40 L-675,-50 Z" />
<path fill="#D8D388" d="M104,620 L104,640 L87,650 L69,640 L69,620 L87,610 Z" />
<path fill="#4ee055" d="M69,620 L69,640 L52,650 L35,640 L35,620 L52,610 Z" />
<path fill="#D8D388" d="M35,620 L35,640 L17,650 L0,640 L0,620 L17,610 Z" />
<path fill="#D8D388" d="M0,620 L0,640 L-17,650 L-35,640 L-35,620 L-17,610 Z" />
<path fill="#4ee055" d="M-35,620 L-35,640 L-52,650 L-69,640 L-69,620 L-52,610 Z" />
<path fill="#D8D388" d="M-69,620 L-69,640 L-87,650 L-104,640 L-104,620 L-87,610 Z" />
<path fill="#4ee055" d="M-398,530 L-398,550 L-416,560 L-433,550 L-433,530 L-416,520 Z" />
<path fill="#D8D388" d="M-416,500 L-416,520 L-433,530 L-450,520 L-450,500 L-433,490 Z" />
<path fill="#D8D388" d="M-433,470 L-433,490 L-450,500 L-468,490 L-468,470 L-450,460 Z" />
<path fill="#4ee055" d="M-450,440 L-450,460 L-468,470 L-485,460 L-485,440 L-468,430 Z" />
<path fill="#D8D388" d="M-468,410 L-468,430 L-485,440 L-502,430 L-502,410 L-485,400 Z" />
<path fill="#D8D388" d="M-485,380 L-485,400 L-502,410 L-520,400 L-520,380 L-502,370 Z" />
<path fill="#4ee055" d="M-502,350 L-502,370 L-520,380 L-537,370 L-537,350 L-520,340 Z" />
<path fill="#D8D388" d="M-520,320 L-520,340 L-537,350 L-554,340 L-554,320 L-537,310 Z" />
<path fill="#D8D388" d="M-537,290 L-537,310 L-554,320 L-572,310 L-572,290 L-554,280 Z" />
<path fill="#D8D388" d="M-572,230 L-572,250 L-589,260 L-606,250 L-606,230 L-589,220 Z" />
<path fill="#D8D388" d="M-589,200 L-589,220 L-606,230 L-624,220 L-624,200 L-606,190 Z" />
<path fill="#4ee055" d="M-606,170 L-606,190 L-624,200 L-641,190 L-641,170 L-624,160 Z" />
<path fill="#D8D388" d="M-624,140 L-624,160 L-641,170 L-658,160 L-658,140 L-641,130 Z" />
<path fill="#D8D388" d="M-641,110 L-641,130 L-658,140 L-675,130 L-675,110 L-658,100 Z" />
<path fill="#4ee055" d="M-658,80 L-658,100 L-675,110 L-693,100 L-693,80 L-675,70 Z" />
<path fill="#D8D388" d="M-675,50 L-675,70 L-693,80 L-710,70 L-710,50 L-693,40 Z" />
<path fill="#D8D388" d="M-693,20 L-693,40 L-710,50 L-727,40 L-727,20 L-710,10 Z" />
<path fill="#4ee055" d="M-710,-10 L-710,10 L-727,20 L-745,10 L-745,-10 L-727,-20 Z" />
<path fill="#4ee055" d="M-87,650 L-87,670 L-104,680 L-121,670 L-121,650 L-104,640 Z" />
<path fill="#D8D388" d="M-433,530 L-433,550 L-450,560 L-468,550 L-468,530 L-450,520 Z" />
<path fill="#4ee055" d="M-450,500 L-450,520 L-468,530 L-485,520 L-485,500 L-468,490 Z" />
<path fill="#D8D388" d="M-468,470 L-468,490 L-485,500 L-502,490 L-502,470 L-485,460 Z" />
<path fill="#D8D388" d="M-485,440 L-485,460 L-502,470 L-520,460 L-520,440 L-502,430 Z" />
<path fill="#4ee055" d="M-502,410 L-502,430 L-520,440 L-537,430 L-537,410 L-520,400 Z" />
<path fill="#D8D388" d="M-520,380 L-520,400 L-537,410 L-554,400 L-554,380 L-537,370 Z" />
<path fill="#D8D388" d="M-537,350 L-537,370 L-554,380 L-572,370 L-572,350 L-554,340 Z" />
<path fill="#4ee055" d="M-554,320 L-554,340 L-572,350 L-589,340 L-589,320 L-572,310 Z" />
<path fill="#D8D388" d="M-572,290 L-572,310 L-589,320 L-606,310 L-606,290 L-589,280 Z" />
<path fill="#4ee055" d="M-606,230 L-606,250 L-624,260 L-641,250 L-641,230 L-624,220 Z" />
<path fill="#D8D388" d="M-624,200 L-624,220 L-641,230 L-658,220 L-658,200 L-641,190 Z" />
<path fill="#D8D388" d="M-641,170 L-641,190 L-658,200 L-675,190 L-675,170 L-658,160 Z" />
<path fill="#4ee055" d="M-658,140 L-658,160 L-675,170 L-693,160 L-693,140 L-675,130 Z" />
<path fill="#D8D388" d="M-675,110 L-675,130 L-693,140 L-710,130 L-710,110 L-693,100 Z" />
<path fill="#D8D388" d="M-693,80 L-693,100 L-710,110 L-727,100 L-727,80 L-710,70 Z" />
<path fill="#4ee055" d="M-710,50 L-710,70 L-727,80 L-745,70 L-745,50 L-727,40 Z" />
<path fill="#D8D388" d="M-727,20 L-727,40 L-745,50 L-762,40 L-762,20 L-745,10 Z" />
<path fill="#D8D388" d="M-104,680 L-104,700 L-121,710 L-139,700 L-139,680 L-121,670 Z" />
<path fill="#4ee055" d="M-450,560 L-450,580 L-468,590 L-485,580 L-485,560 L-468,550 Z" />
<path fill="#D8D388" d="M-468,530 L-468,550 L-485,560 L-502,550 L-502,530 L-485,520 Z" />
<path fill="#D8D388" d="M-485,500 L-485,520 L-502,530 L-520,520 L-520,500 L-502,490 Z" />
<path fill="#4ee055" d="M-502,470 L-502,490 L-520,500 L-537,490 L-537,470 L-520,460 Z" />
<path fill="#D8D388" d="M-520,440 L-520,460 L-537,470 L-554,460 L-554,440 L-537,430 Z" />
<path fill="#D8D388" d="M-537,410 L-537,430 L-554,440 L-572,430 L-572,410 L-554,400 Z" />
<path fill="#4ee055" d="M-554,380 L-554,400 L-572,410 L-589,400 L-589,380 L-572,370 Z" />
<path fill="#D8D388" d="M-572,350 L-572,370 L-589,380 L-606,370 L-606,350 L-589,340 Z" />
<path fill="#D8D388" d="M-589,320 L-589,340 L-606,350 L-624,340 L-624,320 L-606,310 Z" />
<path fill="#D8D388" d="M-641,230 L-641,250 L-658,260 L-675,250 L-675,230 L-658,220 Z" />
<path fill="#4ee055" d="M-658,200 L-658,220 L-675,230 L-693,220 L-693,200 L-675,190 Z" />
<path fill="#D8D388" d="M-675,170 L-675,190 L-693,200 L-710,190 L-710,170 L-693,160 Z" />
<path fill="#D8D388" d="M-693,140 L-693,160 L-710,170 L-727,160 L-727,140 L-710,130 Z" />
<path fill="#4ee055" d="M-710,110 L-710,130 L-727,140 L-745,130 L-745,110 L-727,100 Z" />
<path fill="#D8D388" d="M-727,80 L-727,100 L-745,110 L-762,100 L-762,80 L-745,70 Z" />
<path fill="#D8D388" d="M-121,710 L-121,730 L-139,740 L-156,730 L-156,710 L-139,700 Z" />
<path fill="#D8D388" d="M-485,560 L-485,580 L-502,590 L-520,580 L-520,560 L-502,550 Z" />
<path fill="#4ee055" d="M-502,530 L-502,550 L-520,560 L-537,550 L-537,530 L-520,520 Z" />
<path fill="#D8D388" d="M-520,500 L-520,520 L-537,530 L-554,520 L-554,500 L-537,490 Z" />
<path fill="#D8D388" d="M-537,470 L-537,490 L-554,500 L-572,490 L-572,470 L-554,460 Z" />
<path fill="#4ee055" d="M-554,440 L-554,460 L-572,470 L-589,460 L-589,440 L-572,430 Z" />
<path fill="#D8D388" d="M-572,410 L-572,430 L-589,440 L-606,430 L-606,410 L-589,400 Z" />
<path fill="#D8D388" d="M-589,380 L-589,400 L-606,410 L-624,400 L-624,380 L-606,370 Z" />
<path fill="#4ee055" d="M-606,350 L-606,370 L-624,380 L-641,370 L-641,350 L-624,340 Z" />
<path fill="#4ee055" d="M-710,170 L-710,190 L-727,200 L-745,190 L-745,170 L-727,160 Z" />
<path fill="#D8D388" d="M-727,140 L-727,160 L-745,170 L-762,160 L-762,140 L-745,130 Z" />
<path fill="#D8D388" d="M-520,560 L-520,580 L-537,590 L-554,580 L-554,560 L-537,550 Z" />
<path fill="#D8D388" d="M-537,530 L-537,550 L-554,560 L-572,550 L-572,530 L-554,520 Z" />
<path fill="#4ee055" d="M-554,500 L-554,520 L-572,530 L-589,520 L-589,500 L-572,490 Z" />
<path fill="#D8D388" d="M-572,470 L-572,490 L-589,500 L-606,490 L-606,470 L-589,460 Z" />
<path fill="#D8D388" d="M-589,440 L-589,460 L-606,470 L-624,460 L-624,440 L-606,430 Z" />
<path fill="#4ee055" d="M-606,410 L-606,430 L-624,440 L-641,430 L-641,410 L-624,400 Z" />
<path fill="#D8D388" d="M-624,380 L-624,400 L-641,410 L-658,400 L-658,380 L-641,370 Z" />
<path fill="#D8D388" d="M-641,350 L-641,370 L-658,380 L-675,370 L-675,350 L-658,340 Z" />
<path fill="#4ee055" d="M-554,560 L-554,580 L-572,590 L-589,580 L-589,560 L-572,550 Z" />
<path fill="#D8D388" d="M-572,530 L-572,550 L-589,560 L-606,550 L-606,530 L-589,520 Z" />
<path fill="#D8D388" d="M-589,500 L-589,520 L-606,530 L-624,520 L-624,500 L-606,490 Z" />
<path fill="#4ee055" d="M-606,470 L-606,490 L-624,500 L-641,490 L-641,470 L-624,460 Z" />
<path fill="#D8D388" d="M-624,440 L-624,460 L-641,470 L-658,460 L-658,440 L-641,430 Z" />
<path fill="#D8D388" d="M-641,410 L-641,430 L-658,440 L-675,430 L-675,410 L-658,400 Z" />
<path fill="#4ee055" d="M-658,380 L-658,400 L-675,410 L-693,400 L-693,380 L-675,370 Z" />
<path fill="#D8D388" d="M-589,560 L-589,580 L-606,590 L-624,580 L-624,560 L-606,550 Z" />
<path fill="#4ee055" d="M-606,530 L-606,550 L-624,560 L-641,550 L-641,530 L-624,520 Z" />
<path fill="#D8D388" d="M-624,500 L-624,520 L-641,530 L-658,520 L-658,500 L-641,490 Z" />
<path fill="#D8D388" d="M-641,470 L-641,490 L-658,500 L-675,490 L-675,470 L-658,460 Z" />
<path fill="#4ee055" d="M-658,440 L-658,460 L-675,470 L-693,460 L-693,440 L-675,430 Z" />
<path fill="#D8D388" d="M-675,410 L-675,430 L-693,440 L-710,430 L-710,410 L-693,400 Z" />
<path fill="#D8D388" d="M-641,530 L-641,550 L-658,560 L-675,550 L-675,530 L-658,520 Z" />
<path fill="#4ee055" d="M-658,500 L-658,520 L-675,530 L-693,520 L-693,500 L-675,490 Z" />
<path fill="#D8D388" d="M52,50 L52,70 L35,80 L17,70 L17,50 L35,40 Z" />
<path fill="#4ee055" d="M17,50 L17,70 L0,80 L-17,70 L-17,50 L0,40 Z" />
<path fill="#D8D388" d="M-156,290 L-156,310 L-173,320 L-191,310 L-191,290 L-173,280 Z" />
<path fill="#4ee055" d="M173,320 L173,340 L156,350 L139,340 L139,320 L156,310 Z" />
<path fill="#D8D388" d="M416,20 L416,40 L398,50 L381,40 L381,20 L398,10 Z" />
</g>
</svg>