<?xml version="1.0" encoding="utf-8"?>
<svg viewBox="-928.3792328569182 -886.0 1371.7842395945509 1232.0" preserveAspectRatio="xMidYMid meet" version="1.1" baseProfile="full" xmlns="http://www.w3.org/2000/svg" style="background-color: black;">
<g style="stroke:#ffffff; stroke-width: 1; stroke-linejoin: round;">
<path fill="#4ee055" d="M17,-10 L17,10 L0,20 L-17,10 L-17,-10 L0,-20 Z" />
<path fill="#D8D388" d="M0,-40 L0,-20 L-17,-10 L-35,-20 L-35,-40 L-17,-50 Z" />
<path fill="#D8D388" d="M35,-40 L35,-20 L17,-10 L0,-20 L0,-40 L17,-50 Z" />
<path fill="#D8D388" d="M35,20 L35,40 L17,50 L0,40 L0,20 L17,10 Z" />
<path fill="#D8D388" d="M0,20 L0,40 L-17,50 L-35,40 L-35,20 L-17,10 Z" />
<path fill="#D8D388" d="M-17,-10 L-17,10 L-35,20 L-52,10 L-52,-10 L-35,-20 Z" />
<path fill="#D8D388" d="M0,-40 L0,-20 L-17,-10 L-35,-20 L-35,-40 L-17,-50 Z" />
<path fill="#D8D388" d="M-17,-70 L-17,-50 L-35,-40 L-52,-50 L-52,-70 L-35,-80 Z" />
<path fill="#4ee055" d="M17,-70 L17,-50 L0,-40 L-17,-50 L-17,-70 L0,-80 Z" />
<path fill="#D8D388" d="M52,50 L52,70 L35,80 L17,70 L17,50 L35,40 Z" />
<path fill="#4ee055" d="M17,50 L17,70 L0,80 L-17,70 L-17,50 L0,40 Z" />
<path fill="#D8D388" d="M-17,50 L-17,70 L-35,80 L-52,70 L-52,50 L-35,40 Z" />
<path fill="#4ee055" d="M-35,20 L-35,40 L-52,50 L-69,40 L-69,20 L-52,10 Z" />
<path fill="#D8D388" d="M-52,-10 L-52,10 L-69,20 L-87,10 L-87,-10 L-69,-20 Z" />
<path fill="#4ee055" d="M-35,-40 L-35,-20 L-52,-10 L-69,-20 L-69,-40 L-52,-50 Z" />
<path fill="#D8D388" d="M-17,-70 L-17,-50 L-35,-40 L-52,-50 L-52,-70 L-35,-80 Z" />
<path fill="#4ee055" d="M-35,-100 L-35,-80 L-52,-70 L-69,-80 L-69,-100 L-52,-110 Z" />
<path fill="#D8D388" d="M0,-100 L0,-80 L-17,-70 L-35,-80 L-35,-100 L-17,-110 Z" />
<path fill="#D8D388" d="M35,-100 L35,-80 L17,-70 L0,-80 L0,-100 L17,-110 Z" />
<path fill="#D8D388" d="M35,80 L35,100 L17,110 L0,100 L0,80 L17,70 Z" />
<path fill="#D8D388" d="M0,80 L0,100 L-17,110 L-35,100 L-35,80 L-17,70 Z" />
<path fill="#D8D388" d="M-52,50 L-52,70 L-69,80 L-87,70 L-87,50 L-69,40 Z" />
<path fill="#D8D388" d="M-69,20 L-69,40 L-87,50 L-104,40 L-104,20 L-87,10 Z" />
<path fill="#4ee055" d="M-87,-10 L-87,10 L-104,20 L-121,10 L-121,-10 L-104,-20 Z" />
<path fill="#D8D388" d="M-69,-40 L-69,-20 L-87,-10 L-104,-20 L-104,-40 L-87,-50 Z" />
<path fill="#D8D388" d="M-52,-70 L-52,-50 L-69,-40 L-87,-50 L-87,-70 L-69,-80 Z" />
<path fill="#4ee055" d="M-35,-100 L-35,-80 L-52,-70 L-69,-80 L-69,-100 L-52,-110 Z" />
<path fill="#D8D388" d="M-52,-130 L-52,-110 L-69,-100 L-87,-110 L-87,-130 L-69,-140 Z" />
<path fill="#D8D388" d="M-17,-130 L-17,-110 L-35,-100 L-52,-110 L-52,-130 L-35,-140 Z" />
<path fill="#4ee055" d="M17,-130 L17,-110 L0,-100 L-17,-110 L-17,-130 L0,-140 Z" />
<path fill="#D8D388" d="M52,110 L52,130 L35,140 L17,130 L17,110 L35,100 Z" />
<path fill="#D8D388" d="M-121,-10 L-121,10 L-139,20 L-156,10 L-156,-10 L-139,-20 Z" />
<path fill="#D8D388" d="M-104,-40 L-104,-20 L-121,-10 L-139,-20 L-139,-40 L-121,-50 Z" />
<path fill="#4ee055" d="M-87,-70 L-87,-50 L-104,-40 L-121,-50 L-121,-70 L-104,-80 Z" />
<path fill="#D8D388" d="M-69,-100 L-69,-80 L-87,-70 L-104,-80 L-104,-100 L-87,-110 Z" />
<path fill="#D8D388" d="M-52,-130 L-52,-110 L-69,-100 L-87,-110 L-87,-130 L-69,-140 Z" />
<path fill="#D8D388" d="M-69,-160 L-69,-140 L-87,-130 L-104,-140 L-104,-160 L-87,-170 Z" />
<path fill="#4ee055" d="M-35,-160 L-35,-140 L-52,-130 L-69,-140 L-69,-160 L-52,-170 Z" />
<path fill="#D8D388" d="M0,-160 L0,-140 L-17,-130 L-35,-140 L-35,-160 L-17,-170 Z" />
<path fill="#D8D388" d="M35,-160 L35,-140 L17,-130 L0,-140 L0,-160 L17,-170 Z" />
<path fill="#D8D388" d="M104,140 L104,160 L87,170 L69,160 L69,140 L87,130 Z" />
<path fill="#4ee055" d="M69,140 L69,160 L52,170 L35,160 L35,140 L52,130 Z" />
<path fill="#4ee055" d="M-139,-40 L-139,-20 L-156,-10 L-173,-20 L-173,-40 L-156,-50 Z" />
<path fill="#D8D388" d="M-121,-70 L-121,-50 L-139,-40 L-156,-50 L-156,-70 L-139,-80 Z" />
<path fill="#D8D388" d="M-104,-100 L-104,-80 L-121,-70 L-139,-80 L-139,-100 L-121,-110 Z" />
<path fill="#4ee055" d="M-87,-130 L-87,-110 L-104,-100 L-121,-110 L-121,-130 L-104,-140 Z" />
<path fill="#D8D388" d="M-69,-160 L-69,-140 L-87,-130 L-104,-140 L-104,-160 L-87,-170 Z" />
<path fill="#4ee055" d="M-87,-190 L-87,-170 L-104,-160 L-121,-170 L-121,-190 L-104,-200 Z" />
<path fill="#D8D388" d="M-52,-190 L-52,-170 L-69,-160 L-87,-170 L-87,-190 L-69,-200 Z" />
<path fill="#D8D388" d="M-17,-190 L-17,-170 L-35,-160 L-52,-170 L-52,-190 L-35,-200 Z" />
<path fill="#4ee055" d="M17,-190 L17,-170 L0,-160 L-17,-170 L-17,-190 L0,-200 Z" />
<path fill="#D8D388" d="M52,-190 L52,-170 L35,-160 L17,-170 L17,-190 L35,-200 Z" />
<path fill="#D8D388" d="M87,-190 L87,-170 L69,-160 L52,-170 L52,-190 L69,-200 Z" />
<path fill="#4ee055" d="M121,-190 L121,-170 L104,-160 L87,-170 L87,-190 L104,-200 Z" />
<path fill="#4ee055" d="M121,170 L121,190 L104,200 L87,190 L87,170 L104,160 Z" />
<path fill="#D8D388" d="M-173,-40 L-173,-20 L-191,-10 L-208,-20 L-208,-40 L-191,-50 Z" />
<path fill="#D8D388" d="M-156,-70 L-156,-50 L-173,-40 L-191,-50 L-191,-70 L-173,-80 Z" />
<path fill="#4ee055" d="M-139,-100 L-139,-80 L-156,-70 L-173,-80 L-173,-100 L-156,-110 Z" />
<path fill="#D8D388" d="M-121,-130 L-121,-110 L-139,-100 L-156,-110 L-156,-130 L-139,-140 Z" />
<path fill="#D8D388" d="M-104,-160 L-104,-140 L-121,-130 L-139,-140 L-139,-160 L-121,-170 Z" />
<path fill="#4ee055" d="M-87,-190 L-87,-170 L-104,-160 L-121,-170 L-121,-190 L-104,-200 Z" />
<path fill="#D8D388" d="M-104,-220 L-104,-200 L-121,-190 L-139,-200 L-139,-220 L-121,-230 Z" />
<path fill="#D8D388" d="M-69,-220 L-69,-200 L-87,-190 L-104,-200 L-104,-220 L-87,-230 Z" />
<path fill="#4ee055" d="M-35,-220 L-35,-200 L-52,-190 L-69,-200 L-69,-220 L-52,-230 Z" />
<path fill="#D8D388" d="M0,-220 L0,-200 L-17,-190 L-35,-200 L-35,-220 L-17,-230 Z" />
<path fill="#D8D388" d="M35,-220 L35,-200 L17,-190 L0,-200 L0,-220 L17,-230 Z" />
<path fill="#4ee055" d="M69,-220 L69,-200 L52,-190 L35,-200 L35,-220 L52,-230 Z" />
<path fill="#D8D388" d="M104,-220 L104,-200 L87,-190 L69,-200 L69,-220 L87,-230 Z" />
<path fill="#D8D388" d="M139,-220 L139,-200 L121,-190 L104,-200 L104,-220 L121,-230 Z" />
<path fill="#D8D388" d="M156,-190 L156,-170 L139,-160 L121,-170 L121,-190 L139,-200 Z" />
<path fill="#D8D388" d="M139,200 L139,220 L121,230 L104,220 L104,200 L121,190 Z" />
<path fill="#D8D388" d="M-208,-40 L-208,-20 L-225,-10 L-242,-20 L-242,-40 L-225,-50 Z" />
<path fill="#4ee055" d="M-191,-70 L-191,-50 L-208,-40 L-225,-50 L-225,-70 L-208,-80 Z" />
<path fill="#D8D388" d="M-173,-100 L-173,-80 L-191,-70 L-208,-80 L-208,-100 L-191,-110 Z" />
<path fill="#D8D388" d="M-156,-130 L-156,-110 L-173,-100 L-191,-110 L-191,-130 L-173,-140 Z" />
<path fill="#4ee055" d="M-139,-160 L-139,-140 L-156,-130 L-173,-140 L-173,-160 L-156,-170 Z" />
<path fill="#D8D388" d="M-121,-190 L-121,-170 L-139,-160 L-156,-170 L-156,-190 L-139,-200 Z" />
<path fill="#D8D388" d="M-104,-220 L-104,-200 L-121,-190 L-139,-200 L-139,-220 L-121,-230 Z" />
<path fill="#D8D388" d="M-121,-250 L-121,-230 L-139,-220 L-156,-230 L-156,-250 L-139,-260 Z" />
<path fill="#4ee055" d="M-87,-250 L-87,-230 L-104,-220 L-121,-230 L-121,-250 L-104,-260 Z" />
<path fill="#D8D388" d="M-52,-250 L-52,-230 L-69,-220 L-87,-230 L-87,-250 L-69,-260 Z" />
<path fill="#D8D388" d="M-17,-250 L-17,-230 L-35,-220 L-52,-230 L-52,-250 L-35,-260 Z" />
<path fill="#4ee055" d="M17,-250 L17,-230 L0,-220 L-17,-230 L-17,-250 L0,-260 Z" />
<path fill="#D8D388" d="M52,-250 L52,-230 L35,-220 L17,-230 L17,-250 L35,-260 Z" />
<path fill="#D8D388" d="M87,-250 L87,-230 L69,-220 L52,-230 L52,-250 L69,-260 Z" />
<path fill="#4ee055" d="M121,-250 L121,-230 L104,-220 L87,-230 L87,-250 L104,-260 Z" />
<path fill="#D8D388" d="M156,-250 L156,-230 L139,-220 L121,-230 L121,-250 L139,-260 Z" />
<path fill="#4ee055" d="M173,-220 L173,-200 L156,-190 L139,-200 L139,-220 L156,-230 Z" />
<path fill="#D8D388" d="M191,-190 L191,-170 L173,-160 L156,-170 L156,-190 L173,-200 Z" />
<path fill="#D8D388" d="M156,230 L156,250 L139,260 L121,250 L121,230 L139,220 Z" />
<path fill="#D8D388" d="M-225,-70 L-225,-50 L-242,-40 L-260,-50 L-260,-70 L-242,-80 Z" />
<path fill="#D8D388" d="M-208,-100 L-208,-80 L-225,-70 L-242,-80 L-242,-100 L-225,-110 Z" />
<path fill="#4ee055" d="M-191,-130 L-191,-110 L-208,-100 L-225,-110 L-225,-130 L-208,-140 Z" />
<path fill="#D8D388" d="M-173,-160 L-173,-140 L-191,-130 L-208,-140 L-208,-160 L-191,-170 Z" />
<path fill="#D8D388" d="M-156,-190 L-156,-170 L-173,-160 L-191,-170 L-191,-190 L-173,-200 Z" />
<path fill="#4ee055" d="M-139,-220 L-139,-200 L-156,-190 L-173,-200 L-173,-220 L-156,-230 Z" />
<path fill="#D8D388" d="M-121,-250 L-121,-230 L-139,-220 L-156,-230 L-156,-250 L-139,-260 Z" />
<path fill="#4ee055" d="M-139,-280 L-139,-260 L-156,-250 L-173,-260 L-173,-280 L-156,-290 Z" />
<path fill="#D8D388" d="M-104,-280 L-104,-260 L-121,-250 L-139,-260 L-139,-280 L-121,-290 Z" />
<path fill="#D8D388" d="M-69,-280 L-69,-260 L-87,-250 L-104,-260 L-104,-280 L-87,-290 Z" />
<path fill="#4ee055" d="M-35,-280 L-35,-260 L-52,-250 L-69,-260 L-69,-280 L-52,-290 Z" />
<path fill="#D8D388" d="M0,-280 L0,-260 L-17,-250 L-35,-260 L-35,-280 L-17,-290 Z" />
<path fill="#D8D388" d="M35,-280 L35,-260 L17,-250 L0,-260 L0,-280 L17,-290 Z" />
<path fill="#4ee055" d="M69,-280 L69,-260 L52,-250 L35,-260 L35,-280 L52,-290 Z" />
<path fill="#D8D388" d="M104,-280 L104,-260 L87,-250 L69,-260 L69,-280 L87,-290 Z" />
<path fill="#D8D388" d="M139,-280 L139,-260 L121,-250 L104,-260 L104,-280 L121,-290 Z" />
<path fill="#4ee055" d="M173,-280 L173,-260 L156,-250 L139,-260 L139,-280 L156,-290 Z" />
<path fill="#D8D388" d="M191,-250 L191,-230 L173,-220 L156,-230 L156,-250 L173,-260 Z" />
<path fill="#D8D388" d="M208,-220 L208,-200 L191,-190 L173,-200 L173,-220 L191,-230 Z" />
<path fill="#4ee055" d="M225,-190 L225,-170 L208,-160 L191,-170 L191,-190 L208,-200 Z" />
<path fill="#4ee055" d="M173,260 L173,280 L156,290 L139,280 L139,260 L156,250 Z" />
<path fill="#D8D388" d="M-208,140 L-208,160 L-225,170 L-242,160 L-242,140 L-225,130 Z" />
<path fill="#D8D388" d="M-225,110 L-225,130 L-242,140 L-260,130 L-260,110 L-242,100 Z" />
<path fill="#4ee055" d="M-242,80 L-242,100 L-260,110 L-277,100 L-277,80 L-260,70 Z" />
<path fill="#D8D388" d="M-260,50 L-260,70 L-277,80 L-294,70 L-294,50 L-277,40 Z" />
<path fill="#D8D388" d="M-260,-70 L-260,-50 L-277,-40 L-294,-50 L-294,-70 L-277,-80 Z" />
<path fill="#4ee055" d="M-242,-100 L-242,-80 L-260,-70 L-277,-80 L-277,-100 L-260,-110 Z" />
<path fill="#D8D388" d="M-225,-130 L-225,-110 L-242,-100 L-260,-110 L-260,-130 L-242,-140 Z" />
<path fill="#D8D388" d="M-208,-160 L-208,-140 L-225,-130 L-242,-140 L-242,-160 L-225,-170 Z" />
<path fill="#4ee055" d="M-191,-190 L-191,-170 L-208,-160 L-225,-170 L-225,-190 L-208,-200 Z" />
<path fill="#D8D388" d="M-173,-220 L-173,-200 L-191,-190 L-208,-200 L-208,-220 L-191,-230 Z" />
<path fill="#D8D388" d="M-156,-250 L-156,-230 L-173,-220 L-191,-230 L-191,-250 L-173,-260 Z" />
<path fill="#4ee055" d="M-139,-280 L-139,-260 L-156,-250 L-173,-260 L-173,-280 L-156,-290 Z" />
<path fill="#D8D388" d="M-156,-310 L-156,-290 L-173,-280 L-191,-290 L-191,-310 L-173,-320 Z" />
<path fill="#D8D388" d="M-121,-310 L-121,-290 L-139,-280 L-156,-290 L-156,-310 L-139,-320 Z" />
<path fill="#4ee055" d="M-87,-310 L-87,-290 L-104,-280 L-121,-290 L-121,-310 L-104,-320 Z" />
<path fill="#D8D388" d="M-52,-310 L-52,-290 L-69,-280 L-87,-290 L-87,-310 L-69,-320 Z" />
<path fill="#D8D388" d="M-17,-310 L-17,-290 L-35,-280 L-52,-290 L-52,-310 L-35,-320 Z" />
<path fill="#4ee055" d="M17,-310 L17,-290 L0,-280 L-17,-290 L-17,-310 L0,-320 Z" />
<path fill="#D8D388" d="M52,-310 L52,-290 L35,-280 L17,-290 L17,-310 L35,-320 Z" />
<path fill="#D8D388" d="M87,-310 L87,-290 L69,-280 L52,-290 L52,-310 L69,-320 Z" />
<path fill="#4ee055" d="M121,-310 L121,-290 L104,-280 L87,-290 L87,-310 L104,-320 Z" />
<path fill="#D8D388" d="M156,-310 L156,-290 L139,-280 L121,-290 L121,-310 L139,-320 Z" />
<path fill="#D8D388" d="M191,-310 L191,-290 L173,-280 L156,-290 L156,-310 L173,-320 Z" />
<path fill="#D8D388" d="M208,-280 L208,-260 L191,-250 L173,-260 L173,-280 L191,-290 Z" />
<path fill="#4ee055" d="M225,-250 L225,-230 L208,-220 L191,-230 L191,-250 L208,-260 Z" />
<path fill="#D8D388" d="M242,-220 L242,-200 L225,-190 L208,-200 L208,-220 L225,-230 Z" />
<path fill="#D8D388" d="M260,-190 L260,-170 L242,-160 L225,-170 L225,-190 L242,-200 Z" />
<path fill="#D8D388" d="M-260,110 L-260,130 L-277,140 L-294,130 L-294,110 L-277,100 Z" />
<path fill="#D8D388" d="M-277,80 L-277,100 L-294,110 L-312,100 L-312,80 L-294,70 Z" />
<path fill="#4ee055" d="M-294,50 L-294,70 L-312,80 L-329,70 L-329,50 L-312,40 Z" />
<path fill="#D8D388" d="M-312,20 L-312,40 L-329,50 L-346,40 L-346,20 L-329,10 Z" />
<path fill="#D8D388" d="M-329,-10 L-329,10 L-346,20 L-364,10 L-364,-10 L-346,-20 Z" />
<path fill="#4ee055" d="M-294,-70 L-294,-50 L-312,-40 L-329,-50 L-329,-70 L-312,-80 Z" />
<path fill="#D8D388" d="M-277,-100 L-277,-80 L-294,-70 L-312,-80 L-312,-100 L-294,-110 Z" />
<path fill="#D8D388" d="M-260,-130 L-260,-110 L-277,-100 L-294,-110 L-294,-130 L-277,-140 Z" />
<path fill="#4ee055" d="M-242,-160 L-242,-140 L-260,-130 L-277,-140 L-277,-160 L-260,-170 Z" />
<path fill="#D8D388" d="M-225,-190 L-225,-170 L-242,-160 L-260,-170 L-260,-190 L-242,-200 Z" />
<path fill="#D8D388" d="M-208,-220 L-208,-200 L-225,-190 L-242,-200 L-242,-220 L-225,-230 Z" />
<path fill="#4ee055" d="M-191,-250 L-191,-230 L-208,-220 L-225,-230 L-225,-250 L-208,-260 Z" />
<path fill="#D8D388" d="M-173,-280 L-173,-260 L-191,-250 L-208,-260 L-208,-280 L-191,-290 Z" />
<path fill="#D8D388" d="M-156,-310 L-156,-290 L-173,-280 L-191,-290 L-191,-310 L-173,-320 Z" />
<path fill="#D8D388" d="M-173,-340 L-173,-320 L-191,-310 L-208,-320 L-208,-340 L-191,-350 Z" />
<path fill="#4ee055" d="M-139,-340 L-139,-320 L-156,-310 L-173,-320 L-173,-340 L-156,-350 Z" />
<path fill="#D8D388" d="M-104,-340 L-104,-320 L-121,-310 L-139,-320 L-139,-340 L-121,-350 Z" />
<path fill="#D8D388" d="M-69,-340 L-69,-320 L-87,-310 L-104,-320 L-104,-340 L-87,-350 Z" />
<path fill="#4ee055" d="M-35,-340 L-35,-320 L-52,-310 L-69,-320 L-69,-340 L-52,-350 Z" />
<path fill="#D8D388" d="M0,-340 L0,-320 L-17,-310 L-35,-320 L-35,-340 L-17,-350 Z" />
<path fill="#D8D388" d="M35,-340 L35,-320 L17,-310 L0,-320 L0,-340 L17,-350 Z" />
<path fill="#4ee055" d="M69,-340 L69,-320 L52,-310 L35,-320 L35,-340 L52,-350 Z" />
<path fill="#D8D388" d="M104,-340 L104,-320 L87,-310 L69,-320 L69,-340 L87,-350 Z" />
<path fill="#D8D388" d="M139,-340 L139,-320 L121,-310 L104,-320 L104,-340 L121,-350 Z" />
<path fill="#4ee055" d="M173,-340 L173,-320 L156,-310 L139,-320 L139,-340 L156,-350 Z" />
<path fill="#D8D388" d="M208,-340 L208,-320 L191,-310 L173,-320 L173,-340 L191,-350 Z" />
<path fill="#4ee055" d="M225,-310 L225,-290 L208,-280 L191,-290 L191,-310 L208,-320 Z" />
<path fill="#D8D388" d="M242,-280 L242,-260 L225,-250 L208,-260 L208,-280 L225,-290 Z" />
<path fill="#D8D388" d="M260,-250 L260,-230 L242,-220 L225,-230 L225,-250 L242,-260 Z" />
<path fill="#4ee055" d="M277,-220 L277,-200 L260,-190 L242,-200 L242,-220 L260,-230 Z" />
<path fill="#D8D388" d="M294,-190 L294,-170 L277,-160 L260,-170 L260,-190 L277,-200 Z" />
<path fill="#D8D388" d="M312,-160 L312,-140 L294,-130 L277,-140 L277,-160 L294,-170 Z" />
<path fill="#4ee055" d="M-346,-40 L-346,-20 L-364,-10 L-381,-20 L-381,-40 L-364,-50 Z" />
<path fill="#D8D388" d="M-329,-70 L-329,-50 L-346,-40 L-364,-50 L-364,-70 L-346,-80 Z" />
<path fill="#D8D388" d="M-312,-100 L-312,-80 L-329,-70 L-346,-80 L-346,-100 L-329,-110 Z" />
<path fill="#4ee055" d="M-294,-130 L-294,-110 L-312,-100 L-329,-110 L-329,-130 L-312,-140 Z" />
<path fill="#D8D388" d="M-277,-160 L-277,-140 L-294,-130 L-312,-140 L-312,-160 L-294,-170 Z" />
<path fill="#D8D388" d="M-260,-190 L-260,-170 L-277,-160 L-294,-170 L-294,-190 L-277,-200 Z" />
<path fill="#4ee055" d="M-242,-220 L-242,-200 L-260,-190 L-277,-200 L-277,-220 L-260,-230 Z" />
<path fill="#D8D388" d="M-225,-250 L-225,-230 L-242,-220 L-260,-230 L-260,-250 L-242,-260 Z" />
<path fill="#D8D388" d="M-208,-280 L-208,-260 L-225,-250 L-242,-260 L-242,-280 L-225,-290 Z" />
<path fill="#4ee055" d="M-191,-310 L-191,-290 L-208,-280 L-225,-290 L-225,-310 L-208,-320 Z" />
<path fill="#D8D388" d="M-173,-340 L-173,-320 L-191,-310 L-208,-320 L-208,-340 L-191,-350 Z" />
<path fill="#4ee055" d="M-191,-370 L-191,-350 L-208,-340 L-225,-350 L-225,-370 L-208,-380 Z" />
<path fill="#D8D388" d="M-156,-370 L-156,-350 L-173,-340 L-191,-350 L-191,-370 L-173,-380 Z" />
<path fill="#D8D388" d="M-121,-370 L-121,-350 L-139,-340 L-156,-350 L-156,-370 L-139,-380 Z" />
<path fill="#4ee055" d="M-87,-370 L-87,-350 L-104,-340 L-121,-350 L-121,-370 L-104,-380 Z" />
<path fill="#D8D388" d="M-52,-370 L-52,-350 L-69,-340 L-87,-350 L-87,-370 L-69,-380 Z" />
<path fill="#D8D388" d="M-17,-370 L-17,-350 L-35,-340 L-52,-350 L-52,-370 L-35,-380 Z" />
<path fill="#4ee055" d="M17,-370 L17,-350 L0,-340 L-17,-350 L-17,-370 L0,-380 Z" />
<path fill="#D8D388" d="M52,-370 L52,-350 L35,-340 L17,-350 L17,-370 L35,-380 Z" />
<path fill="#D8D388" d="M87,-370 L87,-350 L69,-340 L52,-350 L52,-370 L69,-380 Z" />
<path fill="#4ee055" d="M121,-370 L121,-350 L104,-340 L87,-350 L87,-370 L104,-380 Z" />
<path fill="#D8D388" d="M156,-370 L156,-350 L139,-340 L121,-350 L121,-370 L139,-380 Z" />
<path fill="#D8D388" d="M191,-370 L191,-350 L173,-340 L156,-350 L156,-370 L173,-380 Z" />
<path fill="#4ee055" d="M225,-370 L225,-350 L208,-340 L191,-350 L191,-370 L208,-380 Z" />
<path fill="#D8D388" d="M242,-340 L242,-320 L225,-310 L208,-320 L208,-340 L225,-350 Z" />
<path fill="#D8D388" d="M260,-310 L260,-290 L242,-280 L225,-290 L225,-310 L242,-320 Z" />
<path fill="#4ee055" d="M277,-280 L277,-260 L260,-250 L242,-260 L242,-280 L260,-290 Z" />
<path fill="#D8D388" d="M294,-250 L294,-230 L277,-220 L260,-230 L260,-250 L277,-260 Z" />
<path fill="#D8D388" d="M312,-220 L312,-200 L294,-190 L277,-200 L277,-220 L294,-230 Z" />
<path fill="#4ee055" d="M329,-190 L329,-170 L312,-160 L294,-170 L294,-190 L312,-200 Z" />
<path fill="#D8D388" d="M346,-160 L346,-140 L329,-130 L312,-140 L312,-160 L329,-170 Z" />
<path fill="#D8D388" d="M-364,-70 L-364,-50 L-381,-40 L-398,-50 L-398,-70 L-381,-80 Z" />
<path fill="#4ee055" d="M-346,-100 L-346,-80 L-364,-70 L-381,-80 L-381,-100 L-364,-110 Z" />
<path fill="#D8D388" d="M-329,-130 L-329,-110 L-346,-100 L-364,-110 L-364,-130 L-346,-140 Z" />
<path fill="#D8D388" d="M-312,-160 L-312,-140 L-329,-130 L-346,-140 L-346,-160 L-329,-170 Z" />
<path fill="#4ee055" d="M-294,-190 L-294,-170 L-312,-160 L-329,-170 L-329,-190 L-312,-200 Z" />
<path fill="#D8D388" d="M-277,-220 L-277,-200 L-294,-190 L-312,-200 L-312,-220 L-294,-230 Z" />
<path fill="#D8D388" d="M-260,-250 L-260,-230 L-277,-220 L-294,-230 L-294,-250 L-277,-260 Z" />
<path fill="#4ee055" d="M-242,-280 L-242,-260 L-260,-250 L-277,-260 L-277,-280 L-260,-290 Z" />
<path fill="#D8D388" d="M-225,-310 L-225,-290 L-242,-280 L-260,-290 L-260,-310 L-242,-320 Z" />
<path fill="#D8D388" d="M-208,-340 L-208,-320 L-225,-310 L-242,-320 L-242,-340 L-225,-350 Z" />
<path fill="#4ee055" d="M-191,-370 L-191,-350 L-208,-340 L-225,-350 L-225,-370 L-208,-380 Z" />
<path fill="#D8D388" d="M-208,-400 L-208,-380 L-225,-370 L-242,-380 L-242,-400 L-225,-410 Z" />
<path fill="#D8D388" d="M-173,-400 L-173,-380 L-191,-370 L-208,-380 L-208,-400 L-191,-410 Z" />
<path fill="#4ee055" d="M-139,-400 L-139,-380 L-156,-370 L-173,-380 L-173,-400 L-156,-410 Z" />
<path fill="#D8D388" d="M-104,-400 L-104,-380 L-121,-370 L-139,-380 L-139,-400 L-121,-410 Z" />
<path fill="#D8D388" d="M-69,-400 L-69,-380 L-87,-370 L-104,-380 L-104,-400 L-87,-410 Z" />
<path fill="#4ee055" d="M-35,-400 L-35,-380 L-52,-370 L-69,-380 L-69,-400 L-52,-410 Z" />
<path fill="#D8D388" d="M0,-400 L0,-380 L-17,-370 L-35,-380 L-35,-400 L-17,-410 Z" />
<path fill="#D8D388" d="M35,-400 L35,-380 L17,-370 L0,-380 L0,-400 L17,-410 Z" />
<path fill="#D8D388" d="M260,-370 L260,-350 L242,-340 L225,-350 L225,-370 L242,-380 Z" />
<path fill="#4ee055" d="M277,-340 L277,-320 L260,-310 L242,-320 L242,-340 L260,-350 Z" />
<path fill="#D8D388" d="M294,-310 L294,-290 L277,-280 L260,-290 L260,-310 L277,-320 Z" />
<path fill="#D8D388" d="M312,-280 L312,-260 L294,-250 L277,-260 L277,-280 L294,-290 Z" />
<path fill="#4ee055" d="M329,-250 L329,-230 L312,-220 L294,-230 L294,-250 L312,-260 Z" />
<path fill="#D8D388" d="M346,-220 L346,-200 L329,-190 L312,-200 L312,-220 L329,-230 Z" />
<path fill="#D8D388" d="M364,-190 L364,-170 L346,-160 L329,-170 L329,-190 L346,-200 Z" />
<path fill="#4ee055" d="M381,-160 L381,-140 L364,-130 L346,-140 L346,-160 L364,-170 Z" />
<path fill="#4ee055" d="M-398,-70 L-398,-50 L-416,-40 L-433,-50 L-433,-70 L-416,-80 Z" />
<path fill="#D8D388" d="M-381,-100 L-381,-80 L-398,-70 L-416,-80 L-416,-100 L-398,-110 Z" />
<path fill="#D8D388" d="M-364,-130 L-364,-110 L-381,-100 L-398,-110 L-398,-130 L-381,-140 Z" />
<path fill="#4ee055" d="M-346,-160 L-346,-140 L-364,-130 L-381,-140 L-381,-160 L-364,-170 Z" />
<path fill="#D8D388" d="M-329,-190 L-329,-170 L-346,-160 L-364,-170 L-364,-190 L-346,-200 Z" />
<path fill="#D8D388" d="M-312,-220 L-312,-200 L-329,-190 L-346,-200 L-346,-220 L-329,-230 Z" />
<path fill="#4ee055" d="M-294,-250 L-294,-230 L-312,-220 L-329,-230 L-329,-250 L-312,-260 Z" />
<path fill="#D8D388" d="M-277,-280 L-277,-260 L-294,-250 L-312,-260 L-312,-280 L-294,-290 Z" />
<path fill="#D8D388" d="M-260,-310 L-260,-290 L-277,-280 L-294,-290 L-294,-310 L-277,-320 Z" />
<path fill="#4ee055" d="M-242,-340 L-242,-320 L-260,-310 L-277,-320 L-277,-340 L-260,-350 Z" />
<path fill="#D8D388" d="M-225,-370 L-225,-350 L-242,-340 L-260,-350 L-260,-370 L-242,-380 Z" />
<path fill="#D8D388" d="M-208,-400 L-208,-380 L-225,-370 L-242,-380 L-242,-400 L-225,-410 Z" />
<path fill="#D8D388" d="M-225,-430 L-225,-410 L-242,-400 L-260,-410 L-260,-430 L-242,-440 Z" />
<path fill="#4ee055" d="M-191,-430 L-191,-410 L-208,-400 L-225,-410 L-225,-430 L-208,-440 Z" />
<path fill="#D8D388" d="M-156,-430 L-156,-410 L-173,-400 L-191,-410 L-191,-430 L-173,-440 Z" />
<path fill="#D8D388" d="M-121,-430 L-121,-410 L-139,-400 L-156,-410 L-156,-430 L-139,-440 Z" />
<path fill="#4ee055" d="M-87,-430 L-87,-410 L-104,-400 L-121,-410 L-121,-430 L-104,-440 Z" />
<path fill="#D8D388" d="M-52,-430 L-52,-410 L-69,-400 L-87,-410 L-87,-430 L-69,-440 Z" />
<path fill="#D8D388" d="M-17,-430 L-17,-410 L-35,-400 L-52,-410 L-52,-430 L-35,-440 Z" />
<path fill="#4ee055" d="M17,-430 L17,-410 L0,-400 L-17,-410 L-17,-430 L0,-440 Z" />
<path fill="#D8D388" d="M52,-430 L52,-410 L35,-400 L17,-410 L17,-430 L35,-440 Z" />
<path fill="#D8D388" d="M294,-370 L294,-350 L277,-340 L260,-350 L260,-370 L277,-380 Z" />
<path fill="#D8D388" d="M312,-340 L312,-320 L294,-310 L277,-320 L277,-340 L294,-350 Z" />
<path fill="#4ee055" d="M329,-310 L329,-290 L312,-280 L294,-290 L294,-310 L312,-320 Z" />
<path fill="#D8D388" d="M346,-280 L346,-260 L329,-250 L312,-260 L312,-280 L329,-290 Z" />
<path fill="#D8D388" d="M364,-250 L364,-230 L346,-220 L329,-230 L329,-250 L346,-260 Z" />
<path fill="#4ee055" d="M381,-220 L381,-200 L364,-190 L346,-200 L346,-220 L364,-230 Z" />
<path fill="#D8D388" d="M-416,-100 L-416,-80 L-433,-70 L-450,-80 L-450,-100 L-433,-110 Z" />
<path fill="#4ee055" d="M-398,-130 L-398,-110 L-416,-100 L-433,-110 L-433,-130 L-416,-140 Z" />
<path fill="#D8D388" d="M-381,-160 L-381,-140 L-398,-130 L-416,-140 L-416,-160 L-398,-170 Z" />
<path fill="#D8D388" d="M-364,-190 L-364,-170 L-381,-160 L-398,-170 L-398,-190 L-381,-200 Z" />
<path fill="#4ee055" d="M-346,-220 L-346,-200 L-364,-190 L-381,-200 L-381,-220 L-364,-230 Z" />
<path fill="#D8D388" d="M-329,-250 L-329,-230 L-346,-220 L-364,-230 L-364,-250 L-346,-260 Z" />
<path fill="#D8D388" d="M-312,-280 L-312,-260 L-329,-250 L-346,-260 L-346,-280 L-329,-290 Z" />
<path fill="#4ee055" d="M-294,-310 L-294,-290 L-312,-280 L-329,-290 L-329,-310 L-312,-320 Z" />
<path fill="#D8D388" d="M-277,-340 L-277,-320 L-294,-310 L-312,-320 L-312,-340 L-294,-350 Z" />
<path fill="#D8D388" d="M-260,-370 L-260,-350 L-277,-340 L-294,-350 L-294,-370 L-277,-380 Z" />
<path fill="#4ee055" d="M-242,-400 L-242,-380 L-260,-370 L-277,-380 L-277,-400 L-260,-410 Z" />
<path fill="#D8D388" d="M-225,-430 L-225,-410 L-242,-400 L-260,-410 L-260,-430 L-242,-440 Z" />
<path fill="#4ee055" d="M-242,-460 L-242,-440 L-260,-430 L-277,-440 L-277,-460 L-260,-470 Z" />
<path fill="#D8D388" d="M-208,-460 L-208,-440 L-225,-430 L-242,-440 L-242,-460 L-225,-470 Z" />
<path fill="#D8D388" d="M-173,-460 L-173,-440 L-191,-430 L-208,-440 L-208,-460 L-191,-470 Z" />
<path fill="#4ee055" d="M-139,-460 L-139,-440 L-156,-430 L-173,-440 L-173,-460 L-156,-470 Z" />
<path fill="#D8D388" d="M-104,-460 L-104,-440 L-121,-430 L-139,-440 L-139,-460 L-121,-470 Z" />
<path fill="#D8D388" d="M-69,-460 L-69,-440 L-87,-430 L-104,-440 L-104,-460 L-87,-470 Z" />
<path fill="#4ee055" d="M-35,-460 L-35,-440 L-52,-430 L-69,-440 L-69,-460 L-52,-470 Z" />
<path fill="#D8D388" d="M0,-460 L0,-440 L-17,-430 L-35,-440 L-35,-460 L-17,-470 Z" />
<path fill="#D8D388" d="M35,-460 L35,-440 L17,-430 L0,-440 L0,-460 L17,-470 Z" />
<path fill="#4ee055" d="M329,-370 L329,-350 L312,-340 L294,-350 L294,-370 L312,-380 Z" />
<path fill="#D8D388" d="M346,-340 L346,-320 L329,-310 L312,-320 L312,-340 L329,-350 Z" />
<path fill="#D8D388" d="M364,-310 L364,-290 L346,-280 L329,-290 L329,-310 L346,-320 Z" />
<path fill="#4ee055" d="M381,-280 L381,-260 L364,-250 L346,-260 L346,-280 L364,-290 Z" />
<path fill="#D8D388" d="M-433,-130 L-433,-110 L-450,-100 L-468,-110 L-468,-130 L-450,-140 Z" />
<path fill="#D8D388" d="M-416,-160 L-416,-140 L-433,-130 L-450,-140 L-450,-160 L-433,-170 Z" />
<path fill="#4ee055" d="M-398,-190 L-398,-170 L-416,-160 L-433,-170 L-433,-190 L-416,-200 Z" />
<path fill="#D8D388" d="M-381,-220 L-381,-200 L-398,-190 L-416,-200 L-416,-220 L-398,-230 Z" />
<path fill="#D8D388" d="M-364,-250 L-364,-230 L-381,-220 L-398,-230 L-398,-250 L-381,-260 Z" />
<path fill="#4ee055" d="M-346,-280 L-346,-260 L-364,-250 L-381,-260 L-381,-280 L-364,-290 Z" />
<path fill="#D8D388" d="M-329,-310 L-329,-290 L-346,-280 L-364,-290 L-364,-310 L-346,-320 Z" />
<path fill="#D8D388" d="M-312,-340 L-312,-320 L-329,-310 L-346,-320 L-346,-340 L-329,-350 Z" />
<path fill="#4ee055" d="M-294,-370 L-294,-350 L-312,-340 L-329,-350 L-329,-370 L-312,-380 Z" />
<path fill="#D8D388" d="M-277,-400 L-277,-380 L-294,-370 L-312,-380 L-312,-400 L-294,-410 Z" />
<path fill="#D8D388" d="M-260,-430 L-260,-410 L-277,-400 L-294,-410 L-294,-430 L-277,-440 Z" />
<path fill="#4ee055" d="M-242,-460 L-242,-440 L-260,-430 L-277,-440 L-277,-460 L-260,-470 Z" />
<path fill="#D8D388" d="M-260,-490 L-260,-470 L-277,-460 L-294,-470 L-294,-490 L-277,-500 Z" />
<path fill="#D8D388" d="M-225,-490 L-225,-470 L-242,-460 L-260,-470 L-260,-490 L-242,-500 Z" />
<path fill="#4ee055" d="M-191,-490 L-191,-470 L-208,-460 L-225,-470 L-225,-490 L-208,-500 Z" />
<path fill="#D8D388" d="M-156,-490 L-156,-470 L-173,-460 L-191,-470 L-191,-490 L-173,-500 Z" />
<path fill="#D8D388" d="M-121,-490 L-121,-470 L-139,-460 L-156,-470 L-156,-490 L-139,-500 Z" />
<path fill="#4ee055" d="M-87,-490 L-87,-470 L-104,-460 L-121,-470 L-121,-490 L-104,-500 Z" />
<path fill="#D8D388" d="M-52,-490 L-52,-470 L-69,-460 L-87,-470 L-87,-490 L-69,-500 Z" />
<path fill="#D8D388" d="M-17,-490 L-17,-470 L-35,-460 L-52,-470 L-52,-490 L-35,-500 Z" />
<path fill="#4ee055" d="M17,-490 L17,-470 L0,-460 L-17,-470 L-17,-490 L0,-500 Z" />
<path fill="#D8D388" d="M52,-490 L52,-470 L35,-460 L17,-470 L17,-490 L35,-500 Z" />
<path fill="#D8D388" d="M364,-370 L364,-350 L346,-340 L329,-350 L329,-370 L346,-380 Z" />
<path fill="#4ee055" d="M381,-340 L381,-320 L364,-310 L346,-320 L346,-340 L364,-350 Z" />
<path fill="#D8D388" d="M-468,-130 L-468,-110 L-485,-100 L-502,-110 L-502,-130 L-485,-140 Z" />
<path fill="#4ee055" d="M-450,-160 L-450,-140 L-468,-130 L-485,-140 L-485,-160 L-468,-170 Z" />
<path fill="#D8D388" d="M-433,-190 L-433,-170 L-450,-160 L-468,-170 L-468,-190 L-450,-200 Z" />
<path fill="#D8D388" d="M-416,-220 L-416,-200 L-433,-190 L-450,-200 L-450,-220 L-433,-230 Z" />
<path fill="#4ee055" d="M-398,-250 L-398,-230 L-416,-220 L-433,-230 L-433,-250 L-416,-260 Z" />
<path fill="#D8D388" d="M-381,-280 L-381,-260 L-398,-250 L-416,-260 L-416,-280 L-398,-290 Z" />
<path fill="#D8D388" d="M-364,-310 L-364,-290 L-381,-280 L-398,-290 L-398,-310 L-381,-320 Z" />
<path fill="#4ee055" d="M-346,-340 L-346,-320 L-364,-310 L-381,-320 L-381,-340 L-364,-350 Z" />
<path fill="#D8D388" d="M-329,-370 L-329,-350 L-346,-340 L-364,-350 L-364,-370 L-346,-380 Z" />
<path fill="#D8D388" d="M-312,-400 L-312,-380 L-329,-370 L-346,-380 L-346,-400 L-329,-410 Z" />
<path fill="#4ee055" d="M-294,-430 L-294,-410 L-312,-400 L-329,-410 L-329,-430 L-312,-440 Z" />
<path fill="#D8D388" d="M-277,-460 L-277,-440 L-294,-430 L-312,-440 L-312,-460 L-294,-470 Z" />
<path fill="#D8D388" d="M-260,-490 L-260,-470 L-277,-460 L-294,-470 L-294,-490 L-277,-500 Z" />
<path fill="#D8D388" d="M-277,-520 L-277,-500 L-294,-490 L-312,-500 L-312,-520 L-294,-530 Z" />
<path fill="#4ee055" d="M-242,-520 L-242,-500 L-260,-490 L-277,-500 L-277,-520 L-260,-530 Z" />
<path fill="#D8D388" d="M-208,-520 L-208,-500 L-225,-490 L-242,-500 L-242,-520 L-225,-530 Z" />
<path fill="#D8D388" d="M-173,-520 L-173,-500 L-191,-490 L-208,-500 L-208,-520 L-191,-530 Z" />
<path fill="#4ee055" d="M-139,-520 L-139,-500 L-156,-490 L-173,-500 L-173,-520 L-156,-530 Z" />
<path fill="#D8D388" d="M-104,-520 L-104,-500 L-121,-490 L-139,-500 L-139,-520 L-121,-530 Z" />
<path fill="#D8D388" d="M-69,-520 L-69,-500 L-87,-490 L-104,-500 L-104,-520 L-87,-530 Z" />
<path fill="#4ee055" d="M-35,-520 L-35,-500 L-52,-490 L-69,-500 L-69,-520 L-52,-530 Z" />
<path fill="#D8D388" d="M0,-520 L0,-500 L-17,-490 L-35,-500 L-35,-520 L-17,-530 Z" />
<path fill="#D8D388" d="M35,-520 L35,-500 L17,-490 L0,-500 L0,-520 L17,-530 Z" />
<path fill="#4ee055" d="M-502,-130 L-502,-110 L-520,-100 L-537,-110 L-537,-130 L-520,-140 Z" />
<path fill="#D8D388" d="M-485,-160 L-485,-140 L-502,-130 L-520,-140 L-520,-160 L-502,-170 Z" />
<path fill="#D8D388" d="M-468,-190 L-468,-170 L-485,-160 L-502,-170 L-502,-190 L-485,-200 Z" />
<path fill="#4ee055" d="M-450,-220 L-450,-200 L-468,-190 L-485,-200 L-485,-220 L-468,-230 Z" />
<path fill="#D8D388" d="M-433,-250 L-433,-230 L-450,-220 L-468,-230 L-468,-250 L-450,-260 Z" />
<path fill="#D8D388" d="M-416,-280 L-416,-260 L-433,-250 L-450,-260 L-450,-280 L-433,-290 Z" />
<path fill="#4ee055" d="M-398,-310 L-398,-290 L-416,-280 L-433,-290 L-433,-310 L-416,-320 Z" />
<path fill="#D8D388" d="M-381,-340 L-381,-320 L-398,-310 L-416,-320 L-416,-340 L-398,-350 Z" />
<path fill="#D8D388" d="M-364,-370 L-364,-350 L-381,-340 L-398,-350 L-398,-370 L-381,-380 Z" />
<path fill="#4ee055" d="M-346,-400 L-346,-380 L-364,-370 L-381,-380 L-381,-400 L-364,-410 Z" />
<path fill="#D8D388" d="M-329,-430 L-329,-410 L-346,-400 L-364,-410 L-364,-430 L-346,-440 Z" />
<path fill="#D8D388" d="M-312,-460 L-312,-440 L-329,-430 L-346,-440 L-346,-460 L-329,-470 Z" />
<path fill="#4ee055" d="M-294,-490 L-294,-470 L-312,-460 L-329,-470 L-329,-490 L-312,-500 Z" />
<path fill="#D8D388" d="M-277,-520 L-277,-500 L-294,-490 L-312,-500 L-312,-520 L-294,-530 Z" />
<path fill="#4ee055" d="M-191,-550 L-191,-530 L-208,-520 L-225,-530 L-225,-550 L-208,-560 Z" />
<path fill="#D8D388" d="M-156,-550 L-156,-530 L-173,-520 L-191,-530 L-191,-550 L-173,-560 Z" />
<path fill="#D8D388" d="M-121,-550 L-121,-530 L-139,-520 L-156,-530 L-156,-550 L-139,-560 Z" />
<path fill="#4ee055" d="M-87,-550 L-87,-530 L-104,-520 L-121,-530 L-121,-550 L-104,-560 Z" />
<path fill="#D8D388" d="M-52,-550 L-52,-530 L-69,-520 L-87,-530 L-87,-550 L-69,-560 Z" />
<path fill="#D8D388" d="M-17,-550 L-17,-530 L-35,-520 L-52,-530 L-52,-550 L-35,-560 Z" />
<path fill="#4ee055" d="M17,-550 L17,-530 L0,-520 L-17,-530 L-17,-550 L0,-560 Z" />
<path fill="#D8D388" d="M52,-550 L52,-530 L35,-520 L17,-530 L17,-550 L35,-560 Z" />
<path fill="#D8D388" d="M-520,-160 L-520,-140 L-537,-130 L-554,-140 L-554,-160 L-537,-170 Z" />
<path fill="#4ee055" d="M-502,-190 L-502,-170 L-520,-160 L-537,-170 L-537,-190 L-520,-200 Z" />
<path fill="#D8D388" d="M-485,-220 L-485,-200 L-502,-190 L-520,-200 L-520,-220 L-502,-230 Z" />
<path fill="#D8D388" d="M-468,-250 L-468,-230 L-485,-220 L-502,-230 L-502,-250 L-485,-260 Z" />
<path fill="#4ee055" d="M-450,-280 L-450,-260 L-468,-250 L-485,-260 L-485,-280 L-468,-290 Z" />
<path fill="#D8D388" d="M-433,-310 L-433,-290 L-450,-280 L-468,-290 L-468,-310 L-450,-320 Z" />
<path fill="#D8D388" d="M-416,-340 L-416,-320 L-433,-310 L-450,-320 L-450,-340 L-433,-350 Z" />
<path fill="#4ee055" d="M-398,-370 L-398,-350 L-416,-340 L-433,-350 L-433,-370 L-416,-380 Z" />
<path fill="#D8D388" d="M-381,-400 L-381,-380 L-398,-370 L-416,-380 L-416,-400 L-398,-410 Z" />
<path fill="#D8D388" d="M-364,-430 L-364,-410 L-381,-400 L-398,-410 L-398,-430 L-381,-440 Z" />
<path fill="#4ee055" d="M-346,-460 L-346,-440 L-364,-430 L-381,-440 L-381,-460 L-364,-470 Z" />
<path fill="#D8D388" d="M-329,-490 L-329,-470 L-346,-460 L-364,-470 L-364,-490 L-346,-500 Z" />
<path fill="#D8D388" d="M-312,-580 L-312,-560 L-329,-550 L-346,-560 L-346,-580 L-329,-590 Z" />
<path fill="#D8D388" d="M-104,-580 L-104,-560 L-121,-550 L-139,-560 L-139,-580 L-121,-590 Z" />
<path fill="#D8D388" d="M-69,-580 L-69,-560 L-87,-550 L-104,-560 L-104,-580 L-87,-590 Z" />
<path fill="#4ee055" d="M-35,-580 L-35,-560 L-52,-550 L-69,-560 L-69,-580 L-52,-590 Z" />
<path fill="#D8D388" d="M0,-580 L0,-560 L-17,-550 L-35,-560 L-35,-580 L-17,-590 Z" />
<path fill="#D8D388" d="M35,-580 L35,-560 L17,-550 L0,-560 L0,-580 L17,-590 Z" />
<path fill="#4ee055" d="M-554,-160 L-554,-140 L-572,-130 L-589,-140 L-589,-160 L-572,-170 Z" />
<path fill="#D8D388" d="M-537,-190 L-537,-170 L-554,-160 L-572,-170 L-572,-190 L-554,-200 Z" />
<path fill="#D8D388" d="M-520,-220 L-520,-200 L-537,-190 L-554,-200 L-554,-220 L-537,-230 Z" />
<path fill="#4ee055" d="M-502,-250 L-502,-230 L-520,-220 L-537,-230 L-537,-250 L-520,-260 Z" />
<path fill="#D8D388" d="M-485,-280 L-485,-260 L-502,-250 L-520,-260 L-520,-280 L-502,-290 Z" />
<path fill="#D8D388" d="M-468,-310 L-468,-290 L-485,-280 L-502,-290 L-502,-310 L-485,-320 Z" />
<path fill="#4ee055" d="M-450,-340 L-450,-320 L-468,-310 L-485,-320 L-485,-340 L-468,-350 Z" />
<path fill="#D8D388" d="M-433,-370 L-433,-350 L-450,-340 L-468,-350 L-468,-370 L-450,-380 Z" />
<path fill="#D8D388" d="M-416,-400 L-416,-380 L-433,-370 L-450,-380 L-450,-400 L-433,-410 Z" />
<path fill="#4ee055" d="M-398,-430 L-398,-410 L-416,-400 L-433,-410 L-433,-430 L-416,-440 Z" />
<path fill="#D8D388" d="M-381,-460 L-381,-440 L-398,-430 L-416,-440 L-416,-460 L-398,-470 Z" />
<path fill="#D8D388" d="M-364,-490 L-364,-470 L-381,-460 L-398,-470 L-398,-490 L-381,-500 Z" />
<path fill="#D8D388" d="M-329,-550 L-329,-530 L-346,-520 L-364,-530 L-364,-550 L-346,-560 Z" />
<path fill="#D8D388" d="M-312,-580 L-312,-560 L-329,-550 L-346,-560 L-346,-580 L-329,-590 Z" />
<path fill="#4ee055" d="M-294,-610 L-294,-590 L-312,-580 L-329,-590 L-329,-610 L-312,-620 Z" />
<path fill="#D8D388" d="M-260,-610 L-260,-590 L-277,-580 L-294,-590 L-294,-610 L-277,-620 Z" />
<path fill="#D8D388" d="M-52,-610 L-52,-590 L-69,-580 L-87,-590 L-87,-610 L-69,-620 Z" />
<path fill="#D8D388" d="M-17,-610 L-17,-590 L-35,-580 L-52,-590 L-52,-610 L-35,-620 Z" />
<path fill="#4ee055" d="M17,-610 L17,-590 L0,-580 L-17,-590 L-17,-610 L0,-620 Z" />
<path fill="#D8D388" d="M52,-610 L52,-590 L35,-580 L17,-590 L17,-610 L35,-620 Z" />
<path fill="#4ee055" d="M-658,-40 L-658,-20 L-675,-10 L-693,-20 L-693,-40 L-675,-50 Z" />
<path fill="#D8D388" d="M-589,-160 L-589,-140 L-606,-130 L-624,-140 L-624,-160 L-606,-170 Z" />
<path fill="#D8D388" d="M-572,-190 L-572,-170 L-589,-160 L-606,-170 L-606,-190 L-589,-200 Z" />
<path fill="#4ee055" d="M-554,-220 L-554,-200 L-572,-190 L-589,-200 L-589,-220 L-572,-230 Z" />
<path fill="#D8D388" d="M-537,-250 L-537,-230 L-554,-220 L-572,-230 L-572,-250 L-554,-260 Z" />
<path fill="#D8D388" d="M-520,-280 L-520,-260 L-537,-250 L-554,-260 L-554,-280 L-537,-290 Z" />
<path fill="#4ee055" d="M-502,-310 L-502,-290 L-520,-280 L-537,-290 L-537,-310 L-520,-320 Z" />
<path fill="#D8D388" d="M-485,-340 L-485,-320 L-502,-310 L-520,-320 L-520,-340 L-502,-350 Z" />
<path fill="#D8D388" d="M-468,-370 L-468,-350 L-485,-340 L-502,-350 L-502,-370 L-485,-380 Z" />
<path fill="#4ee055" d="M-450,-400 L-450,-380 L-468,-370 L-485,-380 L-485,-400 L-468,-410 Z" />
<path fill="#D8D388" d="M-433,-430 L-433,-410 L-450,-400 L-468,-410 L-468,-430 L-450,-440 Z" />
<path fill="#D8D388" d="M-416,-460 L-416,-440 L-433,-430 L-450,-440 L-450,-460 L-433,-470 Z" />
<path fill="#4ee055" d="M-398,-490 L-398,-470 L-416,-460 L-433,-470 L-433,-490 L-416,-500 Z" />
<path fill="#D8D388" d="M-381,-520 L-381,-500 L-398,-490 L-416,-500 L-416,-520 L-398,-530 Z" />
<path fill="#D8D388" d="M-364,-550 L-364,-530 L-381,-520 L-398,-530 L-398,-550 L-381,-560 Z" />
<path fill="#D8D388" d="M-277,-640 L-277,-620 L-294,-610 L-312,-620 L-312,-640 L-294,-650 Z" />
<path fill="#4ee055" d="M-242,-640 L-242,-620 L-260,-610 L-277,-620 L-277,-640 L-260,-650 Z" />
<path fill="#D8D388" d="M0,-640 L0,-620 L-17,-610 L-35,-620 L-35,-640 L-17,-650 Z" />
<path fill="#D8D388" d="M35,-640 L35,-620 L17,-610 L0,-620 L0,-640 L17,-650 Z" />
<path fill="#4ee055" d="M69,-640 L69,-620 L52,-610 L35,-620 L35,-640 L52,-650 Z" />
<path fill="#D8D388" d="M-675,-70 L-675,-50 L-693,-40 L-710,-50 L-710,-70 L-693,-80 Z" />
<path fill="#4ee055" d="M-658,-100 L-658,-80 L-675,-70 L-693,-80 L-693,-100 L-675,-110 Z" />
<path fill="#4ee055" d="M-606,-190 L-606,-170 L-624,-160 L-641,-170 L-641,-190 L-624,-200 Z" />
<path fill="#D8D388" d="M-589,-220 L-589,-200 L-606,-190 L-624,-200 L-624,-220 L-606,-230 Z" />
<path fill="#D8D388" d="M-572,-250 L-572,-230 L-589,-220 L-606,-230 L-606,-250 L-589,-260 Z" />
<path fill="#4ee055" d="M-554,-280 L-554,-260 L-572,-250 L-589,-260 L-589,-280 L-572,-290 Z" />
<path fill="#D8D388" d="M-537,-310 L-537,-290 L-554,-280 L-572,-290 L-572,-310 L-554,-320 Z" />
<path fill="#D8D388" d="M-520,-340 L-520,-320 L-537,-310 L-554,-320 L-554,-340 L-537,-350 Z" />
<path fill="#4ee055" d="M-502,-370 L-502,-350 L-520,-340 L-537,-350 L-537,-370 L-520,-380 Z" />
<path fill="#D8D388" d="M-485,-400 L-485,-380 L-502,-370 L-520,-380 L-520,-400 L-502,-410 Z" />
<path fill="#D8D388" d="M-468,-430 L-468,-410 L-485,-400 L-502,-410 L-502,-430 L-485,-440 Z" />
<path fill="#4ee055" d="M-450,-460 L-450,-440 L-468,-430 L-485,-440 L-485,-460 L-468,-470 Z" />
<path fill="#D8D388" d="M-433,-490 L-433,-470 L-450,-460 L-468,-470 L-468,-490 L-450,-500 Z" />
<path fill="#D8D388" d="M-225,-670 L-225,-650 L-242,-640 L-260,-650 L-260,-670 L-242,-680 Z" />
<path fill="#4ee055" d="M17,-670 L17,-650 L0,-640 L-17,-650 L-17,-670 L0,-680 Z" />
<path fill="#D8D388" d="M52,-670 L52,-650 L35,-640 L17,-650 L17,-670 L35,-680 Z" />
<path fill="#D8D388" d="M87,-670 L87,-650 L69,-640 L52,-650 L52,-670 L69,-680 Z" />
<path fill="#D8D388" d="M-693,-100 L-693,-80 L-710,-70 L-727,-80 L-727,-100 L-710,-110 Z" />
<path fill="#D8D388" d="M-675,-130 L-675,-110 L-693,-100 L-710,-110 L-710,-130 L-693,-140 Z" />
<path fill="#D8D388" d="M-641,-190 L-641,-170 L-658,-160 L-675,-170 L-675,-190 L-658,-200 Z" />
<path fill="#D8D388" d="M-624,-220 L-624,-200 L-641,-190 L-658,-200 L-658,-220 L-641,-230 Z" />
<path fill="#4ee055" d="M-606,-250 L-606,-230 L-624,-220 L-641,-230 L-641,-250 L-624,-260 Z" />
<path fill="#D8D388" d="M-589,-280 L-589,-260 L-606,-250 L-624,-260 L-624,-280 L-606,-290 Z" />
<path fill="#D8D388" d="M-572,-310 L-572,-290 L-589,-280 L-606,-290 L-606,-310 L-589,-320 Z" />
<path fill="#4ee055" d="M-554,-340 L-554,-320 L-572,-310 L-589,-320 L-589,-340 L-572,-350 Z" />
<path fill="#D8D388" d="M-537,-370 L-537,-350 L-554,-340 L-572,-350 L-572,-370 L-554,-380 Z" />
<path fill="#D8D388" d="M-520,-400 L-520,-380 L-537,-370 L-554,-380 L-554,-400 L-537,-410 Z" />
<path fill="#4ee055" d="M-502,-430 L-502,-410 L-520,-400 L-537,-410 L-537,-430 L-520,-440 Z" />
<path fill="#D8D388" d="M-485,-460 L-485,-440 L-502,-430 L-520,-440 L-520,-460 L-502,-470 Z" />
<path fill="#D8D388" d="M-208,-700 L-208,-680 L-225,-670 L-242,-680 L-242,-700 L-225,-710 Z" />
<path fill="#4ee055" d="M69,-700 L69,-680 L52,-670 L35,-680 L35,-700 L52,-710 Z" />
<path fill="#D8D388" d="M104,-700 L104,-680 L87,-670 L69,-680 L69,-700 L87,-710 Z" />
<path fill="#4ee055" d="M-710,-130 L-710,-110 L-727,-100 L-745,-110 L-745,-130 L-727,-140 Z" />
<path fill="#D8D388" d="M-693,-160 L-693,-140 L-710,-130 L-727,-140 L-727,-160 L-710,-170 Z" />
<path fill="#D8D388" d="M-675,-190 L-675,-170 L-693,-160 L-710,-170 L-710,-190 L-693,-200 Z" />
<path fill="#4ee055" d="M-658,-220 L-658,-200 L-675,-190 L-693,-200 L-693,-220 L-675,-230 Z" />
<path fill="#D8D388" d="M-641,-250 L-641,-230 L-658,-220 L-675,-230 L-675,-250 L-658,-260 Z" />
<path fill="#D8D388" d="M-624,-280 L-624,-260 L-641,-250 L-658,-260 L-658,-280 L-641,-290 Z" />
<path fill="#4ee055" d="M-606,-310 L-606,-290 L-624,-280 L-641,-290 L-641,-310 L-624,-320 Z" />
<path fill="#D8D388" d="M-589,-340 L-589,-320 L-606,-310 L-624,-320 L-624,-340 L-606,-350 Z" />
<path fill="#D8D388" d="M-572,-370 L-572,-350 L-589,-340 L-606,-350 L-606,-370 L-589,-380 Z" />
<path fill="#4ee055" d="M-554,-400 L-554,-380 L-572,-370 L-589,-380 L-589,-400 L-572,-410 Z" />
<path fill="#D8D388" d="M-537,-430 L-537,-410 L-554,-400 L-572,-410 L-572,-430 L-554,-440 Z" />
<path fill="#4ee055" d="M121,-730 L121,-710 L104,-700 L87,-710 L87,-730 L104,-740 Z" />
<path fill="#4ee055" d="M-710,-190 L-710,-170 L-727,-160 L-745,-170 L-745,-190 L-727,-200 Z" />
<path fill="#D8D388" d="M-693,-220 L-693,-200 L-710,-190 L-727,-200 L-727,-220 L-710,-230 Z" />
<path fill="#D8D388" d="M-675,-250 L-675,-230 L-693,-220 L-710,-230 L-710,-250 L-693,-260 Z" />
<path fill="#4ee055" d="M-658,-280 L-658,-260 L-675,-250 L-693,-260 L-693,-280 L-675,-290 Z" />
<path fill="#D8D388" d="M-641,-310 L-641,-290 L-658,-280 L-675,-290 L-675,-310 L-658,-320 Z" />
<path fill="#D8D388" d="M-624,-340 L-624,-320 L-641,-310 L-658,-320 L-658,-340 L-641,-350 Z" />
<path fill="#4ee055" d="M-606,-370 L-606,-350 L-624,-340 L-641,-350 L-641,-370 L-624,-380 Z" />
<path fill="#D8D388" d="M-589,-400 L-589,-380 L-606,-370 L-624,-380 L-624,-400 L-606,-410 Z" />
<path fill="#D8D388" d="M-572,-430 L-572,-410 L-589,-400 L-606,-410 L-606,-430 L-589,-440 Z" />
<path fill="#D8D388" d="M139,-760 L139,-740 L121,-730 L104,-740 L104,-760 L121,-770 Z" />
<path fill="#D8D388" d="M-745,-190 L-745,-170 L-762,-160 L-779,-170 L-779,-190 L-762,-200 Z" />
<path fill="#D8D388" d="M-727,-220 L-727,-200 L-745,-190 L-762,-200 L-762,-220 L-745,-230 Z" />
<path fill="#4ee055" d="M-710,-250 L-710,-230 L-727,-220 L-745,-230 L-745,-250 L-727,-260 Z" />
<path fill="#D8D388" d="M-693,-280 L-693,-260 L-710,-250 L-727,-260 L-727,-280 L-710,-290 Z" />
<path fill="#D8D388" d="M-675,-310 L-675,-290 L-693,-280 L-710,-290 L-710,-310 L-693,-320 Z" />
<path fill="#4ee055" d="M-658,-340 L-658,-320 L-675,-310 L-693,-320 L-693,-340 L-675,-350 Z" />
<path fill="#D8D388" d="M-641,-370 L-641,-350 L-658,-340 L-675,-350 L-675,-370 L-658,-380 Z" />
<path fill="#D8D388" d="M-624,-400 L-624,-380 L-641,-370 L-658,-380 L-658,-400 L-641,-410 Z" />
<path fill="#D8D388" d="M156,-790 L156,-770 L139,-760 L121,-770 L121,-790 L139,-800 Z" />
<path fill="#4ee055" d="M-762,-220 L-762,-200 L-779,-190 L-797,-200 L-797,-220 L-779,-230 Z" />
<path fill="#D8D388" d="M-745,-250 L-745,-230 L-762,-220 L-779,-230 L-779,-250 L-762,-260 Z" />
<path fill="#D8D388" d="M-727,-280 L-727,-260 L-745,-250 L-762,-260 L-762,-280 L-745,-290 Z" />
<path fill="#4ee055" d="M-710,-310 L-710,-290 L-727,-280 L-745,-290 L-745,-310 L-727,-320 Z" />
<path fill="#D8D388" d="M-693,-340 L-693,-320 L-710,-310 L-727,-320 L-727,-340 L-710,-350 Z" />
<path fill="#D8D388" d="M-675,-370 L-675,-350 L-693,-340 L-710,-350 L-710,-370 L-693,-380 Z" />
<path fill="#4ee055" d="M-658,-400 L-658,-380 L-675,-370 L-693,-380 L-693,-400 L-675,-410 Z" />
<path fill="#4ee055" d="M173,-820 L173,-800 L156,-790 L139,-800 L139,-820 L156,-830 Z" />
<path fill="#D8D388" d="M-797,-220 L-797,-200 L-814,-190 L-831,-200 L-831,-220 L-814,-230 Z" />
<path fill="#D8D388" d="M-779,-250 L-779,-230 L-797,-220 L-814,-230 L-814,-250 L-797,-260 Z" />
<path fill="#4ee055" d="M-762,-280 L-762,-260 L-779,-250 L-797,-260 L-797,-280 L-779,-290 Z" />
<path fill="#D8D388" d="M-745,-310 L-745,-290 L-762,-280 L-779,-290 L-779,-310 L-762,-320 Z" />
<path fill="#D8D388" d="M-727,-340 L-727,-320 L-745,-310 L-762,-320 L-762,-340 L-745,-350 Z" />
<path fill="#4ee055" d="M-710,-370 L-710,-350 L-727,-340 L-745,-350 L-745,-370 L-727,-380 Z" />
<path fill="#D8D388" d="M-693,-400 L-693,-380 L-710,-370 L-727,-380 L-727,-400 L-710,-410 Z" />
<path fill="#4ee055" d="M-658,-460 L-658,-440 L-675,-430 L-693,-440 L-693,-460 L-675,-470 Z" />
<path fill="#4ee055" d="M-814,-250 L-814,-230 L-831,-220 L-849,-230 L-849,-250 L-831,-260 Z" />
<path fill="#D8D388" d="M-797,-280 L-797,-260 L-814,-250 L-831,-260 L-831,-280 L-814,-290 Z" />
<path fill="#D8D388" d="M-779,-310 L-779,-290 L-797,-280 L-814,-290 L-814,-310 L-797,-320 Z" />
<path fill="#4ee055" d="M-762,-340 L-762,-320 L-779,-310 L-797,-320 L-797,-340 L-779,-350 Z" />
<path fill="#D8D388" d="M-745,-370 L-745,-350 L-762,-340 L-779,-350 L-779,-370 L-762,-380 Z" />
<path fill="#D8D388" d="M-727,-400 L-727,-380 L-745,-370 L-762,-380 L-762,-400 L-745,-410 Z" />
<path fill="#4ee055" d="M-710,-430 L-710,-410 L-727,-400 L-745,-410 L-745,-430 L-727,-440 Z" />
<path fill="#D8D388" d="M-693,-460 L-693,-440 L-710,-430 L-727,-440 L-727,-460 L-710,-470 Z" />
<path fill="#D8D388" d="M-675,-490 L-675,-470 L-693,-460 L-710,-470 L-710,-490 L-693,-500 Z" />
<path fill="#4ee055" d="M-658,-520 L-658,-500 L-675,-490 L-693,-500 L-693,-520 L-675,-530 Z" />
<path fill="#D8D388" d="M-641,-550 L-641,-530 L-658,-520 L-675,-530 L-675,-550 L-658,-560 Z" />
<path fill="#D8D388" d="M-624,-580 L-624,-560 L-641,-550 L-658,-560 L-658,-580 L-641,-590 Z" />
<path fill="#4ee055" d="M-606,-610 L-606,-590 L-624,-580 L-641,-590 L-641,-610 L-624,-620 Z" />
<path fill="#D8D388" d="M-831,-280 L-831,-260 L-849,-250 L-866,-260 L-866,-280 L-849,-290 Z" />
</g>
</svg>